<?xml version="1.0" encoding="UTF-8" standalone="no"?>
<svg
   version="1.1"
   viewBox="0 0 512.49945 248.10555"
   fill="none"
   stroke="none"
   stroke-linecap="square"
   stroke-miterlimit="10"
   id="svg125"
   sodipodi:docname="broker-unavailable.svg"
   width="512.49945"
   height="248.10555"
   inkscape:version="1.2.2 (b0a8486541, 2022-12-01)"
   xmlns:inkscape="http://www.inkscape.org/namespaces/inkscape"
   xmlns:sodipodi="http://sodipodi.sourceforge.net/DTD/sodipodi-0.dtd"
   xmlns="http://www.w3.org/2000/svg"
   xmlns:svg="http://www.w3.org/2000/svg">
  <defs
     id="defs129" />
  <sodipodi:namedview
     id="namedview127"
     pagecolor="#ffffff"
     bordercolor="#666666"
     borderopacity="1.0"
     inkscape:showpageshadow="2"
     inkscape:pageopacity="0.0"
     inkscape:pagecheckerboard="0"
     inkscape:deskcolor="#d1d1d1"
     showgrid="false"
     inkscape:zoom="1.3552083"
     inkscape:cx="320.24596"
     inkscape:cy="118.80092"
     inkscape:window-width="1920"
     inkscape:window-height="1011"
     inkscape:window-x="0"
     inkscape:window-y="32"
     inkscape:window-maximized="1"
     inkscape:current-layer="svg125" />
  <clipPath
     id="g181d49305e0_0_271.0">
    <path
       d="M 0,0 H 960 V 540 H 0 Z"
       clip-rule="nonzero"
       id="path2" />
  </clipPath>
  <g
     clip-path="url(#g181d49305e0_0_271.0)"
     id="g123"
     transform="translate(-142.04068,-151.31721)">
    <path
       fill="#e06666"
       d="m 161.19423,197.85039 h 98.39369 v 42.01575 h -98.39369 z"
       fill-rule="evenodd"
       id="path7" />
    <path
       fill="#f3f3f3"
       d="m 175.35944,212.02039 q 1.3125,-0.3125 2.5625,-0.3125 0.96875,0 1.75,0.23437 0.79687,0.23438 1.35937,0.73438 0.57813,0.48437 0.89063,1.28125 0.3125,0.78125 0.3125,1.875 0,1.125 -0.32813,1.92187 -0.3125,0.78125 -0.89062,1.28125 -0.57813,0.48438 -1.39063,0.71875 -0.8125,0.21875 -1.79687,0.21875 h -0.78125 v 4.79688 h -1.6875 z m 1.6875,6.48437 h 0.67187 q 0.625,0 1.14063,-0.14062 0.51562,-0.14063 0.85937,-0.45313 0.35938,-0.32812 0.54688,-0.82812 0.1875,-0.5 0.1875,-1.25 0,-0.75 -0.1875,-1.25 -0.1875,-0.51563 -0.51563,-0.82813 -0.3125,-0.3125 -0.78125,-0.4375 -0.46875,-0.125 -1.03125,-0.125 -0.48437,0 -0.89062,0.0469 z m 7.03432,-3.32812 q 0.48437,-0.20313 1.01562,-0.3125 0.54688,-0.125 1.1875,-0.125 1.29688,0 2.10938,0.8125 0.82812,0.8125 0.82812,2.51562 v 6.5 q -0.67187,0.1875 -1.375,0.29688 -0.6875,0.10937 -1.35937,0.10937 -0.67188,0 -1.26563,-0.17187 -0.57812,-0.15625 -1.03125,-0.53125 -0.4375,-0.375 -0.70312,-0.9375 -0.25,-0.57813 -0.25,-1.39063 0,-0.76562 0.23437,-1.32812 0.23438,-0.57813 0.64063,-0.95313 0.40625,-0.39062 0.96875,-0.57812 0.5625,-0.20313 1.21875,-0.20313 0.60937,0 1.35937,0.14063 v -0.89063 q 0,-1.07812 -0.42187,-1.5 -0.42188,-0.4375 -1.20313,-0.4375 -0.42187,0 -0.8125,0.0937 -0.375,0.0781 -0.8125,0.25 z m 0.76562,6.73437 q 0,0.85938 0.4375,1.28125 0.45313,0.40625 1.26563,0.40625 0.51562,0 1.10937,-0.14062 v -3.10938 q -0.5625,-0.15625 -1.10937,-0.15625 -0.34375,0 -0.67188,0.0937 -0.3125,0.0781 -0.54687,0.28125 -0.23438,0.1875 -0.35938,0.51563 -0.125,0.32812 -0.125,0.82812 z m 11.40932,-5.48437 q -0.59375,-0.25 -1.34375,-0.25 -0.6875,0 -1.28125,0.23437 v 8.35938 h -1.60938 v -9.35938 q 0.54688,-0.26562 1.23438,-0.4375 0.70312,-0.1875 1.54687,-0.1875 0.45313,0 0.89063,0.0625 0.45312,0.0469 0.84375,0.20313 z m 3.38487,-1.45313 h 2.45313 v 1.39063 h -2.45313 v 5.39062 q 0,1 0.35938,1.40625 0.35937,0.39063 0.98437,0.39063 0.3125,0 0.59375,-0.0937 0.29688,-0.0937 0.5,-0.21875 l 0.3125,1.28125 q -0.76562,0.45312 -1.625,0.45312 -1.375,0 -2.0625,-0.76562 -0.67187,-0.78125 -0.67187,-2.57813 v -9.28125 l 1.60937,-0.28125 z m 6.09804,9.79688 h -1.60938 v -9.79688 h 1.60938 z m -0.8125,-11.53125 q -0.42188,0 -0.73438,-0.28125 -0.29687,-0.29688 -0.29687,-0.78125 0,-0.48438 0.29687,-0.76563 0.3125,-0.29687 0.73438,-0.29687 0.4375,0 0.73437,0.29687 0.3125,0.28125 0.3125,0.76563 0,0.48437 -0.3125,0.78125 -0.29687,0.28125 -0.73437,0.28125 z m 5.21794,1.73437 h 2.45313 v 1.39063 h -2.45313 v 5.39062 q 0,1 0.35938,1.40625 0.35937,0.39063 0.98437,0.39063 0.3125,0 0.59375,-0.0937 0.29688,-0.0937 0.5,-0.21875 l 0.3125,1.28125 q -0.76562,0.45312 -1.625,0.45312 -1.375,0 -2.0625,-0.76562 -0.67187,-0.78125 -0.67187,-2.57813 v -9.28125 l 1.60937,-0.28125 z m 6.09804,9.79688 h -1.60938 v -9.79688 h 1.60938 z m -0.8125,-11.53125 q -0.42188,0 -0.73438,-0.28125 -0.29687,-0.29688 -0.29687,-0.78125 0,-0.48438 0.29687,-0.76563 0.3125,-0.29687 0.73438,-0.29687 0.4375,0 0.73437,0.29687 0.3125,0.28125 0.3125,0.76563 0,0.48437 -0.3125,0.78125 -0.29687,0.28125 -0.73437,0.28125 z m 10.01481,6.64062 q 0,1.15625 -0.21875,2.10938 -0.20312,0.9375 -0.625,1.60937 -0.40625,0.67188 -1.0625,1.04688 -0.64062,0.375 -1.51562,0.375 -0.875,0 -1.53125,-0.375 -0.65625,-0.375 -1.07813,-1.04688 -0.40625,-0.67187 -0.625,-1.60937 -0.20312,-0.95313 -0.20312,-2.10938 0,-1.14062 0.20312,-2.07812 0.21875,-0.95313 0.625,-1.64063 0.42188,-0.6875 1.07813,-1.04687 0.65625,-0.375 1.53125,-0.375 0.875,0 1.51562,0.375 0.65625,0.35937 1.0625,1.04687 0.42188,0.6875 0.625,1.64063 0.21875,0.9375 0.21875,2.07812 z m -1.6875,0 q 0,-0.8125 -0.0937,-1.5 -0.0937,-0.6875 -0.29687,-1.17187 -0.20313,-0.5 -0.54688,-0.76563 -0.32812,-0.26562 -0.79687,-0.26562 -0.48438,0 -0.8125,0.26562 -0.32813,0.26563 -0.54688,0.76563 -0.20312,0.48437 -0.29687,1.17187 -0.0937,0.6875 -0.0937,1.5 0,0.82813 0.0937,1.51563 0.0937,0.67187 0.29687,1.15625 0.21875,0.48437 0.54688,0.76562 0.32812,0.26563 0.8125,0.26563 0.46875,0 0.79687,-0.26563 0.34375,-0.28125 0.54688,-0.76562 0.20312,-0.48438 0.29687,-1.15625 0.0937,-0.6875 0.0937,-1.51563 z m 4.02848,-4.625 q 0.6875,-0.20312 1.48437,-0.34375 0.8125,-0.14062 1.48438,-0.14062 0.73437,0 1.32812,0.20312 0.59375,0.1875 1.01563,0.65625 0.42187,0.46875 0.65625,1.26563 0.23437,0.78125 0.23437,1.96875 v 5.90625 h -1.60937 v -5.78125 q 0,-1.45313 -0.375,-2.125 -0.375,-0.67188 -1.40625,-0.67188 -0.53125,0 -1.20313,0.1875 v 8.39063 h -1.60937 z m 12.48965,-0.84375 q 0.34375,-0.20312 0.71875,-0.5 0.39063,-0.29687 0.75,-0.64062 0.35938,-0.34375 0.65625,-0.70313 0.3125,-0.375 0.51563,-0.71875 h 1.23437 v 12.92188 h -1.60937 v -10.39063 q -0.3125,0.32813 -0.73438,0.64063 -0.42187,0.29687 -0.89062,0.54687 z"
       fill-rule="nonzero"
       id="path9" />
    <path
       fill="#6fa8dc"
       d="m 161.19423,262.13882 h 98.39369 v 42.01575 h -98.39369 z"
       fill-rule="evenodd"
       id="path11" />
    <path
       fill="#f3f3f3"
       d="m 171.75673,276.3088 q 1.3125,-0.3125 2.5625,-0.3125 0.96875,0 1.75,0.23438 0.79687,0.23437 1.35937,0.73437 0.57813,0.48438 0.89063,1.28125 0.3125,0.78125 0.3125,1.875 0,1.125 -0.32813,1.92188 -0.3125,0.78125 -0.89062,1.28125 -0.57813,0.48437 -1.39063,0.71875 -0.8125,0.21875 -1.79687,0.21875 h -0.78125 v 4.79687 h -1.6875 z m 1.6875,6.48438 h 0.67187 q 0.625,0 1.14063,-0.14063 0.51562,-0.14062 0.85937,-0.45312 0.35938,-0.32813 0.54688,-0.82813 0.1875,-0.5 0.1875,-1.25 0,-0.75 -0.1875,-1.25 -0.1875,-0.51562 -0.51563,-0.82812 -0.3125,-0.3125 -0.78125,-0.4375 -0.46875,-0.125 -1.03125,-0.125 -0.48437,0 -0.89062,0.0469 z m 7.03432,-3.32813 q 0.48437,-0.20312 1.01562,-0.3125 0.54688,-0.125 1.1875,-0.125 1.29688,0 2.10938,0.8125 0.82812,0.8125 0.82812,2.51563 v 6.5 q -0.67187,0.1875 -1.375,0.29687 -0.6875,0.10938 -1.35937,0.10938 -0.67188,0 -1.26563,-0.17188 -0.57812,-0.15625 -1.03125,-0.53125 -0.4375,-0.375 -0.70312,-0.9375 -0.25,-0.57812 -0.25,-1.39062 0,-0.76563 0.23437,-1.32813 0.23438,-0.57812 0.64063,-0.95312 0.40625,-0.39063 0.96875,-0.57813 0.5625,-0.20312 1.21875,-0.20312 0.60937,0 1.35937,0.14062 v -0.89062 q 0,-1.07813 -0.42187,-1.5 -0.42188,-0.4375 -1.20313,-0.4375 -0.42187,0 -0.8125,0.0937 -0.375,0.0781 -0.8125,0.25 z m 0.76562,6.73438 q 0,0.85937 0.4375,1.28125 0.45313,0.40625 1.26563,0.40625 0.51562,0 1.10937,-0.14063 v -3.10937 q -0.5625,-0.15625 -1.10937,-0.15625 -0.34375,0 -0.67188,0.0937 -0.3125,0.0781 -0.54687,0.28125 -0.23438,0.1875 -0.35938,0.51562 -0.125,0.32813 -0.125,0.82813 z m 11.40932,-5.48438 q -0.59375,-0.25 -1.34375,-0.25 -0.6875,0 -1.28125,0.23438 v 8.35937 h -1.60938 v -9.35937 q 0.54688,-0.26563 1.23438,-0.4375 0.70312,-0.1875 1.54687,-0.1875 0.45313,0 0.89063,0.0625 0.45312,0.0469 0.84375,0.20312 z m 3.38487,-1.45312 h 2.45313 v 1.39062 h -2.45313 v 5.39063 q 0,1 0.35938,1.40625 0.35937,0.39062 0.98437,0.39062 0.3125,0 0.59375,-0.0937 0.29688,-0.0937 0.5,-0.21875 l 0.3125,1.28125 q -0.76562,0.45313 -1.625,0.45313 -1.375,0 -2.0625,-0.76563 -0.67187,-0.78125 -0.67187,-2.57812 v -9.28125 l 1.60937,-0.28125 z m 6.09804,9.79687 h -1.60938 v -9.79687 h 1.60938 z m -0.8125,-11.53125 q -0.42188,0 -0.73438,-0.28125 -0.29687,-0.29687 -0.29687,-0.78125 0,-0.48437 0.29687,-0.76562 0.3125,-0.29688 0.73438,-0.29688 0.4375,0 0.73437,0.29688 0.3125,0.28125 0.3125,0.76562 0,0.48438 -0.3125,0.78125 -0.29687,0.28125 -0.73437,0.28125 z m 5.21794,1.73438 h 2.45313 v 1.39062 h -2.45313 v 5.39063 q 0,1 0.35938,1.40625 0.35937,0.39062 0.98437,0.39062 0.3125,0 0.59375,-0.0937 0.29688,-0.0937 0.5,-0.21875 l 0.3125,1.28125 q -0.76562,0.45313 -1.625,0.45313 -1.375,0 -2.0625,-0.76563 -0.67187,-0.78125 -0.67187,-2.57812 v -9.28125 l 1.60937,-0.28125 z m 6.09804,9.79687 h -1.60938 v -9.79687 h 1.60938 z m -0.8125,-11.53125 q -0.42188,0 -0.73438,-0.28125 -0.29687,-0.29687 -0.29687,-0.78125 0,-0.48437 0.29687,-0.76562 0.3125,-0.29688 0.73438,-0.29688 0.4375,0 0.73437,0.29688 0.3125,0.28125 0.3125,0.76562 0,0.48438 -0.3125,0.78125 -0.29687,0.28125 -0.73437,0.28125 z m 10.01481,6.64063 q 0,1.15625 -0.21875,2.10937 -0.20312,0.9375 -0.625,1.60938 -0.40625,0.67187 -1.0625,1.04687 -0.64062,0.375 -1.51562,0.375 -0.875,0 -1.53125,-0.375 -0.65625,-0.375 -1.07813,-1.04687 -0.40625,-0.67188 -0.625,-1.60938 -0.20312,-0.95312 -0.20312,-2.10937 0,-1.14063 0.20312,-2.07813 0.21875,-0.95312 0.625,-1.64062 0.42188,-0.6875 1.07813,-1.04688 0.65625,-0.375 1.53125,-0.375 0.875,0 1.51562,0.375 0.65625,0.35938 1.0625,1.04688 0.42188,0.6875 0.625,1.64062 0.21875,0.9375 0.21875,2.07813 z m -1.6875,0 q 0,-0.8125 -0.0937,-1.5 -0.0937,-0.6875 -0.29687,-1.17188 -0.20313,-0.5 -0.54688,-0.76562 -0.32812,-0.26563 -0.79687,-0.26563 -0.48438,0 -0.8125,0.26563 -0.32813,0.26562 -0.54688,0.76562 -0.20312,0.48438 -0.29687,1.17188 -0.0937,0.6875 -0.0937,1.5 0,0.82812 0.0937,1.51562 0.0937,0.67188 0.29687,1.15625 0.21875,0.48438 0.54688,0.76563 0.32812,0.26562 0.8125,0.26562 0.46875,0 0.79687,-0.26562 0.34375,-0.28125 0.54688,-0.76563 0.20312,-0.48437 0.29687,-1.15625 0.0937,-0.6875 0.0937,-1.51562 z m 4.02848,-4.625 q 0.6875,-0.20313 1.48437,-0.34375 0.8125,-0.14063 1.48438,-0.14063 0.73437,0 1.32812,0.20313 0.59375,0.1875 1.01563,0.65625 0.42187,0.46875 0.65625,1.26562 0.23437,0.78125 0.23437,1.96875 v 5.90625 h -1.60937 v -5.78125 q 0,-1.45312 -0.375,-2.125 -0.375,-0.67187 -1.40625,-0.67187 -0.53125,0 -1.20313,0.1875 v 8.39062 h -1.60937 z m 12.00528,-2.60938 q 1.09375,-1.10937 2.67187,-1.10937 1.51563,0 2.3125,0.79687 0.8125,0.79688 0.8125,2.46875 0,0.79688 -0.26562,1.5 -0.26563,0.70313 -0.65625,1.375 -0.39063,0.65625 -0.85938,1.3125 -0.45312,0.65625 -0.89062,1.34375 -0.42188,0.67188 -0.75,1.40625 -0.3125,0.73438 -0.39063,1.57813 h 4.07813 v 1.45312 h -5.79688 v -0.35937 q 0,-1.25 0.28125,-2.21875 0.29688,-0.96875 0.71875,-1.75 0.42188,-0.78125 0.92188,-1.45313 0.51562,-0.67187 0.92187,-1.3125 0.42188,-0.65625 0.70313,-1.32812 0.29687,-0.6875 0.29687,-1.5 0,-0.98438 -0.39062,-1.42188 -0.39063,-0.45312 -1.17188,-0.45312 -0.54687,0 -0.98437,0.21875 -0.4375,0.21875 -0.78125,0.54687 z"
       fill-rule="nonzero"
       id="path13" />
    <path
       fill="#6fa8dc"
       d="m 161.19423,326.42783 h 98.39369 v 42.01575 h -98.39369 z"
       fill-rule="evenodd"
       id="path15" />
    <path
       fill="#f3f3f3"
       d="m 171.75673,340.5978 q 1.3125,-0.3125 2.5625,-0.3125 0.96875,0 1.75,0.23437 0.79687,0.23438 1.35937,0.73438 0.57813,0.48437 0.89063,1.28125 0.3125,0.78125 0.3125,1.875 0,1.125 -0.32813,1.92187 -0.3125,0.78125 -0.89062,1.28125 -0.57813,0.48438 -1.39063,0.71875 -0.8125,0.21875 -1.79687,0.21875 h -0.78125 v 4.79688 h -1.6875 z m 1.6875,6.48437 h 0.67187 q 0.625,0 1.14063,-0.14062 0.51562,-0.14063 0.85937,-0.45313 0.35938,-0.32812 0.54688,-0.82812 0.1875,-0.5 0.1875,-1.25 0,-0.75 -0.1875,-1.25 -0.1875,-0.51563 -0.51563,-0.82813 -0.3125,-0.3125 -0.78125,-0.4375 -0.46875,-0.125 -1.03125,-0.125 -0.48437,0 -0.89062,0.0469 z m 7.03432,-3.32812 q 0.48437,-0.20313 1.01562,-0.3125 0.54688,-0.125 1.1875,-0.125 1.29688,0 2.10938,0.8125 0.82812,0.8125 0.82812,2.51562 v 6.5 q -0.67187,0.1875 -1.375,0.29688 -0.6875,0.10937 -1.35937,0.10937 -0.67188,0 -1.26563,-0.17187 -0.57812,-0.15625 -1.03125,-0.53125 -0.4375,-0.375 -0.70312,-0.9375 -0.25,-0.57813 -0.25,-1.39063 0,-0.76562 0.23437,-1.32812 0.23438,-0.57813 0.64063,-0.95313 0.40625,-0.39062 0.96875,-0.57812 0.5625,-0.20313 1.21875,-0.20313 0.60937,0 1.35937,0.14063 v -0.89063 q 0,-1.07812 -0.42187,-1.5 -0.42188,-0.4375 -1.20313,-0.4375 -0.42187,0 -0.8125,0.0937 -0.375,0.0781 -0.8125,0.25 z m 0.76562,6.73437 q 0,0.85938 0.4375,1.28125 0.45313,0.40625 1.26563,0.40625 0.51562,0 1.10937,-0.14062 v -3.10938 q -0.5625,-0.15625 -1.10937,-0.15625 -0.34375,0 -0.67188,0.0937 -0.3125,0.0781 -0.54687,0.28125 -0.23438,0.1875 -0.35938,0.51563 -0.125,0.32812 -0.125,0.82812 z m 11.40932,-5.48437 q -0.59375,-0.25 -1.34375,-0.25 -0.6875,0 -1.28125,0.23437 v 8.35938 h -1.60938 v -9.35938 q 0.54688,-0.26562 1.23438,-0.4375 0.70312,-0.1875 1.54687,-0.1875 0.45313,0 0.89063,0.0625 0.45312,0.0469 0.84375,0.20313 z m 3.38487,-1.45313 h 2.45313 v 1.39063 h -2.45313 v 5.39062 q 0,1 0.35938,1.40625 0.35937,0.39063 0.98437,0.39063 0.3125,0 0.59375,-0.0937 0.29688,-0.0937 0.5,-0.21875 l 0.3125,1.28125 q -0.76562,0.45312 -1.625,0.45312 -1.375,0 -2.0625,-0.76562 -0.67187,-0.78125 -0.67187,-2.57813 v -9.28125 l 1.60937,-0.28125 z m 6.09804,9.79688 h -1.60938 v -9.79688 h 1.60938 z m -0.8125,-11.53125 q -0.42188,0 -0.73438,-0.28125 -0.29687,-0.29688 -0.29687,-0.78125 0,-0.48438 0.29687,-0.76563 0.3125,-0.29687 0.73438,-0.29687 0.4375,0 0.73437,0.29687 0.3125,0.28125 0.3125,0.76563 0,0.48437 -0.3125,0.78125 -0.29687,0.28125 -0.73437,0.28125 z m 5.21794,1.73437 h 2.45313 v 1.39063 h -2.45313 v 5.39062 q 0,1 0.35938,1.40625 0.35937,0.39063 0.98437,0.39063 0.3125,0 0.59375,-0.0937 0.29688,-0.0937 0.5,-0.21875 l 0.3125,1.28125 q -0.76562,0.45312 -1.625,0.45312 -1.375,0 -2.0625,-0.76562 -0.67187,-0.78125 -0.67187,-2.57813 v -9.28125 l 1.60937,-0.28125 z m 6.09804,9.79688 h -1.60938 v -9.79688 h 1.60938 z m -0.8125,-11.53125 q -0.42188,0 -0.73438,-0.28125 -0.29687,-0.29688 -0.29687,-0.78125 0,-0.48438 0.29687,-0.76563 0.3125,-0.29687 0.73438,-0.29687 0.4375,0 0.73437,0.29687 0.3125,0.28125 0.3125,0.76563 0,0.48437 -0.3125,0.78125 -0.29687,0.28125 -0.73437,0.28125 z m 10.01481,6.64062 q 0,1.15625 -0.21875,2.10938 -0.20312,0.9375 -0.625,1.60937 -0.40625,0.67188 -1.0625,1.04688 -0.64062,0.375 -1.51562,0.375 -0.875,0 -1.53125,-0.375 -0.65625,-0.375 -1.07813,-1.04688 -0.40625,-0.67187 -0.625,-1.60937 -0.20312,-0.95313 -0.20312,-2.10938 0,-1.14062 0.20312,-2.07812 0.21875,-0.95313 0.625,-1.64063 0.42188,-0.6875 1.07813,-1.04687 0.65625,-0.375 1.53125,-0.375 0.875,0 1.51562,0.375 0.65625,0.35937 1.0625,1.04687 0.42188,0.6875 0.625,1.64063 0.21875,0.9375 0.21875,2.07812 z m -1.6875,0 q 0,-0.8125 -0.0937,-1.5 -0.0937,-0.6875 -0.29687,-1.17187 -0.20313,-0.5 -0.54688,-0.76563 -0.32812,-0.26562 -0.79687,-0.26562 -0.48438,0 -0.8125,0.26562 -0.32813,0.26563 -0.54688,0.76563 -0.20312,0.48437 -0.29687,1.17187 -0.0937,0.6875 -0.0937,1.5 0,0.82813 0.0937,1.51563 0.0937,0.67187 0.29687,1.15625 0.21875,0.48437 0.54688,0.76562 0.32812,0.26563 0.8125,0.26563 0.46875,0 0.79687,-0.26563 0.34375,-0.28125 0.54688,-0.76562 0.20312,-0.48438 0.29687,-1.15625 0.0937,-0.6875 0.0937,-1.51563 z m 4.02848,-4.625 q 0.6875,-0.20312 1.48437,-0.34375 0.8125,-0.14062 1.48438,-0.14062 0.73437,0 1.32812,0.20312 0.59375,0.1875 1.01563,0.65625 0.42187,0.46875 0.65625,1.26563 0.23437,0.78125 0.23437,1.96875 v 5.90625 h -1.60937 v -5.78125 q 0,-1.45313 -0.375,-2.125 -0.375,-0.67188 -1.40625,-0.67188 -0.53125,0 -1.20313,0.1875 v 8.39063 h -1.60937 z m 15.97403,2.5625 q 0.9375,0.32813 1.4375,1.1875 0.51562,0.84375 0.51562,2.1875 0,1.78125 -0.875,2.82813 -0.85937,1.03125 -2.60937,1.03125 -0.6875,0 -1.34375,-0.20313 -0.65625,-0.20312 -1.14063,-0.54687 l 0.4375,-1.29688 q 0.42188,0.25 0.89063,0.4375 0.48437,0.1875 1,0.1875 0.95312,0 1.48437,-0.57812 0.53125,-0.59375 0.53125,-1.875 0,-1.29688 -0.59375,-1.9375 -0.57812,-0.65625 -1.85937,-0.65625 h -0.48438 v -1.375 h 0.40625 q 1.125,0 1.65625,-0.59375 0.54688,-0.59375 0.54688,-1.65625 0,-1.01563 -0.4375,-1.5 -0.42188,-0.5 -1.125,-0.5 -0.48438,0 -0.9375,0.1875 -0.4375,0.1875 -0.75,0.46875 l -0.625,-1.17188 q 0.48437,-0.45312 1.14062,-0.67187 0.65625,-0.23438 1.3125,-0.23438 1.45313,0 2.23438,0.92188 0.79687,0.90625 0.79687,2.42187 0,1.0625 -0.42187,1.8125 -0.42188,0.73438 -1.1875,1.125 z"
       fill-rule="nonzero"
       id="path17" />
    <path
       fill="#000000"
       fill-opacity="0"
       d="m 167.3517,152.63457 h 86.07875 v 42.01575 H 167.3517 Z"
       fill-rule="evenodd"
       id="path19" />
    <path
       fill="#ffffff"
       d="m 181.08604,172.13269 h 1.15625 q 2.3125,0 2.3125,-2.09375 0,-0.65625 -0.20313,-1.0625 -0.1875,-0.42188 -0.51562,-0.65625 -0.3125,-0.23438 -0.73438,-0.32813 -0.42187,-0.0937 -0.875,-0.0937 -0.28125,0 -0.57812,0.0156 -0.28125,0.0156 -0.5625,0.0625 z m 0,1.34375 v 4.65625 q 0.34375,0.0625 0.6875,0.10937 0.35937,0.0312 0.6875,0.0312 0.53125,0 0.98437,-0.10937 0.46875,-0.125 0.8125,-0.375 0.34375,-0.26563 0.53125,-0.71875 0.20313,-0.46875 0.20313,-1.14063 0,-1.15625 -0.625,-1.79687 -0.625,-0.65625 -1.9375,-0.65625 z m -1.6875,-6.67188 q 0.65625,-0.14062 1.32812,-0.21875 0.6875,-0.0937 1.35938,-0.0937 0.84375,0 1.59375,0.15625 0.76562,0.15625 1.34375,0.54688 0.57812,0.375 0.92187,1 0.34375,0.625 0.34375,1.5625 0,1.15625 -0.48437,1.90625 -0.48438,0.73437 -1.25,1.07812 0.95312,0.375 1.5625,1.14063 0.625,0.76562 0.625,2.10937 0,1 -0.32813,1.70313 -0.32812,0.6875 -0.9375,1.125 -0.59375,0.4375 -1.42187,0.64062 -0.82813,0.1875 -1.8125,0.1875 -0.65625,0 -1.375,-0.0781 -0.70313,-0.0781 -1.46875,-0.21875 z m 13.84491,4.40625 q -0.59375,-0.25 -1.34375,-0.25 -0.6875,0 -1.28125,0.23438 v 8.35937 h -1.60938 v -9.35937 q 0.54688,-0.26563 1.23438,-0.4375 0.70312,-0.1875 1.54687,-0.1875 0.45313,0 0.89063,0.0625 0.45312,0.0469 0.84375,0.20312 z m 7.99509,3.45313 q 0,1.15625 -0.21875,2.10937 -0.20313,0.9375 -0.625,1.60938 -0.40625,0.67187 -1.0625,1.04687 -0.64063,0.375 -1.51563,0.375 -0.875,0 -1.53125,-0.375 -0.65625,-0.375 -1.07812,-1.04687 -0.40625,-0.67188 -0.625,-1.60938 -0.20313,-0.95312 -0.20313,-2.10937 0,-1.14063 0.20313,-2.07813 0.21875,-0.95312 0.625,-1.64062 0.42187,-0.6875 1.07812,-1.04688 0.65625,-0.375 1.53125,-0.375 0.875,0 1.51563,0.375 0.65625,0.35938 1.0625,1.04688 0.42187,0.6875 0.625,1.64062 0.21875,0.9375 0.21875,2.07813 z m -1.6875,0 q 0,-0.8125 -0.0937,-1.5 -0.0937,-0.6875 -0.29688,-1.17188 -0.20312,-0.5 -0.54687,-0.76562 -0.32813,-0.26563 -0.79688,-0.26563 -0.48437,0 -0.8125,0.26563 -0.32812,0.26562 -0.54687,0.76562 -0.20313,0.48438 -0.29688,1.17188 -0.0937,0.6875 -0.0937,1.5 0,0.82812 0.0937,1.51562 0.0937,0.67188 0.29688,1.15625 0.21875,0.48438 0.54687,0.76563 0.32813,0.26562 0.8125,0.26562 0.46875,0 0.79688,-0.26562 0.34375,-0.28125 0.54687,-0.76563 0.20313,-0.48437 0.29688,-1.15625 0.0937,-0.6875 0.0937,-1.51562 z m 10.09097,-4.90625 q -0.78125,1.34375 -1.5,2.45312 -0.71875,1.10938 -1.42188,2.07813 0.4375,0.53125 0.90625,1.1875 0.46875,0.64062 0.89063,1.34375 0.4375,0.70312 0.8125,1.40625 0.375,0.6875 0.625,1.32812 h -1.75 q -0.28125,-0.60937 -0.65625,-1.28125 -0.35938,-0.67187 -0.78125,-1.3125 -0.40625,-0.65625 -0.8125,-1.23437 -0.40625,-0.57813 -0.76563,-0.96875 v 4.79687 h -1.60937 v -14.20312 l 1.60937,-0.28125 v 8.90625 q 0.32813,-0.45313 0.70313,-1 0.39062,-0.5625 0.76562,-1.125 0.375,-0.57813 0.70313,-1.10938 0.34375,-0.54687 0.5625,-0.98437 z m 2.73309,5.375 q 0.0156,0.70312 0.125,1.29687 0.10938,0.59375 0.35938,1.03125 0.25,0.4375 0.67187,0.6875 0.42188,0.23438 1.07813,0.23438 0.53125,0 0.98437,-0.15625 0.46875,-0.17188 0.67188,-0.28125 l 0.29687,1.29687 q -0.23437,0.15625 -0.8125,0.35938 -0.5625,0.20312 -1.34375,0.20312 -1.03125,0 -1.73437,-0.375 -0.6875,-0.375 -1.14063,-1.04687 -0.4375,-0.67188 -0.625,-1.60938 -0.17187,-0.9375 -0.17187,-2.04687 0,-2.70313 0.89062,-3.95313 0.89063,-1.25 2.35938,-1.25 1.67187,0 2.35937,1.25 0.6875,1.25 0.6875,3.5 0,0.20313 0,0.42188 0,0.21875 -0.0156,0.4375 z m 1.60938,-4.25 q -0.79688,0 -1.15625,0.79687 -0.35938,0.79688 -0.4375,2.14063 h 2.96875 q 0,-1.35938 -0.28125,-2.14063 -0.28125,-0.79687 -1.09375,-0.79687 z m 9.64975,0.32812 q -0.59375,-0.25 -1.34375,-0.25 -0.6875,0 -1.28125,0.23438 v 8.35937 h -1.60938 v -9.35937 q 0.54688,-0.26563 1.23438,-0.4375 0.70312,-0.1875 1.54687,-0.1875 0.45313,0 0.89063,0.0625 0.45312,0.0469 0.84375,0.20312 z m 5.38222,-2.01562 q 0.34375,-0.20313 0.71875,-0.5 0.39062,-0.29688 0.75,-0.64063 0.35937,-0.34375 0.65625,-0.70312 0.3125,-0.375 0.51562,-0.71875 h 1.23438 v 12.92187 h -1.60938 v -10.39062 q -0.3125,0.32812 -0.73437,0.64062 -0.42188,0.29688 -0.89063,0.54688 z m 7.94406,-1.59375 q 0.53125,0.1875 1.0625,0.53125 0.53125,0.32812 0.95312,0.625 -0.14062,-0.48438 -0.29687,-1.09375 -0.15625,-0.60938 -0.15625,-1.17188 v -0.125 h 1.64062 v 0.125 q 0,0.5625 -0.15625,1.17188 -0.15625,0.60937 -0.3125,1.09375 0.4375,-0.28125 0.9375,-0.625 0.5,-0.34375 1.04688,-0.51563 l 0.125,-0.0469 0.48437,1.57812 -0.0937,0.0312 q -0.53125,0.17188 -1.15625,0.21875 -0.60937,0.0312 -1.09375,0.0625 0.375,0.3125 0.84375,0.70313 0.48438,0.375 0.79688,0.82812 l 0.0781,0.0937 -1.32812,0.96875 -0.0625,-0.10937 q -0.32813,-0.45313 -0.5625,-1.03125 -0.21875,-0.57813 -0.40625,-1.04688 -0.1875,0.46875 -0.40625,1.04688 -0.21875,0.57812 -0.54688,1.01562 l -0.0625,0.10938 -1.32812,-0.96875 0.0937,-0.0937 q 0.3125,-0.45313 0.79687,-0.84375 0.5,-0.39063 0.875,-0.70313 -0.5,-0.0469 -1.125,-0.0625 -0.60937,-0.0156 -1.14062,-0.21875 l -0.0781,-0.0625 0.46875,-1.53125 z"
       fill-rule="nonzero"
       id="path21" />
    <path
       fill="#000000"
       fill-opacity="0"
       d="M 142.54068,175.14699 V 391.14697"
       fill-rule="evenodd"
       id="path23" />
    <path
       stroke="#f3f3f3"
       stroke-width="1"
       stroke-linejoin="round"
       stroke-linecap="butt"
       d="M 142.54068,175.14699 V 391.14697"
       fill-rule="evenodd"
       id="path25" />
    <path
       fill="#000000"
       fill-opacity="0"
       d="M 278.49738,175.14699 V 391.14697"
       fill-rule="evenodd"
       id="path27" />
    <path
       stroke="#f3f3f3"
       stroke-width="1"
       stroke-linejoin="round"
       stroke-linecap="butt"
       d="M 278.49738,175.14699 V 391.14697"
       fill-rule="evenodd"
       id="path29" />
    <path
       fill="#000000"
       fill-opacity="0"
       d="M 142.13806,391.14697 H 278.642"
       fill-rule="evenodd"
       id="path31" />
    <path
       stroke="#f3f3f3"
       stroke-width="1"
       stroke-linejoin="round"
       stroke-linecap="butt"
       d="M 142.13806,391.14697 H 278.642"
       fill-rule="evenodd"
       id="path33" />
    <path
       fill="#000000"
       fill-opacity="0"
       d="M 142.54068,175.57735 H 170.4147"
       fill-rule="evenodd"
       id="path35" />
    <path
       stroke="#f3f3f3"
       stroke-width="1"
       stroke-linejoin="round"
       stroke-linecap="butt"
       d="M 142.54068,175.57735 H 170.4147"
       fill-rule="evenodd"
       id="path37" />
    <path
       fill="#000000"
       fill-opacity="0"
       d="m 249.74068,175.57735 h 27.87401"
       fill-rule="evenodd"
       id="path39" />
    <path
       stroke="#f3f3f3"
       stroke-width="1"
       stroke-linejoin="round"
       stroke-linecap="butt"
       d="m 249.74068,175.57735 h 27.87401"
       fill-rule="evenodd"
       id="path41" />
    <path
       fill="#6fa8dc"
       d="m 351.12073,197.55089 h 98.39371 v 42.01575 h -98.39371 z"
       fill-rule="evenodd"
       id="path43" />
    <path
       fill="#f3f3f3"
       d="m 365.28595,211.72089 q 1.3125,-0.3125 2.5625,-0.3125 0.96875,0 1.75,0.23437 0.79688,0.23438 1.35938,0.73438 0.57812,0.48437 0.89062,1.28125 0.3125,0.78125 0.3125,1.875 0,1.125 -0.32812,1.92187 -0.3125,0.78125 -0.89063,1.28125 -0.57812,0.48438 -1.39062,0.71875 -0.8125,0.21875 -1.79688,0.21875 h -0.78125 v 4.79688 h -1.6875 z m 1.6875,6.48437 h 0.67188 q 0.625,0 1.14062,-0.14062 0.51563,-0.14063 0.85938,-0.45313 0.35937,-0.32812 0.54687,-0.82812 0.1875,-0.5 0.1875,-1.25 0,-0.75 -0.1875,-1.25 -0.1875,-0.51563 -0.51562,-0.82813 -0.3125,-0.3125 -0.78125,-0.4375 -0.46875,-0.125 -1.03125,-0.125 -0.48438,0 -0.89063,0.0469 z m 7.0343,-3.32812 q 0.48438,-0.20313 1.01563,-0.3125 0.54687,-0.125 1.1875,-0.125 1.29687,0 2.10937,0.8125 0.82813,0.8125 0.82813,2.51562 v 6.5 q -0.67188,0.1875 -1.375,0.29688 -0.6875,0.10937 -1.35938,0.10937 -0.67187,0 -1.26562,-0.17187 -0.57813,-0.15625 -1.03125,-0.53125 -0.4375,-0.375 -0.70313,-0.9375 -0.25,-0.57813 -0.25,-1.39063 0,-0.76562 0.23438,-1.32812 0.23437,-0.57813 0.64062,-0.95313 0.40625,-0.39062 0.96875,-0.57812 0.5625,-0.20313 1.21875,-0.20313 0.60938,0 1.35938,0.14063 v -0.89063 q 0,-1.07812 -0.42188,-1.5 -0.42187,-0.4375 -1.20312,-0.4375 -0.42188,0 -0.8125,0.0937 -0.375,0.0781 -0.8125,0.25 z m 0.76563,6.73437 q 0,0.85938 0.4375,1.28125 0.45312,0.40625 1.26562,0.40625 0.51563,0 1.10938,-0.14062 v -3.10938 q -0.5625,-0.15625 -1.10938,-0.15625 -0.34375,0 -0.67187,0.0937 -0.3125,0.0781 -0.54688,0.28125 -0.23437,0.1875 -0.35937,0.51563 -0.125,0.32812 -0.125,0.82812 z m 11.40933,-5.48437 q -0.59375,-0.25 -1.34375,-0.25 -0.6875,0 -1.28125,0.23437 v 8.35938 h -1.60938 v -9.35938 q 0.54688,-0.26562 1.23438,-0.4375 0.70312,-0.1875 1.54687,-0.1875 0.45313,0 0.89063,0.0625 0.45312,0.0469 0.84375,0.20313 z m 3.38486,-1.45313 h 2.45312 v 1.39063 h -2.45312 v 5.39062 q 0,1 0.35937,1.40625 0.35938,0.39063 0.98438,0.39063 0.3125,0 0.59375,-0.0937 0.29687,-0.0937 0.5,-0.21875 l 0.3125,1.28125 q -0.76563,0.45312 -1.625,0.45312 -1.375,0 -2.0625,-0.76562 -0.67188,-0.78125 -0.67188,-2.57813 v -9.28125 l 1.60938,-0.28125 z m 6.09805,9.79688 h -1.60938 v -9.79688 h 1.60938 z m -0.8125,-11.53125 q -0.42188,0 -0.73438,-0.28125 -0.29687,-0.29688 -0.29687,-0.78125 0,-0.48438 0.29687,-0.76563 0.3125,-0.29687 0.73438,-0.29687 0.4375,0 0.73437,0.29687 0.3125,0.28125 0.3125,0.76563 0,0.48437 -0.3125,0.78125 -0.29687,0.28125 -0.73437,0.28125 z m 5.21792,1.73437 h 2.45313 v 1.39063 h -2.45313 v 5.39062 q 0,1 0.35938,1.40625 0.35937,0.39063 0.98437,0.39063 0.3125,0 0.59375,-0.0937 0.29688,-0.0937 0.5,-0.21875 l 0.3125,1.28125 q -0.76562,0.45312 -1.625,0.45312 -1.375,0 -2.0625,-0.76562 -0.67187,-0.78125 -0.67187,-2.57813 v -9.28125 l 1.60937,-0.28125 z m 6.09806,9.79688 h -1.60938 v -9.79688 h 1.60938 z m -0.8125,-11.53125 q -0.42188,0 -0.73438,-0.28125 -0.29687,-0.29688 -0.29687,-0.78125 0,-0.48438 0.29687,-0.76563 0.3125,-0.29687 0.73438,-0.29687 0.4375,0 0.73437,0.29687 0.3125,0.28125 0.3125,0.76563 0,0.48437 -0.3125,0.78125 -0.29687,0.28125 -0.73437,0.28125 z m 10.0148,6.64062 q 0,1.15625 -0.21875,2.10938 -0.20313,0.9375 -0.625,1.60937 -0.40625,0.67188 -1.0625,1.04688 -0.64063,0.375 -1.51563,0.375 -0.875,0 -1.53125,-0.375 -0.65625,-0.375 -1.07812,-1.04688 -0.40625,-0.67187 -0.625,-1.60937 -0.20313,-0.95313 -0.20313,-2.10938 0,-1.14062 0.20313,-2.07812 0.21875,-0.95313 0.625,-1.64063 0.42187,-0.6875 1.07812,-1.04687 0.65625,-0.375 1.53125,-0.375 0.875,0 1.51563,0.375 0.65625,0.35937 1.0625,1.04687 0.42187,0.6875 0.625,1.64063 0.21875,0.9375 0.21875,2.07812 z m -1.6875,0 q 0,-0.8125 -0.0937,-1.5 -0.0937,-0.6875 -0.29688,-1.17187 -0.20312,-0.5 -0.54687,-0.76563 -0.32813,-0.26562 -0.79688,-0.26562 -0.48437,0 -0.8125,0.26562 -0.32812,0.26563 -0.54687,0.76563 -0.20313,0.48437 -0.29688,1.17187 -0.0937,0.6875 -0.0937,1.5 0,0.82813 0.0937,1.51563 0.0937,0.67187 0.29688,1.15625 0.21875,0.48437 0.54687,0.76562 0.32813,0.26563 0.8125,0.26563 0.46875,0 0.79688,-0.26563 0.34375,-0.28125 0.54687,-0.76562 0.20313,-0.48438 0.29688,-1.15625 0.0937,-0.6875 0.0937,-1.51563 z m 4.02847,-4.625 q 0.6875,-0.20312 1.48438,-0.34375 0.8125,-0.14062 1.48437,-0.14062 0.73438,0 1.32813,0.20312 0.59375,0.1875 1.01562,0.65625 0.42188,0.46875 0.65625,1.26563 0.23438,0.78125 0.23438,1.96875 v 5.90625 h -1.60938 v -5.78125 q 0,-1.45313 -0.375,-2.125 -0.375,-0.67188 -1.40625,-0.67188 -0.53125,0 -1.20312,0.1875 v 8.39063 h -1.60938 z m 12.48966,-0.84375 q 0.34375,-0.20312 0.71875,-0.5 0.39062,-0.29687 0.75,-0.64062 0.35937,-0.34375 0.65625,-0.70313 0.3125,-0.375 0.51562,-0.71875 h 1.23438 v 12.92188 h -1.60938 v -10.39063 q -0.3125,0.32813 -0.73437,0.64063 -0.42188,0.29687 -0.89063,0.54687 z"
       fill-rule="nonzero"
       id="path45" />
    <path
       fill="#e06666"
       d="m 351.12073,261.83932 h 98.39371 v 42.01575 h -98.39371 z"
       fill-rule="evenodd"
       id="path47" />
    <path
       fill="#f3f3f3"
       d="m 361.68323,276.0093 q 1.3125,-0.3125 2.5625,-0.3125 0.96875,0 1.75,0.23437 0.79687,0.23438 1.35937,0.73438 0.57813,0.48437 0.89063,1.28125 0.3125,0.78125 0.3125,1.875 0,1.125 -0.32813,1.92187 -0.3125,0.78125 -0.89062,1.28125 -0.57813,0.48438 -1.39063,0.71875 -0.8125,0.21875 -1.79687,0.21875 h -0.78125 v 4.79688 h -1.6875 z m 1.6875,6.48437 h 0.67187 q 0.625,0 1.14063,-0.14062 0.51562,-0.14063 0.85937,-0.45313 0.35938,-0.32812 0.54688,-0.82812 0.1875,-0.5 0.1875,-1.25 0,-0.75 -0.1875,-1.25 -0.1875,-0.51563 -0.51563,-0.82813 -0.3125,-0.3125 -0.78125,-0.4375 -0.46875,-0.125 -1.03125,-0.125 -0.48437,0 -0.89062,0.0469 z m 7.03433,-3.32812 q 0.48438,-0.20313 1.01563,-0.3125 0.54687,-0.125 1.1875,-0.125 1.29687,0 2.10937,0.8125 0.82813,0.8125 0.82813,2.51562 v 6.5 q -0.67188,0.1875 -1.375,0.29688 -0.6875,0.10937 -1.35938,0.10937 -0.67187,0 -1.26562,-0.17187 -0.57813,-0.15625 -1.03125,-0.53125 -0.4375,-0.375 -0.70313,-0.9375 -0.25,-0.57813 -0.25,-1.39063 0,-0.76562 0.23438,-1.32812 0.23437,-0.57813 0.64062,-0.95313 0.40625,-0.39062 0.96875,-0.57812 0.5625,-0.20313 1.21875,-0.20313 0.60938,0 1.35938,0.14063 v -0.89063 q 0,-1.07812 -0.42188,-1.5 -0.42187,-0.4375 -1.20312,-0.4375 -0.42188,0 -0.8125,0.0937 -0.375,0.0781 -0.8125,0.25 z m 0.76563,6.73437 q 0,0.85938 0.4375,1.28125 0.45312,0.40625 1.26562,0.40625 0.51563,0 1.10938,-0.14062 v -3.10938 q -0.5625,-0.15625 -1.10938,-0.15625 -0.34375,0 -0.67187,0.0937 -0.3125,0.0781 -0.54688,0.28125 -0.23437,0.1875 -0.35937,0.51563 -0.125,0.32812 -0.125,0.82812 z m 11.4093,-5.48437 q -0.59375,-0.25 -1.34375,-0.25 -0.6875,0 -1.28125,0.23437 v 8.35938 h -1.60938 v -9.35938 q 0.54688,-0.26562 1.23438,-0.4375 0.70312,-0.1875 1.54687,-0.1875 0.45313,0 0.89063,0.0625 0.45312,0.0469 0.84375,0.20313 z m 3.38489,-1.45313 h 2.45312 v 1.39063 h -2.45312 v 5.39062 q 0,1 0.35937,1.40625 0.35938,0.39063 0.98438,0.39063 0.3125,0 0.59375,-0.0937 0.29687,-0.0937 0.5,-0.21875 l 0.3125,1.28125 q -0.76563,0.45312 -1.625,0.45312 -1.375,0 -2.0625,-0.76562 -0.67188,-0.78125 -0.67188,-2.57813 v -9.28125 l 1.60938,-0.28125 z m 6.09802,9.79688 h -1.60938 v -9.79688 h 1.60938 z m -0.8125,-11.53125 q -0.42188,0 -0.73438,-0.28125 -0.29687,-0.29688 -0.29687,-0.78125 0,-0.48438 0.29687,-0.76563 0.3125,-0.29687 0.73438,-0.29687 0.4375,0 0.73437,0.29687 0.3125,0.28125 0.3125,0.76563 0,0.48437 -0.3125,0.78125 -0.29687,0.28125 -0.73437,0.28125 z m 5.21796,1.73437 h 2.45312 v 1.39063 h -2.45312 v 5.39062 q 0,1 0.35937,1.40625 0.35938,0.39063 0.98438,0.39063 0.3125,0 0.59375,-0.0937 0.29687,-0.0937 0.5,-0.21875 l 0.3125,1.28125 q -0.76563,0.45312 -1.625,0.45312 -1.375,0 -2.0625,-0.76562 -0.67188,-0.78125 -0.67188,-2.57813 v -9.28125 l 1.60938,-0.28125 z m 6.09802,9.79688 H 400.957 v -9.79688 h 1.60938 z m -0.8125,-11.53125 q -0.42188,0 -0.73438,-0.28125 -0.29687,-0.29688 -0.29687,-0.78125 0,-0.48438 0.29687,-0.76563 0.3125,-0.29687 0.73438,-0.29687 0.4375,0 0.73437,0.29687 0.3125,0.28125 0.3125,0.76563 0,0.48437 -0.3125,0.78125 -0.29687,0.28125 -0.73437,0.28125 z m 10.01483,6.64062 q 0,1.15625 -0.21875,2.10938 -0.20312,0.9375 -0.625,1.60937 -0.40625,0.67188 -1.0625,1.04688 -0.64062,0.375 -1.51562,0.375 -0.875,0 -1.53125,-0.375 -0.65625,-0.375 -1.07813,-1.04688 -0.40625,-0.67187 -0.625,-1.60937 -0.20312,-0.95313 -0.20312,-2.10938 0,-1.14062 0.20312,-2.07812 0.21875,-0.95313 0.625,-1.64063 0.42188,-0.6875 1.07813,-1.04687 0.65625,-0.375 1.53125,-0.375 0.875,0 1.51562,0.375 0.65625,0.35937 1.0625,1.04687 0.42188,0.6875 0.625,1.64063 0.21875,0.9375 0.21875,2.07812 z m -1.6875,0 q 0,-0.8125 -0.0937,-1.5 -0.0937,-0.6875 -0.29687,-1.17187 -0.20313,-0.5 -0.54688,-0.76563 -0.32812,-0.26562 -0.79687,-0.26562 -0.48438,0 -0.8125,0.26562 -0.32813,0.26563 -0.54688,0.76563 -0.20312,0.48437 -0.29687,1.17187 -0.0937,0.6875 -0.0937,1.5 0,0.82813 0.0937,1.51563 0.0937,0.67187 0.29687,1.15625 0.21875,0.48437 0.54688,0.76562 0.32812,0.26563 0.8125,0.26563 0.46875,0 0.79687,-0.26563 0.34375,-0.28125 0.54688,-0.76562 0.20312,-0.48438 0.29687,-1.15625 0.0937,-0.6875 0.0937,-1.51563 z m 4.02847,-4.625 q 0.6875,-0.20312 1.48438,-0.34375 0.8125,-0.14062 1.48437,-0.14062 0.73438,0 1.32813,0.20312 0.59375,0.1875 1.01562,0.65625 0.42188,0.46875 0.65625,1.26563 0.23438,0.78125 0.23438,1.96875 v 5.90625 h -1.60938 v -5.78125 q 0,-1.45313 -0.375,-2.125 -0.375,-0.67188 -1.40625,-0.67188 -0.53125,0 -1.20312,0.1875 v 8.39063 h -1.60938 z m 12.00528,-2.60937 q 1.09375,-1.10938 2.67188,-1.10938 1.51562,0 2.3125,0.79688 0.8125,0.79687 0.8125,2.46875 0,0.79687 -0.26563,1.5 -0.26562,0.70312 -0.65625,1.375 -0.39062,0.65625 -0.85937,1.3125 -0.45313,0.65625 -0.89063,1.34375 -0.42187,0.67187 -0.75,1.40625 -0.3125,0.73437 -0.39062,1.57812 h 4.07812 v 1.45313 h -5.79687 v -0.35938 q 0,-1.25 0.28125,-2.21875 0.29687,-0.96875 0.71875,-1.75 0.42187,-0.78125 0.92187,-1.45312 0.51563,-0.67188 0.92188,-1.3125 0.42187,-0.65625 0.70312,-1.32813 0.29688,-0.6875 0.29688,-1.5 0,-0.98437 -0.39063,-1.42187 -0.39062,-0.45313 -1.17187,-0.45313 -0.54688,0 -0.98438,0.21875 -0.4375,0.21875 -0.78125,0.54688 z"
       fill-rule="nonzero"
       id="path49" />
    <path
       fill="#6fa8dc"
       d="m 351.12073,326.12833 h 98.39371 v 42.01575 h -98.39371 z"
       fill-rule="evenodd"
       id="path51" />
    <path
       fill="#f3f3f3"
       d="m 361.68323,340.2983 q 1.3125,-0.3125 2.5625,-0.3125 0.96875,0 1.75,0.23437 0.79687,0.23438 1.35937,0.73438 0.57813,0.48437 0.89063,1.28125 0.3125,0.78125 0.3125,1.875 0,1.125 -0.32813,1.92187 -0.3125,0.78125 -0.89062,1.28125 -0.57813,0.48438 -1.39063,0.71875 -0.8125,0.21875 -1.79687,0.21875 h -0.78125 v 4.79688 h -1.6875 z m 1.6875,6.48437 h 0.67187 q 0.625,0 1.14063,-0.14062 0.51562,-0.14063 0.85937,-0.45313 0.35938,-0.32812 0.54688,-0.82812 0.1875,-0.5 0.1875,-1.25 0,-0.75 -0.1875,-1.25 -0.1875,-0.51563 -0.51563,-0.82813 -0.3125,-0.3125 -0.78125,-0.4375 -0.46875,-0.125 -1.03125,-0.125 -0.48437,0 -0.89062,0.0469 z m 7.03433,-3.32812 q 0.48438,-0.20313 1.01563,-0.3125 0.54687,-0.125 1.1875,-0.125 1.29687,0 2.10937,0.8125 0.82813,0.8125 0.82813,2.51562 v 6.5 q -0.67188,0.1875 -1.375,0.29688 -0.6875,0.10937 -1.35938,0.10937 -0.67187,0 -1.26562,-0.17187 -0.57813,-0.15625 -1.03125,-0.53125 -0.4375,-0.375 -0.70313,-0.9375 -0.25,-0.57813 -0.25,-1.39063 0,-0.76562 0.23438,-1.32812 0.23437,-0.57813 0.64062,-0.95313 0.40625,-0.39062 0.96875,-0.57812 0.5625,-0.20313 1.21875,-0.20313 0.60938,0 1.35938,0.14063 v -0.89063 q 0,-1.07812 -0.42188,-1.5 -0.42187,-0.4375 -1.20312,-0.4375 -0.42188,0 -0.8125,0.0937 -0.375,0.0781 -0.8125,0.25 z m 0.76563,6.73437 q 0,0.85938 0.4375,1.28125 0.45312,0.40625 1.26562,0.40625 0.51563,0 1.10938,-0.14062 v -3.10938 q -0.5625,-0.15625 -1.10938,-0.15625 -0.34375,0 -0.67187,0.0937 -0.3125,0.0781 -0.54688,0.28125 -0.23437,0.1875 -0.35937,0.51563 -0.125,0.32812 -0.125,0.82812 z m 11.4093,-5.48437 q -0.59375,-0.25 -1.34375,-0.25 -0.6875,0 -1.28125,0.23437 v 8.35938 h -1.60938 v -9.35938 q 0.54688,-0.26562 1.23438,-0.4375 0.70312,-0.1875 1.54687,-0.1875 0.45313,0 0.89063,0.0625 0.45312,0.0469 0.84375,0.20313 z m 3.38489,-1.45313 h 2.45312 v 1.39063 h -2.45312 v 5.39062 q 0,1 0.35937,1.40625 0.35938,0.39063 0.98438,0.39063 0.3125,0 0.59375,-0.0937 0.29687,-0.0937 0.5,-0.21875 l 0.3125,1.28125 q -0.76563,0.45312 -1.625,0.45312 -1.375,0 -2.0625,-0.76562 -0.67188,-0.78125 -0.67188,-2.57813 v -9.28125 l 1.60938,-0.28125 z m 6.09802,9.79688 h -1.60938 v -9.79688 h 1.60938 z m -0.8125,-11.53125 q -0.42188,0 -0.73438,-0.28125 -0.29687,-0.29688 -0.29687,-0.78125 0,-0.48438 0.29687,-0.76563 0.3125,-0.29687 0.73438,-0.29687 0.4375,0 0.73437,0.29687 0.3125,0.28125 0.3125,0.76563 0,0.48437 -0.3125,0.78125 -0.29687,0.28125 -0.73437,0.28125 z m 5.21796,1.73437 h 2.45312 v 1.39063 h -2.45312 v 5.39062 q 0,1 0.35937,1.40625 0.35938,0.39063 0.98438,0.39063 0.3125,0 0.59375,-0.0937 0.29687,-0.0937 0.5,-0.21875 l 0.3125,1.28125 q -0.76563,0.45312 -1.625,0.45312 -1.375,0 -2.0625,-0.76562 -0.67188,-0.78125 -0.67188,-2.57813 v -9.28125 l 1.60938,-0.28125 z m 6.09802,9.79688 H 400.957 v -9.79688 h 1.60938 z m -0.8125,-11.53125 q -0.42188,0 -0.73438,-0.28125 -0.29687,-0.29688 -0.29687,-0.78125 0,-0.48438 0.29687,-0.76563 0.3125,-0.29687 0.73438,-0.29687 0.4375,0 0.73437,0.29687 0.3125,0.28125 0.3125,0.76563 0,0.48437 -0.3125,0.78125 -0.29687,0.28125 -0.73437,0.28125 z m 10.01483,6.64062 q 0,1.15625 -0.21875,2.10938 -0.20312,0.9375 -0.625,1.60937 -0.40625,0.67188 -1.0625,1.04688 -0.64062,0.375 -1.51562,0.375 -0.875,0 -1.53125,-0.375 -0.65625,-0.375 -1.07813,-1.04688 -0.40625,-0.67187 -0.625,-1.60937 -0.20312,-0.95313 -0.20312,-2.10938 0,-1.14062 0.20312,-2.07812 0.21875,-0.95313 0.625,-1.64063 0.42188,-0.6875 1.07813,-1.04687 0.65625,-0.375 1.53125,-0.375 0.875,0 1.51562,0.375 0.65625,0.35937 1.0625,1.04687 0.42188,0.6875 0.625,1.64063 0.21875,0.9375 0.21875,2.07812 z m -1.6875,0 q 0,-0.8125 -0.0937,-1.5 -0.0937,-0.6875 -0.29687,-1.17187 -0.20313,-0.5 -0.54688,-0.76563 -0.32812,-0.26562 -0.79687,-0.26562 -0.48438,0 -0.8125,0.26562 -0.32813,0.26563 -0.54688,0.76563 -0.20312,0.48437 -0.29687,1.17187 -0.0937,0.6875 -0.0937,1.5 0,0.82813 0.0937,1.51563 0.0937,0.67187 0.29687,1.15625 0.21875,0.48437 0.54688,0.76562 0.32812,0.26563 0.8125,0.26563 0.46875,0 0.79687,-0.26563 0.34375,-0.28125 0.54688,-0.76562 0.20312,-0.48438 0.29687,-1.15625 0.0937,-0.6875 0.0937,-1.51563 z m 4.02847,-4.625 q 0.6875,-0.20312 1.48438,-0.34375 0.8125,-0.14062 1.48437,-0.14062 0.73438,0 1.32813,0.20312 0.59375,0.1875 1.01562,0.65625 0.42188,0.46875 0.65625,1.26563 0.23438,0.78125 0.23438,1.96875 v 5.90625 h -1.60938 v -5.78125 q 0,-1.45313 -0.375,-2.125 -0.375,-0.67188 -1.40625,-0.67188 -0.53125,0 -1.20312,0.1875 v 8.39063 h -1.60938 z m 15.97403,2.5625 q 0.9375,0.32813 1.4375,1.1875 0.51563,0.84375 0.51563,2.1875 0,1.78125 -0.875,2.82813 -0.85938,1.03125 -2.60938,1.03125 -0.6875,0 -1.34375,-0.20313 -0.65625,-0.20312 -1.14062,-0.54687 l 0.4375,-1.29688 q 0.42187,0.25 0.89062,0.4375 0.48438,0.1875 1,0.1875 0.95313,0 1.48438,-0.57812 0.53125,-0.59375 0.53125,-1.875 0,-1.29688 -0.59375,-1.9375 -0.57813,-0.65625 -1.85938,-0.65625 h -0.48437 v -1.375 h 0.40625 q 1.125,0 1.65625,-0.59375 0.54687,-0.59375 0.54687,-1.65625 0,-1.01563 -0.4375,-1.5 -0.42187,-0.5 -1.125,-0.5 -0.48437,0 -0.9375,0.1875 -0.4375,0.1875 -0.75,0.46875 l -0.625,-1.17188 q 0.48438,-0.45312 1.14063,-0.67187 0.65625,-0.23438 1.3125,-0.23438 1.45312,0 2.23437,0.92188 0.79688,0.90625 0.79688,2.42187 0,1.0625 -0.42188,1.8125 -0.42187,0.73438 -1.1875,1.125 z"
       fill-rule="nonzero"
       id="path53" />
    <path
       fill="#000000"
       fill-opacity="0"
       d="m 357.27823,151.31721 h 86.07873 v 42.01575 h -86.07873 z"
       fill-rule="evenodd"
       id="path55" />
    <path
       fill="#ffffff"
       d="m 374.62253,170.81534 h 1.15625 q 2.3125,0 2.3125,-2.09375 0,-0.65625 -0.20313,-1.0625 -0.1875,-0.42188 -0.51562,-0.65625 -0.3125,-0.23438 -0.73438,-0.32813 -0.42187,-0.0937 -0.875,-0.0937 -0.28125,0 -0.57812,0.0156 -0.28125,0.0156 -0.5625,0.0625 z m 0,1.34375 v 4.65625 q 0.34375,0.0625 0.6875,0.10937 0.35937,0.0312 0.6875,0.0312 0.53125,0 0.98437,-0.10937 0.46875,-0.125 0.8125,-0.375 0.34375,-0.26563 0.53125,-0.71875 0.20313,-0.46875 0.20313,-1.14063 0,-1.15625 -0.625,-1.79687 -0.625,-0.65625 -1.9375,-0.65625 z m -1.6875,-6.67188 q 0.65625,-0.14062 1.32812,-0.21875 0.6875,-0.0937 1.35938,-0.0937 0.84375,0 1.59375,0.15625 0.76562,0.15625 1.34375,0.54688 0.57812,0.375 0.92187,1 0.34375,0.625 0.34375,1.5625 0,1.15625 -0.48437,1.90625 -0.48438,0.73437 -1.25,1.07812 0.95312,0.375 1.5625,1.14063 0.625,0.76562 0.625,2.10937 0,1 -0.32813,1.70313 -0.32812,0.6875 -0.9375,1.125 -0.59375,0.4375 -1.42187,0.64062 -0.82813,0.1875 -1.8125,0.1875 -0.65625,0 -1.375,-0.0781 -0.70313,-0.0781 -1.46875,-0.21875 z m 13.84491,4.40625 q -0.59375,-0.25 -1.34375,-0.25 -0.6875,0 -1.28125,0.23438 v 8.35937 h -1.60938 v -9.35937 q 0.54688,-0.26563 1.23438,-0.4375 0.70312,-0.1875 1.54687,-0.1875 0.45313,0 0.89063,0.0625 0.45312,0.0469 0.84375,0.20312 z m 7.99509,3.45313 q 0,1.15625 -0.21875,2.10937 -0.20313,0.9375 -0.625,1.60938 -0.40625,0.67187 -1.0625,1.04687 -0.64063,0.375 -1.51563,0.375 -0.875,0 -1.53125,-0.375 -0.65625,-0.375 -1.07812,-1.04687 -0.40625,-0.67188 -0.625,-1.60938 -0.20313,-0.95312 -0.20313,-2.10937 0,-1.14063 0.20313,-2.07813 0.21875,-0.95312 0.625,-1.64062 0.42187,-0.6875 1.07812,-1.04688 0.65625,-0.375 1.53125,-0.375 0.875,0 1.51563,0.375 0.65625,0.35938 1.0625,1.04688 0.42187,0.6875 0.625,1.64062 0.21875,0.9375 0.21875,2.07813 z m -1.6875,0 q 0,-0.8125 -0.0937,-1.5 -0.0937,-0.6875 -0.29688,-1.17188 -0.20312,-0.5 -0.54687,-0.76562 -0.32813,-0.26563 -0.79688,-0.26563 -0.48437,0 -0.8125,0.26563 -0.32812,0.26562 -0.54687,0.76562 -0.20313,0.48438 -0.29688,1.17188 -0.0937,0.6875 -0.0937,1.5 0,0.82812 0.0937,1.51562 0.0937,0.67188 0.29688,1.15625 0.21875,0.48438 0.54687,0.76563 0.32813,0.26562 0.8125,0.26562 0.46875,0 0.79688,-0.26562 0.34375,-0.28125 0.54687,-0.76563 0.20313,-0.48437 0.29688,-1.15625 0.0937,-0.6875 0.0937,-1.51562 z m 10.09097,-4.90625 q -0.78125,1.34375 -1.5,2.45312 -0.71875,1.10938 -1.42188,2.07813 0.4375,0.53125 0.90625,1.1875 0.46875,0.64062 0.89063,1.34375 0.4375,0.70312 0.8125,1.40625 0.375,0.6875 0.625,1.32812 h -1.75 q -0.28125,-0.60937 -0.65625,-1.28125 -0.35938,-0.67187 -0.78125,-1.3125 -0.40625,-0.65625 -0.8125,-1.23437 -0.40625,-0.57813 -0.76563,-0.96875 v 4.79687 H 397.116 v -14.20312 l 1.60937,-0.28125 v 8.90625 q 0.32813,-0.45313 0.70313,-1 0.39062,-0.5625 0.76562,-1.125 0.375,-0.57813 0.70313,-1.10938 0.34375,-0.54687 0.5625,-0.98437 z m 2.73309,5.375 q 0.0156,0.70312 0.125,1.29687 0.10938,0.59375 0.35938,1.03125 0.25,0.4375 0.67187,0.6875 0.42188,0.23438 1.07813,0.23438 0.53125,0 0.98437,-0.15625 0.46875,-0.17188 0.67188,-0.28125 l 0.29687,1.29687 q -0.23437,0.15625 -0.8125,0.35938 -0.5625,0.20312 -1.34375,0.20312 -1.03125,0 -1.73437,-0.375 -0.6875,-0.375 -1.14063,-1.04687 -0.4375,-0.67188 -0.625,-1.60938 -0.17187,-0.9375 -0.17187,-2.04687 0,-2.70313 0.89062,-3.95313 0.89063,-1.25 2.35938,-1.25 1.67187,0 2.35937,1.25 0.6875,1.25 0.6875,3.5 0,0.20313 0,0.42188 0,0.21875 -0.0156,0.4375 z m 1.60938,-4.25 q -0.79688,0 -1.15625,0.79687 -0.35938,0.79688 -0.4375,2.14063 h 2.96875 q 0,-1.35938 -0.28125,-2.14063 -0.28125,-0.79687 -1.09375,-0.79687 z m 9.64975,0.32812 q -0.59375,-0.25 -1.34375,-0.25 -0.6875,0 -1.28125,0.23438 v 8.35937 h -1.60938 v -9.35937 q 0.54688,-0.26563 1.23438,-0.4375 0.70312,-0.1875 1.54687,-0.1875 0.45313,0 0.89063,0.0625 0.45312,0.0469 0.84375,0.20312 z m 4.89786,-3.78125 q 1.09375,-1.10937 2.67187,-1.10937 1.51563,0 2.3125,0.79687 0.8125,0.79688 0.8125,2.46875 0,0.79688 -0.26562,1.5 -0.26563,0.70313 -0.65625,1.375 -0.39063,0.65625 -0.85938,1.3125 -0.45312,0.65625 -0.89062,1.34375 -0.42188,0.67188 -0.75,1.40625 -0.3125,0.73438 -0.39063,1.57813 h 4.07813 v 1.45312 h -5.79688 v -0.35937 q 0,-1.25 0.28125,-2.21875 0.29688,-0.96875 0.71875,-1.75 0.42188,-0.78125 0.92188,-1.45313 0.51562,-0.67187 0.92187,-1.3125 0.42188,-0.65625 0.70313,-1.32812 0.29687,-0.6875 0.29687,-1.5 0,-0.98438 -0.39062,-1.42188 -0.39063,-0.45312 -1.17188,-0.45312 -0.54687,0 -0.98437,0.21875 -0.4375,0.21875 -0.78125,0.54687 z"
       fill-rule="nonzero"
       id="path57" />
    <path
       fill="#000000"
       fill-opacity="0"
       d="M 332.4672,175.14699 V 391.14697"
       fill-rule="evenodd"
       id="path59" />
    <path
       stroke="#f3f3f3"
       stroke-width="1"
       stroke-linejoin="round"
       stroke-linecap="butt"
       d="M 332.4672,175.14699 V 391.14697"
       fill-rule="evenodd"
       id="path61" />
    <path
       fill="#000000"
       fill-opacity="0"
       d="M 468.4239,175.14699 V 391.14697"
       fill-rule="evenodd"
       id="path63" />
    <path
       stroke="#f3f3f3"
       stroke-width="1"
       stroke-linejoin="round"
       stroke-linecap="butt"
       d="M 468.4239,175.14699 V 391.14697"
       fill-rule="evenodd"
       id="path65" />
    <path
       fill="#000000"
       fill-opacity="0"
       d="M 332.06458,391.14697 H 468.56852"
       fill-rule="evenodd"
       id="path67" />
    <path
       stroke="#f3f3f3"
       stroke-width="1"
       stroke-linejoin="round"
       stroke-linecap="butt"
       d="M 332.06458,391.14697 H 468.56852"
       fill-rule="evenodd"
       id="path69" />
    <path
       fill="#000000"
       fill-opacity="0"
       d="m 332.4672,175.57735 h 27.87402"
       fill-rule="evenodd"
       id="path71" />
    <path
       stroke="#f3f3f3"
       stroke-width="1"
       stroke-linejoin="round"
       stroke-linecap="butt"
       d="m 332.4672,175.57735 h 27.87402"
       fill-rule="evenodd"
       id="path73" />
    <path
       fill="#000000"
       fill-opacity="0"
       d="m 439.6672,175.57735 h 27.87399"
       fill-rule="evenodd"
       id="path75" />
    <path
       stroke="#f3f3f3"
       stroke-width="1"
       stroke-linejoin="round"
       stroke-linecap="butt"
       d="m 439.6672,175.57735 h 27.87399"
       fill-rule="evenodd"
       id="path77" />
    <path
       fill="#6fa8dc"
       fill-opacity="0.4405"
       d="m 535.1207,197.55089 h 98.39374 v 42.01575 H 535.1207 Z"
       fill-rule="evenodd"
       id="path79" />
    <path
       fill="#b7b7b7"
       d="m 549.28595,211.72089 q 1.3125,-0.3125 2.5625,-0.3125 0.96875,0 1.75,0.23437 0.79687,0.23438 1.35937,0.73438 0.57813,0.48437 0.89063,1.28125 0.3125,0.78125 0.3125,1.875 0,1.125 -0.32813,1.92187 -0.3125,0.78125 -0.89062,1.28125 -0.57813,0.48438 -1.39063,0.71875 -0.8125,0.21875 -1.79687,0.21875 h -0.78125 v 4.79688 h -1.6875 z m 1.6875,6.48437 h 0.67187 q 0.625,0 1.14063,-0.14062 0.51562,-0.14063 0.85937,-0.45313 0.35938,-0.32812 0.54688,-0.82812 0.1875,-0.5 0.1875,-1.25 0,-0.75 -0.1875,-1.25 -0.1875,-0.51563 -0.51563,-0.82813 -0.3125,-0.3125 -0.78125,-0.4375 -0.46875,-0.125 -1.03125,-0.125 -0.48437,0 -0.89062,0.0469 z m 7.0343,-3.32812 q 0.48438,-0.20313 1.01563,-0.3125 0.54687,-0.125 1.1875,-0.125 1.29687,0 2.10937,0.8125 0.82813,0.8125 0.82813,2.51562 v 6.5 q -0.67188,0.1875 -1.375,0.29688 -0.6875,0.10937 -1.35938,0.10937 -0.67187,0 -1.26562,-0.17187 -0.57813,-0.15625 -1.03125,-0.53125 -0.4375,-0.375 -0.70313,-0.9375 -0.25,-0.57813 -0.25,-1.39063 0,-0.76562 0.23438,-1.32812 0.23437,-0.57813 0.64062,-0.95313 0.40625,-0.39062 0.96875,-0.57812 0.5625,-0.20313 1.21875,-0.20313 0.60938,0 1.35938,0.14063 v -0.89063 q 0,-1.07812 -0.42188,-1.5 -0.42187,-0.4375 -1.20312,-0.4375 -0.42188,0 -0.8125,0.0937 -0.375,0.0781 -0.8125,0.25 z m 0.76563,6.73437 q 0,0.85938 0.4375,1.28125 0.45312,0.40625 1.26562,0.40625 0.51563,0 1.10938,-0.14062 v -3.10938 q -0.5625,-0.15625 -1.10938,-0.15625 -0.34375,0 -0.67187,0.0937 -0.3125,0.0781 -0.54688,0.28125 -0.23437,0.1875 -0.35937,0.51563 -0.125,0.32812 -0.125,0.82812 z m 11.4093,-5.48437 q -0.59375,-0.25 -1.34375,-0.25 -0.6875,0 -1.28125,0.23437 v 8.35938 h -1.60938 v -9.35938 q 0.54688,-0.26562 1.23438,-0.4375 0.70312,-0.1875 1.54687,-0.1875 0.45313,0 0.89063,0.0625 0.45312,0.0469 0.84375,0.20313 z m 3.38489,-1.45313 h 2.45312 v 1.39063 h -2.45312 v 5.39062 q 0,1 0.35937,1.40625 0.35938,0.39063 0.98438,0.39063 0.3125,0 0.59375,-0.0937 0.29687,-0.0937 0.5,-0.21875 l 0.3125,1.28125 q -0.76563,0.45312 -1.625,0.45312 -1.375,0 -2.0625,-0.76562 -0.67188,-0.78125 -0.67188,-2.57813 v -9.28125 l 1.60938,-0.28125 z m 6.09802,9.79688 h -1.60938 v -9.79688 h 1.60938 z m -0.8125,-11.53125 q -0.42188,0 -0.73438,-0.28125 -0.29687,-0.29688 -0.29687,-0.78125 0,-0.48438 0.29687,-0.76563 0.3125,-0.29687 0.73438,-0.29687 0.4375,0 0.73437,0.29687 0.3125,0.28125 0.3125,0.76563 0,0.48437 -0.3125,0.78125 -0.29687,0.28125 -0.73437,0.28125 z m 5.21796,1.73437 h 2.45312 v 1.39063 h -2.45312 v 5.39062 q 0,1 0.35937,1.40625 0.35938,0.39063 0.98438,0.39063 0.3125,0 0.59375,-0.0937 0.29687,-0.0937 0.5,-0.21875 l 0.3125,1.28125 q -0.76563,0.45312 -1.625,0.45312 -1.375,0 -2.0625,-0.76562 -0.67188,-0.78125 -0.67188,-2.57813 v -9.28125 l 1.60938,-0.28125 z m 6.09802,9.79688 h -1.60938 v -9.79688 h 1.60938 z m -0.8125,-11.53125 q -0.42188,0 -0.73438,-0.28125 -0.29687,-0.29688 -0.29687,-0.78125 0,-0.48438 0.29687,-0.76563 0.3125,-0.29687 0.73438,-0.29687 0.4375,0 0.73437,0.29687 0.3125,0.28125 0.3125,0.76563 0,0.48437 -0.3125,0.78125 -0.29687,0.28125 -0.73437,0.28125 z m 10.01483,6.64062 q 0,1.15625 -0.21875,2.10938 -0.20313,0.9375 -0.625,1.60937 -0.40625,0.67188 -1.0625,1.04688 -0.64063,0.375 -1.51563,0.375 -0.875,0 -1.53125,-0.375 -0.65625,-0.375 -1.07812,-1.04688 -0.40625,-0.67187 -0.625,-1.60937 -0.20313,-0.95313 -0.20313,-2.10938 0,-1.14062 0.20313,-2.07812 0.21875,-0.95313 0.625,-1.64063 0.42187,-0.6875 1.07812,-1.04687 0.65625,-0.375 1.53125,-0.375 0.875,0 1.51563,0.375 0.65625,0.35937 1.0625,1.04687 0.42187,0.6875 0.625,1.64063 0.21875,0.9375 0.21875,2.07812 z m -1.6875,0 q 0,-0.8125 -0.0937,-1.5 -0.0937,-0.6875 -0.29688,-1.17187 -0.20312,-0.5 -0.54687,-0.76563 -0.32813,-0.26562 -0.79688,-0.26562 -0.48437,0 -0.8125,0.26562 -0.32812,0.26563 -0.54687,0.76563 -0.20313,0.48437 -0.29688,1.17187 -0.0937,0.6875 -0.0937,1.5 0,0.82813 0.0937,1.51563 0.0937,0.67187 0.29688,1.15625 0.21875,0.48437 0.54687,0.76562 0.32813,0.26563 0.8125,0.26563 0.46875,0 0.79688,-0.26563 0.34375,-0.28125 0.54687,-0.76562 0.20313,-0.48438 0.29688,-1.15625 0.0937,-0.6875 0.0937,-1.51563 z m 4.0285,-4.625 q 0.6875,-0.20312 1.48438,-0.34375 0.8125,-0.14062 1.48437,-0.14062 0.73438,0 1.32813,0.20312 0.59375,0.1875 1.01562,0.65625 0.42188,0.46875 0.65625,1.26563 0.23438,0.78125 0.23438,1.96875 v 5.90625 h -1.60938 v -5.78125 q 0,-1.45313 -0.375,-2.125 -0.375,-0.67188 -1.40625,-0.67188 -0.53125,0 -1.20312,0.1875 v 8.39063 h -1.60938 z m 12.48963,-0.84375 q 0.34375,-0.20312 0.71875,-0.5 0.39062,-0.29687 0.75,-0.64062 0.35937,-0.34375 0.65625,-0.70313 0.3125,-0.375 0.51562,-0.71875 h 1.23438 v 12.92188 h -1.60938 v -10.39063 q -0.3125,0.32813 -0.73437,0.64063 -0.42188,0.29687 -0.89063,0.54687 z"
       fill-rule="nonzero"
       id="path81" />
    <path
       fill="#6fa8dc"
       fill-opacity="0.4405"
       d="m 535.1207,261.83932 h 98.39374 v 42.01575 H 535.1207 Z"
       fill-rule="evenodd"
       id="path83" />
    <path
       fill="#b7b7b7"
       d="m 545.6832,276.0093 q 1.3125,-0.3125 2.5625,-0.3125 0.96875,0 1.75,0.23437 0.79688,0.23438 1.35938,0.73438 0.57812,0.48437 0.89062,1.28125 0.3125,0.78125 0.3125,1.875 0,1.125 -0.32812,1.92187 -0.3125,0.78125 -0.89063,1.28125 -0.57812,0.48438 -1.39062,0.71875 -0.8125,0.21875 -1.79688,0.21875 h -0.78125 v 4.79688 h -1.6875 z m 1.6875,6.48437 h 0.67188 q 0.625,0 1.14062,-0.14062 0.51563,-0.14063 0.85938,-0.45313 0.35937,-0.32812 0.54687,-0.82812 0.1875,-0.5 0.1875,-1.25 0,-0.75 -0.1875,-1.25 -0.1875,-0.51563 -0.51562,-0.82813 -0.3125,-0.3125 -0.78125,-0.4375 -0.46875,-0.125 -1.03125,-0.125 -0.48438,0 -0.89063,0.0469 z m 7.0343,-3.32812 q 0.48438,-0.20313 1.01563,-0.3125 0.54687,-0.125 1.1875,-0.125 1.29687,0 2.10937,0.8125 0.82813,0.8125 0.82813,2.51562 v 6.5 q -0.67188,0.1875 -1.375,0.29688 -0.6875,0.10937 -1.35938,0.10937 -0.67187,0 -1.26562,-0.17187 -0.57813,-0.15625 -1.03125,-0.53125 -0.4375,-0.375 -0.70313,-0.9375 -0.25,-0.57813 -0.25,-1.39063 0,-0.76562 0.23438,-1.32812 0.23437,-0.57813 0.64062,-0.95313 0.40625,-0.39062 0.96875,-0.57812 0.5625,-0.20313 1.21875,-0.20313 0.60938,0 1.35938,0.14063 v -0.89063 q 0,-1.07812 -0.42188,-1.5 -0.42187,-0.4375 -1.20312,-0.4375 -0.42188,0 -0.8125,0.0937 -0.375,0.0781 -0.8125,0.25 z m 0.76563,6.73437 q 0,0.85938 0.4375,1.28125 0.45312,0.40625 1.26562,0.40625 0.51563,0 1.10938,-0.14062 v -3.10938 q -0.5625,-0.15625 -1.10938,-0.15625 -0.34375,0 -0.67187,0.0937 -0.3125,0.0781 -0.54688,0.28125 -0.23437,0.1875 -0.35937,0.51563 -0.125,0.32812 -0.125,0.82812 z m 11.40936,-5.48437 q -0.59375,-0.25 -1.34375,-0.25 -0.6875,0 -1.28125,0.23437 v 8.35938 h -1.60938 v -9.35938 q 0.54688,-0.26562 1.23438,-0.4375 0.70312,-0.1875 1.54687,-0.1875 0.45313,0 0.89063,0.0625 0.45312,0.0469 0.84375,0.20313 z m 3.38483,-1.45313 h 2.45312 v 1.39063 h -2.45312 v 5.39062 q 0,1 0.35937,1.40625 0.35938,0.39063 0.98438,0.39063 0.3125,0 0.59375,-0.0937 0.29687,-0.0937 0.5,-0.21875 l 0.3125,1.28125 q -0.76563,0.45312 -1.625,0.45312 -1.375,0 -2.0625,-0.76562 -0.67188,-0.78125 -0.67188,-2.57813 v -9.28125 l 1.60938,-0.28125 z m 6.09808,9.79688 h -1.60937 v -9.79688 h 1.60937 z m -0.8125,-11.53125 q -0.42187,0 -0.73437,-0.28125 -0.29688,-0.29688 -0.29688,-0.78125 0,-0.48438 0.29688,-0.76563 0.3125,-0.29687 0.73437,-0.29687 0.4375,0 0.73438,0.29687 0.3125,0.28125 0.3125,0.76563 0,0.48437 -0.3125,0.78125 -0.29688,0.28125 -0.73438,0.28125 z m 5.2179,1.73437 h 2.45312 v 1.39063 h -2.45312 v 5.39062 q 0,1 0.35937,1.40625 0.35938,0.39063 0.98438,0.39063 0.3125,0 0.59375,-0.0937 0.29687,-0.0937 0.5,-0.21875 l 0.3125,1.28125 q -0.76563,0.45312 -1.625,0.45312 -1.375,0 -2.0625,-0.76562 -0.67188,-0.78125 -0.67188,-2.57813 v -9.28125 l 1.60938,-0.28125 z m 6.09808,9.79688 H 584.957 v -9.79688 h 1.60938 z m -0.8125,-11.53125 q -0.42188,0 -0.73438,-0.28125 -0.29687,-0.29688 -0.29687,-0.78125 0,-0.48438 0.29687,-0.76563 0.3125,-0.29687 0.73438,-0.29687 0.4375,0 0.73437,0.29687 0.3125,0.28125 0.3125,0.76563 0,0.48437 -0.3125,0.78125 -0.29687,0.28125 -0.73437,0.28125 z m 10.01477,6.64062 q 0,1.15625 -0.21875,2.10938 -0.20313,0.9375 -0.625,1.60937 -0.40625,0.67188 -1.0625,1.04688 -0.64063,0.375 -1.51563,0.375 -0.875,0 -1.53125,-0.375 -0.65625,-0.375 -1.07812,-1.04688 -0.40625,-0.67187 -0.625,-1.60937 -0.20313,-0.95313 -0.20313,-2.10938 0,-1.14062 0.20313,-2.07812 0.21875,-0.95313 0.625,-1.64063 0.42187,-0.6875 1.07812,-1.04687 0.65625,-0.375 1.53125,-0.375 0.875,0 1.51563,0.375 0.65625,0.35937 1.0625,1.04687 0.42187,0.6875 0.625,1.64063 0.21875,0.9375 0.21875,2.07812 z m -1.6875,0 q 0,-0.8125 -0.0937,-1.5 -0.0937,-0.6875 -0.29688,-1.17187 -0.20312,-0.5 -0.54687,-0.76563 -0.32813,-0.26562 -0.79688,-0.26562 -0.48437,0 -0.8125,0.26562 -0.32812,0.26563 -0.54687,0.76563 -0.20313,0.48437 -0.29688,1.17187 -0.0937,0.6875 -0.0937,1.5 0,0.82813 0.0937,1.51563 0.0937,0.67187 0.29688,1.15625 0.21875,0.48437 0.54687,0.76562 0.32813,0.26563 0.8125,0.26563 0.46875,0 0.79688,-0.26563 0.34375,-0.28125 0.54687,-0.76562 0.20313,-0.48438 0.29688,-1.15625 0.0937,-0.6875 0.0937,-1.51563 z m 4.0285,-4.625 q 0.6875,-0.20312 1.48438,-0.34375 0.8125,-0.14062 1.48437,-0.14062 0.73438,0 1.32813,0.20312 0.59375,0.1875 1.01562,0.65625 0.42188,0.46875 0.65625,1.26563 0.23438,0.78125 0.23438,1.96875 v 5.90625 h -1.60938 v -5.78125 q 0,-1.45313 -0.375,-2.125 -0.375,-0.67188 -1.40625,-0.67188 -0.53125,0 -1.20312,0.1875 v 8.39063 h -1.60938 z m 12.00525,-2.60937 q 1.09375,-1.10938 2.67188,-1.10938 1.51562,0 2.3125,0.79688 0.8125,0.79687 0.8125,2.46875 0,0.79687 -0.26563,1.5 -0.26562,0.70312 -0.65625,1.375 -0.39062,0.65625 -0.85937,1.3125 -0.45313,0.65625 -0.89063,1.34375 -0.42187,0.67187 -0.75,1.40625 -0.3125,0.73437 -0.39062,1.57812 h 4.07812 v 1.45313 h -5.79687 v -0.35938 q 0,-1.25 0.28125,-2.21875 0.29687,-0.96875 0.71875,-1.75 0.42187,-0.78125 0.92187,-1.45312 0.51563,-0.67188 0.92188,-1.3125 0.42187,-0.65625 0.70312,-1.32813 0.29688,-0.6875 0.29688,-1.5 0,-0.98437 -0.39063,-1.42187 -0.39062,-0.45313 -1.17187,-0.45313 -0.54688,0 -0.98438,0.21875 -0.4375,0.21875 -0.78125,0.54688 z"
       fill-rule="nonzero"
       id="path85" />
    <path
       fill="#e06666"
       fill-opacity="0.4583"
       d="m 535.1207,326.12833 h 98.39374 v 42.01575 H 535.1207 Z"
       fill-rule="evenodd"
       id="path87" />
    <path
       fill="#b7b7b7"
       d="m 545.6832,340.2983 q 1.3125,-0.3125 2.5625,-0.3125 0.96875,0 1.75,0.23437 0.79688,0.23438 1.35938,0.73438 0.57812,0.48437 0.89062,1.28125 0.3125,0.78125 0.3125,1.875 0,1.125 -0.32812,1.92187 -0.3125,0.78125 -0.89063,1.28125 -0.57812,0.48438 -1.39062,0.71875 -0.8125,0.21875 -1.79688,0.21875 h -0.78125 v 4.79688 h -1.6875 z m 1.6875,6.48437 h 0.67188 q 0.625,0 1.14062,-0.14062 0.51563,-0.14063 0.85938,-0.45313 0.35937,-0.32812 0.54687,-0.82812 0.1875,-0.5 0.1875,-1.25 0,-0.75 -0.1875,-1.25 -0.1875,-0.51563 -0.51562,-0.82813 -0.3125,-0.3125 -0.78125,-0.4375 -0.46875,-0.125 -1.03125,-0.125 -0.48438,0 -0.89063,0.0469 z m 7.0343,-3.32812 q 0.48438,-0.20313 1.01563,-0.3125 0.54687,-0.125 1.1875,-0.125 1.29687,0 2.10937,0.8125 0.82813,0.8125 0.82813,2.51562 v 6.5 q -0.67188,0.1875 -1.375,0.29688 -0.6875,0.10937 -1.35938,0.10937 -0.67187,0 -1.26562,-0.17187 -0.57813,-0.15625 -1.03125,-0.53125 -0.4375,-0.375 -0.70313,-0.9375 -0.25,-0.57813 -0.25,-1.39063 0,-0.76562 0.23438,-1.32812 0.23437,-0.57813 0.64062,-0.95313 0.40625,-0.39062 0.96875,-0.57812 0.5625,-0.20313 1.21875,-0.20313 0.60938,0 1.35938,0.14063 v -0.89063 q 0,-1.07812 -0.42188,-1.5 -0.42187,-0.4375 -1.20312,-0.4375 -0.42188,0 -0.8125,0.0937 -0.375,0.0781 -0.8125,0.25 z m 0.76563,6.73437 q 0,0.85938 0.4375,1.28125 0.45312,0.40625 1.26562,0.40625 0.51563,0 1.10938,-0.14062 v -3.10938 q -0.5625,-0.15625 -1.10938,-0.15625 -0.34375,0 -0.67187,0.0937 -0.3125,0.0781 -0.54688,0.28125 -0.23437,0.1875 -0.35937,0.51563 -0.125,0.32812 -0.125,0.82812 z m 11.40936,-5.48437 q -0.59375,-0.25 -1.34375,-0.25 -0.6875,0 -1.28125,0.23437 v 8.35938 h -1.60938 v -9.35938 q 0.54688,-0.26562 1.23438,-0.4375 0.70312,-0.1875 1.54687,-0.1875 0.45313,0 0.89063,0.0625 0.45312,0.0469 0.84375,0.20313 z m 3.38483,-1.45313 h 2.45312 v 1.39063 h -2.45312 v 5.39062 q 0,1 0.35937,1.40625 0.35938,0.39063 0.98438,0.39063 0.3125,0 0.59375,-0.0937 0.29687,-0.0937 0.5,-0.21875 l 0.3125,1.28125 q -0.76563,0.45312 -1.625,0.45312 -1.375,0 -2.0625,-0.76562 -0.67188,-0.78125 -0.67188,-2.57813 v -9.28125 l 1.60938,-0.28125 z m 6.09808,9.79688 h -1.60937 v -9.79688 h 1.60937 z m -0.8125,-11.53125 q -0.42187,0 -0.73437,-0.28125 -0.29688,-0.29688 -0.29688,-0.78125 0,-0.48438 0.29688,-0.76563 0.3125,-0.29687 0.73437,-0.29687 0.4375,0 0.73438,0.29687 0.3125,0.28125 0.3125,0.76563 0,0.48437 -0.3125,0.78125 -0.29688,0.28125 -0.73438,0.28125 z m 5.2179,1.73437 h 2.45312 v 1.39063 h -2.45312 v 5.39062 q 0,1 0.35937,1.40625 0.35938,0.39063 0.98438,0.39063 0.3125,0 0.59375,-0.0937 0.29687,-0.0937 0.5,-0.21875 l 0.3125,1.28125 q -0.76563,0.45312 -1.625,0.45312 -1.375,0 -2.0625,-0.76562 -0.67188,-0.78125 -0.67188,-2.57813 v -9.28125 l 1.60938,-0.28125 z m 6.09808,9.79688 H 584.957 v -9.79688 h 1.60938 z m -0.8125,-11.53125 q -0.42188,0 -0.73438,-0.28125 -0.29687,-0.29688 -0.29687,-0.78125 0,-0.48438 0.29687,-0.76563 0.3125,-0.29687 0.73438,-0.29687 0.4375,0 0.73437,0.29687 0.3125,0.28125 0.3125,0.76563 0,0.48437 -0.3125,0.78125 -0.29687,0.28125 -0.73437,0.28125 z m 10.01477,6.64062 q 0,1.15625 -0.21875,2.10938 -0.20313,0.9375 -0.625,1.60937 -0.40625,0.67188 -1.0625,1.04688 -0.64063,0.375 -1.51563,0.375 -0.875,0 -1.53125,-0.375 -0.65625,-0.375 -1.07812,-1.04688 -0.40625,-0.67187 -0.625,-1.60937 -0.20313,-0.95313 -0.20313,-2.10938 0,-1.14062 0.20313,-2.07812 0.21875,-0.95313 0.625,-1.64063 0.42187,-0.6875 1.07812,-1.04687 0.65625,-0.375 1.53125,-0.375 0.875,0 1.51563,0.375 0.65625,0.35937 1.0625,1.04687 0.42187,0.6875 0.625,1.64063 0.21875,0.9375 0.21875,2.07812 z m -1.6875,0 q 0,-0.8125 -0.0937,-1.5 -0.0937,-0.6875 -0.29688,-1.17187 -0.20312,-0.5 -0.54687,-0.76563 -0.32813,-0.26562 -0.79688,-0.26562 -0.48437,0 -0.8125,0.26562 -0.32812,0.26563 -0.54687,0.76563 -0.20313,0.48437 -0.29688,1.17187 -0.0937,0.6875 -0.0937,1.5 0,0.82813 0.0937,1.51563 0.0937,0.67187 0.29688,1.15625 0.21875,0.48437 0.54687,0.76562 0.32813,0.26563 0.8125,0.26563 0.46875,0 0.79688,-0.26563 0.34375,-0.28125 0.54687,-0.76562 0.20313,-0.48438 0.29688,-1.15625 0.0937,-0.6875 0.0937,-1.51563 z m 4.0285,-4.625 q 0.6875,-0.20312 1.48438,-0.34375 0.8125,-0.14062 1.48437,-0.14062 0.73438,0 1.32813,0.20312 0.59375,0.1875 1.01562,0.65625 0.42188,0.46875 0.65625,1.26563 0.23438,0.78125 0.23438,1.96875 v 5.90625 h -1.60938 v -5.78125 q 0,-1.45313 -0.375,-2.125 -0.375,-0.67188 -1.40625,-0.67188 -0.53125,0 -1.20312,0.1875 v 8.39063 h -1.60938 z m 15.974,2.5625 q 0.9375,0.32813 1.4375,1.1875 0.51563,0.84375 0.51563,2.1875 0,1.78125 -0.875,2.82813 -0.85938,1.03125 -2.60938,1.03125 -0.6875,0 -1.34375,-0.20313 -0.65625,-0.20312 -1.14062,-0.54687 l 0.4375,-1.29688 q 0.42187,0.25 0.89062,0.4375 0.48438,0.1875 1,0.1875 0.95313,0 1.48438,-0.57812 0.53125,-0.59375 0.53125,-1.875 0,-1.29688 -0.59375,-1.9375 -0.57813,-0.65625 -1.85938,-0.65625 h -0.48437 v -1.375 h 0.40625 q 1.125,0 1.65625,-0.59375 0.54687,-0.59375 0.54687,-1.65625 0,-1.01563 -0.4375,-1.5 -0.42187,-0.5 -1.125,-0.5 -0.48437,0 -0.9375,0.1875 -0.4375,0.1875 -0.75,0.46875 l -0.625,-1.17188 q 0.48438,-0.45312 1.14063,-0.67187 0.65625,-0.23438 1.3125,-0.23438 1.45312,0 2.23437,0.92188 0.79688,0.90625 0.79688,2.42187 0,1.0625 -0.42188,1.8125 -0.42187,0.73438 -1.1875,1.125 z"
       fill-rule="nonzero"
       id="path89" />
    <path
       fill="#000000"
       fill-opacity="0"
       d="m 541.2782,151.31721 h 86.07874 v 42.01575 H 541.2782 Z"
       fill-rule="evenodd"
       id="path91" />
    <path
       fill="#999999"
       d="m 558.62256,170.81534 h 1.15625 q 2.3125,0 2.3125,-2.09375 0,-0.65625 -0.20312,-1.0625 -0.1875,-0.42188 -0.51563,-0.65625 -0.3125,-0.23438 -0.73437,-0.32813 -0.42188,-0.0937 -0.875,-0.0937 -0.28125,0 -0.57813,0.0156 -0.28125,0.0156 -0.5625,0.0625 z m 0,1.34375 v 4.65625 q 0.34375,0.0625 0.6875,0.10937 0.35938,0.0312 0.6875,0.0312 0.53125,0 0.98438,-0.10937 0.46875,-0.125 0.8125,-0.375 0.34375,-0.26563 0.53125,-0.71875 0.20312,-0.46875 0.20312,-1.14063 0,-1.15625 -0.625,-1.79687 -0.625,-0.65625 -1.9375,-0.65625 z m -1.6875,-6.67188 q 0.65625,-0.14062 1.32813,-0.21875 0.6875,-0.0937 1.35937,-0.0937 0.84375,0 1.59375,0.15625 0.76563,0.15625 1.34375,0.54688 0.57813,0.375 0.92188,1 0.34375,0.625 0.34375,1.5625 0,1.15625 -0.48438,1.90625 -0.48437,0.73437 -1.25,1.07812 0.95313,0.375 1.5625,1.14063 0.625,0.76562 0.625,2.10937 0,1 -0.32812,1.70313 -0.32813,0.6875 -0.9375,1.125 -0.59375,0.4375 -1.42188,0.64062 -0.82812,0.1875 -1.8125,0.1875 -0.65625,0 -1.375,-0.0781 -0.70312,-0.0781 -1.46875,-0.21875 z m 13.84491,4.40625 q -0.59375,-0.25 -1.34375,-0.25 -0.6875,0 -1.28125,0.23438 v 8.35937 h -1.60937 v -9.35937 q 0.54687,-0.26563 1.23437,-0.4375 0.70313,-0.1875 1.54688,-0.1875 0.45312,0 0.89062,0.0625 0.45313,0.0469 0.84375,0.20312 z m 7.99506,3.45313 q 0,1.15625 -0.21875,2.10937 -0.20313,0.9375 -0.625,1.60938 -0.40625,0.67187 -1.0625,1.04687 -0.64063,0.375 -1.51563,0.375 -0.875,0 -1.53125,-0.375 -0.65625,-0.375 -1.07812,-1.04687 -0.40625,-0.67188 -0.625,-1.60938 -0.20313,-0.95312 -0.20313,-2.10937 0,-1.14063 0.20313,-2.07813 0.21875,-0.95312 0.625,-1.64062 0.42187,-0.6875 1.07812,-1.04688 0.65625,-0.375 1.53125,-0.375 0.875,0 1.51563,0.375 0.65625,0.35938 1.0625,1.04688 0.42187,0.6875 0.625,1.64062 0.21875,0.9375 0.21875,2.07813 z m -1.6875,0 q 0,-0.8125 -0.0937,-1.5 -0.0937,-0.6875 -0.29688,-1.17188 -0.20312,-0.5 -0.54687,-0.76562 -0.32813,-0.26563 -0.79688,-0.26563 -0.48437,0 -0.8125,0.26563 -0.32812,0.26562 -0.54687,0.76562 -0.20313,0.48438 -0.29688,1.17188 -0.0937,0.6875 -0.0937,1.5 0,0.82812 0.0937,1.51562 0.0937,0.67188 0.29688,1.15625 0.21875,0.48438 0.54687,0.76563 0.32813,0.26562 0.8125,0.26562 0.46875,0 0.79688,-0.26562 0.34375,-0.28125 0.54687,-0.76563 0.20313,-0.48437 0.29688,-1.15625 0.0937,-0.6875 0.0937,-1.51562 z m 10.091,-4.90625 q -0.78125,1.34375 -1.5,2.45312 -0.71875,1.10938 -1.42188,2.07813 0.4375,0.53125 0.90625,1.1875 0.46875,0.64062 0.89063,1.34375 0.4375,0.70312 0.8125,1.40625 0.375,0.6875 0.625,1.32812 h -1.75 q -0.28125,-0.60937 -0.65625,-1.28125 -0.35938,-0.67187 -0.78125,-1.3125 -0.40625,-0.65625 -0.8125,-1.23437 -0.40625,-0.57813 -0.76563,-0.96875 v 4.79687 h -1.60937 v -14.20312 l 1.60937,-0.28125 v 8.90625 q 0.32813,-0.45313 0.70313,-1 0.39062,-0.5625 0.76562,-1.125 0.375,-0.57813 0.70313,-1.10938 0.34375,-0.54687 0.5625,-0.98437 z m 2.73309,5.375 q 0.0156,0.70312 0.125,1.29687 0.10938,0.59375 0.35938,1.03125 0.25,0.4375 0.67187,0.6875 0.42188,0.23438 1.07813,0.23438 0.53125,0 0.98437,-0.15625 0.46875,-0.17188 0.67188,-0.28125 l 0.29687,1.29687 q -0.23437,0.15625 -0.8125,0.35938 -0.5625,0.20312 -1.34375,0.20312 -1.03125,0 -1.73437,-0.375 -0.6875,-0.375 -1.14063,-1.04687 -0.4375,-0.67188 -0.625,-1.60938 -0.17187,-0.9375 -0.17187,-2.04687 0,-2.70313 0.89062,-3.95313 0.89063,-1.25 2.35938,-1.25 1.67187,0 2.35937,1.25 0.6875,1.25 0.6875,3.5 0,0.20313 0,0.42188 0,0.21875 -0.0156,0.4375 z m 1.60938,-4.25 q -0.79688,0 -1.15625,0.79687 -0.35938,0.79688 -0.4375,2.14063 h 2.96875 q 0,-1.35938 -0.28125,-2.14063 -0.28125,-0.79687 -1.09375,-0.79687 z m 9.64972,0.32812 q -0.59375,-0.25 -1.34375,-0.25 -0.6875,0 -1.28125,0.23438 v 8.35937 h -1.60938 v -9.35937 q 0.54688,-0.26563 1.23438,-0.4375 0.70312,-0.1875 1.54687,-0.1875 0.45313,0 0.89063,0.0625 0.45312,0.0469 0.84375,0.20312 z m 8.86663,1.39063 q 0.9375,0.32812 1.4375,1.1875 0.51563,0.84375 0.51563,2.1875 0,1.78125 -0.875,2.82812 -0.85938,1.03125 -2.60938,1.03125 -0.6875,0 -1.34375,-0.20312 -0.65625,-0.20313 -1.14062,-0.54688 l 0.4375,-1.29687 q 0.42187,0.25 0.89062,0.4375 0.48438,0.1875 1,0.1875 0.95313,0 1.48438,-0.57813 0.53125,-0.59375 0.53125,-1.875 0,-1.29687 -0.59375,-1.9375 -0.57813,-0.65625 -1.85938,-0.65625 h -0.48437 v -1.375 h 0.40625 q 1.125,0 1.65625,-0.59375 0.54687,-0.59375 0.54687,-1.65625 0,-1.01562 -0.4375,-1.5 -0.42187,-0.5 -1.125,-0.5 -0.48437,0 -0.9375,0.1875 -0.4375,0.1875 -0.75,0.46875 l -0.625,-1.17187 q 0.48438,-0.45313 1.14063,-0.67188 0.65625,-0.23437 1.3125,-0.23437 1.45312,0 2.23437,0.92187 0.79688,0.90625 0.79688,2.42188 0,1.0625 -0.42188,1.8125 -0.42187,0.73437 -1.1875,1.125 z"
       fill-rule="nonzero"
       id="path93" />
    <path
       fill="#000000"
       fill-opacity="0"
       d="M 516.46716,175.14699 V 391.14697"
       fill-rule="evenodd"
       id="path95" />
    <path
       stroke="#999999"
       stroke-width="1"
       stroke-linejoin="round"
       stroke-linecap="butt"
       d="M 516.46716,175.14699 V 391.14697"
       fill-rule="evenodd"
       id="path97" />
    <path
       fill="#000000"
       fill-opacity="0"
       d="M 652.4239,175.14699 V 391.14697"
       fill-rule="evenodd"
       id="path99" />
    <path
       stroke="#999999"
       stroke-width="1"
       stroke-linejoin="round"
       stroke-linecap="butt"
       d="M 652.4239,175.14699 V 391.14697"
       fill-rule="evenodd"
       id="path101" />
    <path
       fill="#000000"
       fill-opacity="0"
       d="M 516.0646,391.14697 H 652.5685"
       fill-rule="evenodd"
       id="path103" />
    <path
       stroke="#999999"
       stroke-width="1"
       stroke-linejoin="round"
       stroke-linecap="butt"
       d="M 516.0646,391.14697 H 652.5685"
       fill-rule="evenodd"
       id="path105" />
    <path
       fill="#000000"
       fill-opacity="0"
       d="m 516.46716,175.57735 h 27.87402"
       fill-rule="evenodd"
       id="path107" />
    <path
       stroke="#999999"
       stroke-width="1"
       stroke-linejoin="round"
       stroke-linecap="butt"
       d="m 516.46716,175.57735 h 27.87402"
       fill-rule="evenodd"
       id="path109" />
    <path
       fill="#000000"
       fill-opacity="0"
       d="m 623.6672,175.57735 h 27.87402"
       fill-rule="evenodd"
       id="path111" />
    <path
       stroke="#999999"
       stroke-width="1"
       stroke-linejoin="round"
       stroke-linecap="butt"
       d="m 623.6672,175.57735 h 27.87402"
       fill-rule="evenodd"
       id="path113" />
    <path
       fill="#000000"
       fill-opacity="0"
       d="M 652.80054,167.20053 517.61945,398.41312"
       fill-rule="evenodd"
       id="path115" />
    <path
       stroke="#e06666"
       stroke-width="4"
       stroke-linejoin="round"
       stroke-linecap="butt"
       d="M 652.80054,167.20053 517.61945,398.41312"
       fill-rule="evenodd"
       id="path117" />
    <path
       fill="#000000"
       fill-opacity="0"
       d="M 517.6011,167.20053 652.81369,398.41312"
       fill-rule="evenodd"
       id="path119" />
    <path
       stroke="#e06666"
       stroke-width="4"
       stroke-linejoin="round"
       stroke-linecap="butt"
       d="M 517.6011,167.20053 652.81369,398.41312"
       fill-rule="evenodd"
       id="path121" />
  </g>
</svg>
