<?xml version="1.0" encoding="UTF-8" standalone="no"?>
<svg
   version="1.1"
   viewBox="0 0 474.98422 320.59058"
   fill="none"
   stroke="none"
   stroke-linecap="square"
   stroke-miterlimit="10"
   id="svg303"
   sodipodi:docname="compacted-topic.svg"
   width="474.98422"
   height="320.59058"
   inkscape:version="1.2.2 (b0a8486541, 2022-12-01)"
   xmlns:inkscape="http://www.inkscape.org/namespaces/inkscape"
   xmlns:sodipodi="http://sodipodi.sourceforge.net/DTD/sodipodi-0.dtd"
   xmlns="http://www.w3.org/2000/svg"
   xmlns:svg="http://www.w3.org/2000/svg">
  <defs
     id="defs307" />
  <sodipodi:namedview
     id="namedview305"
     pagecolor="#ffffff"
     bordercolor="#666666"
     borderopacity="1.0"
     inkscape:showpageshadow="2"
     inkscape:pageopacity="0.0"
     inkscape:pagecheckerboard="0"
     inkscape:deskcolor="#d1d1d1"
     showgrid="false"
     inkscape:zoom="1.3552083"
     inkscape:cx="219.1545"
     inkscape:cy="199.23136"
     inkscape:window-width="1920"
     inkscape:window-height="1011"
     inkscape:window-x="0"
     inkscape:window-y="32"
     inkscape:window-maximized="1"
     inkscape:current-layer="svg303" />
  <clipPath
     id="g181d49305e0_0_322.0">
    <path
       d="M 0,0 H 960 V 540 H 0 Z"
       clip-rule="nonzero"
       id="path2" />
  </clipPath>
  <g
     clip-path="url(#g181d49305e0_0_322.0)"
     id="g301"
     transform="translate(-242.50787,-70.833336)">
    <path
       shape-rendering="crispEdges"
       fill="#6fa8dc"
       d="m 243.00787,71.333336 h 86.18109 v 41.595794 h -86.18109 z"
       fill-rule="nonzero"
       id="path7" />
    <path
       shape-rendering="crispEdges"
       fill="#6fa8dc"
       d="m 329.18896,71.333336 h 43.08926 v 41.595794 h -43.08926 z"
       fill-rule="nonzero"
       id="path9" />
    <path
       shape-rendering="crispEdges"
       fill="#6fa8dc"
       d="m 372.27823,71.333336 h 43.08923 v 41.595794 h -43.08923 z"
       fill-rule="nonzero"
       id="path11" />
    <path
       shape-rendering="crispEdges"
       fill="#6fa8dc"
       d="m 415.36746,71.333336 h 43.08923 v 41.595794 h -43.08923 z"
       fill-rule="nonzero"
       id="path13" />
    <path
       shape-rendering="crispEdges"
       fill="#6fa8dc"
       d="m 458.4567,71.333336 h 43.08923 V 112.92913 H 458.4567 Z"
       fill-rule="nonzero"
       id="path15" />
    <path
       shape-rendering="crispEdges"
       fill="#6fa8dc"
       d="m 501.54593,71.333336 h 43.08926 v 41.595794 h -43.08926 z"
       fill-rule="nonzero"
       id="path17" />
    <path
       shape-rendering="crispEdges"
       fill="#6fa8dc"
       d="m 544.6352,71.333336 h 43.08923 V 112.92913 H 544.6352 Z"
       fill-rule="nonzero"
       id="path19" />
    <path
       shape-rendering="crispEdges"
       fill="#6fa8dc"
       d="m 587.7244,71.333336 h 43.08923 V 112.92913 H 587.7244 Z"
       fill-rule="nonzero"
       id="path21" />
    <path
       shape-rendering="crispEdges"
       fill="#6fa8dc"
       d="m 630.81366,71.333336 h 43.08923 v 41.595794 h -43.08923 z"
       fill-rule="nonzero"
       id="path23" />
    <path
       shape-rendering="crispEdges"
       fill="#6fa8dc"
       d="m 673.9029,71.333336 h 43.08923 V 112.92913 H 673.9029 Z"
       fill-rule="nonzero"
       id="path25" />
    <path
       shape-rendering="crispEdges"
       fill="#e06666"
       d="m 243.00787,112.92913 h 86.18109 v 41.5958 h -86.18109 z"
       fill-rule="nonzero"
       id="path27" />
    <path
       shape-rendering="crispEdges"
       fill="#e06666"
       d="m 329.18896,112.92913 h 43.08926 v 41.5958 h -43.08926 z"
       fill-rule="nonzero"
       id="path29" />
    <path
       shape-rendering="crispEdges"
       fill="#e06666"
       d="m 372.27823,112.92913 h 43.08923 v 41.5958 h -43.08923 z"
       fill-rule="nonzero"
       id="path31" />
    <path
       shape-rendering="crispEdges"
       fill="#e06666"
       d="m 415.36746,112.92913 h 43.08923 v 41.5958 h -43.08923 z"
       fill-rule="nonzero"
       id="path33" />
    <path
       shape-rendering="crispEdges"
       fill="#e06666"
       d="m 458.4567,112.92913 h 43.08923 v 41.5958 H 458.4567 Z"
       fill-rule="nonzero"
       id="path35" />
    <path
       shape-rendering="crispEdges"
       fill="#e06666"
       d="m 501.54593,112.92913 h 43.08926 v 41.5958 h -43.08926 z"
       fill-rule="nonzero"
       id="path37" />
    <path
       shape-rendering="crispEdges"
       fill="#e06666"
       d="m 544.6352,112.92913 h 43.08923 v 41.5958 H 544.6352 Z"
       fill-rule="nonzero"
       id="path39" />
    <path
       shape-rendering="crispEdges"
       fill="#e06666"
       d="m 587.7244,112.92913 h 43.08923 v 41.5958 H 587.7244 Z"
       fill-rule="nonzero"
       id="path41" />
    <path
       shape-rendering="crispEdges"
       fill="#e06666"
       d="m 630.81366,112.92913 h 43.08923 v 41.5958 h -43.08923 z"
       fill-rule="nonzero"
       id="path43" />
    <path
       shape-rendering="crispEdges"
       fill="#e06666"
       d="m 673.9029,112.92913 h 43.08923 v 41.5958 H 673.9029 Z"
       fill-rule="nonzero"
       id="path45" />
    <path
       shape-rendering="crispEdges"
       fill="#f1c232"
       d="m 243.00787,154.52493 h 86.18109 v 41.5958 h -86.18109 z"
       fill-rule="nonzero"
       id="path47" />
    <path
       shape-rendering="crispEdges"
       fill="#f1c232"
       d="m 329.18896,154.52493 h 43.08926 v 41.5958 h -43.08926 z"
       fill-rule="nonzero"
       id="path49" />
    <path
       shape-rendering="crispEdges"
       fill="#f1c232"
       d="m 372.27823,154.52493 h 43.08923 v 41.5958 h -43.08923 z"
       fill-rule="nonzero"
       id="path51" />
    <path
       shape-rendering="crispEdges"
       fill="#f1c232"
       d="m 415.36746,154.52493 h 43.08923 v 41.5958 h -43.08923 z"
       fill-rule="nonzero"
       id="path53" />
    <path
       shape-rendering="crispEdges"
       fill="#f1c232"
       d="m 458.4567,154.52493 h 43.08923 v 41.5958 H 458.4567 Z"
       fill-rule="nonzero"
       id="path55" />
    <path
       shape-rendering="crispEdges"
       fill="#f1c232"
       d="m 501.54593,154.52493 h 43.08926 v 41.5958 h -43.08926 z"
       fill-rule="nonzero"
       id="path57" />
    <path
       shape-rendering="crispEdges"
       fill="#f1c232"
       d="m 544.6352,154.52493 h 43.08923 v 41.5958 H 544.6352 Z"
       fill-rule="nonzero"
       id="path59" />
    <path
       shape-rendering="crispEdges"
       fill="#f1c232"
       d="m 587.7244,154.52493 h 43.08923 v 41.5958 H 587.7244 Z"
       fill-rule="nonzero"
       id="path61" />
    <path
       shape-rendering="crispEdges"
       fill="#f1c232"
       d="m 630.81366,154.52493 h 43.08923 v 41.5958 h -43.08923 z"
       fill-rule="nonzero"
       id="path63" />
    <path
       shape-rendering="crispEdges"
       fill="#f1c232"
       d="m 673.9029,154.52493 h 43.08923 v 41.5958 H 673.9029 Z"
       fill-rule="nonzero"
       id="path65" />
    <path
       stroke="#d9d9d9"
       stroke-width="1"
       stroke-linecap="butt"
       d="M 243.00787,70.83465 V 196.61942"
       fill-rule="nonzero"
       id="path67" />
    <path
       stroke="#d9d9d9"
       stroke-width="1"
       stroke-linecap="butt"
       d="M 329.18896,70.83465 V 196.61942"
       fill-rule="nonzero"
       id="path69" />
    <path
       stroke="#d9d9d9"
       stroke-width="1"
       stroke-linecap="butt"
       d="M 372.27823,70.83465 V 196.61942"
       fill-rule="nonzero"
       id="path71" />
    <path
       stroke="#d9d9d9"
       stroke-width="1"
       stroke-linecap="butt"
       d="M 415.36746,70.83465 V 196.61942"
       fill-rule="nonzero"
       id="path73" />
    <path
       stroke="#d9d9d9"
       stroke-width="1"
       stroke-linecap="butt"
       d="M 458.4567,70.83465 V 196.61942"
       fill-rule="nonzero"
       id="path75" />
    <path
       stroke="#d9d9d9"
       stroke-width="1"
       stroke-linecap="butt"
       d="M 501.54593,70.83465 V 196.61942"
       fill-rule="nonzero"
       id="path77" />
    <path
       stroke="#d9d9d9"
       stroke-width="1"
       stroke-linecap="butt"
       d="M 544.6352,70.83465 V 196.61942"
       fill-rule="nonzero"
       id="path79" />
    <path
       stroke="#d9d9d9"
       stroke-width="1"
       stroke-linecap="butt"
       d="M 587.7244,70.83465 V 196.61942"
       fill-rule="nonzero"
       id="path81" />
    <path
       stroke="#d9d9d9"
       stroke-width="1"
       stroke-linecap="butt"
       d="M 630.81366,70.83465 V 196.61942"
       fill-rule="nonzero"
       id="path83" />
    <path
       stroke="#d9d9d9"
       stroke-width="1"
       stroke-linecap="butt"
       d="M 673.9029,70.83465 V 196.61942"
       fill-rule="nonzero"
       id="path85" />
    <path
       stroke="#d9d9d9"
       stroke-width="1"
       stroke-linecap="butt"
       d="M 716.9921,70.83465 V 196.61942"
       fill-rule="nonzero"
       id="path87" />
    <path
       stroke="#d9d9d9"
       stroke-width="1"
       stroke-linecap="butt"
       d="m 242.50919,71.333336 h 474.9816"
       fill-rule="nonzero"
       id="path89" />
    <path
       stroke="#d9d9d9"
       stroke-width="1"
       stroke-linecap="butt"
       d="m 242.50919,112.92913 h 474.9816"
       fill-rule="nonzero"
       id="path91" />
    <path
       stroke="#d9d9d9"
       stroke-width="1"
       stroke-linecap="butt"
       d="m 242.50919,154.52493 h 474.9816"
       fill-rule="nonzero"
       id="path93" />
    <path
       stroke="#d9d9d9"
       stroke-width="1"
       stroke-linecap="butt"
       d="m 242.50919,196.12073 h 474.9816"
       fill-rule="nonzero"
       id="path95" />
    <path
       fill="#f3f3f3"
       d="m 262.25787,91.80021 q 0,1.515625 -0.28125,2.75 -0.26562,1.234375 -0.84375,2.125 -0.5625,0.890625 -1.4375,1.375 -0.85937,0.484375 -2.03125,0.484375 -1.17187,0 -2.04687,-0.484375 -0.85938,-0.484375 -1.4375,-1.375 -0.5625,-0.890625 -0.84375,-2.125 -0.28125,-1.234375 -0.28125,-2.75 0,-1.515625 0.28125,-2.765625 0.28125,-1.25 0.84375,-2.125 0.57812,-0.890625 1.4375,-1.390625 0.875,-0.5 2.04687,-0.5 1.17188,0 2.03125,0.5 0.875,0.5 1.4375,1.390625 0.57813,0.875 0.84375,2.125 0.28125,1.25 0.28125,2.765625 z m -1.79687,0 q 0,-1.171875 -0.15625,-2.140625 -0.14063,-0.984375 -0.48438,-1.671875 -0.32812,-0.703125 -0.85937,-1.09375 -0.53125,-0.390625 -1.29688,-0.390625 -0.76562,0 -1.29687,0.390625 -0.53125,0.390625 -0.875,1.09375 -0.32813,0.6875 -0.5,1.671875 -0.15625,0.96875 -0.15625,2.140625 0,1.171875 0.15625,2.140625 0.17187,0.96875 0.5,1.671875 0.34375,0.6875 0.875,1.078125 0.53125,0.375 1.29687,0.375 0.76563,0 1.29688,-0.375 0.53125,-0.390625 0.85937,-1.078125 0.34375,-0.703125 0.48438,-1.671875 0.15625,-0.96875 0.15625,-2.140625 z m 7.14642,-8.03125 q 0.53125,0 0.9375,0.125 0.42187,0.109375 0.6875,0.234375 l -0.34375,1.265625 q -0.26563,-0.125 -0.54688,-0.1875 -0.26562,-0.0625 -0.59375,-0.0625 -0.42187,0 -0.70312,0.15625 -0.28125,0.140625 -0.4375,0.40625 -0.14063,0.25 -0.20313,0.625 -0.0469,0.359375 -0.0469,0.765625 v 1.359375 h 2.51562 v 1.390625 h -2.51562 v 8.40625 h -1.60938 v -11.15625 q 0,-1.59375 0.70313,-2.453125 0.71875,-0.875 2.15625,-0.875 z m 5.70312,0 q 0.53125,0 0.9375,0.125 0.42188,0.109375 0.6875,0.234375 l -0.34375,1.265625 q -0.26562,-0.125 -0.54687,-0.1875 -0.26563,-0.0625 -0.59375,-0.0625 -0.42188,0 -0.70313,0.15625 -0.28125,0.140625 -0.4375,0.40625 -0.14062,0.25 -0.20312,0.625 -0.0469,0.359375 -0.0469,0.765625 v 1.359375 h 2.51563 v 1.390625 h -2.51563 v 8.40625 h -1.60937 v -11.15625 q 0,-1.59375 0.70312,-2.453125 0.71875,-0.875 2.15625,-0.875 z m 4.21451,13.34375 q 0.71875,0 1.07813,-0.390625 0.35937,-0.40625 0.35937,-1.0625 0,-0.40625 -0.15625,-0.6875 -0.14062,-0.296875 -0.39062,-0.515625 -0.23438,-0.234375 -0.5625,-0.40625 -0.3125,-0.1875 -0.625,-0.390625 -0.3125,-0.1875 -0.60938,-0.4375 -0.29687,-0.25 -0.53125,-0.578125 -0.23437,-0.328125 -0.375,-0.734375 -0.14062,-0.421875 -0.14062,-0.984375 0,-1.21875 0.75,-1.953125 0.76562,-0.75 2.04687,-0.75 0.54688,0 1.03125,0.140625 0.48438,0.140625 0.79688,0.296875 l -0.35938,1.296875 q -0.32812,-0.1875 -0.67187,-0.28125 -0.32813,-0.09375 -0.71875,-0.09375 -0.59375,0 -0.95313,0.34375 -0.35937,0.34375 -0.35937,1 0,0.375 0.125,0.640625 0.14062,0.265625 0.34375,0.484375 0.21875,0.21875 0.48437,0.40625 0.28125,0.1875 0.57813,0.34375 0.35937,0.203125 0.70312,0.453125 0.34375,0.25 0.60938,0.578125 0.28125,0.3125 0.4375,0.75 0.17187,0.4375 0.17187,1.0625 0,1.28125 -0.76562,2.078125 -0.75,0.78125 -2.20313,0.78125 -0.73437,0 -1.34375,-0.21875 -0.59375,-0.203125 -0.89062,-0.359375 l 0.32812,-1.328125 q 0.28125,0.140625 0.75,0.328125 0.48438,0.1875 1.0625,0.1875 z m 6.11179,-3.28125 q 0.0156,0.703125 0.125,1.296875 0.10937,0.59375 0.35937,1.03125 0.25,0.4375 0.67188,0.6875 0.42187,0.234375 1.07812,0.234375 0.53125,0 0.98438,-0.15625 0.46875,-0.171875 0.67187,-0.28125 l 0.29688,1.296875 q -0.23438,0.15625 -0.8125,0.359375 -0.5625,0.203125 -1.34375,0.203125 -1.03125,0 -1.73438,-0.375 -0.6875,-0.375 -1.14062,-1.046875 -0.4375,-0.671875 -0.625,-1.609375 -0.17188,-0.9375 -0.17188,-2.046875 0,-2.703125 0.89063,-3.953125 0.89062,-1.25 2.35937,-1.25 1.67188,0 2.35938,1.25 0.6875,1.25 0.6875,3.5 0,0.203125 0,0.421875 0,0.21875 -0.0156,0.4375 z m 1.60937,-4.25 q -0.79687,0 -1.15625,0.796875 -0.35937,0.796875 -0.4375,2.140625 h 2.96875 q 0,-1.359375 -0.28125,-2.140625 -0.28125,-0.796875 -1.09375,-0.796875 z m 6.91538,-1.125 h 2.45312 v 1.390625 h -2.45312 v 5.390625 q 0,1 0.35937,1.40625 0.35938,0.390625 0.98438,0.390625 0.3125,0 0.59375,-0.09375 0.29687,-0.09375 0.5,-0.21875 l 0.3125,1.28125 q -0.76563,0.453125 -1.625,0.453125 -1.375,0 -2.0625,-0.765625 -0.67188,-0.78125 -0.67188,-2.578125 v -9.28125 l 1.60938,-0.28125 z"
       fill-rule="nonzero"
       id="path97" />
    <path
       fill="#f3f3f3"
       d="m 347.69125,91.784584 q 0,-1.90625 0.17188,-3.203125 0.17187,-1.296875 0.53125,-2.078125 0.375,-0.78125 0.9375,-1.125 0.57812,-0.359375 1.40625,-0.359375 0.79687,0 1.375,0.359375 0.57812,0.34375 0.95312,1.125 0.375,0.78125 0.53125,2.078125 0.17188,1.296875 0.17188,3.203125 0,1.890625 -0.17188,3.1875 -0.15625,1.296875 -0.53125,2.09375 -0.375,0.78125 -0.95312,1.125 -0.57813,0.34375 -1.375,0.34375 -0.82813,0 -1.40625,-0.34375 -0.5625,-0.34375 -0.9375,-1.125 -0.35938,-0.796875 -0.53125,-2.09375 -0.17188,-1.296875 -0.17188,-3.1875 z m 4.40625,0 q 0,-1.53125 -0.0781,-2.5625 -0.0781,-1.03125 -0.23438,-1.640625 -0.15625,-0.609375 -0.42187,-0.875 -0.25,-0.265625 -0.625,-0.265625 -0.375,0 -0.64063,0.265625 -0.26562,0.265625 -0.42187,0.875 -0.15625,0.609375 -0.23438,1.640625 -0.0625,1.03125 -0.0625,2.5625 0,1.53125 0.0625,2.5625 0.0781,1.015625 0.23438,1.640625 0.15625,0.609375 0.42187,0.875 0.26563,0.25 0.64063,0.25 0.375,0 0.625,-0.25 0.26562,-0.265625 0.42187,-0.875 0.15625,-0.625 0.23438,-1.640625 0.0781,-1.03125 0.0781,-2.5625 z"
       fill-rule="nonzero"
       id="path99" />
    <path
       fill="#f3f3f3"
       d="m 391.12424,87.89396 q 0.34375,-0.203125 0.71875,-0.5 0.39062,-0.296875 0.75,-0.640625 0.35937,-0.34375 0.65625,-0.703125 0.3125,-0.375 0.51562,-0.71875 h 1.23438 v 12.921875 h -1.60938 V 87.86271 q -0.3125,0.328125 -0.73437,0.640625 -0.42188,0.296875 -0.89063,0.546875 z"
       fill-rule="nonzero"
       id="path101" />
    <path
       fill="#f3f3f3"
       d="m 433.7291,86.128334 q 1.09375,-1.109375 2.67188,-1.109375 1.51562,0 2.3125,0.796875 0.8125,0.796875 0.8125,2.46875 0,0.796875 -0.26563,1.5 -0.26562,0.703125 -0.65625,1.375 -0.39062,0.65625 -0.85937,1.3125 -0.45313,0.65625 -0.89063,1.34375 -0.42187,0.671875 -0.75,1.40625 -0.3125,0.734375 -0.39062,1.578125 h 4.07812 v 1.453125 h -5.79687 v -0.359375 q 0,-1.25 0.28125,-2.21875 0.29687,-0.96875 0.71875,-1.75 0.42187,-0.78125 0.92187,-1.453125 0.51563,-0.671875 0.92188,-1.3125 0.42187,-0.65625 0.70312,-1.328125 0.29688,-0.6875 0.29688,-1.5 0,-0.984375 -0.39063,-1.421875 -0.39062,-0.453125 -1.17187,-0.453125 -0.54688,0 -0.98438,0.21875 -0.4375,0.21875 -0.78125,0.546875 z"
       fill-rule="nonzero"
       id="path103" />
    <path
       fill="#f3f3f3"
       d="m 480.7871,91.30021 q 0.9375,0.328125 1.4375,1.1875 0.51562,0.84375 0.51562,2.1875 0,1.78125 -0.875,2.828125 -0.85937,1.03125 -2.60937,1.03125 -0.6875,0 -1.34375,-0.203125 -0.65625,-0.203125 -1.14063,-0.546875 l 0.4375,-1.296875 q 0.42188,0.25 0.89063,0.4375 0.48437,0.1875 1,0.1875 0.95312,0 1.48437,-0.578125 0.53125,-0.59375 0.53125,-1.875 0,-1.296875 -0.59375,-1.9375 -0.57812,-0.65625 -1.85937,-0.65625 h -0.48438 v -1.375 h 0.40625 q 1.125,0 1.65625,-0.59375 0.54688,-0.59375 0.54688,-1.65625 0,-1.015625 -0.4375,-1.5 -0.42188,-0.5 -1.125,-0.5 -0.48438,0 -0.9375,0.1875 -0.4375,0.1875 -0.75,0.46875 l -0.625,-1.171875 q 0.48437,-0.453125 1.14062,-0.671875 0.65625,-0.234375 1.3125,-0.234375 1.45313,0 2.23438,0.921875 0.79687,0.90625 0.79687,2.421875 0,1.0625 -0.42187,1.8125 -0.42188,0.734375 -1.1875,1.125 z"
       fill-rule="nonzero"
       id="path105" />
    <path
       fill="#f3f3f3"
       d="m 519.8607,93.92521 q 0.34375,-1.15625 0.85937,-2.4375 0.53125,-1.296875 1.07813,-2.484375 0.5625,-1.203125 1.07812,-2.171875 0.51563,-0.96875 0.82813,-1.5 h 1.64062 v 8.4375 h 1.26563 v 1.328125 h -1.26563 v 3.15625 h -1.46875 v -3.15625 h -4.01562 z m 4.01562,-0.15625 v -6.296875 q -0.28125,0.578125 -0.65625,1.328125 -0.35937,0.734375 -0.71875,1.578125 -0.35937,0.84375 -0.70312,1.71875 -0.32813,0.859375 -0.57813,1.671875 z"
       fill-rule="nonzero"
       id="path107" />
    <path
       fill="#f3f3f3"
       d="m 565.7312,86.722084 q -0.0937,1.34375 -0.14063,2.25 -0.0312,0.890625 -0.0625,1.40625 1.75,0.25 2.5625,1.28125 0.82813,1.015625 0.82813,2.765625 0,1 -0.28125,1.765625 -0.28125,0.75 -0.78125,1.28125 -0.48438,0.515625 -1.15625,0.78125 -0.67188,0.28125 -1.45313,0.28125 -0.54687,0 -1.10937,-0.15625 -0.54688,-0.140625 -1.03125,-0.421875 l 0.4375,-1.328125 q 0.8125,0.453125 1.64062,0.453125 0.90625,0 1.51563,-0.65625 0.625,-0.65625 0.625,-2 0,-1.46875 -0.84375,-2.109375 -0.82813,-0.640625 -2.51563,-0.71875 0.0937,-0.9375 0.14063,-1.703125 0.0625,-0.78125 0.0937,-1.515625 0.0469,-0.734375 0.0625,-1.46875 0.0312,-0.75 0.0469,-1.578125 h 4.375 v 1.390625 z"
       fill-rule="nonzero"
       id="path109" />
    <path
       fill="#f3f3f3"
       d="m 611.75793,86.597084 q -0.71875,0.09375 -1.3125,0.3125 -0.57813,0.203125 -1.04688,0.671875 -0.46875,0.453125 -0.78125,1.203125 -0.29687,0.734375 -0.45312,1.859375 0.39062,-0.171875 0.75,-0.234375 0.375,-0.07813 0.6875,-0.07813 1.34375,0 2.07812,1.046875 0.73438,1.046875 0.73438,2.90625 0,1.96875 -0.70313,3.109375 -0.6875,1.140625 -2.20312,1.140625 -0.76563,0 -1.34375,-0.296875 -0.57813,-0.296875 -0.96875,-0.96875 -0.375,-0.6875 -0.57813,-1.796875 -0.1875,-1.125 -0.1875,-2.71875 0,-1.40625 0.26563,-2.71875 0.28125,-1.328125 0.875,-2.359375 0.60937,-1.046875 1.59375,-1.6875 0.98437,-0.65625 2.42187,-0.71875 z m -2.54688,5.03125 q -0.29687,0 -0.59375,0.109375 -0.29687,0.09375 -0.5625,0.25 -0.0156,0.21875 -0.0156,0.453125 0,0.234375 0,0.484375 0,0.84375 0.0469,1.625 0.0469,0.78125 0.1875,1.375 0.15625,0.578125 0.4375,0.921875 0.29688,0.34375 0.78125,0.34375 0.73438,0 1.01563,-0.765625 0.29687,-0.78125 0.29687,-2.078125 0,-1.390625 -0.39062,-2.046875 -0.375,-0.671875 -1.20313,-0.671875 z"
       fill-rule="nonzero"
       id="path111" />
    <path
       fill="#f3f3f3"
       d="m 650.4878,98.253334 q 0.0469,-0.890625 0.20312,-1.921875 0.15625,-1.046875 0.39063,-2.109375 0.25,-1.0625 0.53125,-2.125 0.29687,-1.078125 0.625,-2.0625 0.34375,-0.984375 0.67187,-1.8125 0.34375,-0.84375 0.6875,-1.484375 h -4.40625 v -1.40625 h 6.20313 v 1.25 q -0.4375,0.71875 -0.98438,1.984375 -0.54687,1.25 -1.01562,2.828125 -0.46875,1.578125 -0.82813,3.359375 -0.35937,1.765625 -0.4375,3.5 z"
       fill-rule="nonzero"
       id="path113" />
    <path
       fill="#f3f3f3"
       d="m 698.3895,88.17521 q 0,1.078125 -0.53125,1.96875 -0.53125,0.890625 -1.23438,1.546875 0.78125,0.578125 1.35938,1.390625 0.57812,0.8125 0.57812,1.921875 0,0.875 -0.28125,1.546875 -0.26562,0.65625 -0.70312,1.09375 -0.4375,0.4375 -1,0.65625 -0.54688,0.234375 -1.14063,0.234375 -0.70312,0 -1.28125,-0.25 -0.57812,-0.25 -0.98437,-0.6875 -0.40625,-0.4375 -0.64063,-1.046875 -0.21875,-0.625 -0.21875,-1.359375 0,-1.15625 0.51563,-2.0625 0.51562,-0.90625 1.375,-1.59375 -0.71875,-0.53125 -1.17188,-1.359375 -0.4375,-0.84375 -0.4375,-1.953125 0,-0.84375 0.25,-1.453125 0.26563,-0.609375 0.6875,-1 0.42188,-0.390625 0.9375,-0.5625 0.53125,-0.1875 1.07813,-0.1875 0.51562,0 1.03125,0.1875 0.51562,0.171875 0.92187,0.5625 0.40625,0.375 0.64063,0.984375 0.25,0.59375 0.25,1.421875 z m -1.39063,6.9375 q 0,-0.484375 -0.15625,-0.890625 -0.15625,-0.421875 -0.42187,-0.78125 -0.26563,-0.375 -0.59375,-0.671875 -0.32813,-0.296875 -0.67188,-0.5625 -0.54687,0.5 -0.90625,1.171875 -0.34375,0.671875 -0.34375,1.6875 0,1 0.40625,1.609375 0.42188,0.609375 1.15625,0.609375 0.60938,0 1.0625,-0.546875 0.46875,-0.5625 0.46875,-1.625 z m -2.84375,-7.109375 q 0,0.609375 0.0937,1.0625 0.0937,0.453125 0.28125,0.796875 0.1875,0.34375 0.45313,0.625 0.28125,0.28125 0.625,0.53125 0.53125,-0.546875 0.85937,-1.15625 0.32813,-0.609375 0.32813,-1.578125 0,-1.125 -0.375,-1.5625 -0.375,-0.453125 -0.92188,-0.453125 -0.20312,0 -0.45312,0.07813 -0.23438,0.07813 -0.4375,0.28125 -0.1875,0.1875 -0.32813,0.53125 -0.125,0.328125 -0.125,0.84375 z"
       fill-rule="nonzero"
       id="path115" />
    <path
       fill="#f3f3f3"
       d="m 260.961,126.92725 q -0.40625,0.625 -0.92187,1.39063 -0.51563,0.76563 -1.0625,1.57813 -0.53125,0.8125 -1.09375,1.59375 -0.54688,0.78125 -1.04688,1.45312 0.5625,0.5625 1.21875,1.42188 0.65625,0.84375 1.28125,1.78125 0.64063,0.9375 1.1875,1.90625 0.5625,0.96875 0.90625,1.79687 h -1.89062 q -0.39063,-0.85937 -0.90625,-1.75 -0.5,-0.90625 -1.07813,-1.73437 -0.5625,-0.82813 -1.15625,-1.53125 -0.57812,-0.71875 -1.14062,-1.20313 v 6.21875 h -1.6875 v -12.92188 h 1.6875 v 5.70313 q 0.48437,-0.60937 1.01562,-1.39062 0.54688,-0.79688 1.07813,-1.57813 0.53125,-0.78125 1,-1.5 0.46875,-0.71876 0.78125,-1.23438 z m 2.7507,8.50001 q 0.0156,0.70312 0.125,1.29687 0.10938,0.59375 0.35938,1.03125 0.25,0.4375 0.67187,0.6875 0.42188,0.23438 1.07813,0.23438 0.53125,0 0.98437,-0.15625 0.46875,-0.17188 0.67188,-0.28125 l 0.29687,1.29687 q -0.23437,0.15625 -0.8125,0.35938 -0.5625,0.20312 -1.34375,0.20312 -1.03125,0 -1.73437,-0.375 -0.6875,-0.375 -1.14063,-1.04687 -0.4375,-0.67188 -0.625,-1.60938 -0.17187,-0.9375 -0.17187,-2.04687 0,-2.70313 0.89062,-3.95313 0.89063,-1.25 2.35938,-1.25 1.67187,0 2.35937,1.25 0.6875,1.25 0.6875,3.5 0,0.20313 0,0.42188 0,0.21875 -0.0156,0.4375 z m 1.60938,-4.25 q -0.79688,0 -1.15625,0.79687 -0.35938,0.79688 -0.4375,2.14063 h 2.96875 q 0,-1.35938 -0.28125,-2.14063 -0.28125,-0.79687 -1.09375,-0.79687 z m 7.58764,6.64062 q 0.53125,-1.875 0.98438,-3.75 0.45312,-1.89062 0.85937,-4.01562 h 1.57813 q -0.28125,1.35937 -0.60938,2.6875 -0.3125,1.32812 -0.67187,2.5625 -0.34375,1.21875 -0.6875,2.3125 -0.34375,1.09375 -0.64063,1.98437 -0.35937,1.04688 -0.6875,1.76563 -0.3125,0.71875 -0.70312,1.15625 -0.375,0.4375 -0.82813,0.625 -0.45312,0.20312 -1.0625,0.20312 -0.32812,0 -0.67187,-0.0781 -0.32813,-0.0781 -0.5625,-0.17188 l 0.29687,-1.3125 q 0.48438,0.20313 0.92188,0.20313 0.53125,0 0.85937,-0.39063 0.34375,-0.39062 0.67188,-1.17187 l 0.1875,-0.46875 q -0.35938,-0.96875 -0.73438,-2.15625 -0.35937,-1.1875 -0.70312,-2.46875 -0.34375,-1.28125 -0.65625,-2.625 -0.3125,-1.35938 -0.57813,-2.65625 h 1.70313 q 0.14062,0.875 0.34375,1.92187 0.20312,1.04688 0.4375,2.09375 0.23437,1.04688 0.46875,2.03125 0.25,0.96875 0.48437,1.71875 z"
       fill-rule="nonzero"
       id="path117" />
    <path
       fill="#f3f3f3"
       d="m 350.87164,126.92725 q -0.40625,0.625 -0.92187,1.39063 -0.51563,0.76563 -1.0625,1.57813 -0.53125,0.8125 -1.09375,1.59375 -0.54688,0.78125 -1.04688,1.45312 0.5625,0.5625 1.21875,1.42188 0.65625,0.84375 1.28125,1.78125 0.64063,0.9375 1.1875,1.90625 0.5625,0.96875 0.90625,1.79687 h -1.89062 q -0.39063,-0.85937 -0.90625,-1.75 -0.5,-0.90625 -1.07813,-1.73437 -0.5625,-0.82813 -1.15625,-1.53125 -0.57812,-0.71875 -1.14062,-1.20313 v 6.21875 h -1.6875 v -12.92188 h 1.6875 v 5.70313 q 0.48437,-0.60937 1.01562,-1.39062 0.54688,-0.79688 1.07813,-1.57813 0.53125,-0.78125 1,-1.5 0.46875,-0.71876 0.78125,-1.23438 z m 1.96735,2.56251 q 0.34375,-0.20313 0.71875,-0.5 0.39062,-0.29688 0.75,-0.64063 0.35937,-0.34375 0.65625,-0.70313 0.3125,-0.375 0.51562,-0.71875 h 1.23438 v 12.92188 h -1.60938 v -10.39062 q -0.3125,0.32812 -0.73437,0.64062 -0.42188,0.29688 -0.89063,0.54688 z"
       fill-rule="nonzero"
       id="path119" />
    <path
       fill="#f3f3f3"
       d="m 393.96088,126.92725 q -0.40625,0.625 -0.92188,1.39063 -0.51562,0.76563 -1.0625,1.57813 -0.53125,0.8125 -1.09375,1.59375 -0.54687,0.78125 -1.04687,1.45312 0.5625,0.5625 1.21875,1.42188 0.65625,0.84375 1.28125,1.78125 0.64062,0.9375 1.1875,1.90625 0.5625,0.96875 0.90625,1.79687 H 392.539 q -0.39062,-0.85937 -0.90625,-1.75 -0.5,-0.90625 -1.07812,-1.73437 -0.5625,-0.82813 -1.15625,-1.53125 -0.57813,-0.71875 -1.14063,-1.20313 v 6.21875 h -1.6875 v -12.92188 h 1.6875 v 5.70313 q 0.48438,-0.60937 1.01563,-1.39062 0.54687,-0.79688 1.07812,-1.57813 0.53125,-0.78125 1,-1.5 0.46875,-0.71876 0.78125,-1.23438 z m 1.48297,0.79688 q 1.09375,-1.10938 2.67188,-1.10938 1.51562,0 2.3125,0.79688 0.8125,0.79688 0.8125,2.46875 0,0.79688 -0.26563,1.5 -0.26562,0.70313 -0.65625,1.375 -0.39062,0.65625 -0.85937,1.3125 -0.45313,0.65625 -0.89063,1.34375 -0.42187,0.67188 -0.75,1.40625 -0.3125,0.73438 -0.39062,1.57813 h 4.07812 v 1.45312 h -5.79687 v -0.35937 q 0,-1.25 0.28125,-2.21875 0.29687,-0.96875 0.71875,-1.75 0.42187,-0.78125 0.92187,-1.45313 0.51563,-0.67187 0.92188,-1.3125 0.42187,-0.65625 0.70312,-1.32812 0.29688,-0.6875 0.29688,-1.5 0,-0.98438 -0.39063,-1.42188 -0.39062,-0.45312 -1.17187,-0.45312 -0.54688,0 -0.98438,0.21875 -0.4375,0.21875 -0.78125,0.54687 z"
       fill-rule="nonzero"
       id="path121" />
    <path
       fill="#f3f3f3"
       d="m 437.0501,126.92725 q -0.40625,0.625 -0.92188,1.39063 -0.51562,0.76563 -1.0625,1.57813 -0.53125,0.8125 -1.09375,1.59375 -0.54687,0.78125 -1.04687,1.45312 0.5625,0.5625 1.21875,1.42188 0.65625,0.84375 1.28125,1.78125 0.64062,0.9375 1.1875,1.90625 0.5625,0.96875 0.90625,1.79687 h -1.89063 q -0.39062,-0.85937 -0.90625,-1.75 -0.5,-0.90625 -1.07812,-1.73437 -0.5625,-0.82813 -1.15625,-1.53125 -0.57813,-0.71875 -1.14063,-1.20313 v 6.21875 h -1.6875 v -12.92188 h 1.6875 v 5.70313 q 0.48438,-0.60937 1.01563,-1.39062 0.54687,-0.79688 1.07812,-1.57813 0.53125,-0.78125 1,-1.5 0.46875,-0.71876 0.78125,-1.23438 z m 1.96735,2.56251 q 0.34375,-0.20313 0.71875,-0.5 0.39062,-0.29688 0.75,-0.64063 0.35937,-0.34375 0.65625,-0.70313 0.3125,-0.375 0.51562,-0.71875 h 1.23438 v 12.92188 h -1.60938 v -10.39062 q -0.3125,0.32812 -0.73437,0.64062 -0.42188,0.29688 -0.89063,0.54688 z"
       fill-rule="nonzero"
       id="path123" />
    <path
       fill="#f3f3f3"
       d="m 480.13937,126.92725 q -0.40625,0.625 -0.92188,1.39063 -0.51562,0.76563 -1.0625,1.57813 -0.53125,0.8125 -1.09375,1.59375 -0.54687,0.78125 -1.04687,1.45312 0.5625,0.5625 1.21875,1.42188 0.65625,0.84375 1.28125,1.78125 0.64062,0.9375 1.1875,1.90625 0.5625,0.96875 0.90625,1.79687 h -1.89063 q -0.39062,-0.85937 -0.90625,-1.75 -0.5,-0.90625 -1.07812,-1.73437 -0.5625,-0.82813 -1.15625,-1.53125 -0.57813,-0.71875 -1.14063,-1.20313 v 6.21875 h -1.6875 v -12.92188 h 1.6875 v 5.70313 q 0.48438,-0.60937 1.01563,-1.39062 0.54687,-0.79688 1.07812,-1.57813 0.53125,-0.78125 1,-1.5 0.46875,-0.71876 0.78125,-1.23438 z m 5.45172,5.96876 q 0.9375,0.32812 1.4375,1.1875 0.51563,0.84375 0.51563,2.1875 0,1.78125 -0.875,2.82812 -0.85938,1.03125 -2.60938,1.03125 -0.6875,0 -1.34375,-0.20312 -0.65625,-0.20313 -1.14062,-0.54688 l 0.4375,-1.29687 q 0.42187,0.25 0.89062,0.4375 0.48438,0.1875 1,0.1875 0.95313,0 1.48438,-0.57813 0.53125,-0.59375 0.53125,-1.875 0,-1.29687 -0.59375,-1.9375 -0.57813,-0.65625 -1.85938,-0.65625 h -0.48437 v -1.375 h 0.40625 q 1.125,0 1.65625,-0.59375 0.54687,-0.59375 0.54687,-1.65625 0,-1.01562 -0.4375,-1.5 -0.42187,-0.5 -1.125,-0.5 -0.48437,0 -0.9375,0.1875 -0.4375,0.1875 -0.75,0.46875 l -0.625,-1.17188 q 0.48438,-0.45313 1.14063,-0.67188 0.65625,-0.23437 1.3125,-0.23437 1.45312,0 2.23437,0.92187 0.79688,0.90626 0.79688,2.42189 0,1.0625 -0.42188,1.8125 -0.42187,0.73437 -1.1875,1.125 z"
       fill-rule="nonzero"
       id="path125" />
    <path
       fill="#f3f3f3"
       d="m 523.2286,126.92725 q -0.40625,0.625 -0.92187,1.39063 -0.51563,0.76563 -1.0625,1.57813 -0.53125,0.8125 -1.09375,1.59375 -0.54688,0.78125 -1.04688,1.45312 0.5625,0.5625 1.21875,1.42188 0.65625,0.84375 1.28125,1.78125 0.64063,0.9375 1.1875,1.90625 0.5625,0.96875 0.90625,1.79687 h -1.89062 q -0.39063,-0.85937 -0.90625,-1.75 -0.5,-0.90625 -1.07813,-1.73437 -0.5625,-0.82813 -1.15625,-1.53125 -0.57812,-0.71875 -1.14062,-1.20313 v 6.21875 h -1.6875 v -12.92188 h 1.6875 v 5.70313 q 0.48437,-0.60937 1.01562,-1.39062 0.54688,-0.79688 1.07813,-1.57813 0.53125,-0.78125 1,-1.5 0.46875,-0.71876 0.78125,-1.23438 z m 1.48297,0.79688 q 1.09375,-1.10938 2.67188,-1.10938 1.51562,0 2.3125,0.79688 0.8125,0.79688 0.8125,2.46875 0,0.79688 -0.26563,1.5 -0.26562,0.70313 -0.65625,1.375 -0.39062,0.65625 -0.85937,1.3125 -0.45313,0.65625 -0.89063,1.34375 -0.42187,0.67188 -0.75,1.40625 -0.3125,0.73438 -0.39062,1.57813 h 4.07812 v 1.45312 h -5.79687 v -0.35937 q 0,-1.25 0.28125,-2.21875 0.29687,-0.96875 0.71875,-1.75 0.42187,-0.78125 0.92187,-1.45313 0.51563,-0.67187 0.92188,-1.3125 0.42187,-0.65625 0.70312,-1.32812 0.29688,-0.6875 0.29688,-1.5 0,-0.98438 -0.39063,-1.42188 -0.39062,-0.45312 -1.17187,-0.45312 -0.54688,0 -0.98438,0.21875 -0.4375,0.21875 -0.78125,0.54687 z"
       fill-rule="nonzero"
       id="path127" />
    <path
       fill="#f3f3f3"
       d="m 566.3178,126.92725 q -0.40625,0.625 -0.92187,1.39063 -0.51563,0.76563 -1.0625,1.57813 -0.53125,0.8125 -1.09375,1.59375 -0.54688,0.78125 -1.04688,1.45312 0.5625,0.5625 1.21875,1.42188 0.65625,0.84375 1.28125,1.78125 0.64063,0.9375 1.1875,1.90625 0.5625,0.96875 0.90625,1.79687 h -1.89062 q -0.39063,-0.85937 -0.90625,-1.75 -0.5,-0.90625 -1.07813,-1.73437 -0.5625,-0.82813 -1.15625,-1.53125 -0.57812,-0.71875 -1.14062,-1.20313 v 6.21875 h -1.6875 v -12.92188 h 1.6875 v 5.70313 q 0.48437,-0.60937 1.01562,-1.39062 0.54688,-0.79688 1.07813,-1.57813 0.53125,-0.78125 1,-1.5 0.46875,-0.71876 0.78125,-1.23438 z m 1.4361,8.59376 q 0.34375,-1.15625 0.85937,-2.4375 0.53125,-1.29688 1.07813,-2.48438 0.5625,-1.20312 1.07812,-2.17187 0.51563,-0.96876 0.82813,-1.50001 h 1.64062 v 8.43751 h 1.26563 v 1.32812 h -1.26563 v 3.15625 h -1.46875 v -3.15625 h -4.01562 z m 4.01562,-0.15625 v -6.29688 q -0.28125,0.57813 -0.65625,1.32813 -0.35937,0.73437 -0.71875,1.57812 -0.35937,0.84375 -0.70312,1.71875 -0.32813,0.85938 -0.57813,1.67188 z"
       fill-rule="nonzero"
       id="path129" />
    <path
       fill="#f3f3f3"
       d="m 609.4071,126.92725 q -0.40625,0.625 -0.92187,1.39063 -0.51563,0.76563 -1.0625,1.57813 -0.53125,0.8125 -1.09375,1.59375 -0.54688,0.78125 -1.04688,1.45312 0.5625,0.5625 1.21875,1.42188 0.65625,0.84375 1.28125,1.78125 0.64063,0.9375 1.1875,1.90625 0.5625,0.96875 0.90625,1.79687 h -1.89062 q -0.39063,-0.85937 -0.90625,-1.75 -0.5,-0.90625 -1.07813,-1.73437 -0.5625,-0.82813 -1.15625,-1.53125 -0.57812,-0.71875 -1.14062,-1.20313 v 6.21875 h -1.6875 v -12.92188 h 1.6875 v 5.70313 q 0.48437,-0.60937 1.01562,-1.39062 0.54688,-0.79688 1.07813,-1.57813 0.53125,-0.78125 1,-1.5 0.46875,-0.71876 0.78125,-1.23438 z m 4.21735,1.39063 q -0.0937,1.34375 -0.14063,2.25 -0.0312,0.89063 -0.0625,1.40625 1.75,0.25 2.5625,1.28125 0.82813,1.01563 0.82813,2.76563 0,1 -0.28125,1.76562 -0.28125,0.75 -0.78125,1.28125 -0.48438,0.51563 -1.15625,0.78125 -0.67188,0.28125 -1.45313,0.28125 -0.54687,0 -1.10937,-0.15625 -0.54688,-0.14062 -1.03125,-0.42187 l 0.4375,-1.32813 q 0.8125,0.45313 1.64062,0.45313 0.90625,0 1.51563,-0.65625 0.625,-0.65625 0.625,-2 0,-1.46875 -0.84375,-2.10938 -0.82813,-0.64062 -2.51563,-0.71875 0.0937,-0.9375 0.14063,-1.70312 0.0625,-0.78125 0.0937,-1.51563 0.0469,-0.73437 0.0625,-1.46875 0.0312,-0.75001 0.0469,-1.57813 h 4.375 v 1.39063 z"
       fill-rule="nonzero"
       id="path131" />
    <path
       fill="#f3f3f3"
       d="m 652.49634,126.92725 q -0.40625,0.625 -0.92187,1.39063 -0.51563,0.76563 -1.0625,1.57813 -0.53125,0.8125 -1.09375,1.59375 -0.54688,0.78125 -1.04688,1.45312 0.5625,0.5625 1.21875,1.42188 0.65625,0.84375 1.28125,1.78125 0.64063,0.9375 1.1875,1.90625 0.5625,0.96875 0.90625,1.79687 h -1.89062 q -0.39063,-0.85937 -0.90625,-1.75 -0.5,-0.90625 -1.07813,-1.73437 -0.5625,-0.82813 -1.15625,-1.53125 -0.57812,-0.71875 -1.14062,-1.20313 v 6.21875 h -1.6875 v -12.92188 h 1.6875 v 5.70313 q 0.48437,-0.60937 1.01562,-1.39062 0.54688,-0.79688 1.07813,-1.57813 0.53125,-0.78125 1,-1.5 0.46875,-0.71876 0.78125,-1.23438 z m 4.21735,1.39063 q -0.0937,1.34375 -0.14063,2.25 -0.0312,0.89063 -0.0625,1.40625 1.75,0.25 2.5625,1.28125 0.82813,1.01563 0.82813,2.76563 0,1 -0.28125,1.76562 -0.28125,0.75 -0.78125,1.28125 -0.48438,0.51563 -1.15625,0.78125 -0.67188,0.28125 -1.45313,0.28125 -0.54687,0 -1.10937,-0.15625 -0.54688,-0.14062 -1.03125,-0.42187 l 0.4375,-1.32813 q 0.8125,0.45313 1.64062,0.45313 0.90625,0 1.51563,-0.65625 0.625,-0.65625 0.625,-2 0,-1.46875 -0.84375,-2.10938 -0.82813,-0.64062 -2.51563,-0.71875 0.0937,-0.9375 0.14063,-1.70312 0.0625,-0.78125 0.0937,-1.51563 0.0469,-0.73437 0.0625,-1.46875 0.0312,-0.75001 0.0469,-1.57813 h 4.375 v 1.39063 z"
       fill-rule="nonzero"
       id="path133" />
    <path
       fill="#f3f3f3"
       d="m 695.5856,126.92725 q -0.40625,0.625 -0.92188,1.39063 -0.51562,0.76563 -1.0625,1.57813 -0.53125,0.8125 -1.09375,1.59375 -0.54687,0.78125 -1.04687,1.45312 0.5625,0.5625 1.21875,1.42188 0.65625,0.84375 1.28125,1.78125 0.64062,0.9375 1.1875,1.90625 0.5625,0.96875 0.90625,1.79687 h -1.89063 q -0.39062,-0.85937 -0.90625,-1.75 -0.5,-0.90625 -1.07812,-1.73437 -0.5625,-0.82813 -1.15625,-1.53125 -0.57813,-0.71875 -1.14063,-1.20313 v 6.21875 h -1.6875 v -12.92188 h 1.6875 v 5.70313 q 0.48438,-0.60937 1.01563,-1.39062 0.54687,-0.79688 1.07812,-1.57813 0.53125,-0.78125 1,-1.5 0.46875,-0.71876 0.78125,-1.23438 z m 7.15485,1.26563 q -0.71875,0.0937 -1.3125,0.3125 -0.57813,0.20313 -1.04688,0.67188 -0.46875,0.45312 -0.78125,1.20312 -0.29687,0.73438 -0.45312,1.85938 0.39062,-0.17188 0.75,-0.23438 0.375,-0.0781 0.6875,-0.0781 1.34375,0 2.07812,1.04687 0.73438,1.04688 0.73438,2.90625 0,1.96875 -0.70313,3.10938 -0.6875,1.14062 -2.20312,1.14062 -0.76563,0 -1.34375,-0.29687 -0.57813,-0.29688 -0.96875,-0.96875 -0.375,-0.6875 -0.57813,-1.79688 -0.1875,-1.125 -0.1875,-2.71875 0,-1.40625 0.26563,-2.71875 0.28125,-1.32812 0.875,-2.35937 0.60937,-1.04688 1.59375,-1.68751 0.98437,-0.65625 2.42187,-0.71875 z m -2.54688,5.03125 q -0.29687,0 -0.59375,0.10938 -0.29687,0.0937 -0.5625,0.25 -0.0156,0.21875 -0.0156,0.45312 0,0.23438 0,0.48438 0,0.84375 0.0469,1.625 0.0469,0.78125 0.1875,1.375 0.15625,0.57812 0.4375,0.92187 0.29688,0.34375 0.78125,0.34375 0.73438,0 1.01563,-0.76562 0.29687,-0.78125 0.29687,-2.07813 0,-1.39062 -0.39062,-2.04687 -0.375,-0.67188 -1.20313,-0.67188 z"
       fill-rule="nonzero"
       id="path135" />
    <path
       fill="#f3f3f3"
       d="m 255.74225,181.44493 q -0.4375,-1.40625 -0.875,-2.82813 -0.42187,-1.42187 -0.84375,-2.98437 -0.40625,-1.57813 -0.82812,-3.3125 -0.40625,-1.75 -0.8125,-3.79688 h 1.75 q 0.25,1.42188 0.54687,2.875 0.29688,1.45313 0.625,2.85938 0.34375,1.39062 0.6875,2.70312 0.34375,1.3125 0.6875,2.48438 0.32813,-1.17188 0.67188,-2.48438 0.34375,-1.3125 0.67187,-2.70312 0.34375,-1.40625 0.64063,-2.85938 0.29687,-1.45312 0.54687,-2.875 h 1.70313 q -0.42188,2.04688 -0.82813,3.79688 -0.40625,1.73437 -0.82812,3.3125 -0.42188,1.5625 -0.85938,2.98437 -0.42187,1.42188 -0.84375,2.82813 z m 6.68051,-9.59375 q 0.48438,-0.20313 1.01563,-0.3125 0.54687,-0.125 1.1875,-0.125 1.29687,0 2.10937,0.8125 0.82813,0.8125 0.82813,2.51562 v 6.5 q -0.67188,0.1875 -1.375,0.29688 -0.6875,0.10937 -1.35938,0.10937 -0.67187,0 -1.26562,-0.17187 -0.57813,-0.15625 -1.03125,-0.53125 -0.4375,-0.375 -0.70313,-0.9375 -0.25,-0.57813 -0.25,-1.39063 0,-0.76562 0.23438,-1.32812 0.23437,-0.57813 0.64062,-0.95313 0.40625,-0.39062 0.96875,-0.57812 0.5625,-0.20313 1.21875,-0.20313 0.60938,0 1.35938,0.14063 v -0.89063 q 0,-1.07812 -0.42188,-1.5 -0.42187,-0.4375 -1.20312,-0.4375 -0.42188,0 -0.8125,0.0937 -0.375,0.0781 -0.8125,0.25 z m 0.76563,6.73437 q 0,0.85938 0.4375,1.28125 0.45312,0.40625 1.26562,0.40625 0.51563,0 1.10938,-0.14062 v -3.10938 q -0.5625,-0.15625 -1.10938,-0.15625 -0.34375,0 -0.67187,0.0937 -0.3125,0.0781 -0.54688,0.28125 -0.23437,0.1875 -0.35937,0.51563 -0.125,0.32812 -0.125,0.82812 z m 9.7218,3.04688 q -1.39063,-0.0312 -1.98438,-0.67188 -0.59375,-0.65625 -0.59375,-2.04687 V 167.2418 l 1.59375,-0.28125 v 11.98438 q 0,0.65625 0.26563,0.95312 0.26562,0.28125 0.92187,0.39063 z m 8.0491,-0.46875 q -0.23437,0.0937 -0.59375,0.1875 -0.34375,0.0781 -0.71875,0.14062 -0.375,0.0625 -0.76562,0.10938 -0.375,0.0469 -0.70313,0.0469 -0.76562,0 -1.40625,-0.1875 -0.625,-0.17187 -1.07812,-0.60937 -0.4375,-0.45313 -0.6875,-1.21875 -0.23438,-0.78125 -0.23438,-1.95313 v -6.03125 h 1.59375 v 5.96875 q 0,1.4375 0.4375,2.03125 0.45313,0.57813 1.34375,0.57813 0.29688,0 0.59375,-0.0156 0.29688,-0.0312 0.60938,-0.125 v -8.4375 h 1.60937 z m 4.00186,-4.14063 q 0.0156,0.70313 0.125,1.29688 0.10938,0.59375 0.35938,1.03125 0.25,0.4375 0.67187,0.6875 0.42188,0.23437 1.07813,0.23437 0.53125,0 0.98437,-0.15625 0.46875,-0.17187 0.67188,-0.28125 l 0.29687,1.29688 q -0.23437,0.15625 -0.8125,0.35937 -0.5625,0.20313 -1.34375,0.20313 -1.03125,0 -1.73437,-0.375 -0.6875,-0.375 -1.14063,-1.04688 -0.4375,-0.67187 -0.625,-1.60937 -0.17187,-0.9375 -0.17187,-2.04688 0,-2.70312 0.89062,-3.95312 0.89063,-1.25 2.35938,-1.25 1.67187,0 2.35937,1.25 0.6875,1.25 0.6875,3.5 0,0.20312 0,0.42187 0,0.21875 -0.0156,0.4375 z m 1.60938,-4.25 q -0.79688,0 -1.15625,0.79688 -0.35938,0.79687 -0.4375,2.14062 h 2.96875 q 0,-1.35937 -0.28125,-2.14062 -0.28125,-0.79688 -1.09375,-0.79688 z"
       fill-rule="nonzero"
       id="path137" />
    <path
       fill="#f3f3f3"
       d="m 345.8208,181.44493 q -0.4375,-1.40625 -0.875,-2.82813 -0.42187,-1.42187 -0.84375,-2.98437 -0.40625,-1.57813 -0.82812,-3.3125 -0.40625,-1.75 -0.8125,-3.79688 h 1.75 q 0.25,1.42188 0.54687,2.875 0.29688,1.45313 0.625,2.85938 0.34375,1.39062 0.6875,2.70312 0.34375,1.3125 0.6875,2.48438 0.32813,-1.17188 0.67188,-2.48438 0.34375,-1.3125 0.67187,-2.70312 0.34375,-1.40625 0.64063,-2.85938 0.29687,-1.45312 0.54687,-2.875 h 1.70313 q -0.42188,2.04688 -0.82813,3.79688 -0.40625,1.73437 -0.82812,3.3125 -0.42188,1.5625 -0.85938,2.98437 -0.42187,1.42188 -0.84375,2.82813 z m 6.85028,-10.35938 q 0.34375,-0.20312 0.71875,-0.5 0.39063,-0.29687 0.75,-0.64062 0.35938,-0.34375 0.65625,-0.70313 0.3125,-0.375 0.51563,-0.71875 h 1.23437 v 12.92188 h -1.60937 V 171.0543 q -0.3125,0.32813 -0.73438,0.64063 -0.42187,0.29687 -0.89062,0.54687 z"
       fill-rule="nonzero"
       id="path139" />
    <path
       fill="#f3f3f3"
       d="m 388.91003,181.44493 q -0.4375,-1.40625 -0.875,-2.82813 -0.42188,-1.42187 -0.84375,-2.98437 -0.40625,-1.57813 -0.82813,-3.3125 -0.40625,-1.75 -0.8125,-3.79688 h 1.75 q 0.25,1.42188 0.54688,2.875 0.29687,1.45313 0.625,2.85938 0.34375,1.39062 0.6875,2.70312 0.34375,1.3125 0.6875,2.48438 0.32812,-1.17188 0.67187,-2.48438 0.34375,-1.3125 0.67188,-2.70312 0.34375,-1.40625 0.64062,-2.85938 0.29688,-1.45312 0.54688,-2.875 h 1.70312 q -0.42187,2.04688 -0.82812,3.79688 -0.40625,1.73437 -0.82813,3.3125 -0.42187,1.5625 -0.85937,2.98437 -0.42188,1.42188 -0.84375,2.82813 z m 6.36591,-12.125 q 1.09375,-1.10938 2.67187,-1.10938 1.51563,0 2.3125,0.79688 0.8125,0.79687 0.8125,2.46875 0,0.79687 -0.26562,1.5 -0.26563,0.70312 -0.65625,1.375 -0.39063,0.65625 -0.85938,1.3125 -0.45312,0.65625 -0.89062,1.34375 -0.42188,0.67187 -0.75,1.40625 -0.3125,0.73437 -0.39063,1.57812 h 4.07813 v 1.45313 h -5.79688 v -0.35938 q 0,-1.25 0.28125,-2.21875 0.29688,-0.96875 0.71875,-1.75 0.42188,-0.78125 0.92188,-1.45312 0.51562,-0.67188 0.92187,-1.3125 0.42188,-0.65625 0.70313,-1.32813 0.29687,-0.6875 0.29687,-1.5 0,-0.98437 -0.39062,-1.42187 -0.39063,-0.45313 -1.17188,-0.45313 -0.54687,0 -0.98437,0.21875 -0.4375,0.21875 -0.78125,0.54688 z"
       fill-rule="nonzero"
       id="path141" />
    <path
       fill="#f3f3f3"
       d="m 431.99927,181.44493 q -0.4375,-1.40625 -0.875,-2.82813 -0.42187,-1.42187 -0.84375,-2.98437 -0.40625,-1.57813 -0.82812,-3.3125 -0.40625,-1.75 -0.8125,-3.79688 h 1.75 q 0.25,1.42188 0.54687,2.875 0.29688,1.45313 0.625,2.85938 0.34375,1.39062 0.6875,2.70312 0.34375,1.3125 0.6875,2.48438 0.32813,-1.17188 0.67188,-2.48438 0.34375,-1.3125 0.67187,-2.70312 0.34375,-1.40625 0.64063,-2.85938 0.29687,-1.45312 0.54687,-2.875 h 1.70313 q -0.42188,2.04688 -0.82813,3.79688 -0.40625,1.73437 -0.82812,3.3125 -0.42188,1.5625 -0.85938,2.98437 -0.42187,1.42188 -0.84375,2.82813 z m 10.33466,-6.95313 q 0.9375,0.32813 1.4375,1.1875 0.51562,0.84375 0.51562,2.1875 0,1.78125 -0.875,2.82813 -0.85937,1.03125 -2.60937,1.03125 -0.6875,0 -1.34375,-0.20313 -0.65625,-0.20312 -1.14063,-0.54687 l 0.4375,-1.29688 q 0.42188,0.25 0.89063,0.4375 0.48437,0.1875 1,0.1875 0.95312,0 1.48437,-0.57812 0.53125,-0.59375 0.53125,-1.875 0,-1.29688 -0.59375,-1.9375 -0.57812,-0.65625 -1.85937,-0.65625 h -0.48438 v -1.375 h 0.40625 q 1.125,0 1.65625,-0.59375 0.54688,-0.59375 0.54688,-1.65625 0,-1.01563 -0.4375,-1.5 -0.42188,-0.5 -1.125,-0.5 -0.48438,0 -0.9375,0.1875 -0.4375,0.1875 -0.75,0.46875 l -0.625,-1.17188 q 0.48437,-0.45312 1.14062,-0.67187 0.65625,-0.23438 1.3125,-0.23438 1.45313,0 2.23438,0.92188 0.79687,0.90625 0.79687,2.42187 0,1.0625 -0.42187,1.8125 -0.42188,0.73438 -1.1875,1.125 z"
       fill-rule="nonzero"
       id="path143" />
    <path
       fill="#f3f3f3"
       d="m 475.08853,181.44493 q -0.4375,-1.40625 -0.875,-2.82813 -0.42188,-1.42187 -0.84375,-2.98437 -0.40625,-1.57813 -0.82813,-3.3125 -0.40625,-1.75 -0.8125,-3.79688 h 1.75 q 0.25,1.42188 0.54688,2.875 0.29687,1.45313 0.625,2.85938 0.34375,1.39062 0.6875,2.70312 0.34375,1.3125 0.6875,2.48438 0.32812,-1.17188 0.67187,-2.48438 0.34375,-1.3125 0.67188,-2.70312 0.34375,-1.40625 0.64062,-2.85938 0.29688,-1.45312 0.54688,-2.875 h 1.70312 q -0.42187,2.04688 -0.82812,3.79688 -0.40625,1.73437 -0.82813,3.3125 -0.42187,1.5625 -0.85937,2.98437 -0.42188,1.42188 -0.84375,2.82813 z m 6.31903,-4.32813 q 0.34375,-1.15625 0.85938,-2.4375 0.53125,-1.29687 1.07812,-2.48437 0.5625,-1.20313 1.07813,-2.17188 0.51562,-0.96875 0.82812,-1.5 h 1.64063 v 8.4375 h 1.26562 v 1.32813 h -1.26562 v 3.15625 h -1.46875 v -3.15625 h -4.01563 z m 4.01563,-0.15625 v -6.29687 q -0.28125,0.57812 -0.65625,1.32812 -0.35938,0.73438 -0.71875,1.57813 -0.35938,0.84375 -0.70313,1.71875 -0.32812,0.85937 -0.57812,1.67187 z"
       fill-rule="nonzero"
       id="path145" />
    <path
       fill="#f3f3f3"
       d="m 518.17773,181.44493 q -0.4375,-1.40625 -0.875,-2.82813 -0.42188,-1.42187 -0.84375,-2.98437 -0.40625,-1.57813 -0.82813,-3.3125 -0.40625,-1.75 -0.8125,-3.79688 h 1.75 q 0.25,1.42188 0.54688,2.875 0.29687,1.45313 0.625,2.85938 0.34375,1.39062 0.6875,2.70312 0.34375,1.3125 0.6875,2.48438 0.32812,-1.17188 0.67187,-2.48438 0.34375,-1.3125 0.67188,-2.70312 0.34375,-1.40625 0.64062,-2.85938 0.29688,-1.45312 0.54688,-2.875 h 1.70312 q -0.42187,2.04688 -0.82812,3.79688 -0.40625,1.73437 -0.82813,3.3125 -0.42187,1.5625 -0.85937,2.98437 -0.42188,1.42188 -0.84375,2.82813 z m 9.10028,-11.53125 q -0.0937,1.34375 -0.14062,2.25 -0.0312,0.89062 -0.0625,1.40625 1.75,0.25 2.5625,1.28125 0.82812,1.01562 0.82812,2.76562 0,1 -0.28125,1.76563 -0.28125,0.75 -0.78125,1.28125 -0.48437,0.51562 -1.15625,0.78125 -0.67187,0.28125 -1.45312,0.28125 -0.54688,0 -1.10938,-0.15625 -0.54687,-0.14063 -1.03125,-0.42188 l 0.4375,-1.32812 q 0.8125,0.45312 1.64063,0.45312 0.90625,0 1.51562,-0.65625 0.625,-0.65625 0.625,-2 0,-1.46875 -0.84375,-2.10937 -0.82812,-0.64063 -2.51562,-0.71875 0.0937,-0.9375 0.14062,-1.70313 0.0625,-0.78125 0.0937,-1.51562 0.0469,-0.73438 0.0625,-1.46875 0.0312,-0.75 0.0469,-1.57813 h 4.375 v 1.39063 z"
       fill-rule="nonzero"
       id="path147" />
    <path
       fill="#f3f3f3"
       d="m 561.26697,181.44493 q -0.4375,-1.40625 -0.875,-2.82813 -0.42187,-1.42187 -0.84375,-2.98437 -0.40625,-1.57813 -0.82812,-3.3125 -0.40625,-1.75 -0.8125,-3.79688 h 1.75 q 0.25,1.42188 0.54687,2.875 0.29688,1.45313 0.625,2.85938 0.34375,1.39062 0.6875,2.70312 0.34375,1.3125 0.6875,2.48438 0.32813,-1.17188 0.67188,-2.48438 0.34375,-1.3125 0.67187,-2.70312 0.34375,-1.40625 0.64063,-2.85938 0.29687,-1.45312 0.54687,-2.875 h 1.70313 q -0.42188,2.04688 -0.82813,3.79688 -0.40625,1.73437 -0.82812,3.3125 -0.42188,1.5625 -0.85938,2.98437 -0.42187,1.42188 -0.84375,2.82813 z m 12.03778,-11.65625 q -0.71875,0.0937 -1.3125,0.3125 -0.57812,0.20312 -1.04687,0.67187 -0.46875,0.45313 -0.78125,1.20313 -0.29688,0.73437 -0.45313,1.85937 0.39063,-0.17187 0.75,-0.23437 0.375,-0.0781 0.6875,-0.0781 1.34375,0 2.07813,1.04688 0.73437,1.04687 0.73437,2.90625 0,1.96875 -0.70312,3.10937 -0.6875,1.14063 -2.20313,1.14063 -0.76562,0 -1.34375,-0.29688 -0.57812,-0.29687 -0.96875,-0.96875 -0.375,-0.6875 -0.57812,-1.79687 -0.1875,-1.125 -0.1875,-2.71875 0,-1.40625 0.26562,-2.71875 0.28125,-1.32813 0.875,-2.35938 0.60938,-1.04687 1.59375,-1.6875 0.98438,-0.65625 2.42188,-0.71875 z m -2.54687,5.03125 q -0.29688,0 -0.59375,0.10937 -0.29688,0.0937 -0.5625,0.25 -0.0156,0.21875 -0.0156,0.45313 0,0.23437 0,0.48437 0,0.84375 0.0469,1.625 0.0469,0.78125 0.1875,1.375 0.15625,0.57813 0.4375,0.92188 0.29687,0.34375 0.78125,0.34375 0.73437,0 1.01562,-0.76563 0.29688,-0.78125 0.29688,-2.07812 0,-1.39063 -0.39063,-2.04688 -0.375,-0.67187 -1.20312,-0.67187 z"
       fill-rule="nonzero"
       id="path149" />
    <path
       fill="#f3f3f3"
       d="m 604.35626,181.44493 q -0.4375,-1.40625 -0.875,-2.82813 -0.42187,-1.42187 -0.84375,-2.98437 -0.40625,-1.57813 -0.82812,-3.3125 -0.40625,-1.75 -0.8125,-3.79688 h 1.75 q 0.25,1.42188 0.54687,2.875 0.29688,1.45313 0.625,2.85938 0.34375,1.39062 0.6875,2.70312 0.34375,1.3125 0.6875,2.48438 0.32813,-1.17188 0.67188,-2.48438 0.34375,-1.3125 0.67187,-2.70312 0.34375,-1.40625 0.64063,-2.85938 0.29687,-1.45312 0.54687,-2.875 h 1.70313 q -0.42188,2.04688 -0.82813,3.79688 -0.40625,1.73437 -0.82812,3.3125 -0.42188,1.5625 -0.85938,2.98437 -0.42187,1.42188 -0.84375,2.82813 z m 7.67841,0 q 0.0469,-0.89063 0.20312,-1.92188 0.15625,-1.04687 0.39063,-2.10937 0.25,-1.0625 0.53125,-2.125 0.29687,-1.07813 0.625,-2.0625 0.34375,-0.98438 0.67187,-1.8125 0.34375,-0.84375 0.6875,-1.48438 h -4.40625 v -1.40625 h 6.20313 v 1.25 q -0.4375,0.71875 -0.98438,1.98438 -0.54687,1.25 -1.01562,2.82812 -0.46875,1.57813 -0.82813,3.35938 -0.35937,1.76562 -0.4375,3.5 z"
       fill-rule="nonzero"
       id="path151" />
    <path
       fill="#f3f3f3"
       d="m 647.4455,181.44493 q -0.4375,-1.40625 -0.875,-2.82813 -0.42187,-1.42187 -0.84375,-2.98437 -0.40625,-1.57813 -0.82812,-3.3125 -0.40625,-1.75 -0.8125,-3.79688 h 1.75 q 0.25,1.42188 0.54687,2.875 0.29688,1.45313 0.625,2.85938 0.34375,1.39062 0.6875,2.70312 0.34375,1.3125 0.6875,2.48438 0.32813,-1.17188 0.67188,-2.48438 0.34375,-1.3125 0.67187,-2.70312 0.34375,-1.40625 0.64063,-2.85938 0.29687,-1.45312 0.54687,-2.875 h 1.70313 q -0.42188,2.04688 -0.82813,3.79688 -0.40625,1.73437 -0.82812,3.3125 -0.42188,1.5625 -0.85938,2.98437 -0.42187,1.42188 -0.84375,2.82813 z m 12.49091,-10.07813 q 0,1.07813 -0.53125,1.96875 -0.53125,0.89063 -1.23438,1.54688 0.78125,0.57812 1.35938,1.39062 0.57812,0.8125 0.57812,1.92188 0,0.875 -0.28125,1.54687 -0.26562,0.65625 -0.70312,1.09375 -0.4375,0.4375 -1,0.65625 -0.54688,0.23438 -1.14063,0.23438 -0.70312,0 -1.28125,-0.25 -0.57812,-0.25 -0.98437,-0.6875 -0.40625,-0.4375 -0.64063,-1.04688 -0.21875,-0.625 -0.21875,-1.35937 0,-1.15625 0.51563,-2.0625 0.51562,-0.90625 1.375,-1.59375 -0.71875,-0.53125 -1.17188,-1.35938 -0.4375,-0.84375 -0.4375,-1.95312 0,-0.84375 0.25,-1.45313 0.26563,-0.60937 0.6875,-1 0.42188,-0.39062 0.9375,-0.5625 0.53125,-0.1875 1.07813,-0.1875 0.51562,0 1.03125,0.1875 0.51562,0.17188 0.92187,0.5625 0.40625,0.375 0.64063,0.98438 0.25,0.59375 0.25,1.42187 z m -1.39063,6.9375 q 0,-0.48437 -0.15625,-0.89062 -0.15625,-0.42188 -0.42187,-0.78125 -0.26563,-0.375 -0.59375,-0.67188 -0.32813,-0.29687 -0.67188,-0.5625 -0.54687,0.5 -0.90625,1.17188 -0.34375,0.67187 -0.34375,1.6875 0,1 0.40625,1.60937 0.42188,0.60938 1.15625,0.60938 0.60938,0 1.0625,-0.54688 0.46875,-0.5625 0.46875,-1.625 z m -2.84375,-7.10937 q 0,0.60937 0.0937,1.0625 0.0937,0.45312 0.28125,0.79687 0.1875,0.34375 0.45313,0.625 0.28125,0.28125 0.625,0.53125 0.53125,-0.54687 0.85937,-1.15625 0.32813,-0.60937 0.32813,-1.57812 0,-1.125 -0.375,-1.5625 -0.375,-0.45313 -0.92188,-0.45313 -0.20312,0 -0.45312,0.0781 -0.23438,0.0781 -0.4375,0.28125 -0.1875,0.1875 -0.32813,0.53125 -0.125,0.32812 -0.125,0.84375 z"
       fill-rule="nonzero"
       id="path153" />
    <path
       fill="#f3f3f3"
       d="m 690.5347,181.44493 q -0.4375,-1.40625 -0.875,-2.82813 -0.42187,-1.42187 -0.84375,-2.98437 -0.40625,-1.57813 -0.82812,-3.3125 -0.40625,-1.75 -0.8125,-3.79688 h 1.75 q 0.25,1.42188 0.54687,2.875 0.29688,1.45313 0.625,2.85938 0.34375,1.39062 0.6875,2.70312 0.34375,1.3125 0.6875,2.48438 0.32813,-1.17188 0.67188,-2.48438 0.34375,-1.3125 0.67187,-2.70312 0.34375,-1.40625 0.64063,-2.85938 0.29687,-1.45312 0.54687,-2.875 h 1.70313 q -0.42188,2.04688 -0.82813,3.79688 -0.40625,1.73437 -0.82812,3.3125 -0.42188,1.5625 -0.85938,2.98437 -0.42187,1.42188 -0.84375,2.82813 z m 7.16278,-1.32813 q 0.70313,-0.0781 1.3125,-0.28125 0.60938,-0.21875 1.07813,-0.65625 0.46875,-0.45312 0.78125,-1.1875 0.32812,-0.75 0.48437,-1.85937 -0.73437,0.29687 -1.35937,0.29687 -1.34375,0 -2.10938,-1.04687 -0.75,-1.0625 -0.75,-2.90625 0,-1.98438 0.70313,-3.125 0.70312,-1.14063 2.20312,-1.14063 0.76563,0 1.34375,0.3125 0.57813,0.29688 0.95313,0.98438 0.39062,0.67187 0.57812,1.78125 0.20313,1.10937 0.20313,2.71875 0,1.40625 -0.26563,2.73437 -0.26562,1.32813 -0.89062,2.35938 -0.60938,1.03125 -1.625,1.6875 -1,0.64062 -2.46875,0.6875 z m 2.6875,-5 q 0.5625,0 1.09375,-0.32812 0,-0.23438 0,-0.45313 0.0156,-0.23437 0.0156,-0.5 0,-0.85937 -0.0312,-1.625 -0.0312,-0.78125 -0.1875,-1.35937 -0.14063,-0.59375 -0.4375,-0.9375 -0.28125,-0.35938 -0.76563,-0.35938 -0.73437,0 -1.03125,0.78125 -0.28125,0.78125 -0.28125,2.0625 0,1.39063 0.39063,2.0625 0.40625,0.65625 1.23437,0.65625 z"
       fill-rule="nonzero"
       id="path155" />
    <path
       shape-rendering="crispEdges"
       fill="#6fa8dc"
       d="m 307.6404,266.13647 h 86.18112 v 41.59579 H 307.6404 Z"
       fill-rule="nonzero"
       id="path157" />
    <path
       shape-rendering="crispEdges"
       fill="#6fa8dc"
       d="m 393.82153,266.13647 h 43.08923 v 41.59579 h -43.08923 z"
       fill-rule="nonzero"
       id="path159" />
    <path
       shape-rendering="crispEdges"
       fill="#6fa8dc"
       d="M 436.91077,266.13647 H 480 v 41.59579 h -43.08923 z"
       fill-rule="nonzero"
       id="path161" />
    <path
       shape-rendering="crispEdges"
       fill="#6fa8dc"
       d="m 480,266.13647 h 43.08923 v 41.59579 H 480 Z"
       fill-rule="nonzero"
       id="path163" />
    <path
       shape-rendering="crispEdges"
       fill="#6fa8dc"
       d="m 523.08923,266.13647 h 43.08923 v 41.59579 h -43.08923 z"
       fill-rule="nonzero"
       id="path165" />
    <path
       shape-rendering="crispEdges"
       fill="#6fa8dc"
       d="m 566.17847,266.13647 h 43.08923 v 41.59579 h -43.08923 z"
       fill-rule="nonzero"
       id="path167" />
    <path
       shape-rendering="crispEdges"
       fill="#6fa8dc"
       d="m 609.2677,266.13647 h 43.08923 v 41.59579 H 609.2677 Z"
       fill-rule="nonzero"
       id="path169" />
    <path
       shape-rendering="crispEdges"
       fill="#e06666"
       d="m 307.6404,307.73227 h 86.18112 V 349.3281 H 307.6404 Z"
       fill-rule="nonzero"
       id="path171" />
    <path
       shape-rendering="crispEdges"
       fill="#e06666"
       d="m 393.82153,307.73227 h 43.08923 v 41.59583 h -43.08923 z"
       fill-rule="nonzero"
       id="path173" />
    <path
       shape-rendering="crispEdges"
       fill="#e06666"
       d="M 436.91077,307.73227 H 480 v 41.59583 h -43.08923 z"
       fill-rule="nonzero"
       id="path175" />
    <path
       shape-rendering="crispEdges"
       fill="#e06666"
       d="m 480,307.73227 h 43.08923 V 349.3281 H 480 Z"
       fill-rule="nonzero"
       id="path177" />
    <path
       shape-rendering="crispEdges"
       fill="#e06666"
       d="m 523.08923,307.73227 h 43.08923 v 41.59583 h -43.08923 z"
       fill-rule="nonzero"
       id="path179" />
    <path
       shape-rendering="crispEdges"
       fill="#e06666"
       d="M 566.17847,307.73227 H 609.2677 V 349.3281 H 566.17847 Z"
       fill-rule="nonzero"
       id="path181" />
    <path
       shape-rendering="crispEdges"
       fill="#e06666"
       d="m 609.2677,307.73227 h 43.08923 V 349.3281 H 609.2677 Z"
       fill-rule="nonzero"
       id="path183" />
    <path
       shape-rendering="crispEdges"
       fill="#f1c232"
       d="m 307.6404,349.3281 h 86.18112 v 41.5958 H 307.6404 Z"
       fill-rule="nonzero"
       id="path185" />
    <path
       shape-rendering="crispEdges"
       fill="#f1c232"
       d="m 393.82153,349.3281 h 43.08923 v 41.5958 h -43.08923 z"
       fill-rule="nonzero"
       id="path187" />
    <path
       shape-rendering="crispEdges"
       fill="#f1c232"
       d="M 436.91077,349.3281 H 480 v 41.5958 h -43.08923 z"
       fill-rule="nonzero"
       id="path189" />
    <path
       shape-rendering="crispEdges"
       fill="#f1c232"
       d="m 480,349.3281 h 43.08923 v 41.5958 H 480 Z"
       fill-rule="nonzero"
       id="path191" />
    <path
       shape-rendering="crispEdges"
       fill="#f1c232"
       d="m 523.08923,349.3281 h 43.08923 v 41.5958 h -43.08923 z"
       fill-rule="nonzero"
       id="path193" />
    <path
       shape-rendering="crispEdges"
       fill="#f1c232"
       d="m 566.17847,349.3281 h 43.08923 v 41.5958 h -43.08923 z"
       fill-rule="nonzero"
       id="path195" />
    <path
       shape-rendering="crispEdges"
       fill="#f1c232"
       d="m 609.2677,349.3281 h 43.08923 v 41.5958 H 609.2677 Z"
       fill-rule="nonzero"
       id="path197" />
    <path
       stroke="#d9d9d9"
       stroke-width="1"
       stroke-linecap="butt"
       d="M 307.6404,265.6378 V 391.42259"
       fill-rule="nonzero"
       id="path199" />
    <path
       stroke="#d9d9d9"
       stroke-width="1"
       stroke-linecap="butt"
       d="M 393.82153,265.6378 V 391.42259"
       fill-rule="nonzero"
       id="path201" />
    <path
       stroke="#d9d9d9"
       stroke-width="1"
       stroke-linecap="butt"
       d="M 436.91077,265.6378 V 391.42259"
       fill-rule="nonzero"
       id="path203" />
    <path
       stroke="#d9d9d9"
       stroke-width="1"
       stroke-linecap="butt"
       d="M 480,265.6378 V 391.42259"
       fill-rule="nonzero"
       id="path205" />
    <path
       stroke="#d9d9d9"
       stroke-width="1"
       stroke-linecap="butt"
       d="M 523.08923,265.6378 V 391.42259"
       fill-rule="nonzero"
       id="path207" />
    <path
       stroke="#d9d9d9"
       stroke-width="1"
       stroke-linecap="butt"
       d="M 566.17847,265.6378 V 391.42259"
       fill-rule="nonzero"
       id="path209" />
    <path
       stroke="#d9d9d9"
       stroke-width="1"
       stroke-linecap="butt"
       d="M 609.2677,265.6378 V 391.42259"
       fill-rule="nonzero"
       id="path211" />
    <path
       stroke="#d9d9d9"
       stroke-width="1"
       stroke-linecap="butt"
       d="M 652.35693,265.6378 V 391.42259"
       fill-rule="nonzero"
       id="path213" />
    <path
       stroke="#d9d9d9"
       stroke-width="1"
       stroke-linecap="butt"
       d="M 307.14172,266.13647 H 652.85565"
       fill-rule="nonzero"
       id="path215" />
    <path
       stroke="#d9d9d9"
       stroke-width="1"
       stroke-linecap="butt"
       d="M 307.14172,307.73227 H 652.85565"
       fill-rule="nonzero"
       id="path217" />
    <path
       stroke="#d9d9d9"
       stroke-width="1"
       stroke-linecap="butt"
       d="M 307.14172,349.3281 H 652.85565"
       fill-rule="nonzero"
       id="path219" />
    <path
       stroke="#d9d9d9"
       stroke-width="1"
       stroke-linecap="butt"
       d="M 307.14172,390.9239 H 652.85565"
       fill-rule="nonzero"
       id="path221" />
    <path
       fill="#f3f3f3"
       d="m 326.8904,286.60336 q 0,1.51562 -0.28125,2.75 -0.26563,1.23437 -0.84375,2.125 -0.5625,0.89062 -1.4375,1.375 -0.85938,0.48437 -2.03125,0.48437 -1.17188,0 -2.04688,-0.48437 -0.85937,-0.48438 -1.4375,-1.375 -0.5625,-0.89063 -0.84375,-2.125 -0.28125,-1.23438 -0.28125,-2.75 0,-1.51563 0.28125,-2.76563 0.28125,-1.25 0.84375,-2.125 0.57813,-0.89062 1.4375,-1.39062 0.875,-0.5 2.04688,-0.5 1.17187,0 2.03125,0.5 0.875,0.5 1.4375,1.39062 0.57812,0.875 0.84375,2.125 0.28125,1.25 0.28125,2.76563 z m -1.79688,0 q 0,-1.17188 -0.15625,-2.14063 -0.14062,-0.98437 -0.48437,-1.67187 -0.32813,-0.70313 -0.85938,-1.09375 -0.53125,-0.39063 -1.29687,-0.39063 -0.76563,0 -1.29688,0.39063 -0.53125,0.39062 -0.875,1.09375 -0.32812,0.6875 -0.5,1.67187 -0.15625,0.96875 -0.15625,2.14063 0,1.17187 0.15625,2.14062 0.17188,0.96875 0.5,1.67188 0.34375,0.6875 0.875,1.07812 0.53125,0.375 1.29688,0.375 0.76562,0 1.29687,-0.375 0.53125,-0.39062 0.85938,-1.07812 0.34375,-0.70313 0.48437,-1.67188 0.15625,-0.96875 0.15625,-2.14062 z m 7.14643,-8.03125 q 0.53125,0 0.9375,0.125 0.42187,0.10937 0.6875,0.23437 l -0.34375,1.26563 q -0.26563,-0.125 -0.54688,-0.1875 -0.26562,-0.0625 -0.59375,-0.0625 -0.42187,0 -0.70312,0.15625 -0.28125,0.14062 -0.4375,0.40625 -0.14063,0.25 -0.20313,0.625 -0.0469,0.35937 -0.0469,0.76562 v 1.35938 h 2.51562 v 1.39062 h -2.51562 v 8.40625 h -1.60938 v -11.15625 q 0,-1.59375 0.70313,-2.45312 0.71875,-0.875 2.15625,-0.875 z m 5.70312,0 q 0.53125,0 0.9375,0.125 0.42188,0.10937 0.6875,0.23437 l -0.34375,1.26563 q -0.26562,-0.125 -0.54687,-0.1875 -0.26563,-0.0625 -0.59375,-0.0625 -0.42188,0 -0.70313,0.15625 -0.28125,0.14062 -0.4375,0.40625 -0.14062,0.25 -0.20312,0.625 -0.0469,0.35937 -0.0469,0.76562 v 1.35938 h 2.51563 v 1.39062 h -2.51563 v 8.40625 h -1.60937 v -11.15625 q 0,-1.59375 0.70312,-2.45312 0.71875,-0.875 2.15625,-0.875 z m 4.21451,13.34375 q 0.71875,0 1.07813,-0.39063 0.35937,-0.40625 0.35937,-1.0625 0,-0.40625 -0.15625,-0.6875 -0.14062,-0.29687 -0.39062,-0.51562 -0.23438,-0.23438 -0.5625,-0.40625 -0.3125,-0.1875 -0.625,-0.39063 -0.3125,-0.1875 -0.60938,-0.4375 -0.29687,-0.25 -0.53125,-0.57812 -0.23437,-0.32813 -0.375,-0.73438 -0.14062,-0.42187 -0.14062,-0.98437 0,-1.21875 0.75,-1.95313 0.76562,-0.75 2.04687,-0.75 0.54688,0 1.03125,0.14063 0.48438,0.14062 0.79688,0.29687 l -0.35938,1.29688 q -0.32812,-0.1875 -0.67187,-0.28125 -0.32813,-0.0937 -0.71875,-0.0937 -0.59375,0 -0.95313,0.34375 -0.35937,0.34375 -0.35937,1 0,0.375 0.125,0.64062 0.14062,0.26563 0.34375,0.48438 0.21875,0.21875 0.48437,0.40625 0.28125,0.1875 0.57813,0.34375 0.35937,0.20312 0.70312,0.45312 0.34375,0.25 0.60938,0.57813 0.28125,0.3125 0.4375,0.75 0.17187,0.4375 0.17187,1.0625 0,1.28125 -0.76562,2.07812 -0.75,0.78125 -2.20313,0.78125 -0.73437,0 -1.34375,-0.21875 -0.59375,-0.20312 -0.89062,-0.35937 l 0.32812,-1.32813 q 0.28125,0.14063 0.75,0.32813 0.48438,0.1875 1.0625,0.1875 z m 6.11179,-3.28125 q 0.0156,0.70312 0.125,1.29687 0.10937,0.59375 0.35937,1.03125 0.25,0.4375 0.67188,0.6875 0.42187,0.23438 1.07812,0.23438 0.53125,0 0.98438,-0.15625 0.46875,-0.17188 0.67187,-0.28125 l 0.29688,1.29687 q -0.23438,0.15625 -0.8125,0.35938 -0.5625,0.20312 -1.34375,0.20312 -1.03125,0 -1.73438,-0.375 -0.6875,-0.375 -1.14062,-1.04687 -0.4375,-0.67188 -0.625,-1.60938 -0.17188,-0.9375 -0.17188,-2.04687 0,-2.70313 0.89063,-3.95313 0.89062,-1.25 2.35937,-1.25 1.67188,0 2.35938,1.25 0.6875,1.25 0.6875,3.5 0,0.20313 0,0.42188 0,0.21875 -0.0156,0.4375 z m 1.60937,-4.25 q -0.79687,0 -1.15625,0.79687 -0.35937,0.79688 -0.4375,2.14063 h 2.96875 q 0,-1.35938 -0.28125,-2.14063 -0.28125,-0.79687 -1.09375,-0.79687 z m 6.91538,-1.125 h 2.45312 v 1.39062 h -2.45312 v 5.39063 q 0,1 0.35937,1.40625 0.35938,0.39062 0.98438,0.39062 0.3125,0 0.59375,-0.0937 0.29687,-0.0937 0.5,-0.21875 l 0.3125,1.28125 q -0.76563,0.45313 -1.625,0.45313 -1.375,0 -2.0625,-0.76563 -0.67188,-0.78125 -0.67188,-2.57812 v -9.28125 l 1.60938,-0.28125 z"
       fill-rule="nonzero"
       id="path223" />
    <path
       fill="#f3f3f3"
       d="m 412.18317,280.9315 q 1.09375,-1.10937 2.67188,-1.10937 1.51562,0 2.3125,0.79687 0.8125,0.79688 0.8125,2.46875 0,0.79688 -0.26563,1.5 -0.26562,0.70313 -0.65625,1.375 -0.39062,0.65625 -0.85937,1.3125 -0.45313,0.65625 -0.89063,1.34375 -0.42187,0.67188 -0.75,1.40625 -0.3125,0.73438 -0.39062,1.57813 h 4.07812 v 1.45312 h -5.79687 v -0.35937 q 0,-1.25 0.28125,-2.21875 0.29687,-0.96875 0.71875,-1.75 0.42187,-0.78125 0.92187,-1.45313 0.51563,-0.67187 0.92188,-1.3125 0.42187,-0.65625 0.70312,-1.32812 0.29688,-0.6875 0.29688,-1.5 0,-0.98438 -0.39063,-1.42188 -0.39062,-0.45312 -1.17187,-0.45312 -0.54688,0 -0.98438,0.21875 -0.4375,0.21875 -0.78125,0.54687 z"
       fill-rule="nonzero"
       id="path225" />
    <path
       fill="#f3f3f3"
       d="m 459.24115,286.10336 q 0.9375,0.32812 1.4375,1.1875 0.51562,0.84375 0.51562,2.1875 0,1.78125 -0.875,2.82812 -0.85937,1.03125 -2.60937,1.03125 -0.6875,0 -1.34375,-0.20312 -0.65625,-0.20313 -1.14063,-0.54688 l 0.4375,-1.29687 q 0.42188,0.25 0.89063,0.4375 0.48437,0.1875 1,0.1875 0.95312,0 1.48437,-0.57813 0.53125,-0.59375 0.53125,-1.875 0,-1.29687 -0.59375,-1.9375 -0.57812,-0.65625 -1.85937,-0.65625 h -0.48438 v -1.375 h 0.40625 q 1.125,0 1.65625,-0.59375 0.54688,-0.59375 0.54688,-1.65625 0,-1.01562 -0.4375,-1.5 -0.42188,-0.5 -1.125,-0.5 -0.48438,0 -0.9375,0.1875 -0.4375,0.1875 -0.75,0.46875 l -0.625,-1.17187 q 0.48437,-0.45313 1.14062,-0.67188 0.65625,-0.23437 1.3125,-0.23437 1.45313,0 2.23438,0.92187 0.79687,0.90625 0.79687,2.42188 0,1.0625 -0.42187,1.8125 -0.42188,0.73437 -1.1875,1.125 z"
       fill-rule="nonzero"
       id="path227" />
    <path
       fill="#f3f3f3"
       d="m 498.3148,288.72836 q 0.34375,-1.15625 0.85937,-2.4375 0.53125,-1.29688 1.07813,-2.48438 0.5625,-1.20312 1.07812,-2.17187 0.51563,-0.96875 0.82813,-1.5 h 1.64062 v 8.4375 h 1.26563 v 1.32812 h -1.26563 v 3.15625 h -1.46875 v -3.15625 h -4.01562 z m 4.01562,-0.15625 v -6.29688 q -0.28125,0.57813 -0.65625,1.32813 -0.35937,0.73437 -0.71875,1.57812 -0.35937,0.84375 -0.70312,1.71875 -0.32813,0.85938 -0.57813,1.67188 z"
       fill-rule="nonzero"
       id="path229" />
    <path
       fill="#f3f3f3"
       d="m 544.18524,281.52524 q -0.0937,1.34375 -0.14062,2.25 -0.0312,0.89062 -0.0625,1.40625 1.75,0.25 2.5625,1.28125 0.82812,1.01562 0.82812,2.76562 0,1 -0.28125,1.76563 -0.28125,0.75 -0.78125,1.28125 -0.48437,0.51562 -1.15625,0.78125 -0.67187,0.28125 -1.45312,0.28125 -0.54688,0 -1.10938,-0.15625 -0.54687,-0.14063 -1.03125,-0.42188 l 0.4375,-1.32812 q 0.8125,0.45312 1.64063,0.45312 0.90625,0 1.51562,-0.65625 0.625,-0.65625 0.625,-2 0,-1.46875 -0.84375,-2.10937 -0.82812,-0.64063 -2.51562,-0.71875 0.0937,-0.9375 0.14062,-1.70313 0.0625,-0.78125 0.0937,-1.51562 0.0469,-0.73438 0.0625,-1.46875 0.0312,-0.75 0.0469,-1.57813 h 4.375 v 1.39063 z"
       fill-rule="nonzero"
       id="path231" />
    <path
       fill="#f3f3f3"
       d="m 585.8526,293.0565 q 0.0469,-0.89062 0.20313,-1.92187 0.15625,-1.04688 0.39062,-2.10938 0.25,-1.0625 0.53125,-2.125 0.29688,-1.07812 0.625,-2.0625 0.34375,-0.98437 0.67188,-1.8125 0.34375,-0.84375 0.6875,-1.48437 h -4.40625 v -1.40625 h 6.20312 v 1.25 q -0.4375,0.71875 -0.98437,1.98437 -0.54688,1.25 -1.01563,2.82813 -0.46875,1.57812 -0.82812,3.35937 -0.35938,1.76563 -0.4375,3.5 z"
       fill-rule="nonzero"
       id="path233" />
    <path
       fill="#f3f3f3"
       d="m 633.7544,282.97836 q 0,1.07812 -0.53125,1.96875 -0.53125,0.89062 -1.23437,1.54687 0.78125,0.57813 1.35937,1.39063 0.57813,0.8125 0.57813,1.92187 0,0.875 -0.28125,1.54688 -0.26563,0.65625 -0.70313,1.09375 -0.4375,0.4375 -1,0.65625 -0.54687,0.23437 -1.14062,0.23437 -0.70313,0 -1.28125,-0.25 -0.57813,-0.25 -0.98438,-0.6875 -0.40625,-0.4375 -0.64062,-1.04687 -0.21875,-0.625 -0.21875,-1.35938 0,-1.15625 0.51562,-2.0625 0.51563,-0.90625 1.375,-1.59375 -0.71875,-0.53125 -1.17187,-1.35937 -0.4375,-0.84375 -0.4375,-1.95313 0,-0.84375 0.25,-1.45312 0.26562,-0.60938 0.6875,-1 0.42187,-0.39063 0.9375,-0.5625 0.53125,-0.1875 1.07812,-0.1875 0.51563,0 1.03125,0.1875 0.51563,0.17187 0.92188,0.5625 0.40625,0.375 0.64062,0.98437 0.25,0.59375 0.25,1.42188 z m -1.39062,6.9375 q 0,-0.48438 -0.15625,-0.89063 -0.15625,-0.42187 -0.42188,-0.78125 -0.26562,-0.375 -0.59375,-0.67187 -0.32812,-0.29688 -0.67187,-0.5625 -0.54688,0.5 -0.90625,1.17187 -0.34375,0.67188 -0.34375,1.6875 0,1 0.40625,1.60938 0.42187,0.60937 1.15625,0.60937 0.60937,0 1.0625,-0.54687 0.46875,-0.5625 0.46875,-1.625 z m -2.84375,-7.10938 q 0,0.60938 0.0937,1.0625 0.0937,0.45313 0.28125,0.79688 0.1875,0.34375 0.45312,0.625 0.28125,0.28125 0.625,0.53125 0.53125,-0.54688 0.85938,-1.15625 0.32812,-0.60938 0.32812,-1.57813 0,-1.125 -0.375,-1.5625 -0.375,-0.45312 -0.92187,-0.45312 -0.20313,0 -0.45313,0.0781 -0.23437,0.0781 -0.4375,0.28125 -0.1875,0.1875 -0.32812,0.53125 -0.125,0.32813 -0.125,0.84375 z"
       fill-rule="nonzero"
       id="path235" />
    <path
       fill="#f3f3f3"
       d="m 325.59354,321.7304 q -0.40625,0.625 -0.92187,1.39062 -0.51563,0.76563 -1.0625,1.57813 -0.53125,0.8125 -1.09375,1.59375 -0.54688,0.78125 -1.04688,1.45312 0.5625,0.5625 1.21875,1.42188 0.65625,0.84375 1.28125,1.78125 0.64063,0.9375 1.1875,1.90625 0.5625,0.96875 0.90625,1.79687 h -1.89062 q -0.39063,-0.85937 -0.90625,-1.75 -0.5,-0.90625 -1.07813,-1.73437 -0.5625,-0.82813 -1.15625,-1.53125 -0.57812,-0.71875 -1.14062,-1.20313 v 6.21875 h -1.6875 V 321.7304 h 1.6875 v 5.70312 q 0.48437,-0.60937 1.01562,-1.39062 0.54688,-0.79688 1.07813,-1.57813 0.53125,-0.78125 1,-1.5 0.46875,-0.71875 0.78125,-1.23437 z m 2.7507,8.5 q 0.0156,0.70312 0.125,1.29687 0.10938,0.59375 0.35938,1.03125 0.25,0.4375 0.67187,0.6875 0.42188,0.23438 1.07813,0.23438 0.53125,0 0.98437,-0.15625 0.46875,-0.17188 0.67188,-0.28125 l 0.29687,1.29687 q -0.23437,0.15625 -0.8125,0.35938 -0.5625,0.20312 -1.34375,0.20312 -1.03125,0 -1.73437,-0.375 -0.6875,-0.375 -1.14063,-1.04687 -0.4375,-0.67188 -0.625,-1.60938 -0.17187,-0.9375 -0.17187,-2.04687 0,-2.70313 0.89062,-3.95313 0.89063,-1.25 2.35938,-1.25 1.67187,0 2.35937,1.25 0.6875,1.25 0.6875,3.5 0,0.20313 0,0.42188 0,0.21875 -0.0156,0.4375 z m 1.60938,-4.25 q -0.79688,0 -1.15625,0.79687 -0.35938,0.79688 -0.4375,2.14063 h 2.96875 q 0,-1.35938 -0.28125,-2.14063 -0.28125,-0.79687 -1.09375,-0.79687 z m 7.58764,6.64062 q 0.53125,-1.875 0.98438,-3.75 0.45312,-1.89062 0.85937,-4.01562 h 1.57813 q -0.28125,1.35937 -0.60938,2.6875 -0.3125,1.32812 -0.67187,2.5625 -0.34375,1.21875 -0.6875,2.3125 -0.34375,1.09375 -0.64063,1.98437 -0.35937,1.04688 -0.6875,1.76563 -0.3125,0.71875 -0.70312,1.15625 -0.375,0.4375 -0.82813,0.625 -0.45312,0.20312 -1.0625,0.20312 -0.32812,0 -0.67187,-0.0781 -0.32813,-0.0781 -0.5625,-0.17188 l 0.29687,-1.3125 q 0.48438,0.20313 0.92188,0.20313 0.53125,0 0.85937,-0.39063 0.34375,-0.39062 0.67188,-1.17187 l 0.1875,-0.46875 q -0.35938,-0.96875 -0.73438,-2.15625 -0.35937,-1.1875 -0.70312,-2.46875 -0.34375,-1.28125 -0.65625,-2.625 -0.3125,-1.35938 -0.57813,-2.65625 h 1.70313 q 0.14062,0.875 0.34375,1.92187 0.20312,1.04688 0.4375,2.09375 0.23437,1.04688 0.46875,2.03125 0.25,0.96875 0.48437,1.71875 z"
       fill-rule="nonzero"
       id="path237" />
    <path
       fill="#f3f3f3"
       d="m 415.50418,321.7304 q -0.40625,0.625 -0.92187,1.39062 -0.51563,0.76563 -1.0625,1.57813 -0.53125,0.8125 -1.09375,1.59375 -0.54688,0.78125 -1.04688,1.45312 0.5625,0.5625 1.21875,1.42188 0.65625,0.84375 1.28125,1.78125 0.64063,0.9375 1.1875,1.90625 0.5625,0.96875 0.90625,1.79687 h -1.89062 q -0.39063,-0.85937 -0.90625,-1.75 -0.5,-0.90625 -1.07813,-1.73437 -0.5625,-0.82813 -1.15625,-1.53125 -0.57812,-0.71875 -1.14062,-1.20313 v 6.21875 h -1.6875 V 321.7304 h 1.6875 v 5.70312 q 0.48437,-0.60937 1.01562,-1.39062 0.54688,-0.79688 1.07813,-1.57813 0.53125,-0.78125 1,-1.5 0.46875,-0.71875 0.78125,-1.23437 z m 1.96735,2.5625 q 0.34375,-0.20313 0.71875,-0.5 0.39062,-0.29688 0.75,-0.64063 0.35937,-0.34375 0.65625,-0.70312 0.3125,-0.375 0.51562,-0.71875 h 1.23438 v 12.92187 h -1.60938 v -10.39062 q -0.3125,0.32812 -0.73437,0.64062 -0.42188,0.29688 -0.89063,0.54688 z"
       fill-rule="nonzero"
       id="path239" />
    <path
       fill="#f3f3f3"
       d="m 458.5934,321.7304 q -0.40625,0.625 -0.92188,1.39062 -0.51562,0.76563 -1.0625,1.57813 -0.53125,0.8125 -1.09375,1.59375 -0.54687,0.78125 -1.04687,1.45312 0.5625,0.5625 1.21875,1.42188 0.65625,0.84375 1.28125,1.78125 0.64062,0.9375 1.1875,1.90625 0.5625,0.96875 0.90625,1.79687 h -1.89063 q -0.39062,-0.85937 -0.90625,-1.75 -0.5,-0.90625 -1.07812,-1.73437 -0.5625,-0.82813 -1.15625,-1.53125 -0.57813,-0.71875 -1.14063,-1.20313 v 6.21875 h -1.6875 V 321.7304 h 1.6875 v 5.70312 q 0.48438,-0.60937 1.01563,-1.39062 0.54687,-0.79688 1.07812,-1.57813 0.53125,-0.78125 1,-1.5 0.46875,-0.71875 0.78125,-1.23437 z m 5.45172,5.96875 q 0.9375,0.32812 1.4375,1.1875 0.51563,0.84375 0.51563,2.1875 0,1.78125 -0.875,2.82812 -0.85938,1.03125 -2.60938,1.03125 -0.6875,0 -1.34375,-0.20312 -0.65625,-0.20313 -1.14062,-0.54688 l 0.4375,-1.29687 q 0.42187,0.25 0.89062,0.4375 0.48438,0.1875 1,0.1875 0.95313,0 1.48438,-0.57813 0.53125,-0.59375 0.53125,-1.875 0,-1.29687 -0.59375,-1.9375 -0.57813,-0.65625 -1.85938,-0.65625 h -0.48437 v -1.375 h 0.40625 q 1.125,0 1.65625,-0.59375 0.54687,-0.59375 0.54687,-1.65625 0,-1.01562 -0.4375,-1.5 -0.42187,-0.5 -1.125,-0.5 -0.48437,0 -0.9375,0.1875 -0.4375,0.1875 -0.75,0.46875 l -0.625,-1.17187 q 0.48438,-0.45313 1.14063,-0.67188 0.65625,-0.23437 1.3125,-0.23437 1.45312,0 2.23437,0.92187 0.79688,0.90625 0.79688,2.42188 0,1.0625 -0.42188,1.8125 -0.42187,0.73437 -1.1875,1.125 z"
       fill-rule="nonzero"
       id="path241" />
    <path
       fill="#f3f3f3"
       d="m 501.68268,321.7304 q -0.40625,0.625 -0.92188,1.39062 -0.51562,0.76563 -1.0625,1.57813 -0.53125,0.8125 -1.09375,1.59375 -0.54687,0.78125 -1.04687,1.45312 0.5625,0.5625 1.21875,1.42188 0.65625,0.84375 1.28125,1.78125 0.64062,0.9375 1.1875,1.90625 0.5625,0.96875 0.90625,1.79687 h -1.89063 q -0.39062,-0.85937 -0.90625,-1.75 -0.5,-0.90625 -1.07812,-1.73437 -0.5625,-0.82813 -1.15625,-1.53125 -0.57813,-0.71875 -1.14063,-1.20313 v 6.21875 h -1.6875 V 321.7304 h 1.6875 v 5.70312 q 0.48438,-0.60937 1.01563,-1.39062 0.54687,-0.79688 1.07812,-1.57813 0.53125,-0.78125 1,-1.5 0.46875,-0.71875 0.78125,-1.23437 z m 1.48297,0.79687 q 1.09375,-1.10937 2.67188,-1.10937 1.51562,0 2.3125,0.79687 0.8125,0.79688 0.8125,2.46875 0,0.79688 -0.26563,1.5 -0.26562,0.70313 -0.65625,1.375 -0.39062,0.65625 -0.85937,1.3125 -0.45313,0.65625 -0.89063,1.34375 -0.42187,0.67188 -0.75,1.40625 -0.3125,0.73438 -0.39062,1.57813 h 4.07812 v 1.45312 h -5.79687 v -0.35937 q 0,-1.25 0.28125,-2.21875 0.29687,-0.96875 0.71875,-1.75 0.42187,-0.78125 0.92187,-1.45313 0.51563,-0.67187 0.92188,-1.3125 0.42187,-0.65625 0.70312,-1.32812 0.29688,-0.6875 0.29688,-1.5 0,-0.98438 -0.39063,-1.42188 -0.39062,-0.45312 -1.17187,-0.45312 -0.54688,0 -0.98438,0.21875 -0.4375,0.21875 -0.78125,0.54687 z"
       fill-rule="nonzero"
       id="path243" />
    <path
       fill="#f3f3f3"
       d="m 544.7719,321.7304 q -0.40625,0.625 -0.92188,1.39062 -0.51562,0.76563 -1.0625,1.57813 -0.53125,0.8125 -1.09375,1.59375 -0.54687,0.78125 -1.04687,1.45312 0.5625,0.5625 1.21875,1.42188 0.65625,0.84375 1.28125,1.78125 0.64062,0.9375 1.1875,1.90625 0.5625,0.96875 0.90625,1.79687 h -1.89063 q -0.39062,-0.85937 -0.90625,-1.75 -0.5,-0.90625 -1.07812,-1.73437 -0.5625,-0.82813 -1.15625,-1.53125 -0.57813,-0.71875 -1.14063,-1.20313 v 6.21875 h -1.6875 V 321.7304 h 1.6875 v 5.70312 q 0.48438,-0.60937 1.01563,-1.39062 0.54687,-0.79688 1.07812,-1.57813 0.53125,-0.78125 1,-1.5 0.46875,-0.71875 0.78125,-1.23437 z m 1.4361,8.59375 q 0.34375,-1.15625 0.85937,-2.4375 0.53125,-1.29688 1.07813,-2.48438 0.5625,-1.20312 1.07812,-2.17187 0.51563,-0.96875 0.82813,-1.5 h 1.64062 v 8.4375 h 1.26563 v 1.32812 h -1.26563 v 3.15625 h -1.46875 v -3.15625 H 546.208 Z m 4.01562,-0.15625 v -6.29688 q -0.28125,0.57813 -0.65625,1.32813 -0.35937,0.73437 -0.71875,1.57812 -0.35937,0.84375 -0.70312,1.71875 -0.32813,0.85938 -0.57813,1.67188 z"
       fill-rule="nonzero"
       id="path245" />
    <path
       fill="#f3f3f3"
       d="m 587.86115,321.7304 q -0.40625,0.625 -0.92188,1.39062 -0.51562,0.76563 -1.0625,1.57813 -0.53125,0.8125 -1.09375,1.59375 -0.54687,0.78125 -1.04687,1.45312 0.5625,0.5625 1.21875,1.42188 0.65625,0.84375 1.28125,1.78125 0.64062,0.9375 1.1875,1.90625 0.5625,0.96875 0.90625,1.79687 h -1.89063 q -0.39062,-0.85937 -0.90625,-1.75 -0.5,-0.90625 -1.07812,-1.73437 -0.5625,-0.82813 -1.15625,-1.53125 -0.57813,-0.71875 -1.14063,-1.20313 v 6.21875 h -1.6875 V 321.7304 h 1.6875 v 5.70312 q 0.48438,-0.60937 1.01563,-1.39062 0.54687,-0.79688 1.07812,-1.57813 0.53125,-0.78125 1,-1.5 0.46875,-0.71875 0.78125,-1.23437 z m 4.21735,1.39062 q -0.0937,1.34375 -0.14063,2.25 -0.0312,0.89063 -0.0625,1.40625 1.75,0.25 2.5625,1.28125 0.82813,1.01563 0.82813,2.76563 0,1 -0.28125,1.76562 -0.28125,0.75 -0.78125,1.28125 -0.48438,0.51563 -1.15625,0.78125 -0.67188,0.28125 -1.45313,0.28125 -0.54687,0 -1.10937,-0.15625 -0.54688,-0.14062 -1.03125,-0.42187 l 0.4375,-1.32813 q 0.8125,0.45313 1.64062,0.45313 0.90625,0 1.51563,-0.65625 0.625,-0.65625 0.625,-2 0,-1.46875 -0.84375,-2.10938 -0.82813,-0.64062 -2.51563,-0.71875 0.0937,-0.9375 0.14063,-1.70312 0.0625,-0.78125 0.0937,-1.51563 0.0469,-0.73437 0.0625,-1.46875 0.0312,-0.75 0.0469,-1.57812 h 4.375 v 1.39062 z"
       fill-rule="nonzero"
       id="path247" />
    <path
       fill="#f3f3f3"
       d="m 630.9504,321.7304 q -0.40625,0.625 -0.92188,1.39062 -0.51562,0.76563 -1.0625,1.57813 -0.53125,0.8125 -1.09375,1.59375 -0.54687,0.78125 -1.04687,1.45312 0.5625,0.5625 1.21875,1.42188 0.65625,0.84375 1.28125,1.78125 0.64062,0.9375 1.1875,1.90625 0.5625,0.96875 0.90625,1.79687 h -1.89063 q -0.39062,-0.85937 -0.90625,-1.75 -0.5,-0.90625 -1.07812,-1.73437 -0.5625,-0.82813 -1.15625,-1.53125 -0.57813,-0.71875 -1.14063,-1.20313 v 6.21875 h -1.6875 V 321.7304 h 1.6875 v 5.70312 q 0.48438,-0.60937 1.01563,-1.39062 0.54687,-0.79688 1.07812,-1.57813 0.53125,-0.78125 1,-1.5 0.46875,-0.71875 0.78125,-1.23437 z m 7.15485,1.26562 q -0.71875,0.0937 -1.3125,0.3125 -0.57813,0.20313 -1.04688,0.67188 -0.46875,0.45312 -0.78125,1.20312 -0.29687,0.73438 -0.45312,1.85938 0.39062,-0.17188 0.75,-0.23438 0.375,-0.0781 0.6875,-0.0781 1.34375,0 2.07812,1.04687 0.73438,1.04688 0.73438,2.90625 0,1.96875 -0.70313,3.10938 -0.6875,1.14062 -2.20312,1.14062 -0.76563,0 -1.34375,-0.29687 -0.57813,-0.29688 -0.96875,-0.96875 -0.375,-0.6875 -0.57813,-1.79688 -0.1875,-1.125 -0.1875,-2.71875 0,-1.40625 0.26563,-2.71875 0.28125,-1.32812 0.875,-2.35937 0.60937,-1.04688 1.59375,-1.6875 0.98437,-0.65625 2.42187,-0.71875 z m -2.54688,5.03125 q -0.29687,0 -0.59375,0.10938 -0.29687,0.0937 -0.5625,0.25 -0.0156,0.21875 -0.0156,0.45312 0,0.23438 0,0.48438 0,0.84375 0.0469,1.625 0.0469,0.78125 0.1875,1.375 0.15625,0.57812 0.4375,0.92187 0.29688,0.34375 0.78125,0.34375 0.73438,0 1.01563,-0.76562 0.29687,-0.78125 0.29687,-2.07813 0,-1.39062 -0.39062,-2.04687 -0.375,-0.67188 -1.20313,-0.67188 z"
       fill-rule="nonzero"
       id="path249" />
    <path
       fill="#f3f3f3"
       d="m 320.3748,376.24808 q -0.4375,-1.40625 -0.875,-2.82812 -0.42188,-1.42188 -0.84375,-2.98438 -0.40625,-1.57812 -0.82813,-3.3125 -0.40625,-1.75 -0.8125,-3.79687 h 1.75 q 0.25,1.42187 0.54688,2.875 0.29687,1.45312 0.625,2.85937 0.34375,1.39063 0.6875,2.70313 0.34375,1.3125 0.6875,2.48437 0.32812,-1.17187 0.67187,-2.48437 0.34375,-1.3125 0.67188,-2.70313 0.34375,-1.40625 0.64062,-2.85937 0.29688,-1.45313 0.54688,-2.875 h 1.70312 q -0.42187,2.04687 -0.82812,3.79687 -0.40625,1.73438 -0.82813,3.3125 -0.42187,1.5625 -0.85937,2.98438 -0.42188,1.42187 -0.84375,2.82812 z m 6.68051,-9.59375 q 0.48438,-0.20312 1.01563,-0.3125 0.54687,-0.125 1.1875,-0.125 1.29687,0 2.10937,0.8125 0.82813,0.8125 0.82813,2.51563 v 6.5 q -0.67188,0.1875 -1.375,0.29687 -0.6875,0.10938 -1.35938,0.10938 -0.67187,0 -1.26562,-0.17188 -0.57813,-0.15625 -1.03125,-0.53125 -0.4375,-0.375 -0.70313,-0.9375 -0.25,-0.57812 -0.25,-1.39062 0,-0.76563 0.23438,-1.32813 0.23437,-0.57812 0.64062,-0.95312 0.40625,-0.39063 0.96875,-0.57813 0.5625,-0.20312 1.21875,-0.20312 0.60938,0 1.35938,0.14062 v -0.89062 q 0,-1.07813 -0.42188,-1.5 -0.42187,-0.4375 -1.20312,-0.4375 -0.42188,0 -0.8125,0.0937 -0.375,0.0781 -0.8125,0.25 z m 0.76563,6.73438 q 0,0.85937 0.4375,1.28125 0.45312,0.40625 1.26562,0.40625 0.51563,0 1.10938,-0.14063 v -3.10937 q -0.5625,-0.15625 -1.10938,-0.15625 -0.34375,0 -0.67187,0.0937 -0.3125,0.0781 -0.54688,0.28125 -0.23437,0.1875 -0.35937,0.51562 -0.125,0.32813 -0.125,0.82813 z m 9.7218,3.04687 q -1.39063,-0.0312 -1.98438,-0.67187 -0.59375,-0.65625 -0.59375,-2.04688 v -11.67187 l 1.59375,-0.28125 v 11.98437 q 0,0.65625 0.26563,0.95313 0.26562,0.28125 0.92187,0.39062 z m 8.0491,-0.46875 q -0.23437,0.0937 -0.59375,0.1875 -0.34375,0.0781 -0.71875,0.14063 -0.375,0.0625 -0.76562,0.10937 -0.375,0.0469 -0.70313,0.0469 -0.76562,0 -1.40625,-0.1875 -0.625,-0.17188 -1.07812,-0.60938 -0.4375,-0.45312 -0.6875,-1.21875 -0.23438,-0.78125 -0.23438,-1.95312 v -6.03125 h 1.59375 v 5.96875 q 0,1.4375 0.4375,2.03125 0.45313,0.57812 1.34375,0.57812 0.29688,0 0.59375,-0.0156 0.29688,-0.0312 0.60938,-0.125 v -8.4375 h 1.60937 z m 4.00186,-4.14062 q 0.0156,0.70312 0.125,1.29687 0.10938,0.59375 0.35938,1.03125 0.25,0.4375 0.67187,0.6875 0.42188,0.23438 1.07813,0.23438 0.53125,0 0.98437,-0.15625 0.46875,-0.17188 0.67188,-0.28125 l 0.29687,1.29687 q -0.23437,0.15625 -0.8125,0.35938 -0.5625,0.20312 -1.34375,0.20312 -1.03125,0 -1.73437,-0.375 -0.6875,-0.375 -1.14063,-1.04687 -0.4375,-0.67188 -0.625,-1.60938 -0.17187,-0.9375 -0.17187,-2.04687 0,-2.70313 0.89062,-3.95313 0.89063,-1.25 2.35938,-1.25 1.67187,0 2.35937,1.25 0.6875,1.25 0.6875,3.5 0,0.20313 0,0.42188 0,0.21875 -0.0156,0.4375 z m 1.60938,-4.25 q -0.79688,0 -1.15625,0.79687 -0.35938,0.79688 -0.4375,2.14063 h 2.96875 q 0,-1.35938 -0.28125,-2.14063 -0.28125,-0.79687 -1.09375,-0.79687 z"
       fill-rule="nonzero"
       id="path251" />
    <path
       fill="#f3f3f3"
       d="m 410.45334,376.24808 q -0.4375,-1.40625 -0.875,-2.82812 -0.42187,-1.42188 -0.84375,-2.98438 -0.40625,-1.57812 -0.82812,-3.3125 -0.40625,-1.75 -0.8125,-3.79687 h 1.75 q 0.25,1.42187 0.54687,2.875 0.29688,1.45312 0.625,2.85937 0.34375,1.39063 0.6875,2.70313 0.34375,1.3125 0.6875,2.48437 0.32813,-1.17187 0.67188,-2.48437 0.34375,-1.3125 0.67187,-2.70313 0.34375,-1.40625 0.64063,-2.85937 0.29687,-1.45313 0.54687,-2.875 h 1.70313 q -0.42188,2.04687 -0.82813,3.79687 -0.40625,1.73438 -0.82812,3.3125 -0.42188,1.5625 -0.85938,2.98438 -0.42187,1.42187 -0.84375,2.82812 z m 10.33466,-6.95312 q 0.9375,0.32812 1.4375,1.1875 0.51562,0.84375 0.51562,2.1875 0,1.78125 -0.875,2.82812 -0.85937,1.03125 -2.60937,1.03125 -0.6875,0 -1.34375,-0.20312 -0.65625,-0.20313 -1.14063,-0.54688 l 0.4375,-1.29687 q 0.42188,0.25 0.89063,0.4375 0.48437,0.1875 1,0.1875 0.95312,0 1.48437,-0.57813 0.53125,-0.59375 0.53125,-1.875 0,-1.29687 -0.59375,-1.9375 -0.57812,-0.65625 -1.85937,-0.65625 h -0.48438 v -1.375 h 0.40625 q 1.125,0 1.65625,-0.59375 0.54688,-0.59375 0.54688,-1.65625 0,-1.01562 -0.4375,-1.5 -0.42188,-0.5 -1.125,-0.5 -0.48438,0 -0.9375,0.1875 -0.4375,0.1875 -0.75,0.46875 l -0.625,-1.17187 q 0.48437,-0.45313 1.14062,-0.67188 0.65625,-0.23437 1.3125,-0.23437 1.45313,0 2.23438,0.92187 0.79687,0.90625 0.79687,2.42188 0,1.0625 -0.42187,1.8125 -0.42188,0.73437 -1.1875,1.125 z"
       fill-rule="nonzero"
       id="path253" />
    <path
       fill="#f3f3f3"
       d="m 453.54257,376.24808 q -0.4375,-1.40625 -0.875,-2.82812 -0.42188,-1.42188 -0.84375,-2.98438 -0.40625,-1.57812 -0.82813,-3.3125 -0.40625,-1.75 -0.8125,-3.79687 h 1.75 q 0.25,1.42187 0.54688,2.875 0.29687,1.45312 0.625,2.85937 0.34375,1.39063 0.6875,2.70313 0.34375,1.3125 0.6875,2.48437 0.32812,-1.17187 0.67187,-2.48437 0.34375,-1.3125 0.67188,-2.70313 0.34375,-1.40625 0.64062,-2.85937 0.29688,-1.45313 0.54688,-2.875 h 1.70312 q -0.42187,2.04687 -0.82812,3.79687 -0.40625,1.73438 -0.82813,3.3125 -0.42187,1.5625 -0.85937,2.98438 -0.42188,1.42187 -0.84375,2.82812 z m 6.31903,-4.32812 q 0.34375,-1.15625 0.85938,-2.4375 0.53125,-1.29688 1.07812,-2.48438 0.5625,-1.20312 1.07813,-2.17187 0.51562,-0.96875 0.82812,-1.5 h 1.64063 v 8.4375 h 1.26562 v 1.32812 h -1.26562 v 3.15625 h -1.46875 v -3.15625 h -4.01563 z m 4.01563,-0.15625 v -6.29688 q -0.28125,0.57813 -0.65625,1.32813 -0.35938,0.73437 -0.71875,1.57812 -0.35938,0.84375 -0.70313,1.71875 -0.32812,0.85938 -0.57812,1.67188 z"
       fill-rule="nonzero"
       id="path255" />
    <path
       fill="#f3f3f3"
       d="m 496.63184,376.24808 q -0.4375,-1.40625 -0.875,-2.82812 -0.42188,-1.42188 -0.84375,-2.98438 -0.40625,-1.57812 -0.82813,-3.3125 -0.40625,-1.75 -0.8125,-3.79687 h 1.75 q 0.25,1.42187 0.54688,2.875 0.29687,1.45312 0.625,2.85937 0.34375,1.39063 0.6875,2.70313 0.34375,1.3125 0.6875,2.48437 0.32812,-1.17187 0.67187,-2.48437 0.34375,-1.3125 0.67188,-2.70313 0.34375,-1.40625 0.64062,-2.85937 0.29688,-1.45313 0.54688,-2.875 h 1.70312 q -0.42187,2.04687 -0.82812,3.79687 -0.40625,1.73438 -0.82813,3.3125 -0.42187,1.5625 -0.85937,2.98438 -0.42188,1.42187 -0.84375,2.82812 z m 9.10028,-11.53125 q -0.0937,1.34375 -0.14062,2.25 -0.0312,0.89063 -0.0625,1.40625 1.75,0.25 2.5625,1.28125 0.82812,1.01563 0.82812,2.76563 0,1 -0.28125,1.76562 -0.28125,0.75 -0.78125,1.28125 -0.48437,0.51563 -1.15625,0.78125 -0.67187,0.28125 -1.45312,0.28125 -0.54688,0 -1.10938,-0.15625 -0.54687,-0.14062 -1.03125,-0.42187 l 0.4375,-1.32813 q 0.8125,0.45313 1.64063,0.45313 0.90625,0 1.51562,-0.65625 0.625,-0.65625 0.625,-2 0,-1.46875 -0.84375,-2.10938 -0.82812,-0.64062 -2.51562,-0.71875 0.0937,-0.9375 0.14062,-1.70312 0.0625,-0.78125 0.0937,-1.51563 0.0469,-0.73437 0.0625,-1.46875 0.0312,-0.75 0.0469,-1.57812 h 4.375 v 1.39062 z"
       fill-rule="nonzero"
       id="path257" />
    <path
       fill="#f3f3f3"
       d="m 539.72107,376.24808 q -0.4375,-1.40625 -0.875,-2.82812 -0.42187,-1.42188 -0.84375,-2.98438 -0.40625,-1.57812 -0.82812,-3.3125 -0.40625,-1.75 -0.8125,-3.79687 h 1.75 q 0.25,1.42187 0.54687,2.875 0.29688,1.45312 0.625,2.85937 0.34375,1.39063 0.6875,2.70313 0.34375,1.3125 0.6875,2.48437 0.32813,-1.17187 0.67188,-2.48437 0.34375,-1.3125 0.67187,-2.70313 0.34375,-1.40625 0.64063,-2.85937 0.29687,-1.45313 0.54687,-2.875 h 1.70313 q -0.42188,2.04687 -0.82813,3.79687 -0.40625,1.73438 -0.82812,3.3125 -0.42188,1.5625 -0.85938,2.98438 -0.42187,1.42187 -0.84375,2.82812 z m 12.03778,-11.65625 q -0.71875,0.0937 -1.3125,0.3125 -0.57812,0.20313 -1.04687,0.67188 -0.46875,0.45312 -0.78125,1.20312 -0.29688,0.73438 -0.45313,1.85938 0.39063,-0.17188 0.75,-0.23438 0.375,-0.0781 0.6875,-0.0781 1.34375,0 2.07813,1.04687 0.73437,1.04688 0.73437,2.90625 0,1.96875 -0.70312,3.10938 -0.6875,1.14062 -2.20313,1.14062 -0.76562,0 -1.34375,-0.29687 -0.57812,-0.29688 -0.96875,-0.96875 -0.375,-0.6875 -0.57812,-1.79688 -0.1875,-1.125 -0.1875,-2.71875 0,-1.40625 0.26562,-2.71875 0.28125,-1.32812 0.875,-2.35937 0.60938,-1.04688 1.59375,-1.6875 0.98438,-0.65625 2.42188,-0.71875 z m -2.54687,5.03125 q -0.29688,0 -0.59375,0.10938 -0.29688,0.0937 -0.5625,0.25 -0.0156,0.21875 -0.0156,0.45312 0,0.23438 0,0.48438 0,0.84375 0.0469,1.625 0.0469,0.78125 0.1875,1.375 0.15625,0.57812 0.4375,0.92187 0.29687,0.34375 0.78125,0.34375 0.73437,0 1.01562,-0.76562 0.29688,-0.78125 0.29688,-2.07813 0,-1.39062 -0.39063,-2.04687 -0.375,-0.67188 -1.20312,-0.67188 z"
       fill-rule="nonzero"
       id="path259" />
    <path
       fill="#f3f3f3"
       d="m 582.8103,376.24808 q -0.4375,-1.40625 -0.875,-2.82812 -0.42188,-1.42188 -0.84375,-2.98438 -0.40625,-1.57812 -0.82813,-3.3125 -0.40625,-1.75 -0.8125,-3.79687 h 1.75 q 0.25,1.42187 0.54688,2.875 0.29687,1.45312 0.625,2.85937 0.34375,1.39063 0.6875,2.70313 0.34375,1.3125 0.6875,2.48437 0.32812,-1.17187 0.67187,-2.48437 0.34375,-1.3125 0.67188,-2.70313 0.34375,-1.40625 0.64062,-2.85937 0.29688,-1.45313 0.54688,-2.875 h 1.70312 q -0.42187,2.04687 -0.82812,3.79687 -0.40625,1.73438 -0.82813,3.3125 -0.42187,1.5625 -0.85937,2.98438 -0.42188,1.42187 -0.84375,2.82812 z m 12.49091,-10.07812 q 0,1.07812 -0.53125,1.96875 -0.53125,0.89062 -1.23438,1.54687 0.78125,0.57813 1.35938,1.39063 0.57812,0.8125 0.57812,1.92187 0,0.875 -0.28125,1.54688 -0.26562,0.65625 -0.70312,1.09375 -0.4375,0.4375 -1,0.65625 -0.54688,0.23437 -1.14063,0.23437 -0.70312,0 -1.28125,-0.25 -0.57812,-0.25 -0.98437,-0.6875 -0.40625,-0.4375 -0.64063,-1.04687 -0.21875,-0.625 -0.21875,-1.35938 0,-1.15625 0.51563,-2.0625 0.51562,-0.90625 1.375,-1.59375 -0.71875,-0.53125 -1.17188,-1.35937 -0.4375,-0.84375 -0.4375,-1.95313 0,-0.84375 0.25,-1.45312 0.26563,-0.60938 0.6875,-1 0.42188,-0.39063 0.9375,-0.5625 0.53125,-0.1875 1.07813,-0.1875 0.51562,0 1.03125,0.1875 0.51562,0.17187 0.92187,0.5625 0.40625,0.375 0.64063,0.98437 0.25,0.59375 0.25,1.42188 z m -1.39063,6.9375 q 0,-0.48438 -0.15625,-0.89063 -0.15625,-0.42187 -0.42187,-0.78125 -0.26563,-0.375 -0.59375,-0.67187 -0.32813,-0.29688 -0.67188,-0.5625 -0.54687,0.5 -0.90625,1.17187 -0.34375,0.67188 -0.34375,1.6875 0,1 0.40625,1.60938 0.42188,0.60937 1.15625,0.60937 0.60938,0 1.0625,-0.54687 0.46875,-0.5625 0.46875,-1.625 z m -2.84375,-7.10938 q 0,0.60938 0.0937,1.0625 0.0937,0.45313 0.28125,0.79688 0.1875,0.34375 0.45313,0.625 0.28125,0.28125 0.625,0.53125 0.53125,-0.54688 0.85937,-1.15625 0.32813,-0.60938 0.32813,-1.57813 0,-1.125 -0.375,-1.5625 -0.375,-0.45312 -0.92188,-0.45312 -0.20312,0 -0.45312,0.0781 -0.23438,0.0781 -0.4375,0.28125 -0.1875,0.1875 -0.32813,0.53125 -0.125,0.32813 -0.125,0.84375 z"
       fill-rule="nonzero"
       id="path261" />
    <path
       fill="#f3f3f3"
       d="m 625.89954,376.24808 q -0.4375,-1.40625 -0.875,-2.82812 -0.42188,-1.42188 -0.84375,-2.98438 -0.40625,-1.57812 -0.82813,-3.3125 -0.40625,-1.75 -0.8125,-3.79687 h 1.75 q 0.25,1.42187 0.54688,2.875 0.29687,1.45312 0.625,2.85937 0.34375,1.39063 0.6875,2.70313 0.34375,1.3125 0.6875,2.48437 0.32812,-1.17187 0.67187,-2.48437 0.34375,-1.3125 0.67188,-2.70313 0.34375,-1.40625 0.64062,-2.85937 0.29688,-1.45313 0.54688,-2.875 h 1.70312 q -0.42187,2.04687 -0.82812,3.79687 -0.40625,1.73438 -0.82813,3.3125 -0.42187,1.5625 -0.85937,2.98438 -0.42188,1.42187 -0.84375,2.82812 z m 7.16278,-1.32812 q 0.70313,-0.0781 1.3125,-0.28125 0.60938,-0.21875 1.07813,-0.65625 0.46875,-0.45313 0.78125,-1.1875 0.32812,-0.75 0.48437,-1.85938 -0.73437,0.29688 -1.35937,0.29688 -1.34375,0 -2.10938,-1.04688 -0.75,-1.0625 -0.75,-2.90625 0,-1.98437 0.70313,-3.125 0.70312,-1.14062 2.20312,-1.14062 0.76563,0 1.34375,0.3125 0.57813,0.29687 0.95313,0.98437 0.39062,0.67188 0.57812,1.78125 0.20313,1.10938 0.20313,2.71875 0,1.40625 -0.26563,2.73438 -0.26562,1.32812 -0.89062,2.35937 -0.60938,1.03125 -1.625,1.6875 -1,0.64063 -2.46875,0.6875 z m 2.6875,-5 q 0.5625,0 1.09375,-0.32813 0,-0.23437 0,-0.45312 0.0156,-0.23438 0.0156,-0.5 0,-0.85938 -0.0312,-1.625 -0.0312,-0.78125 -0.1875,-1.35938 -0.14063,-0.59375 -0.4375,-0.9375 -0.28125,-0.35937 -0.76563,-0.35937 -0.73437,0 -1.03125,0.78125 -0.28125,0.78125 -0.28125,2.0625 0,1.39062 0.39063,2.0625 0.40625,0.65625 1.23437,0.65625 z"
       fill-rule="nonzero"
       id="path263" />
    <path
       fill="#000000"
       fill-opacity="0"
       d="m 438.39896,197.60104 -22.39371,69.19687"
       fill-rule="evenodd"
       id="path265" />
    <path
       stroke="#f3f3f3"
       stroke-width="1"
       stroke-linejoin="round"
       stroke-linecap="butt"
       d="m 438.39896,197.60104 -20.5463,63.48834"
       fill-rule="evenodd"
       id="path267" />
    <path
       fill="#f3f3f3"
       stroke="#f3f3f3"
       stroke-width="1"
       stroke-linecap="butt"
       d="m 416.28116,260.5808 0.17422,4.8262 2.96875,-3.80905 z"
       fill-rule="evenodd"
       id="path269" />
    <path
       fill="#000000"
       fill-opacity="0"
       d="m 480,197.60104 -20.78742,68.78742"
       fill-rule="evenodd"
       id="path271" />
    <path
       stroke="#f3f3f3"
       stroke-width="1"
       stroke-linejoin="round"
       stroke-linecap="butt"
       d="m 480,197.60104 -19.05176,63.04391"
       fill-rule="evenodd"
       id="path273" />
    <path
       fill="#f3f3f3"
       stroke="#f3f3f3"
       stroke-width="1"
       stroke-linecap="butt"
       d="m 459.36716,260.16718 0.26834,4.82187 2.89389,-3.86624 z"
       fill-rule="evenodd"
       id="path275" />
    <path
       fill="#000000"
       fill-opacity="0"
       d="m 523.6063,197.60104 -22.01578,68.78742"
       fill-rule="evenodd"
       id="path277" />
    <path
       stroke="#f3f3f3"
       stroke-width="1"
       stroke-linejoin="round"
       stroke-linecap="butt"
       d="m 523.6063,197.60104 -20.18683,63.07297"
       fill-rule="evenodd"
       id="path279" />
    <path
       fill="#f3f3f3"
       stroke="#f3f3f3"
       stroke-width="1"
       stroke-linecap="butt"
       d="m 501.84637,260.1705 0.18979,4.82562 2.95645,-3.81863 z"
       fill-rule="evenodd"
       id="path281" />
    <path
       fill="#000000"
       fill-opacity="0"
       d="m 567.2126,196.73097 -22.42517,69.6693"
       fill-rule="evenodd"
       id="path283" />
    <path
       stroke="#f3f3f3"
       stroke-width="1"
       stroke-linejoin="round"
       stroke-linecap="butt"
       d="m 567.2126,196.73097 -20.58679,63.95787"
       fill-rule="evenodd"
       id="path285" />
    <path
       fill="#f3f3f3"
       stroke="#f3f3f3"
       stroke-width="1"
       stroke-linecap="butt"
       d="m 545.0535,260.18277 0.18182,4.8259 2.96271,-3.81372 z"
       fill-rule="evenodd"
       id="path287" />
    <path
       fill="#000000"
       fill-opacity="0"
       d="m 654.4252,196.73097 -67.21258,69.6693"
       fill-rule="evenodd"
       id="path289" />
    <path
       stroke="#f3f3f3"
       stroke-width="1"
       stroke-linejoin="round"
       stroke-linecap="butt"
       d="m 654.4252,196.73097 -63.04675,65.35118"
       fill-rule="evenodd"
       id="path291" />
    <path
       fill="#f3f3f3"
       stroke="#f3f3f3"
       stroke-width="1"
       stroke-linecap="butt"
       d="m 590.1897,260.93536 -1.9621,4.41278 4.33954,-2.11917 z"
       fill-rule="evenodd"
       id="path293" />
    <path
       fill="#000000"
       fill-opacity="0"
       d="m 696.8504,196.76509 -65.63782,70.04726"
       fill-rule="evenodd"
       id="path295" />
    <path
       stroke="#f3f3f3"
       stroke-width="1"
       stroke-linejoin="round"
       stroke-linecap="butt"
       d="m 696.8504,196.76509 -61.53522,65.66905"
       fill-rule="evenodd"
       id="path297" />
    <path
       fill="#f3f3f3"
       stroke="#f3f3f3"
       stroke-width="1"
       stroke-linecap="butt"
       d="m 634.1099,261.30472 -1.89771,4.44086 4.30823,-2.18204 z"
       fill-rule="evenodd"
       id="path299" />
  </g>
</svg>
