<?xml version="1.0" encoding="UTF-8" standalone="no"?>
<svg
   version="1.1"
   viewBox="0 0 411.59583 386.25986"
   fill="none"
   stroke="none"
   stroke-linecap="square"
   stroke-miterlimit="10"
   id="svg111"
   sodipodi:docname="consumer-groups_2.svg"
   width="411.59583"
   height="386.25986"
   inkscape:version="1.2.2 (b0a8486541, 2022-12-01)"
   xmlns:inkscape="http://www.inkscape.org/namespaces/inkscape"
   xmlns:sodipodi="http://sodipodi.sourceforge.net/DTD/sodipodi-0.dtd"
   xmlns="http://www.w3.org/2000/svg"
   xmlns:svg="http://www.w3.org/2000/svg">
  <defs
     id="defs115" />
  <sodipodi:namedview
     id="namedview113"
     pagecolor="#ffffff"
     bordercolor="#666666"
     borderopacity="1.0"
     inkscape:showpageshadow="2"
     inkscape:pageopacity="0.0"
     inkscape:pagecheckerboard="0"
     inkscape:deskcolor="#d1d1d1"
     showgrid="false"
     inkscape:zoom="1.3552083"
     inkscape:cx="319.50807"
     inkscape:cy="188.16295"
     inkscape:window-width="1920"
     inkscape:window-height="1011"
     inkscape:window-x="0"
     inkscape:window-y="32"
     inkscape:window-maximized="1"
     inkscape:current-layer="svg111" />
  <clipPath
     id="g201030f8531_0_181.0">
    <path
       d="M 0,0 H 960 V 540 H 0 Z"
       clip-rule="nonzero"
       id="path2" />
  </clipPath>
  <g
     clip-path="url(#g201030f8531_0_181.0)"
     id="g109"
     transform="translate(-142.69685,-82.232285)">
    <path
       fill="#000000"
       fill-opacity="0"
       d="M 423.99738,82.732285 H 553.79267 V 262.73226 H 423.99738 Z"
       fill-rule="evenodd"
       id="path7" />
    <path
       stroke="#efefef"
       stroke-width="1"
       stroke-linejoin="round"
       stroke-linecap="butt"
       d="M 423.99738,82.732285 H 553.79267 V 262.73226 H 423.99738 Z"
       fill-rule="evenodd"
       id="path9" />
    <path
       fill="#f3f3f3"
       d="m 439.7131,107.32666 q -1.95313,0 -3,-1.45312 -1.03125,-1.45313 -1.03125,-4.5 0,-1.54688 0.29687,-2.60938 0.29688,-1.078125 0.82813,-1.75 0.53125,-0.671875 1.25,-0.96875 0.71875,-0.296875 1.5625,-0.296875 0.70312,0 1.3125,0.1875 0.60937,0.1875 1,0.453125 l -0.4375,1.203125 q -0.39063,-0.265625 -0.82813,-0.421875 -0.4375,-0.15625 -1.01562,-0.15625 -1.28125,0 -1.85938,1.0625 -0.5625,1.0625 -0.5625,3.29688 0,2.26562 0.59375,3.48437 0.60938,1.20313 2,1.20313 0.64063,0 1.04688,-0.15625 0.42187,-0.15625 0.79687,-0.40625 l 0.40625,1.125 q -0.375,0.29687 -0.96875,0.5 -0.59375,0.20312 -1.39062,0.20312 z m 9.09439,-4.42187 q 0,0.98437 -0.1875,1.79687 -0.17187,0.8125 -0.53125,1.39063 -0.35937,0.5625 -0.90625,0.89062 -0.54687,0.3125 -1.29687,0.3125 -0.76563,0 -1.32813,-0.3125 -0.54687,-0.32812 -0.90625,-0.89062 -0.35937,-0.57813 -0.54687,-1.39063 -0.17188,-0.8125 -0.17188,-1.79687 0,-0.98438 0.17188,-1.79688 0.1875,-0.8125 0.54687,-1.390625 0.35938,-0.59375 0.90625,-0.90625 0.5625,-0.328125 1.32813,-0.328125 0.75,0 1.29687,0.328125 0.54688,0.3125 0.90625,0.90625 0.35938,0.578125 0.53125,1.390625 0.1875,0.8125 0.1875,1.79688 z m -1.4375,0 q 0,-0.70313 -0.0781,-1.28125 -0.0781,-0.59375 -0.26563,-1.01563 -0.17187,-0.42187 -0.46875,-0.65625 -0.28125,-0.234375 -0.67187,-0.234375 -0.42188,0 -0.70313,0.234375 -0.28125,0.23438 -0.46875,0.65625 -0.17187,0.42188 -0.26562,1.01563 -0.0781,0.57812 -0.0781,1.28125 0,0.70312 0.0781,1.29687 0.0937,0.57813 0.26562,1 0.1875,0.40625 0.46875,0.64063 0.28125,0.21875 0.70313,0.21875 0.39062,0 0.67187,-0.21875 0.29688,-0.23438 0.46875,-0.64063 0.1875,-0.42187 0.26563,-1 0.0781,-0.59375 0.0781,-1.29687 z m 3.4549,-3.968755 q 0.59375,-0.1875 1.28125,-0.296875 0.6875,-0.125 1.26562,-0.125 0.625,0 1.125,0.171875 0.51563,0.171875 0.875,0.578125 0.35938,0.390625 0.5625,1.07813 0.20313,0.67187 0.20313,1.67187 v 5.07813 h -1.375 v -4.95313 q 0,-1.25 -0.32813,-1.82812 -0.3125,-0.57813 -1.20312,-0.57813 -0.45313,0 -1.03125,0.15625 v 7.20313 h -1.375 z m 8.88391,7.187505 q 0.60937,0 0.90625,-0.34375 0.3125,-0.34375 0.3125,-0.90625 0,-0.35938 -0.125,-0.60938 -0.125,-0.25 -0.34375,-0.4375 -0.20313,-0.1875 -0.46875,-0.34375 -0.26563,-0.15625 -0.54688,-0.32812 -0.26562,-0.15625 -0.53125,-0.375 -0.25,-0.21875 -0.45312,-0.5 -0.20313,-0.28125 -0.32813,-0.64063 -0.10937,-0.35937 -0.10937,-0.82812 0,-1.04688 0.64062,-1.687505 0.65625,-0.640625 1.76563,-0.640625 0.45312,0 0.875,0.125 0.42187,0.109375 0.6875,0.265625 l -0.29688,1.09375 q -0.29687,-0.15625 -0.59375,-0.234375 -0.28125,-0.07813 -0.60937,-0.07813 -0.51563,0 -0.82813,0.296875 -0.29687,0.296885 -0.29687,0.859385 0,0.3125 0.10937,0.54687 0.10938,0.23438 0.29688,0.42188 0.1875,0.17187 0.42187,0.34375 0.23438,0.15625 0.48438,0.29687 0.3125,0.17188 0.59375,0.39063 0.29687,0.20312 0.53125,0.48437 0.23437,0.28125 0.375,0.65625 0.15625,0.375 0.15625,0.90625 0,1.09375 -0.65625,1.76563 -0.64063,0.67187 -1.89063,0.67187 -0.64062,0 -1.15625,-0.17187 -0.51562,-0.17188 -0.76562,-0.3125 l 0.28125,-1.14063 q 0.25,0.125 0.65625,0.29688 0.40625,0.15625 0.90625,0.15625 z m 9.48724,0.73437 q -0.21875,0.0781 -0.51562,0.15625 -0.29688,0.0625 -0.625,0.10938 -0.32813,0.0625 -0.65625,0.0937 -0.3125,0.0469 -0.59375,0.0469 -0.65625,0 -1.20313,-0.15625 -0.54687,-0.14062 -0.9375,-0.51562 -0.375,-0.39063 -0.57812,-1.04688 -0.20313,-0.67187 -0.20313,-1.6875 v -5.171875 h 1.375 v 5.125005 q 0,1.23437 0.375,1.73437 0.375,0.5 1.14063,0.5 0.25,0 0.5,-0.0156 0.26562,-0.0312 0.54687,-0.10938 v -7.234375 h 1.375 z m 2.4769,-7.921875 q 0.5625,-0.1875 1.21875,-0.296875 0.65625,-0.125 1.1875,-0.125 0.5625,0 1.01562,0.15625 0.46875,0.140625 0.8125,0.46875 0.42188,-0.265625 0.89063,-0.4375 0.48437,-0.1875 1.0625,-0.1875 0.57812,0 1.04687,0.171875 0.46875,0.171875 0.79688,0.578125 0.34375,0.390625 0.53125,1.07813 0.20312,0.67187 0.20312,1.67187 v 5.07813 h -1.375 v -4.95313 q 0,-1.25 -0.29687,-1.82812 -0.28125,-0.57813 -1.07813,-0.57813 -0.3125,0 -0.625,0.109375 -0.29687,0.109375 -0.57812,0.312505 0.125,0.35937 0.1875,0.82812 0.0625,0.46875 0.0625,1.03125 v 5.07813 h -1.375 v -4.95313 q 0,-1.25 -0.28125,-1.82812 -0.28125,-0.57813 -1.09375,-0.57813 -0.40625,0 -0.9375,0.15625 v 7.20313 h -1.375 z m 12.10553,4.359375 q 0.0156,0.60938 0.10937,1.125 0.10938,0.5 0.3125,0.875 0.21875,0.375 0.57813,0.57813 0.35937,0.20312 0.92187,0.20312 0.46875,0 0.85938,-0.125 0.39062,-0.14062 0.5625,-0.23437 l 0.26562,1.10937 q -0.21875,0.14063 -0.70312,0.29688 -0.48438,0.17187 -1.15625,0.17187 -0.875,0 -1.48438,-0.3125 -0.59375,-0.32812 -0.96875,-0.89062 -0.375,-0.57813 -0.54687,-1.375 -0.15625,-0.8125 -0.15625,-1.76563 0,-2.32812 0.76562,-3.390625 0.76563,-1.078125 2.03125,-1.078125 1.4375,0 2.01563,1.078125 0.59375,1.062505 0.59375,3.000005 0,0.17187 0,0.35937 0,0.1875 -0.0156,0.375 z m 1.39062,-3.640625 q -0.6875,0 -1,0.687505 -0.3125,0.6875 -0.375,1.84375 h 2.54688 q 0,-1.17188 -0.25,-1.84375 -0.23438,-0.687505 -0.92188,-0.687505 z m 8.27289,0.28125 q -0.5,-0.21875 -1.14062,-0.21875 -0.59375,0 -1.10938,0.203125 v 7.17188 h -1.375 v -8.031255 q 0.46875,-0.21875 1.0625,-0.375 0.59375,-0.15625 1.3125,-0.15625 0.39063,0 0.76563,0.04687 0.39062,0.04687 0.73437,0.171875 z m 4.36804,1.609375 q 0,-1.578125 0.28125,-2.671875 0.29688,-1.109375 0.82813,-1.796875 0.54687,-0.703125 1.29687,-1.015625 0.76563,-0.3125 1.70313,-0.3125 0.73437,0 1.3125,0.203125 0.59375,0.203125 0.96875,0.453125 l -0.45313,1.203125 q -0.35937,-0.265625 -0.79687,-0.421875 -0.4375,-0.171875 -0.98438,-0.171875 -1.40625,0 -2.01562,1.125 -0.59375,1.125 -0.59375,3.40625 0,1.20313 0.17187,2.07813 0.1875,0.85937 0.51563,1.40625 0.34375,0.54687 0.82812,0.79687 0.48438,0.25 1.07813,0.25 0.48437,0 0.84375,-0.10937 v -4.32813 h 1.4375 v 5.21875 q -0.4375,0.20313 -1.07813,0.34375 -0.64062,0.14063 -1.34375,0.14063 -0.85937,0 -1.59375,-0.34375 -0.73437,-0.34375 -1.28125,-1.04688 -0.53125,-0.71875 -0.82812,-1.8125 -0.29688,-1.09375 -0.29688,-2.59375 z m 12.40003,-1.609375 q -0.5,-0.21875 -1.14063,-0.21875 -0.59375,0 -1.10937,0.203125 v 7.17188 h -1.375 v -8.031255 q 0.46875,-0.21875 1.0625,-0.375 0.59375,-0.15625 1.3125,-0.15625 0.39062,0 0.76562,0.04687 0.39063,0.04687 0.73438,0.171875 z m 6.85361,2.968755 q 0,0.98437 -0.1875,1.79687 -0.17188,0.8125 -0.53125,1.39063 -0.35938,0.5625 -0.90625,0.89062 -0.54688,0.3125 -1.29688,0.3125 -0.76562,0 -1.32812,-0.3125 -0.54688,-0.32812 -0.90622,-0.89062 -0.35938,-0.57813 -0.54688,-1.39063 -0.17187,-0.8125 -0.17187,-1.79687 0,-0.98438 0.17187,-1.79688 0.1875,-0.8125 0.54688,-1.390625 0.35934,-0.59375 0.90622,-0.90625 0.5625,-0.328125 1.32812,-0.328125 0.75,0 1.29688,0.328125 0.54687,0.3125 0.90625,0.90625 0.35937,0.578125 0.53125,1.390625 0.1875,0.8125 0.1875,1.79688 z m -1.4375,0 q 0,-0.70313 -0.0781,-1.28125 -0.0781,-0.59375 -0.26562,-1.01563 -0.17188,-0.42187 -0.46875,-0.65625 -0.28125,-0.234375 -0.67188,-0.234375 -0.42187,0 -0.70312,0.234375 -0.28125,0.23438 -0.46875,0.65625 -0.17188,0.42188 -0.26563,1.01563 -0.0781,0.57812 -0.0781,1.28125 0,0.70312 0.0781,1.29687 0.0937,0.57813 0.26563,1 0.1875,0.40625 0.46875,0.64063 0.28125,0.21875 0.70312,0.21875 0.39063,0 0.67188,-0.21875 0.29687,-0.23438 0.46875,-0.64063 0.1875,-0.42187 0.26562,-1 0.0781,-0.59375 0.0781,-1.29687 z m 8.65802,3.95312 q -0.21875,0.0781 -0.51563,0.15625 -0.29687,0.0625 -0.625,0.10938 -0.32812,0.0625 -0.65625,0.0937 -0.3125,0.0469 -0.59375,0.0469 -0.65625,0 -1.20312,-0.15625 -0.54688,-0.14062 -0.9375,-0.51562 -0.375,-0.39063 -0.57813,-1.04688 -0.20312,-0.67187 -0.20312,-1.6875 v -5.171875 h 1.375 v 5.125005 q 0,1.23437 0.375,1.73437 0.375,0.5 1.14062,0.5 0.25,0 0.5,-0.0156 0.26563,-0.0312 0.54688,-0.10938 v -7.234375 h 1.375 z m 3.8363,-1.03125 q 0.46875,0.25 0.98437,0.25 0.40625,0 0.70313,-0.15625 0.3125,-0.15625 0.53125,-0.51562 0.21875,-0.375 0.32812,-0.98438 0.10938,-0.60937 0.10938,-1.5 0,-1.73437 -0.4375,-2.46875 -0.4375,-0.75 -1.40625,-0.75 -0.17188,0 -0.39063,0.03125 -0.20312,0.01563 -0.42187,0.07813 z m 0,4.21875 h -1.375 v -11.125 q 0.45312,-0.203125 1.01562,-0.3125 0.5625,-0.125 1.15625,-0.125 0.875,0 1.5,0.3125 0.64063,0.296875 1.03125,0.875 0.40625,0.5625 0.57813,1.39063 0.1875,0.8125 0.1875,1.875 0,2.125 -0.6875,3.25 -0.67188,1.10937 -2.20313,1.10937 -0.375,0 -0.67187,-0.0781 -0.28125,-0.0625 -0.53125,-0.1875 z m 9.10766,-11.828125 q 0.29688,-0.1875 0.625,-0.4375 0.32813,-0.25 0.625,-0.546875 0.3125,-0.296875 0.57813,-0.609375 0.26562,-0.3125 0.4375,-0.625 h 1.0625 v 11.093755 h -1.375 v -8.906255 q -0.28125,0.28125 -0.64063,0.546875 -0.35937,0.25 -0.75,0.46875 z"
       fill-rule="nonzero"
       id="path11" />
    <path
       fill="#c27ba0"
       d="m 443.33597,128.67192 h 91.11807 v 25.25984 h -91.11807 z"
       fill-rule="evenodd"
       id="path13" />
    <path
       stroke="#595959"
       stroke-width="1"
       stroke-linejoin="round"
       stroke-linecap="butt"
       d="m 443.33597,128.67192 h 91.11807 v 25.25984 h -91.11807 z"
       fill-rule="evenodd"
       id="path15" />
    <path
       fill="#f3f3f3"
       d="m 459.29718,147.39621 q -1.95312,0 -3,-1.45313 -1.03125,-1.45312 -1.03125,-4.5 0,-1.54687 0.29688,-2.60937 0.29687,-1.07813 0.82812,-1.75 0.53125,-0.67188 1.25,-0.96875 0.71875,-0.29688 1.5625,-0.29688 0.70313,0 1.3125,0.1875 0.60938,0.1875 1,0.45313 l -0.4375,1.20312 q -0.39062,-0.26562 -0.82812,-0.42187 -0.4375,-0.15625 -1.01563,-0.15625 -1.28125,0 -1.85937,1.0625 -0.5625,1.0625 -0.5625,3.29687 0,2.26563 0.59375,3.48438 0.60937,1.20312 2,1.20312 0.64062,0 1.04687,-0.15625 0.42188,-0.15625 0.79688,-0.40625 l 0.40625,1.125 q -0.375,0.29688 -0.96875,0.5 -0.59375,0.20313 -1.39063,0.20313 z m 9.09439,-4.42188 q 0,0.98438 -0.1875,1.79688 -0.17187,0.8125 -0.53125,1.39062 -0.35937,0.5625 -0.90625,0.89063 -0.54687,0.3125 -1.29687,0.3125 -0.76563,0 -1.32813,-0.3125 -0.54687,-0.32813 -0.90625,-0.89063 -0.35937,-0.57812 -0.54687,-1.39062 -0.17188,-0.8125 -0.17188,-1.79688 0,-0.98437 0.17188,-1.79687 0.1875,-0.8125 0.54687,-1.39063 0.35938,-0.59375 0.90625,-0.90625 0.5625,-0.32812 1.32813,-0.32812 0.75,0 1.29687,0.32812 0.54688,0.3125 0.90625,0.90625 0.35938,0.57813 0.53125,1.39063 0.1875,0.8125 0.1875,1.79687 z m -1.4375,0 q 0,-0.70312 -0.0781,-1.28125 -0.0781,-0.59375 -0.26563,-1.01562 -0.17187,-0.42188 -0.46875,-0.65625 -0.28125,-0.23438 -0.67187,-0.23438 -0.42188,0 -0.70313,0.23438 -0.28125,0.23437 -0.46875,0.65625 -0.17187,0.42187 -0.26562,1.01562 -0.0781,0.57813 -0.0781,1.28125 0,0.70313 0.0781,1.29688 0.0937,0.57812 0.26562,1 0.1875,0.40625 0.46875,0.64062 0.28125,0.21875 0.70313,0.21875 0.39062,0 0.67187,-0.21875 0.29688,-0.23437 0.46875,-0.64062 0.1875,-0.42188 0.26563,-1 0.0781,-0.59375 0.0781,-1.29688 z m 3.4549,-3.96875 q 0.59375,-0.1875 1.28125,-0.29687 0.6875,-0.125 1.26562,-0.125 0.625,0 1.125,0.17187 0.51563,0.17188 0.875,0.57813 0.35938,0.39062 0.5625,1.07812 0.20313,0.67188 0.20313,1.67188 v 5.07812 h -1.375 v -4.95312 q 0,-1.25 -0.32813,-1.82813 -0.3125,-0.57812 -1.20312,-0.57812 -0.45313,0 -1.03125,0.15625 v 7.20312 h -1.375 z m 8.88388,7.1875 q 0.60937,0 0.90625,-0.34375 0.3125,-0.34375 0.3125,-0.90625 0,-0.35937 -0.125,-0.60937 -0.125,-0.25 -0.34375,-0.4375 -0.20313,-0.1875 -0.46875,-0.34375 -0.26563,-0.15625 -0.54688,-0.32813 -0.26562,-0.15625 -0.53125,-0.375 -0.25,-0.21875 -0.45312,-0.5 -0.20313,-0.28125 -0.32813,-0.64062 -0.10937,-0.35938 -0.10937,-0.82813 0,-1.04687 0.64062,-1.6875 0.65625,-0.64062 1.76563,-0.64062 0.45312,0 0.875,0.125 0.42187,0.10937 0.6875,0.26562 l -0.29688,1.09375 q -0.29687,-0.15625 -0.59375,-0.23437 -0.28125,-0.0781 -0.60937,-0.0781 -0.51563,0 -0.82813,0.29688 -0.29687,0.29687 -0.29687,0.85937 0,0.3125 0.10937,0.54688 0.10938,0.23437 0.29688,0.42187 0.1875,0.17188 0.42187,0.34375 0.23438,0.15625 0.48438,0.29688 0.3125,0.17187 0.59375,0.39062 0.29687,0.20313 0.53125,0.48438 0.23437,0.28125 0.375,0.65625 0.15625,0.375 0.15625,0.90625 0,1.09375 -0.65625,1.76562 -0.64063,0.67188 -1.89063,0.67188 -0.64062,0 -1.15625,-0.17188 -0.51562,-0.17187 -0.76562,-0.3125 l 0.28125,-1.14062 q 0.25,0.125 0.65625,0.29687 0.40625,0.15625 0.90625,0.15625 z m 9.48727,0.73438 q -0.21875,0.0781 -0.51562,0.15625 -0.29688,0.0625 -0.625,0.10937 -0.32813,0.0625 -0.65625,0.0937 -0.3125,0.0469 -0.59375,0.0469 -0.65625,0 -1.20313,-0.15625 -0.54687,-0.14063 -0.9375,-0.51563 -0.375,-0.39062 -0.57812,-1.04687 -0.20313,-0.67188 -0.20313,-1.6875 v -5.17188 h 1.375 v 5.125 q 0,1.23438 0.375,1.73438 0.375,0.5 1.14063,0.5 0.25,0 0.5,-0.0156 0.26562,-0.0312 0.54687,-0.10937 v -7.23438 h 1.375 z m 2.4769,-7.92188 q 0.5625,-0.1875 1.21875,-0.29687 0.65625,-0.125 1.1875,-0.125 0.5625,0 1.01562,0.15625 0.46875,0.14062 0.8125,0.46875 0.42188,-0.26563 0.89063,-0.4375 0.48437,-0.1875 1.0625,-0.1875 0.57812,0 1.04687,0.17187 0.46875,0.17188 0.79688,0.57813 0.34375,0.39062 0.53125,1.07812 0.20312,0.67188 0.20312,1.67188 v 5.07812 h -1.375 v -4.95312 q 0,-1.25 -0.29687,-1.82813 -0.28125,-0.57812 -1.07813,-0.57812 -0.3125,0 -0.625,0.10937 -0.29687,0.10938 -0.57812,0.3125 0.125,0.35938 0.1875,0.82813 0.0625,0.46875 0.0625,1.03125 v 5.07812 h -1.375 v -4.95312 q 0,-1.25 -0.28125,-1.82813 -0.28125,-0.57812 -1.09375,-0.57812 -0.40625,0 -0.9375,0.15625 v 7.20312 h -1.375 z m 12.10553,4.35938 q 0.0156,0.60937 0.10937,1.125 0.10938,0.5 0.3125,0.875 0.21875,0.375 0.57813,0.57812 0.35937,0.20313 0.92187,0.20313 0.46875,0 0.85938,-0.125 0.39062,-0.14063 0.5625,-0.23438 l 0.26562,1.10938 q -0.21875,0.14062 -0.70312,0.29687 -0.48438,0.17188 -1.15625,0.17188 -0.875,0 -1.48438,-0.3125 -0.59375,-0.32813 -0.96875,-0.89063 -0.375,-0.57812 -0.54687,-1.375 -0.15625,-0.8125 -0.15625,-1.76562 0,-2.32813 0.76562,-3.39063 0.76563,-1.07812 2.03125,-1.07812 1.4375,0 2.01563,1.07812 0.59375,1.0625 0.59375,3 0,0.17188 0,0.35938 0,0.1875 -0.0156,0.375 z m 1.39062,-3.64063 q -0.6875,0 -1,0.6875 -0.3125,0.6875 -0.375,1.84375 h 2.54688 q 0,-1.17187 -0.25,-1.84375 -0.23438,-0.6875 -0.92188,-0.6875 z m 8.27289,0.28125 q -0.5,-0.21875 -1.14062,-0.21875 -0.59375,0 -1.10938,0.20313 v 7.17187 h -1.375 v -8.03125 q 0.46875,-0.21875 1.0625,-0.375 0.59375,-0.15625 1.3125,-0.15625 0.39063,0 0.76563,0.0469 0.39062,0.0469 0.73437,0.17187 z m 4.61804,-1.71875 q 0.29688,-0.1875 0.625,-0.4375 0.32813,-0.25 0.625,-0.54687 0.3125,-0.29688 0.57813,-0.60938 0.26562,-0.3125 0.4375,-0.625 h 1.0625 v 11.09375 h -1.375 v -8.90625 q -0.28125,0.28125 -0.64063,0.54688 -0.35937,0.25 -0.75,0.46875 z"
       fill-rule="nonzero"
       id="path17" />
    <path
       fill="#c27ba0"
       d="m 443.33597,171.07086 h 91.11807 v 25.25984 h -91.11807 z"
       fill-rule="evenodd"
       id="path19" />
    <path
       stroke="#595959"
       stroke-width="1"
       stroke-linejoin="round"
       stroke-linecap="butt"
       d="m 443.33597,171.07086 h 91.11807 v 25.25984 h -91.11807 z"
       fill-rule="evenodd"
       id="path21" />
    <path
       fill="#f3f3f3"
       d="m 459.29718,189.79517 q -1.95312,0 -3,-1.45312 -1.03125,-1.45313 -1.03125,-4.5 0,-1.54688 0.29688,-2.60938 0.29687,-1.07812 0.82812,-1.75 0.53125,-0.67187 1.25,-0.96875 0.71875,-0.29687 1.5625,-0.29687 0.70313,0 1.3125,0.1875 0.60938,0.1875 1,0.45312 l -0.4375,1.20313 q -0.39062,-0.26563 -0.82812,-0.42188 -0.4375,-0.15625 -1.01563,-0.15625 -1.28125,0 -1.85937,1.0625 -0.5625,1.0625 -0.5625,3.29688 0,2.26562 0.59375,3.48437 0.60937,1.20313 2,1.20313 0.64062,0 1.04687,-0.15625 0.42188,-0.15625 0.79688,-0.40625 l 0.40625,1.125 q -0.375,0.29687 -0.96875,0.5 -0.59375,0.20312 -1.39063,0.20312 z m 9.09439,-4.42187 q 0,0.98437 -0.1875,1.79687 -0.17187,0.8125 -0.53125,1.39063 -0.35937,0.5625 -0.90625,0.89062 -0.54687,0.3125 -1.29687,0.3125 -0.76563,0 -1.32813,-0.3125 -0.54687,-0.32812 -0.90625,-0.89062 -0.35937,-0.57813 -0.54687,-1.39063 -0.17188,-0.8125 -0.17188,-1.79687 0,-0.98438 0.17188,-1.79688 0.1875,-0.8125 0.54687,-1.39062 0.35938,-0.59375 0.90625,-0.90625 0.5625,-0.32813 1.32813,-0.32813 0.75,0 1.29687,0.32813 0.54688,0.3125 0.90625,0.90625 0.35938,0.57812 0.53125,1.39062 0.1875,0.8125 0.1875,1.79688 z m -1.4375,0 q 0,-0.70313 -0.0781,-1.28125 -0.0781,-0.59375 -0.26563,-1.01563 -0.17187,-0.42187 -0.46875,-0.65625 -0.28125,-0.23437 -0.67187,-0.23437 -0.42188,0 -0.70313,0.23437 -0.28125,0.23438 -0.46875,0.65625 -0.17187,0.42188 -0.26562,1.01563 -0.0781,0.57812 -0.0781,1.28125 0,0.70312 0.0781,1.29687 0.0937,0.57813 0.26562,1 0.1875,0.40625 0.46875,0.64063 0.28125,0.21875 0.70313,0.21875 0.39062,0 0.67187,-0.21875 0.29688,-0.23438 0.46875,-0.64063 0.1875,-0.42187 0.26563,-1 0.0781,-0.59375 0.0781,-1.29687 z m 3.4549,-3.96875 q 0.59375,-0.1875 1.28125,-0.29688 0.6875,-0.125 1.26562,-0.125 0.625,0 1.125,0.17188 0.51563,0.17187 0.875,0.57812 0.35938,0.39063 0.5625,1.07813 0.20313,0.67187 0.20313,1.67187 v 5.07813 h -1.375 v -4.95313 q 0,-1.25 -0.32813,-1.82812 -0.3125,-0.57813 -1.20312,-0.57813 -0.45313,0 -1.03125,0.15625 v 7.20313 h -1.375 z m 8.88388,7.1875 q 0.60937,0 0.90625,-0.34375 0.3125,-0.34375 0.3125,-0.90625 0,-0.35938 -0.125,-0.60938 -0.125,-0.25 -0.34375,-0.4375 -0.20313,-0.1875 -0.46875,-0.34375 -0.26563,-0.15625 -0.54688,-0.32812 -0.26562,-0.15625 -0.53125,-0.375 -0.25,-0.21875 -0.45312,-0.5 -0.20313,-0.28125 -0.32813,-0.64063 -0.10937,-0.35937 -0.10937,-0.82812 0,-1.04688 0.64062,-1.6875 0.65625,-0.64063 1.76563,-0.64063 0.45312,0 0.875,0.125 0.42187,0.10938 0.6875,0.26563 l -0.29688,1.09375 q -0.29687,-0.15625 -0.59375,-0.23438 -0.28125,-0.0781 -0.60937,-0.0781 -0.51563,0 -0.82813,0.29687 -0.29687,0.29688 -0.29687,0.85938 0,0.3125 0.10937,0.54687 0.10938,0.23438 0.29688,0.42188 0.1875,0.17187 0.42187,0.34375 0.23438,0.15625 0.48438,0.29687 0.3125,0.17188 0.59375,0.39063 0.29687,0.20312 0.53125,0.48437 0.23437,0.28125 0.375,0.65625 0.15625,0.375 0.15625,0.90625 0,1.09375 -0.65625,1.76563 -0.64063,0.67187 -1.89063,0.67187 -0.64062,0 -1.15625,-0.17187 -0.51562,-0.17188 -0.76562,-0.3125 l 0.28125,-1.14063 q 0.25,0.125 0.65625,0.29688 0.40625,0.15625 0.90625,0.15625 z m 9.48727,0.73437 q -0.21875,0.0781 -0.51562,0.15625 -0.29688,0.0625 -0.625,0.10938 -0.32813,0.0625 -0.65625,0.0937 -0.3125,0.0469 -0.59375,0.0469 -0.65625,0 -1.20313,-0.15625 -0.54687,-0.14062 -0.9375,-0.51562 -0.375,-0.39063 -0.57812,-1.04688 -0.20313,-0.67187 -0.20313,-1.6875 v -5.17187 h 1.375 v 5.125 q 0,1.23437 0.375,1.73437 0.375,0.5 1.14063,0.5 0.25,0 0.5,-0.0156 0.26562,-0.0312 0.54687,-0.10938 v -7.23437 h 1.375 z m 2.4769,-7.92187 q 0.5625,-0.1875 1.21875,-0.29688 0.65625,-0.125 1.1875,-0.125 0.5625,0 1.01562,0.15625 0.46875,0.14063 0.8125,0.46875 0.42188,-0.26562 0.89063,-0.4375 0.48437,-0.1875 1.0625,-0.1875 0.57812,0 1.04687,0.17188 0.46875,0.17187 0.79688,0.57812 0.34375,0.39063 0.53125,1.07813 0.20312,0.67187 0.20312,1.67187 v 5.07813 h -1.375 v -4.95313 q 0,-1.25 -0.29687,-1.82812 -0.28125,-0.57813 -1.07813,-0.57813 -0.3125,0 -0.625,0.10938 -0.29687,0.10937 -0.57812,0.3125 0.125,0.35937 0.1875,0.82812 0.0625,0.46875 0.0625,1.03125 v 5.07813 h -1.375 v -4.95313 q 0,-1.25 -0.28125,-1.82812 -0.28125,-0.57813 -1.09375,-0.57813 -0.40625,0 -0.9375,0.15625 v 7.20313 h -1.375 z m 12.10553,4.35937 q 0.0156,0.60938 0.10937,1.125 0.10938,0.5 0.3125,0.875 0.21875,0.375 0.57813,0.57813 0.35937,0.20312 0.92187,0.20312 0.46875,0 0.85938,-0.125 0.39062,-0.14062 0.5625,-0.23437 l 0.26562,1.10937 q -0.21875,0.14063 -0.70312,0.29688 -0.48438,0.17187 -1.15625,0.17187 -0.875,0 -1.48438,-0.3125 -0.59375,-0.32812 -0.96875,-0.89062 -0.375,-0.57813 -0.54687,-1.375 -0.15625,-0.8125 -0.15625,-1.76563 0,-2.32812 0.76562,-3.39062 0.76563,-1.07813 2.03125,-1.07813 1.4375,0 2.01563,1.07813 0.59375,1.0625 0.59375,3 0,0.17187 0,0.35937 0,0.1875 -0.0156,0.375 z m 1.39062,-3.64062 q -0.6875,0 -1,0.6875 -0.3125,0.6875 -0.375,1.84375 h 2.54688 q 0,-1.17188 -0.25,-1.84375 -0.23438,-0.6875 -0.92188,-0.6875 z m 8.27289,0.28125 q -0.5,-0.21875 -1.14062,-0.21875 -0.59375,0 -1.10938,0.20312 v 7.17188 h -1.375 v -8.03125 q 0.46875,-0.21875 1.0625,-0.375 0.59375,-0.15625 1.3125,-0.15625 0.39063,0 0.76563,0.0469 0.39062,0.0469 0.73437,0.17188 z m 4.19617,-3.25 q 0.9375,-0.9375 2.3125,-0.9375 1.28125,0 1.96875,0.6875 0.70312,0.67187 0.70312,2.10937 0,0.67188 -0.23437,1.28125 -0.21875,0.60938 -0.5625,1.1875 -0.32813,0.5625 -0.73438,1.125 -0.39062,0.54688 -0.76562,1.14063 -0.35938,0.57812 -0.64063,1.21875 -0.26562,0.625 -0.32812,1.34375 h 3.48437 v 1.25 h -4.96875 v -0.29688 q 0,-1.07812 0.25,-1.90625 0.25,-0.84375 0.60938,-1.51562 0.35937,-0.67188 0.79687,-1.23438 0.4375,-0.57812 0.79688,-1.125 0.35937,-0.5625 0.59375,-1.14062 0.25,-0.59375 0.25,-1.29688 0,-0.84375 -0.34375,-1.21875 -0.32813,-0.375 -1,-0.375 -0.45313,0 -0.82813,0.1875 -0.375,0.17188 -0.6875,0.46875 z"
       fill-rule="nonzero"
       id="path23" />
    <path
       fill="#000000"
       fill-opacity="0"
       d="m 143.19685,174.3937 h 129.79527 v 180 H 143.19685 Z"
       fill-rule="evenodd"
       id="path25" />
    <path
       stroke="#efefef"
       stroke-width="1"
       stroke-linejoin="round"
       stroke-linecap="butt"
       d="m 143.19685,174.3937 h 129.79527 v 180 H 143.19685 Z"
       fill-rule="evenodd"
       id="path27" />
    <path
       fill="#f3f3f3"
       d="m 193.93619,187.65996 v 1.23437 h -2.46875 v 9.85938 h -1.4375 v -9.85938 h -2.46875 v -1.23437 z m 5.98288,6.90625 q 0,0.98437 -0.1875,1.79687 -0.17188,0.8125 -0.53125,1.39063 -0.35938,0.5625 -0.90625,0.89062 -0.54688,0.3125 -1.29688,0.3125 -0.76562,0 -1.32812,-0.3125 -0.54688,-0.32812 -0.90625,-0.89062 -0.35938,-0.57813 -0.54688,-1.39063 -0.17187,-0.8125 -0.17187,-1.79687 0,-0.98438 0.17187,-1.79688 0.1875,-0.8125 0.54688,-1.39062 0.35937,-0.59375 0.90625,-0.90625 0.5625,-0.32813 1.32812,-0.32813 0.75,0 1.29688,0.32813 0.54687,0.3125 0.90625,0.90625 0.35937,0.57812 0.53125,1.39062 0.1875,0.8125 0.1875,1.79688 z m -1.4375,0 q 0,-0.70313 -0.0781,-1.28125 -0.0781,-0.59375 -0.26562,-1.01563 -0.17188,-0.42187 -0.46875,-0.65625 -0.28125,-0.23437 -0.67188,-0.23437 -0.42187,0 -0.70312,0.23437 -0.28125,0.23438 -0.46875,0.65625 -0.17188,0.42188 -0.26563,1.01563 -0.0781,0.57812 -0.0781,1.28125 0,0.70312 0.0781,1.29687 0.0937,0.57813 0.26563,1 0.1875,0.40625 0.46875,0.64063 0.28125,0.21875 0.70312,0.21875 0.39063,0 0.67188,-0.21875 0.29687,-0.23438 0.46875,-0.64063 0.1875,-0.42187 0.26562,-1 0.0781,-0.59375 0.0781,-1.29687 z m 4.81427,2.92187 q 0.46875,0.25 0.98437,0.25 0.40625,0 0.70313,-0.15625 0.3125,-0.15625 0.53125,-0.51562 0.21875,-0.375 0.32812,-0.98438 0.10938,-0.60937 0.10938,-1.5 0,-1.73437 -0.4375,-2.46875 -0.4375,-0.75 -1.40625,-0.75 -0.17188,0 -0.39063,0.0312 -0.20312,0.0156 -0.42187,0.0781 z m 0,4.21875 h -1.375 v -11.125 q 0.45312,-0.20312 1.01562,-0.3125 0.5625,-0.125 1.15625,-0.125 0.875,0 1.5,0.3125 0.64063,0.29688 1.03125,0.875 0.40625,0.5625 0.57813,1.39063 0.1875,0.8125 0.1875,1.875 0,2.125 -0.6875,3.25 -0.67188,1.10937 -2.20313,1.10937 -0.375,0 -0.67187,-0.0781 -0.28125,-0.0625 -0.53125,-0.1875 z m 7.48764,-2.95312 h -1.375 v -8.40625 h 1.375 z m -0.6875,-9.89063 q -0.375,0 -0.64063,-0.25 -0.25,-0.25 -0.25,-0.65625 0,-0.42187 0.25,-0.67187 0.26563,-0.25 0.64063,-0.25 0.35937,0 0.625,0.25 0.26562,0.25 0.26562,0.67187 0,0.40625 -0.26562,0.65625 -0.26563,0.25 -0.625,0.25 z m 5.74701,10.09375 q -0.875,0 -1.45313,-0.32812 -0.5625,-0.34375 -0.92187,-0.92188 -0.35938,-0.57812 -0.51563,-1.375 -0.15625,-0.8125 -0.15625,-1.75 0,-2.07812 0.75,-3.25 0.76563,-1.1875 2.3125,-1.1875 0.45313,0 0.82813,0.10938 0.375,0.10937 0.6875,0.29687 l -0.35938,1.125 q -0.48437,-0.3125 -1.09375,-0.3125 -0.85937,0 -1.28125,0.78125 -0.40625,0.78125 -0.40625,2.4375 0,0.6875 0.0781,1.28125 0.0937,0.57813 0.28125,1 0.20312,0.40625 0.53125,0.64063 0.32812,0.23437 0.84375,0.23437 0.34375,0 0.625,-0.0781 0.28125,-0.0937 0.54687,-0.23438 l 0.29688,1.07813 q -0.25,0.17187 -0.6875,0.3125 -0.42188,0.14062 -0.90625,0.14062 z m 9.73677,-11.29687 q 0.39063,1.20312 0.76563,2.4375 0.375,1.21875 0.73437,2.5625 0.35938,1.34375 0.71875,2.84375 0.35938,1.5 0.73438,3.25 h -1.45313 q -0.125,-0.71875 -0.26562,-1.42188 -0.125,-0.70312 -0.26563,-1.40625 h -3.5 q -0.15625,0.70313 -0.28125,1.40625 -0.125,0.70313 -0.25,1.42188 h -1.40625 q 0.35938,-1.75 0.71875,-3.25 0.375,-1.5 0.73438,-2.84375 0.35937,-1.34375 0.73437,-2.5625 0.375,-1.23438 0.76563,-2.4375 z m -0.78125,1.64062 q -0.40625,1.32813 -0.78125,2.67188 -0.35937,1.34375 -0.6875,2.75 h 2.92188 q -0.3125,-1.40625 -0.6875,-2.75 -0.35938,-1.34375 -0.76563,-2.67188 z"
       fill-rule="nonzero"
       id="path29" />
    <path
       fill="#6fa8dc"
       d="m 162.53543,220.33333 h 91.11812 v 25.25984 h -91.11812 z"
       fill-rule="evenodd"
       id="path31" />
    <path
       stroke="#595959"
       stroke-width="1"
       stroke-linejoin="round"
       stroke-linecap="butt"
       d="m 162.53543,220.33333 h 91.11812 v 25.25984 h -91.11812 z"
       fill-rule="evenodd"
       id="path33" />
    <path
       fill="#f3f3f3"
       d="m 178.05415,227.90138 q 1.125,-0.28125 2.1875,-0.28125 0.84375,0 1.51562,0.20312 0.6875,0.20313 1.17188,0.625 0.48437,0.42188 0.75,1.09375 0.26562,0.67188 0.26562,1.625 0,0.95313 -0.28125,1.64063 -0.26562,0.67187 -0.76562,1.09375 -0.48438,0.42187 -1.1875,0.625 -0.70313,0.1875 -1.54688,0.1875 h -0.67187 v 4.10937 h -1.4375 z m 1.4375,5.54687 h 0.57812 q 0.54688,0 0.98438,-0.10937 0.4375,-0.125 0.73437,-0.39063 0.3125,-0.28125 0.46875,-0.71875 0.17188,-0.4375 0.17188,-1.0625 0,-0.64062 -0.17188,-1.07812 -0.15625,-0.45313 -0.4375,-0.71875 -0.28125,-0.26563 -0.6875,-0.375 -0.39062,-0.10938 -0.875,-0.10938 -0.40625,0 -0.76562,0.0469 z m 6.03375,-2.84375 q 0.42188,-0.1875 0.875,-0.28125 0.46875,-0.10937 1.01563,-0.10937 1.125,0 1.82812,0.70312 0.70313,0.6875 0.70313,2.15625 v 5.57813 q -0.57813,0.15625 -1.1875,0.25 -0.59375,0.0937 -1.17188,0.0937 -0.57812,0 -1.07812,-0.14063 -0.5,-0.14062 -0.875,-0.45312 -0.375,-0.32813 -0.60938,-0.8125 -0.21875,-0.5 -0.21875,-1.20313 0,-0.65625 0.20313,-1.14062 0.20312,-0.48438 0.54687,-0.8125 0.35938,-0.32813 0.82813,-0.5 0.48437,-0.17188 1.04687,-0.17188 0.53125,0 1.17188,0.14063 v -0.78125 q 0,-0.92188 -0.35938,-1.28125 -0.35937,-0.375 -1.03125,-0.375 -0.375,0 -0.70312,0.0781 -0.32813,0.0625 -0.70313,0.21875 z m 0.65625,5.76563 q 0,0.73437 0.375,1.09375 0.39063,0.34375 1.09375,0.34375 0.4375,0 0.95313,-0.10938 v -2.67187 q -0.48438,-0.125 -0.95313,-0.125 -0.29687,0 -0.57812,0.0781 -0.26563,0.0625 -0.46875,0.23438 -0.20313,0.17187 -0.3125,0.45312 -0.10938,0.28125 -0.10938,0.70313 z m 9.78777,-4.70313 q -0.5,-0.21875 -1.14063,-0.21875 -0.59375,0 -1.10937,0.20313 v 7.17187 h -1.375 V 230.792 q 0.46875,-0.21875 1.0625,-0.375 0.59375,-0.15625 1.3125,-0.15625 0.39062,0 0.76562,0.0469 0.39063,0.0469 0.73438,0.17187 z m 2.90426,-1.25 h 2.10938 v 1.1875 h -2.10938 v 4.625 q 0,0.85938 0.3125,1.20313 0.3125,0.34375 0.84375,0.34375 0.26563,0 0.51563,-0.0781 0.25,-0.0781 0.42187,-0.1875 l 0.26563,1.10938 q -0.65625,0.375 -1.39063,0.375 -1.1875,0 -1.76562,-0.65625 -0.57813,-0.67188 -0.57813,-2.20313 V 228.167 l 1.375,-0.23437 z m 5.22977,8.40625 h -1.375 V 230.417 h 1.375 z m -0.6875,-9.89062 q -0.375,0 -0.64062,-0.25 -0.25,-0.25 -0.25,-0.65625 0,-0.42188 0.25,-0.67188 0.26562,-0.25 0.64062,-0.25 0.35938,0 0.625,0.25 0.26563,0.25 0.26563,0.67188 0,0.40625 -0.26563,0.65625 -0.26562,0.25 -0.625,0.25 z m 4.46576,1.48437 h 2.10938 v 1.1875 h -2.10938 v 4.625 q 0,0.85938 0.3125,1.20313 0.3125,0.34375 0.84375,0.34375 0.26563,0 0.51563,-0.0781 0.25,-0.0781 0.42187,-0.1875 l 0.26563,1.10938 q -0.65625,0.375 -1.39063,0.375 -1.1875,0 -1.76562,-0.65625 -0.57813,-0.67188 -0.57813,-2.20313 V 228.167 l 1.375,-0.23437 z m 5.22977,8.40625 h -1.375 V 230.417 h 1.375 z m -0.6875,-9.89062 q -0.375,0 -0.64063,-0.25 -0.25,-0.25 -0.25,-0.65625 0,-0.42188 0.25,-0.67188 0.26563,-0.25 0.64063,-0.25 0.35937,0 0.625,0.25 0.26562,0.25 0.26562,0.67188 0,0.40625 -0.26562,0.65625 -0.26563,0.25 -0.625,0.25 z m 8.57513,5.70312 q 0,0.98438 -0.1875,1.79688 -0.17187,0.8125 -0.53125,1.39062 -0.35937,0.5625 -0.90625,0.89063 -0.54687,0.3125 -1.29687,0.3125 -0.76563,0 -1.32813,-0.3125 -0.54687,-0.32813 -0.90625,-0.89063 -0.35937,-0.57812 -0.54687,-1.39062 -0.17188,-0.8125 -0.17188,-1.79688 0,-0.98437 0.17188,-1.79687 0.1875,-0.8125 0.54687,-1.39063 0.35938,-0.59375 0.90625,-0.90625 0.5625,-0.32812 1.32813,-0.32812 0.75,0 1.29687,0.32812 0.54688,0.3125 0.90625,0.90625 0.35938,0.57813 0.53125,1.39063 0.1875,0.8125 0.1875,1.79687 z m -1.4375,0 q 0,-0.70312 -0.0781,-1.28125 -0.0781,-0.59375 -0.26563,-1.01562 -0.17187,-0.42188 -0.46875,-0.65625 -0.28125,-0.23438 -0.67187,-0.23438 -0.42188,0 -0.70313,0.23438 -0.28125,0.23437 -0.46875,0.65625 -0.17187,0.42187 -0.26562,1.01562 -0.0781,0.57813 -0.0781,1.28125 0,0.70313 0.0781,1.29688 0.0937,0.57812 0.26562,1 0.1875,0.40625 0.46875,0.64062 0.28125,0.21875 0.70313,0.21875 0.39062,0 0.67187,-0.21875 0.29688,-0.23437 0.46875,-0.64062 0.1875,-0.42188 0.26563,-1 0.0781,-0.59375 0.0781,-1.29688 z m 3.4549,-3.96875 q 0.59375,-0.1875 1.28125,-0.29687 0.6875,-0.125 1.26562,-0.125 0.625,0 1.125,0.17187 0.51563,0.17188 0.875,0.57813 0.35938,0.39062 0.5625,1.07812 0.20313,0.67188 0.20313,1.67188 v 5.07812 h -1.375 v -4.95312 q 0,-1.25 -0.32813,-1.82813 -0.3125,-0.57812 -1.20312,-0.57812 -0.45313,0 -1.03125,0.15625 v 7.20312 h -1.375 z m 10.70703,-0.71875 q 0.29687,-0.1875 0.625,-0.4375 0.32812,-0.25 0.625,-0.54687 0.3125,-0.29688 0.57812,-0.60938 0.26563,-0.3125 0.4375,-0.625 h 1.0625 v 11.09375 h -1.375 V 229.917 q -0.28125,0.28125 -0.64062,0.54688 -0.35938,0.25 -0.75,0.46875 z"
       fill-rule="nonzero"
       id="path35" />
    <path
       fill="#6fa8dc"
       d="m 162.53543,262.73227 h 91.11812 v 25.25986 h -91.11812 z"
       fill-rule="evenodd"
       id="path37" />
    <path
       stroke="#595959"
       stroke-width="1"
       stroke-linejoin="round"
       stroke-linecap="butt"
       d="m 162.53543,262.73227 h 91.11812 v 25.25986 h -91.11812 z"
       fill-rule="evenodd"
       id="path39" />
    <path
       fill="#f3f3f3"
       d="m 178.05415,270.30032 q 1.125,-0.28125 2.1875,-0.28125 0.84375,0 1.51562,0.20312 0.6875,0.20313 1.17188,0.625 0.48437,0.42188 0.75,1.09375 0.26562,0.67188 0.26562,1.625 0,0.95313 -0.28125,1.64063 -0.26562,0.67187 -0.76562,1.09375 -0.48438,0.42187 -1.1875,0.625 -0.70313,0.1875 -1.54688,0.1875 h -0.67187 v 4.10937 h -1.4375 z m 1.4375,5.54687 h 0.57812 q 0.54688,0 0.98438,-0.10937 0.4375,-0.125 0.73437,-0.39063 0.3125,-0.28125 0.46875,-0.71875 0.17188,-0.4375 0.17188,-1.0625 0,-0.64062 -0.17188,-1.07812 -0.15625,-0.45313 -0.4375,-0.71875 -0.28125,-0.26563 -0.6875,-0.375 -0.39062,-0.10938 -0.875,-0.10938 -0.40625,0 -0.76562,0.0469 z m 6.03375,-2.84375 q 0.42188,-0.1875 0.875,-0.28125 0.46875,-0.10937 1.01563,-0.10937 1.125,0 1.82812,0.70312 0.70313,0.6875 0.70313,2.15625 v 5.57813 q -0.57813,0.15625 -1.1875,0.25 -0.59375,0.0937 -1.17188,0.0937 -0.57812,0 -1.07812,-0.14063 -0.5,-0.14062 -0.875,-0.45312 -0.375,-0.32813 -0.60938,-0.8125 -0.21875,-0.5 -0.21875,-1.20313 0,-0.65625 0.20313,-1.14062 0.20312,-0.48438 0.54687,-0.8125 0.35938,-0.32813 0.82813,-0.5 0.48437,-0.17188 1.04687,-0.17188 0.53125,0 1.17188,0.14063 v -0.78125 q 0,-0.92188 -0.35938,-1.28125 -0.35937,-0.375 -1.03125,-0.375 -0.375,0 -0.70312,0.0781 -0.32813,0.0625 -0.70313,0.21875 z m 0.65625,5.76563 q 0,0.73437 0.375,1.09375 0.39063,0.34375 1.09375,0.34375 0.4375,0 0.95313,-0.10938 v -2.67187 q -0.48438,-0.125 -0.95313,-0.125 -0.29687,0 -0.57812,0.0781 -0.26563,0.0625 -0.46875,0.23438 -0.20313,0.17187 -0.3125,0.45312 -0.10938,0.28125 -0.10938,0.70313 z m 9.78777,-4.70313 q -0.5,-0.21875 -1.14063,-0.21875 -0.59375,0 -1.10937,0.20313 v 7.17187 h -1.375 v -8.03125 q 0.46875,-0.21875 1.0625,-0.375 0.59375,-0.15625 1.3125,-0.15625 0.39062,0 0.76562,0.0469 0.39063,0.0469 0.73438,0.17187 z m 2.90426,-1.25 h 2.10938 v 1.1875 h -2.10938 v 4.625 q 0,0.85938 0.3125,1.20313 0.3125,0.34375 0.84375,0.34375 0.26563,0 0.51563,-0.0781 0.25,-0.0781 0.42187,-0.1875 l 0.26563,1.10938 q -0.65625,0.375 -1.39063,0.375 -1.1875,0 -1.76562,-0.65625 -0.57813,-0.67188 -0.57813,-2.20313 v -7.96875 l 1.375,-0.23437 z m 5.22977,8.40625 h -1.375 v -8.40625 h 1.375 z m -0.6875,-9.89062 q -0.375,0 -0.64062,-0.25 -0.25,-0.25 -0.25,-0.65625 0,-0.42188 0.25,-0.67188 0.26562,-0.25 0.64062,-0.25 0.35938,0 0.625,0.25 0.26563,0.25 0.26563,0.67188 0,0.40625 -0.26563,0.65625 -0.26562,0.25 -0.625,0.25 z m 4.46576,1.48437 h 2.10938 v 1.1875 h -2.10938 v 4.625 q 0,0.85938 0.3125,1.20313 0.3125,0.34375 0.84375,0.34375 0.26563,0 0.51563,-0.0781 0.25,-0.0781 0.42187,-0.1875 l 0.26563,1.10938 q -0.65625,0.375 -1.39063,0.375 -1.1875,0 -1.76562,-0.65625 -0.57813,-0.67188 -0.57813,-2.20313 v -7.96875 l 1.375,-0.23437 z m 5.22977,8.40625 h -1.375 v -8.40625 h 1.375 z m -0.6875,-9.89062 q -0.375,0 -0.64063,-0.25 -0.25,-0.25 -0.25,-0.65625 0,-0.42188 0.25,-0.67188 0.26563,-0.25 0.64063,-0.25 0.35937,0 0.625,0.25 0.26562,0.25 0.26562,0.67188 0,0.40625 -0.26562,0.65625 -0.26563,0.25 -0.625,0.25 z m 8.57513,5.70312 q 0,0.98438 -0.1875,1.79688 -0.17187,0.8125 -0.53125,1.39062 -0.35937,0.5625 -0.90625,0.89063 -0.54687,0.3125 -1.29687,0.3125 -0.76563,0 -1.32813,-0.3125 -0.54687,-0.32813 -0.90625,-0.89063 -0.35937,-0.57812 -0.54687,-1.39062 -0.17188,-0.8125 -0.17188,-1.79688 0,-0.98437 0.17188,-1.79687 0.1875,-0.8125 0.54687,-1.39063 0.35938,-0.59375 0.90625,-0.90625 0.5625,-0.32812 1.32813,-0.32812 0.75,0 1.29687,0.32812 0.54688,0.3125 0.90625,0.90625 0.35938,0.57813 0.53125,1.39063 0.1875,0.8125 0.1875,1.79687 z m -1.4375,0 q 0,-0.70312 -0.0781,-1.28125 -0.0781,-0.59375 -0.26563,-1.01562 -0.17187,-0.42188 -0.46875,-0.65625 -0.28125,-0.23438 -0.67187,-0.23438 -0.42188,0 -0.70313,0.23438 -0.28125,0.23437 -0.46875,0.65625 -0.17187,0.42187 -0.26562,1.01562 -0.0781,0.57813 -0.0781,1.28125 0,0.70313 0.0781,1.29688 0.0937,0.57812 0.26562,1 0.1875,0.40625 0.46875,0.64062 0.28125,0.21875 0.70313,0.21875 0.39062,0 0.67187,-0.21875 0.29688,-0.23437 0.46875,-0.64062 0.1875,-0.42188 0.26563,-1 0.0781,-0.59375 0.0781,-1.29688 z m 3.4549,-3.96875 q 0.59375,-0.1875 1.28125,-0.29687 0.6875,-0.125 1.26562,-0.125 0.625,0 1.125,0.17187 0.51563,0.17188 0.875,0.57813 0.35938,0.39062 0.5625,1.07812 0.20313,0.67188 0.20313,1.67188 v 5.07812 h -1.375 v -4.95312 q 0,-1.25 -0.32813,-1.82813 -0.3125,-0.57812 -1.20312,-0.57812 -0.45313,0 -1.03125,0.15625 v 7.20312 h -1.375 z m 10.28515,-2.25 q 0.9375,-0.9375 2.3125,-0.9375 1.28125,0 1.96875,0.6875 0.70313,0.67188 0.70313,2.10938 0,0.67187 -0.23438,1.28125 -0.21875,0.60937 -0.5625,1.1875 -0.32812,0.5625 -0.73437,1.125 -0.39063,0.54687 -0.76563,1.14062 -0.35937,0.57813 -0.64062,1.21875 -0.26563,0.625 -0.32813,1.34375 h 3.48438 v 1.25 h -4.96875 v -0.29687 q 0,-1.07813 0.25,-1.90625 0.25,-0.84375 0.60937,-1.51563 0.35938,-0.67187 0.79688,-1.23437 0.4375,-0.57813 0.79687,-1.125 0.35938,-0.5625 0.59375,-1.14063 0.25,-0.59375 0.25,-1.29687 0,-0.84375 -0.34375,-1.21875 -0.32812,-0.375 -1,-0.375 -0.45312,0 -0.82812,0.1875 -0.375,0.17187 -0.6875,0.46875 z"
       fill-rule="nonzero"
       id="path41" />
    <path
       fill="#6fa8dc"
       d="m 162.53543,305.13123 h 91.11812 v 25.25986 h -91.11812 z"
       fill-rule="evenodd"
       id="path43" />
    <path
       stroke="#595959"
       stroke-width="1"
       stroke-linejoin="round"
       stroke-linecap="butt"
       d="m 162.53543,305.13123 h 91.11812 v 25.25986 h -91.11812 z"
       fill-rule="evenodd"
       id="path45" />
    <path
       fill="#f3f3f3"
       d="m 178.05415,312.69928 q 1.125,-0.28125 2.1875,-0.28125 0.84375,0 1.51562,0.20312 0.6875,0.20313 1.17188,0.625 0.48437,0.42188 0.75,1.09375 0.26562,0.67188 0.26562,1.625 0,0.95313 -0.28125,1.64063 -0.26562,0.67187 -0.76562,1.09375 -0.48438,0.42187 -1.1875,0.625 -0.70313,0.1875 -1.54688,0.1875 h -0.67187 v 4.10937 h -1.4375 z m 1.4375,5.54687 h 0.57812 q 0.54688,0 0.98438,-0.10937 0.4375,-0.125 0.73437,-0.39063 0.3125,-0.28125 0.46875,-0.71875 0.17188,-0.4375 0.17188,-1.0625 0,-0.64062 -0.17188,-1.07812 -0.15625,-0.45313 -0.4375,-0.71875 -0.28125,-0.26563 -0.6875,-0.375 -0.39062,-0.10938 -0.875,-0.10938 -0.40625,0 -0.76562,0.0469 z m 6.03375,-2.84375 q 0.42188,-0.1875 0.875,-0.28125 0.46875,-0.10937 1.01563,-0.10937 1.125,0 1.82812,0.70312 0.70313,0.6875 0.70313,2.15625 v 5.57813 q -0.57813,0.15625 -1.1875,0.25 -0.59375,0.0937 -1.17188,0.0937 -0.57812,0 -1.07812,-0.14063 -0.5,-0.14062 -0.875,-0.45312 -0.375,-0.32813 -0.60938,-0.8125 -0.21875,-0.5 -0.21875,-1.20313 0,-0.65625 0.20313,-1.14062 0.20312,-0.48438 0.54687,-0.8125 0.35938,-0.32813 0.82813,-0.5 0.48437,-0.17188 1.04687,-0.17188 0.53125,0 1.17188,0.14063 v -0.78125 q 0,-0.92188 -0.35938,-1.28125 -0.35937,-0.375 -1.03125,-0.375 -0.375,0 -0.70312,0.0781 -0.32813,0.0625 -0.70313,0.21875 z m 0.65625,5.76563 q 0,0.73437 0.375,1.09375 0.39063,0.34375 1.09375,0.34375 0.4375,0 0.95313,-0.10938 v -2.67187 q -0.48438,-0.125 -0.95313,-0.125 -0.29687,0 -0.57812,0.0781 -0.26563,0.0625 -0.46875,0.23438 -0.20313,0.17187 -0.3125,0.45312 -0.10938,0.28125 -0.10938,0.70313 z m 9.78777,-4.70313 q -0.5,-0.21875 -1.14063,-0.21875 -0.59375,0 -1.10937,0.20313 v 7.17187 h -1.375 v -8.03125 q 0.46875,-0.21875 1.0625,-0.375 0.59375,-0.15625 1.3125,-0.15625 0.39062,0 0.76562,0.0469 0.39063,0.0469 0.73438,0.17187 z m 2.90426,-1.25 h 2.10938 v 1.1875 h -2.10938 v 4.625 q 0,0.85938 0.3125,1.20313 0.3125,0.34375 0.84375,0.34375 0.26563,0 0.51563,-0.0781 0.25,-0.0781 0.42187,-0.1875 l 0.26563,1.10938 q -0.65625,0.375 -1.39063,0.375 -1.1875,0 -1.76562,-0.65625 -0.57813,-0.67188 -0.57813,-2.20313 v -7.96875 l 1.375,-0.23437 z m 5.22977,8.40625 h -1.375 v -8.40625 h 1.375 z m -0.6875,-9.89062 q -0.375,0 -0.64062,-0.25 -0.25,-0.25 -0.25,-0.65625 0,-0.42188 0.25,-0.67188 0.26562,-0.25 0.64062,-0.25 0.35938,0 0.625,0.25 0.26563,0.25 0.26563,0.67188 0,0.40625 -0.26563,0.65625 -0.26562,0.25 -0.625,0.25 z m 4.46576,1.48437 h 2.10938 v 1.1875 h -2.10938 v 4.625 q 0,0.85938 0.3125,1.20313 0.3125,0.34375 0.84375,0.34375 0.26563,0 0.51563,-0.0781 0.25,-0.0781 0.42187,-0.1875 l 0.26563,1.10938 q -0.65625,0.375 -1.39063,0.375 -1.1875,0 -1.76562,-0.65625 -0.57813,-0.67188 -0.57813,-2.20313 v -7.96875 l 1.375,-0.23437 z m 5.22977,8.40625 h -1.375 v -8.40625 h 1.375 z m -0.6875,-9.89062 q -0.375,0 -0.64063,-0.25 -0.25,-0.25 -0.25,-0.65625 0,-0.42188 0.25,-0.67188 0.26563,-0.25 0.64063,-0.25 0.35937,0 0.625,0.25 0.26562,0.25 0.26562,0.67188 0,0.40625 -0.26562,0.65625 -0.26563,0.25 -0.625,0.25 z m 8.57513,5.70312 q 0,0.98438 -0.1875,1.79688 -0.17187,0.8125 -0.53125,1.39062 -0.35937,0.5625 -0.90625,0.89063 -0.54687,0.3125 -1.29687,0.3125 -0.76563,0 -1.32813,-0.3125 -0.54687,-0.32813 -0.90625,-0.89063 -0.35937,-0.57812 -0.54687,-1.39062 -0.17188,-0.8125 -0.17188,-1.79688 0,-0.98437 0.17188,-1.79687 0.1875,-0.8125 0.54687,-1.39063 0.35938,-0.59375 0.90625,-0.90625 0.5625,-0.32812 1.32813,-0.32812 0.75,0 1.29687,0.32812 0.54688,0.3125 0.90625,0.90625 0.35938,0.57813 0.53125,1.39063 0.1875,0.8125 0.1875,1.79687 z m -1.4375,0 q 0,-0.70312 -0.0781,-1.28125 -0.0781,-0.59375 -0.26563,-1.01562 -0.17187,-0.42188 -0.46875,-0.65625 -0.28125,-0.23438 -0.67187,-0.23438 -0.42188,0 -0.70313,0.23438 -0.28125,0.23437 -0.46875,0.65625 -0.17187,0.42187 -0.26562,1.01562 -0.0781,0.57813 -0.0781,1.28125 0,0.70313 0.0781,1.29688 0.0937,0.57812 0.26562,1 0.1875,0.40625 0.46875,0.64062 0.28125,0.21875 0.70313,0.21875 0.39062,0 0.67187,-0.21875 0.29688,-0.23437 0.46875,-0.64062 0.1875,-0.42188 0.26563,-1 0.0781,-0.59375 0.0781,-1.29688 z m 3.4549,-3.96875 q 0.59375,-0.1875 1.28125,-0.29687 0.6875,-0.125 1.26562,-0.125 0.625,0 1.125,0.17187 0.51563,0.17188 0.875,0.57813 0.35938,0.39062 0.5625,1.07812 0.20313,0.67188 0.20313,1.67188 v 5.07812 h -1.375 v -4.95312 q 0,-1.25 -0.32813,-1.82813 -0.3125,-0.57812 -1.20312,-0.57812 -0.45313,0 -1.03125,0.15625 v 7.20312 h -1.375 z m 13.6914,2.1875 q 0.79688,0.28125 1.23438,1.01563 0.45312,0.73437 0.45312,1.875 0,1.54687 -0.75,2.4375 -0.75,0.875 -2.25,0.875 -0.59375,0 -1.15625,-0.17188 -0.54687,-0.17187 -0.96875,-0.46875 l 0.375,-1.10937 q 0.35938,0.21875 0.76563,0.39062 0.40625,0.15625 0.85937,0.15625 0.8125,0 1.26563,-0.5 0.46875,-0.51562 0.46875,-1.625 0,-1.09375 -0.51563,-1.65625 -0.5,-0.5625 -1.60937,-0.5625 h -0.40625 v -1.17187 h 0.34375 q 0.96875,0 1.42187,-0.5 0.46875,-0.51563 0.46875,-1.4375 0,-0.85938 -0.375,-1.28125 -0.35937,-0.42188 -0.96875,-0.42188 -0.40625,0 -0.79687,0.15625 -0.375,0.15625 -0.64063,0.40625 l -0.54687,-1.01562 q 0.42187,-0.375 0.98437,-0.5625 0.57813,-0.20313 1.125,-0.20313 1.25,0 1.92188,0.78125 0.67187,0.78125 0.67187,2.07813 0,0.92187 -0.35937,1.5625 -0.35938,0.625 -1.01563,0.95312 z"
       fill-rule="nonzero"
       id="path47" />
    <path
       fill="#000000"
       fill-opacity="0"
       d="m 253.65355,232.96326 c 47.42015,0 71.13167,-22.91339 94.84032,-45.82677 23.70868,-22.91339 47.41449,-45.82678 94.82898,-45.82678"
       fill-rule="evenodd"
       id="path49" />
    <path
       stroke="#efefef"
       stroke-width="2"
       stroke-linejoin="round"
       stroke-linecap="butt"
       stroke-dasharray="8, 6"
       d="m 253.65355,232.96326 c 47.42018,0 71.13167,-22.91339 94.84035,-45.82677 11.85431,-11.45669 23.70795,-22.91339 38.52475,-31.5059 7.40845,-4.29627 15.55768,-7.87648 24.81821,-10.38263 4.63025,-1.25308 9.53836,-2.23764 14.7706,-2.90894 1.30801,-0.16781 2.63635,-0.31607 3.98562,-0.44403 l 0.74097,-0.0672"
       fill-rule="evenodd"
       id="path51" />
    <path
       fill="#efefef"
       stroke="#efefef"
       stroke-width="2"
       stroke-linecap="butt"
       d="m 431.47665,145.12816 8.92511,-3.69222 -9.21036,-2.90855 z"
       fill-rule="evenodd"
       id="path53" />
    <path
       fill="#000000"
       fill-opacity="0"
       d="m 253.65355,275.3622 c 47.42015,0 71.13167,-33.51183 94.84032,-67.02364 23.70868,-33.51181 47.41449,-67.02362 94.82898,-67.02362"
       fill-rule="evenodd"
       id="path55" />
    <path
       stroke="#efefef"
       stroke-width="2"
       stroke-linejoin="round"
       stroke-linecap="butt"
       stroke-dasharray="8, 6"
       d="m 253.65355,275.3622 c 47.42018,0 71.13167,-33.51183 94.84035,-67.02364 11.85431,-16.7559 23.70795,-33.51181 38.52475,-46.07873 7.40845,-6.28346 15.55768,-11.51969 24.81821,-15.18504 4.63025,-1.83268 9.53836,-3.27263 14.7706,-4.25443 1.30801,-0.24545 2.63635,-0.46226 3.98562,-0.64941 l 0.75357,-0.1"
       fill-rule="evenodd"
       id="path57" />
    <path
       fill="#efefef"
       stroke="#efefef"
       stroke-width="2"
       stroke-linecap="butt"
       d="m 431.5548,145.36787 8.85004,-3.86871 -9.2663,-2.72509 z"
       fill-rule="evenodd"
       id="path59" />
    <path
       fill="#000000"
       fill-opacity="0"
       d="m 253.65355,317.76117 c 47.42015,0 71.13167,-33.51184 94.84032,-67.02364 23.70868,-33.51181 47.41449,-67.02362 94.82898,-67.02362"
       fill-rule="evenodd"
       id="path61" />
    <path
       stroke="#efefef"
       stroke-width="2"
       stroke-linejoin="round"
       stroke-linecap="butt"
       stroke-dasharray="8, 6"
       d="m 253.65355,317.76117 c 47.42018,0 71.13167,-33.51184 94.84035,-67.02364 11.85431,-16.7559 23.70795,-33.51181 38.52475,-46.07873 7.40845,-6.28346 15.55768,-11.51969 24.81821,-15.18504 4.63025,-1.83268 9.53836,-3.27265 14.7706,-4.25443 1.30801,-0.24545 2.63635,-0.46228 3.98562,-0.64943 l 0.75357,-0.1"
       fill-rule="evenodd"
       id="path63" />
    <path
       fill="#efefef"
       stroke="#efefef"
       stroke-width="2"
       stroke-linecap="butt"
       d="m 431.5548,187.76683 8.85004,-3.86871 -9.2663,-2.7251 z"
       fill-rule="evenodd"
       id="path65" />
    <path
       fill="#000000"
       fill-opacity="0"
       d="m 423.99738,287.99213 h 129.79529 v 180 H 423.99738 Z"
       fill-rule="evenodd"
       id="path67" />
    <path
       stroke="#efefef"
       stroke-width="1"
       stroke-linejoin="round"
       stroke-linecap="butt"
       d="m 423.99738,287.99213 h 129.79529 v 180 H 423.99738 Z"
       fill-rule="evenodd"
       id="path69" />
    <path
       fill="#f3f3f3"
       d="m 439.7131,312.5865 q -1.95313,0 -3,-1.45313 -1.03125,-1.45312 -1.03125,-4.5 0,-1.54687 0.29687,-2.60937 0.29688,-1.07813 0.82813,-1.75 0.53125,-0.67188 1.25,-0.96875 0.71875,-0.29688 1.5625,-0.29688 0.70312,0 1.3125,0.1875 0.60937,0.1875 1,0.45313 l -0.4375,1.20312 q -0.39063,-0.26562 -0.82813,-0.42187 -0.4375,-0.15625 -1.01562,-0.15625 -1.28125,0 -1.85938,1.0625 -0.5625,1.0625 -0.5625,3.29687 0,2.26563 0.59375,3.48438 0.60938,1.20312 2,1.20312 0.64063,0 1.04688,-0.15625 0.42187,-0.15625 0.79687,-0.40625 l 0.40625,1.125 q -0.375,0.29688 -0.96875,0.5 -0.59375,0.20313 -1.39062,0.20313 z m 9.09439,-4.42188 q 0,0.98438 -0.1875,1.79688 -0.17187,0.8125 -0.53125,1.39062 -0.35937,0.5625 -0.90625,0.89063 -0.54687,0.3125 -1.29687,0.3125 -0.76563,0 -1.32813,-0.3125 -0.54687,-0.32813 -0.90625,-0.89063 -0.35937,-0.57812 -0.54687,-1.39062 -0.17188,-0.8125 -0.17188,-1.79688 0,-0.98437 0.17188,-1.79687 0.1875,-0.8125 0.54687,-1.39063 0.35938,-0.59375 0.90625,-0.90625 0.5625,-0.32812 1.32813,-0.32812 0.75,0 1.29687,0.32812 0.54688,0.3125 0.90625,0.90625 0.35938,0.57813 0.53125,1.39063 0.1875,0.8125 0.1875,1.79687 z m -1.4375,0 q 0,-0.70312 -0.0781,-1.28125 -0.0781,-0.59375 -0.26563,-1.01562 -0.17187,-0.42188 -0.46875,-0.65625 -0.28125,-0.23438 -0.67187,-0.23438 -0.42188,0 -0.70313,0.23438 -0.28125,0.23437 -0.46875,0.65625 -0.17187,0.42187 -0.26562,1.01562 -0.0781,0.57813 -0.0781,1.28125 0,0.70313 0.0781,1.29688 0.0937,0.57812 0.26562,1 0.1875,0.40625 0.46875,0.64062 0.28125,0.21875 0.70313,0.21875 0.39062,0 0.67187,-0.21875 0.29688,-0.23437 0.46875,-0.64062 0.1875,-0.42188 0.26563,-1 0.0781,-0.59375 0.0781,-1.29688 z m 3.4549,-3.96875 q 0.59375,-0.1875 1.28125,-0.29687 0.6875,-0.125 1.26562,-0.125 0.625,0 1.125,0.17187 0.51563,0.17188 0.875,0.57813 0.35938,0.39062 0.5625,1.07812 0.20313,0.67188 0.20313,1.67188 v 5.07812 h -1.375 V 307.399 q 0,-1.25 -0.32813,-1.82813 -0.3125,-0.57812 -1.20312,-0.57812 -0.45313,0 -1.03125,0.15625 v 7.20312 h -1.375 z m 8.88391,7.1875 q 0.60937,0 0.90625,-0.34375 0.3125,-0.34375 0.3125,-0.90625 0,-0.35937 -0.125,-0.60937 -0.125,-0.25 -0.34375,-0.4375 -0.20313,-0.1875 -0.46875,-0.34375 -0.26563,-0.15625 -0.54688,-0.32813 -0.26562,-0.15625 -0.53125,-0.375 -0.25,-0.21875 -0.45312,-0.5 -0.20313,-0.28125 -0.32813,-0.64062 -0.10937,-0.35938 -0.10937,-0.82813 0,-1.04687 0.64062,-1.6875 0.65625,-0.64062 1.76563,-0.64062 0.45312,0 0.875,0.125 0.42187,0.10937 0.6875,0.26562 l -0.29688,1.09375 q -0.29687,-0.15625 -0.59375,-0.23437 -0.28125,-0.0781 -0.60937,-0.0781 -0.51563,0 -0.82813,0.29688 -0.29687,0.29687 -0.29687,0.85937 0,0.3125 0.10937,0.54688 0.10938,0.23437 0.29688,0.42187 0.1875,0.17188 0.42187,0.34375 0.23438,0.15625 0.48438,0.29688 0.3125,0.17187 0.59375,0.39062 0.29687,0.20313 0.53125,0.48438 0.23437,0.28125 0.375,0.65625 0.15625,0.375 0.15625,0.90625 0,1.09375 -0.65625,1.76562 -0.64063,0.67188 -1.89063,0.67188 -0.64062,0 -1.15625,-0.17188 -0.51562,-0.17187 -0.76562,-0.3125 l 0.28125,-1.14062 q 0.25,0.125 0.65625,0.29687 0.40625,0.15625 0.90625,0.15625 z m 9.48724,0.73438 q -0.21875,0.0781 -0.51562,0.15625 -0.29688,0.0625 -0.625,0.10937 -0.32813,0.0625 -0.65625,0.0937 -0.3125,0.0469 -0.59375,0.0469 -0.65625,0 -1.20313,-0.15625 -0.54687,-0.14063 -0.9375,-0.51563 -0.375,-0.39062 -0.57812,-1.04687 -0.20313,-0.67188 -0.20313,-1.6875 v -5.17188 h 1.375 v 5.125 q 0,1.23438 0.375,1.73438 0.375,0.5 1.14063,0.5 0.25,0 0.5,-0.0156 0.26562,-0.0312 0.54687,-0.10937 v -7.23438 h 1.375 z m 2.4769,-7.92188 q 0.5625,-0.1875 1.21875,-0.29687 0.65625,-0.125 1.1875,-0.125 0.5625,0 1.01562,0.15625 0.46875,0.14062 0.8125,0.46875 0.42188,-0.26563 0.89063,-0.4375 0.48437,-0.1875 1.0625,-0.1875 0.57812,0 1.04687,0.17187 0.46875,0.17188 0.79688,0.57813 0.34375,0.39062 0.53125,1.07812 0.20312,0.67188 0.20312,1.67188 v 5.07812 h -1.375 V 307.399 q 0,-1.25 -0.29687,-1.82813 -0.28125,-0.57812 -1.07813,-0.57812 -0.3125,0 -0.625,0.10937 -0.29687,0.10938 -0.57812,0.3125 0.125,0.35938 0.1875,0.82813 0.0625,0.46875 0.0625,1.03125 v 5.07812 h -1.375 V 307.399 q 0,-1.25 -0.28125,-1.82813 -0.28125,-0.57812 -1.09375,-0.57812 -0.40625,0 -0.9375,0.15625 v 7.20312 h -1.375 z m 12.10553,4.35938 q 0.0156,0.60937 0.10937,1.125 0.10938,0.5 0.3125,0.875 0.21875,0.375 0.57813,0.57812 0.35937,0.20313 0.92187,0.20313 0.46875,0 0.85938,-0.125 0.39062,-0.14063 0.5625,-0.23438 l 0.26562,1.10938 q -0.21875,0.14062 -0.70312,0.29687 -0.48438,0.17188 -1.15625,0.17188 -0.875,0 -1.48438,-0.3125 -0.59375,-0.32813 -0.96875,-0.89063 -0.375,-0.57812 -0.54687,-1.375 -0.15625,-0.8125 -0.15625,-1.76562 0,-2.32813 0.76562,-3.39063 0.76563,-1.07812 2.03125,-1.07812 1.4375,0 2.01563,1.07812 0.59375,1.0625 0.59375,3 0,0.17188 0,0.35938 0,0.1875 -0.0156,0.375 z m 1.39062,-3.64063 q -0.6875,0 -1,0.6875 -0.3125,0.6875 -0.375,1.84375 h 2.54688 q 0,-1.17187 -0.25,-1.84375 -0.23438,-0.6875 -0.92188,-0.6875 z m 8.27289,0.28125 q -0.5,-0.21875 -1.14062,-0.21875 -0.59375,0 -1.10938,0.20313 v 7.17187 h -1.375 v -8.03125 q 0.46875,-0.21875 1.0625,-0.375 0.59375,-0.15625 1.3125,-0.15625 0.39063,0 0.76563,0.0469 0.39062,0.0469 0.73437,0.17187 z m 4.36804,1.60938 q 0,-1.57813 0.28125,-2.67188 0.29688,-1.10937 0.82813,-1.79687 0.54687,-0.70313 1.29687,-1.01563 0.76563,-0.3125 1.70313,-0.3125 0.73437,0 1.3125,0.20313 0.59375,0.20312 0.96875,0.45312 l -0.45313,1.20313 q -0.35937,-0.26563 -0.79687,-0.42188 -0.4375,-0.17187 -0.98438,-0.17187 -1.40625,0 -2.01562,1.125 -0.59375,1.125 -0.59375,3.40625 0,1.20312 0.17187,2.07812 0.1875,0.85938 0.51563,1.40625 0.34375,0.54688 0.82812,0.79688 0.48438,0.25 1.07813,0.25 0.48437,0 0.84375,-0.10938 V 306.899 h 1.4375 v 5.21875 q -0.4375,0.20312 -1.07813,0.34375 -0.64062,0.14062 -1.34375,0.14062 -0.85937,0 -1.59375,-0.34375 -0.73437,-0.34375 -1.28125,-1.04687 -0.53125,-0.71875 -0.82812,-1.8125 -0.29688,-1.09375 -0.29688,-2.59375 z m 12.40003,-1.60938 q -0.5,-0.21875 -1.14063,-0.21875 -0.59375,0 -1.10937,0.20313 v 7.17187 h -1.375 v -8.03125 q 0.46875,-0.21875 1.0625,-0.375 0.59375,-0.15625 1.3125,-0.15625 0.39062,0 0.76562,0.0469 0.39063,0.0469 0.73438,0.17187 z m 6.85361,2.96875 q 0,0.98438 -0.1875,1.79688 -0.17188,0.8125 -0.53125,1.39062 -0.35938,0.5625 -0.90625,0.89063 -0.54688,0.3125 -1.29688,0.3125 -0.76562,0 -1.32812,-0.3125 -0.54688,-0.32813 -0.90622,-0.89063 -0.35938,-0.57812 -0.54688,-1.39062 -0.17187,-0.8125 -0.17187,-1.79688 0,-0.98437 0.17187,-1.79687 0.1875,-0.8125 0.54688,-1.39063 0.35934,-0.59375 0.90622,-0.90625 0.5625,-0.32812 1.32812,-0.32812 0.75,0 1.29688,0.32812 0.54687,0.3125 0.90625,0.90625 0.35937,0.57813 0.53125,1.39063 0.1875,0.8125 0.1875,1.79687 z m -1.4375,0 q 0,-0.70312 -0.0781,-1.28125 -0.0781,-0.59375 -0.26562,-1.01562 -0.17188,-0.42188 -0.46875,-0.65625 -0.28125,-0.23438 -0.67188,-0.23438 -0.42187,0 -0.70312,0.23438 -0.28125,0.23437 -0.46875,0.65625 -0.17188,0.42187 -0.26563,1.01562 -0.0781,0.57813 -0.0781,1.28125 0,0.70313 0.0781,1.29688 0.0937,0.57812 0.26563,1 0.1875,0.40625 0.46875,0.64062 0.28125,0.21875 0.70312,0.21875 0.39063,0 0.67188,-0.21875 0.29687,-0.23437 0.46875,-0.64062 0.1875,-0.42188 0.26562,-1 0.0781,-0.59375 0.0781,-1.29688 z m 8.65802,3.95313 q -0.21875,0.0781 -0.51563,0.15625 -0.29687,0.0625 -0.625,0.10937 -0.32812,0.0625 -0.65625,0.0937 -0.3125,0.0469 -0.59375,0.0469 -0.65625,0 -1.20312,-0.15625 -0.54688,-0.14063 -0.9375,-0.51563 -0.375,-0.39062 -0.57813,-1.04687 -0.20312,-0.67188 -0.20312,-1.6875 v -5.17188 h 1.375 v 5.125 q 0,1.23438 0.375,1.73438 0.375,0.5 1.14062,0.5 0.25,0 0.5,-0.0156 0.26563,-0.0312 0.54688,-0.10937 v -7.23438 h 1.375 z m 3.8363,-1.03125 q 0.46875,0.25 0.98437,0.25 0.40625,0 0.70313,-0.15625 0.3125,-0.15625 0.53125,-0.51563 0.21875,-0.375 0.32812,-0.98437 0.10938,-0.60938 0.10938,-1.5 0,-1.73438 -0.4375,-2.46875 -0.4375,-0.75 -1.40625,-0.75 -0.17188,0 -0.39063,0.0312 -0.20312,0.0156 -0.42187,0.0781 z m 0,4.21875 h -1.375 v -11.125 q 0.45312,-0.20313 1.01562,-0.3125 0.5625,-0.125 1.15625,-0.125 0.875,0 1.5,0.3125 0.64063,0.29687 1.03125,0.875 0.40625,0.5625 0.57813,1.39062 0.1875,0.8125 0.1875,1.875 0,2.125 -0.6875,3.25 -0.67188,1.10938 -2.20313,1.10938 -0.375,0 -0.67187,-0.0781 -0.28125,-0.0625 -0.53125,-0.1875 z m 8.68579,-13.35938 q 0.9375,-0.9375 2.3125,-0.9375 1.28125,0 1.96875,0.6875 0.70312,0.67188 0.70312,2.10938 0,0.67187 -0.23437,1.28125 -0.21875,0.60937 -0.5625,1.1875 -0.32813,0.5625 -0.73438,1.125 -0.39062,0.54687 -0.76562,1.14062 -0.35938,0.57813 -0.64063,1.21875 -0.26562,0.625 -0.32812,1.34375 h 3.48437 v 1.25 h -4.96875 v -0.29687 q 0,-1.07813 0.25,-1.90625 0.25,-0.84375 0.60938,-1.51563 0.35937,-0.67187 0.79687,-1.23437 0.4375,-0.57813 0.79688,-1.125 0.35937,-0.5625 0.59375,-1.14063 0.25,-0.59375 0.25,-1.29687 0,-0.84375 -0.34375,-1.21875 -0.32813,-0.375 -1,-0.375 -0.45313,0 -0.82813,0.1875 -0.375,0.17187 -0.6875,0.46875 z"
       fill-rule="nonzero"
       id="path71" />
    <path
       fill="#c27ba0"
       d="m 443.33597,333.93176 h 91.11807 v 25.25983 h -91.11807 z"
       fill-rule="evenodd"
       id="path73" />
    <path
       stroke="#595959"
       stroke-width="1"
       stroke-linejoin="round"
       stroke-linecap="butt"
       d="m 443.33597,333.93176 h 91.11807 v 25.25983 h -91.11807 z"
       fill-rule="evenodd"
       id="path75" />
    <path
       fill="#f3f3f3"
       d="m 459.29718,352.65607 q -1.95312,0 -3,-1.45313 -1.03125,-1.45312 -1.03125,-4.5 0,-1.54687 0.29688,-2.60937 0.29687,-1.07813 0.82812,-1.75 0.53125,-0.67188 1.25,-0.96875 0.71875,-0.29688 1.5625,-0.29688 0.70313,0 1.3125,0.1875 0.60938,0.1875 1,0.45313 l -0.4375,1.20312 q -0.39062,-0.26562 -0.82812,-0.42187 -0.4375,-0.15625 -1.01563,-0.15625 -1.28125,0 -1.85937,1.0625 -0.5625,1.0625 -0.5625,3.29687 0,2.26563 0.59375,3.48438 0.60937,1.20312 2,1.20312 0.64062,0 1.04687,-0.15625 0.42188,-0.15625 0.79688,-0.40625 l 0.40625,1.125 q -0.375,0.29688 -0.96875,0.5 -0.59375,0.20313 -1.39063,0.20313 z m 9.09439,-4.42188 q 0,0.98438 -0.1875,1.79688 -0.17187,0.8125 -0.53125,1.39062 -0.35937,0.5625 -0.90625,0.89063 -0.54687,0.3125 -1.29687,0.3125 -0.76563,0 -1.32813,-0.3125 -0.54687,-0.32813 -0.90625,-0.89063 -0.35937,-0.57812 -0.54687,-1.39062 -0.17188,-0.8125 -0.17188,-1.79688 0,-0.98437 0.17188,-1.79687 0.1875,-0.8125 0.54687,-1.39063 0.35938,-0.59375 0.90625,-0.90625 0.5625,-0.32812 1.32813,-0.32812 0.75,0 1.29687,0.32812 0.54688,0.3125 0.90625,0.90625 0.35938,0.57813 0.53125,1.39063 0.1875,0.8125 0.1875,1.79687 z m -1.4375,0 q 0,-0.70312 -0.0781,-1.28125 -0.0781,-0.59375 -0.26563,-1.01562 -0.17187,-0.42188 -0.46875,-0.65625 -0.28125,-0.23438 -0.67187,-0.23438 -0.42188,0 -0.70313,0.23438 -0.28125,0.23437 -0.46875,0.65625 -0.17187,0.42187 -0.26562,1.01562 -0.0781,0.57813 -0.0781,1.28125 0,0.70313 0.0781,1.29688 0.0937,0.57812 0.26562,1 0.1875,0.40625 0.46875,0.64062 0.28125,0.21875 0.70313,0.21875 0.39062,0 0.67187,-0.21875 0.29688,-0.23437 0.46875,-0.64062 0.1875,-0.42188 0.26563,-1 0.0781,-0.59375 0.0781,-1.29688 z m 3.4549,-3.96875 q 0.59375,-0.1875 1.28125,-0.29687 0.6875,-0.125 1.26562,-0.125 0.625,0 1.125,0.17187 0.51563,0.17188 0.875,0.57813 0.35938,0.39062 0.5625,1.07812 0.20313,0.67188 0.20313,1.67188 v 5.07812 h -1.375 v -4.95312 q 0,-1.25 -0.32813,-1.82813 -0.3125,-0.57812 -1.20312,-0.57812 -0.45313,0 -1.03125,0.15625 v 7.20312 h -1.375 z m 8.88388,7.1875 q 0.60937,0 0.90625,-0.34375 0.3125,-0.34375 0.3125,-0.90625 0,-0.35937 -0.125,-0.60937 -0.125,-0.25 -0.34375,-0.4375 -0.20313,-0.1875 -0.46875,-0.34375 -0.26563,-0.15625 -0.54688,-0.32813 -0.26562,-0.15625 -0.53125,-0.375 -0.25,-0.21875 -0.45312,-0.5 -0.20313,-0.28125 -0.32813,-0.64062 -0.10937,-0.35938 -0.10937,-0.82813 0,-1.04687 0.64062,-1.6875 0.65625,-0.64062 1.76563,-0.64062 0.45312,0 0.875,0.125 0.42187,0.10937 0.6875,0.26562 l -0.29688,1.09375 q -0.29687,-0.15625 -0.59375,-0.23437 -0.28125,-0.0781 -0.60937,-0.0781 -0.51563,0 -0.82813,0.29688 -0.29687,0.29687 -0.29687,0.85937 0,0.3125 0.10937,0.54688 0.10938,0.23437 0.29688,0.42187 0.1875,0.17188 0.42187,0.34375 0.23438,0.15625 0.48438,0.29688 0.3125,0.17187 0.59375,0.39062 0.29687,0.20313 0.53125,0.48438 0.23437,0.28125 0.375,0.65625 0.15625,0.375 0.15625,0.90625 0,1.09375 -0.65625,1.76562 -0.64063,0.67188 -1.89063,0.67188 -0.64062,0 -1.15625,-0.17188 -0.51562,-0.17187 -0.76562,-0.3125 l 0.28125,-1.14062 q 0.25,0.125 0.65625,0.29687 0.40625,0.15625 0.90625,0.15625 z m 9.48727,0.73438 q -0.21875,0.0781 -0.51562,0.15625 -0.29688,0.0625 -0.625,0.10937 -0.32813,0.0625 -0.65625,0.0937 -0.3125,0.0469 -0.59375,0.0469 -0.65625,0 -1.20313,-0.15625 -0.54687,-0.14063 -0.9375,-0.51563 -0.375,-0.39062 -0.57812,-1.04687 -0.20313,-0.67188 -0.20313,-1.6875 v -5.17188 h 1.375 v 5.125 q 0,1.23438 0.375,1.73438 0.375,0.5 1.14063,0.5 0.25,0 0.5,-0.0156 0.26562,-0.0312 0.54687,-0.10937 v -7.23438 h 1.375 z m 2.4769,-7.92188 q 0.5625,-0.1875 1.21875,-0.29687 0.65625,-0.125 1.1875,-0.125 0.5625,0 1.01562,0.15625 0.46875,0.14062 0.8125,0.46875 0.42188,-0.26563 0.89063,-0.4375 0.48437,-0.1875 1.0625,-0.1875 0.57812,0 1.04687,0.17187 0.46875,0.17188 0.79688,0.57813 0.34375,0.39062 0.53125,1.07812 0.20312,0.67188 0.20312,1.67188 v 5.07812 h -1.375 v -4.95312 q 0,-1.25 -0.29687,-1.82813 -0.28125,-0.57812 -1.07813,-0.57812 -0.3125,0 -0.625,0.10937 -0.29687,0.10938 -0.57812,0.3125 0.125,0.35938 0.1875,0.82813 0.0625,0.46875 0.0625,1.03125 v 5.07812 h -1.375 v -4.95312 q 0,-1.25 -0.28125,-1.82813 -0.28125,-0.57812 -1.09375,-0.57812 -0.40625,0 -0.9375,0.15625 v 7.20312 h -1.375 z m 12.10553,4.35938 q 0.0156,0.60937 0.10937,1.125 0.10938,0.5 0.3125,0.875 0.21875,0.375 0.57813,0.57812 0.35937,0.20313 0.92187,0.20313 0.46875,0 0.85938,-0.125 0.39062,-0.14063 0.5625,-0.23438 l 0.26562,1.10938 q -0.21875,0.14062 -0.70312,0.29687 -0.48438,0.17188 -1.15625,0.17188 -0.875,0 -1.48438,-0.3125 -0.59375,-0.32813 -0.96875,-0.89063 -0.375,-0.57812 -0.54687,-1.375 -0.15625,-0.8125 -0.15625,-1.76562 0,-2.32813 0.76562,-3.39063 0.76563,-1.07812 2.03125,-1.07812 1.4375,0 2.01563,1.07812 0.59375,1.0625 0.59375,3 0,0.17188 0,0.35938 0,0.1875 -0.0156,0.375 z m 1.39062,-3.64063 q -0.6875,0 -1,0.6875 -0.3125,0.6875 -0.375,1.84375 h 2.54688 q 0,-1.17187 -0.25,-1.84375 -0.23438,-0.6875 -0.92188,-0.6875 z m 8.27289,0.28125 q -0.5,-0.21875 -1.14062,-0.21875 -0.59375,0 -1.10938,0.20313 v 7.17187 h -1.375 v -8.03125 q 0.46875,-0.21875 1.0625,-0.375 0.59375,-0.15625 1.3125,-0.15625 0.39063,0 0.76563,0.0469 0.39062,0.0469 0.73437,0.17187 z m 4.61804,-1.71875 q 0.29688,-0.1875 0.625,-0.4375 0.32813,-0.25 0.625,-0.54687 0.3125,-0.29688 0.57813,-0.60938 0.26562,-0.3125 0.4375,-0.625 h 1.0625 v 11.09375 h -1.375 v -8.90625 q -0.28125,0.28125 -0.64063,0.54688 -0.35937,0.25 -0.75,0.46875 z"
       fill-rule="nonzero"
       id="path77" />
    <path
       fill="#c27ba0"
       d="m 443.33597,376.33072 h 91.11807 v 25.25983 h -91.11807 z"
       fill-rule="evenodd"
       id="path79" />
    <path
       stroke="#595959"
       stroke-width="1"
       stroke-linejoin="round"
       stroke-linecap="butt"
       d="m 443.33597,376.33072 h 91.11807 v 25.25983 h -91.11807 z"
       fill-rule="evenodd"
       id="path81" />
    <path
       fill="#f3f3f3"
       d="m 459.29718,395.055 q -1.95312,0 -3,-1.45313 -1.03125,-1.45312 -1.03125,-4.5 0,-1.54687 0.29688,-2.60937 0.29687,-1.07813 0.82812,-1.75 0.53125,-0.67188 1.25,-0.96875 0.71875,-0.29688 1.5625,-0.29688 0.70313,0 1.3125,0.1875 0.60938,0.1875 1,0.45313 l -0.4375,1.20312 q -0.39062,-0.26562 -0.82812,-0.42187 -0.4375,-0.15625 -1.01563,-0.15625 -1.28125,0 -1.85937,1.0625 -0.5625,1.0625 -0.5625,3.29687 0,2.26563 0.59375,3.48438 0.60937,1.20312 2,1.20312 0.64062,0 1.04687,-0.15625 0.42188,-0.15625 0.79688,-0.40625 l 0.40625,1.125 q -0.375,0.29688 -0.96875,0.5 -0.59375,0.20313 -1.39063,0.20313 z m 9.09439,-4.42188 q 0,0.98438 -0.1875,1.79688 -0.17187,0.8125 -0.53125,1.39062 -0.35937,0.5625 -0.90625,0.89063 -0.54687,0.3125 -1.29687,0.3125 -0.76563,0 -1.32813,-0.3125 -0.54687,-0.32813 -0.90625,-0.89063 -0.35937,-0.57812 -0.54687,-1.39062 -0.17188,-0.8125 -0.17188,-1.79688 0,-0.98437 0.17188,-1.79687 0.1875,-0.8125 0.54687,-1.39063 0.35938,-0.59375 0.90625,-0.90625 0.5625,-0.32812 1.32813,-0.32812 0.75,0 1.29687,0.32812 0.54688,0.3125 0.90625,0.90625 0.35938,0.57813 0.53125,1.39063 0.1875,0.8125 0.1875,1.79687 z m -1.4375,0 q 0,-0.70312 -0.0781,-1.28125 -0.0781,-0.59375 -0.26563,-1.01562 -0.17187,-0.42188 -0.46875,-0.65625 -0.28125,-0.23438 -0.67187,-0.23438 -0.42188,0 -0.70313,0.23438 -0.28125,0.23437 -0.46875,0.65625 -0.17187,0.42187 -0.26562,1.01562 -0.0781,0.57813 -0.0781,1.28125 0,0.70313 0.0781,1.29688 0.0937,0.57812 0.26562,1 0.1875,0.40625 0.46875,0.64062 0.28125,0.21875 0.70313,0.21875 0.39062,0 0.67187,-0.21875 0.29688,-0.23437 0.46875,-0.64062 0.1875,-0.42188 0.26563,-1 0.0781,-0.59375 0.0781,-1.29688 z m 3.4549,-3.96875 q 0.59375,-0.1875 1.28125,-0.29687 0.6875,-0.125 1.26562,-0.125 0.625,0 1.125,0.17187 0.51563,0.17188 0.875,0.57813 0.35938,0.39062 0.5625,1.07812 0.20313,0.67188 0.20313,1.67188 v 5.07812 h -1.375 v -4.95312 q 0,-1.25 -0.32813,-1.82813 -0.3125,-0.57812 -1.20312,-0.57812 -0.45313,0 -1.03125,0.15625 v 7.20312 h -1.375 z m 8.88388,7.1875 q 0.60937,0 0.90625,-0.34375 0.3125,-0.34375 0.3125,-0.90625 0,-0.35937 -0.125,-0.60937 -0.125,-0.25 -0.34375,-0.4375 -0.20313,-0.1875 -0.46875,-0.34375 -0.26563,-0.15625 -0.54688,-0.32813 -0.26562,-0.15625 -0.53125,-0.375 -0.25,-0.21875 -0.45312,-0.5 -0.20313,-0.28125 -0.32813,-0.64062 -0.10937,-0.35938 -0.10937,-0.82813 0,-1.04687 0.64062,-1.6875 0.65625,-0.64062 1.76563,-0.64062 0.45312,0 0.875,0.125 0.42187,0.10937 0.6875,0.26562 l -0.29688,1.09375 q -0.29687,-0.15625 -0.59375,-0.23437 -0.28125,-0.0781 -0.60937,-0.0781 -0.51563,0 -0.82813,0.29688 -0.29687,0.29687 -0.29687,0.85937 0,0.3125 0.10937,0.54688 0.10938,0.23437 0.29688,0.42187 0.1875,0.17188 0.42187,0.34375 0.23438,0.15625 0.48438,0.29688 0.3125,0.17187 0.59375,0.39062 0.29687,0.20313 0.53125,0.48438 0.23437,0.28125 0.375,0.65625 0.15625,0.375 0.15625,0.90625 0,1.09375 -0.65625,1.76562 -0.64063,0.67188 -1.89063,0.67188 -0.64062,0 -1.15625,-0.17188 -0.51562,-0.17187 -0.76562,-0.3125 l 0.28125,-1.14062 q 0.25,0.125 0.65625,0.29687 0.40625,0.15625 0.90625,0.15625 z m 9.48727,0.73438 q -0.21875,0.0781 -0.51562,0.15625 -0.29688,0.0625 -0.625,0.10937 -0.32813,0.0625 -0.65625,0.0937 -0.3125,0.0469 -0.59375,0.0469 -0.65625,0 -1.20313,-0.15625 -0.54687,-0.14063 -0.9375,-0.51563 -0.375,-0.39062 -0.57812,-1.04687 -0.20313,-0.67188 -0.20313,-1.6875 v -5.17188 h 1.375 v 5.125 q 0,1.23438 0.375,1.73438 0.375,0.5 1.14063,0.5 0.25,0 0.5,-0.0156 0.26562,-0.0312 0.54687,-0.10937 v -7.23438 h 1.375 z m 2.4769,-7.92188 q 0.5625,-0.1875 1.21875,-0.29687 0.65625,-0.125 1.1875,-0.125 0.5625,0 1.01562,0.15625 0.46875,0.14062 0.8125,0.46875 0.42188,-0.26563 0.89063,-0.4375 0.48437,-0.1875 1.0625,-0.1875 0.57812,0 1.04687,0.17187 0.46875,0.17188 0.79688,0.57813 0.34375,0.39062 0.53125,1.07812 0.20312,0.67188 0.20312,1.67188 v 5.07812 h -1.375 v -4.95312 q 0,-1.25 -0.29687,-1.82813 -0.28125,-0.57812 -1.07813,-0.57812 -0.3125,0 -0.625,0.10937 -0.29687,0.10938 -0.57812,0.3125 0.125,0.35938 0.1875,0.82813 0.0625,0.46875 0.0625,1.03125 v 5.07812 h -1.375 v -4.95312 q 0,-1.25 -0.28125,-1.82813 -0.28125,-0.57812 -1.09375,-0.57812 -0.40625,0 -0.9375,0.15625 v 7.20312 h -1.375 z m 12.10553,4.35938 q 0.0156,0.60937 0.10937,1.125 0.10938,0.5 0.3125,0.875 0.21875,0.375 0.57813,0.57812 0.35937,0.20313 0.92187,0.20313 0.46875,0 0.85938,-0.125 0.39062,-0.14063 0.5625,-0.23438 l 0.26562,1.10938 q -0.21875,0.14062 -0.70312,0.29687 -0.48438,0.17188 -1.15625,0.17188 -0.875,0 -1.48438,-0.3125 -0.59375,-0.32813 -0.96875,-0.89063 -0.375,-0.57812 -0.54687,-1.375 -0.15625,-0.8125 -0.15625,-1.76562 0,-2.32813 0.76562,-3.39063 0.76563,-1.07812 2.03125,-1.07812 1.4375,0 2.01563,1.07812 0.59375,1.0625 0.59375,3 0,0.17188 0,0.35938 0,0.1875 -0.0156,0.375 z m 1.39062,-3.64063 q -0.6875,0 -1,0.6875 -0.3125,0.6875 -0.375,1.84375 h 2.54688 q 0,-1.17187 -0.25,-1.84375 -0.23438,-0.6875 -0.92188,-0.6875 z m 8.27289,0.28125 q -0.5,-0.21875 -1.14062,-0.21875 -0.59375,0 -1.10938,0.20313 v 7.17187 h -1.375 v -8.03125 q 0.46875,-0.21875 1.0625,-0.375 0.59375,-0.15625 1.3125,-0.15625 0.39063,0 0.76563,0.0469 0.39062,0.0469 0.73437,0.17187 z m 4.19617,-3.25 q 0.9375,-0.9375 2.3125,-0.9375 1.28125,0 1.96875,0.6875 0.70312,0.67188 0.70312,2.10938 0,0.67187 -0.23437,1.28125 -0.21875,0.60937 -0.5625,1.1875 -0.32813,0.5625 -0.73438,1.125 -0.39062,0.54687 -0.76562,1.14062 -0.35938,0.57813 -0.64063,1.21875 -0.26562,0.625 -0.32812,1.34375 h 3.48437 v 1.25 h -4.96875 v -0.29687 q 0,-1.07813 0.25,-1.90625 0.25,-0.84375 0.60938,-1.51563 0.35937,-0.67187 0.79687,-1.23437 0.4375,-0.57813 0.79688,-1.125 0.35937,-0.5625 0.59375,-1.14063 0.25,-0.59375 0.25,-1.29687 0,-0.84375 -0.34375,-1.21875 -0.32813,-0.375 -1,-0.375 -0.45313,0 -0.82813,0.1875 -0.375,0.17187 -0.6875,0.46875 z"
       fill-rule="nonzero"
       id="path83" />
    <path
       fill="#c27ba0"
       d="m 443.33597,418.72964 h 91.11807 v 25.25986 h -91.11807 z"
       fill-rule="evenodd"
       id="path85" />
    <path
       stroke="#595959"
       stroke-width="1"
       stroke-linejoin="round"
       stroke-linecap="butt"
       d="m 443.33597,418.72964 h 91.11807 v 25.25986 h -91.11807 z"
       fill-rule="evenodd"
       id="path87" />
    <path
       fill="#f3f3f3"
       d="m 459.29718,437.45395 q -1.95312,0 -3,-1.45312 -1.03125,-1.45313 -1.03125,-4.5 0,-1.54688 0.29688,-2.60938 0.29687,-1.07812 0.82812,-1.75 0.53125,-0.67187 1.25,-0.96875 0.71875,-0.29687 1.5625,-0.29687 0.70313,0 1.3125,0.1875 0.60938,0.1875 1,0.45312 l -0.4375,1.20313 q -0.39062,-0.26563 -0.82812,-0.42188 -0.4375,-0.15625 -1.01563,-0.15625 -1.28125,0 -1.85937,1.0625 -0.5625,1.0625 -0.5625,3.29688 0,2.26562 0.59375,3.48437 0.60937,1.20313 2,1.20313 0.64062,0 1.04687,-0.15625 0.42188,-0.15625 0.79688,-0.40625 l 0.40625,1.125 q -0.375,0.29687 -0.96875,0.5 -0.59375,0.20312 -1.39063,0.20312 z m 9.09439,-4.42187 q 0,0.98437 -0.1875,1.79687 -0.17187,0.8125 -0.53125,1.39063 -0.35937,0.5625 -0.90625,0.89062 -0.54687,0.3125 -1.29687,0.3125 -0.76563,0 -1.32813,-0.3125 -0.54687,-0.32812 -0.90625,-0.89062 -0.35937,-0.57813 -0.54687,-1.39063 -0.17188,-0.8125 -0.17188,-1.79687 0,-0.98438 0.17188,-1.79688 0.1875,-0.8125 0.54687,-1.39062 0.35938,-0.59375 0.90625,-0.90625 0.5625,-0.32813 1.32813,-0.32813 0.75,0 1.29687,0.32813 0.54688,0.3125 0.90625,0.90625 0.35938,0.57812 0.53125,1.39062 0.1875,0.8125 0.1875,1.79688 z m -1.4375,0 q 0,-0.70313 -0.0781,-1.28125 -0.0781,-0.59375 -0.26563,-1.01563 -0.17187,-0.42187 -0.46875,-0.65625 -0.28125,-0.23437 -0.67187,-0.23437 -0.42188,0 -0.70313,0.23437 -0.28125,0.23438 -0.46875,0.65625 -0.17187,0.42188 -0.26562,1.01563 -0.0781,0.57812 -0.0781,1.28125 0,0.70312 0.0781,1.29687 0.0937,0.57813 0.26562,1 0.1875,0.40625 0.46875,0.64063 0.28125,0.21875 0.70313,0.21875 0.39062,0 0.67187,-0.21875 0.29688,-0.23438 0.46875,-0.64063 0.1875,-0.42187 0.26563,-1 0.0781,-0.59375 0.0781,-1.29687 z m 3.4549,-3.96875 q 0.59375,-0.1875 1.28125,-0.29688 0.6875,-0.125 1.26562,-0.125 0.625,0 1.125,0.17188 0.51563,0.17187 0.875,0.57812 0.35938,0.39063 0.5625,1.07813 0.20313,0.67187 0.20313,1.67187 v 5.07813 h -1.375 v -4.95313 q 0,-1.25 -0.32813,-1.82812 -0.3125,-0.57813 -1.20312,-0.57813 -0.45313,0 -1.03125,0.15625 v 7.20313 h -1.375 z m 8.88388,7.1875 q 0.60937,0 0.90625,-0.34375 0.3125,-0.34375 0.3125,-0.90625 0,-0.35938 -0.125,-0.60938 -0.125,-0.25 -0.34375,-0.4375 -0.20313,-0.1875 -0.46875,-0.34375 -0.26563,-0.15625 -0.54688,-0.32812 -0.26562,-0.15625 -0.53125,-0.375 -0.25,-0.21875 -0.45312,-0.5 -0.20313,-0.28125 -0.32813,-0.64063 -0.10937,-0.35937 -0.10937,-0.82812 0,-1.04688 0.64062,-1.6875 0.65625,-0.64063 1.76563,-0.64063 0.45312,0 0.875,0.125 0.42187,0.10938 0.6875,0.26563 l -0.29688,1.09375 q -0.29687,-0.15625 -0.59375,-0.23438 -0.28125,-0.0781 -0.60937,-0.0781 -0.51563,0 -0.82813,0.29687 -0.29687,0.29688 -0.29687,0.85938 0,0.3125 0.10937,0.54687 0.10938,0.23438 0.29688,0.42188 0.1875,0.17187 0.42187,0.34375 0.23438,0.15625 0.48438,0.29687 0.3125,0.17188 0.59375,0.39063 0.29687,0.20312 0.53125,0.48437 0.23437,0.28125 0.375,0.65625 0.15625,0.375 0.15625,0.90625 0,1.09375 -0.65625,1.76563 -0.64063,0.67187 -1.89063,0.67187 -0.64062,0 -1.15625,-0.17187 -0.51562,-0.17188 -0.76562,-0.3125 l 0.28125,-1.14063 q 0.25,0.125 0.65625,0.29688 0.40625,0.15625 0.90625,0.15625 z m 9.48727,0.73437 q -0.21875,0.0781 -0.51562,0.15625 -0.29688,0.0625 -0.625,0.10938 -0.32813,0.0625 -0.65625,0.0937 -0.3125,0.0469 -0.59375,0.0469 -0.65625,0 -1.20313,-0.15625 -0.54687,-0.14062 -0.9375,-0.51562 -0.375,-0.39063 -0.57812,-1.04688 -0.20313,-0.67187 -0.20313,-1.6875 v -5.17187 h 1.375 v 5.125 q 0,1.23437 0.375,1.73437 0.375,0.5 1.14063,0.5 0.25,0 0.5,-0.0156 0.26562,-0.0312 0.54687,-0.10938 v -7.23437 h 1.375 z m 2.4769,-7.92187 q 0.5625,-0.1875 1.21875,-0.29688 0.65625,-0.125 1.1875,-0.125 0.5625,0 1.01562,0.15625 0.46875,0.14063 0.8125,0.46875 0.42188,-0.26562 0.89063,-0.4375 0.48437,-0.1875 1.0625,-0.1875 0.57812,0 1.04687,0.17188 0.46875,0.17187 0.79688,0.57812 0.34375,0.39063 0.53125,1.07813 0.20312,0.67187 0.20312,1.67187 v 5.07813 h -1.375 v -4.95313 q 0,-1.25 -0.29687,-1.82812 -0.28125,-0.57813 -1.07813,-0.57813 -0.3125,0 -0.625,0.10938 -0.29687,0.10937 -0.57812,0.3125 0.125,0.35937 0.1875,0.82812 0.0625,0.46875 0.0625,1.03125 v 5.07813 h -1.375 v -4.95313 q 0,-1.25 -0.28125,-1.82812 -0.28125,-0.57813 -1.09375,-0.57813 -0.40625,0 -0.9375,0.15625 v 7.20313 h -1.375 z m 12.10553,4.35937 q 0.0156,0.60938 0.10937,1.125 0.10938,0.5 0.3125,0.875 0.21875,0.375 0.57813,0.57813 0.35937,0.20312 0.92187,0.20312 0.46875,0 0.85938,-0.125 0.39062,-0.14062 0.5625,-0.23437 l 0.26562,1.10937 q -0.21875,0.14063 -0.70312,0.29688 -0.48438,0.17187 -1.15625,0.17187 -0.875,0 -1.48438,-0.3125 -0.59375,-0.32812 -0.96875,-0.89062 -0.375,-0.57813 -0.54687,-1.375 -0.15625,-0.8125 -0.15625,-1.76563 0,-2.32812 0.76562,-3.39062 0.76563,-1.07813 2.03125,-1.07813 1.4375,0 2.01563,1.07813 0.59375,1.0625 0.59375,3 0,0.17187 0,0.35937 0,0.1875 -0.0156,0.375 z m 1.39062,-3.64062 q -0.6875,0 -1,0.6875 -0.3125,0.6875 -0.375,1.84375 h 2.54688 q 0,-1.17188 -0.25,-1.84375 -0.23438,-0.6875 -0.92188,-0.6875 z m 8.27289,0.28125 q -0.5,-0.21875 -1.14062,-0.21875 -0.59375,0 -1.10938,0.20312 v 7.17188 h -1.375 v -8.03125 q 0.46875,-0.21875 1.0625,-0.375 0.59375,-0.15625 1.3125,-0.15625 0.39063,0 0.76563,0.0469 0.39062,0.0469 0.73437,0.17188 z m 7.60242,1.1875 q 0.79687,0.28125 1.23437,1.01562 0.45313,0.73438 0.45313,1.875 0,1.54688 -0.75,2.4375 -0.75,0.875 -2.25,0.875 -0.59375,0 -1.15625,-0.17187 -0.54688,-0.17188 -0.96875,-0.46875 l 0.375,-1.10938 q 0.35937,0.21875 0.76562,0.39063 0.40625,0.15625 0.85938,0.15625 0.8125,0 1.26562,-0.5 0.46875,-0.51563 0.46875,-1.625 0,-1.09375 -0.51562,-1.65625 -0.5,-0.5625 -1.60938,-0.5625 h -0.40625 v -1.17188 h 0.34375 q 0.96875,0 1.42188,-0.5 0.46875,-0.51562 0.46875,-1.4375 0,-0.85937 -0.375,-1.28125 -0.35938,-0.42187 -0.96875,-0.42187 -0.40625,0 -0.79688,0.15625 -0.375,0.15625 -0.64062,0.40625 l -0.54688,-1.01563 q 0.42188,-0.375 0.98438,-0.5625 0.57812,-0.20312 1.125,-0.20312 1.25,0 1.92187,0.78125 0.67188,0.78125 0.67188,2.07812 0,0.92188 -0.35938,1.5625 -0.35937,0.625 -1.01562,0.95313 z"
       fill-rule="nonzero"
       id="path89" />
    <path
       fill="#000000"
       fill-opacity="0"
       d="m 253.65355,232.96326 c 47.42015,0 71.13167,28.40158 94.84032,56.80316 23.70868,28.40155 47.41449,56.80313 94.82898,56.80313"
       fill-rule="evenodd"
       id="path91" />
    <path
       stroke="#efefef"
       stroke-width="2"
       stroke-linejoin="round"
       stroke-linecap="butt"
       stroke-dasharray="8, 6"
       d="m 253.65355,232.96326 c 47.42018,0 71.13167,28.40158 94.84035,56.80316 11.85431,14.20077 23.70795,28.40155 38.52475,39.05215 7.40845,5.32529 15.55768,9.76304 24.81821,12.86945 4.63025,1.55322 9.53836,2.77359 14.7706,3.60571 1.30801,0.20798 2.63635,0.39176 3.98562,0.55036 l 0.74689,0.084"
       fill-rule="evenodd"
       id="path93" />
    <path
       fill="#efefef"
       stroke="#efefef"
       stroke-width="2"
       stroke-linecap="butt"
       d="m 431.1634,349.2268 9.23981,-2.81354 -8.8866,-3.78393 z"
       fill-rule="evenodd"
       id="path95" />
    <path
       fill="#000000"
       fill-opacity="0"
       d="m 253.65355,275.3622 c 47.42015,0 71.13167,28.40158 94.84032,56.80313 23.70868,28.40158 47.41449,56.80316 94.82898,56.80316"
       fill-rule="evenodd"
       id="path97" />
    <path
       stroke="#efefef"
       stroke-width="2"
       stroke-linejoin="round"
       stroke-linecap="butt"
       stroke-dasharray="8, 6"
       d="m 253.65355,275.3622 c 47.42018,0 71.13167,28.40158 94.84035,56.80313 11.85431,14.20081 23.70795,28.40158 38.52475,39.05218 7.40845,5.32529 15.55768,9.76304 24.81821,12.86945 4.63025,1.55319 9.53836,2.77359 14.7706,3.60568 1.30801,0.20801 2.63635,0.39179 3.98562,0.55039 l 0.74689,0.084"
       fill-rule="evenodd"
       id="path99" />
    <path
       fill="#efefef"
       stroke="#efefef"
       stroke-width="2"
       stroke-linecap="butt"
       d="m 431.1634,391.62576 9.23981,-2.81357 -8.8866,-3.7839 z"
       fill-rule="evenodd"
       id="path101" />
    <path
       fill="#000000"
       fill-opacity="0"
       d="m 253.65355,317.76117 c 47.42015,0 71.13167,28.40155 94.84032,56.80313 23.70868,28.40158 47.41449,56.80316 94.82898,56.80316"
       fill-rule="evenodd"
       id="path103" />
    <path
       stroke="#efefef"
       stroke-width="2"
       stroke-linejoin="round"
       stroke-linecap="butt"
       stroke-dasharray="8, 6"
       d="m 253.65355,317.76117 c 47.42018,0 71.13167,28.40155 94.84035,56.80313 11.85431,14.20081 23.70795,28.40158 38.52475,39.05215 7.40845,5.32532 15.55768,9.76307 24.81821,12.86948 4.63025,1.55319 9.53836,2.77359 14.7706,3.60568 1.30801,0.20801 2.63635,0.39179 3.98562,0.55036 l 0.74689,0.084"
       fill-rule="evenodd"
       id="path105" />
    <path
       fill="#efefef"
       stroke="#efefef"
       stroke-width="2"
       stroke-linecap="butt"
       d="m 431.1634,434.02472 9.23981,-2.81357 -8.8866,-3.78393 z"
       fill-rule="evenodd"
       id="path107" />
  </g>
</svg>
