<?xml version="1.0" encoding="UTF-8" standalone="no"?>
<svg
   version="1.1"
   viewBox="0 0 814.06952 336.63647"
   fill="none"
   stroke="none"
   stroke-linecap="square"
   stroke-miterlimit="10"
   id="svg15483"
   sodipodi:docname="consumer.svg"
   width="814.06952"
   height="336.63647"
   inkscape:version="1.2.1 (9c6d41e410, 2022-07-14)"
   xmlns:inkscape="http://www.inkscape.org/namespaces/inkscape"
   xmlns:sodipodi="http://sodipodi.sourceforge.net/DTD/sodipodi-0.dtd"
   xmlns="http://www.w3.org/2000/svg"
   xmlns:svg="http://www.w3.org/2000/svg">
  <defs
     id="defs15487" />
  <sodipodi:namedview
     id="namedview15485"
     pagecolor="#ffffff"
     bordercolor="#666666"
     borderopacity="1.0"
     inkscape:showpageshadow="2"
     inkscape:pageopacity="0.0"
     inkscape:pagecheckerboard="0"
     inkscape:deskcolor="#d1d1d1"
     showgrid="false"
     inkscape:zoom="1.3552083"
     inkscape:cx="406.9485"
     inkscape:cy="199.23136"
     inkscape:window-width="1920"
     inkscape:window-height="1011"
     inkscape:window-x="0"
     inkscape:window-y="32"
     inkscape:window-maximized="1"
     inkscape:current-layer="svg15483" />
  <clipPath
     id="g1c6379caa62_0_667.0">
    <path
       d="M 0,0 H 960 V 540 H 0 Z"
       clip-rule="nonzero"
       id="path15124" />
  </clipPath>
  <g
     clip-path="url(#g1c6379caa62_0_667.0)"
     id="g15481"
     transform="translate(-73.215225,-70.69948)">
    <path
       fill="#000000"
       fill-opacity="0"
       d="m 166.78477,71.19948 h 720 v 174.86613 h -720 z"
       fill-rule="evenodd"
       id="path15129" />
    <path
       stroke="#f3f3f3"
       stroke-width="1"
       stroke-linejoin="round"
       stroke-linecap="butt"
       d="m 166.78477,71.19948 h 720 v 174.86613 h -720 z"
       fill-rule="evenodd"
       id="path15131" />
    <path
       fill="#eeeeee"
       d="m 815.8494,97.28904 h 50.11023 v 44.00001 H 815.8494 Z"
       fill-rule="evenodd"
       id="path15133" />
    <path
       fill="#eeeeee"
       d="m 286.8741,97.1811 h 528.4724 v 44.15748 H 286.8741 Z"
       fill-rule="evenodd"
       id="path15135" />
    <path
       stroke="#595959"
       stroke-width="1"
       stroke-linejoin="round"
       stroke-linecap="butt"
       d="m 286.8741,97.1811 h 528.4724 v 44.15748 H 286.8741 Z"
       fill-rule="evenodd"
       id="path15137" />
    <path
       fill="#000000"
       fill-opacity="0"
       d="m 295.25354,98.25197 h 29.60629 v 42.01575 h -29.60629 z"
       fill-rule="evenodd"
       id="path15139" />
    <path
       fill="#000000"
       d="m 305.56604,114.81259 q 0.34375,-0.20312 0.71875,-0.5 0.39062,-0.29687 0.75,-0.64062 0.35937,-0.34375 0.65625,-0.70313 0.3125,-0.375 0.51562,-0.71875 h 1.23438 v 12.92188 h -1.60938 v -10.39063 q -0.3125,0.32813 -0.73437,0.64063 -0.42188,0.29687 -0.89063,0.54687 z"
       fill-rule="nonzero"
       id="path15141" />
    <path
       fill="#000000"
       fill-opacity="0"
       d="m 331.2546,98.06036 v 44"
       fill-rule="evenodd"
       id="path15143" />
    <path
       stroke="#595959"
       stroke-width="1"
       stroke-linejoin="round"
       stroke-linecap="butt"
       d="m 331.2546,98.06036 v 44"
       fill-rule="evenodd"
       id="path15145" />
    <path
       fill="#000000"
       fill-opacity="0"
       d="m 375.26352,98.06036 v 44"
       fill-rule="evenodd"
       id="path15147" />
    <path
       stroke="#595959"
       stroke-width="1"
       stroke-linejoin="round"
       stroke-linecap="butt"
       d="m 375.26352,98.06036 v 44"
       fill-rule="evenodd"
       id="path15149" />
    <path
       fill="#000000"
       fill-opacity="0"
       d="m 339.25485,98.25197 h 29.60629 v 42.01575 h -29.60629 z"
       fill-rule="evenodd"
       id="path15151" />
    <path
       fill="#000000"
       d="m 350.87503,113.04697 q 1.09375,-1.10937 2.67187,-1.10937 1.51563,0 2.3125,0.79687 0.8125,0.79688 0.8125,2.46875 0,0.79688 -0.26562,1.5 -0.26563,0.70313 -0.65625,1.375 -0.39063,0.65625 -0.85938,1.3125 -0.45312,0.65625 -0.89062,1.34375 -0.42188,0.67188 -0.75,1.40625 -0.3125,0.73438 -0.39063,1.57813 h 4.07813 v 1.45312 h -5.79688 v -0.35937 q 0,-1.25 0.28125,-2.21875 0.29688,-0.96875 0.71875,-1.75 0.42188,-0.78125 0.92188,-1.45313 0.51562,-0.67187 0.92187,-1.3125 0.42188,-0.65625 0.70313,-1.32812 0.29687,-0.6875 0.29687,-1.5 0,-0.98438 -0.39062,-1.42188 -0.39063,-0.45312 -1.17188,-0.45312 -0.54687,0 -0.98437,0.21875 -0.4375,0.21875 -0.78125,0.54687 z"
       fill-rule="nonzero"
       id="path15153" />
    <path
       fill="#000000"
       fill-opacity="0"
       d="m 375.26248,98.06036 v 44"
       fill-rule="evenodd"
       id="path15155" />
    <path
       stroke="#595959"
       stroke-width="1"
       stroke-linejoin="round"
       stroke-linecap="butt"
       d="m 375.26248,98.06036 v 44"
       fill-rule="evenodd"
       id="path15157" />
    <path
       fill="#000000"
       fill-opacity="0"
       d="m 419.2714,98.06036 v 44"
       fill-rule="evenodd"
       id="path15159" />
    <path
       stroke="#595959"
       stroke-width="1"
       stroke-linejoin="round"
       stroke-linecap="butt"
       d="m 419.2714,98.06036 v 44"
       fill-rule="evenodd"
       id="path15161" />
    <path
       fill="#000000"
       fill-opacity="0"
       d="m 383.26273,98.25197 h 29.60629 v 42.01575 h -29.60629 z"
       fill-rule="evenodd"
       id="path15163" />
    <path
       fill="#000000"
       d="m 398.85165,118.21884 q 0.9375,0.32813 1.4375,1.1875 0.51562,0.84375 0.51562,2.1875 0,1.78125 -0.875,2.82813 -0.85937,1.03125 -2.60937,1.03125 -0.6875,0 -1.34375,-0.20313 -0.65625,-0.20312 -1.14063,-0.54687 l 0.4375,-1.29688 q 0.42188,0.25 0.89063,0.4375 0.48437,0.1875 1,0.1875 0.95312,0 1.48437,-0.57812 0.53125,-0.59375 0.53125,-1.875 0,-1.29688 -0.59375,-1.9375 -0.57812,-0.65625 -1.85937,-0.65625 h -0.48438 v -1.375 h 0.40625 q 1.125,0 1.65625,-0.59375 0.54688,-0.59375 0.54688,-1.65625 0,-1.01563 -0.4375,-1.5 -0.42188,-0.5 -1.125,-0.5 -0.48438,0 -0.9375,0.1875 -0.4375,0.1875 -0.75,0.46875 l -0.625,-1.17188 q 0.48437,-0.45312 1.14062,-0.67187 0.65625,-0.23438 1.3125,-0.23438 1.45313,0 2.23438,0.92188 0.79687,0.90625 0.79687,2.42187 0,1.0625 -0.42187,1.8125 -0.42188,0.73438 -1.1875,1.125 z"
       fill-rule="nonzero"
       id="path15165" />
    <path
       fill="#000000"
       fill-opacity="0"
       d="m 419.27036,98.06036 v 44"
       fill-rule="evenodd"
       id="path15167" />
    <path
       stroke="#595959"
       stroke-width="1"
       stroke-linejoin="round"
       stroke-linecap="butt"
       d="m 419.27036,98.06036 v 44"
       fill-rule="evenodd"
       id="path15169" />
    <path
       fill="#000000"
       fill-opacity="0"
       d="m 463.27927,98.06036 v 44"
       fill-rule="evenodd"
       id="path15171" />
    <path
       stroke="#595959"
       stroke-width="1"
       stroke-linejoin="round"
       stroke-linecap="butt"
       d="m 463.27927,98.06036 v 44"
       fill-rule="evenodd"
       id="path15173" />
    <path
       fill="#000000"
       fill-opacity="0"
       d="m 427.2706,98.25197 h 29.60629 v 42.01575 H 427.2706 Z"
       fill-rule="evenodd"
       id="path15175" />
    <path
       fill="#000000"
       d="m 438.57794,125.17197 v -1.875 h 1.875 v 1.875 z m 5.18332,0 v -1.875 h 1.875 v 1.875 z"
       fill-rule="nonzero"
       id="path15177" />
    <path
       fill="#000000"
       fill-opacity="0"
       d="m 463.27823,98.06036 v 44"
       fill-rule="evenodd"
       id="path15179" />
    <path
       stroke="#595959"
       stroke-width="1"
       stroke-linejoin="round"
       stroke-linecap="butt"
       d="m 463.27823,98.06036 v 44"
       fill-rule="evenodd"
       id="path15181" />
    <path
       fill="#000000"
       fill-opacity="0"
       d="m 507.28714,98.06036 v 44"
       fill-rule="evenodd"
       id="path15183" />
    <path
       stroke="#595959"
       stroke-width="1"
       stroke-linejoin="round"
       stroke-linecap="butt"
       d="m 507.28714,98.06036 v 44"
       fill-rule="evenodd"
       id="path15185" />
    <path
       fill="#000000"
       fill-opacity="0"
       d="m 471.27847,98.25197 h 29.60629 v 42.01575 h -29.60629 z"
       fill-rule="evenodd"
       id="path15187" />
    <path
       fill="#000000"
       d="m 482.58582,125.17197 v -1.875 h 1.875 v 1.875 z m 5.18332,0 v -1.875 h 1.875 v 1.875 z"
       fill-rule="nonzero"
       id="path15189" />
    <path
       fill="#000000"
       fill-opacity="0"
       d="m 507.2861,98.06036 v 44"
       fill-rule="evenodd"
       id="path15191" />
    <path
       stroke="#595959"
       stroke-width="1"
       stroke-linejoin="round"
       stroke-linecap="butt"
       d="m 507.2861,98.06036 v 44"
       fill-rule="evenodd"
       id="path15193" />
    <path
       fill="#000000"
       fill-opacity="0"
       d="m 551.295,98.06036 v 44"
       fill-rule="evenodd"
       id="path15195" />
    <path
       stroke="#595959"
       stroke-width="1"
       stroke-linejoin="round"
       stroke-linecap="butt"
       d="m 551.295,98.06036 v 44"
       fill-rule="evenodd"
       id="path15197" />
    <path
       fill="#000000"
       fill-opacity="0"
       d="m 515.2864,98.25197 h 29.60626 v 42.01575 H 515.2864 Z"
       fill-rule="evenodd"
       id="path15199" />
    <path
       fill="#000000"
       d="m 526.5937,125.17197 v -1.875 h 1.875 v 1.875 z m 5.18329,0 v -1.875 h 1.875 v 1.875 z"
       fill-rule="nonzero"
       id="path15201" />
    <path
       fill="#000000"
       fill-opacity="0"
       d="m 551.29395,98.06036 v 44"
       fill-rule="evenodd"
       id="path15203" />
    <path
       stroke="#595959"
       stroke-width="1"
       stroke-linejoin="round"
       stroke-linecap="butt"
       d="m 551.29395,98.06036 v 44"
       fill-rule="evenodd"
       id="path15205" />
    <path
       fill="#000000"
       fill-opacity="0"
       d="m 595.3029,98.06036 v 44"
       fill-rule="evenodd"
       id="path15207" />
    <path
       stroke="#595959"
       stroke-width="1"
       stroke-linejoin="round"
       stroke-linecap="butt"
       d="m 595.3029,98.06036 v 44"
       fill-rule="evenodd"
       id="path15209" />
    <path
       fill="#000000"
       fill-opacity="0"
       d="m 559.29425,98.25197 h 29.60626 v 42.01575 h -29.60626 z"
       fill-rule="evenodd"
       id="path15211" />
    <path
       fill="#000000"
       d="m 570.60156,125.17197 v -1.875 h 1.875 v 1.875 z m 5.18329,0 v -1.875 h 1.875 v 1.875 z"
       fill-rule="nonzero"
       id="path15213" />
    <path
       fill="#000000"
       fill-opacity="0"
       d="m 595.3018,98.06036 v 44"
       fill-rule="evenodd"
       id="path15215" />
    <path
       stroke="#595959"
       stroke-width="1"
       stroke-linejoin="round"
       stroke-linecap="butt"
       d="m 595.3018,98.06036 v 44"
       fill-rule="evenodd"
       id="path15217" />
    <path
       fill="#000000"
       fill-opacity="0"
       d="m 639.3108,98.06036 v 44"
       fill-rule="evenodd"
       id="path15219" />
    <path
       stroke="#595959"
       stroke-width="1"
       stroke-linejoin="round"
       stroke-linecap="butt"
       d="m 639.3108,98.06036 v 44"
       fill-rule="evenodd"
       id="path15221" />
    <path
       fill="#000000"
       fill-opacity="0"
       d="m 603.3021,98.25197 h 29.60626 v 42.01575 H 603.3021 Z"
       fill-rule="evenodd"
       id="path15223" />
    <path
       fill="#000000"
       d="m 614.60944,125.17197 v -1.875 h 1.875 v 1.875 z m 5.18329,0 v -1.875 h 1.875 v 1.875 z"
       fill-rule="nonzero"
       id="path15225" />
    <path
       fill="#000000"
       fill-opacity="0"
       d="m 639.3097,97.25984 v 44"
       fill-rule="evenodd"
       id="path15227" />
    <path
       stroke="#595959"
       stroke-width="1"
       stroke-linejoin="round"
       stroke-linecap="butt"
       d="m 639.3097,97.25984 v 44"
       fill-rule="evenodd"
       id="path15229" />
    <path
       fill="#000000"
       fill-opacity="0"
       d="m 683.31866,97.25984 v 44"
       fill-rule="evenodd"
       id="path15231" />
    <path
       stroke="#595959"
       stroke-width="1"
       stroke-linejoin="round"
       stroke-linecap="butt"
       d="m 683.31866,97.25984 v 44"
       fill-rule="evenodd"
       id="path15233" />
    <path
       fill="#000000"
       fill-opacity="0"
       d="m 647.31,97.45145 h 29.60626 V 139.4672 H 647.31 Z"
       fill-rule="evenodd"
       id="path15235" />
    <path
       fill="#000000"
       d="m 658.6173,124.37144 v -1.875 h 1.875 v 1.875 z m 5.18329,0 v -1.875 h 1.875 v 1.875 z"
       fill-rule="nonzero"
       id="path15237" />
    <path
       fill="#000000"
       fill-opacity="0"
       d="m 683.31757,97.25984 v 44"
       fill-rule="evenodd"
       id="path15239" />
    <path
       stroke="#595959"
       stroke-width="1"
       stroke-linejoin="round"
       stroke-linecap="butt"
       d="m 683.31757,97.25984 v 44"
       fill-rule="evenodd"
       id="path15241" />
    <path
       fill="#000000"
       fill-opacity="0"
       d="m 727.32654,97.25984 v 44"
       fill-rule="evenodd"
       id="path15243" />
    <path
       stroke="#595959"
       stroke-width="1"
       stroke-linejoin="round"
       stroke-linecap="butt"
       d="m 727.32654,97.25984 v 44"
       fill-rule="evenodd"
       id="path15245" />
    <path
       fill="#000000"
       fill-opacity="0"
       d="m 691.3179,97.45145 h 29.60626 V 139.4672 H 691.3179 Z"
       fill-rule="evenodd"
       id="path15247" />
    <path
       fill="#000000"
       d="m 702.6252,124.37144 v -1.875 h 1.875 v 1.875 z m 5.18329,0 v -1.875 h 1.875 v 1.875 z"
       fill-rule="nonzero"
       id="path15249" />
    <path
       fill="#000000"
       fill-opacity="0"
       d="m 727.32544,97.25984 v 44"
       fill-rule="evenodd"
       id="path15251" />
    <path
       stroke="#595959"
       stroke-width="1"
       stroke-linejoin="round"
       stroke-linecap="butt"
       d="m 727.32544,97.25984 v 44"
       fill-rule="evenodd"
       id="path15253" />
    <path
       fill="#000000"
       fill-opacity="0"
       d="m 771.3344,97.25984 v 44"
       fill-rule="evenodd"
       id="path15255" />
    <path
       stroke="#595959"
       stroke-width="1"
       stroke-linejoin="round"
       stroke-linecap="butt"
       d="m 771.3344,97.25984 v 44"
       fill-rule="evenodd"
       id="path15257" />
    <path
       fill="#000000"
       fill-opacity="0"
       d="M 735.32574,97.45145 H 764.932 v 42.01575 h -29.60626 z"
       fill-rule="evenodd"
       id="path15259" />
    <path
       fill="#000000"
       d="m 746.63306,124.37144 v -1.875 h 1.875 v 1.875 z m 5.18329,0 v -1.875 h 1.875 v 1.875 z"
       fill-rule="nonzero"
       id="path15261" />
    <path
       fill="#000000"
       fill-opacity="0"
       d="m 771.3333,97.25984 v 44"
       fill-rule="evenodd"
       id="path15263" />
    <path
       stroke="#595959"
       stroke-width="1"
       stroke-linejoin="round"
       stroke-linecap="butt"
       d="m 771.3333,97.25984 v 44"
       fill-rule="evenodd"
       id="path15265" />
    <path
       fill="#000000"
       fill-opacity="0"
       d="m 815.3423,97.25984 v 44"
       fill-rule="evenodd"
       id="path15267" />
    <path
       stroke="#595959"
       stroke-width="1"
       stroke-linejoin="round"
       stroke-linecap="butt"
       d="m 815.3423,97.25984 v 44"
       fill-rule="evenodd"
       id="path15269" />
    <path
       fill="#000000"
       fill-opacity="0"
       d="m 779.3336,97.45145 h 29.60626 V 139.4672 H 779.3336 Z"
       fill-rule="evenodd"
       id="path15271" />
    <path
       fill="#000000"
       d="m 791.0937,114.85582 q 0.6875,-0.20313 1.48437,-0.34375 0.8125,-0.14063 1.48438,-0.14063 0.73437,0 1.32812,0.20313 0.59375,0.1875 1.01563,0.65625 0.42187,0.46875 0.65625,1.26562 0.23437,0.78125 0.23437,1.96875 v 5.90625 h -1.60937 v -5.78125 q 0,-1.45312 -0.375,-2.125 -0.375,-0.67187 -1.40625,-0.67187 -0.53125,0 -1.20313,0.1875 v 8.39062 h -1.60937 z"
       fill-rule="nonzero"
       id="path15273" />
    <path
       fill="#000000"
       fill-opacity="0"
       d="m 866.1522,97.25984 v 44"
       fill-rule="evenodd"
       id="path15275" />
    <path
       stroke="#595959"
       stroke-width="1"
       stroke-linejoin="round"
       stroke-linecap="butt"
       stroke-dasharray="4, 3"
       d="m 866.1522,97.25984 v 44"
       fill-rule="evenodd"
       id="path15277" />
    <path
       fill="#000000"
       fill-opacity="0"
       d="m 815.2546,97.136024 h 51.05511"
       fill-rule="evenodd"
       id="path15279" />
    <path
       stroke="#595959"
       stroke-width="1"
       stroke-linejoin="round"
       stroke-linecap="butt"
       stroke-dasharray="4, 3"
       d="m 815.2546,97.136024 h 51.05511"
       fill-rule="evenodd"
       id="path15281" />
    <path
       fill="#000000"
       fill-opacity="0"
       d="m 815.3412,141.36772 h 50.96063"
       fill-rule="evenodd"
       id="path15283" />
    <path
       stroke="#595959"
       stroke-width="1"
       stroke-linejoin="round"
       stroke-linecap="butt"
       stroke-dasharray="4, 3"
       d="m 815.3412,141.36772 h 50.96063"
       fill-rule="evenodd"
       id="path15285" />
    <path
       fill="#000000"
       fill-opacity="0"
       d="m 813.48816,98.244095 h 52.47247 v 42.015745 h -52.47247 z"
       fill-rule="evenodd"
       id="path15287" />
    <path
       fill="#000000"
       d="m 828.6592,115.64847 q 0.6875,-0.20312 1.48438,-0.34375 0.8125,-0.14062 1.48437,-0.14062 0.73438,0 1.32813,0.20312 0.59375,0.1875 1.01562,0.65625 0.42188,0.46875 0.65625,1.26563 0.23438,0.78125 0.23438,1.96875 v 5.90625 h -1.60938 v -5.78125 q 0,-1.45313 -0.375,-2.125 -0.375,-0.67188 -1.40625,-0.67188 -0.53125,0 -1.20312,0.1875 v 8.39063 h -1.60938 z m 8.33606,3.25 h 2.53125 v -2.6875 h 1.375 v 2.6875 h 2.51563 v 1.35938 h -2.51563 v 2.70312 h -1.375 v -2.70312 h -2.53125 z m 8.53784,-4.09375 q 0.34375,-0.20312 0.71875,-0.5 0.39063,-0.29687 0.75,-0.64062 0.35938,-0.34375 0.65625,-0.70313 0.3125,-0.375 0.51563,-0.71875 h 1.23437 v 12.92188 h -1.60937 v -10.39063 q -0.3125,0.32813 -0.73438,0.64063 -0.42187,0.29687 -0.89062,0.54687 z"
       fill-rule="nonzero"
       id="path15289" />
    <path
       fill="#000000"
       fill-opacity="0"
       d="m 73.215225,137.62466 h 81.007865 v 42.01576 H 73.215225 Z"
       fill-rule="evenodd"
       id="path15291" />
    <path
       fill="#f3f3f3"
       d="m 89.902725,151.62279 v 1.42187 h -2.875 v 11.5 H 85.35585 v -11.5 h -2.875 v -1.42187 z m 6.983398,8.03125 q 0,1.15625 -0.21875,2.10937 -0.203125,0.9375 -0.625,1.60938 -0.40625,0.67187 -1.0625,1.04687 -0.640625,0.375 -1.515625,0.375 -0.875,0 -1.53125,-0.375 -0.65625,-0.375 -1.078125,-1.04687 -0.40625,-0.67188 -0.625,-1.60938 -0.203125,-0.95312 -0.203125,-2.10937 0,-1.14063 0.203125,-2.07813 0.21875,-0.95312 0.625,-1.64062 0.421875,-0.6875 1.078125,-1.04688 0.65625,-0.375 1.53125,-0.375 0.875,0 1.515625,0.375 0.65625,0.35938 1.0625,1.04688 0.421875,0.6875 0.625,1.64062 0.21875,0.9375 0.21875,2.07813 z m -1.6875,0 q 0,-0.8125 -0.09375,-1.5 -0.09375,-0.6875 -0.296875,-1.17188 -0.203125,-0.5 -0.546875,-0.76562 -0.328125,-0.26563 -0.796875,-0.26563 -0.484375,0 -0.8125,0.26563 -0.328125,0.26562 -0.546875,0.76562 -0.203125,0.48438 -0.296875,1.17188 -0.09375,0.6875 -0.09375,1.5 0,0.82812 0.09375,1.51562 0.09375,0.67188 0.296875,1.15625 0.21875,0.48438 0.546875,0.76563 0.328125,0.26562 0.8125,0.26562 0.46875,0 0.796875,-0.26562 0.34375,-0.28125 0.546875,-0.76563 0.203125,-0.48437 0.296875,-1.15625 0.09375,-0.6875 0.09375,-1.51562 z m 5.622227,3.42187 q 0.53125,0.29688 1.15625,0.29688 0.46875,0 0.8125,-0.1875 0.35937,-0.1875 0.60937,-0.60938 0.25,-0.4375 0.375,-1.14062 0.14063,-0.71875 0.14063,-1.76563 0,-2.01562 -0.51563,-2.875 -0.51562,-0.875 -1.625,-0.875 -0.21875,0 -0.46875,0.0312 -0.23437,0.0312 -0.48437,0.10938 z m 0,4.92188 h -1.609379 v -12.98438 q 0.515625,-0.21875 1.171879,-0.35937 0.67187,-0.14063 1.35937,-0.14063 1.03125,0 1.76563,0.35938 0.73437,0.34375 1.1875,1.01562 0.46875,0.65625 0.67187,1.625 0.21875,0.95313 0.21875,2.1875 0,2.46875 -0.79687,3.78125 -0.78125,1.3125 -2.57813,1.3125 -0.42187,0 -0.76562,-0.0937 -0.32813,-0.0781 -0.625,-0.23437 z m 8.72808,-3.45313 h -1.60937 v -9.79687 h 1.60937 z m -0.8125,-11.53125 q -0.42187,0 -0.73437,-0.28125 -0.29688,-0.29687 -0.29688,-0.78125 0,-0.48437 0.29688,-0.76562 0.3125,-0.29688 0.73437,-0.29688 0.4375,0 0.73438,0.29688 0.3125,0.28125 0.3125,0.76562 0,0.48438 -0.3125,0.78125 -0.29688,0.28125 -0.73438,0.28125 z m 6.70232,11.78125 q -1,0 -1.67187,-0.39062 -0.67188,-0.40625 -1.09375,-1.07813 -0.42188,-0.6875 -0.60938,-1.60937 -0.17187,-0.9375 -0.17187,-2.04688 0,-2.42187 0.89062,-3.78125 0.89063,-1.375 2.67188,-1.375 0.54687,0 0.96875,0.125 0.4375,0.125 0.8125,0.32813 l -0.40625,1.32812 q -0.57813,-0.375 -1.29688,-0.375 -1,0 -1.48437,0.92188 -0.46875,0.90625 -0.46875,2.82812 0,0.8125 0.0937,1.5 0.0937,0.67188 0.32812,1.15625 0.23438,0.48438 0.60938,0.76563 0.39062,0.28125 0.98437,0.28125 0.40625,0 0.73438,-0.0937 0.32812,-0.10938 0.625,-0.28125 l 0.35937,1.25 q -0.3125,0.20312 -0.8125,0.375 -0.48437,0.17187 -1.0625,0.17187 z m 11.36426,-13.17187 q 0.45312,1.39062 0.89062,2.82812 0.4375,1.42188 0.85938,2.98438 0.42187,1.5625 0.82812,3.32812 0.42188,1.75 0.85938,3.78125 h -1.6875 q -0.14063,-0.84375 -0.3125,-1.65625 -0.15625,-0.82812 -0.3125,-1.64062 h -4.07813 q -0.1875,0.8125 -0.34375,1.64062 -0.14062,0.8125 -0.28125,1.65625 h -1.625 q 0.40625,-2.03125 0.82813,-3.78125 0.4375,-1.76562 0.85937,-3.32812 0.42188,-1.5625 0.85938,-2.98438 0.4375,-1.4375 0.89062,-2.82812 z m -0.90625,1.89062 q -0.46875,1.54688 -0.90625,3.125 -0.42188,1.5625 -0.8125,3.20313 h 3.40625 q -0.375,-1.64063 -0.8125,-3.20313 -0.42188,-1.57812 -0.875,-3.125 z"
       fill-rule="nonzero"
       id="path15293" />
    <path
       fill="#eeeeee"
       d="m 815.8494,175.69061 h 50.11023 v 44 H 815.8494 Z"
       fill-rule="evenodd"
       id="path15295" />
    <path
       fill="#eeeeee"
       d="m 286.8741,175.58267 h 528.4724 v 44.15749 H 286.8741 Z"
       fill-rule="evenodd"
       id="path15297" />
    <path
       stroke="#595959"
       stroke-width="1"
       stroke-linejoin="round"
       stroke-linecap="butt"
       d="m 286.8741,175.58267 h 528.4724 v 44.15749 H 286.8741 Z"
       fill-rule="evenodd"
       id="path15299" />
    <path
       fill="#000000"
       fill-opacity="0"
       d="m 295.25354,176.65355 h 29.60629 v 42.01575 h -29.60629 z"
       fill-rule="evenodd"
       id="path15301" />
    <path
       fill="#000000"
       d="m 305.56604,193.21417 q 0.34375,-0.20313 0.71875,-0.5 0.39062,-0.29688 0.75,-0.64063 0.35937,-0.34375 0.65625,-0.70312 0.3125,-0.375 0.51562,-0.71875 h 1.23438 v 12.92187 h -1.60938 v -10.39062 q -0.3125,0.32812 -0.73437,0.64062 -0.42188,0.29688 -0.89063,0.54688 z"
       fill-rule="nonzero"
       id="path15303" />
    <path
       fill="#000000"
       fill-opacity="0"
       d="m 331.2546,176.46194 v 44"
       fill-rule="evenodd"
       id="path15305" />
    <path
       stroke="#595959"
       stroke-width="1"
       stroke-linejoin="round"
       stroke-linecap="butt"
       d="m 331.2546,176.46194 v 44"
       fill-rule="evenodd"
       id="path15307" />
    <path
       fill="#000000"
       fill-opacity="0"
       d="m 375.26352,176.46194 v 44"
       fill-rule="evenodd"
       id="path15309" />
    <path
       stroke="#595959"
       stroke-width="1"
       stroke-linejoin="round"
       stroke-linecap="butt"
       d="m 375.26352,176.46194 v 44"
       fill-rule="evenodd"
       id="path15311" />
    <path
       fill="#000000"
       fill-opacity="0"
       d="m 339.25485,176.65355 h 29.60629 v 42.01575 h -29.60629 z"
       fill-rule="evenodd"
       id="path15313" />
    <path
       fill="#000000"
       d="m 350.87503,191.44855 q 1.09375,-1.10938 2.67187,-1.10938 1.51563,0 2.3125,0.79688 0.8125,0.79687 0.8125,2.46875 0,0.79687 -0.26562,1.5 -0.26563,0.70312 -0.65625,1.375 -0.39063,0.65625 -0.85938,1.3125 -0.45312,0.65625 -0.89062,1.34375 -0.42188,0.67187 -0.75,1.40625 -0.3125,0.73437 -0.39063,1.57812 h 4.07813 v 1.45313 h -5.79688 v -0.35938 q 0,-1.25 0.28125,-2.21875 0.29688,-0.96875 0.71875,-1.75 0.42188,-0.78125 0.92188,-1.45312 0.51562,-0.67188 0.92187,-1.3125 0.42188,-0.65625 0.70313,-1.32813 0.29687,-0.6875 0.29687,-1.5 0,-0.98437 -0.39062,-1.42187 -0.39063,-0.45313 -1.17188,-0.45313 -0.54687,0 -0.98437,0.21875 -0.4375,0.21875 -0.78125,0.54688 z"
       fill-rule="nonzero"
       id="path15315" />
    <path
       fill="#000000"
       fill-opacity="0"
       d="m 375.26248,176.46194 v 44"
       fill-rule="evenodd"
       id="path15317" />
    <path
       stroke="#595959"
       stroke-width="1"
       stroke-linejoin="round"
       stroke-linecap="butt"
       d="m 375.26248,176.46194 v 44"
       fill-rule="evenodd"
       id="path15319" />
    <path
       fill="#000000"
       fill-opacity="0"
       d="m 419.2714,176.46194 v 44"
       fill-rule="evenodd"
       id="path15321" />
    <path
       stroke="#595959"
       stroke-width="1"
       stroke-linejoin="round"
       stroke-linecap="butt"
       d="m 419.2714,176.46194 v 44"
       fill-rule="evenodd"
       id="path15323" />
    <path
       fill="#000000"
       fill-opacity="0"
       d="m 383.26273,176.65355 h 29.60629 v 42.01575 h -29.60629 z"
       fill-rule="evenodd"
       id="path15325" />
    <path
       fill="#000000"
       d="m 398.85165,196.62042 q 0.9375,0.32812 1.4375,1.1875 0.51562,0.84375 0.51562,2.1875 0,1.78125 -0.875,2.82812 -0.85937,1.03125 -2.60937,1.03125 -0.6875,0 -1.34375,-0.20312 -0.65625,-0.20313 -1.14063,-0.54688 l 0.4375,-1.29687 q 0.42188,0.25 0.89063,0.4375 0.48437,0.1875 1,0.1875 0.95312,0 1.48437,-0.57813 0.53125,-0.59375 0.53125,-1.875 0,-1.29687 -0.59375,-1.9375 -0.57812,-0.65625 -1.85937,-0.65625 h -0.48438 v -1.375 h 0.40625 q 1.125,0 1.65625,-0.59375 0.54688,-0.59375 0.54688,-1.65625 0,-1.01562 -0.4375,-1.5 -0.42188,-0.5 -1.125,-0.5 -0.48438,0 -0.9375,0.1875 -0.4375,0.1875 -0.75,0.46875 l -0.625,-1.17187 q 0.48437,-0.45313 1.14062,-0.67188 0.65625,-0.23437 1.3125,-0.23437 1.45313,0 2.23438,0.92187 0.79687,0.90625 0.79687,2.42188 0,1.0625 -0.42187,1.8125 -0.42188,0.73437 -1.1875,1.125 z"
       fill-rule="nonzero"
       id="path15327" />
    <path
       fill="#000000"
       fill-opacity="0"
       d="m 419.27036,176.46194 v 44"
       fill-rule="evenodd"
       id="path15329" />
    <path
       stroke="#595959"
       stroke-width="1"
       stroke-linejoin="round"
       stroke-linecap="butt"
       d="m 419.27036,176.46194 v 44"
       fill-rule="evenodd"
       id="path15331" />
    <path
       fill="#000000"
       fill-opacity="0"
       d="m 463.27927,176.46194 v 44"
       fill-rule="evenodd"
       id="path15333" />
    <path
       stroke="#595959"
       stroke-width="1"
       stroke-linejoin="round"
       stroke-linecap="butt"
       d="m 463.27927,176.46194 v 44"
       fill-rule="evenodd"
       id="path15335" />
    <path
       fill="#000000"
       fill-opacity="0"
       d="m 427.2706,176.65355 h 29.60629 V 218.6693 H 427.2706 Z"
       fill-rule="evenodd"
       id="path15337" />
    <path
       fill="#000000"
       d="m 438.57794,203.57355 v -1.875 h 1.875 v 1.875 z m 5.18332,0 v -1.875 h 1.875 v 1.875 z"
       fill-rule="nonzero"
       id="path15339" />
    <path
       fill="#000000"
       fill-opacity="0"
       d="m 463.27823,176.46194 v 44"
       fill-rule="evenodd"
       id="path15341" />
    <path
       stroke="#595959"
       stroke-width="1"
       stroke-linejoin="round"
       stroke-linecap="butt"
       d="m 463.27823,176.46194 v 44"
       fill-rule="evenodd"
       id="path15343" />
    <path
       fill="#000000"
       fill-opacity="0"
       d="m 507.28714,176.46194 v 44"
       fill-rule="evenodd"
       id="path15345" />
    <path
       stroke="#595959"
       stroke-width="1"
       stroke-linejoin="round"
       stroke-linecap="butt"
       d="m 507.28714,176.46194 v 44"
       fill-rule="evenodd"
       id="path15347" />
    <path
       fill="#000000"
       fill-opacity="0"
       d="m 471.27847,176.65355 h 29.60629 v 42.01575 h -29.60629 z"
       fill-rule="evenodd"
       id="path15349" />
    <path
       fill="#000000"
       d="m 482.58582,203.57355 v -1.875 h 1.875 v 1.875 z m 5.18332,0 v -1.875 h 1.875 v 1.875 z"
       fill-rule="nonzero"
       id="path15351" />
    <path
       fill="#000000"
       fill-opacity="0"
       d="m 507.2861,176.46194 v 44"
       fill-rule="evenodd"
       id="path15353" />
    <path
       stroke="#595959"
       stroke-width="1"
       stroke-linejoin="round"
       stroke-linecap="butt"
       d="m 507.2861,176.46194 v 44"
       fill-rule="evenodd"
       id="path15355" />
    <path
       fill="#000000"
       fill-opacity="0"
       d="m 551.295,176.46194 v 44"
       fill-rule="evenodd"
       id="path15357" />
    <path
       stroke="#595959"
       stroke-width="1"
       stroke-linejoin="round"
       stroke-linecap="butt"
       d="m 551.295,176.46194 v 44"
       fill-rule="evenodd"
       id="path15359" />
    <path
       fill="#000000"
       fill-opacity="0"
       d="m 515.2864,176.65355 h 29.60626 V 218.6693 H 515.2864 Z"
       fill-rule="evenodd"
       id="path15361" />
    <path
       fill="#000000"
       d="m 526.5937,203.57355 v -1.875 h 1.875 v 1.875 z m 5.18329,0 v -1.875 h 1.875 v 1.875 z"
       fill-rule="nonzero"
       id="path15363" />
    <path
       fill="#000000"
       fill-opacity="0"
       d="m 551.29395,176.46194 v 44"
       fill-rule="evenodd"
       id="path15365" />
    <path
       stroke="#595959"
       stroke-width="1"
       stroke-linejoin="round"
       stroke-linecap="butt"
       d="m 551.29395,176.46194 v 44"
       fill-rule="evenodd"
       id="path15367" />
    <path
       fill="#000000"
       fill-opacity="0"
       d="m 595.3029,176.46194 v 44"
       fill-rule="evenodd"
       id="path15369" />
    <path
       stroke="#595959"
       stroke-width="1"
       stroke-linejoin="round"
       stroke-linecap="butt"
       d="m 595.3029,176.46194 v 44"
       fill-rule="evenodd"
       id="path15371" />
    <path
       fill="#000000"
       fill-opacity="0"
       d="m 559.29425,176.65355 h 29.60626 v 42.01575 h -29.60626 z"
       fill-rule="evenodd"
       id="path15373" />
    <path
       fill="#000000"
       d="m 570.60156,203.57355 v -1.875 h 1.875 v 1.875 z m 5.18329,0 v -1.875 h 1.875 v 1.875 z"
       fill-rule="nonzero"
       id="path15375" />
    <path
       fill="#000000"
       fill-opacity="0"
       d="m 595.3018,176.46194 v 44"
       fill-rule="evenodd"
       id="path15377" />
    <path
       stroke="#595959"
       stroke-width="1"
       stroke-linejoin="round"
       stroke-linecap="butt"
       d="m 595.3018,176.46194 v 44"
       fill-rule="evenodd"
       id="path15379" />
    <path
       fill="#000000"
       fill-opacity="0"
       d="m 639.3108,176.46194 v 44"
       fill-rule="evenodd"
       id="path15381" />
    <path
       stroke="#595959"
       stroke-width="1"
       stroke-linejoin="round"
       stroke-linecap="butt"
       d="m 639.3108,176.46194 v 44"
       fill-rule="evenodd"
       id="path15383" />
    <path
       fill="#000000"
       fill-opacity="0"
       d="m 603.3021,176.65355 h 29.60626 V 218.6693 H 603.3021 Z"
       fill-rule="evenodd"
       id="path15385" />
    <path
       fill="#000000"
       d="m 614.60944,203.57355 v -1.875 h 1.875 v 1.875 z m 5.18329,0 v -1.875 h 1.875 v 1.875 z"
       fill-rule="nonzero"
       id="path15387" />
    <path
       fill="#000000"
       fill-opacity="0"
       d="m 639.3097,175.66142 v 44"
       fill-rule="evenodd"
       id="path15389" />
    <path
       stroke="#595959"
       stroke-width="1"
       stroke-linejoin="round"
       stroke-linecap="butt"
       d="m 639.3097,175.66142 v 44"
       fill-rule="evenodd"
       id="path15391" />
    <path
       fill="#000000"
       fill-opacity="0"
       d="m 683.31866,175.66142 v 44"
       fill-rule="evenodd"
       id="path15393" />
    <path
       stroke="#595959"
       stroke-width="1"
       stroke-linejoin="round"
       stroke-linecap="butt"
       d="m 683.31866,175.66142 v 44"
       fill-rule="evenodd"
       id="path15395" />
    <path
       fill="#000000"
       fill-opacity="0"
       d="m 647.31,175.85301 h 29.60626 v 42.01575 H 647.31 Z"
       fill-rule="evenodd"
       id="path15397" />
    <path
       fill="#000000"
       d="m 658.6173,202.77301 v -1.875 h 1.875 v 1.875 z m 5.18329,0 v -1.875 h 1.875 v 1.875 z"
       fill-rule="nonzero"
       id="path15399" />
    <path
       fill="#000000"
       fill-opacity="0"
       d="m 683.31757,175.66142 v 44"
       fill-rule="evenodd"
       id="path15401" />
    <path
       stroke="#595959"
       stroke-width="1"
       stroke-linejoin="round"
       stroke-linecap="butt"
       d="m 683.31757,175.66142 v 44"
       fill-rule="evenodd"
       id="path15403" />
    <path
       fill="#000000"
       fill-opacity="0"
       d="m 727.32654,175.66142 v 44"
       fill-rule="evenodd"
       id="path15405" />
    <path
       stroke="#595959"
       stroke-width="1"
       stroke-linejoin="round"
       stroke-linecap="butt"
       d="m 727.32654,175.66142 v 44"
       fill-rule="evenodd"
       id="path15407" />
    <path
       fill="#000000"
       fill-opacity="0"
       d="m 691.3179,175.85301 h 29.60626 v 42.01575 H 691.3179 Z"
       fill-rule="evenodd"
       id="path15409" />
    <path
       fill="#000000"
       d="m 702.6252,202.77301 v -1.875 h 1.875 v 1.875 z m 5.18329,0 v -1.875 h 1.875 v 1.875 z"
       fill-rule="nonzero"
       id="path15411" />
    <path
       fill="#000000"
       fill-opacity="0"
       d="m 727.32544,175.66142 v 44"
       fill-rule="evenodd"
       id="path15413" />
    <path
       stroke="#595959"
       stroke-width="1"
       stroke-linejoin="round"
       stroke-linecap="butt"
       d="m 727.32544,175.66142 v 44"
       fill-rule="evenodd"
       id="path15415" />
    <path
       fill="#000000"
       fill-opacity="0"
       d="m 771.3344,175.66142 v 44"
       fill-rule="evenodd"
       id="path15417" />
    <path
       stroke="#595959"
       stroke-width="1"
       stroke-linejoin="round"
       stroke-linecap="butt"
       d="m 771.3344,175.66142 v 44"
       fill-rule="evenodd"
       id="path15419" />
    <path
       fill="#000000"
       fill-opacity="0"
       d="M 735.32574,175.85301 H 764.932 v 42.01575 h -29.60626 z"
       fill-rule="evenodd"
       id="path15421" />
    <path
       fill="#000000"
       d="m 746.63306,202.77301 v -1.875 h 1.875 v 1.875 z m 5.18329,0 v -1.875 h 1.875 v 1.875 z"
       fill-rule="nonzero"
       id="path15423" />
    <path
       fill="#000000"
       fill-opacity="0"
       d="m 771.3333,175.66142 v 44"
       fill-rule="evenodd"
       id="path15425" />
    <path
       stroke="#595959"
       stroke-width="1"
       stroke-linejoin="round"
       stroke-linecap="butt"
       d="m 771.3333,175.66142 v 44"
       fill-rule="evenodd"
       id="path15427" />
    <path
       fill="#000000"
       fill-opacity="0"
       d="m 815.3423,175.66142 v 44"
       fill-rule="evenodd"
       id="path15429" />
    <path
       stroke="#595959"
       stroke-width="1"
       stroke-linejoin="round"
       stroke-linecap="butt"
       d="m 815.3423,175.66142 v 44"
       fill-rule="evenodd"
       id="path15431" />
    <path
       fill="#000000"
       fill-opacity="0"
       d="m 779.3336,175.85301 h 29.60626 v 42.01575 H 779.3336 Z"
       fill-rule="evenodd"
       id="path15433" />
    <path
       fill="#000000"
       d="m 789.78674,193.25739 q 0.65625,-0.20313 1.42187,-0.34375 0.76563,-0.14063 1.39063,-0.14063 0.65625,0 1.1875,0.17188 0.53125,0.17187 0.95312,0.5625 0.48438,-0.32813 1.03125,-0.53125 0.5625,-0.20313 1.23438,-0.20313 0.67187,0 1.21875,0.20313 0.5625,0.1875 0.95312,0.65625 0.39063,0.46875 0.60938,1.26562 0.21875,0.78125 0.21875,1.96875 v 5.90625 h -1.59375 v -5.78125 q 0,-1.45312 -0.34375,-2.125 -0.32813,-0.67187 -1.26563,-0.67187 -0.35937,0 -0.71875,0.125 -0.35937,0.125 -0.67187,0.35937 0.14062,0.42188 0.21875,0.96875 0.0781,0.54688 0.0781,1.21875 v 5.90625 h -1.60937 v -5.78125 q 0,-1.45312 -0.34375,-2.125 -0.32813,-0.67187 -1.26563,-0.67187 -0.48437,0 -1.09375,0.1875 v 8.39062 h -1.60937 z"
       fill-rule="nonzero"
       id="path15435" />
    <path
       fill="#000000"
       fill-opacity="0"
       d="m 866.1522,175.66142 v 44"
       fill-rule="evenodd"
       id="path15437" />
    <path
       stroke="#595959"
       stroke-width="1"
       stroke-linejoin="round"
       stroke-linecap="butt"
       stroke-dasharray="4, 3"
       d="m 866.1522,175.66142 v 44"
       fill-rule="evenodd"
       id="path15439" />
    <path
       fill="#000000"
       fill-opacity="0"
       d="m 815.2546,175.5376 h 51.05511"
       fill-rule="evenodd"
       id="path15441" />
    <path
       stroke="#595959"
       stroke-width="1"
       stroke-linejoin="round"
       stroke-linecap="butt"
       stroke-dasharray="4, 3"
       d="m 815.2546,175.5376 h 51.05511"
       fill-rule="evenodd"
       id="path15443" />
    <path
       fill="#000000"
       fill-opacity="0"
       d="m 815.3412,219.76929 h 50.96063"
       fill-rule="evenodd"
       id="path15445" />
    <path
       stroke="#595959"
       stroke-width="1"
       stroke-linejoin="round"
       stroke-linecap="butt"
       stroke-dasharray="4, 3"
       d="m 815.3412,219.76929 h 50.96063"
       fill-rule="evenodd"
       id="path15447" />
    <path
       fill="#000000"
       fill-opacity="0"
       d="m 813.48816,176.64568 h 52.47247 v 42.01575 h -52.47247 z"
       fill-rule="evenodd"
       id="path15449" />
    <path
       fill="#000000"
       d="m 826.6443,194.05005 q 0.65625,-0.20313 1.42188,-0.34375 0.76562,-0.14063 1.39062,-0.14063 0.65625,0 1.1875,0.17188 0.53125,0.17187 0.95313,0.5625 0.48437,-0.32813 1.03125,-0.53125 0.5625,-0.20313 1.23437,-0.20313 0.67188,0 1.21875,0.20313 0.5625,0.1875 0.95313,0.65625 0.39062,0.46875 0.60937,1.26562 0.21875,0.78125 0.21875,1.96875 v 5.90625 h -1.59375 v -5.78125 q 0,-1.45312 -0.34375,-2.125 -0.32812,-0.67187 -1.26562,-0.67187 -0.35938,0 -0.71875,0.125 -0.35938,0.125 -0.67188,0.35937 0.14063,0.42188 0.21875,0.96875 0.0781,0.54688 0.0781,1.21875 v 5.90625 h -1.60938 v -5.78125 q 0,-1.45312 -0.34375,-2.125 -0.32812,-0.67187 -1.26562,-0.67187 -0.48438,0 -1.09375,0.1875 v 8.39062 h -1.60938 z m 12.36585,3.25 h 2.53125 v -2.6875 h 1.375 v 2.6875 h 2.51562 v 1.35937 h -2.51562 v 2.70313 h -1.375 v -2.70313 h -2.53125 z m 8.53778,-4.09375 q 0.34375,-0.20313 0.71875,-0.5 0.39062,-0.29688 0.75,-0.64063 0.35937,-0.34375 0.65625,-0.70312 0.3125,-0.375 0.51562,-0.71875 h 1.23438 v 12.92187 h -1.60938 v -10.39062 q -0.3125,0.32812 -0.73437,0.64062 -0.42188,0.29688 -0.89063,0.54688 z"
       fill-rule="nonzero"
       id="path15451" />
    <path
       fill="#000000"
       fill-opacity="0"
       d="m 189.98425,98.59055 h 98.39371 v 42.01574 h -98.39371 z"
       fill-rule="evenodd"
       id="path15453" />
    <path
       fill="#f3f3f3"
       d="m 200.54675,112.76055 q 1.3125,-0.3125 2.5625,-0.3125 0.96875,0 1.75,0.23437 0.79687,0.23438 1.35937,0.73438 0.57813,0.48437 0.89063,1.28125 0.3125,0.78125 0.3125,1.875 0,1.125 -0.32813,1.92187 -0.3125,0.78125 -0.89062,1.28125 -0.57813,0.48438 -1.39063,0.71875 -0.8125,0.21875 -1.79687,0.21875 h -0.78125 v 4.79688 h -1.6875 z m 1.6875,6.48437 h 0.67187 q 0.625,0 1.14063,-0.14062 0.51562,-0.14063 0.85937,-0.45313 0.35938,-0.32812 0.54688,-0.82812 0.1875,-0.5 0.1875,-1.25 0,-0.75 -0.1875,-1.25 -0.1875,-0.51563 -0.51563,-0.82813 -0.3125,-0.3125 -0.78125,-0.4375 -0.46875,-0.125 -1.03125,-0.125 -0.48437,0 -0.89062,0.0469 z m 7.03432,-3.32812 q 0.48437,-0.20313 1.01562,-0.3125 0.54688,-0.125 1.1875,-0.125 1.29688,0 2.10938,0.8125 0.82812,0.8125 0.82812,2.51562 v 6.5 q -0.67187,0.1875 -1.375,0.29688 -0.6875,0.10937 -1.35937,0.10937 -0.67188,0 -1.26563,-0.17187 -0.57812,-0.15625 -1.03125,-0.53125 -0.4375,-0.375 -0.70312,-0.9375 -0.25,-0.57813 -0.25,-1.39063 0,-0.76562 0.23437,-1.32812 0.23438,-0.57813 0.64063,-0.95313 0.40625,-0.39062 0.96875,-0.57812 0.5625,-0.20313 1.21875,-0.20313 0.60937,0 1.35937,0.14063 v -0.89063 q 0,-1.07812 -0.42187,-1.5 -0.42188,-0.4375 -1.20313,-0.4375 -0.42187,0 -0.8125,0.0937 -0.375,0.0781 -0.8125,0.25 z m 0.76562,6.73437 q 0,0.85938 0.4375,1.28125 0.45313,0.40625 1.26563,0.40625 0.51562,0 1.10937,-0.14062 v -3.10938 q -0.5625,-0.15625 -1.10937,-0.15625 -0.34375,0 -0.67188,0.0937 -0.3125,0.0781 -0.54687,0.28125 -0.23438,0.1875 -0.35938,0.51563 -0.125,0.32812 -0.125,0.82812 z m 11.40932,-5.48437 q -0.59375,-0.25 -1.34375,-0.25 -0.6875,0 -1.28125,0.23437 v 8.35938 h -1.60938 v -9.35938 q 0.54688,-0.26562 1.23438,-0.4375 0.70312,-0.1875 1.54687,-0.1875 0.45313,0 0.89063,0.0625 0.45312,0.0469 0.84375,0.20313 z m 3.38487,-1.45313 h 2.45313 v 1.39063 h -2.45313 v 5.39062 q 0,1 0.35938,1.40625 0.35937,0.39063 0.98437,0.39063 0.3125,0 0.59375,-0.0937 0.29688,-0.0937 0.5,-0.21875 l 0.3125,1.28125 q -0.76562,0.45312 -1.625,0.45312 -1.375,0 -2.0625,-0.76562 -0.67187,-0.78125 -0.67187,-2.57813 v -9.28125 l 1.60937,-0.28125 z m 6.09804,9.79688 h -1.60938 v -9.79688 h 1.60938 z m -0.8125,-11.53125 q -0.42188,0 -0.73438,-0.28125 -0.29687,-0.29688 -0.29687,-0.78125 0,-0.48438 0.29687,-0.76563 0.3125,-0.29687 0.73438,-0.29687 0.4375,0 0.73437,0.29687 0.3125,0.28125 0.3125,0.76563 0,0.48437 -0.3125,0.78125 -0.29687,0.28125 -0.73437,0.28125 z m 5.21794,1.73437 h 2.45313 v 1.39063 h -2.45313 v 5.39062 q 0,1 0.35938,1.40625 0.35937,0.39063 0.98437,0.39063 0.3125,0 0.59375,-0.0937 0.29688,-0.0937 0.5,-0.21875 l 0.3125,1.28125 q -0.76562,0.45312 -1.625,0.45312 -1.375,0 -2.0625,-0.76562 -0.67187,-0.78125 -0.67187,-2.57813 v -9.28125 l 1.60937,-0.28125 z m 6.09804,9.79688 h -1.60938 v -9.79688 h 1.60938 z m -0.8125,-11.53125 q -0.42188,0 -0.73438,-0.28125 -0.29687,-0.29688 -0.29687,-0.78125 0,-0.48438 0.29687,-0.76563 0.3125,-0.29687 0.73438,-0.29687 0.4375,0 0.73437,0.29687 0.3125,0.28125 0.3125,0.76563 0,0.48437 -0.3125,0.78125 -0.29687,0.28125 -0.73437,0.28125 z m 10.01481,6.64062 q 0,1.15625 -0.21875,2.10938 -0.20312,0.9375 -0.625,1.60937 -0.40625,0.67188 -1.0625,1.04688 -0.64062,0.375 -1.51562,0.375 -0.875,0 -1.53125,-0.375 -0.65625,-0.375 -1.07813,-1.04688 -0.40625,-0.67187 -0.625,-1.60937 -0.20312,-0.95313 -0.20312,-2.10938 0,-1.14062 0.20312,-2.07812 0.21875,-0.95313 0.625,-1.64063 0.42188,-0.6875 1.07813,-1.04687 0.65625,-0.375 1.53125,-0.375 0.875,0 1.51562,0.375 0.65625,0.35937 1.0625,1.04687 0.42188,0.6875 0.625,1.64063 0.21875,0.9375 0.21875,2.07812 z m -1.6875,0 q 0,-0.8125 -0.0937,-1.5 -0.0937,-0.6875 -0.29687,-1.17187 -0.20313,-0.5 -0.54688,-0.76563 -0.32812,-0.26562 -0.79687,-0.26562 -0.48438,0 -0.8125,0.26562 -0.32813,0.26563 -0.54688,0.76563 -0.20312,0.48437 -0.29687,1.17187 -0.0937,0.6875 -0.0937,1.5 0,0.82813 0.0937,1.51563 0.0937,0.67187 0.29687,1.15625 0.21875,0.48437 0.54688,0.76562 0.32812,0.26563 0.8125,0.26563 0.46875,0 0.79687,-0.26563 0.34375,-0.28125 0.54688,-0.76562 0.20312,-0.48438 0.29687,-1.15625 0.0937,-0.6875 0.0937,-1.51563 z m 4.02848,-4.625 q 0.6875,-0.20312 1.48437,-0.34375 0.8125,-0.14062 1.48438,-0.14062 0.73436,0 1.32811,0.20312 0.59375,0.1875 1.01562,0.65625 0.42188,0.46875 0.65625,1.26563 0.23438,0.78125 0.23438,1.96875 v 5.90625 h -1.60938 v -5.78125 q 0,-1.45313 -0.375,-2.125 -0.375,-0.67188 -1.40623,-0.67188 -0.53125,0 -1.20313,0.1875 v 8.39063 h -1.60937 z m 12.48964,-0.84375 q 0.34375,-0.20312 0.71875,-0.5 0.39062,-0.29687 0.75,-0.64062 0.35937,-0.34375 0.65625,-0.70313 0.3125,-0.375 0.51562,-0.71875 h 1.23438 v 12.92188 h -1.60938 v -10.39063 q -0.3125,0.32813 -0.73437,0.64063 -0.42188,0.29687 -0.89063,0.54687 z"
       fill-rule="nonzero"
       id="path15455" />
    <path
       fill="#000000"
       fill-opacity="0"
       d="m 189.98425,176.99213 h 98.39371 v 42.01575 h -98.39371 z"
       fill-rule="evenodd"
       id="path15457" />
    <path
       fill="#f3f3f3"
       d="m 200.54675,191.16212 q 1.3125,-0.3125 2.5625,-0.3125 0.96875,0 1.75,0.23437 0.79687,0.23438 1.35937,0.73438 0.57813,0.48437 0.89063,1.28125 0.3125,0.78125 0.3125,1.875 0,1.125 -0.32813,1.92187 -0.3125,0.78125 -0.89062,1.28125 -0.57813,0.48438 -1.39063,0.71875 -0.8125,0.21875 -1.79687,0.21875 h -0.78125 v 4.79688 h -1.6875 z m 1.6875,6.48437 h 0.67187 q 0.625,0 1.14063,-0.14062 0.51562,-0.14063 0.85937,-0.45313 0.35938,-0.32812 0.54688,-0.82812 0.1875,-0.5 0.1875,-1.25 0,-0.75 -0.1875,-1.25 -0.1875,-0.51563 -0.51563,-0.82813 -0.3125,-0.3125 -0.78125,-0.4375 -0.46875,-0.125 -1.03125,-0.125 -0.48437,0 -0.89062,0.0469 z m 7.03432,-3.32812 q 0.48437,-0.20313 1.01562,-0.3125 0.54688,-0.125 1.1875,-0.125 1.29688,0 2.10938,0.8125 0.82812,0.8125 0.82812,2.51562 v 6.5 q -0.67187,0.1875 -1.375,0.29688 -0.6875,0.10937 -1.35937,0.10937 -0.67188,0 -1.26563,-0.17187 -0.57812,-0.15625 -1.03125,-0.53125 -0.4375,-0.375 -0.70312,-0.9375 -0.25,-0.57813 -0.25,-1.39063 0,-0.76562 0.23437,-1.32812 0.23438,-0.57813 0.64063,-0.95313 0.40625,-0.39062 0.96875,-0.57812 0.5625,-0.20313 1.21875,-0.20313 0.60937,0 1.35937,0.14063 v -0.89063 q 0,-1.07812 -0.42187,-1.5 -0.42188,-0.4375 -1.20313,-0.4375 -0.42187,0 -0.8125,0.0937 -0.375,0.0781 -0.8125,0.25 z m 0.76562,6.73437 q 0,0.85938 0.4375,1.28125 0.45313,0.40625 1.26563,0.40625 0.51562,0 1.10937,-0.14062 v -3.10938 q -0.5625,-0.15625 -1.10937,-0.15625 -0.34375,0 -0.67188,0.0937 -0.3125,0.0781 -0.54687,0.28125 -0.23438,0.1875 -0.35938,0.51563 -0.125,0.32812 -0.125,0.82812 z m 11.40932,-5.48437 q -0.59375,-0.25 -1.34375,-0.25 -0.6875,0 -1.28125,0.23437 v 8.35938 h -1.60938 v -9.35938 q 0.54688,-0.26562 1.23438,-0.4375 0.70312,-0.1875 1.54687,-0.1875 0.45313,0 0.89063,0.0625 0.45312,0.0469 0.84375,0.20313 z m 3.38487,-1.45313 h 2.45313 v 1.39063 h -2.45313 v 5.39062 q 0,1 0.35938,1.40625 0.35937,0.39063 0.98437,0.39063 0.3125,0 0.59375,-0.0937 0.29688,-0.0937 0.5,-0.21875 l 0.3125,1.28125 q -0.76562,0.45312 -1.625,0.45312 -1.375,0 -2.0625,-0.76562 -0.67187,-0.78125 -0.67187,-2.57813 v -9.28125 l 1.60937,-0.28125 z m 6.09804,9.79688 h -1.60938 v -9.79688 h 1.60938 z m -0.8125,-11.53125 q -0.42188,0 -0.73438,-0.28125 -0.29687,-0.29688 -0.29687,-0.78125 0,-0.48438 0.29687,-0.76563 0.3125,-0.29687 0.73438,-0.29687 0.4375,0 0.73437,0.29687 0.3125,0.28125 0.3125,0.76563 0,0.48437 -0.3125,0.78125 -0.29687,0.28125 -0.73437,0.28125 z m 5.21794,1.73437 h 2.45313 v 1.39063 h -2.45313 v 5.39062 q 0,1 0.35938,1.40625 0.35937,0.39063 0.98437,0.39063 0.3125,0 0.59375,-0.0937 0.29688,-0.0937 0.5,-0.21875 l 0.3125,1.28125 q -0.76562,0.45312 -1.625,0.45312 -1.375,0 -2.0625,-0.76562 -0.67187,-0.78125 -0.67187,-2.57813 v -9.28125 l 1.60937,-0.28125 z m 6.09804,9.79688 h -1.60938 v -9.79688 h 1.60938 z m -0.8125,-11.53125 q -0.42188,0 -0.73438,-0.28125 -0.29687,-0.29688 -0.29687,-0.78125 0,-0.48438 0.29687,-0.76563 0.3125,-0.29687 0.73438,-0.29687 0.4375,0 0.73437,0.29687 0.3125,0.28125 0.3125,0.76563 0,0.48437 -0.3125,0.78125 -0.29687,0.28125 -0.73437,0.28125 z m 10.01481,6.64062 q 0,1.15625 -0.21875,2.10938 -0.20312,0.9375 -0.625,1.60937 -0.40625,0.67188 -1.0625,1.04688 -0.64062,0.375 -1.51562,0.375 -0.875,0 -1.53125,-0.375 -0.65625,-0.375 -1.07813,-1.04688 -0.40625,-0.67187 -0.625,-1.60937 -0.20312,-0.95313 -0.20312,-2.10938 0,-1.14062 0.20312,-2.07812 0.21875,-0.95313 0.625,-1.64063 0.42188,-0.6875 1.07813,-1.04687 0.65625,-0.375 1.53125,-0.375 0.875,0 1.51562,0.375 0.65625,0.35937 1.0625,1.04687 0.42188,0.6875 0.625,1.64063 0.21875,0.9375 0.21875,2.07812 z m -1.6875,0 q 0,-0.8125 -0.0937,-1.5 -0.0937,-0.6875 -0.29687,-1.17187 -0.20313,-0.5 -0.54688,-0.76563 -0.32812,-0.26562 -0.79687,-0.26562 -0.48438,0 -0.8125,0.26562 -0.32813,0.26563 -0.54688,0.76563 -0.20312,0.48437 -0.29687,1.17187 -0.0937,0.6875 -0.0937,1.5 0,0.82813 0.0937,1.51563 0.0937,0.67187 0.29687,1.15625 0.21875,0.48437 0.54688,0.76562 0.32812,0.26563 0.8125,0.26563 0.46875,0 0.79687,-0.26563 0.34375,-0.28125 0.54688,-0.76562 0.20312,-0.48438 0.29687,-1.15625 0.0937,-0.6875 0.0937,-1.51563 z m 4.02848,-4.625 q 0.6875,-0.20312 1.48437,-0.34375 0.8125,-0.14062 1.48438,-0.14062 0.73436,0 1.32811,0.20312 0.59375,0.1875 1.01562,0.65625 0.42188,0.46875 0.65625,1.26563 0.23438,0.78125 0.23438,1.96875 v 5.90625 h -1.60938 v -5.78125 q 0,-1.45313 -0.375,-2.125 -0.375,-0.67188 -1.40623,-0.67188 -0.53125,0 -1.20313,0.1875 v 8.39063 h -1.60937 z m 12.00526,-2.60937 q 1.09375,-1.10938 2.67188,-1.10938 1.51562,0 2.3125,0.79688 0.8125,0.79687 0.8125,2.46875 0,0.79687 -0.26563,1.5 -0.26562,0.70312 -0.65625,1.375 -0.39062,0.65625 -0.85937,1.3125 -0.45313,0.65625 -0.89063,1.34375 -0.42187,0.67187 -0.75,1.40625 -0.3125,0.73437 -0.39062,1.57812 h 4.07812 v 1.45313 h -5.79687 v -0.35938 q 0,-1.25 0.28125,-2.21875 0.29687,-0.96875 0.71875,-1.75 0.42187,-0.78125 0.92187,-1.45312 0.51563,-0.67188 0.92188,-1.3125 0.42187,-0.65625 0.70312,-1.32813 0.29688,-0.6875 0.29688,-1.5 0,-0.98437 -0.39063,-1.42187 -0.39062,-0.45313 -1.17187,-0.45313 -0.54688,0 -0.98438,0.21875 -0.4375,0.21875 -0.78125,0.54688 z"
       fill-rule="nonzero"
       id="path15459" />
    <path
       fill="#9fc5e8"
       d="M 384.17453,294.74146 H 590.2218 V 406.83594 H 384.17453 Z"
       fill-rule="evenodd"
       id="path15461" />
    <path
       stroke="#595959"
       stroke-width="1"
       stroke-linejoin="round"
       stroke-linecap="butt"
       d="M 384.17453,294.74146 H 590.2218 V 406.83594 H 384.17453 Z"
       fill-rule="evenodd"
       id="path15463" />
    <path
       fill="#000000"
       fill-opacity="0"
       d="M 384.17453,340.082 H 590.2218 v 19.40158 H 384.17453 Z"
       fill-rule="evenodd"
       id="path15465" />
    <path
       fill="#000000"
       d="m 444.66843,351.2389 v -1 l 4.8125,-2.9375 0.59375,1.03125 -4.07813,2.40625 4.07813,2.40625 -0.59375,1.03125 z m 6.88,0 v -1 l 4.8125,-2.9375 0.59375,1.03125 -4.07812,2.40625 4.07812,2.40625 -0.59375,1.03125 z m 11.05191,4.4375 q -1.95312,0 -3,-1.45313 -1.03125,-1.45312 -1.03125,-4.5 0,-1.54687 0.29688,-2.60937 0.29687,-1.07813 0.82812,-1.75 0.53125,-0.67188 1.25,-0.96875 0.71875,-0.29688 1.5625,-0.29688 0.70313,0 1.3125,0.1875 0.60938,0.1875 1,0.45313 l -0.4375,1.20312 q -0.39062,-0.26562 -0.82812,-0.42187 -0.4375,-0.15625 -1.01563,-0.15625 -1.28125,0 -1.85937,1.0625 -0.5625,1.0625 -0.5625,3.29687 0,2.26563 0.59375,3.48438 0.60937,1.20312 2,1.20312 0.64062,0 1.04687,-0.15625 0.42188,-0.15625 0.79688,-0.40625 l 0.40625,1.125 q -0.375,0.29688 -0.96875,0.5 -0.59375,0.20313 -1.39063,0.20313 z m 9.0944,-4.42188 q 0,0.98438 -0.1875,1.79688 -0.17188,0.8125 -0.53125,1.39062 -0.35938,0.5625 -0.90625,0.89063 -0.54688,0.3125 -1.29688,0.3125 -0.76562,0 -1.32812,-0.3125 -0.54688,-0.32813 -0.90625,-0.89063 -0.35938,-0.57812 -0.54688,-1.39062 -0.17187,-0.8125 -0.17187,-1.79688 0,-0.98437 0.17187,-1.79687 0.1875,-0.8125 0.54688,-1.39063 0.35937,-0.59375 0.90625,-0.90625 0.5625,-0.32812 1.32812,-0.32812 0.75,0 1.29688,0.32812 0.54687,0.3125 0.90625,0.90625 0.35937,0.57813 0.53125,1.39063 0.1875,0.8125 0.1875,1.79687 z m -1.4375,0 q 0,-0.70312 -0.0781,-1.28125 -0.0781,-0.59375 -0.26562,-1.01562 -0.17188,-0.42188 -0.46875,-0.65625 -0.28125,-0.23438 -0.67188,-0.23438 -0.42187,0 -0.70312,0.23438 -0.28125,0.23437 -0.46875,0.65625 -0.17188,0.42187 -0.26563,1.01562 -0.0781,0.57813 -0.0781,1.28125 0,0.70313 0.0781,1.29688 0.0937,0.57812 0.26563,1 0.1875,0.40625 0.46875,0.64062 0.28125,0.21875 0.70312,0.21875 0.39063,0 0.67188,-0.21875 0.29687,-0.23437 0.46875,-0.64062 0.1875,-0.42188 0.26562,-1 0.0781,-0.59375 0.0781,-1.29688 z m 3.45489,-3.96875 q 0.59375,-0.1875 1.28125,-0.29687 0.6875,-0.125 1.26563,-0.125 0.625,0 1.125,0.17187 0.51562,0.17188 0.875,0.57813 0.35937,0.39062 0.5625,1.07812 0.20312,0.67188 0.20312,1.67188 v 5.07812 h -1.375 v -4.95312 q 0,-1.25 -0.32812,-1.82813 -0.3125,-0.57812 -1.20313,-0.57812 -0.45312,0 -1.03125,0.15625 v 7.20312 h -1.375 z m 8.88388,7.1875 q 0.60938,0 0.90625,-0.34375 0.3125,-0.34375 0.3125,-0.90625 0,-0.35937 -0.125,-0.60937 -0.125,-0.25 -0.34375,-0.4375 -0.20312,-0.1875 -0.46875,-0.34375 -0.26562,-0.15625 -0.54687,-0.32813 -0.26563,-0.15625 -0.53125,-0.375 -0.25,-0.21875 -0.45313,-0.5 -0.20312,-0.28125 -0.32812,-0.64062 -0.10938,-0.35938 -0.10938,-0.82813 0,-1.04687 0.64063,-1.6875 0.65625,-0.64062 1.76562,-0.64062 0.45313,0 0.875,0.125 0.42188,0.10937 0.6875,0.26562 l -0.29687,1.09375 q -0.29688,-0.15625 -0.59375,-0.23437 -0.28125,-0.0781 -0.60938,-0.0781 -0.51562,0 -0.82812,0.29688 -0.29688,0.29687 -0.29688,0.85937 0,0.3125 0.10938,0.54688 0.10937,0.23437 0.29687,0.42187 0.1875,0.17188 0.42188,0.34375 0.23437,0.15625 0.48437,0.29688 0.3125,0.17187 0.59375,0.39062 0.29688,0.20313 0.53125,0.48438 0.23438,0.28125 0.375,0.65625 0.15625,0.375 0.15625,0.90625 0,1.09375 -0.65625,1.76562 -0.64062,0.67188 -1.89062,0.67188 -0.64063,0 -1.15625,-0.17188 -0.51563,-0.17187 -0.76563,-0.3125 l 0.28125,-1.14062 q 0.25,0.125 0.65625,0.29687 0.40625,0.15625 0.90625,0.15625 z m 9.48728,0.73438 q -0.21875,0.0781 -0.51563,0.15625 -0.29687,0.0625 -0.625,0.10937 -0.32812,0.0625 -0.65625,0.0937 -0.3125,0.0469 -0.59375,0.0469 -0.65625,0 -1.20312,-0.15625 -0.54688,-0.14063 -0.9375,-0.51563 -0.375,-0.39062 -0.57813,-1.04687 -0.20312,-0.67188 -0.20312,-1.6875 v -5.17188 h 1.375 v 5.125 q 0,1.23438 0.375,1.73438 0.375,0.5 1.14062,0.5 0.25,0 0.5,-0.0156 0.26563,-0.0312 0.54688,-0.10937 v -7.23438 h 1.375 z m 2.47689,-7.92188 q 0.5625,-0.1875 1.21875,-0.29687 0.65625,-0.125 1.1875,-0.125 0.5625,0 1.01563,0.15625 0.46875,0.14062 0.8125,0.46875 0.42187,-0.26563 0.89062,-0.4375 0.48438,-0.1875 1.0625,-0.1875 0.57813,0 1.04688,0.17187 0.46875,0.17188 0.79687,0.57813 0.34375,0.39062 0.53125,1.07812 0.20313,0.67188 0.20313,1.67188 v 5.07812 h -1.375 v -4.95312 q 0,-1.25 -0.29688,-1.82813 -0.28125,-0.57812 -1.07812,-0.57812 -0.3125,0 -0.625,0.10937 -0.29688,0.10938 -0.57813,0.3125 0.125,0.35938 0.1875,0.82813 0.0625,0.46875 0.0625,1.03125 v 5.07812 h -1.375 v -4.95312 q 0,-1.25 -0.28125,-1.82813 -0.28125,-0.57812 -1.09375,-0.57812 -0.40625,0 -0.9375,0.15625 v 7.20312 h -1.375 z m 12.10553,4.35938 q 0.0156,0.60937 0.10938,1.125 0.10937,0.5 0.3125,0.875 0.21875,0.375 0.57812,0.57812 0.35938,0.20313 0.92188,0.20313 0.46875,0 0.85937,-0.125 0.39063,-0.14063 0.5625,-0.23438 l 0.26563,1.10938 q -0.21875,0.14062 -0.70313,0.29687 -0.48437,0.17188 -1.15625,0.17188 -0.875,0 -1.48437,-0.3125 -0.59375,-0.32813 -0.96875,-0.89063 -0.375,-0.57812 -0.54688,-1.375 -0.15625,-0.8125 -0.15625,-1.76562 0,-2.32813 0.76563,-3.39063 0.76562,-1.07812 2.03125,-1.07812 1.4375,0 2.01562,1.07812 0.59375,1.0625 0.59375,3 0,0.17188 0,0.35938 0,0.1875 -0.0156,0.375 z m 1.39063,-3.64063 q -0.6875,0 -1,0.6875 -0.3125,0.6875 -0.375,1.84375 h 2.54687 q 0,-1.17187 -0.25,-1.84375 -0.23437,-0.6875 -0.92187,-0.6875 z m 8.27289,0.28125 q -0.5,-0.21875 -1.14063,-0.21875 -0.59375,0 -1.10937,0.20313 v 7.17187 h -1.375 v -8.03125 q 0.46875,-0.21875 1.0625,-0.375 0.59375,-0.15625 1.3125,-0.15625 0.39062,0 0.76562,0.0469 0.39063,0.0469 0.73438,0.17187 z m 1.70111,5.89063 -0.59375,-1.03125 4.07812,-2.40625 -4.07812,-2.40625 0.59375,-1.03125 4.8125,2.9375 v 1 z m 6.88006,0 -0.59375,-1.03125 4.07813,-2.40625 -4.07813,-2.40625 0.59375,-1.03125 4.8125,2.9375 v 1 z"
       fill-rule="nonzero"
       id="path15467" />
    <path
       fill="#000000"
       fill-opacity="0"
       d="m 487.19815,294.74146 c 0,-38.6182 -22.28345,-57.92535 -44.56693,-77.23637 -22.28344,-19.31102 -44.56692,-38.6259 -44.56692,-77.25182"
       fill-rule="evenodd"
       id="path15469" />
    <path
       stroke="#9fc5e8"
       stroke-width="2"
       stroke-linejoin="round"
       stroke-linecap="butt"
       d="m 487.19815,294.74146 c 0,-38.61816 -22.28345,-57.92534 -44.56693,-77.23637 -11.14172,-9.65551 -22.28344,-19.31199 -30.63977,-31.38283 -4.17813,-6.03542 -7.65991,-12.67442 -10.09716,-20.21869 -1.21863,-3.77214 -2.17612,-7.7706 -2.82895,-12.03308 -0.0816,-0.53281 -0.15848,-1.06973 -0.23044,-1.61087 l -0.004,-0.0309"
       fill-rule="evenodd"
       id="path15471" />
    <path
       fill="#9fc5e8"
       stroke="#9fc5e8"
       stroke-width="2"
       stroke-linecap="butt"
       d="m 402.12762,152.01772 -3.87653,-8.84662 -2.71688,9.26871 z"
       fill-rule="evenodd"
       id="path15473" />
    <path
       fill="#000000"
       fill-opacity="0"
       d="m 487.19815,294.74146 c 0,-19.01804 -33.28345,-28.5282 -66.56693,-38.03607 -33.28344,-9.50786 -66.56692,-19.01346 -66.56692,-38.02692"
       fill-rule="evenodd"
       id="path15475" />
    <path
       stroke="#9fc5e8"
       stroke-width="2"
       stroke-linejoin="round"
       stroke-linecap="butt"
       d="m 487.19815,294.74146 c 0,-19.01804 -33.28345,-28.52817 -66.56693,-38.03604 -16.64172,-4.75395 -33.28344,-9.50731 -45.76477,-15.4489 -6.24063,-2.97078 -11.44116,-6.23861 -15.08154,-9.95209 -0.45508,-0.46418 -0.88571,-0.93533 -1.29101,-1.41374 l -0.0373,-0.045"
       fill-rule="evenodd"
       id="path15477" />
    <path
       fill="#9fc5e8"
       stroke="#9fc5e8"
       stroke-width="2"
       stroke-linecap="butt"
       d="m 361.5308,228.6366 -6.3963,-7.23723 0.24783,9.6555 z"
       fill-rule="evenodd"
       id="path15479" />
  </g>
</svg>
