<?xml version="1.0" encoding="UTF-8" standalone="no"?>
<svg
   version="1.1"
   viewBox="0 0 399.3428 318.15527"
   fill="none"
   stroke="none"
   stroke-linecap="square"
   stroke-miterlimit="10"
   id="svg81"
   sodipodi:docname="consumer-committed_offsets.svg"
   width="399.3428"
   height="318.15527"
   inkscape:version="1.2.2 (b0a8486541, 2022-12-01)"
   xmlns:inkscape="http://www.inkscape.org/namespaces/inkscape"
   xmlns:sodipodi="http://sodipodi.sourceforge.net/DTD/sodipodi-0.dtd"
   xmlns="http://www.w3.org/2000/svg"
   xmlns:svg="http://www.w3.org/2000/svg">
  <defs
     id="defs85" />
  <sodipodi:namedview
     id="namedview83"
     pagecolor="#ffffff"
     bordercolor="#666666"
     borderopacity="1.0"
     inkscape:showpageshadow="2"
     inkscape:pageopacity="0.0"
     inkscape:pagecheckerboard="0"
     inkscape:deskcolor="#d1d1d1"
     showgrid="false"
     inkscape:zoom="1.3552083"
     inkscape:cx="51.652575"
     inkscape:cy="180.04612"
     inkscape:window-width="1920"
     inkscape:window-height="1011"
     inkscape:window-x="0"
     inkscape:window-y="32"
     inkscape:window-maximized="1"
     inkscape:current-layer="svg81" />
  <clipPath
     id="g201030f8531_0_284.0">
    <path
       d="M 0,0 H 960 V 540 H 0 Z"
       clip-rule="nonzero"
       id="path2" />
  </clipPath>
  <g
     clip-path="url(#g201030f8531_0_284.0)"
     id="g79"
     transform="translate(-410.1824,-90.310019)">
    <path
       fill="#c27ba0"
       d="m 410.6824,251.7546 h 91.11813 v 25.25984 H 410.6824 Z"
       fill-rule="evenodd"
       id="path7" />
    <path
       stroke="#595959"
       stroke-width="1"
       stroke-linejoin="round"
       stroke-linecap="butt"
       d="m 410.6824,251.7546 h 91.11813 v 25.25984 H 410.6824 Z"
       fill-rule="evenodd"
       id="path9" />
    <path
       fill="#f3f3f3"
       d="m 426.64362,270.47888 q -1.95313,0 -3,-1.45313 -1.03125,-1.45312 -1.03125,-4.5 0,-1.54687 0.29687,-2.60937 0.29688,-1.07813 0.82813,-1.75 0.53125,-0.67188 1.25,-0.96875 0.71875,-0.29688 1.5625,-0.29688 0.70312,0 1.3125,0.1875 0.60937,0.1875 1,0.45313 l -0.4375,1.20312 q -0.39063,-0.26562 -0.82813,-0.42187 -0.4375,-0.15625 -1.01562,-0.15625 -1.28125,0 -1.85938,1.0625 -0.5625,1.0625 -0.5625,3.29687 0,2.26563 0.59375,3.48438 0.60938,1.20312 2,1.20312 0.64063,0 1.04688,-0.15625 0.42187,-0.15625 0.79687,-0.40625 l 0.40625,1.125 q -0.375,0.29688 -0.96875,0.5 -0.59375,0.20313 -1.39062,0.20313 z m 9.09439,-4.42188 q 0,0.98438 -0.1875,1.79688 -0.17187,0.8125 -0.53125,1.39062 -0.35937,0.5625 -0.90625,0.89063 -0.54687,0.3125 -1.29687,0.3125 -0.76563,0 -1.32813,-0.3125 -0.54687,-0.32813 -0.90625,-0.89063 -0.35937,-0.57812 -0.54687,-1.39062 -0.17188,-0.8125 -0.17188,-1.79688 0,-0.98437 0.17188,-1.79687 0.1875,-0.8125 0.54687,-1.39063 0.35938,-0.59375 0.90625,-0.90625 0.5625,-0.32812 1.32813,-0.32812 0.75,0 1.29687,0.32812 0.54688,0.3125 0.90625,0.90625 0.35938,0.57813 0.53125,1.39063 0.1875,0.8125 0.1875,1.79687 z m -1.4375,0 q 0,-0.70312 -0.0781,-1.28125 -0.0781,-0.59375 -0.26563,-1.01562 -0.17187,-0.42188 -0.46875,-0.65625 -0.28125,-0.23438 -0.67187,-0.23438 -0.42188,0 -0.70313,0.23438 -0.28125,0.23437 -0.46875,0.65625 -0.17187,0.42187 -0.26562,1.01562 -0.0781,0.57813 -0.0781,1.28125 0,0.70313 0.0781,1.29688 0.0937,0.57812 0.26562,1 0.1875,0.40625 0.46875,0.64062 0.28125,0.21875 0.70313,0.21875 0.39062,0 0.67187,-0.21875 0.29688,-0.23437 0.46875,-0.64062 0.1875,-0.42188 0.26563,-1 0.0781,-0.59375 0.0781,-1.29688 z m 3.4549,-3.96875 q 0.59375,-0.1875 1.28125,-0.29687 0.6875,-0.125 1.26562,-0.125 0.625,0 1.125,0.17187 0.51563,0.17188 0.875,0.57813 0.35938,0.39062 0.5625,1.07812 0.20313,0.67188 0.20313,1.67188 v 5.07812 h -1.375 v -4.95312 q 0,-1.25 -0.32813,-1.82813 -0.3125,-0.57812 -1.20312,-0.57812 -0.45313,0 -1.03125,0.15625 v 7.20312 h -1.375 z m 8.88391,7.1875 q 0.60937,0 0.90625,-0.34375 0.3125,-0.34375 0.3125,-0.90625 0,-0.35937 -0.125,-0.60937 -0.125,-0.25 -0.34375,-0.4375 -0.20313,-0.1875 -0.46875,-0.34375 -0.26563,-0.15625 -0.54688,-0.32813 -0.26562,-0.15625 -0.53125,-0.375 -0.25,-0.21875 -0.45312,-0.5 -0.20313,-0.28125 -0.32813,-0.64062 -0.10937,-0.35938 -0.10937,-0.82813 0,-1.04687 0.64062,-1.6875 0.65625,-0.64062 1.76563,-0.64062 0.45312,0 0.875,0.125 0.42187,0.10937 0.6875,0.26562 l -0.29688,1.09375 q -0.29687,-0.15625 -0.59375,-0.23437 -0.28125,-0.0781 -0.60937,-0.0781 -0.51563,0 -0.82813,0.29688 -0.29687,0.29687 -0.29687,0.85937 0,0.3125 0.10937,0.54688 0.10938,0.23437 0.29688,0.42187 0.1875,0.17188 0.42187,0.34375 0.23438,0.15625 0.48438,0.29688 0.3125,0.17187 0.59375,0.39062 0.29687,0.20313 0.53125,0.48438 0.23437,0.28125 0.375,0.65625 0.15625,0.375 0.15625,0.90625 0,1.09375 -0.65625,1.76562 -0.64063,0.67188 -1.89063,0.67188 -0.64062,0 -1.15625,-0.17188 -0.51562,-0.17187 -0.76562,-0.3125 l 0.28125,-1.14062 q 0.25,0.125 0.65625,0.29687 0.40625,0.15625 0.90625,0.15625 z m 9.48724,0.73438 q -0.21875,0.0781 -0.51562,0.15625 -0.29688,0.0625 -0.625,0.10937 -0.32813,0.0625 -0.65625,0.0937 -0.3125,0.0469 -0.59375,0.0469 -0.65625,0 -1.20313,-0.15625 -0.54687,-0.14063 -0.9375,-0.51563 -0.375,-0.39062 -0.57812,-1.04687 -0.20313,-0.67188 -0.20313,-1.6875 v -5.17188 h 1.375 v 5.125 q 0,1.23438 0.375,1.73438 0.375,0.5 1.14063,0.5 0.25,0 0.5,-0.0156 0.26562,-0.0312 0.54687,-0.10937 v -7.23438 h 1.375 z m 2.4769,-7.92188 q 0.5625,-0.1875 1.21875,-0.29687 0.65625,-0.125 1.1875,-0.125 0.5625,0 1.01562,0.15625 0.46875,0.14062 0.8125,0.46875 0.42188,-0.26563 0.89063,-0.4375 0.48437,-0.1875 1.0625,-0.1875 0.57812,0 1.04687,0.17187 0.46875,0.17188 0.79688,0.57813 0.34375,0.39062 0.53125,1.07812 0.20312,0.67188 0.20312,1.67188 v 5.07812 h -1.375 v -4.95312 q 0,-1.25 -0.29687,-1.82813 -0.28125,-0.57812 -1.07813,-0.57812 -0.3125,0 -0.625,0.10937 -0.29687,0.10938 -0.57812,0.3125 0.125,0.35938 0.1875,0.82813 0.0625,0.46875 0.0625,1.03125 v 5.07812 h -1.375 v -4.95312 q 0,-1.25 -0.28125,-1.82813 -0.28125,-0.57812 -1.09375,-0.57812 -0.40625,0 -0.9375,0.15625 v 7.20312 h -1.375 z m 12.10553,4.35938 q 0.0156,0.60937 0.10937,1.125 0.10938,0.5 0.3125,0.875 0.21875,0.375 0.57813,0.57812 0.35937,0.20313 0.92187,0.20313 0.46875,0 0.85938,-0.125 0.39062,-0.14063 0.5625,-0.23438 l 0.26562,1.10938 q -0.21875,0.14062 -0.70312,0.29687 -0.48438,0.17188 -1.15625,0.17188 -0.875,0 -1.48438,-0.3125 -0.59375,-0.32813 -0.96875,-0.89063 -0.375,-0.57812 -0.54687,-1.375 -0.15625,-0.8125 -0.15625,-1.76562 0,-2.32813 0.76562,-3.39063 0.76563,-1.07812 2.03125,-1.07812 1.4375,0 2.01563,1.07812 0.59375,1.0625 0.59375,3 0,0.17188 0,0.35938 0,0.1875 -0.0156,0.375 z m 1.39062,-3.64063 q -0.6875,0 -1,0.6875 -0.3125,0.6875 -0.375,1.84375 h 2.54688 q 0,-1.17187 -0.25,-1.84375 -0.23438,-0.6875 -0.92188,-0.6875 z m 8.27289,0.28125 q -0.5,-0.21875 -1.14062,-0.21875 -0.59375,0 -1.10938,0.20313 v 7.17187 h -1.375 v -8.03125 q 0.46875,-0.21875 1.0625,-0.375 0.59375,-0.15625 1.3125,-0.15625 0.39063,0 0.76563,0.0469 0.39062,0.0469 0.73437,0.17187 z m 4.61804,-1.71875 q 0.29688,-0.1875 0.625,-0.4375 0.32813,-0.25 0.625,-0.54687 0.3125,-0.29688 0.57813,-0.60938 0.26562,-0.3125 0.4375,-0.625 h 1.0625 v 11.09375 h -1.375 v -8.90625 q -0.28125,0.28125 -0.64063,0.54688 -0.35937,0.25 -0.75,0.46875 z"
       fill-rule="nonzero"
       id="path11" />
    <path
       fill="#000000"
       fill-opacity="0"
       d="m 456.24146,251.7546 c 0,-79.14632 66.70868,-146.05643 133.41736,-158.29263 66.70862,-12.236221 133.4173,30.20144 133.4173,60.40287"
       fill-rule="evenodd"
       id="path13" />
    <path
       stroke="#efefef"
       stroke-width="2"
       stroke-linejoin="round"
       stroke-linecap="butt"
       stroke-dasharray="8, 6"
       d="m 456.24146,251.7546 c 0,-79.14633 66.70868,-146.05643 133.41736,-158.29263 33.35431,-6.118111 66.70862,1.432251 91.72437,14.28731 12.50787,6.42753 22.93115,14.18125 30.22735,22.21566 3.64813,4.01722 6.51453,8.1046 8.46887,12.13147 l 0.0634,0.13247"
       fill-rule="evenodd"
       id="path15" />
    <path
       fill="#efefef"
       stroke="#efefef"
       stroke-width="2"
       stroke-linecap="butt"
       d="m 716.9396,143.03636 5.42181,7.99336 0.98468,-9.60837 z"
       fill-rule="evenodd"
       id="path17" />
    <path
       fill="#e06666"
       d="m 654.68555,245.48294 h 141.66931 v 38.77167 H 654.68555 Z"
       fill-rule="evenodd"
       id="path19" />
    <path
       fill="#f3f3f3"
       d="m 721.5219,258.74918 v 1.23438 h -2.46875 v 9.85937 h -1.4375 v -9.85937 h -2.46875 v -1.23438 z m 4.44348,0 q 0.39063,1.20313 0.76563,2.4375 0.375,1.21875 0.73437,2.5625 0.35938,1.34375 0.71875,2.84375 0.35938,1.5 0.73438,3.25 h -1.45313 q -0.125,-0.71875 -0.26562,-1.42187 -0.125,-0.70313 -0.26563,-1.40625 h -3.5 q -0.15625,0.70312 -0.28125,1.40625 -0.125,0.70312 -0.25,1.42187 h -1.40625 q 0.35938,-1.75 0.71875,-3.25 0.375,-1.5 0.73438,-2.84375 0.35937,-1.34375 0.73437,-2.5625 0.375,-1.23437 0.76563,-2.4375 z m -0.78125,1.64063 q -0.40625,1.32812 -0.78125,2.67187 -0.35937,1.34375 -0.6875,2.75 h 2.92188 q -0.3125,-1.40625 -0.6875,-2.75 -0.35938,-1.34375 -0.76563,-2.67187 z m 5.17304,0.57812 q 0.29687,-0.1875 0.625,-0.4375 0.32812,-0.25 0.625,-0.54687 0.3125,-0.29688 0.57812,-0.60938 0.26563,-0.3125 0.4375,-0.625 h 1.0625 v 11.09375 h -1.375 v -8.90625 q -0.28125,0.28125 -0.64062,0.54688 -0.35938,0.25 -0.75,0.46875 z"
       fill-rule="nonzero"
       id="path21" />
    <path
       fill="#6fa8dc"
       d="m 654.68555,293.76904 h 141.66931 v 38.77164 H 654.68555 Z"
       fill-rule="evenodd"
       id="path23" />
    <path
       fill="#f3f3f3"
       d="m 721.5219,307.03528 v 1.23437 h -2.46875 v 9.85938 h -1.4375 v -9.85938 h -2.46875 v -1.23437 z m 4.44354,0 q 0.39063,1.20312 0.76563,2.4375 0.375,1.21875 0.73437,2.5625 0.35938,1.34375 0.71875,2.84375 0.35938,1.5 0.73438,3.25 h -1.45313 q -0.125,-0.71875 -0.26562,-1.42188 -0.125,-0.70312 -0.26563,-1.40625 h -3.5 q -0.15625,0.70313 -0.28125,1.40625 -0.125,0.70313 -0.25,1.42188 h -1.40625 q 0.35938,-1.75 0.71875,-3.25 0.375,-1.5 0.73438,-2.84375 0.35937,-1.34375 0.73437,-2.5625 0.375,-1.23438 0.76563,-2.4375 z m -0.78125,1.64062 q -0.40625,1.32813 -0.78125,2.67188 -0.35937,1.34375 -0.6875,2.75 h 2.92188 q -0.3125,-1.40625 -0.6875,-2.75 -0.35938,-1.34375 -0.76563,-2.67188 z m 4.75116,-0.95312 q 0.9375,-0.9375 2.3125,-0.9375 1.28125,0 1.96875,0.6875 0.70313,0.67187 0.70313,2.10937 0,0.67188 -0.23438,1.28125 -0.21875,0.60938 -0.5625,1.1875 -0.32812,0.5625 -0.73437,1.125 -0.39063,0.54688 -0.76563,1.14063 -0.35937,0.57812 -0.64062,1.21875 -0.26563,0.625 -0.32813,1.34375 h 3.48438 v 1.25 h -4.96875 v -0.29688 q 0,-1.07812 0.25,-1.90625 0.25,-0.84375 0.60937,-1.51562 0.35938,-0.67188 0.79688,-1.23438 0.4375,-0.57812 0.79687,-1.125 0.35938,-0.5625 0.59375,-1.14062 0.25,-0.59375 0.25,-1.29688 0,-0.84375 -0.34375,-1.21875 -0.32812,-0.375 -1,-0.375 -0.45312,0 -0.82812,0.1875 -0.375,0.17188 -0.6875,0.46875 z"
       fill-rule="nonzero"
       id="path25" />
    <path
       fill="#000000"
       fill-opacity="0"
       d="m 680.0483,153.86343 h 86.0788 v 42.01575 h -86.0788 z"
       fill-rule="evenodd"
       id="path27" />
    <path
       fill="#ffffff"
       d="m 697.39264,173.36156 h 1.15625 q 2.3125,0 2.3125,-2.09375 0,-0.65625 -0.20312,-1.0625 -0.1875,-0.42188 -0.51563,-0.65625 -0.3125,-0.23438 -0.73437,-0.32813 -0.42188,-0.0937 -0.875,-0.0937 -0.28125,0 -0.57813,0.0156 -0.28125,0.0156 -0.5625,0.0625 z m 0,1.34375 v 4.65625 q 0.34375,0.0625 0.6875,0.10937 0.35938,0.0312 0.6875,0.0312 0.53125,0 0.98438,-0.10937 0.46875,-0.125 0.8125,-0.375 0.34375,-0.26563 0.53125,-0.71875 0.20312,-0.46875 0.20312,-1.14063 0,-1.15625 -0.625,-1.79687 -0.625,-0.65625 -1.9375,-0.65625 z m -1.6875,-6.67188 q 0.65625,-0.14062 1.32813,-0.21875 0.6875,-0.0937 1.35937,-0.0937 0.84375,0 1.59375,0.15625 0.76563,0.15625 1.34375,0.54688 0.57813,0.375 0.92188,1 0.34375,0.625 0.34375,1.5625 0,1.15625 -0.48438,1.90625 -0.48437,0.73437 -1.25,1.07812 0.95313,0.375 1.5625,1.14063 0.625,0.76562 0.625,2.10937 0,1 -0.32812,1.70313 -0.32813,0.6875 -0.9375,1.125 -0.59375,0.4375 -1.42188,0.64062 -0.82812,0.1875 -1.8125,0.1875 -0.65625,0 -1.375,-0.0781 -0.70312,-0.0781 -1.46875,-0.21875 z m 13.84491,4.40625 q -0.59375,-0.25 -1.34375,-0.25 -0.6875,0 -1.28125,0.23438 v 8.35937 h -1.60937 v -9.35937 q 0.54687,-0.26563 1.23437,-0.4375 0.70313,-0.1875 1.54688,-0.1875 0.45312,0 0.89062,0.0625 0.45313,0.0469 0.84375,0.20312 z m 7.99506,3.45313 q 0,1.15625 -0.21875,2.10937 -0.20313,0.9375 -0.625,1.60938 -0.40625,0.67187 -1.0625,1.04687 -0.64063,0.375 -1.51563,0.375 -0.875,0 -1.53125,-0.375 -0.65625,-0.375 -1.07812,-1.04687 -0.40625,-0.67188 -0.625,-1.60938 -0.20313,-0.95312 -0.20313,-2.10937 0,-1.14063 0.20313,-2.07813 0.21875,-0.95312 0.625,-1.64062 0.42187,-0.6875 1.07812,-1.04688 0.65625,-0.375 1.53125,-0.375 0.875,0 1.51563,0.375 0.65625,0.35938 1.0625,1.04688 0.42187,0.6875 0.625,1.64062 0.21875,0.9375 0.21875,2.07813 z m -1.6875,0 q 0,-0.8125 -0.0937,-1.5 -0.0937,-0.6875 -0.29688,-1.17188 -0.20312,-0.5 -0.54687,-0.76562 -0.32813,-0.26563 -0.79688,-0.26563 -0.48437,0 -0.8125,0.26563 -0.32812,0.26562 -0.54687,0.76562 -0.20313,0.48438 -0.29688,1.17188 -0.0937,0.6875 -0.0937,1.5 0,0.82812 0.0937,1.51562 0.0937,0.67188 0.29688,1.15625 0.21875,0.48438 0.54687,0.76563 0.32813,0.26562 0.8125,0.26562 0.46875,0 0.79688,-0.26562 0.34375,-0.28125 0.54687,-0.76563 0.20313,-0.48437 0.29688,-1.15625 0.0937,-0.6875 0.0937,-1.51562 z m 10.091,-4.90625 q -0.78125,1.34375 -1.5,2.45312 -0.71875,1.10938 -1.42188,2.07813 0.4375,0.53125 0.90625,1.1875 0.46875,0.64062 0.89063,1.34375 0.4375,0.70312 0.8125,1.40625 0.375,0.6875 0.625,1.32812 h -1.75 q -0.28125,-0.60937 -0.65625,-1.28125 -0.35938,-0.67187 -0.78125,-1.3125 -0.40625,-0.65625 -0.8125,-1.23437 -0.40625,-0.57813 -0.76563,-0.96875 v 4.79687 h -1.60937 v -14.20312 l 1.60937,-0.28125 v 8.90625 q 0.32813,-0.45313 0.70313,-1 0.39062,-0.5625 0.76562,-1.125 0.375,-0.57813 0.70313,-1.10938 0.34375,-0.54687 0.5625,-0.98437 z m 2.73309,5.375 q 0.0156,0.70312 0.125,1.29687 0.10938,0.59375 0.35938,1.03125 0.25,0.4375 0.67187,0.6875 0.42188,0.23438 1.07813,0.23438 0.53125,0 0.98437,-0.15625 0.46875,-0.17188 0.67188,-0.28125 l 0.29687,1.29687 q -0.23437,0.15625 -0.8125,0.35938 -0.5625,0.20312 -1.34375,0.20312 -1.03125,0 -1.73437,-0.375 -0.6875,-0.375 -1.14063,-1.04687 -0.4375,-0.67188 -0.625,-1.60938 -0.17187,-0.9375 -0.17187,-2.04687 0,-2.70313 0.89062,-3.95313 0.89063,-1.25 2.35938,-1.25 1.67187,0 2.35937,1.25 0.6875,1.25 0.6875,3.5 0,0.20313 0,0.42188 0,0.21875 -0.0156,0.4375 z m 1.60938,-4.25 q -0.79688,0 -1.15625,0.79687 -0.35938,0.79688 -0.4375,2.14063 h 2.96875 q 0,-1.35938 -0.28125,-2.14063 -0.28125,-0.79687 -1.09375,-0.79687 z m 9.64972,0.32812 q -0.59375,-0.25 -1.34375,-0.25 -0.6875,0 -1.28125,0.23438 v 8.35937 h -1.60938 v -9.35937 q 0.54688,-0.26563 1.23438,-0.4375 0.70312,-0.1875 1.54687,-0.1875 0.45313,0 0.89063,0.0625 0.45312,0.0469 0.84375,0.20312 z m 5.38226,-2.01562 q 0.34375,-0.20313 0.71875,-0.5 0.39062,-0.29688 0.75,-0.64063 0.35937,-0.34375 0.65625,-0.70312 0.3125,-0.375 0.51562,-0.71875 h 1.23438 v 12.92187 h -1.60938 v -10.39062 q -0.3125,0.32812 -0.73437,0.64062 -0.42188,0.29688 -0.89063,0.54688 z"
       fill-rule="nonzero"
       id="path29" />
    <path
       fill="#000000"
       fill-opacity="0"
       d="M 639.99023,174.38899 V 354.3818"
       fill-rule="evenodd"
       id="path31" />
    <path
       stroke="#f3f3f3"
       stroke-width="1"
       stroke-linejoin="round"
       stroke-linecap="butt"
       d="M 639.99023,174.38899 V 354.3818"
       fill-rule="evenodd"
       id="path33" />
    <path
       fill="#000000"
       fill-opacity="0"
       d="M 809.0252,174.38899 V 354.3818"
       fill-rule="evenodd"
       id="path35" />
    <path
       stroke="#f3f3f3"
       stroke-width="1"
       stroke-linejoin="round"
       stroke-linecap="butt"
       d="M 809.0252,174.38899 V 354.3818"
       fill-rule="evenodd"
       id="path37" />
    <path
       fill="#000000"
       fill-opacity="0"
       d="M 639.4896,354.3818 H 809.20493"
       fill-rule="evenodd"
       id="path39" />
    <path
       stroke="#f3f3f3"
       stroke-width="1"
       stroke-linejoin="round"
       stroke-linecap="butt"
       d="M 639.4896,354.3818 H 809.20493"
       fill-rule="evenodd"
       id="path41" />
    <path
       fill="#000000"
       fill-opacity="0"
       d="m 639.9886,174.74008 40.05969,0.13123"
       fill-rule="evenodd"
       id="path43" />
    <path
       stroke="#f3f3f3"
       stroke-width="1"
       stroke-linejoin="round"
       stroke-linecap="butt"
       d="m 639.9886,174.74008 40.05969,0.13123"
       fill-rule="evenodd"
       id="path45" />
    <path
       fill="#000000"
       fill-opacity="0"
       d="m 766.1271,174.8713 41.78272,-0.13123"
       fill-rule="evenodd"
       id="path47" />
    <path
       stroke="#f3f3f3"
       stroke-width="1"
       stroke-linejoin="round"
       stroke-linecap="butt"
       d="m 766.1271,174.8713 41.78272,-0.13123"
       fill-rule="evenodd"
       id="path49" />
    <path
       fill="#e06666"
       d="m 654.68506,202.78477 h 141.66925 v 25.25984 H 654.68506 Z"
       fill-rule="evenodd"
       id="path51" />
    <path
       stroke="#595959"
       stroke-width="1"
       stroke-linejoin="round"
       stroke-linecap="butt"
       d="m 654.68506,202.78477 h 141.66925 v 25.25984 H 654.68506 Z"
       fill-rule="evenodd"
       id="path53" />
    <path
       fill="#f3f3f3"
       d="m 664.62506,223.0247 h 6 v 1.15625 h -6 z m 5.87201,0 h 6 v 1.15625 h -6 z m 9.74701,-1.54688 q -0.875,0 -1.45313,-0.32812 -0.5625,-0.34375 -0.92187,-0.92188 -0.35938,-0.57812 -0.51563,-1.375 -0.15625,-0.8125 -0.15625,-1.75 0,-2.07812 0.75,-3.25 0.76563,-1.1875 2.3125,-1.1875 0.45313,0 0.82813,0.10938 0.375,0.10937 0.6875,0.29687 l -0.35938,1.125 q -0.48437,-0.3125 -1.09375,-0.3125 -0.85937,0 -1.28125,0.78125 -0.40625,0.78125 -0.40625,2.4375 0,0.6875 0.0781,1.28125 0.0937,0.57813 0.28125,1 0.20312,0.40625 0.53125,0.64063 0.32812,0.23437 0.84375,0.23437 0.34375,0 0.625,-0.0781 0.28125,-0.0937 0.54687,-0.23438 l 0.29688,1.07813 q -0.25,0.17187 -0.6875,0.3125 -0.42188,0.14062 -0.90625,0.14062 z m 8.39612,-4.39062 q 0,0.98437 -0.1875,1.79687 -0.17188,0.8125 -0.53125,1.39063 -0.35938,0.5625 -0.90625,0.89062 -0.54688,0.3125 -1.29688,0.3125 -0.76562,0 -1.32812,-0.3125 -0.54688,-0.32812 -0.90625,-0.89062 -0.35938,-0.57813 -0.54688,-1.39063 -0.17187,-0.8125 -0.17187,-1.79687 0,-0.98438 0.17187,-1.79688 0.1875,-0.8125 0.54688,-1.39062 0.35937,-0.59375 0.90625,-0.90625 0.5625,-0.32813 1.32812,-0.32813 0.75,0 1.29688,0.32813 0.54687,0.3125 0.90625,0.90625 0.35937,0.57812 0.53125,1.39062 0.1875,0.8125 0.1875,1.79688 z m -1.4375,0 q 0,-0.70313 -0.0781,-1.28125 -0.0781,-0.59375 -0.26562,-1.01563 -0.17188,-0.42187 -0.46875,-0.65625 -0.28125,-0.23437 -0.67188,-0.23437 -0.42187,0 -0.70312,0.23437 -0.28125,0.23438 -0.46875,0.65625 -0.17188,0.42188 -0.26563,1.01563 -0.0781,0.57812 -0.0781,1.28125 0,0.70312 0.0781,1.29687 0.0937,0.57813 0.26563,1 0.1875,0.40625 0.46875,0.64063 0.28125,0.21875 0.70312,0.21875 0.39063,0 0.67188,-0.21875 0.29687,-0.23438 0.46875,-0.64063 0.1875,-0.42187 0.26562,-1 0.0781,-0.59375 0.0781,-1.29687 z m 3.45489,-3.96875 q 0.5625,-0.1875 1.21875,-0.29688 0.65625,-0.125 1.1875,-0.125 0.5625,0 1.01563,0.15625 0.46875,0.14063 0.8125,0.46875 0.42187,-0.26562 0.89062,-0.4375 0.48438,-0.1875 1.0625,-0.1875 0.57813,0 1.04688,0.17188 0.46875,0.17187 0.79687,0.57812 0.34375,0.39063 0.53125,1.07813 0.20313,0.67187 0.20313,1.67187 v 5.07813 h -1.375 v -4.95313 q 0,-1.25 -0.29688,-1.82812 -0.28125,-0.57813 -1.07812,-0.57813 -0.3125,0 -0.625,0.10938 -0.29688,0.10937 -0.57813,0.3125 0.125,0.35937 0.1875,0.82812 0.0625,0.46875 0.0625,1.03125 v 5.07813 h -1.375 v -4.95313 q 0,-1.25 -0.28125,-1.82812 -0.28125,-0.57813 -1.09375,-0.57813 -0.40625,0 -0.9375,0.15625 v 7.20313 h -1.375 z m 11.16803,0 q 0.5625,-0.1875 1.21875,-0.29688 0.65625,-0.125 1.1875,-0.125 0.5625,0 1.01563,0.15625 0.46875,0.14063 0.8125,0.46875 0.42187,-0.26562 0.89062,-0.4375 0.48438,-0.1875 1.0625,-0.1875 0.57813,0 1.04688,0.17188 0.46875,0.17187 0.79687,0.57812 0.34375,0.39063 0.53125,1.07813 0.20313,0.67187 0.20313,1.67187 v 5.07813 h -1.375 v -4.95313 q 0,-1.25 -0.29688,-1.82812 -0.28125,-0.57813 -1.07812,-0.57813 -0.3125,0 -0.625,0.10938 -0.29688,0.10937 -0.57813,0.3125 0.125,0.35937 0.1875,0.82812 0.0625,0.46875 0.0625,1.03125 v 5.07813 h -1.375 v -4.95313 q 0,-1.25 -0.28125,-1.82812 -0.28125,-0.57813 -1.09375,-0.57813 -0.40625,0 -0.9375,0.15625 v 7.20313 h -1.375 z m 12.54303,8.15625 h -1.375 v -8.40625 h 1.375 z m -0.6875,-9.89063 q -0.375,0 -0.64062,-0.25 -0.25,-0.25 -0.25,-0.65625 0,-0.42187 0.25,-0.67187 0.26562,-0.25 0.64062,-0.25 0.35938,0 0.625,0.25 0.26563,0.25 0.26563,0.67187 0,0.40625 -0.26563,0.65625 -0.26562,0.25 -0.625,0.25 z m 4.46576,1.48438 h 2.10938 v 1.1875 h -2.10938 v 4.625 q 0,0.85937 0.3125,1.20312 0.3125,0.34375 0.84375,0.34375 0.26563,0 0.51563,-0.0781 0.25,-0.0781 0.42187,-0.1875 l 0.26563,1.10937 q -0.65625,0.375 -1.39063,0.375 -1.1875,0 -1.76562,-0.65625 -0.57813,-0.67187 -0.57813,-2.20312 v -7.96875 l 1.375,-0.23438 z m 5.13599,0 h 2.10937 v 1.1875 h -2.10937 v 4.625 q 0,0.85937 0.3125,1.20312 0.3125,0.34375 0.84375,0.34375 0.26562,0 0.51562,-0.0781 0.25,-0.0781 0.42188,-0.1875 l 0.26562,1.10937 q -0.65625,0.375 -1.39062,0.375 -1.1875,0 -1.76563,-0.65625 -0.57812,-0.67187 -0.57812,-2.20312 v -7.96875 l 1.375,-0.23438 z m 4.71228,4.60937 q 0.0156,0.60938 0.10937,1.125 0.10938,0.5 0.3125,0.875 0.21875,0.375 0.57813,0.57813 0.35937,0.20312 0.92187,0.20312 0.46875,0 0.85938,-0.125 0.39062,-0.14062 0.5625,-0.23437 l 0.26562,1.10937 q -0.21875,0.14063 -0.70312,0.29688 -0.48438,0.17187 -1.15625,0.17187 -0.875,0 -1.48438,-0.3125 -0.59375,-0.32812 -0.96875,-0.89062 -0.375,-0.57813 -0.54687,-1.375 -0.15625,-0.8125 -0.15625,-1.76563 0,-2.32812 0.76562,-3.39062 0.76563,-1.07813 2.03125,-1.07813 1.4375,0 2.01563,1.07813 0.59375,1.0625 0.59375,3 0,0.17187 0,0.35937 0,0.1875 -0.0156,0.375 z m 1.39062,-3.64062 q -0.6875,0 -1,0.6875 -0.3125,0.6875 -0.375,1.84375 h 2.54688 q 0,-1.17188 -0.25,-1.84375 -0.23438,-0.6875 -0.92188,-0.6875 z m 8.25727,0.29687 q -0.45313,-0.25 -0.98438,-0.25 -0.40625,0 -0.71875,0.15625 -0.29687,0.15625 -0.51562,0.53125 -0.20313,0.35938 -0.32813,0.96875 -0.10937,0.60938 -0.10937,1.51563 0,1.71875 0.45312,2.46875 0.46875,0.73437 1.39063,0.73437 0.17187,0 0.375,-0.0156 0.21875,-0.0312 0.4375,-0.0937 z m 0,-5.03125 1.375,-0.25 v 12.20313 q -0.4375,0.1875 -1.01563,0.29687 -0.57812,0.125 -1.17187,0.125 -1.73438,0 -2.51563,-1.09375 -0.76562,-1.10937 -0.76562,-3.32812 0,-1.01563 0.17187,-1.8125 0.17188,-0.8125 0.53125,-1.375 0.35938,-0.57813 0.90625,-0.89063 0.5625,-0.3125 1.34375,-0.3125 0.35938,0 0.625,0.0781 0.26563,0.0625 0.51563,0.1875 z m 2.55017,13.92188 h 6 v 1.15625 h -6 z m 12.57513,-5.9375 q 0,0.98437 -0.1875,1.79687 -0.17187,0.8125 -0.53125,1.39063 -0.35937,0.5625 -0.90625,0.89062 -0.54687,0.3125 -1.29687,0.3125 -0.76563,0 -1.32813,-0.3125 -0.54687,-0.32812 -0.90625,-0.89062 -0.35937,-0.57813 -0.54687,-1.39063 -0.17188,-0.8125 -0.17188,-1.79687 0,-0.98438 0.17188,-1.79688 0.1875,-0.8125 0.54687,-1.39062 0.35938,-0.59375 0.90625,-0.90625 0.5625,-0.32813 1.32813,-0.32813 0.75,0 1.29687,0.32813 0.54688,0.3125 0.90625,0.90625 0.35938,0.57812 0.53125,1.39062 0.1875,0.8125 0.1875,1.79688 z m -1.4375,0 q 0,-0.70313 -0.0781,-1.28125 -0.0781,-0.59375 -0.26563,-1.01563 -0.17187,-0.42187 -0.46875,-0.65625 -0.28125,-0.23437 -0.67187,-0.23437 -0.42188,0 -0.70313,0.23437 -0.28125,0.23438 -0.46875,0.65625 -0.17187,0.42188 -0.26562,1.01563 -0.0781,0.57812 -0.0781,1.28125 0,0.70312 0.0781,1.29687 0.0937,0.57813 0.26562,1 0.1875,0.40625 0.46875,0.64063 0.28125,0.21875 0.70313,0.21875 0.39062,0 0.67187,-0.21875 0.29688,-0.23438 0.46875,-0.64063 0.1875,-0.42187 0.26563,-1 0.0781,-0.59375 0.0781,-1.29687 z m 5.90802,-8.23438 q 0.45313,0 0.79688,0.10938 0.35937,0.0937 0.59375,0.20312 l -0.29688,1.07813 q -0.21875,-0.10938 -0.46875,-0.15625 -0.23437,-0.0625 -0.5,-0.0625 -0.375,0 -0.625,0.14062 -0.23437,0.125 -0.35937,0.34375 -0.125,0.21875 -0.17188,0.53125 -0.0469,0.3125 -0.0469,0.67188 v 1.15625 h 2.15625 v 1.1875 h -2.15625 v 7.21875 h -1.375 v -9.5625 q 0,-1.35938 0.60937,-2.10938 0.60938,-0.75 1.84375,-0.75 z m 4.89063,0 q 0.45312,0 0.79687,0.10938 0.35938,0.0937 0.59375,0.20312 l -0.29687,1.07813 q -0.21875,-0.10938 -0.46875,-0.15625 -0.23438,-0.0625 -0.5,-0.0625 -0.375,0 -0.625,0.14062 -0.23438,0.125 -0.35938,0.34375 -0.125,0.21875 -0.17187,0.53125 -0.0469,0.3125 -0.0469,0.67188 v 1.15625 h 2.15625 v 1.1875 h -2.15625 v 7.21875 h -1.375 v -9.5625 q 0,-1.35938 0.60938,-2.10938 0.60937,-0.75 1.84375,-0.75 z m 3.62011,11.45313 q 0.60938,0 0.90625,-0.34375 0.3125,-0.34375 0.3125,-0.90625 0,-0.35938 -0.125,-0.60938 -0.125,-0.25 -0.34375,-0.4375 -0.20312,-0.1875 -0.46875,-0.34375 -0.26562,-0.15625 -0.54687,-0.32812 -0.26563,-0.15625 -0.53125,-0.375 -0.25,-0.21875 -0.45313,-0.5 -0.20312,-0.28125 -0.32812,-0.64063 -0.10938,-0.35937 -0.10938,-0.82812 0,-1.04688 0.64063,-1.6875 0.65625,-0.64063 1.76562,-0.64063 0.45313,0 0.875,0.125 0.42188,0.10938 0.6875,0.26563 l -0.29687,1.09375 q -0.29688,-0.15625 -0.59375,-0.23438 -0.28125,-0.0781 -0.60938,-0.0781 -0.51562,0 -0.82812,0.29687 -0.29688,0.29688 -0.29688,0.85938 0,0.3125 0.10938,0.54687 0.10937,0.23438 0.29687,0.42188 0.1875,0.17187 0.42188,0.34375 0.23437,0.15625 0.48437,0.29687 0.3125,0.17188 0.59375,0.39063 0.29688,0.20312 0.53125,0.48437 0.23438,0.28125 0.375,0.65625 0.15625,0.375 0.15625,0.90625 0,1.09375 -0.65625,1.76563 -0.64062,0.67187 -1.89062,0.67187 -0.64063,0 -1.15625,-0.17187 -0.51563,-0.17188 -0.76563,-0.3125 l 0.28125,-1.14063 q 0.25,0.125 0.65625,0.29688 0.40625,0.15625 0.90625,0.15625 z m 5.22162,-2.82813 q 0.0156,0.60938 0.10938,1.125 0.10937,0.5 0.3125,0.875 0.21875,0.375 0.57812,0.57813 0.35938,0.20312 0.92188,0.20312 0.46875,0 0.85937,-0.125 0.39063,-0.14062 0.5625,-0.23437 l 0.26563,1.10937 q -0.21875,0.14063 -0.70313,0.29688 -0.48437,0.17187 -1.15625,0.17187 -0.875,0 -1.48437,-0.3125 -0.59375,-0.32812 -0.96875,-0.89062 -0.375,-0.57813 -0.54688,-1.375 -0.15625,-0.8125 -0.15625,-1.76563 0,-2.32812 0.76563,-3.39062 0.76562,-1.07813 2.03125,-1.07813 1.4375,0 2.01562,1.07813 0.59375,1.0625 0.59375,3 0,0.17187 0,0.35937 0,0.1875 -0.0156,0.375 z m 1.39063,-3.64062 q -0.6875,0 -1,0.6875 -0.3125,0.6875 -0.375,1.84375 h 2.54687 q 0,-1.17188 -0.25,-1.84375 -0.23437,-0.6875 -0.92187,-0.6875 z m 5.92913,-0.96875 h 2.10938 v 1.1875 h -2.10938 v 4.625 q 0,0.85937 0.3125,1.20312 0.3125,0.34375 0.84375,0.34375 0.26563,0 0.51563,-0.0781 0.25,-0.0781 0.42187,-0.1875 l 0.26563,1.10937 q -0.65625,0.375 -1.39063,0.375 -1.1875,0 -1.76562,-0.65625 -0.57813,-0.67187 -0.57813,-2.20312 v -7.96875 l 1.375,-0.23438 z m 5.02668,7.4375 q 0.60937,0 0.90625,-0.34375 0.3125,-0.34375 0.3125,-0.90625 0,-0.35938 -0.125,-0.60938 -0.125,-0.25 -0.34375,-0.4375 -0.20313,-0.1875 -0.46875,-0.34375 -0.26563,-0.15625 -0.54688,-0.32812 -0.26562,-0.15625 -0.53125,-0.375 -0.25,-0.21875 -0.45312,-0.5 -0.20313,-0.28125 -0.32813,-0.64063 -0.10937,-0.35937 -0.10937,-0.82812 0,-1.04688 0.64062,-1.6875 0.65625,-0.64063 1.76563,-0.64063 0.45312,0 0.875,0.125 0.42187,0.10938 0.6875,0.26563 l -0.29688,1.09375 q -0.29687,-0.15625 -0.59375,-0.23438 -0.28125,-0.0781 -0.60937,-0.0781 -0.51563,0 -0.82813,0.29687 -0.29687,0.29688 -0.29687,0.85938 0,0.3125 0.10937,0.54687 0.10938,0.23438 0.29688,0.42188 0.1875,0.17187 0.42187,0.34375 0.23438,0.15625 0.48438,0.29687 0.3125,0.17188 0.59375,0.39063 0.29687,0.20312 0.53125,0.48437 0.23437,0.28125 0.375,0.65625 0.15625,0.375 0.15625,0.90625 0,1.09375 -0.65625,1.76563 -0.64063,0.67187 -1.89063,0.67187 -0.64062,0 -1.15625,-0.17187 -0.51562,-0.17188 -0.76562,-0.3125 l 0.28125,-1.14063 q 0.25,0.125 0.65625,0.29688 0.40625,0.15625 0.90625,0.15625 z"
       fill-rule="nonzero"
       id="path55" />
    <path
       fill="#000000"
       fill-opacity="0"
       d="m 455.44266,277.8528 c 0,64.02566 66.9606,118.58279 133.92123,128.0513 66.96063,9.46851 133.92126,-26.15164 133.92126,-52.30325"
       fill-rule="evenodd"
       id="path57" />
    <path
       stroke="#efefef"
       stroke-width="2"
       stroke-linejoin="round"
       stroke-linecap="butt"
       stroke-dasharray="8, 6"
       d="m 456.22293,289.82742 0.086,0.64481 c 0.0336,0.24456 0.0681,0.48898 0.10364,0.73318 0.071,0.48843 0.14575,0.97611 0.22427,1.46304 0.1571,0.97388 0.32928,1.9448 0.51623,2.91257 0.374,1.93555 0.80716,3.85858 1.29761,5.76801 1.96176,7.63775 4.83896,15.05798 8.50089,22.19113 7.32379,14.26626 17.7864,27.38421 30.34152,38.79724 25.11026,22.82608 58.59055,38.83246 92.07089,43.56671 66.96063,9.4685 133.92126,-26.15161 133.92126,-52.30329"
       fill-rule="evenodd"
       id="path59" />
    <path
       fill="#efefef"
       stroke="#efefef"
       stroke-width="2"
       stroke-linecap="butt"
       d="m 459.5194,289.6126 -3.88663,-8.84219 -2.70633,9.27179 z"
       fill-rule="evenodd"
       id="path61" />
    <path
       fill="#000000"
       fill-opacity="0"
       d="m 541.3927,243.37665 h 73.70074 V 285.3924 H 541.3927 Z"
       fill-rule="evenodd"
       id="path63" />
    <path
       fill="#f3f3f3"
       d="m 562.11096,268.82788 q 0.53125,0.29687 1.15625,0.29687 0.46875,0 0.8125,-0.1875 0.35937,-0.1875 0.60937,-0.60937 0.25,-0.4375 0.375,-1.14063 0.14063,-0.71875 0.14063,-1.76562 0,-2.01563 -0.51563,-2.875 -0.51562,-0.875 -1.625,-0.875 -0.21875,0 -0.46875,0.0312 -0.23437,0.0312 -0.48437,0.10937 z m 0,4.92187 h -1.60938 v -12.98437 q 0.51563,-0.21875 1.17188,-0.35938 0.67187,-0.14062 1.35937,-0.14062 1.03125,0 1.76563,0.35937 0.73437,0.34375 1.1875,1.01563 0.46875,0.65625 0.67187,1.625 0.21875,0.95312 0.21875,2.1875 0,2.46875 -0.79687,3.78125 -0.78125,1.3125 -2.57813,1.3125 -0.42187,0 -0.76562,-0.0937 -0.32813,-0.0781 -0.625,-0.23438 z m 13.41559,-8.34375 q 0,1.15625 -0.21875,2.10938 -0.20313,0.9375 -0.625,1.60937 -0.40625,0.67188 -1.0625,1.04688 -0.64063,0.375 -1.51563,0.375 -0.875,0 -1.53125,-0.375 -0.65625,-0.375 -1.07812,-1.04688 -0.40625,-0.67187 -0.625,-1.60937 -0.20313,-0.95313 -0.20313,-2.10938 0,-1.14062 0.20313,-2.07812 0.21875,-0.95313 0.625,-1.64063 0.42187,-0.6875 1.07812,-1.04687 0.65625,-0.375 1.53125,-0.375 0.875,0 1.51563,0.375 0.65625,0.35937 1.0625,1.04687 0.42187,0.6875 0.625,1.64063 0.21875,0.9375 0.21875,2.07812 z m -1.6875,0 q 0,-0.8125 -0.0937,-1.5 -0.0937,-0.6875 -0.29688,-1.17187 -0.20312,-0.5 -0.54687,-0.76563 -0.32813,-0.26562 -0.79688,-0.26562 -0.48437,0 -0.8125,0.26562 -0.32812,0.26563 -0.54687,0.76563 -0.20313,0.48437 -0.29688,1.17187 -0.0937,0.6875 -0.0937,1.5 0,0.82813 0.0937,1.51563 0.0937,0.67187 0.29688,1.15625 0.21875,0.48437 0.54687,0.76562 0.32813,0.26563 0.8125,0.26563 0.46875,0 0.79688,-0.26563 0.34375,-0.28125 0.54687,-0.76562 0.20313,-0.48438 0.29688,-1.15625 0.0937,-0.6875 0.0937,-1.51563 z m 6.57538,5.07813 q -1.39063,-0.0312 -1.98438,-0.67188 -0.59375,-0.65625 -0.59375,-2.04687 V 256.0935 l 1.59375,-0.28123 v 11.98436 q 0,0.65625 0.26563,0.95313 0.26562,0.28125 0.92187,0.39062 z m 4.53344,0 q -1.39062,-0.0312 -1.98437,-0.67188 -0.59375,-0.65625 -0.59375,-2.04687 V 256.0935 l 1.59375,-0.28123 v 11.98436 q 0,0.65625 0.26562,0.95313 0.26563,0.28125 0.92188,0.39062 z m 3.54908,-5.76563 q 0,2.39063 0.57812,4.5 0.57813,2.10938 1.625,3.85938 l -1.28125,0.70312 q -1.15625,-1.8125 -1.84375,-4.09375 -0.67187,-2.29687 -0.67187,-4.96875 0,-2.67187 0.67187,-4.95312 0.6875,-2.29688 1.84375,-4.10936 l 1.28125,0.70311 q -1.04687,1.75 -1.625,3.85938 -0.57812,2.10937 -0.57812,4.49999 z m 5.90496,0 q 0,-2.39062 -0.57812,-4.5 -0.57813,-2.10937 -1.625,-3.85937 l 1.28125,-0.70311 q 1.15625,1.81248 1.84375,4.10936 0.6875,2.28125 0.6875,4.95312 0,2.67188 -0.6875,4.96875 -0.6875,2.28125 -1.84375,4.09375 l -1.28125,-0.70312 q 1.04687,-1.75 1.625,-3.85938 0.57812,-2.10937 0.57812,-4.5 z"
       fill-rule="nonzero"
       id="path65" />
    <path
       fill="#000000"
       fill-opacity="0"
       d="m 538.0121,109.21785 h 111.46454 v 37.16536 H 538.0121 Z"
       fill-rule="evenodd"
       id="path67" />
    <path
       fill="#f3f3f3"
       d="m 549.3871,127.92284 q 0,1.87501 0.45313,3.53126 0.45312,1.65625 1.28125,3.03125 l -1.01563,0.54688 q -0.90625,-1.42188 -1.45312,-3.21875 -0.53125,-1.79688 -0.53125,-3.89064 0,-2.10937 0.53125,-3.90625 0.54687,-1.79687 1.45312,-3.21875 l 1.01563,0.54688 q -0.82813,1.375 -1.28125,3.03125 -0.45313,1.65625 -0.45313,3.54687 z m 5.28644,4.56251 q -0.78125,0 -1.3125,-0.29687 -0.53125,-0.3125 -0.85938,-0.84375 -0.32812,-0.54688 -0.46875,-1.26563 -0.14062,-0.73437 -0.14062,-1.60937 0,-1.90626 0.6875,-2.98439 0.70312,-1.07812 2.10937,-1.07812 0.42188,0 0.76563,0.10937 0.34375,0.0937 0.625,0.26563 l -0.3125,1.03125 q -0.45313,-0.28125 -1.01563,-0.28125 -0.79687,0 -1.17187,0.71875 -0.375,0.71875 -0.375,2.21876 0,0.64062 0.0781,1.17187 0.0781,0.53125 0.25,0.92188 0.1875,0.375 0.48438,0.59375 0.3125,0.21875 0.78125,0.21875 0.3125,0 0.5625,-0.0781 0.26562,-0.0781 0.5,-0.21875 l 0.28125,0.98438 q -0.23438,0.15625 -0.625,0.28125 -0.39063,0.14062 -0.84375,0.14062 z m 7.69409,-4.03125 q 0,0.90625 -0.15625,1.65625 -0.15625,0.73438 -0.5,1.26563 -0.32813,0.53125 -0.82813,0.82812 -0.5,0.28125 -1.1875,0.28125 -0.6875,0 -1.20312,-0.28125 -0.51563,-0.29687 -0.84375,-0.82812 -0.32813,-0.53125 -0.5,-1.26563 -0.15625,-0.75 -0.15625,-1.65625 0,-0.89063 0.15625,-1.64063 0.17187,-0.75 0.5,-1.28125 0.32812,-0.53125 0.84375,-0.82813 0.51562,-0.29687 1.20312,-0.29687 0.6875,0 1.1875,0.29687 0.5,0.29688 0.82813,0.82813 0.34375,0.53125 0.5,1.28125 0.15625,0.75 0.15625,1.64063 z m -1.3125,0 q 0,-0.64063 -0.0781,-1.17188 -0.0781,-0.54688 -0.23437,-0.92188 -0.15625,-0.39062 -0.42188,-0.59375 -0.26562,-0.21875 -0.625,-0.21875 -0.39062,0 -0.65625,0.21875 -0.25,0.20313 -0.42187,0.59375 -0.15625,0.375 -0.23438,0.92188 -0.0781,0.53125 -0.0781,1.17188 0,0.65625 0.0781,1.1875 0.0781,0.53125 0.23438,0.92188 0.17187,0.375 0.42187,0.59375 0.26563,0.20312 0.65625,0.20312 0.35938,0 0.625,-0.20312 0.26563,-0.21875 0.42188,-0.59375 0.15625,-0.39063 0.23437,-0.92188 0.0781,-0.53125 0.0781,-1.1875 z m 3.16083,-3.62501 q 0.51562,-0.17187 1.10937,-0.28125 0.60938,-0.10937 1.10938,-0.10937 0.51562,0 0.92187,0.14062 0.42188,0.125 0.75,0.4375 0.375,-0.25 0.8125,-0.40625 0.4375,-0.17187 0.96875,-0.17187 0.53125,0 0.95313,0.15625 0.4375,0.15625 0.75,0.53125 0.3125,0.35937 0.48437,0.98437 0.17188,0.625 0.17188,1.54688 v 4.64063 h -1.25 v -4.54688 q 0,-1.14063 -0.26563,-1.65625 -0.26562,-0.53125 -1,-0.53125 -0.28125,0 -0.57812,0.10937 -0.28125,0.0937 -0.51563,0.26563 0.10938,0.32812 0.17188,0.76562 0.0625,0.42188 0.0625,0.95313 v 4.64063 h -1.26563 v -4.54688 q 0,-1.14063 -0.26562,-1.65625 -0.26563,-0.53125 -1,-0.53125 -0.375,0 -0.85938,0.14062 v 6.59376 h -1.26562 z m 10.2301,0 q 0.51563,-0.17187 1.10938,-0.28125 0.60937,-0.10937 1.10937,-0.10937 0.51563,0 0.92188,0.14062 0.42187,0.125 0.75,0.4375 0.375,-0.25 0.8125,-0.40625 0.4375,-0.17187 0.96875,-0.17187 0.53125,0 0.95312,0.15625 0.4375,0.15625 0.75,0.53125 0.3125,0.35937 0.48438,0.98437 0.17187,0.625 0.17187,1.54688 v 4.64063 h -1.25 v -4.54688 q 0,-1.14063 -0.26562,-1.65625 -0.26563,-0.53125 -1,-0.53125 -0.28125,0 -0.57813,0.10937 -0.28125,0.0937 -0.51562,0.26563 0.10937,0.32812 0.17187,0.76562 0.0625,0.42188 0.0625,0.95313 v 4.64063 h -1.26562 v -4.54688 q 0,-1.14063 -0.26563,-1.65625 -0.26562,-0.53125 -1,-0.53125 -0.375,0 -0.85937,0.14062 v 6.59376 h -1.26563 z m 11.49573,7.46876 h -1.26563 v -7.68751 h 1.26563 z m -0.64063,-9.06251 q -0.32812,0 -0.57812,-0.21875 -0.23438,-0.23437 -0.23438,-0.60937 0,-0.39063 0.23438,-0.60938 0.25,-0.23437 0.57812,-0.23437 0.34375,0 0.57813,0.23437 0.25,0.21875 0.25,0.60938 0,0.375 -0.25,0.60937 -0.23438,0.21875 -0.57813,0.21875 z m 4.09375,1.375 h 1.9375 v 1.07813 h -1.9375 v 4.23438 q 0,0.79688 0.28125,1.10938 0.29688,0.3125 0.78125,0.3125 0.25,0 0.46875,-0.0625 0.23438,-0.0781 0.39063,-0.1875 l 0.25,1.01562 q -0.59375,0.34375 -1.28125,0.34375 -1.07813,0 -1.60938,-0.60937 -0.53125,-0.60938 -0.53125,-2.01563 v -7.29688 l 1.25,-0.21875 z m 11.32825,3.84376 q 0,0.90625 -0.15625,1.65625 -0.15625,0.73438 -0.5,1.26563 -0.32812,0.53125 -0.82812,0.82812 -0.5,0.28125 -1.1875,0.28125 -0.6875,0 -1.20313,-0.28125 -0.51562,-0.29687 -0.84375,-0.82812 -0.32812,-0.53125 -0.5,-1.26563 -0.15625,-0.75 -0.15625,-1.65625 0,-0.89063 0.15625,-1.64063 0.17188,-0.75 0.5,-1.28125 0.32813,-0.53125 0.84375,-0.82813 0.51563,-0.29687 1.20313,-0.29687 0.6875,0 1.1875,0.29687 0.5,0.29688 0.82812,0.82813 0.34375,0.53125 0.5,1.28125 0.15625,0.75 0.15625,1.64063 z m -1.3125,0 q 0,-0.64063 -0.0781,-1.17188 -0.0781,-0.54688 -0.23438,-0.92188 -0.15625,-0.39062 -0.42187,-0.59375 -0.26563,-0.21875 -0.625,-0.21875 -0.39063,0 -0.65625,0.21875 -0.25,0.20313 -0.42188,0.59375 -0.15625,0.375 -0.23437,0.92188 -0.0781,0.53125 -0.0781,1.17188 0,0.65625 0.0781,1.1875 0.0781,0.53125 0.23437,0.92188 0.17188,0.375 0.42188,0.59375 0.26562,0.20312 0.65625,0.20312 0.35937,0 0.625,-0.20312 0.26562,-0.21875 0.42187,-0.59375 0.15625,-0.39063 0.23438,-0.92188 0.0781,-0.53125 0.0781,-1.1875 z m 5.41089,-7.53126 q 0.42187,0 0.73437,0.0937 0.32813,0.0781 0.53125,0.1875 l -0.26562,1 q -0.20313,-0.10937 -0.42188,-0.15625 -0.21875,-0.0469 -0.46875,-0.0469 -0.32812,0 -0.5625,0.125 -0.21875,0.10937 -0.34375,0.3125 -0.10937,0.20312 -0.15625,0.48437 -0.0312,0.28125 -0.0312,0.60938 v 1.07812 h 1.96875 v 1.07813 h -1.96875 v 6.60938 h -1.26562 v -8.76563 q 0,-1.25 0.54687,-1.92188 0.5625,-0.6875 1.70313,-0.6875 z m 4.48437,0 q 0.42188,0 0.73438,0.0937 0.32812,0.0781 0.53125,0.1875 l -0.26563,1 q -0.20312,-0.10937 -0.42187,-0.15625 -0.21875,-0.0469 -0.46875,-0.0469 -0.32813,0 -0.5625,0.125 -0.21875,0.10937 -0.34375,0.3125 -0.10938,0.20312 -0.15625,0.48437 -0.0312,0.28125 -0.0312,0.60938 v 1.07812 h 1.96875 v 1.07813 h -1.96875 v 6.60938 h -1.26563 v -8.76563 q 0,-1.25 0.54688,-1.92188 0.5625,-0.6875 1.70312,-0.6875 z m 3.31342,10.48439 q 0.54687,0 0.82812,-0.3125 0.29688,-0.32813 0.29688,-0.82813 0,-0.32812 -0.125,-0.54687 -0.10938,-0.23438 -0.3125,-0.40625 -0.1875,-0.1875 -0.4375,-0.3125 -0.23438,-0.14063 -0.48438,-0.3125 -0.25,-0.14063 -0.48437,-0.32813 -0.23438,-0.20312 -0.42188,-0.45313 -0.1875,-0.26563 -0.29687,-0.59375 -0.10938,-0.32813 -0.10938,-0.78125 0,-0.95313 0.59375,-1.53125 0.59375,-0.59375 1.60938,-0.59375 0.42187,0 0.79687,0.10937 0.39063,0.10938 0.64063,0.25 l -0.28125,1.01563 q -0.26563,-0.15625 -0.53125,-0.21875 -0.26563,-0.0781 -0.5625,-0.0781 -0.46875,0 -0.75,0.28125 -0.28125,0.26563 -0.28125,0.76563 0,0.29687 0.0937,0.51562 0.10937,0.20313 0.28125,0.375 0.17187,0.17188 0.375,0.32813 0.21875,0.14062 0.45312,0.26563 0.28125,0.15625 0.54688,0.35938 0.26562,0.1875 0.48437,0.45312 0.21875,0.25 0.34375,0.59375 0.125,0.34375 0.125,0.82813 0,1 -0.59375,1.625 -0.59375,0.60937 -1.73437,0.60937 -0.57813,0 -1.04688,-0.15625 -0.46875,-0.15625 -0.70312,-0.29687 l 0.26562,-1.03125 q 0.21875,0.10937 0.59375,0.26562 0.375,0.14063 0.82813,0.14063 z m 4.79468,-2.57813 q 0,0.54688 0.0937,1.01563 0.0937,0.45312 0.28125,0.8125 0.20312,0.34375 0.53125,0.53125 0.32812,0.1875 0.84375,0.1875 0.42187,0 0.78125,-0.125 0.35937,-0.125 0.53125,-0.21875 l 0.23437,1.01562 q -0.20312,0.125 -0.65625,0.28125 -0.4375,0.15625 -1.04687,0.15625 -0.8125,0 -1.35938,-0.28125 -0.54687,-0.29687 -0.89062,-0.82812 -0.34375,-0.53125 -0.5,-1.26563 -0.14063,-0.73437 -0.14063,-1.60937 0,-2.12501 0.70313,-3.10939 0.70312,-0.98437 1.85937,-0.98437 1.3125,0 1.84375,0.98437 0.54688,0.98438 0.54688,2.76564 0,0.15625 0,0.32812 0,0.15625 -0.0156,0.34375 z m 1.26562,-3.34376 q -0.625,0 -0.92187,0.625 -0.28125,0.625 -0.34375,1.6875 h 2.34375 q 0,-1.0625 -0.23438,-1.6875 -0.21875,-0.625 -0.84375,-0.625 z m 5.42139,-0.875 h 1.9375 v 1.07813 h -1.9375 v 4.23438 q 0,0.79688 0.28125,1.10938 0.29687,0.3125 0.78125,0.3125 0.25,0 0.46875,-0.0625 0.23437,-0.0781 0.39062,-0.1875 l 0.25,1.01562 q -0.59375,0.34375 -1.28125,0.34375 -1.07812,0 -1.60937,-0.60937 -0.53125,-0.60938 -0.53125,-2.01563 v -7.29688 l 1.25,-0.21875 z m 4.61096,6.79689 q 0.54688,0 0.82813,-0.3125 0.29687,-0.32813 0.29687,-0.82813 0,-0.32812 -0.125,-0.54687 -0.10937,-0.23438 -0.3125,-0.40625 -0.1875,-0.1875 -0.4375,-0.3125 -0.23437,-0.14063 -0.48437,-0.3125 -0.25,-0.14063 -0.48438,-0.32813 -0.23437,-0.20312 -0.42187,-0.45313 -0.1875,-0.26563 -0.29688,-0.59375 -0.10937,-0.32813 -0.10937,-0.78125 0,-0.95313 0.59375,-1.53125 0.59375,-0.59375 1.60937,-0.59375 0.42188,0 0.79688,0.10937 0.39062,0.10938 0.64062,0.25 l -0.28125,1.01563 q -0.26562,-0.15625 -0.53125,-0.21875 -0.26562,-0.0781 -0.5625,-0.0781 -0.46875,0 -0.75,0.28125 -0.28125,0.26563 -0.28125,0.76563 0,0.29687 0.0937,0.51562 0.10938,0.20313 0.28125,0.375 0.17188,0.17188 0.375,0.32813 0.21875,0.14062 0.45313,0.26563 0.28125,0.15625 0.54687,0.35938 0.26563,0.1875 0.48438,0.45312 0.21875,0.25 0.34375,0.59375 0.125,0.34375 0.125,0.82813 0,1 -0.59375,1.625 -0.59375,0.60937 -1.73438,0.60937 -0.57812,0 -1.04687,-0.15625 -0.46875,-0.15625 -0.70313,-0.29687 l 0.26563,-1.03125 q 0.21875,0.10937 0.59375,0.26562 0.375,0.14063 0.82812,0.14063 z m 4.57593,-3.48439 q 0,-1.89062 -0.45313,-3.54687 -0.45312,-1.65625 -1.26562,-3.03125 l 1,-0.54688 q 0.92187,1.42188 1.45312,3.21875 0.53125,1.79688 0.53125,3.90625 0,2.09376 -0.53125,3.89064 -0.53125,1.79687 -1.45312,3.21875 l -1,-0.54688 q 0.8125,-1.375 1.26562,-3.03125 0.45313,-1.65625 0.45313,-3.53126 z"
       fill-rule="nonzero"
       id="path69" />
    <path
       fill="#000000"
       fill-opacity="0"
       d="m 541.20734,132.28871 h 106.2677 v 37.16536 h -106.2677 z"
       fill-rule="evenodd"
       id="path71" />
    <path
       fill="#f3f3f3"
       d="m 553.59796,143.99371 q 0.42187,0 0.73437,0.0937 0.32813,0.0781 0.53125,0.1875 l -0.26562,1 q -0.20313,-0.10938 -0.42188,-0.15625 -0.21875,-0.0469 -0.46875,-0.0469 -0.32812,0 -0.5625,0.125 -0.21875,0.10938 -0.34375,0.3125 -0.10937,0.20313 -0.15625,0.48438 -0.0312,0.28125 -0.0312,0.60937 v 1.07813 h 1.96875 v 1.07812 h -1.96875 v 6.60938 h -1.26562 v -8.76563 q 0,-1.25 0.54687,-1.92187 0.5625,-0.6875 1.70313,-0.6875 z m 2.9632,7.90625 q 0,0.54687 0.0937,1.01562 0.0937,0.45313 0.28125,0.8125 0.20312,0.34375 0.53125,0.53125 0.32812,0.1875 0.84375,0.1875 0.42187,0 0.78125,-0.125 0.35937,-0.125 0.53125,-0.21875 l 0.23437,1.01563 q -0.20312,0.125 -0.65625,0.28125 -0.4375,0.15625 -1.04687,0.15625 -0.8125,0 -1.35938,-0.28125 -0.54687,-0.29688 -0.89062,-0.82813 -0.34375,-0.53125 -0.5,-1.26562 -0.14063,-0.73438 -0.14063,-1.60938 0,-2.125 0.70313,-3.10937 0.70312,-0.98438 1.85937,-0.98438 1.3125,0 1.84375,0.98438 0.54688,0.98437 0.54688,2.76562 0,0.15625 0,0.32813 0,0.15625 -0.0156,0.34375 z m 1.26562,-3.34375 q -0.625,0 -0.92187,0.625 -0.28125,0.625 -0.34375,1.6875 h 2.34375 q 0,-1.0625 -0.23438,-1.6875 -0.21875,-0.625 -0.84375,-0.625 z m 5.42139,-0.875 h 1.9375 v 1.07812 h -1.9375 v 4.23438 q 0,0.79687 0.28125,1.10937 0.29687,0.3125 0.78125,0.3125 0.25,0 0.46875,-0.0625 0.23437,-0.0781 0.39062,-0.1875 l 0.25,1.01563 q -0.59375,0.34375 -1.28125,0.34375 -1.07812,0 -1.60937,-0.60938 -0.53125,-0.60937 -0.53125,-2.01562 v -7.29688 l 1.25,-0.21875 z m 5.80322,7.875 q -0.78125,0 -1.3125,-0.29688 -0.53125,-0.3125 -0.85937,-0.84375 -0.32813,-0.54687 -0.46875,-1.26562 -0.14063,-0.73438 -0.14063,-1.60938 0,-1.90625 0.6875,-2.98437 0.70313,-1.07813 2.10938,-1.07813 0.42187,0 0.76562,0.10938 0.34375,0.0937 0.625,0.26562 l -0.3125,1.03125 q -0.45312,-0.28125 -1.01562,-0.28125 -0.79688,0 -1.17188,0.71875 -0.375,0.71875 -0.375,2.21875 0,0.64063 0.0781,1.17188 0.0781,0.53125 0.25,0.92187 0.1875,0.375 0.48437,0.59375 0.3125,0.21875 0.78125,0.21875 0.3125,0 0.5625,-0.0781 0.26563,-0.0781 0.5,-0.21875 l 0.28125,0.98437 q -0.23437,0.15625 -0.625,0.28125 -0.39062,0.14063 -0.84375,0.14063 z m 2.8299,-0.1875 v -11.15625 l 1.26562,-0.21875 v 3.71875 q 0.28125,-0.0781 0.60938,-0.14063 0.32812,-0.0625 0.65625,-0.0625 0.48437,0 0.90625,0.15625 0.4375,0.15625 0.75,0.53125 0.3125,0.35938 0.5,0.98438 0.1875,0.625 0.1875,1.54687 v 4.64063 h -1.26563 v -4.54688 q 0,-1.14062 -0.29687,-1.65625 -0.29688,-0.53125 -1.09375,-0.53125 -0.42188,0 -0.95313,0.14063 v 6.59375 z m 13.25048,-6.54688 q -0.46875,-0.20312 -1.04687,-0.20312 -0.54688,0 -1.01563,0.1875 v 6.5625 h -1.26562 v -7.35938 q 0.42187,-0.20312 0.96875,-0.34375 0.5625,-0.14062 1.21875,-0.14062 0.34375,0 0.6875,0.0469 0.35937,0.0469 0.67187,0.15625 z m 2.20746,3.07813 q 0,0.54687 0.0937,1.01562 0.0937,0.45313 0.28125,0.8125 0.20313,0.34375 0.53125,0.53125 0.32813,0.1875 0.84375,0.1875 0.42188,0 0.78125,-0.125 0.35938,-0.125 0.53125,-0.21875 l 0.23438,1.01563 q -0.20313,0.125 -0.65625,0.28125 -0.4375,0.15625 -1.04688,0.15625 -0.8125,0 -1.35937,-0.28125 -0.54688,-0.29688 -0.89063,-0.82813 -0.34375,-0.53125 -0.5,-1.26562 -0.14062,-0.73438 -0.14062,-1.60938 0,-2.125 0.70312,-3.10937 0.70313,-0.98438 1.85938,-0.98438 1.3125,0 1.84375,0.98438 0.54687,0.98437 0.54687,2.76562 0,0.15625 0,0.32813 0,0.15625 -0.0156,0.34375 z m 1.26563,-3.34375 q -0.625,0 -0.92188,0.625 -0.28125,0.625 -0.34375,1.6875 h 2.34375 q 0,-1.0625 -0.23437,-1.6875 -0.21875,-0.625 -0.84375,-0.625 z m 6.59326,7 q -0.78125,0 -1.3125,-0.29688 -0.53125,-0.3125 -0.85938,-0.84375 -0.32812,-0.54687 -0.46875,-1.26562 -0.14062,-0.73438 -0.14062,-1.60938 0,-1.90625 0.6875,-2.98437 0.70312,-1.07813 2.10937,-1.07813 0.42188,0 0.76563,0.10938 0.34375,0.0937 0.625,0.26562 l -0.3125,1.03125 q -0.45313,-0.28125 -1.01563,-0.28125 -0.79687,0 -1.17187,0.71875 -0.375,0.71875 -0.375,2.21875 0,0.64063 0.0781,1.17188 0.0781,0.53125 0.25,0.92187 0.1875,0.375 0.48438,0.59375 0.3125,0.21875 0.78125,0.21875 0.3125,0 0.5625,-0.0781 0.26562,-0.0781 0.5,-0.21875 l 0.28125,0.98437 q -0.23438,0.15625 -0.625,0.28125 -0.39063,0.14063 -0.84375,0.14063 z m 7.69409,-4.03125 q 0,0.90625 -0.15625,1.65625 -0.15625,0.73437 -0.5,1.26562 -0.32812,0.53125 -0.82812,0.82813 -0.5,0.28125 -1.1875,0.28125 -0.6875,0 -1.20313,-0.28125 -0.51562,-0.29688 -0.84375,-0.82813 -0.32812,-0.53125 -0.5,-1.26562 -0.15625,-0.75 -0.15625,-1.65625 0,-0.89063 0.15625,-1.64063 0.17188,-0.75 0.5,-1.28125 0.32813,-0.53125 0.84375,-0.82812 0.51563,-0.29688 1.20313,-0.29688 0.6875,0 1.1875,0.29688 0.5,0.29687 0.82812,0.82812 0.34375,0.53125 0.5,1.28125 0.15625,0.75 0.15625,1.64063 z m -1.3125,0 q 0,-0.64063 -0.0781,-1.17188 -0.0781,-0.54687 -0.23438,-0.92187 -0.15625,-0.39063 -0.42187,-0.59375 -0.26563,-0.21875 -0.625,-0.21875 -0.39063,0 -0.65625,0.21875 -0.25,0.20312 -0.42188,0.59375 -0.15625,0.375 -0.23437,0.92187 -0.0781,0.53125 -0.0781,1.17188 0,0.65625 0.0781,1.1875 0.0781,0.53125 0.23437,0.92187 0.17188,0.375 0.42188,0.59375 0.26562,0.20313 0.65625,0.20313 0.35937,0 0.625,-0.20313 0.26562,-0.21875 0.42187,-0.59375 0.15625,-0.39062 0.23438,-0.92187 0.0781,-0.53125 0.0781,-1.1875 z m 6.48901,-2.70313 q -0.46875,-0.20312 -1.04687,-0.20312 -0.54688,0 -1.01563,0.1875 v 6.5625 h -1.26562 v -7.35938 q 0.42187,-0.20312 0.96875,-0.34375 0.5625,-0.14062 1.21875,-0.14062 0.34375,0 0.6875,0.0469 0.35937,0.0469 0.67187,0.15625 z m 4.64496,0.0156 q -0.42187,-0.23438 -0.90625,-0.23438 -0.35937,0 -0.64062,0.14063 -0.28125,0.14062 -0.48438,0.48437 -0.1875,0.34375 -0.29687,0.90625 -0.10938,0.54688 -0.10938,1.35938 0,1.59375 0.42188,2.28125 0.42187,0.67187 1.26562,0.67187 0.17188,0 0.35938,-0.0156 0.1875,-0.0312 0.39062,-0.0937 z m 0,-4.625 1.26563,-0.21875 v 11.17187 q -0.40625,0.17188 -0.9375,0.28125 -0.53125,0.10938 -1.07813,0.10938 -1.57812,0 -2.29687,-1 -0.70313,-1.01563 -0.70313,-3.0625 0,-0.92188 0.15625,-1.65625 0.15625,-0.73438 0.48438,-1.25 0.32812,-0.53125 0.84375,-0.8125 0.51562,-0.29688 1.21875,-0.29688 0.32812,0 0.5625,0.0781 0.25,0.0625 0.48437,0.17187 z m 4.61017,10.26562 q 0.54688,0 0.82813,-0.3125 0.29687,-0.32812 0.29687,-0.82812 0,-0.32813 -0.125,-0.54688 -0.10937,-0.23437 -0.3125,-0.40625 -0.1875,-0.1875 -0.4375,-0.3125 -0.23437,-0.14062 -0.48437,-0.3125 -0.25,-0.14062 -0.48438,-0.32812 -0.23437,-0.20313 -0.42187,-0.45313 -0.1875,-0.26562 -0.29688,-0.59375 -0.10937,-0.32812 -0.10937,-0.78125 0,-0.95312 0.59375,-1.53125 0.59375,-0.59375 1.60937,-0.59375 0.42188,0 0.79688,0.10938 0.39062,0.10937 0.64062,0.25 l -0.28125,1.01562 q -0.26562,-0.15625 -0.53125,-0.21875 -0.26562,-0.0781 -0.5625,-0.0781 -0.46875,0 -0.75,0.28125 -0.28125,0.26562 -0.28125,0.76562 0,0.29688 0.0937,0.51563 0.10938,0.20312 0.28125,0.375 0.17188,0.17187 0.375,0.32812 0.21875,0.14063 0.45313,0.26563 0.28125,0.15625 0.54687,0.35937 0.26563,0.1875 0.48438,0.45313 0.21875,0.25 0.34375,0.59375 0.125,0.34375 0.125,0.82812 0,1 -0.59375,1.625 -0.59375,0.60938 -1.73438,0.60938 -0.57812,0 -1.04687,-0.15625 -0.46875,-0.15625 -0.70313,-0.29688 l 0.26563,-1.03125 q 0.21875,0.10938 0.59375,0.26563 0.375,0.14062 0.82812,0.14062 z"
       fill-rule="nonzero"
       id="path73" />
    <path
       fill="#000000"
       fill-opacity="0"
       d="m 549.20734,360.03412 h 106.2677 v 37.16534 h -106.2677 z"
       fill-rule="evenodd"
       id="path75" />
    <path
       fill="#f3f3f3"
       d="m 562.6761,376.56726 q -0.46875,-0.20313 -1.04687,-0.20313 -0.54688,0 -1.01563,0.1875 v 6.5625 h -1.26562 v -7.35937 q 0.42187,-0.20313 0.96875,-0.34375 0.5625,-0.14063 1.21875,-0.14063 0.34375,0 0.6875,0.0469 0.35937,0.0469 0.67187,0.15625 z m 2.20746,3.07812 q 0,0.54688 0.0937,1.01563 0.0937,0.45312 0.28125,0.8125 0.20312,0.34375 0.53125,0.53125 0.32812,0.1875 0.84375,0.1875 0.42187,0 0.78125,-0.125 0.35937,-0.125 0.53125,-0.21875 l 0.23437,1.01562 q -0.20312,0.125 -0.65625,0.28125 -0.4375,0.15625 -1.04687,0.15625 -0.8125,0 -1.35938,-0.28125 -0.54687,-0.29687 -0.89062,-0.82812 -0.34375,-0.53125 -0.5,-1.26563 -0.14063,-0.73437 -0.14063,-1.60937 0,-2.125 0.70313,-3.10938 0.70312,-0.98437 1.85937,-0.98437 1.3125,0 1.84375,0.98437 0.54688,0.98438 0.54688,2.76563 0,0.15625 0,0.32812 0,0.15625 -0.0156,0.34375 z m 1.26562,-3.34375 q -0.625,0 -0.92187,0.625 -0.28125,0.625 -0.34375,1.6875 h 2.34375 q 0,-1.0625 -0.23438,-1.6875 -0.21875,-0.625 -0.84375,-0.625 z m 6.59333,7 q -0.78125,0 -1.3125,-0.29687 -0.53125,-0.3125 -0.85938,-0.84375 -0.32812,-0.54688 -0.46875,-1.26563 -0.14062,-0.73437 -0.14062,-1.60937 0,-1.90625 0.6875,-2.98438 0.70312,-1.07812 2.10937,-1.07812 0.42188,0 0.76563,0.10937 0.34375,0.0937 0.625,0.26563 l -0.3125,1.03125 q -0.45313,-0.28125 -1.01563,-0.28125 -0.79687,0 -1.17187,0.71875 -0.375,0.71875 -0.375,2.21875 0,0.64062 0.0781,1.17187 0.0781,0.53125 0.25,0.92188 0.1875,0.375 0.48438,0.59375 0.3125,0.21875 0.78125,0.21875 0.3125,0 0.5625,-0.0781 0.26562,-0.0781 0.5,-0.21875 l 0.28125,0.98438 q -0.23438,0.15625 -0.625,0.28125 -0.39063,0.14062 -0.84375,0.14062 z m 7.69409,-4.03125 q 0,0.90625 -0.15625,1.65625 -0.15625,0.73438 -0.5,1.26563 -0.32813,0.53125 -0.82813,0.82812 -0.5,0.28125 -1.1875,0.28125 -0.6875,0 -1.20312,-0.28125 -0.51563,-0.29687 -0.84375,-0.82812 -0.32813,-0.53125 -0.5,-1.26563 -0.15625,-0.75 -0.15625,-1.65625 0,-0.89062 0.15625,-1.64062 0.17187,-0.75 0.5,-1.28125 0.32812,-0.53125 0.84375,-0.82813 0.51562,-0.29687 1.20312,-0.29687 0.6875,0 1.1875,0.29687 0.5,0.29688 0.82813,0.82813 0.34375,0.53125 0.5,1.28125 0.15625,0.75 0.15625,1.64062 z m -1.3125,0 q 0,-0.64062 -0.0781,-1.17187 -0.0781,-0.54688 -0.23437,-0.92188 -0.15625,-0.39062 -0.42188,-0.59375 -0.26562,-0.21875 -0.625,-0.21875 -0.39062,0 -0.65625,0.21875 -0.25,0.20313 -0.42187,0.59375 -0.15625,0.375 -0.23438,0.92188 -0.0781,0.53125 -0.0781,1.17187 0,0.65625 0.0781,1.1875 0.0781,0.53125 0.23438,0.92188 0.17187,0.375 0.42187,0.59375 0.26563,0.20312 0.65625,0.20312 0.35938,0 0.625,-0.20312 0.26563,-0.21875 0.42188,-0.59375 0.15625,-0.39063 0.23437,-0.92188 0.0781,-0.53125 0.0781,-1.1875 z m 6.48895,-2.70312 q -0.46875,-0.20313 -1.04687,-0.20313 -0.54688,0 -1.01563,0.1875 v 6.5625 h -1.26562 v -7.35937 q 0.42187,-0.20313 0.96875,-0.34375 0.5625,-0.14063 1.21875,-0.14063 0.34375,0 0.6875,0.0469 0.35937,0.0469 0.67187,0.15625 z m 4.64502,0.0156 q -0.42187,-0.23437 -0.90625,-0.23437 -0.35937,0 -0.64062,0.14062 -0.28125,0.14063 -0.48438,0.48438 -0.1875,0.34375 -0.29687,0.90625 -0.10938,0.54687 -0.10938,1.35937 0,1.59375 0.42188,2.28125 0.42187,0.67188 1.26562,0.67188 0.17188,0 0.35938,-0.0156 0.1875,-0.0312 0.39062,-0.0937 z m 0,-4.625 1.26563,-0.21875 v 11.17188 q -0.40625,0.17187 -0.9375,0.28125 -0.53125,0.10937 -1.07813,0.10937 -1.57812,0 -2.29687,-1 -0.70313,-1.01562 -0.70313,-3.0625 0,-0.92187 0.15625,-1.65625 0.15625,-0.73437 0.48438,-1.25 0.32812,-0.53125 0.84375,-0.8125 0.51562,-0.29687 1.21875,-0.29687 0.32812,0 0.5625,0.0781 0.25,0.0625 0.48437,0.17188 z m 4.61011,10.26563 q 0.54687,0 0.82812,-0.3125 0.29688,-0.32813 0.29688,-0.82813 0,-0.32812 -0.125,-0.54687 -0.10938,-0.23438 -0.3125,-0.40625 -0.1875,-0.1875 -0.4375,-0.3125 -0.23438,-0.14063 -0.48438,-0.3125 -0.25,-0.14063 -0.48437,-0.32813 -0.23438,-0.20312 -0.42188,-0.45312 -0.1875,-0.26563 -0.29687,-0.59375 -0.10938,-0.32813 -0.10938,-0.78125 0,-0.95313 0.59375,-1.53125 0.59375,-0.59375 1.60938,-0.59375 0.42187,0 0.79687,0.10937 0.39063,0.10938 0.64063,0.25 l -0.28125,1.01563 q -0.26563,-0.15625 -0.53125,-0.21875 -0.26563,-0.0781 -0.5625,-0.0781 -0.46875,0 -0.75,0.28125 -0.28125,0.26563 -0.28125,0.76563 0,0.29687 0.0937,0.51562 0.10937,0.20313 0.28125,0.375 0.17187,0.17188 0.375,0.32813 0.21875,0.14062 0.45312,0.26562 0.28125,0.15625 0.54688,0.35938 0.26562,0.1875 0.48437,0.45312 0.21875,0.25 0.34375,0.59375 0.125,0.34375 0.125,0.82813 0,1 -0.59375,1.625 -0.59375,0.60937 -1.73437,0.60937 -0.57813,0 -1.04688,-0.15625 -0.46875,-0.15625 -0.70312,-0.29687 l 0.26562,-1.03125 q 0.21875,0.10937 0.59375,0.26562 0.375,0.14063 0.82813,0.14063 z"
       fill-rule="nonzero"
       id="path77" />
  </g>
</svg>
