<?xml version="1.0" encoding="UTF-8" standalone="no"?>
<svg
   version="1.1"
   viewBox="0 0 363.59583 181"
   fill="none"
   stroke="none"
   stroke-linecap="square"
   stroke-miterlimit="10"
   id="svg75"
   sodipodi:docname="consumer-group_2-consumer.svg"
   inkscape:version="1.2.2 (b0a8486541, 2022-12-01)"
   width="363.59583"
   height="181"
   xmlns:inkscape="http://www.inkscape.org/namespaces/inkscape"
   xmlns:sodipodi="http://sodipodi.sourceforge.net/DTD/sodipodi-0.dtd"
   xmlns="http://www.w3.org/2000/svg"
   xmlns:svg="http://www.w3.org/2000/svg">
  <defs
     id="defs79" />
  <sodipodi:namedview
     id="namedview77"
     pagecolor="#ffffff"
     bordercolor="#666666"
     borderopacity="1.0"
     inkscape:showpageshadow="2"
     inkscape:pageopacity="0.0"
     inkscape:pagecheckerboard="0"
     inkscape:deskcolor="#d1d1d1"
     showgrid="false"
     inkscape:zoom="1.3552083"
     inkscape:cx="319.50807"
     inkscape:cy="95.926211"
     inkscape:window-width="1920"
     inkscape:window-height="1011"
     inkscape:window-x="0"
     inkscape:window-y="32"
     inkscape:window-maximized="1"
     inkscape:current-layer="svg75" />
  <clipPath
     id="g201030f8531_0_138.0">
    <path
       d="M 0,0 H 960 V 540 H 0 Z"
       clip-rule="nonzero"
       id="path2" />
  </clipPath>
  <g
     clip-path="url(#g201030f8531_0_138.0)"
     id="g73"
     transform="translate(-142.69685,-173.8937)">
    <path
       fill="#000000"
       fill-opacity="0"
       d="m 375.99738,174.3937 h 129.79529 v 180 H 375.99738 Z"
       fill-rule="evenodd"
       id="path7" />
    <path
       stroke="#efefef"
       stroke-width="1"
       stroke-linejoin="round"
       stroke-linecap="butt"
       d="m 375.99738,174.3937 h 129.79529 v 180 H 375.99738 Z"
       fill-rule="evenodd"
       id="path9" />
    <path
       fill="#f3f3f3"
       d="m 391.7131,198.98808 q -1.95313,0 -3,-1.45313 -1.03125,-1.45312 -1.03125,-4.5 0,-1.54687 0.29687,-2.60937 0.29688,-1.07813 0.82813,-1.75 0.53125,-0.67188 1.25,-0.96875 0.71875,-0.29688 1.5625,-0.29688 0.70312,0 1.3125,0.1875 0.60937,0.1875 1,0.45313 l -0.4375,1.20312 q -0.39063,-0.26562 -0.82813,-0.42187 -0.4375,-0.15625 -1.01562,-0.15625 -1.28125,0 -1.85938,1.0625 -0.5625,1.0625 -0.5625,3.29687 0,2.26563 0.59375,3.48438 0.60938,1.20312 2,1.20312 0.64063,0 1.04688,-0.15625 0.42187,-0.15625 0.79687,-0.40625 l 0.40625,1.125 q -0.375,0.29688 -0.96875,0.5 -0.59375,0.20313 -1.39062,0.20313 z m 9.09439,-4.42188 q 0,0.98438 -0.1875,1.79688 -0.17187,0.8125 -0.53125,1.39062 -0.35937,0.5625 -0.90625,0.89063 -0.54687,0.3125 -1.29687,0.3125 -0.76563,0 -1.32813,-0.3125 -0.54687,-0.32813 -0.90625,-0.89063 -0.35937,-0.57812 -0.54687,-1.39062 -0.17188,-0.8125 -0.17188,-1.79688 0,-0.98437 0.17188,-1.79687 0.1875,-0.8125 0.54687,-1.39063 0.35938,-0.59375 0.90625,-0.90625 0.5625,-0.32812 1.32813,-0.32812 0.75,0 1.29687,0.32812 0.54688,0.3125 0.90625,0.90625 0.35938,0.57813 0.53125,1.39063 0.1875,0.8125 0.1875,1.79687 z m -1.4375,0 q 0,-0.70312 -0.0781,-1.28125 -0.0781,-0.59375 -0.26563,-1.01562 -0.17187,-0.42188 -0.46875,-0.65625 -0.28125,-0.23438 -0.67187,-0.23438 -0.42188,0 -0.70313,0.23438 -0.28125,0.23437 -0.46875,0.65625 -0.17187,0.42187 -0.26562,1.01562 -0.0781,0.57813 -0.0781,1.28125 0,0.70313 0.0781,1.29688 0.0937,0.57812 0.26562,1 0.1875,0.40625 0.46875,0.64062 0.28125,0.21875 0.70313,0.21875 0.39062,0 0.67187,-0.21875 0.29688,-0.23437 0.46875,-0.64062 0.1875,-0.42188 0.26563,-1 0.0781,-0.59375 0.0781,-1.29688 z m 3.4549,-3.96875 q 0.59375,-0.1875 1.28125,-0.29687 0.6875,-0.125 1.26562,-0.125 0.625,0 1.125,0.17187 0.51563,0.17188 0.875,0.57813 0.35938,0.39062 0.5625,1.07812 0.20313,0.67188 0.20313,1.67188 v 5.07812 h -1.375 v -4.95312 q 0,-1.25 -0.32813,-1.82813 -0.3125,-0.57812 -1.20312,-0.57812 -0.45313,0 -1.03125,0.15625 v 7.20312 h -1.375 z m 8.88391,7.1875 q 0.60937,0 0.90625,-0.34375 0.3125,-0.34375 0.3125,-0.90625 0,-0.35937 -0.125,-0.60937 -0.125,-0.25 -0.34375,-0.4375 -0.20313,-0.1875 -0.46875,-0.34375 -0.26563,-0.15625 -0.54688,-0.32813 -0.26562,-0.15625 -0.53125,-0.375 -0.25,-0.21875 -0.45312,-0.5 -0.20313,-0.28125 -0.32813,-0.64062 -0.10937,-0.35938 -0.10937,-0.82813 0,-1.04687 0.64062,-1.6875 0.65625,-0.64062 1.76563,-0.64062 0.45312,0 0.875,0.125 0.42187,0.10937 0.6875,0.26562 l -0.29688,1.09375 q -0.29687,-0.15625 -0.59375,-0.23437 -0.28125,-0.0781 -0.60937,-0.0781 -0.51563,0 -0.82813,0.29688 -0.29687,0.29687 -0.29687,0.85937 0,0.3125 0.10937,0.54688 0.10938,0.23437 0.29688,0.42187 0.1875,0.17188 0.42187,0.34375 0.23438,0.15625 0.48438,0.29688 0.3125,0.17187 0.59375,0.39062 0.29687,0.20313 0.53125,0.48438 0.23437,0.28125 0.375,0.65625 0.15625,0.375 0.15625,0.90625 0,1.09375 -0.65625,1.76562 -0.64063,0.67188 -1.89063,0.67188 -0.64062,0 -1.15625,-0.17188 -0.51562,-0.17187 -0.76562,-0.3125 l 0.28125,-1.14062 q 0.25,0.125 0.65625,0.29687 0.40625,0.15625 0.90625,0.15625 z m 9.48724,0.73438 q -0.21875,0.0781 -0.51562,0.15625 -0.29688,0.0625 -0.625,0.10937 -0.32813,0.0625 -0.65625,0.0937 -0.3125,0.0469 -0.59375,0.0469 -0.65625,0 -1.20313,-0.15625 -0.54687,-0.14063 -0.9375,-0.51563 -0.375,-0.39062 -0.57812,-1.04687 -0.20313,-0.67188 -0.20313,-1.6875 v -5.17188 h 1.375 v 5.125 q 0,1.23438 0.375,1.73438 0.375,0.5 1.14063,0.5 0.25,0 0.5,-0.0156 0.26562,-0.0312 0.54687,-0.10937 v -7.23438 h 1.375 z m 2.4769,-7.92188 q 0.5625,-0.1875 1.21875,-0.29687 0.65625,-0.125 1.1875,-0.125 0.5625,0 1.01562,0.15625 0.46875,0.14062 0.8125,0.46875 0.42188,-0.26563 0.89063,-0.4375 0.48437,-0.1875 1.0625,-0.1875 0.57812,0 1.04687,0.17187 0.46875,0.17188 0.79688,0.57813 0.34375,0.39062 0.53125,1.07812 0.20312,0.67188 0.20312,1.67188 v 5.07812 h -1.375 v -4.95312 q 0,-1.25 -0.29687,-1.82813 -0.28125,-0.57812 -1.07813,-0.57812 -0.3125,0 -0.625,0.10937 -0.29687,0.10938 -0.57812,0.3125 0.125,0.35938 0.1875,0.82813 0.0625,0.46875 0.0625,1.03125 v 5.07812 h -1.375 v -4.95312 q 0,-1.25 -0.28125,-1.82813 -0.28125,-0.57812 -1.09375,-0.57812 -0.40625,0 -0.9375,0.15625 v 7.20312 h -1.375 z m 12.10553,4.35938 q 0.0156,0.60937 0.10937,1.125 0.10938,0.5 0.3125,0.875 0.21875,0.375 0.57813,0.57812 0.35937,0.20313 0.92187,0.20313 0.46875,0 0.85938,-0.125 0.39062,-0.14063 0.5625,-0.23438 l 0.26562,1.10938 q -0.21875,0.14062 -0.70312,0.29687 -0.48438,0.17188 -1.15625,0.17188 -0.875,0 -1.48438,-0.3125 -0.59375,-0.32813 -0.96875,-0.89063 -0.375,-0.57812 -0.54687,-1.375 -0.15625,-0.8125 -0.15625,-1.76562 0,-2.32813 0.76562,-3.39063 0.76563,-1.07812 2.03125,-1.07812 1.4375,0 2.01563,1.07812 0.59375,1.0625 0.59375,3 0,0.17188 0,0.35938 0,0.1875 -0.0156,0.375 z m 1.39062,-3.64063 q -0.6875,0 -1,0.6875 -0.3125,0.6875 -0.375,1.84375 h 2.54688 q 0,-1.17187 -0.25,-1.84375 -0.23438,-0.6875 -0.92188,-0.6875 z m 8.27289,0.28125 q -0.5,-0.21875 -1.14062,-0.21875 -0.59375,0 -1.10938,0.20313 v 7.17187 h -1.375 v -8.03125 q 0.46875,-0.21875 1.0625,-0.375 0.59375,-0.15625 1.3125,-0.15625 0.39063,0 0.76563,0.0469 0.39062,0.0469 0.73437,0.17187 z m 4.36804,1.60938 q 0,-1.57813 0.28125,-2.67188 0.29688,-1.10937 0.82813,-1.79687 0.54687,-0.70313 1.29687,-1.01563 0.76563,-0.3125 1.70313,-0.3125 0.73437,0 1.3125,0.20313 0.59375,0.20312 0.96875,0.45312 l -0.45313,1.20313 q -0.35937,-0.26563 -0.79687,-0.42188 -0.4375,-0.17187 -0.98438,-0.17187 -1.40625,0 -2.01562,1.125 -0.59375,1.125 -0.59375,3.40625 0,1.20312 0.17187,2.07812 0.1875,0.85938 0.51563,1.40625 0.34375,0.54688 0.82812,0.79688 0.48438,0.25 1.07813,0.25 0.48437,0 0.84375,-0.10938 v -4.32812 h 1.4375 v 5.21875 q -0.4375,0.20312 -1.07813,0.34375 -0.64062,0.14062 -1.34375,0.14062 -0.85937,0 -1.59375,-0.34375 -0.73437,-0.34375 -1.28125,-1.04687 -0.53125,-0.71875 -0.82812,-1.8125 -0.29688,-1.09375 -0.29688,-2.59375 z m 12.40003,-1.60938 q -0.5,-0.21875 -1.14063,-0.21875 -0.59375,0 -1.10937,0.20313 v 7.17187 h -1.375 v -8.03125 q 0.46875,-0.21875 1.0625,-0.375 0.59375,-0.15625 1.3125,-0.15625 0.39062,0 0.76562,0.0469 0.39063,0.0469 0.73438,0.17187 z m 6.85364,2.96875 q 0,0.98438 -0.1875,1.79688 -0.17188,0.8125 -0.53125,1.39062 -0.35938,0.5625 -0.90625,0.89063 -0.54688,0.3125 -1.29688,0.3125 -0.76562,0 -1.32812,-0.3125 -0.54688,-0.32813 -0.90625,-0.89063 -0.35938,-0.57812 -0.54688,-1.39062 -0.17187,-0.8125 -0.17187,-1.79688 0,-0.98437 0.17187,-1.79687 0.1875,-0.8125 0.54688,-1.39063 0.35937,-0.59375 0.90625,-0.90625 0.5625,-0.32812 1.32812,-0.32812 0.75,0 1.29688,0.32812 0.54687,0.3125 0.90625,0.90625 0.35937,0.57813 0.53125,1.39063 0.1875,0.8125 0.1875,1.79687 z m -1.4375,0 q 0,-0.70312 -0.0781,-1.28125 -0.0781,-0.59375 -0.26562,-1.01562 -0.17188,-0.42188 -0.46875,-0.65625 -0.28125,-0.23438 -0.67188,-0.23438 -0.42187,0 -0.70312,0.23438 -0.28125,0.23437 -0.46875,0.65625 -0.17188,0.42187 -0.26563,1.01562 -0.0781,0.57813 -0.0781,1.28125 0,0.70313 0.0781,1.29688 0.0937,0.57812 0.26563,1 0.1875,0.40625 0.46875,0.64062 0.28125,0.21875 0.70312,0.21875 0.39063,0 0.67188,-0.21875 0.29687,-0.23437 0.46875,-0.64062 0.1875,-0.42188 0.26562,-1 0.0781,-0.59375 0.0781,-1.29688 z m 8.65802,3.95313 q -0.21875,0.0781 -0.51563,0.15625 -0.29687,0.0625 -0.625,0.10937 -0.32812,0.0625 -0.65625,0.0937 -0.3125,0.0469 -0.59375,0.0469 -0.65625,0 -1.20312,-0.15625 -0.54688,-0.14063 -0.9375,-0.51563 -0.375,-0.39062 -0.57813,-1.04687 -0.20312,-0.67188 -0.20312,-1.6875 v -5.17188 h 1.375 v 5.125 q 0,1.23438 0.375,1.73438 0.375,0.5 1.14062,0.5 0.25,0 0.5,-0.0156 0.26563,-0.0312 0.54688,-0.10937 v -7.23438 h 1.375 z m 3.83627,-1.03125 q 0.46875,0.25 0.98437,0.25 0.40625,0 0.70313,-0.15625 0.3125,-0.15625 0.53125,-0.51563 0.21875,-0.375 0.32812,-0.98437 0.10938,-0.60938 0.10938,-1.5 0,-1.73438 -0.4375,-2.46875 -0.4375,-0.75 -1.40625,-0.75 -0.17188,0 -0.39063,0.0312 -0.20312,0.0156 -0.42187,0.0781 z m 0,4.21875 h -1.375 v -11.125 q 0.45312,-0.20313 1.01562,-0.3125 0.5625,-0.125 1.15625,-0.125 0.875,0 1.5,0.3125 0.64063,0.29687 1.03125,0.875 0.40625,0.5625 0.57813,1.39062 0.1875,0.8125 0.1875,1.875 0,2.125 -0.6875,3.25 -0.67188,1.10938 -2.20313,1.10938 -0.375,0 -0.67187,-0.0781 -0.28125,-0.0625 -0.53125,-0.1875 z m 9.10763,-11.82813 q 0.29688,-0.1875 0.625,-0.4375 0.32813,-0.25 0.625,-0.54687 0.3125,-0.29688 0.57813,-0.60938 0.26562,-0.3125 0.4375,-0.625 h 1.0625 v 11.09375 h -1.375 v -8.90625 q -0.28125,0.28125 -0.64063,0.54688 -0.35937,0.25 -0.75,0.46875 z"
       fill-rule="nonzero"
       id="path11" />
    <path
       fill="#c27ba0"
       d="m 395.33597,220.33333 h 91.1181 v 25.25984 h -91.1181 z"
       fill-rule="evenodd"
       id="path13" />
    <path
       stroke="#595959"
       stroke-width="1"
       stroke-linejoin="round"
       stroke-linecap="butt"
       d="m 395.33597,220.33333 h 91.1181 v 25.25984 h -91.1181 z"
       fill-rule="evenodd"
       id="path15" />
    <path
       fill="#f3f3f3"
       d="m 411.29718,239.05763 q -1.95312,0 -3,-1.45313 -1.03125,-1.45312 -1.03125,-4.5 0,-1.54687 0.29688,-2.60937 0.29687,-1.07813 0.82812,-1.75 0.53125,-0.67188 1.25,-0.96875 0.71875,-0.29688 1.5625,-0.29688 0.70313,0 1.3125,0.1875 0.60938,0.1875 1,0.45313 l -0.4375,1.20312 q -0.39062,-0.26562 -0.82812,-0.42187 -0.4375,-0.15625 -1.01563,-0.15625 -1.28125,0 -1.85937,1.0625 -0.5625,1.0625 -0.5625,3.29687 0,2.26563 0.59375,3.48438 0.60937,1.20312 2,1.20312 0.64062,0 1.04687,-0.15625 0.42188,-0.15625 0.79688,-0.40625 l 0.40625,1.125 q -0.375,0.29688 -0.96875,0.5 -0.59375,0.20313 -1.39063,0.20313 z m 9.09439,-4.42188 q 0,0.98438 -0.1875,1.79688 -0.17187,0.8125 -0.53125,1.39062 -0.35937,0.5625 -0.90625,0.89063 -0.54687,0.3125 -1.29687,0.3125 -0.76563,0 -1.32813,-0.3125 -0.54687,-0.32813 -0.90625,-0.89063 -0.35937,-0.57812 -0.54687,-1.39062 -0.17188,-0.8125 -0.17188,-1.79688 0,-0.98437 0.17188,-1.79687 0.1875,-0.8125 0.54687,-1.39063 0.35938,-0.59375 0.90625,-0.90625 0.5625,-0.32812 1.32813,-0.32812 0.75,0 1.29687,0.32812 0.54688,0.3125 0.90625,0.90625 0.35938,0.57813 0.53125,1.39063 0.1875,0.8125 0.1875,1.79687 z m -1.4375,0 q 0,-0.70312 -0.0781,-1.28125 -0.0781,-0.59375 -0.26563,-1.01562 -0.17187,-0.42188 -0.46875,-0.65625 -0.28125,-0.23438 -0.67187,-0.23438 -0.42188,0 -0.70313,0.23438 -0.28125,0.23437 -0.46875,0.65625 -0.17187,0.42187 -0.26562,1.01562 -0.0781,0.57813 -0.0781,1.28125 0,0.70313 0.0781,1.29688 0.0937,0.57812 0.26562,1 0.1875,0.40625 0.46875,0.64062 0.28125,0.21875 0.70313,0.21875 0.39062,0 0.67187,-0.21875 0.29688,-0.23437 0.46875,-0.64062 0.1875,-0.42188 0.26563,-1 0.0781,-0.59375 0.0781,-1.29688 z m 3.4549,-3.96875 q 0.59375,-0.1875 1.28125,-0.29687 0.6875,-0.125 1.26562,-0.125 0.625,0 1.125,0.17187 0.51563,0.17188 0.875,0.57813 0.35938,0.39062 0.5625,1.07812 0.20313,0.67188 0.20313,1.67188 v 5.07812 h -1.375 v -4.95312 q 0,-1.25 -0.32813,-1.82813 -0.3125,-0.57812 -1.20312,-0.57812 -0.45313,0 -1.03125,0.15625 v 7.20312 h -1.375 z m 8.88388,7.1875 q 0.60937,0 0.90625,-0.34375 0.3125,-0.34375 0.3125,-0.90625 0,-0.35937 -0.125,-0.60937 -0.125,-0.25 -0.34375,-0.4375 -0.20313,-0.1875 -0.46875,-0.34375 -0.26563,-0.15625 -0.54688,-0.32813 -0.26562,-0.15625 -0.53125,-0.375 -0.25,-0.21875 -0.45312,-0.5 -0.20313,-0.28125 -0.32813,-0.64062 -0.10937,-0.35938 -0.10937,-0.82813 0,-1.04687 0.64062,-1.6875 0.65625,-0.64062 1.76563,-0.64062 0.45312,0 0.875,0.125 0.42187,0.10937 0.6875,0.26562 l -0.29688,1.09375 q -0.29687,-0.15625 -0.59375,-0.23437 -0.28125,-0.0781 -0.60937,-0.0781 -0.51563,0 -0.82813,0.29688 -0.29687,0.29687 -0.29687,0.85937 0,0.3125 0.10937,0.54688 0.10938,0.23437 0.29688,0.42187 0.1875,0.17188 0.42187,0.34375 0.23438,0.15625 0.48438,0.29688 0.3125,0.17187 0.59375,0.39062 0.29687,0.20313 0.53125,0.48438 0.23437,0.28125 0.375,0.65625 0.15625,0.375 0.15625,0.90625 0,1.09375 -0.65625,1.76562 -0.64063,0.67188 -1.89063,0.67188 -0.64062,0 -1.15625,-0.17188 -0.51562,-0.17187 -0.76562,-0.3125 l 0.28125,-1.14062 q 0.25,0.125 0.65625,0.29687 0.40625,0.15625 0.90625,0.15625 z m 9.48727,0.73438 q -0.21875,0.0781 -0.51562,0.15625 -0.29688,0.0625 -0.625,0.10937 -0.32813,0.0625 -0.65625,0.0937 -0.3125,0.0469 -0.59375,0.0469 -0.65625,0 -1.20313,-0.15625 -0.54687,-0.14063 -0.9375,-0.51563 -0.375,-0.39062 -0.57812,-1.04687 -0.20313,-0.67188 -0.20313,-1.6875 V 230.417 h 1.375 v 5.125 q 0,1.23438 0.375,1.73438 0.375,0.5 1.14063,0.5 0.25,0 0.5,-0.0156 0.26562,-0.0312 0.54687,-0.10937 V 230.417 h 1.375 z m 2.4769,-7.92188 q 0.5625,-0.1875 1.21875,-0.29687 0.65625,-0.125 1.1875,-0.125 0.5625,0 1.01562,0.15625 0.46875,0.14062 0.8125,0.46875 0.42188,-0.26563 0.89063,-0.4375 0.48437,-0.1875 1.0625,-0.1875 0.57812,0 1.04687,0.17187 0.46875,0.17188 0.79688,0.57813 0.34375,0.39062 0.53125,1.07812 0.20312,0.67188 0.20312,1.67188 v 5.07812 h -1.375 v -4.95312 q 0,-1.25 -0.29687,-1.82813 -0.28125,-0.57812 -1.07813,-0.57812 -0.3125,0 -0.625,0.10937 -0.29687,0.10938 -0.57812,0.3125 0.125,0.35938 0.1875,0.82813 0.0625,0.46875 0.0625,1.03125 v 5.07812 h -1.375 v -4.95312 q 0,-1.25 -0.28125,-1.82813 -0.28125,-0.57812 -1.09375,-0.57812 -0.40625,0 -0.9375,0.15625 v 7.20312 h -1.375 z m 12.10553,4.35938 q 0.0156,0.60937 0.10937,1.125 0.10938,0.5 0.3125,0.875 0.21875,0.375 0.57813,0.57812 0.35937,0.20313 0.92187,0.20313 0.46875,0 0.85938,-0.125 0.39062,-0.14063 0.5625,-0.23438 l 0.26562,1.10938 q -0.21875,0.14062 -0.70312,0.29687 -0.48438,0.17188 -1.15625,0.17188 -0.875,0 -1.48438,-0.3125 -0.59375,-0.32813 -0.96875,-0.89063 -0.375,-0.57812 -0.54687,-1.375 -0.15625,-0.8125 -0.15625,-1.76562 0,-2.32813 0.76562,-3.39063 0.76563,-1.07812 2.03125,-1.07812 1.4375,0 2.01563,1.07812 0.59375,1.0625 0.59375,3 0,0.17188 0,0.35938 0,0.1875 -0.0156,0.375 z m 1.39062,-3.64063 q -0.6875,0 -1,0.6875 -0.3125,0.6875 -0.375,1.84375 h 2.54688 q 0,-1.17187 -0.25,-1.84375 -0.23438,-0.6875 -0.92188,-0.6875 z m 8.27289,0.28125 q -0.5,-0.21875 -1.14062,-0.21875 -0.59375,0 -1.10938,0.20313 v 7.17187 h -1.375 V 230.792 q 0.46875,-0.21875 1.0625,-0.375 0.59375,-0.15625 1.3125,-0.15625 0.39063,0 0.76563,0.0469 0.39062,0.0469 0.73437,0.17187 z m 4.61801,-1.71875 q 0.29688,-0.1875 0.625,-0.4375 0.32813,-0.25 0.625,-0.54687 0.3125,-0.29688 0.57813,-0.60938 0.26562,-0.3125 0.4375,-0.625 h 1.0625 v 11.09375 h -1.375 V 229.917 q -0.28125,0.28125 -0.64063,0.54688 -0.35937,0.25 -0.75,0.46875 z"
       fill-rule="nonzero"
       id="path17" />
    <path
       fill="#c27ba0"
       d="m 395.33597,262.73227 h 91.1181 v 25.25986 h -91.1181 z"
       fill-rule="evenodd"
       id="path19" />
    <path
       stroke="#595959"
       stroke-width="1"
       stroke-linejoin="round"
       stroke-linecap="butt"
       d="m 395.33597,262.73227 h 91.1181 v 25.25986 h -91.1181 z"
       fill-rule="evenodd"
       id="path21" />
    <path
       fill="#f3f3f3"
       d="m 411.29718,281.45657 q -1.95312,0 -3,-1.45313 -1.03125,-1.45312 -1.03125,-4.5 0,-1.54687 0.29688,-2.60937 0.29687,-1.07813 0.82812,-1.75 0.53125,-0.67188 1.25,-0.96875 0.71875,-0.29688 1.5625,-0.29688 0.70313,0 1.3125,0.1875 0.60938,0.1875 1,0.45313 l -0.4375,1.20312 q -0.39062,-0.26562 -0.82812,-0.42187 -0.4375,-0.15625 -1.01563,-0.15625 -1.28125,0 -1.85937,1.0625 -0.5625,1.0625 -0.5625,3.29687 0,2.26563 0.59375,3.48438 0.60937,1.20312 2,1.20312 0.64062,0 1.04687,-0.15625 0.42188,-0.15625 0.79688,-0.40625 l 0.40625,1.125 q -0.375,0.29688 -0.96875,0.5 -0.59375,0.20313 -1.39063,0.20313 z m 9.09439,-4.42188 q 0,0.98438 -0.1875,1.79688 -0.17187,0.8125 -0.53125,1.39062 -0.35937,0.5625 -0.90625,0.89063 -0.54687,0.3125 -1.29687,0.3125 -0.76563,0 -1.32813,-0.3125 -0.54687,-0.32813 -0.90625,-0.89063 -0.35937,-0.57812 -0.54687,-1.39062 -0.17188,-0.8125 -0.17188,-1.79688 0,-0.98437 0.17188,-1.79687 0.1875,-0.8125 0.54687,-1.39063 0.35938,-0.59375 0.90625,-0.90625 0.5625,-0.32812 1.32813,-0.32812 0.75,0 1.29687,0.32812 0.54688,0.3125 0.90625,0.90625 0.35938,0.57813 0.53125,1.39063 0.1875,0.8125 0.1875,1.79687 z m -1.4375,0 q 0,-0.70312 -0.0781,-1.28125 -0.0781,-0.59375 -0.26563,-1.01562 -0.17187,-0.42188 -0.46875,-0.65625 -0.28125,-0.23438 -0.67187,-0.23438 -0.42188,0 -0.70313,0.23438 -0.28125,0.23437 -0.46875,0.65625 -0.17187,0.42187 -0.26562,1.01562 -0.0781,0.57813 -0.0781,1.28125 0,0.70313 0.0781,1.29688 0.0937,0.57812 0.26562,1 0.1875,0.40625 0.46875,0.64062 0.28125,0.21875 0.70313,0.21875 0.39062,0 0.67187,-0.21875 0.29688,-0.23437 0.46875,-0.64062 0.1875,-0.42188 0.26563,-1 0.0781,-0.59375 0.0781,-1.29688 z m 3.4549,-3.96875 q 0.59375,-0.1875 1.28125,-0.29687 0.6875,-0.125 1.26562,-0.125 0.625,0 1.125,0.17187 0.51563,0.17188 0.875,0.57813 0.35938,0.39062 0.5625,1.07812 0.20313,0.67188 0.20313,1.67188 v 5.07812 h -1.375 v -4.95312 q 0,-1.25 -0.32813,-1.82813 -0.3125,-0.57812 -1.20312,-0.57812 -0.45313,0 -1.03125,0.15625 v 7.20312 h -1.375 z m 8.88388,7.1875 q 0.60937,0 0.90625,-0.34375 0.3125,-0.34375 0.3125,-0.90625 0,-0.35937 -0.125,-0.60937 -0.125,-0.25 -0.34375,-0.4375 -0.20313,-0.1875 -0.46875,-0.34375 -0.26563,-0.15625 -0.54688,-0.32813 -0.26562,-0.15625 -0.53125,-0.375 -0.25,-0.21875 -0.45312,-0.5 -0.20313,-0.28125 -0.32813,-0.64062 -0.10937,-0.35938 -0.10937,-0.82813 0,-1.04687 0.64062,-1.6875 0.65625,-0.64062 1.76563,-0.64062 0.45312,0 0.875,0.125 0.42187,0.10937 0.6875,0.26562 l -0.29688,1.09375 q -0.29687,-0.15625 -0.59375,-0.23437 -0.28125,-0.0781 -0.60937,-0.0781 -0.51563,0 -0.82813,0.29688 -0.29687,0.29687 -0.29687,0.85937 0,0.3125 0.10937,0.54688 0.10938,0.23437 0.29688,0.42187 0.1875,0.17188 0.42187,0.34375 0.23438,0.15625 0.48438,0.29688 0.3125,0.17187 0.59375,0.39062 0.29687,0.20313 0.53125,0.48438 0.23437,0.28125 0.375,0.65625 0.15625,0.375 0.15625,0.90625 0,1.09375 -0.65625,1.76562 -0.64063,0.67188 -1.89063,0.67188 -0.64062,0 -1.15625,-0.17188 -0.51562,-0.17187 -0.76562,-0.3125 l 0.28125,-1.14062 q 0.25,0.125 0.65625,0.29687 0.40625,0.15625 0.90625,0.15625 z m 9.48727,0.73438 q -0.21875,0.0781 -0.51562,0.15625 -0.29688,0.0625 -0.625,0.10937 -0.32813,0.0625 -0.65625,0.0937 -0.3125,0.0469 -0.59375,0.0469 -0.65625,0 -1.20313,-0.15625 -0.54687,-0.14063 -0.9375,-0.51563 -0.375,-0.39062 -0.57812,-1.04687 -0.20313,-0.67188 -0.20313,-1.6875 v -5.17188 h 1.375 v 5.125 q 0,1.23438 0.375,1.73438 0.375,0.5 1.14063,0.5 0.25,0 0.5,-0.0156 0.26562,-0.0312 0.54687,-0.10937 v -7.23438 h 1.375 z m 2.4769,-7.92188 q 0.5625,-0.1875 1.21875,-0.29687 0.65625,-0.125 1.1875,-0.125 0.5625,0 1.01562,0.15625 0.46875,0.14062 0.8125,0.46875 0.42188,-0.26563 0.89063,-0.4375 0.48437,-0.1875 1.0625,-0.1875 0.57812,0 1.04687,0.17187 0.46875,0.17188 0.79688,0.57813 0.34375,0.39062 0.53125,1.07812 0.20312,0.67188 0.20312,1.67188 v 5.07812 h -1.375 v -4.95312 q 0,-1.25 -0.29687,-1.82813 -0.28125,-0.57812 -1.07813,-0.57812 -0.3125,0 -0.625,0.10937 -0.29687,0.10938 -0.57812,0.3125 0.125,0.35938 0.1875,0.82813 0.0625,0.46875 0.0625,1.03125 v 5.07812 h -1.375 v -4.95312 q 0,-1.25 -0.28125,-1.82813 -0.28125,-0.57812 -1.09375,-0.57812 -0.40625,0 -0.9375,0.15625 v 7.20312 h -1.375 z m 12.10553,4.35938 q 0.0156,0.60937 0.10937,1.125 0.10938,0.5 0.3125,0.875 0.21875,0.375 0.57813,0.57812 0.35937,0.20313 0.92187,0.20313 0.46875,0 0.85938,-0.125 0.39062,-0.14063 0.5625,-0.23438 l 0.26562,1.10938 q -0.21875,0.14062 -0.70312,0.29687 -0.48438,0.17188 -1.15625,0.17188 -0.875,0 -1.48438,-0.3125 -0.59375,-0.32813 -0.96875,-0.89063 -0.375,-0.57812 -0.54687,-1.375 -0.15625,-0.8125 -0.15625,-1.76562 0,-2.32813 0.76562,-3.39063 0.76563,-1.07812 2.03125,-1.07812 1.4375,0 2.01563,1.07812 0.59375,1.0625 0.59375,3 0,0.17188 0,0.35938 0,0.1875 -0.0156,0.375 z m 1.39062,-3.64063 q -0.6875,0 -1,0.6875 -0.3125,0.6875 -0.375,1.84375 h 2.54688 q 0,-1.17187 -0.25,-1.84375 -0.23438,-0.6875 -0.92188,-0.6875 z m 8.27289,0.28125 q -0.5,-0.21875 -1.14062,-0.21875 -0.59375,0 -1.10938,0.20313 v 7.17187 h -1.375 v -8.03125 q 0.46875,-0.21875 1.0625,-0.375 0.59375,-0.15625 1.3125,-0.15625 0.39063,0 0.76563,0.0469 0.39062,0.0469 0.73437,0.17187 z m 4.19614,-3.25 q 0.9375,-0.9375 2.3125,-0.9375 1.28125,0 1.96875,0.6875 0.70312,0.67188 0.70312,2.10938 0,0.67187 -0.23437,1.28125 -0.21875,0.60937 -0.5625,1.1875 -0.32813,0.5625 -0.73438,1.125 -0.39062,0.54687 -0.76562,1.14062 -0.35938,0.57813 -0.64063,1.21875 -0.26562,0.625 -0.32812,1.34375 h 3.48437 v 1.25 h -4.96875 v -0.29687 q 0,-1.07813 0.25,-1.90625 0.25,-0.84375 0.60938,-1.51563 0.35937,-0.67187 0.79687,-1.23437 0.4375,-0.57813 0.79688,-1.125 0.35937,-0.5625 0.59375,-1.14063 0.25,-0.59375 0.25,-1.29687 0,-0.84375 -0.34375,-1.21875 -0.32813,-0.375 -1,-0.375 -0.45313,0 -0.82813,0.1875 -0.375,0.17187 -0.6875,0.46875 z"
       fill-rule="nonzero"
       id="path23" />
    <path
       fill="#000000"
       fill-opacity="0"
       d="m 143.19685,174.3937 h 129.79527 v 180 H 143.19685 Z"
       fill-rule="evenodd"
       id="path25" />
    <path
       stroke="#efefef"
       stroke-width="1"
       stroke-linejoin="round"
       stroke-linecap="butt"
       d="m 143.19685,174.3937 h 129.79527 v 180 H 143.19685 Z"
       fill-rule="evenodd"
       id="path27" />
    <path
       fill="#f3f3f3"
       d="m 193.93619,187.65996 v 1.23437 h -2.46875 v 9.85938 h -1.4375 v -9.85938 h -2.46875 v -1.23437 z m 5.98288,6.90625 q 0,0.98437 -0.1875,1.79687 -0.17188,0.8125 -0.53125,1.39063 -0.35938,0.5625 -0.90625,0.89062 -0.54688,0.3125 -1.29688,0.3125 -0.76562,0 -1.32812,-0.3125 -0.54688,-0.32812 -0.90625,-0.89062 -0.35938,-0.57813 -0.54688,-1.39063 -0.17187,-0.8125 -0.17187,-1.79687 0,-0.98438 0.17187,-1.79688 0.1875,-0.8125 0.54688,-1.39062 0.35937,-0.59375 0.90625,-0.90625 0.5625,-0.32813 1.32812,-0.32813 0.75,0 1.29688,0.32813 0.54687,0.3125 0.90625,0.90625 0.35937,0.57812 0.53125,1.39062 0.1875,0.8125 0.1875,1.79688 z m -1.4375,0 q 0,-0.70313 -0.0781,-1.28125 -0.0781,-0.59375 -0.26562,-1.01563 -0.17188,-0.42187 -0.46875,-0.65625 -0.28125,-0.23437 -0.67188,-0.23437 -0.42187,0 -0.70312,0.23437 -0.28125,0.23438 -0.46875,0.65625 -0.17188,0.42188 -0.26563,1.01563 -0.0781,0.57812 -0.0781,1.28125 0,0.70312 0.0781,1.29687 0.0937,0.57813 0.26563,1 0.1875,0.40625 0.46875,0.64063 0.28125,0.21875 0.70312,0.21875 0.39063,0 0.67188,-0.21875 0.29687,-0.23438 0.46875,-0.64063 0.1875,-0.42187 0.26562,-1 0.0781,-0.59375 0.0781,-1.29687 z m 4.81427,2.92187 q 0.46875,0.25 0.98437,0.25 0.40625,0 0.70313,-0.15625 0.3125,-0.15625 0.53125,-0.51562 0.21875,-0.375 0.32812,-0.98438 0.10938,-0.60937 0.10938,-1.5 0,-1.73437 -0.4375,-2.46875 -0.4375,-0.75 -1.40625,-0.75 -0.17188,0 -0.39063,0.0312 -0.20312,0.0156 -0.42187,0.0781 z m 0,4.21875 h -1.375 v -11.125 q 0.45312,-0.20312 1.01562,-0.3125 0.5625,-0.125 1.15625,-0.125 0.875,0 1.5,0.3125 0.64063,0.29688 1.03125,0.875 0.40625,0.5625 0.57813,1.39063 0.1875,0.8125 0.1875,1.875 0,2.125 -0.6875,3.25 -0.67188,1.10937 -2.20313,1.10937 -0.375,0 -0.67187,-0.0781 -0.28125,-0.0625 -0.53125,-0.1875 z m 7.48764,-2.95312 h -1.375 v -8.40625 h 1.375 z m -0.6875,-9.89063 q -0.375,0 -0.64063,-0.25 -0.25,-0.25 -0.25,-0.65625 0,-0.42187 0.25,-0.67187 0.26563,-0.25 0.64063,-0.25 0.35937,0 0.625,0.25 0.26562,0.25 0.26562,0.67187 0,0.40625 -0.26562,0.65625 -0.26563,0.25 -0.625,0.25 z m 5.74701,10.09375 q -0.875,0 -1.45313,-0.32812 -0.5625,-0.34375 -0.92187,-0.92188 -0.35938,-0.57812 -0.51563,-1.375 -0.15625,-0.8125 -0.15625,-1.75 0,-2.07812 0.75,-3.25 0.76563,-1.1875 2.3125,-1.1875 0.45313,0 0.82813,0.10938 0.375,0.10937 0.6875,0.29687 l -0.35938,1.125 q -0.48437,-0.3125 -1.09375,-0.3125 -0.85937,0 -1.28125,0.78125 -0.40625,0.78125 -0.40625,2.4375 0,0.6875 0.0781,1.28125 0.0937,0.57813 0.28125,1 0.20312,0.40625 0.53125,0.64063 0.32812,0.23437 0.84375,0.23437 0.34375,0 0.625,-0.0781 0.28125,-0.0937 0.54687,-0.23438 l 0.29688,1.07813 q -0.25,0.17187 -0.6875,0.3125 -0.42188,0.14062 -0.90625,0.14062 z m 9.73677,-11.29687 q 0.39063,1.20312 0.76563,2.4375 0.375,1.21875 0.73437,2.5625 0.35938,1.34375 0.71875,2.84375 0.35938,1.5 0.73438,3.25 h -1.45313 q -0.125,-0.71875 -0.26562,-1.42188 -0.125,-0.70312 -0.26563,-1.40625 h -3.5 q -0.15625,0.70313 -0.28125,1.40625 -0.125,0.70313 -0.25,1.42188 h -1.40625 q 0.35938,-1.75 0.71875,-3.25 0.375,-1.5 0.73438,-2.84375 0.35937,-1.34375 0.73437,-2.5625 0.375,-1.23438 0.76563,-2.4375 z m -0.78125,1.64062 q -0.40625,1.32813 -0.78125,2.67188 -0.35937,1.34375 -0.6875,2.75 h 2.92188 q -0.3125,-1.40625 -0.6875,-2.75 -0.35938,-1.34375 -0.76563,-2.67188 z"
       fill-rule="nonzero"
       id="path29" />
    <path
       fill="#6fa8dc"
       d="m 162.53543,220.33333 h 91.11812 v 25.25984 h -91.11812 z"
       fill-rule="evenodd"
       id="path31" />
    <path
       stroke="#595959"
       stroke-width="1"
       stroke-linejoin="round"
       stroke-linecap="butt"
       d="m 162.53543,220.33333 h 91.11812 v 25.25984 h -91.11812 z"
       fill-rule="evenodd"
       id="path33" />
    <path
       fill="#f3f3f3"
       d="m 178.05415,227.90138 q 1.125,-0.28125 2.1875,-0.28125 0.84375,0 1.51562,0.20312 0.6875,0.20313 1.17188,0.625 0.48437,0.42188 0.75,1.09375 0.26562,0.67188 0.26562,1.625 0,0.95313 -0.28125,1.64063 -0.26562,0.67187 -0.76562,1.09375 -0.48438,0.42187 -1.1875,0.625 -0.70313,0.1875 -1.54688,0.1875 h -0.67187 v 4.10937 h -1.4375 z m 1.4375,5.54687 h 0.57812 q 0.54688,0 0.98438,-0.10937 0.4375,-0.125 0.73437,-0.39063 0.3125,-0.28125 0.46875,-0.71875 0.17188,-0.4375 0.17188,-1.0625 0,-0.64062 -0.17188,-1.07812 -0.15625,-0.45313 -0.4375,-0.71875 -0.28125,-0.26563 -0.6875,-0.375 -0.39062,-0.10938 -0.875,-0.10938 -0.40625,0 -0.76562,0.0469 z m 6.03375,-2.84375 q 0.42188,-0.1875 0.875,-0.28125 0.46875,-0.10937 1.01563,-0.10937 1.125,0 1.82812,0.70312 0.70313,0.6875 0.70313,2.15625 v 5.57813 q -0.57813,0.15625 -1.1875,0.25 -0.59375,0.0937 -1.17188,0.0937 -0.57812,0 -1.07812,-0.14063 -0.5,-0.14062 -0.875,-0.45312 -0.375,-0.32813 -0.60938,-0.8125 -0.21875,-0.5 -0.21875,-1.20313 0,-0.65625 0.20313,-1.14062 0.20312,-0.48438 0.54687,-0.8125 0.35938,-0.32813 0.82813,-0.5 0.48437,-0.17188 1.04687,-0.17188 0.53125,0 1.17188,0.14063 v -0.78125 q 0,-0.92188 -0.35938,-1.28125 -0.35937,-0.375 -1.03125,-0.375 -0.375,0 -0.70312,0.0781 -0.32813,0.0625 -0.70313,0.21875 z m 0.65625,5.76563 q 0,0.73437 0.375,1.09375 0.39063,0.34375 1.09375,0.34375 0.4375,0 0.95313,-0.10938 v -2.67187 q -0.48438,-0.125 -0.95313,-0.125 -0.29687,0 -0.57812,0.0781 -0.26563,0.0625 -0.46875,0.23438 -0.20313,0.17187 -0.3125,0.45312 -0.10938,0.28125 -0.10938,0.70313 z m 9.78777,-4.70313 q -0.5,-0.21875 -1.14063,-0.21875 -0.59375,0 -1.10937,0.20313 v 7.17187 h -1.375 V 230.792 q 0.46875,-0.21875 1.0625,-0.375 0.59375,-0.15625 1.3125,-0.15625 0.39062,0 0.76562,0.0469 0.39063,0.0469 0.73438,0.17187 z m 2.90426,-1.25 h 2.10938 v 1.1875 h -2.10938 v 4.625 q 0,0.85938 0.3125,1.20313 0.3125,0.34375 0.84375,0.34375 0.26563,0 0.51563,-0.0781 0.25,-0.0781 0.42187,-0.1875 l 0.26563,1.10938 q -0.65625,0.375 -1.39063,0.375 -1.1875,0 -1.76562,-0.65625 -0.57813,-0.67188 -0.57813,-2.20313 V 228.167 l 1.375,-0.23437 z m 5.22977,8.40625 h -1.375 V 230.417 h 1.375 z m -0.6875,-9.89062 q -0.375,0 -0.64062,-0.25 -0.25,-0.25 -0.25,-0.65625 0,-0.42188 0.25,-0.67188 0.26562,-0.25 0.64062,-0.25 0.35938,0 0.625,0.25 0.26563,0.25 0.26563,0.67188 0,0.40625 -0.26563,0.65625 -0.26562,0.25 -0.625,0.25 z m 4.46576,1.48437 h 2.10938 v 1.1875 h -2.10938 v 4.625 q 0,0.85938 0.3125,1.20313 0.3125,0.34375 0.84375,0.34375 0.26563,0 0.51563,-0.0781 0.25,-0.0781 0.42187,-0.1875 l 0.26563,1.10938 q -0.65625,0.375 -1.39063,0.375 -1.1875,0 -1.76562,-0.65625 -0.57813,-0.67188 -0.57813,-2.20313 V 228.167 l 1.375,-0.23437 z m 5.22977,8.40625 h -1.375 V 230.417 h 1.375 z m -0.6875,-9.89062 q -0.375,0 -0.64063,-0.25 -0.25,-0.25 -0.25,-0.65625 0,-0.42188 0.25,-0.67188 0.26563,-0.25 0.64063,-0.25 0.35937,0 0.625,0.25 0.26562,0.25 0.26562,0.67188 0,0.40625 -0.26562,0.65625 -0.26563,0.25 -0.625,0.25 z m 8.57513,5.70312 q 0,0.98438 -0.1875,1.79688 -0.17187,0.8125 -0.53125,1.39062 -0.35937,0.5625 -0.90625,0.89063 -0.54687,0.3125 -1.29687,0.3125 -0.76563,0 -1.32813,-0.3125 -0.54687,-0.32813 -0.90625,-0.89063 -0.35937,-0.57812 -0.54687,-1.39062 -0.17188,-0.8125 -0.17188,-1.79688 0,-0.98437 0.17188,-1.79687 0.1875,-0.8125 0.54687,-1.39063 0.35938,-0.59375 0.90625,-0.90625 0.5625,-0.32812 1.32813,-0.32812 0.75,0 1.29687,0.32812 0.54688,0.3125 0.90625,0.90625 0.35938,0.57813 0.53125,1.39063 0.1875,0.8125 0.1875,1.79687 z m -1.4375,0 q 0,-0.70312 -0.0781,-1.28125 -0.0781,-0.59375 -0.26563,-1.01562 -0.17187,-0.42188 -0.46875,-0.65625 -0.28125,-0.23438 -0.67187,-0.23438 -0.42188,0 -0.70313,0.23438 -0.28125,0.23437 -0.46875,0.65625 -0.17187,0.42187 -0.26562,1.01562 -0.0781,0.57813 -0.0781,1.28125 0,0.70313 0.0781,1.29688 0.0937,0.57812 0.26562,1 0.1875,0.40625 0.46875,0.64062 0.28125,0.21875 0.70313,0.21875 0.39062,0 0.67187,-0.21875 0.29688,-0.23437 0.46875,-0.64062 0.1875,-0.42188 0.26563,-1 0.0781,-0.59375 0.0781,-1.29688 z m 3.4549,-3.96875 q 0.59375,-0.1875 1.28125,-0.29687 0.6875,-0.125 1.26562,-0.125 0.625,0 1.125,0.17187 0.51563,0.17188 0.875,0.57813 0.35938,0.39062 0.5625,1.07812 0.20313,0.67188 0.20313,1.67188 v 5.07812 h -1.375 v -4.95312 q 0,-1.25 -0.32813,-1.82813 -0.3125,-0.57812 -1.20312,-0.57812 -0.45313,0 -1.03125,0.15625 v 7.20312 h -1.375 z m 10.70703,-0.71875 q 0.29687,-0.1875 0.625,-0.4375 0.32812,-0.25 0.625,-0.54687 0.3125,-0.29688 0.57812,-0.60938 0.26563,-0.3125 0.4375,-0.625 h 1.0625 v 11.09375 h -1.375 V 229.917 q -0.28125,0.28125 -0.64062,0.54688 -0.35938,0.25 -0.75,0.46875 z"
       fill-rule="nonzero"
       id="path35" />
    <path
       fill="#6fa8dc"
       d="m 162.53543,262.73227 h 91.11812 v 25.25986 h -91.11812 z"
       fill-rule="evenodd"
       id="path37" />
    <path
       stroke="#595959"
       stroke-width="1"
       stroke-linejoin="round"
       stroke-linecap="butt"
       d="m 162.53543,262.73227 h 91.11812 v 25.25986 h -91.11812 z"
       fill-rule="evenodd"
       id="path39" />
    <path
       fill="#f3f3f3"
       d="m 178.05415,270.30032 q 1.125,-0.28125 2.1875,-0.28125 0.84375,0 1.51562,0.20312 0.6875,0.20313 1.17188,0.625 0.48437,0.42188 0.75,1.09375 0.26562,0.67188 0.26562,1.625 0,0.95313 -0.28125,1.64063 -0.26562,0.67187 -0.76562,1.09375 -0.48438,0.42187 -1.1875,0.625 -0.70313,0.1875 -1.54688,0.1875 h -0.67187 v 4.10937 h -1.4375 z m 1.4375,5.54687 h 0.57812 q 0.54688,0 0.98438,-0.10937 0.4375,-0.125 0.73437,-0.39063 0.3125,-0.28125 0.46875,-0.71875 0.17188,-0.4375 0.17188,-1.0625 0,-0.64062 -0.17188,-1.07812 -0.15625,-0.45313 -0.4375,-0.71875 -0.28125,-0.26563 -0.6875,-0.375 -0.39062,-0.10938 -0.875,-0.10938 -0.40625,0 -0.76562,0.0469 z m 6.03375,-2.84375 q 0.42188,-0.1875 0.875,-0.28125 0.46875,-0.10937 1.01563,-0.10937 1.125,0 1.82812,0.70312 0.70313,0.6875 0.70313,2.15625 v 5.57813 q -0.57813,0.15625 -1.1875,0.25 -0.59375,0.0937 -1.17188,0.0937 -0.57812,0 -1.07812,-0.14063 -0.5,-0.14062 -0.875,-0.45312 -0.375,-0.32813 -0.60938,-0.8125 -0.21875,-0.5 -0.21875,-1.20313 0,-0.65625 0.20313,-1.14062 0.20312,-0.48438 0.54687,-0.8125 0.35938,-0.32813 0.82813,-0.5 0.48437,-0.17188 1.04687,-0.17188 0.53125,0 1.17188,0.14063 v -0.78125 q 0,-0.92188 -0.35938,-1.28125 -0.35937,-0.375 -1.03125,-0.375 -0.375,0 -0.70312,0.0781 -0.32813,0.0625 -0.70313,0.21875 z m 0.65625,5.76563 q 0,0.73437 0.375,1.09375 0.39063,0.34375 1.09375,0.34375 0.4375,0 0.95313,-0.10938 v -2.67187 q -0.48438,-0.125 -0.95313,-0.125 -0.29687,0 -0.57812,0.0781 -0.26563,0.0625 -0.46875,0.23438 -0.20313,0.17187 -0.3125,0.45312 -0.10938,0.28125 -0.10938,0.70313 z m 9.78777,-4.70313 q -0.5,-0.21875 -1.14063,-0.21875 -0.59375,0 -1.10937,0.20313 v 7.17187 h -1.375 v -8.03125 q 0.46875,-0.21875 1.0625,-0.375 0.59375,-0.15625 1.3125,-0.15625 0.39062,0 0.76562,0.0469 0.39063,0.0469 0.73438,0.17187 z m 2.90426,-1.25 h 2.10938 v 1.1875 h -2.10938 v 4.625 q 0,0.85938 0.3125,1.20313 0.3125,0.34375 0.84375,0.34375 0.26563,0 0.51563,-0.0781 0.25,-0.0781 0.42187,-0.1875 l 0.26563,1.10938 q -0.65625,0.375 -1.39063,0.375 -1.1875,0 -1.76562,-0.65625 -0.57813,-0.67188 -0.57813,-2.20313 v -7.96875 l 1.375,-0.23437 z m 5.22977,8.40625 h -1.375 v -8.40625 h 1.375 z m -0.6875,-9.89062 q -0.375,0 -0.64062,-0.25 -0.25,-0.25 -0.25,-0.65625 0,-0.42188 0.25,-0.67188 0.26562,-0.25 0.64062,-0.25 0.35938,0 0.625,0.25 0.26563,0.25 0.26563,0.67188 0,0.40625 -0.26563,0.65625 -0.26562,0.25 -0.625,0.25 z m 4.46576,1.48437 h 2.10938 v 1.1875 h -2.10938 v 4.625 q 0,0.85938 0.3125,1.20313 0.3125,0.34375 0.84375,0.34375 0.26563,0 0.51563,-0.0781 0.25,-0.0781 0.42187,-0.1875 l 0.26563,1.10938 q -0.65625,0.375 -1.39063,0.375 -1.1875,0 -1.76562,-0.65625 -0.57813,-0.67188 -0.57813,-2.20313 v -7.96875 l 1.375,-0.23437 z m 5.22977,8.40625 h -1.375 v -8.40625 h 1.375 z m -0.6875,-9.89062 q -0.375,0 -0.64063,-0.25 -0.25,-0.25 -0.25,-0.65625 0,-0.42188 0.25,-0.67188 0.26563,-0.25 0.64063,-0.25 0.35937,0 0.625,0.25 0.26562,0.25 0.26562,0.67188 0,0.40625 -0.26562,0.65625 -0.26563,0.25 -0.625,0.25 z m 8.57513,5.70312 q 0,0.98438 -0.1875,1.79688 -0.17187,0.8125 -0.53125,1.39062 -0.35937,0.5625 -0.90625,0.89063 -0.54687,0.3125 -1.29687,0.3125 -0.76563,0 -1.32813,-0.3125 -0.54687,-0.32813 -0.90625,-0.89063 -0.35937,-0.57812 -0.54687,-1.39062 -0.17188,-0.8125 -0.17188,-1.79688 0,-0.98437 0.17188,-1.79687 0.1875,-0.8125 0.54687,-1.39063 0.35938,-0.59375 0.90625,-0.90625 0.5625,-0.32812 1.32813,-0.32812 0.75,0 1.29687,0.32812 0.54688,0.3125 0.90625,0.90625 0.35938,0.57813 0.53125,1.39063 0.1875,0.8125 0.1875,1.79687 z m -1.4375,0 q 0,-0.70312 -0.0781,-1.28125 -0.0781,-0.59375 -0.26563,-1.01562 -0.17187,-0.42188 -0.46875,-0.65625 -0.28125,-0.23438 -0.67187,-0.23438 -0.42188,0 -0.70313,0.23438 -0.28125,0.23437 -0.46875,0.65625 -0.17187,0.42187 -0.26562,1.01562 -0.0781,0.57813 -0.0781,1.28125 0,0.70313 0.0781,1.29688 0.0937,0.57812 0.26562,1 0.1875,0.40625 0.46875,0.64062 0.28125,0.21875 0.70313,0.21875 0.39062,0 0.67187,-0.21875 0.29688,-0.23437 0.46875,-0.64062 0.1875,-0.42188 0.26563,-1 0.0781,-0.59375 0.0781,-1.29688 z m 3.4549,-3.96875 q 0.59375,-0.1875 1.28125,-0.29687 0.6875,-0.125 1.26562,-0.125 0.625,0 1.125,0.17187 0.51563,0.17188 0.875,0.57813 0.35938,0.39062 0.5625,1.07812 0.20313,0.67188 0.20313,1.67188 v 5.07812 h -1.375 v -4.95312 q 0,-1.25 -0.32813,-1.82813 -0.3125,-0.57812 -1.20312,-0.57812 -0.45313,0 -1.03125,0.15625 v 7.20312 h -1.375 z m 10.28515,-2.25 q 0.9375,-0.9375 2.3125,-0.9375 1.28125,0 1.96875,0.6875 0.70313,0.67188 0.70313,2.10938 0,0.67187 -0.23438,1.28125 -0.21875,0.60937 -0.5625,1.1875 -0.32812,0.5625 -0.73437,1.125 -0.39063,0.54687 -0.76563,1.14062 -0.35937,0.57813 -0.64062,1.21875 -0.26563,0.625 -0.32813,1.34375 h 3.48438 v 1.25 h -4.96875 v -0.29687 q 0,-1.07813 0.25,-1.90625 0.25,-0.84375 0.60937,-1.51563 0.35938,-0.67187 0.79688,-1.23437 0.4375,-0.57813 0.79687,-1.125 0.35938,-0.5625 0.59375,-1.14063 0.25,-0.59375 0.25,-1.29687 0,-0.84375 -0.34375,-1.21875 -0.32812,-0.375 -1,-0.375 -0.45312,0 -0.82812,0.1875 -0.375,0.17187 -0.6875,0.46875 z"
       fill-rule="nonzero"
       id="path41" />
    <path
       fill="#6fa8dc"
       d="m 162.53543,305.13123 h 91.11812 v 25.25986 h -91.11812 z"
       fill-rule="evenodd"
       id="path43" />
    <path
       stroke="#595959"
       stroke-width="1"
       stroke-linejoin="round"
       stroke-linecap="butt"
       d="m 162.53543,305.13123 h 91.11812 v 25.25986 h -91.11812 z"
       fill-rule="evenodd"
       id="path45" />
    <path
       fill="#f3f3f3"
       d="m 178.05415,312.69928 q 1.125,-0.28125 2.1875,-0.28125 0.84375,0 1.51562,0.20312 0.6875,0.20313 1.17188,0.625 0.48437,0.42188 0.75,1.09375 0.26562,0.67188 0.26562,1.625 0,0.95313 -0.28125,1.64063 -0.26562,0.67187 -0.76562,1.09375 -0.48438,0.42187 -1.1875,0.625 -0.70313,0.1875 -1.54688,0.1875 h -0.67187 v 4.10937 h -1.4375 z m 1.4375,5.54687 h 0.57812 q 0.54688,0 0.98438,-0.10937 0.4375,-0.125 0.73437,-0.39063 0.3125,-0.28125 0.46875,-0.71875 0.17188,-0.4375 0.17188,-1.0625 0,-0.64062 -0.17188,-1.07812 -0.15625,-0.45313 -0.4375,-0.71875 -0.28125,-0.26563 -0.6875,-0.375 -0.39062,-0.10938 -0.875,-0.10938 -0.40625,0 -0.76562,0.0469 z m 6.03375,-2.84375 q 0.42188,-0.1875 0.875,-0.28125 0.46875,-0.10937 1.01563,-0.10937 1.125,0 1.82812,0.70312 0.70313,0.6875 0.70313,2.15625 v 5.57813 q -0.57813,0.15625 -1.1875,0.25 -0.59375,0.0937 -1.17188,0.0937 -0.57812,0 -1.07812,-0.14063 -0.5,-0.14062 -0.875,-0.45312 -0.375,-0.32813 -0.60938,-0.8125 -0.21875,-0.5 -0.21875,-1.20313 0,-0.65625 0.20313,-1.14062 0.20312,-0.48438 0.54687,-0.8125 0.35938,-0.32813 0.82813,-0.5 0.48437,-0.17188 1.04687,-0.17188 0.53125,0 1.17188,0.14063 v -0.78125 q 0,-0.92188 -0.35938,-1.28125 -0.35937,-0.375 -1.03125,-0.375 -0.375,0 -0.70312,0.0781 -0.32813,0.0625 -0.70313,0.21875 z m 0.65625,5.76563 q 0,0.73437 0.375,1.09375 0.39063,0.34375 1.09375,0.34375 0.4375,0 0.95313,-0.10938 v -2.67187 q -0.48438,-0.125 -0.95313,-0.125 -0.29687,0 -0.57812,0.0781 -0.26563,0.0625 -0.46875,0.23438 -0.20313,0.17187 -0.3125,0.45312 -0.10938,0.28125 -0.10938,0.70313 z m 9.78777,-4.70313 q -0.5,-0.21875 -1.14063,-0.21875 -0.59375,0 -1.10937,0.20313 v 7.17187 h -1.375 v -8.03125 q 0.46875,-0.21875 1.0625,-0.375 0.59375,-0.15625 1.3125,-0.15625 0.39062,0 0.76562,0.0469 0.39063,0.0469 0.73438,0.17187 z m 2.90426,-1.25 h 2.10938 v 1.1875 h -2.10938 v 4.625 q 0,0.85938 0.3125,1.20313 0.3125,0.34375 0.84375,0.34375 0.26563,0 0.51563,-0.0781 0.25,-0.0781 0.42187,-0.1875 l 0.26563,1.10938 q -0.65625,0.375 -1.39063,0.375 -1.1875,0 -1.76562,-0.65625 -0.57813,-0.67188 -0.57813,-2.20313 v -7.96875 l 1.375,-0.23437 z m 5.22977,8.40625 h -1.375 v -8.40625 h 1.375 z m -0.6875,-9.89062 q -0.375,0 -0.64062,-0.25 -0.25,-0.25 -0.25,-0.65625 0,-0.42188 0.25,-0.67188 0.26562,-0.25 0.64062,-0.25 0.35938,0 0.625,0.25 0.26563,0.25 0.26563,0.67188 0,0.40625 -0.26563,0.65625 -0.26562,0.25 -0.625,0.25 z m 4.46576,1.48437 h 2.10938 v 1.1875 h -2.10938 v 4.625 q 0,0.85938 0.3125,1.20313 0.3125,0.34375 0.84375,0.34375 0.26563,0 0.51563,-0.0781 0.25,-0.0781 0.42187,-0.1875 l 0.26563,1.10938 q -0.65625,0.375 -1.39063,0.375 -1.1875,0 -1.76562,-0.65625 -0.57813,-0.67188 -0.57813,-2.20313 v -7.96875 l 1.375,-0.23437 z m 5.22977,8.40625 h -1.375 v -8.40625 h 1.375 z m -0.6875,-9.89062 q -0.375,0 -0.64063,-0.25 -0.25,-0.25 -0.25,-0.65625 0,-0.42188 0.25,-0.67188 0.26563,-0.25 0.64063,-0.25 0.35937,0 0.625,0.25 0.26562,0.25 0.26562,0.67188 0,0.40625 -0.26562,0.65625 -0.26563,0.25 -0.625,0.25 z m 8.57513,5.70312 q 0,0.98438 -0.1875,1.79688 -0.17187,0.8125 -0.53125,1.39062 -0.35937,0.5625 -0.90625,0.89063 -0.54687,0.3125 -1.29687,0.3125 -0.76563,0 -1.32813,-0.3125 -0.54687,-0.32813 -0.90625,-0.89063 -0.35937,-0.57812 -0.54687,-1.39062 -0.17188,-0.8125 -0.17188,-1.79688 0,-0.98437 0.17188,-1.79687 0.1875,-0.8125 0.54687,-1.39063 0.35938,-0.59375 0.90625,-0.90625 0.5625,-0.32812 1.32813,-0.32812 0.75,0 1.29687,0.32812 0.54688,0.3125 0.90625,0.90625 0.35938,0.57813 0.53125,1.39063 0.1875,0.8125 0.1875,1.79687 z m -1.4375,0 q 0,-0.70312 -0.0781,-1.28125 -0.0781,-0.59375 -0.26563,-1.01562 -0.17187,-0.42188 -0.46875,-0.65625 -0.28125,-0.23438 -0.67187,-0.23438 -0.42188,0 -0.70313,0.23438 -0.28125,0.23437 -0.46875,0.65625 -0.17187,0.42187 -0.26562,1.01562 -0.0781,0.57813 -0.0781,1.28125 0,0.70313 0.0781,1.29688 0.0937,0.57812 0.26562,1 0.1875,0.40625 0.46875,0.64062 0.28125,0.21875 0.70313,0.21875 0.39062,0 0.67187,-0.21875 0.29688,-0.23437 0.46875,-0.64062 0.1875,-0.42188 0.26563,-1 0.0781,-0.59375 0.0781,-1.29688 z m 3.4549,-3.96875 q 0.59375,-0.1875 1.28125,-0.29687 0.6875,-0.125 1.26562,-0.125 0.625,0 1.125,0.17187 0.51563,0.17188 0.875,0.57813 0.35938,0.39062 0.5625,1.07812 0.20313,0.67188 0.20313,1.67188 v 5.07812 h -1.375 v -4.95312 q 0,-1.25 -0.32813,-1.82813 -0.3125,-0.57812 -1.20312,-0.57812 -0.45313,0 -1.03125,0.15625 v 7.20312 h -1.375 z m 13.6914,2.1875 q 0.79688,0.28125 1.23438,1.01563 0.45312,0.73437 0.45312,1.875 0,1.54687 -0.75,2.4375 -0.75,0.875 -2.25,0.875 -0.59375,0 -1.15625,-0.17188 -0.54687,-0.17187 -0.96875,-0.46875 l 0.375,-1.10937 q 0.35938,0.21875 0.76563,0.39062 0.40625,0.15625 0.85937,0.15625 0.8125,0 1.26563,-0.5 0.46875,-0.51562 0.46875,-1.625 0,-1.09375 -0.51563,-1.65625 -0.5,-0.5625 -1.60937,-0.5625 h -0.40625 v -1.17187 h 0.34375 q 0.96875,0 1.42187,-0.5 0.46875,-0.51563 0.46875,-1.4375 0,-0.85938 -0.375,-1.28125 -0.35937,-0.42188 -0.96875,-0.42188 -0.40625,0 -0.79687,0.15625 -0.375,0.15625 -0.64063,0.40625 l -0.54687,-1.01562 q 0.42187,-0.375 0.98437,-0.5625 0.57813,-0.20313 1.125,-0.20313 1.25,0 1.92188,0.78125 0.67187,0.78125 0.67187,2.07813 0,0.92187 -0.35937,1.5625 -0.35938,0.625 -1.01563,0.95312 z"
       fill-rule="nonzero"
       id="path47" />
    <path
       fill="#000000"
       fill-opacity="0"
       d="m 253.65355,232.96326 h 141.6693"
       fill-rule="evenodd"
       id="path49" />
    <path
       stroke="#efefef"
       stroke-width="2"
       stroke-linejoin="round"
       stroke-linecap="butt"
       stroke-dasharray="8, 6"
       d="m 253.65355,232.96326 h 129.6693"
       fill-rule="evenodd"
       id="path51" />
    <path
       fill="#efefef"
       stroke="#efefef"
       stroke-width="2"
       stroke-linecap="butt"
       d="m 383.32285,236.26672 9.07617,-3.30347 -9.07617,-3.30346 z"
       fill-rule="evenodd"
       id="path53" />
    <path
       fill="#000000"
       fill-opacity="0"
       d="m 253.65355,275.3622 c 35.42085,0 53.13307,-10.59842 70.84172,-21.19685 17.70868,-10.59844 35.41379,-21.19686 70.82758,-21.19686"
       fill-rule="evenodd"
       id="path55" />
    <path
       stroke="#efefef"
       stroke-width="2"
       stroke-linejoin="round"
       stroke-linecap="butt"
       stroke-dasharray="8, 6"
       d="m 253.65355,275.3622 c 35.42085,0 53.13304,-10.59842 70.84172,-21.19685 8.85431,-5.29923 17.70776,-10.59844 28.77432,-14.57285 5.53333,-1.9872 11.61988,-3.6432 18.5365,-4.8024 3.45835,-0.5796 7.12415,-1.035 11.03208,-1.34552 l 0.4927,-0.0366"
       fill-rule="evenodd"
       id="path57" />
    <path
       fill="#efefef"
       stroke="#efefef"
       stroke-width="2"
       stroke-linecap="butt"
       d="m 383.45187,236.70929 8.94913,-3.6337 -9.1911,-2.96879 z"
       fill-rule="evenodd"
       id="path59" />
    <path
       fill="#000000"
       fill-opacity="0"
       d="m 253.65355,317.76117 c 35.42085,0 53.13307,-10.59845 70.84172,-21.19687 17.70868,-10.59842 35.41379,-21.19684 70.82758,-21.19684"
       fill-rule="evenodd"
       id="path61" />
    <path
       stroke="#efefef"
       stroke-width="2"
       stroke-linejoin="round"
       stroke-linecap="butt"
       stroke-dasharray="8, 6"
       d="m 253.65355,317.76117 c 35.42085,0 53.13304,-10.59845 70.84172,-21.19687 8.85431,-5.29919 17.70776,-10.59842 28.77432,-14.57284 5.53333,-1.98719 11.61988,-3.64319 18.5365,-4.8024 3.45835,-0.57959 7.12415,-1.03501 11.03208,-1.34552 l 0.4927,-0.0366"
       fill-rule="evenodd"
       id="path63" />
    <path
       fill="#efefef"
       stroke="#efefef"
       stroke-width="2"
       stroke-linecap="butt"
       d="m 383.45187,279.10825 8.94913,-3.6337 -9.1911,-2.96881 z"
       fill-rule="evenodd"
       id="path65" />
    <path
       fill="#434343"
       d="m 310.88846,188 v 0 c 0,-7.51456 6.09174,-13.60629 13.60629,-13.60629 v 0 c 3.60861,0 7.06943,1.43351 9.6211,3.98518 2.55169,2.55168 3.9852,6.0125 3.9852,9.62111 v 0 c 0,7.51456 -6.09174,13.60629 -13.6063,13.60629 v 0 c -7.51455,0 -13.60629,-6.09173 -13.60629,-13.60629 z"
       fill-rule="evenodd"
       id="path67" />
    <path
       stroke="#f3f3f3"
       stroke-width="1"
       stroke-linejoin="round"
       stroke-linecap="butt"
       d="m 310.88846,188 v 0 c 0,-7.51456 6.09174,-13.60629 13.60629,-13.60629 v 0 c 3.60861,0 7.06943,1.43351 9.6211,3.98518 2.55169,2.55168 3.9852,6.0125 3.9852,9.62111 v 0 c 0,7.51456 -6.09174,13.60629 -13.6063,13.60629 v 0 c -7.51455,0 -13.60629,-6.09173 -13.60629,-13.60629 z"
       fill-rule="evenodd"
       id="path69" />
    <path
       fill="#f3f3f3"
       d="m 323.108,187.485 h 1 q 1.98437,0 1.98437,-1.78125 0,-0.5625 -0.17187,-0.92187 -0.17188,-0.35938 -0.45313,-0.5625 -0.26562,-0.20313 -0.625,-0.28125 -0.35937,-0.0781 -0.75,-0.0781 -0.25,0 -0.5,0.0156 -0.23437,0.0156 -0.48437,0.0469 z m 0,1.15625 v 4 q 0.3125,0.0469 0.60937,0.0781 0.29688,0.0312 0.57813,0.0312 0.45312,0 0.84375,-0.0937 0.40625,-0.0937 0.70312,-0.3125 0.29688,-0.23438 0.45313,-0.625 0.17187,-0.39063 0.17187,-0.96875 0,-0.98438 -0.53125,-1.54688 -0.53125,-0.5625 -1.67187,-0.5625 z m -1.4375,-5.70312 q 0.5625,-0.14063 1.14062,-0.20313 0.59375,-0.0781 1.15625,-0.0781 0.73438,0 1.375,0.14062 0.64063,0.14063 1.14063,0.46875 0.5,0.32813 0.79687,0.85938 0.29688,0.53125 0.29688,1.32812 0,1 -0.42188,1.64063 -0.40625,0.625 -1.0625,0.92187 0.8125,0.32813 1.32813,0.98438 0.53125,0.65625 0.53125,1.79687 0,0.875 -0.28125,1.46875 -0.26563,0.57813 -0.78125,0.96875 -0.51563,0.375 -1.23438,0.54688 -0.70312,0.15625 -1.54687,0.15625 -0.5625,0 -1.17188,-0.0625 -0.60937,-0.0625 -1.26562,-0.1875 z"
       fill-rule="nonzero"
       id="path71" />
  </g>
</svg>
