<?xml version="1.0" encoding="UTF-8" standalone="no"?>
<svg
   version="1.1"
   viewBox="0 0 514.63782 331.77951"
   fill="none"
   stroke="none"
   stroke-linecap="square"
   stroke-miterlimit="10"
   id="svg181"
   sodipodi:docname="consumer-offsets_2.svg"
   width="514.63782"
   height="331.77951"
   inkscape:version="1.2.2 (b0a8486541, 2022-12-01)"
   xmlns:inkscape="http://www.inkscape.org/namespaces/inkscape"
   xmlns:sodipodi="http://sodipodi.sourceforge.net/DTD/sodipodi-0.dtd"
   xmlns="http://www.w3.org/2000/svg"
   xmlns:svg="http://www.w3.org/2000/svg">
  <defs
     id="defs185" />
  <sodipodi:namedview
     id="namedview183"
     pagecolor="#ffffff"
     bordercolor="#666666"
     borderopacity="1.0"
     inkscape:showpageshadow="2"
     inkscape:pageopacity="0.0"
     inkscape:pagecheckerboard="0"
     inkscape:deskcolor="#d1d1d1"
     showgrid="false"
     inkscape:zoom="1.3552083"
     inkscape:cx="227.27133"
     inkscape:cy="184.47348"
     inkscape:window-width="1920"
     inkscape:window-height="1011"
     inkscape:window-x="0"
     inkscape:window-y="32"
     inkscape:window-maximized="1"
     inkscape:current-layer="svg181" />
  <clipPath
     id="g201030f8531_0_352.0">
    <path
       d="M 0,0 H 960 V 540 H 0 Z"
       clip-rule="nonzero"
       id="path2" />
  </clipPath>
  <g
     clip-path="url(#g201030f8531_0_352.0)"
     id="g179"
     transform="translate(-234.45276,-85.71)">
    <path
       fill="#c27ba0"
       d="m 278.29135,383.4462 h 91.1181 v 33.5433 h -91.1181 z"
       fill-rule="evenodd"
       id="path7" />
    <path
       stroke="#595959"
       stroke-width="1"
       stroke-linejoin="round"
       stroke-linecap="butt"
       d="m 278.29135,383.4462 h 91.1181 v 33.5433 h -91.1181 z"
       fill-rule="evenodd"
       id="path9" />
    <path
       fill="#f3f3f3"
       d="m 294.25256,406.31223 q -1.95312,0 -3,-1.45313 -1.03125,-1.45312 -1.03125,-4.5 0,-1.54687 0.29688,-2.60937 0.29687,-1.07813 0.82812,-1.75 0.53125,-0.67188 1.25,-0.96875 0.71875,-0.29688 1.5625,-0.29688 0.70313,0 1.3125,0.1875 0.60938,0.1875 1,0.45313 l -0.4375,1.20312 q -0.39062,-0.26562 -0.82812,-0.42187 -0.4375,-0.15625 -1.01563,-0.15625 -1.28125,0 -1.85937,1.0625 -0.5625,1.0625 -0.5625,3.29687 0,2.26563 0.59375,3.48438 0.60937,1.20312 2,1.20312 0.64062,0 1.04687,-0.15625 0.42188,-0.15625 0.79688,-0.40625 l 0.40625,1.125 q -0.375,0.29688 -0.96875,0.5 -0.59375,0.20313 -1.39063,0.20313 z m 9.09439,-4.42188 q 0,0.98438 -0.1875,1.79688 -0.17187,0.8125 -0.53125,1.39062 -0.35937,0.5625 -0.90625,0.89063 -0.54687,0.3125 -1.29687,0.3125 -0.76563,0 -1.32813,-0.3125 -0.54687,-0.32813 -0.90625,-0.89063 -0.35937,-0.57812 -0.54687,-1.39062 -0.17188,-0.8125 -0.17188,-1.79688 0,-0.98437 0.17188,-1.79687 0.1875,-0.8125 0.54687,-1.39063 0.35938,-0.59375 0.90625,-0.90625 0.5625,-0.32812 1.32813,-0.32812 0.75,0 1.29687,0.32812 0.54688,0.3125 0.90625,0.90625 0.35938,0.57813 0.53125,1.39063 0.1875,0.8125 0.1875,1.79687 z m -1.4375,0 q 0,-0.70312 -0.0781,-1.28125 -0.0781,-0.59375 -0.26563,-1.01562 -0.17187,-0.42188 -0.46875,-0.65625 -0.28125,-0.23438 -0.67187,-0.23438 -0.42188,0 -0.70313,0.23438 -0.28125,0.23437 -0.46875,0.65625 -0.17187,0.42187 -0.26562,1.01562 -0.0781,0.57813 -0.0781,1.28125 0,0.70313 0.0781,1.29688 0.0937,0.57812 0.26562,1 0.1875,0.40625 0.46875,0.64062 0.28125,0.21875 0.70313,0.21875 0.39062,0 0.67187,-0.21875 0.29688,-0.23437 0.46875,-0.64062 0.1875,-0.42188 0.26563,-1 0.0781,-0.59375 0.0781,-1.29688 z m 3.4549,-3.96875 q 0.59375,-0.1875 1.28125,-0.29687 0.6875,-0.125 1.26562,-0.125 0.625,0 1.125,0.17187 0.51563,0.17188 0.875,0.57813 0.35938,0.39062 0.5625,1.07812 0.20313,0.67188 0.20313,1.67188 v 5.07812 h -1.375 v -4.95312 q 0,-1.25 -0.32813,-1.82813 -0.3125,-0.57812 -1.20312,-0.57812 -0.45313,0 -1.03125,0.15625 v 7.20312 h -1.375 z m 8.88388,7.1875 q 0.60937,0 0.90625,-0.34375 0.3125,-0.34375 0.3125,-0.90625 0,-0.35937 -0.125,-0.60937 -0.125,-0.25 -0.34375,-0.4375 -0.20313,-0.1875 -0.46875,-0.34375 -0.26563,-0.15625 -0.54688,-0.32813 -0.26562,-0.15625 -0.53125,-0.375 -0.25,-0.21875 -0.45312,-0.5 -0.20313,-0.28125 -0.32813,-0.64062 -0.10937,-0.35938 -0.10937,-0.82813 0,-1.04687 0.64062,-1.6875 0.65625,-0.64062 1.76563,-0.64062 0.45312,0 0.875,0.125 0.42187,0.10937 0.6875,0.26562 l -0.29688,1.09375 q -0.29687,-0.15625 -0.59375,-0.23437 -0.28125,-0.0781 -0.60937,-0.0781 -0.51563,0 -0.82813,0.29688 -0.29687,0.29687 -0.29687,0.85937 0,0.3125 0.10937,0.54688 0.10938,0.23437 0.29688,0.42187 0.1875,0.17188 0.42187,0.34375 0.23438,0.15625 0.48438,0.29688 0.3125,0.17187 0.59375,0.39062 0.29687,0.20313 0.53125,0.48438 0.23437,0.28125 0.375,0.65625 0.15625,0.375 0.15625,0.90625 0,1.09375 -0.65625,1.76562 -0.64063,0.67188 -1.89063,0.67188 -0.64062,0 -1.15625,-0.17188 -0.51562,-0.17187 -0.76562,-0.3125 l 0.28125,-1.14062 q 0.25,0.125 0.65625,0.29687 0.40625,0.15625 0.90625,0.15625 z m 9.48727,0.73438 q -0.21875,0.0781 -0.51562,0.15625 -0.29688,0.0625 -0.625,0.10937 -0.32813,0.0625 -0.65625,0.0937 -0.3125,0.0469 -0.59375,0.0469 -0.65625,0 -1.20313,-0.15625 -0.54687,-0.14063 -0.9375,-0.51563 -0.375,-0.39062 -0.57812,-1.04687 -0.20313,-0.67188 -0.20313,-1.6875 v -5.17188 h 1.375 v 5.125 q 0,1.23438 0.375,1.73438 0.375,0.5 1.14063,0.5 0.25,0 0.5,-0.0156 0.26562,-0.0312 0.54687,-0.10937 v -7.23438 h 1.375 z m 2.4769,-7.92188 q 0.5625,-0.1875 1.21875,-0.29687 0.65625,-0.125 1.1875,-0.125 0.5625,0 1.01562,0.15625 0.46875,0.14062 0.8125,0.46875 0.42188,-0.26563 0.89063,-0.4375 0.48437,-0.1875 1.0625,-0.1875 0.57812,0 1.04687,0.17187 0.46875,0.17188 0.79688,0.57813 0.34375,0.39062 0.53125,1.07812 0.20312,0.67188 0.20312,1.67188 v 5.07812 h -1.375 v -4.95312 q 0,-1.25 -0.29687,-1.82813 -0.28125,-0.57812 -1.07813,-0.57812 -0.3125,0 -0.625,0.10937 -0.29687,0.10938 -0.57812,0.3125 0.125,0.35938 0.1875,0.82813 0.0625,0.46875 0.0625,1.03125 v 5.07812 h -1.375 v -4.95312 q 0,-1.25 -0.28125,-1.82813 -0.28125,-0.57812 -1.09375,-0.57812 -0.40625,0 -0.9375,0.15625 v 7.20312 h -1.375 z m 12.10553,4.35938 q 0.0156,0.60937 0.10937,1.125 0.10938,0.5 0.3125,0.875 0.21875,0.375 0.57813,0.57812 0.35937,0.20313 0.92187,0.20313 0.46875,0 0.85938,-0.125 0.39062,-0.14063 0.5625,-0.23438 l 0.26562,1.10938 q -0.21875,0.14062 -0.70312,0.29687 -0.48438,0.17188 -1.15625,0.17188 -0.875,0 -1.48438,-0.3125 -0.59375,-0.32813 -0.96875,-0.89063 -0.375,-0.57812 -0.54687,-1.375 -0.15625,-0.8125 -0.15625,-1.76562 0,-2.32813 0.76562,-3.39063 0.76563,-1.07812 2.03125,-1.07812 1.4375,0 2.01563,1.07812 0.59375,1.0625 0.59375,3 0,0.17188 0,0.35938 0,0.1875 -0.0156,0.375 z m 1.39062,-3.64063 q -0.6875,0 -1,0.6875 -0.3125,0.6875 -0.375,1.84375 h 2.54688 q 0,-1.17187 -0.25,-1.84375 -0.23438,-0.6875 -0.92188,-0.6875 z m 8.27289,0.28125 q -0.5,-0.21875 -1.14062,-0.21875 -0.59375,0 -1.10938,0.20313 v 7.17187 h -1.375 v -8.03125 q 0.46875,-0.21875 1.0625,-0.375 0.59375,-0.15625 1.3125,-0.15625 0.39063,0 0.76563,0.0469 0.39062,0.0469 0.73437,0.17187 z m 4.61801,-1.71875 q 0.29688,-0.1875 0.625,-0.4375 0.32813,-0.25 0.625,-0.54687 0.3125,-0.29688 0.57813,-0.60938 0.26562,-0.3125 0.4375,-0.625 h 1.0625 v 11.09375 h -1.375 v -8.90625 q -0.28125,0.28125 -0.64063,0.54688 -0.35937,0.25 -0.75,0.46875 z"
       fill-rule="nonzero"
       id="path11" />
    <path
       fill="#000000"
       fill-opacity="0"
       d="m 234.95276,207.85695 h 513.6378 v 76.9449 h -513.6378 z"
       fill-rule="evenodd"
       id="path13" />
    <path
       stroke="#efefef"
       stroke-width="1"
       stroke-linejoin="round"
       stroke-linecap="butt"
       d="m 234.95276,207.85695 h 513.6378 v 76.9449 h -513.6378 z"
       fill-rule="evenodd"
       id="path15" />
    <path
       fill="#f3f3f3"
       d="m 250.54651,241.09564 v 1.23437 h -2.46875 v 9.85938 h -1.4375 v -9.85938 h -2.46875 v -1.23437 z m 5.98288,6.90625 q 0,0.98437 -0.1875,1.79687 -0.17188,0.8125 -0.53125,1.39063 -0.35938,0.5625 -0.90625,0.89062 -0.54688,0.3125 -1.29688,0.3125 -0.76562,0 -1.32812,-0.3125 -0.54688,-0.32812 -0.90625,-0.89062 -0.35938,-0.57813 -0.54688,-1.39063 -0.17187,-0.8125 -0.17187,-1.79687 0,-0.98438 0.17187,-1.79688 0.1875,-0.8125 0.54688,-1.39062 0.35937,-0.59375 0.90625,-0.90625 0.5625,-0.32813 1.32812,-0.32813 0.75,0 1.29688,0.32813 0.54687,0.3125 0.90625,0.90625 0.35937,0.57812 0.53125,1.39062 0.1875,0.8125 0.1875,1.79688 z m -1.4375,0 q 0,-0.70313 -0.0781,-1.28125 -0.0781,-0.59375 -0.26562,-1.01563 -0.17188,-0.42187 -0.46875,-0.65625 -0.28125,-0.23437 -0.67188,-0.23437 -0.42187,0 -0.70312,0.23437 -0.28125,0.23438 -0.46875,0.65625 -0.17188,0.42188 -0.26563,1.01563 -0.0781,0.57812 -0.0781,1.28125 0,0.70312 0.0781,1.29687 0.0937,0.57813 0.26563,1 0.1875,0.40625 0.46875,0.64063 0.28125,0.21875 0.70312,0.21875 0.39063,0 0.67188,-0.21875 0.29687,-0.23438 0.46875,-0.64063 0.1875,-0.42187 0.26562,-1 0.0781,-0.59375 0.0781,-1.29687 z m 4.81427,2.92187 q 0.46875,0.25 0.98437,0.25 0.40625,0 0.70313,-0.15625 0.3125,-0.15625 0.53125,-0.51562 0.21875,-0.375 0.32812,-0.98438 0.10938,-0.60937 0.10938,-1.5 0,-1.73437 -0.4375,-2.46875 -0.4375,-0.75 -1.40625,-0.75 -0.17188,0 -0.39063,0.0312 -0.20312,0.0156 -0.42187,0.0781 z m 0,4.21875 h -1.375 v -11.125 q 0.45312,-0.20312 1.01562,-0.3125 0.5625,-0.125 1.15625,-0.125 0.875,0 1.5,0.3125 0.64063,0.29688 1.03125,0.875 0.40625,0.5625 0.57813,1.39063 0.1875,0.8125 0.1875,1.875 0,2.125 -0.6875,3.25 -0.67188,1.10937 -2.20313,1.10937 -0.375,0 -0.67187,-0.0781 -0.28125,-0.0625 -0.53125,-0.1875 z m 7.48764,-2.95312 h -1.375 v -8.40625 h 1.375 z m -0.6875,-9.89063 q -0.375,0 -0.64063,-0.25 -0.25,-0.25 -0.25,-0.65625 0,-0.42187 0.25,-0.67187 0.26563,-0.25 0.64063,-0.25 0.35937,0 0.625,0.25 0.26562,0.25 0.26562,0.67187 0,0.40625 -0.26562,0.65625 -0.26563,0.25 -0.625,0.25 z m 5.74701,10.09375 q -0.875,0 -1.45313,-0.32812 -0.5625,-0.34375 -0.92187,-0.92188 -0.35938,-0.57812 -0.51563,-1.375 -0.15625,-0.8125 -0.15625,-1.75 0,-2.07812 0.75,-3.25 0.76563,-1.1875 2.3125,-1.1875 0.45313,0 0.82813,0.10938 0.375,0.10937 0.6875,0.29687 l -0.35938,1.125 q -0.48437,-0.3125 -1.09375,-0.3125 -0.85937,0 -1.28125,0.78125 -0.40625,0.78125 -0.40625,2.4375 0,0.6875 0.0781,1.28125 0.0937,0.57813 0.28125,1 0.20312,0.40625 0.53125,0.64063 0.32812,0.23437 0.84375,0.23437 0.34375,0 0.625,-0.0781 0.28125,-0.0937 0.54687,-0.23438 l 0.29688,1.07813 q -0.25,0.17187 -0.6875,0.3125 -0.42188,0.14062 -0.90625,0.14062 z m 9.73675,-11.29687 q 0.39063,1.20312 0.76563,2.4375 0.375,1.21875 0.73437,2.5625 0.35938,1.34375 0.71875,2.84375 0.35938,1.5 0.73438,3.25 h -1.45313 q -0.125,-0.71875 -0.26562,-1.42188 -0.125,-0.70312 -0.26563,-1.40625 h -3.5 q -0.15625,0.70313 -0.28125,1.40625 -0.125,0.70313 -0.25,1.42188 h -1.40625 q 0.35938,-1.75 0.71875,-3.25 0.375,-1.5 0.73438,-2.84375 0.35937,-1.34375 0.73437,-2.5625 0.375,-1.23438 0.76563,-2.4375 z m -0.78125,1.64062 q -0.40625,1.32813 -0.78125,2.67188 -0.35937,1.34375 -0.6875,2.75 h 2.92188 q -0.3125,-1.40625 -0.6875,-2.75 -0.35938,-1.34375 -0.76563,-2.67188 z m 8.51178,-1.46875 q 1.125,-0.28125 2.1875,-0.28125 0.84375,0 1.51563,0.20313 0.6875,0.20312 1.17187,0.625 0.48438,0.42187 0.75,1.09375 0.26563,0.67187 0.26563,1.625 0,0.95312 -0.28125,1.64062 -0.26563,0.67188 -0.76563,1.09375 -0.48437,0.42188 -1.1875,0.625 -0.70312,0.1875 -1.54687,0.1875 h -0.67188 v 4.10938 h -1.4375 z m 1.4375,5.54688 h 0.57813 q 0.54687,0 0.98437,-0.10938 0.4375,-0.125 0.73438,-0.39062 0.3125,-0.28125 0.46875,-0.71875 0.17187,-0.4375 0.17187,-1.0625 0,-0.64063 -0.17187,-1.07813 -0.15625,-0.45312 -0.4375,-0.71875 -0.28125,-0.26562 -0.6875,-0.375 -0.39063,-0.10937 -0.875,-0.10937 -0.40625,0 -0.76563,0.0469 z m 6.03376,-2.84375 q 0.42187,-0.1875 0.875,-0.28125 0.46875,-0.10938 1.01562,-0.10938 1.125,0 1.82813,0.70313 0.70312,0.6875 0.70312,2.15625 v 5.57812 q -0.57812,0.15625 -1.1875,0.25 -0.59375,0.0937 -1.17187,0.0937 -0.57813,0 -1.07813,-0.14062 -0.5,-0.14063 -0.875,-0.45313 -0.375,-0.32812 -0.60937,-0.8125 -0.21875,-0.5 -0.21875,-1.20312 0,-0.65625 0.20312,-1.14063 0.20313,-0.48437 0.54688,-0.8125 0.35937,-0.32812 0.82812,-0.5 0.48438,-0.17187 1.04688,-0.17187 0.53125,0 1.17187,0.14062 v -0.78125 q 0,-0.92187 -0.35937,-1.28125 -0.35938,-0.375 -1.03125,-0.375 -0.375,0 -0.70313,0.0781 -0.32812,0.0625 -0.70312,0.21875 z m 0.65625,5.76562 q 0,0.73438 0.375,1.09375 0.39062,0.34375 1.09375,0.34375 0.4375,0 0.95312,-0.10937 v -2.67188 q -0.48437,-0.125 -0.95312,-0.125 -0.29688,0 -0.57813,0.0781 -0.26562,0.0625 -0.46875,0.23437 -0.20312,0.17188 -0.3125,0.45313 -0.10937,0.28125 -0.10937,0.70312 z m 9.78778,-4.70312 q -0.5,-0.21875 -1.14063,-0.21875 -0.59375,0 -1.10937,0.20312 v 7.17188 h -1.375 v -8.03125 q 0.46875,-0.21875 1.0625,-0.375 0.59375,-0.15625 1.3125,-0.15625 0.39062,0 0.76562,0.0469 0.39063,0.0469 0.73438,0.17188 z m 2.90426,-1.25 h 2.10938 v 1.1875 h -2.10938 v 4.625 q 0,0.85937 0.3125,1.20312 0.3125,0.34375 0.84375,0.34375 0.26563,0 0.51563,-0.0781 0.25,-0.0781 0.42187,-0.1875 l 0.26563,1.10937 q -0.65625,0.375 -1.39063,0.375 -1.1875,0 -1.76562,-0.65625 -0.57813,-0.67187 -0.57813,-2.20312 v -7.96875 l 1.375,-0.23438 z m 5.22977,8.40625 h -1.375 v -8.40625 h 1.375 z m -0.6875,-9.89063 q -0.375,0 -0.64062,-0.25 -0.25,-0.25 -0.25,-0.65625 0,-0.42187 0.25,-0.67187 0.26562,-0.25 0.64062,-0.25 0.35938,0 0.625,0.25 0.26563,0.25 0.26563,0.67187 0,0.40625 -0.26563,0.65625 -0.26562,0.25 -0.625,0.25 z m 4.46576,1.48438 h 2.10938 v 1.1875 h -2.10938 v 4.625 q 0,0.85937 0.3125,1.20312 0.3125,0.34375 0.84375,0.34375 0.26563,0 0.51563,-0.0781 0.25,-0.0781 0.42187,-0.1875 l 0.26563,1.10937 q -0.65625,0.375 -1.39063,0.375 -1.1875,0 -1.76562,-0.65625 -0.57813,-0.67187 -0.57813,-2.20312 v -7.96875 l 1.375,-0.23438 z m 5.22977,8.40625 h -1.375 v -8.40625 h 1.375 z m -0.6875,-9.89063 q -0.375,0 -0.64063,-0.25 -0.25,-0.25 -0.25,-0.65625 0,-0.42187 0.25,-0.67187 0.26563,-0.25 0.64063,-0.25 0.35937,0 0.625,0.25 0.26562,0.25 0.26562,0.67187 0,0.40625 -0.26562,0.65625 -0.26563,0.25 -0.625,0.25 z m 8.57513,5.70313 q 0,0.98437 -0.1875,1.79687 -0.17187,0.8125 -0.53125,1.39063 -0.35937,0.5625 -0.90625,0.89062 -0.54687,0.3125 -1.29687,0.3125 -0.76563,0 -1.32813,-0.3125 -0.54687,-0.32812 -0.90625,-0.89062 -0.35937,-0.57813 -0.54687,-1.39063 -0.17188,-0.8125 -0.17188,-1.79687 0,-0.98438 0.17188,-1.79688 0.1875,-0.8125 0.54687,-1.39062 0.35938,-0.59375 0.90625,-0.90625 0.5625,-0.32813 1.32813,-0.32813 0.75,0 1.29687,0.32813 0.54688,0.3125 0.90625,0.90625 0.35938,0.57812 0.53125,1.39062 0.1875,0.8125 0.1875,1.79688 z m -1.4375,0 q 0,-0.70313 -0.0781,-1.28125 -0.0781,-0.59375 -0.26563,-1.01563 -0.17187,-0.42187 -0.46875,-0.65625 -0.28125,-0.23437 -0.67187,-0.23437 -0.42188,0 -0.70313,0.23437 -0.28125,0.23438 -0.46875,0.65625 -0.17187,0.42188 -0.26562,1.01563 -0.0781,0.57812 -0.0781,1.28125 0,0.70312 0.0781,1.29687 0.0937,0.57813 0.26562,1 0.1875,0.40625 0.46875,0.64063 0.28125,0.21875 0.70313,0.21875 0.39062,0 0.67187,-0.21875 0.29688,-0.23438 0.46875,-0.64063 0.1875,-0.42187 0.26563,-1 0.0781,-0.59375 0.0781,-1.29687 z m 3.4549,-3.96875 q 0.59375,-0.1875 1.28125,-0.29688 0.6875,-0.125 1.26562,-0.125 0.625,0 1.125,0.17188 0.51563,0.17187 0.875,0.57812 0.35938,0.39063 0.5625,1.07813 0.20313,0.67187 0.20313,1.67187 v 5.07813 h -1.375 v -4.95313 q 0,-1.25 -0.32813,-1.82812 -0.3125,-0.57813 -1.20312,-0.57813 -0.45313,0 -1.03125,0.15625 v 7.20313 h -1.375 z M 345.59,243.31439 q 0.29687,-0.1875 0.625,-0.4375 0.32812,-0.25 0.625,-0.54688 0.3125,-0.29687 0.57812,-0.60937 0.26563,-0.3125 0.4375,-0.625 h 1.0625 v 11.09375 h -1.375 v -8.90625 q -0.28125,0.28125 -0.64062,0.54687 -0.35938,0.25 -0.75,0.46875 z"
       fill-rule="nonzero"
       id="path17" />
    <path
       fill="#b6d7a8"
       d="m 426.6142,86.21 h 138.77167 v 76.94488 H 426.6142 Z"
       fill-rule="evenodd"
       id="path19" />
    <path
       stroke="#595959"
       stroke-width="1"
       stroke-linejoin="round"
       stroke-linecap="butt"
       d="m 426.6142,86.21 h 138.77167 v 76.94488 H 426.6142 Z"
       fill-rule="evenodd"
       id="path21" />
    <path
       fill="#000000"
       d="m 470.7437,119.62056 q 1.125,-0.28125 2.1875,-0.28125 0.84375,0 1.51562,0.20312 0.6875,0.20313 1.17188,0.625 0.48437,0.42188 0.75,1.09375 0.26562,0.67188 0.26562,1.625 0,0.95313 -0.28125,1.64063 -0.26562,0.67187 -0.76562,1.09375 -0.48438,0.42187 -1.1875,0.625 -0.70313,0.1875 -1.54688,0.1875 h -0.67187 v 4.10937 h -1.4375 z m 1.4375,5.54687 h 0.57812 q 0.54688,0 0.98438,-0.10937 0.4375,-0.125 0.73437,-0.39063 0.3125,-0.28125 0.46875,-0.71875 0.17188,-0.4375 0.17188,-1.0625 0,-0.64062 -0.17188,-1.07812 -0.15625,-0.45313 -0.4375,-0.71875 -0.28125,-0.26563 -0.6875,-0.375 -0.39062,-0.10938 -0.875,-0.10938 -0.40625,0 -0.76562,0.0469 z m 9.85376,-1.78125 q -0.5,-0.21875 -1.14063,-0.21875 -0.59375,0 -1.10937,0.20313 v 7.17187 h -1.375 v -8.03124 q 0.46875,-0.21875 1.0625,-0.375 0.59375,-0.15625 1.3125,-0.15625 0.39062,0 0.76562,0.0469 0.39063,0.0469 0.73438,0.17188 z m 6.85364,2.96875 q 0,0.98438 -0.1875,1.79688 -0.17188,0.8125 -0.53125,1.39062 -0.35938,0.5625 -0.90625,0.89063 -0.54688,0.3125 -1.29688,0.3125 -0.76562,0 -1.32812,-0.3125 -0.54688,-0.32813 -0.90625,-0.89063 -0.35938,-0.57812 -0.54688,-1.39062 -0.17187,-0.8125 -0.17187,-1.79687 0,-0.98438 0.17187,-1.79688 0.1875,-0.8125 0.54688,-1.39062 0.35937,-0.59375 0.90625,-0.90625 0.5625,-0.32813 1.32812,-0.32813 0.75,0 1.29688,0.32813 0.54687,0.3125 0.90625,0.90625 0.35937,0.57812 0.53125,1.39062 0.1875,0.8125 0.1875,1.79687 z m -1.4375,0 q 0,-0.70312 -0.0781,-1.28125 -0.0781,-0.59375 -0.26562,-1.01562 -0.17188,-0.42188 -0.46875,-0.65625 -0.28125,-0.23438 -0.67188,-0.23438 -0.42187,0 -0.70312,0.23438 -0.28125,0.23437 -0.46875,0.65625 -0.17188,0.42187 -0.26563,1.01562 -0.0781,0.57813 -0.0781,1.28125 0,0.70313 0.0781,1.29688 0.0937,0.57812 0.26563,1 0.1875,0.40625 0.46875,0.64062 0.28125,0.21875 0.70312,0.21875 0.39063,0 0.67188,-0.21875 0.29687,-0.23437 0.46875,-0.64062 0.1875,-0.42188 0.26562,-1 0.0781,-0.59375 0.0781,-1.29688 z m 7.06427,-2.95312 q -0.45313,-0.25 -0.98438,-0.25 -0.40625,0 -0.71875,0.15625 -0.29687,0.15625 -0.51562,0.53125 -0.20313,0.35937 -0.32813,0.96875 -0.10937,0.60937 -0.10937,1.51562 0,1.71875 0.45312,2.46875 0.46875,0.73438 1.39063,0.73438 0.17187,0 0.375,-0.0156 0.21875,-0.0312 0.4375,-0.0937 z m 0,-5.03125 1.375,-0.25 v 12.20312 q -0.4375,0.1875 -1.01563,0.29688 -0.57812,0.125 -1.17187,0.125 -1.73438,0 -2.51563,-1.09375 -0.76562,-1.10938 -0.76562,-3.32812 0,-1.01563 0.17187,-1.8125 0.17188,-0.8125 0.53125,-1.375 0.35938,-0.57813 0.90625,-0.89063 0.5625,-0.3125 1.34375,-0.3125 0.35938,0 0.625,0.0781 0.26563,0.0625 0.51563,0.1875 z m 9.06576,11.9375 q -0.21875,0.0781 -0.51562,0.15625 -0.29688,0.0625 -0.625,0.10937 -0.32813,0.0625 -0.65625,0.0937 -0.3125,0.0469 -0.59375,0.0469 -0.65625,0 -1.20313,-0.15625 -0.54687,-0.14063 -0.9375,-0.51563 -0.375,-0.39062 -0.57812,-1.04687 -0.20313,-0.67188 -0.20313,-1.6875 v -5.17187 h 1.375 v 5.125 q 0,1.23437 0.375,1.73437 0.375,0.5 1.14063,0.5 0.25,0 0.5,-0.0156 0.26562,-0.0312 0.54687,-0.10937 v -7.23437 h 1.375 z m 5.0394,0.4375 q -0.875,0 -1.45312,-0.32813 -0.5625,-0.34375 -0.92188,-0.92187 -0.35937,-0.57813 -0.51562,-1.375 -0.15625,-0.8125 -0.15625,-1.75 0,-2.07812 0.75,-3.25 0.76562,-1.1875 2.3125,-1.1875 0.45312,0 0.82812,0.10938 0.375,0.10937 0.6875,0.29687 l -0.35937,1.125 q -0.48438,-0.3125 -1.09375,-0.3125 -0.85938,0 -1.28125,0.78125 -0.40625,0.78125 -0.40625,2.4375 0,0.6875 0.0781,1.28125 0.0937,0.57812 0.28125,1 0.20313,0.40625 0.53125,0.64062 0.32813,0.23438 0.84375,0.23438 0.34375,0 0.625,-0.0781 0.28125,-0.0937 0.54688,-0.23437 l 0.29687,1.07812 q -0.25,0.17188 -0.6875,0.3125 -0.42187,0.14063 -0.90625,0.14063 z m 3.94299,-4 q 0.0156,0.60938 0.10938,1.125 0.10937,0.5 0.3125,0.875 0.21875,0.375 0.57812,0.57812 0.35938,0.20313 0.92188,0.20313 0.46875,0 0.85937,-0.125 0.39063,-0.14063 0.5625,-0.23438 l 0.26563,1.10938 q -0.21875,0.14062 -0.70313,0.29687 -0.48437,0.17188 -1.15625,0.17188 -0.875,0 -1.48437,-0.3125 -0.59375,-0.32813 -0.96875,-0.89063 -0.375,-0.57812 -0.54688,-1.375 -0.15625,-0.81249 -0.15625,-1.76562 0,-2.32812 0.76563,-3.39062 0.76562,-1.07813 2.03125,-1.07813 1.4375,0 2.01562,1.07813 0.59375,1.0625 0.59375,3 0,0.17187 0,0.35937 0,0.1875 -0.0156,0.375 z m 1.39063,-3.64062 q -0.6875,0 -1,0.6875 -0.3125,0.6875 -0.375,1.84375 h 2.54687 q 0,-1.17188 -0.25,-1.84375 -0.23437,-0.6875 -0.92187,-0.6875 z m 8.27289,0.28125 q -0.5,-0.21875 -1.14063,-0.21875 -0.59375,0 -1.10937,0.20312 v 7.17187 h -1.375 v -8.03124 q 0.46875,-0.21875 1.0625,-0.375 0.59375,-0.15625 1.3125,-0.15625 0.39062,0 0.76562,0.0469 0.39063,0.0469 0.73438,0.17188 z"
       fill-rule="nonzero"
       id="path23" />
    <path
       fill="#000000"
       fill-opacity="0"
       d="m 496,163.15488 c 0,15.2859 53.20471,22.93008 106.40949,30.57182 53.20471,7.64173 106.40942,15.28102 106.40942,30.56204"
       fill-rule="evenodd"
       id="path25" />
    <path
       stroke="#efefef"
       stroke-width="2"
       stroke-linejoin="round"
       stroke-linecap="butt"
       stroke-dasharray="8, 6"
       d="m 496,163.15488 c 0,15.2859 53.20471,22.9301 106.40942,30.57182 26.60242,3.82088 53.20478,7.64113 73.1565,12.41629 9.97589,2.38759 18.28912,5.0139 24.10846,7.99837 0.36371,0.18652 0.71759,0.37445 1.0617,0.56381 l 0.50196,0.28142"
       fill-rule="evenodd"
       id="path27" />
    <path
       fill="#efefef"
       stroke="#efefef"
       stroke-width="2"
       stroke-linecap="butt"
       d="m 698.6772,217.07353 8.29462,4.94873 -3.17304,-9.1226 z"
       fill-rule="evenodd"
       id="path29" />
    <path
       fill="#c27ba0"
       d="m 614.13385,383.4462 h 91.1181 v 33.5433 h -91.1181 z"
       fill-rule="evenodd"
       id="path31" />
    <path
       stroke="#595959"
       stroke-width="1"
       stroke-linejoin="round"
       stroke-linecap="butt"
       d="m 614.13385,383.4462 h 91.1181 v 33.5433 h -91.1181 z"
       fill-rule="evenodd"
       id="path33" />
    <path
       fill="#f3f3f3"
       d="m 630.0951,406.31223 q -1.95313,0 -3,-1.45313 -1.03125,-1.45312 -1.03125,-4.5 0,-1.54687 0.29687,-2.60937 0.29688,-1.07813 0.82813,-1.75 0.53125,-0.67188 1.25,-0.96875 0.71875,-0.29688 1.5625,-0.29688 0.70312,0 1.3125,0.1875 0.60937,0.1875 1,0.45313 l -0.4375,1.20312 q -0.39063,-0.26562 -0.82813,-0.42187 -0.4375,-0.15625 -1.01562,-0.15625 -1.28125,0 -1.85938,1.0625 -0.5625,1.0625 -0.5625,3.29687 0,2.26563 0.59375,3.48438 0.60938,1.20312 2,1.20312 0.64063,0 1.04688,-0.15625 0.42187,-0.15625 0.79687,-0.40625 l 0.40625,1.125 q -0.375,0.29688 -0.96875,0.5 -0.59375,0.20313 -1.39062,0.20313 z m 9.09436,-4.42188 q 0,0.98438 -0.1875,1.79688 -0.17187,0.8125 -0.53125,1.39062 -0.35937,0.5625 -0.90625,0.89063 -0.54687,0.3125 -1.29687,0.3125 -0.76563,0 -1.32813,-0.3125 -0.54687,-0.32813 -0.90625,-0.89063 -0.35937,-0.57812 -0.54687,-1.39062 -0.17188,-0.8125 -0.17188,-1.79688 0,-0.98437 0.17188,-1.79687 0.1875,-0.8125 0.54687,-1.39063 0.35938,-0.59375 0.90625,-0.90625 0.5625,-0.32812 1.32813,-0.32812 0.75,0 1.29687,0.32812 0.54688,0.3125 0.90625,0.90625 0.35938,0.57813 0.53125,1.39063 0.1875,0.8125 0.1875,1.79687 z m -1.4375,0 q 0,-0.70312 -0.0781,-1.28125 -0.0781,-0.59375 -0.26563,-1.01562 -0.17187,-0.42188 -0.46875,-0.65625 -0.28125,-0.23438 -0.67187,-0.23438 -0.42188,0 -0.70313,0.23438 -0.28125,0.23437 -0.46875,0.65625 -0.17187,0.42187 -0.26562,1.01562 -0.0781,0.57813 -0.0781,1.28125 0,0.70313 0.0781,1.29688 0.0937,0.57812 0.26562,1 0.1875,0.40625 0.46875,0.64062 0.28125,0.21875 0.70313,0.21875 0.39062,0 0.67187,-0.21875 0.29688,-0.23437 0.46875,-0.64062 0.1875,-0.42188 0.26563,-1 0.0781,-0.59375 0.0781,-1.29688 z m 3.4549,-3.96875 q 0.59375,-0.1875 1.28125,-0.29687 0.6875,-0.125 1.26562,-0.125 0.625,0 1.125,0.17187 0.51563,0.17188 0.875,0.57813 0.35938,0.39062 0.5625,1.07812 0.20313,0.67188 0.20313,1.67188 v 5.07812 h -1.375 v -4.95312 q 0,-1.25 -0.32813,-1.82813 -0.3125,-0.57812 -1.20312,-0.57812 -0.45313,0 -1.03125,0.15625 v 7.20312 h -1.375 z m 8.88391,7.1875 q 0.60937,0 0.90625,-0.34375 0.3125,-0.34375 0.3125,-0.90625 0,-0.35937 -0.125,-0.60937 -0.125,-0.25 -0.34375,-0.4375 -0.20313,-0.1875 -0.46875,-0.34375 -0.26563,-0.15625 -0.54688,-0.32813 -0.26562,-0.15625 -0.53125,-0.375 -0.25,-0.21875 -0.45312,-0.5 -0.20313,-0.28125 -0.32813,-0.64062 -0.10937,-0.35938 -0.10937,-0.82813 0,-1.04687 0.64062,-1.6875 0.65625,-0.64062 1.76563,-0.64062 0.45312,0 0.875,0.125 0.42187,0.10937 0.6875,0.26562 l -0.29688,1.09375 q -0.29687,-0.15625 -0.59375,-0.23437 -0.28125,-0.0781 -0.60937,-0.0781 -0.51563,0 -0.82813,0.29688 -0.29687,0.29687 -0.29687,0.85937 0,0.3125 0.10937,0.54688 0.10938,0.23437 0.29688,0.42187 0.1875,0.17188 0.42187,0.34375 0.23438,0.15625 0.48438,0.29688 0.3125,0.17187 0.59375,0.39062 0.29687,0.20313 0.53125,0.48438 0.23437,0.28125 0.375,0.65625 0.15625,0.375 0.15625,0.90625 0,1.09375 -0.65625,1.76562 -0.64063,0.67188 -1.89063,0.67188 -0.64062,0 -1.15625,-0.17188 -0.51562,-0.17187 -0.76562,-0.3125 l 0.28125,-1.14062 q 0.25,0.125 0.65625,0.29687 0.40625,0.15625 0.90625,0.15625 z m 9.48724,0.73438 q -0.21875,0.0781 -0.51562,0.15625 -0.29688,0.0625 -0.625,0.10937 -0.32813,0.0625 -0.65625,0.0937 -0.3125,0.0469 -0.59375,0.0469 -0.65625,0 -1.20313,-0.15625 -0.54687,-0.14063 -0.9375,-0.51563 -0.375,-0.39062 -0.57812,-1.04687 -0.20313,-0.67188 -0.20313,-1.6875 v -5.17188 h 1.375 v 5.125 q 0,1.23438 0.375,1.73438 0.375,0.5 1.14063,0.5 0.25,0 0.5,-0.0156 0.26562,-0.0312 0.54687,-0.10937 v -7.23438 h 1.375 z m 2.47693,-7.92188 q 0.5625,-0.1875 1.21875,-0.29687 0.65625,-0.125 1.1875,-0.125 0.5625,0 1.01562,0.15625 0.46875,0.14062 0.8125,0.46875 0.42188,-0.26563 0.89063,-0.4375 0.48437,-0.1875 1.0625,-0.1875 0.57812,0 1.04687,0.17187 0.46875,0.17188 0.79688,0.57813 0.34375,0.39062 0.53125,1.07812 0.20312,0.67188 0.20312,1.67188 v 5.07812 h -1.375 v -4.95312 q 0,-1.25 -0.29687,-1.82813 -0.28125,-0.57812 -1.07813,-0.57812 -0.3125,0 -0.625,0.10937 -0.29687,0.10938 -0.57812,0.3125 0.125,0.35938 0.1875,0.82813 0.0625,0.46875 0.0625,1.03125 v 5.07812 h -1.375 v -4.95312 q 0,-1.25 -0.28125,-1.82813 -0.28125,-0.57812 -1.09375,-0.57812 -0.40625,0 -0.9375,0.15625 v 7.20312 h -1.375 z m 12.10553,4.35938 q 0.0156,0.60937 0.10937,1.125 0.10938,0.5 0.3125,0.875 0.21875,0.375 0.57813,0.57812 0.35937,0.20313 0.92187,0.20313 0.46875,0 0.85938,-0.125 0.39062,-0.14063 0.5625,-0.23438 l 0.26562,1.10938 q -0.21875,0.14062 -0.70312,0.29687 -0.48438,0.17188 -1.15625,0.17188 -0.875,0 -1.48438,-0.3125 -0.59375,-0.32813 -0.96875,-0.89063 -0.375,-0.57812 -0.54687,-1.375 -0.15625,-0.8125 -0.15625,-1.76562 0,-2.32813 0.76562,-3.39063 0.76563,-1.07812 2.03125,-1.07812 1.4375,0 2.01563,1.07812 0.59375,1.0625 0.59375,3 0,0.17188 0,0.35938 0,0.1875 -0.0156,0.375 z m 1.39062,-3.64063 q -0.6875,0 -1,0.6875 -0.3125,0.6875 -0.375,1.84375 h 2.54688 q 0,-1.17187 -0.25,-1.84375 -0.23438,-0.6875 -0.92188,-0.6875 z m 8.27289,0.28125 q -0.5,-0.21875 -1.14062,-0.21875 -0.59375,0 -1.10938,0.20313 v 7.17187 h -1.375 v -8.03125 q 0.46875,-0.21875 1.0625,-0.375 0.59375,-0.15625 1.3125,-0.15625 0.39063,0 0.76563,0.0469 0.39062,0.0469 0.73437,0.17187 z m 4.19611,-3.25 q 0.9375,-0.9375 2.3125,-0.9375 1.28125,0 1.96875,0.6875 0.70312,0.67188 0.70312,2.10938 0,0.67187 -0.23437,1.28125 -0.21875,0.60937 -0.5625,1.1875 -0.32813,0.5625 -0.73438,1.125 -0.39062,0.54687 -0.76562,1.14062 -0.35938,0.57813 -0.64063,1.21875 -0.26562,0.625 -0.32812,1.34375 h 3.48437 v 1.25 h -4.96875 v -0.29687 q 0,-1.07813 0.25,-1.90625 0.25,-0.84375 0.60938,-1.51563 0.35937,-0.67187 0.79687,-1.23437 0.4375,-0.57813 0.79688,-1.125 0.35937,-0.5625 0.59375,-1.14063 0.25,-0.59375 0.25,-1.29687 0,-0.84375 -0.34375,-1.21875 -0.32813,-0.375 -1,-0.375 -0.45313,0 -0.82813,0.1875 -0.375,0.17187 -0.6875,0.46875 z"
       fill-rule="nonzero"
       id="path35" />
    <path
       fill="#000000"
       fill-opacity="0"
       d="m 484.0727,266.53543 c 0,66.83466 -57.33856,133.66928 -114.67716,133.66928"
       fill-rule="evenodd"
       id="path37" />
    <path
       stroke="#efefef"
       stroke-width="2"
       stroke-linejoin="round"
       stroke-linecap="butt"
       stroke-dasharray="8, 6"
       d="m 484.07272,266.53543 c 0,33.41733 -14.33466,66.83466 -35.83664,91.89764 -10.75098,12.5315 -23.29379,22.9744 -36.73251,30.28446 -6.71936,3.655 -13.66269,6.52682 -20.71805,8.48486 -1.76383,0.4895 -3.53467,0.92191 -5.31073,1.29514 -0.88806,0.18664 -1.77741,0.35849 -2.66788,0.51526 -0.44519,0.0784 -0.89068,0.15304 -1.33645,0.22393 l -0.11264,0.0174"
       fill-rule="evenodd"
       id="path39" />
    <path
       fill="#efefef"
       stroke="#efefef"
       stroke-width="2"
       stroke-linecap="butt"
       d="m 381.09613,395.96103 -8.78598,4.01208 9.30939,2.5741 z"
       fill-rule="evenodd"
       id="path41" />
    <path
       fill="#000000"
       fill-opacity="0"
       d="M 616.74475,295.28873 V 266.53281"
       fill-rule="evenodd"
       id="path43" />
    <path
       stroke="#d9d9d9"
       stroke-width="1"
       stroke-linejoin="round"
       stroke-linecap="butt"
       d="M 616.74475,295.28873 V 272.53281"
       fill-rule="evenodd"
       id="path45" />
    <path
       fill="#d9d9d9"
       stroke="#d9d9d9"
       stroke-width="1"
       stroke-linecap="butt"
       d="m 618.3965,272.5328 -1.65173,-4.53809 -1.65174,4.53809 z"
       fill-rule="evenodd"
       id="path47" />
    <path
       fill="#000000"
       fill-opacity="0"
       d="m 661.3745,266.52847 c 0,39.28064 -18.43091,64.41043 -36.12018,78.56125 -17.68933,14.15079 -34.63708,17.32257 -36.12024,27.56976 -1.48322,10.2472 12.49817,27.56977 24.99634,27.56977"
       fill-rule="evenodd"
       id="path49" />
    <path
       stroke="#efefef"
       stroke-width="2"
       stroke-linejoin="round"
       stroke-linecap="butt"
       stroke-dasharray="8, 6"
       d="m 661.3746,266.52847 c 0,39.28061 -18.43097,64.41043 -36.12024,78.56125 -17.68933,14.15082 -34.63708,17.3226 -36.1203,27.56976 -0.74158,5.12357 2.383,12.01606 7.25519,17.6276 1.21808,1.40289 2.54535,2.72567 3.94879,3.9208 0.70166,0.59757 1.42242,1.16321 2.15802,1.69095 l 0.35089,0.24594"
       fill-rule="evenodd"
       id="path51" />
    <path
       fill="#efefef"
       stroke="#efefef"
       stroke-width="2"
       stroke-linecap="butt"
       d="m 601.72253,399.251 9.65869,-0.0169 -7.40985,-6.19549 z"
       fill-rule="evenodd"
       id="path53" />
    <path
       fill="#000000"
       fill-opacity="0"
       d="M 394.6257,295.28873 V 266.53281"
       fill-rule="evenodd"
       id="path55" />
    <path
       stroke="#d9d9d9"
       stroke-width="1"
       stroke-linejoin="round"
       stroke-linecap="butt"
       d="M 394.6257,295.28873 V 272.53281"
       fill-rule="evenodd"
       id="path57" />
    <path
       fill="#d9d9d9"
       stroke="#d9d9d9"
       stroke-width="1"
       stroke-linecap="butt"
       d="m 396.27744,272.5328 -1.65173,-4.53809 -1.65174,4.53809 z"
       fill-rule="evenodd"
       id="path59" />
    <path
       fill="#6fa8dc"
       fill-opacity="0.2917"
       d="m 351.47873,294.9449 h 85.85828 v 42.01575 h -85.85828 z"
       fill-rule="evenodd"
       id="path61" />
    <path
       stroke="#d9d9d9"
       stroke-width="1"
       stroke-linejoin="round"
       stroke-linecap="butt"
       d="m 351.47873,294.9449 h 85.85828 v 42.01575 h -85.85828 z"
       fill-rule="evenodd"
       id="path63" />
    <path
       fill="#d9d9d9"
       d="m 364.62836,311.948 q -1.625,0 -2.5,-1.20313 -0.85938,-1.21875 -0.85938,-3.76562 0,-1.28125 0.23438,-2.17188 0.25,-0.90625 0.6875,-1.45312 0.45312,-0.5625 1.04687,-0.8125 0.60938,-0.25 1.3125,-0.25 0.57813,0 1.07813,0.15625 0.51562,0.15625 0.84375,0.375 l -0.35938,1 q -0.32812,-0.20313 -0.70312,-0.32813 -0.35938,-0.14062 -0.84375,-0.14062 -1.0625,0 -1.54688,0.89062 -0.46875,0.875 -0.46875,2.73438 0,1.89062 0.5,2.90625 0.51563,1 1.65625,1 0.54688,0 0.875,-0.125 0.34375,-0.14063 0.67188,-0.34375 l 0.32812,0.9375 q -0.29687,0.25 -0.79687,0.42187 -0.5,0.17188 -1.15625,0.17188 z m 3.0946,-7.59375 q 0.25,-0.15625 0.51563,-0.35938 0.28125,-0.21875 0.53125,-0.46875 0.25,-0.25 0.46875,-0.5 0.21875,-0.26562 0.375,-0.51562 h 0.875 v 9.23437 h -1.14063 V 304.323 q -0.23437,0.23437 -0.53125,0.45312 -0.29687,0.21875 -0.625,0.39063 z m 10.56443,7.5625 q -0.71875,0 -1.20313,-0.28125 -0.46875,-0.28125 -0.78125,-0.76563 -0.29687,-0.48437 -0.42187,-1.14062 -0.125,-0.67188 -0.125,-1.46875 0,-1.73438 0.625,-2.70313 0.64062,-0.98437 1.92187,-0.98437 0.39063,0 0.6875,0.0937 0.3125,0.0937 0.57813,0.23437 l -0.29688,0.95313 q -0.40625,-0.26563 -0.92187,-0.26563 -0.71875,0 -1.0625,0.65625 -0.32813,0.65625 -0.32813,2.01563 0,0.57812 0.0625,1.0625 0.0625,0.48437 0.23438,0.84375 0.17187,0.34375 0.4375,0.54687 0.28125,0.1875 0.70312,0.1875 0.29688,0 0.51563,-0.0625 0.23437,-0.0781 0.45312,-0.20312 l 0.25,0.89062 q -0.20312,0.15625 -0.5625,0.26563 -0.35937,0.125 -0.76562,0.125 z m 6.99753,-3.65625 q 0,0.8125 -0.15625,1.5 -0.14063,0.67187 -0.4375,1.15625 -0.29688,0.46875 -0.76563,0.73437 -0.45312,0.26563 -1.07812,0.26563 -0.625,0 -1.09375,-0.26563 -0.46875,-0.26562 -0.76563,-0.73437 -0.29687,-0.48438 -0.45312,-1.15625 -0.14063,-0.6875 -0.14063,-1.5 0,-0.82813 0.14063,-1.5 0.15625,-0.6875 0.45312,-1.17188 0.29688,-0.48437 0.76563,-0.75 0.46875,-0.26562 1.09375,-0.26562 0.625,0 1.07812,0.26562 0.46875,0.26563 0.76563,0.75 0.29687,0.48438 0.4375,1.17188 0.15625,0.67187 0.15625,1.5 z m -1.20313,0 q 0,-0.59375 -0.0625,-1.07813 -0.0625,-0.48437 -0.21875,-0.82812 -0.14062,-0.35938 -0.39062,-0.54688 -0.23438,-0.20312 -0.5625,-0.20312 -0.34375,0 -0.57813,0.20312 -0.23437,0.1875 -0.39062,0.54688 -0.15625,0.34375 -0.21875,0.82812 -0.0625,0.48438 -0.0625,1.07813 0,0.57812 0.0625,1.0625 0.0625,0.48437 0.21875,0.84375 0.15625,0.34375 0.39062,0.53125 0.23438,0.1875 0.57813,0.1875 0.32812,0 0.5625,-0.1875 0.25,-0.1875 0.39062,-0.53125 0.15625,-0.35938 0.21875,-0.84375 0.0625,-0.48438 0.0625,-1.0625 z m 2.88965,-3.3125 q 0.45312,-0.14063 1,-0.23438 0.54687,-0.10937 1,-0.10937 0.46875,0 0.84375,0.125 0.39062,0.10937 0.6875,0.39062 0.34375,-0.21875 0.73437,-0.35937 0.40625,-0.15625 0.89063,-0.15625 0.46875,0 0.85937,0.14062 0.40625,0.14063 0.6875,0.46875 0.28125,0.32813 0.4375,0.90625 0.15625,0.5625 0.15625,1.40625 v 4.21875 h -1.14062 v -4.125 q 0,-1.04687 -0.25,-1.51562 -0.23438,-0.48438 -0.90625,-0.48438 -0.25,0 -0.51563,0.0937 -0.25,0.0937 -0.48437,0.25 0.10937,0.29688 0.15625,0.6875 0.0625,0.39063 0.0625,0.875 v 4.21875 h -1.14063 v -4.125 q 0,-1.04687 -0.25,-1.51562 -0.23437,-0.48438 -0.90625,-0.48438 -0.34375,0 -0.78125,0.125 v 6 h -1.14062 z m 9.30298,0 q 0.45312,-0.14063 1,-0.23438 0.54687,-0.10937 1,-0.10937 0.46875,0 0.84375,0.125 0.39062,0.10937 0.6875,0.39062 0.34375,-0.21875 0.73437,-0.35937 0.40625,-0.15625 0.89063,-0.15625 0.46875,0 0.85937,0.14062 0.40625,0.14063 0.6875,0.46875 0.28125,0.32813 0.4375,0.90625 0.15625,0.5625 0.15625,1.40625 v 4.21875 h -1.14062 v -4.125 q 0,-1.04687 -0.25,-1.51562 -0.23438,-0.48438 -0.90625,-0.48438 -0.25,0 -0.51563,0.0937 -0.25,0.0937 -0.48437,0.25 0.10937,0.29688 0.15625,0.6875 0.0625,0.39063 0.0625,0.875 v 4.21875 h -1.14063 v -4.125 q 0,-1.04687 -0.25,-1.51562 -0.23437,-0.48438 -0.90625,-0.48438 -0.34375,0 -0.78125,0.125 v 6 h -1.14062 z m 10.44363,6.79687 h -1.14062 v -7 h 1.14062 z m -0.57812,-8.23437 q -0.29688,0 -0.53125,-0.20313 -0.21875,-0.21875 -0.21875,-0.5625 0,-0.34375 0.21875,-0.54687 0.23437,-0.20313 0.53125,-0.20313 0.3125,0 0.53125,0.20313 0.21875,0.20312 0.21875,0.54687 0,0.34375 -0.21875,0.5625 -0.21875,0.20313 -0.53125,0.20313 z m 3.72537,1.23437 h 1.75 v 0.98438 h -1.75 v 3.85937 q 0,0.71875 0.25,1.01563 0.26562,0.28125 0.70312,0.28125 0.23438,0 0.4375,-0.0625 0.20313,-0.0781 0.35938,-0.17188 l 0.21875,0.92188 q -0.54688,0.3125 -1.15625,0.3125 -0.98438,0 -1.48438,-0.54688 -0.48437,-0.54687 -0.48437,-1.82812 v -6.64063 l 1.15625,-0.20312 z m 4.27832,0 h 1.75 v 0.98438 h -1.75 v 3.85937 q 0,0.71875 0.25,1.01563 0.26562,0.28125 0.70312,0.28125 0.23438,0 0.4375,-0.0625 0.20313,-0.0781 0.35938,-0.17188 l 0.21875,0.92188 q -0.54688,0.3125 -1.15625,0.3125 -0.98438,0 -1.48438,-0.54688 -0.48437,-0.54687 -0.48437,-1.82812 v -6.64063 l 1.15625,-0.20312 z m 3.93039,3.84375 q 0.0156,0.5 0.0937,0.92188 0.0781,0.42187 0.25,0.73437 0.1875,0.3125 0.48437,0.48438 0.29688,0.17187 0.76563,0.17187 0.39062,0 0.71875,-0.10937 0.32812,-0.10938 0.46875,-0.1875 l 0.21875,0.90625 q -0.17188,0.125 -0.57813,0.26562 -0.40625,0.14063 -0.96875,0.14063 -0.73437,0 -1.23437,-0.26563 -0.5,-0.26562 -0.8125,-0.73437 -0.3125,-0.48438 -0.45313,-1.15625 -0.125,-0.67188 -0.125,-1.46875 0,-1.9375 0.64063,-2.82813 0.64062,-0.89062 1.6875,-0.89062 1.1875,0 1.67187,0.89062 0.5,0.89063 0.5,2.51563 0,0.14062 0,0.29687 0,0.15625 -0.0156,0.3125 z m 1.15625,-3.04687 q -0.57813,0 -0.84375,0.57812 -0.25,0.57813 -0.29688,1.53125 h 2.10938 q 0,-0.96875 -0.20313,-1.53125 -0.1875,-0.57812 -0.76562,-0.57812 z m 6.87353,0.26562 q -0.375,-0.21875 -0.82812,-0.21875 -0.32813,0 -0.57813,0.14063 -0.25,0.125 -0.4375,0.4375 -0.17187,0.29687 -0.26562,0.8125 -0.0937,0.5 -0.0937,1.25 0,1.4375 0.375,2.0625 0.375,0.60937 1.15625,0.60937 0.14062,0 0.3125,-0.0156 0.17187,-0.0156 0.35937,-0.0781 z m 0,-4.20312 1.15625,-0.20313 v 10.15625 q -0.375,0.15625 -0.85937,0.25 -0.48438,0.10938 -0.96875,0.10938 -1.4375,0 -2.09375,-0.92188 -0.64063,-0.92187 -0.64063,-2.76562 0,-0.84375 0.14063,-1.51563 0.14062,-0.67187 0.4375,-1.14062 0.29687,-0.48438 0.76562,-0.73438 0.46875,-0.26562 1.10938,-0.26562 0.3125,0 0.53125,0.0625 0.21875,0.0625 0.42187,0.17187 z"
       fill-rule="nonzero"
       id="path65" />
    <path
       fill="#d9d9d9"
       d="m 385.45816,324.2605 q 0,0.8125 -0.15625,1.5 -0.14062,0.67187 -0.4375,1.15625 -0.29687,0.46875 -0.76562,0.73437 -0.45313,0.26563 -1.07813,0.26563 -0.625,0 -1.09375,-0.26563 -0.46875,-0.26562 -0.76562,-0.73437 -0.29688,-0.48438 -0.45313,-1.15625 -0.14062,-0.6875 -0.14062,-1.5 0,-0.82813 0.14062,-1.5 0.15625,-0.6875 0.45313,-1.17188 0.29687,-0.48437 0.76562,-0.75 0.46875,-0.26562 1.09375,-0.26562 0.625,0 1.07813,0.26562 0.46875,0.26563 0.76562,0.75 0.29688,0.48438 0.4375,1.17188 0.15625,0.67187 0.15625,1.5 z m -1.20312,0 q 0,-0.59375 -0.0625,-1.07813 -0.0625,-0.48437 -0.21875,-0.82812 -0.14063,-0.35938 -0.39063,-0.54688 -0.23437,-0.20312 -0.5625,-0.20312 -0.34375,0 -0.57812,0.20312 -0.23438,0.1875 -0.39063,0.54688 -0.15625,0.34375 -0.21875,0.82812 -0.0625,0.48438 -0.0625,1.07813 0,0.57812 0.0625,1.0625 0.0625,0.48437 0.21875,0.84375 0.15625,0.34375 0.39063,0.53125 0.23437,0.1875 0.57812,0.1875 0.32813,0 0.5625,-0.1875 0.25,-0.1875 0.39063,-0.53125 0.15625,-0.35938 0.21875,-0.84375 0.0625,-0.48438 0.0625,-1.0625 z m 4.92089,-6.85938 q 0.39063,0 0.67188,0.0781 0.29687,0.0781 0.48437,0.17187 l -0.23437,0.90625 q -0.1875,-0.0937 -0.39063,-0.14062 -0.20312,-0.0469 -0.42187,-0.0469 -0.3125,0 -0.51563,0.10938 -0.1875,0.10937 -0.29687,0.29687 -0.10938,0.1875 -0.15625,0.45313 -0.0312,0.25 -0.0312,0.54687 v 0.96875 h 1.79687 v 0.98438 h -1.79687 v 6.01562 h -1.14063 v -7.96875 q 0,-1.14062 0.5,-1.75 0.5,-0.625 1.53125,-0.625 z m 4.07813,0 q 0.39062,0 0.67187,0.0781 0.29688,0.0781 0.48438,0.17187 l -0.23438,0.90625 q -0.1875,-0.0937 -0.39062,-0.14062 -0.20313,-0.0469 -0.42188,-0.0469 -0.3125,0 -0.51562,0.10938 -0.1875,0.10937 -0.29688,0.29687 -0.10937,0.1875 -0.15625,0.45313 -0.0312,0.25 -0.0312,0.54687 v 0.96875 h 1.79688 v 0.98438 h -1.79688 v 6.01562 h -1.14062 v -7.96875 q 0,-1.14062 0.5,-1.75 0.5,-0.625 1.53125,-0.625 z m 3.01617,9.53125 q 0.5,0 0.75,-0.28125 0.26563,-0.29687 0.26563,-0.76562 0,-0.28125 -0.10938,-0.48438 -0.0937,-0.21875 -0.26562,-0.375 -0.17188,-0.15625 -0.40625,-0.28125 -0.21875,-0.125 -0.45313,-0.28125 -0.21875,-0.125 -0.4375,-0.29687 -0.21875,-0.1875 -0.39062,-0.42188 -0.15625,-0.23437 -0.26563,-0.53125 -0.0937,-0.3125 -0.0937,-0.70312 0,-0.875 0.53125,-1.40625 0.54688,-0.53125 1.46875,-0.53125 0.39063,0 0.73438,0.10937 0.34375,0.0937 0.57812,0.21875 l -0.25,0.90625 q -0.25,-0.125 -0.48437,-0.1875 -0.23438,-0.0781 -0.51563,-0.0781 -0.4375,0 -0.6875,0.25 -0.25,0.25 -0.25,0.71875 0,0.26562 0.0937,0.46875 0.0937,0.1875 0.23438,0.34375 0.15625,0.14062 0.34375,0.28125 0.20312,0.125 0.42187,0.25 0.25,0.14062 0.5,0.3125 0.25,0.17187 0.4375,0.40625 0.1875,0.23437 0.3125,0.54687 0.125,0.3125 0.125,0.76563 0,0.90625 -0.54687,1.46875 -0.53125,0.5625 -1.57813,0.5625 -0.53125,0 -0.96875,-0.15625 -0.42187,-0.14063 -0.625,-0.25 l 0.23438,-0.95313 q 0.20312,0.10938 0.53125,0.25 0.34375,0.125 0.76562,0.125 z m 4.35736,-2.34375 q 0.0156,0.5 0.0937,0.92188 0.0781,0.42187 0.25,0.73437 0.1875,0.3125 0.48438,0.48438 0.29687,0.17187 0.76562,0.17187 0.39063,0 0.71875,-0.10937 0.32813,-0.10938 0.46875,-0.1875 l 0.21875,0.90625 q -0.17187,0.125 -0.57812,0.26562 -0.40625,0.14063 -0.96875,0.14063 -0.73438,0 -1.23438,-0.26563 -0.5,-0.26562 -0.8125,-0.73437 -0.3125,-0.48438 -0.45312,-1.15625 -0.125,-0.67188 -0.125,-1.46875 0,-1.9375 0.64062,-2.82813 0.64063,-0.89062 1.6875,-0.89062 1.1875,0 1.67188,0.89062 0.5,0.89063 0.5,2.51563 0,0.14062 0,0.29687 0,0.15625 -0.0156,0.3125 z m 1.15625,-3.04687 q -0.57812,0 -0.84375,0.57812 -0.25,0.57813 -0.29687,1.53125 h 2.10937 q 0,-0.96875 -0.20312,-1.53125 -0.1875,-0.57812 -0.76563,-0.57812 z m 4.93604,-0.79688 h 1.75 v 0.98438 h -1.75 v 3.85937 q 0,0.71875 0.25,1.01563 0.26562,0.28125 0.70312,0.28125 0.23438,0 0.4375,-0.0625 0.20313,-0.0781 0.35938,-0.17188 l 0.21875,0.92188 q -0.54688,0.3125 -1.15625,0.3125 -0.98438,0 -1.48438,-0.54688 -0.48437,-0.54687 -0.48437,-1.82812 v -6.64063 l 1.15625,-0.20312 z"
       fill-rule="nonzero"
       id="path67" />
    <path
       fill="#6fa8dc"
       fill-opacity="0.2917"
       d="m 538.67456,294.9449 h 85.85828 v 42.01575 h -85.85828 z"
       fill-rule="evenodd"
       id="path69" />
    <path
       stroke="#d9d9d9"
       stroke-width="1"
       stroke-linejoin="round"
       stroke-linecap="butt"
       d="m 538.67456,294.9449 h 85.85828 v 42.01575 h -85.85828 z"
       fill-rule="evenodd"
       id="path71" />
    <path
       fill="#d9d9d9"
       d="m 551.82416,311.948 q -1.625,0 -2.5,-1.20313 -0.85938,-1.21875 -0.85938,-3.76562 0,-1.28125 0.23438,-2.17188 0.25,-0.90625 0.6875,-1.45312 0.45312,-0.5625 1.04687,-0.8125 0.60938,-0.25 1.3125,-0.25 0.57813,0 1.07813,0.15625 0.51562,0.15625 0.84375,0.375 l -0.35938,1 q -0.32812,-0.20313 -0.70312,-0.32813 -0.35938,-0.14062 -0.84375,-0.14062 -1.0625,0 -1.54688,0.89062 -0.46875,0.875 -0.46875,2.73438 0,1.89062 0.5,2.90625 0.51563,1 1.65625,1 0.54688,0 0.875,-0.125 0.34375,-0.14063 0.67188,-0.34375 l 0.32812,0.9375 q -0.29687,0.25 -0.79687,0.42187 -0.5,0.17188 -1.15625,0.17188 z m 2.75092,-8.85938 q 0.78125,-0.79687 1.90625,-0.79687 1.07812,0 1.65625,0.57812 0.57812,0.5625 0.57812,1.75 0,0.5625 -0.1875,1.07813 -0.1875,0.5 -0.46875,0.98437 -0.28125,0.46875 -0.625,0.9375 -0.32812,0.45313 -0.64062,0.95313 -0.29688,0.48437 -0.53125,1.01562 -0.21875,0.51563 -0.26563,1.10938 h 2.90625 v 1.04687 h -4.14062 v -0.25 q 0,-0.89062 0.20312,-1.57812 0.21875,-0.70313 0.51563,-1.26563 0.29687,-0.5625 0.65625,-1.03125 0.35937,-0.48437 0.65625,-0.9375 0.3125,-0.46875 0.51562,-0.95312 0.20313,-0.48438 0.20313,-1.07813 0,-0.70312 -0.28125,-1.01562 -0.28125,-0.3125 -0.84375,-0.3125 -0.375,0 -0.6875,0.15625 -0.3125,0.15625 -0.57813,0.39062 z m 10.90814,8.82813 q -0.71875,0 -1.20313,-0.28125 -0.46875,-0.28125 -0.78125,-0.76563 -0.29687,-0.48437 -0.42187,-1.14062 -0.125,-0.67188 -0.125,-1.46875 0,-1.73438 0.625,-2.70313 0.64062,-0.98437 1.92187,-0.98437 0.39063,0 0.6875,0.0937 0.3125,0.0937 0.57813,0.23437 l -0.29688,0.95313 q -0.40625,-0.26563 -0.92187,-0.26563 -0.71875,0 -1.0625,0.65625 -0.32813,0.65625 -0.32813,2.01563 0,0.57812 0.0625,1.0625 0.0625,0.48437 0.23438,0.84375 0.17187,0.34375 0.4375,0.54687 0.28125,0.1875 0.70312,0.1875 0.29688,0 0.51563,-0.0625 0.23437,-0.0781 0.45312,-0.20312 l 0.25,0.89062 q -0.20312,0.15625 -0.5625,0.26563 -0.35937,0.125 -0.76562,0.125 z m 6.9975,-3.65625 q 0,0.8125 -0.15625,1.5 -0.14063,0.67187 -0.4375,1.15625 -0.29688,0.46875 -0.76563,0.73437 -0.45312,0.26563 -1.07812,0.26563 -0.625,0 -1.09375,-0.26563 -0.46875,-0.26562 -0.76563,-0.73437 -0.29687,-0.48438 -0.45312,-1.15625 -0.14063,-0.6875 -0.14063,-1.5 0,-0.82813 0.14063,-1.5 0.15625,-0.6875 0.45312,-1.17188 0.29688,-0.48437 0.76563,-0.75 0.46875,-0.26562 1.09375,-0.26562 0.625,0 1.07812,0.26562 0.46875,0.26563 0.76563,0.75 0.29687,0.48438 0.4375,1.17188 0.15625,0.67187 0.15625,1.5 z m -1.20313,0 q 0,-0.59375 -0.0625,-1.07813 -0.0625,-0.48437 -0.21875,-0.82812 -0.14062,-0.35938 -0.39062,-0.54688 -0.23438,-0.20312 -0.5625,-0.20312 -0.34375,0 -0.57813,0.20312 -0.23437,0.1875 -0.39062,0.54688 -0.15625,0.34375 -0.21875,0.82812 -0.0625,0.48438 -0.0625,1.07813 0,0.57812 0.0625,1.0625 0.0625,0.48437 0.21875,0.84375 0.15625,0.34375 0.39062,0.53125 0.23438,0.1875 0.57813,0.1875 0.32812,0 0.5625,-0.1875 0.25,-0.1875 0.39062,-0.53125 0.15625,-0.35938 0.21875,-0.84375 0.0625,-0.48438 0.0625,-1.0625 z m 2.88965,-3.3125 q 0.45312,-0.14063 1,-0.23438 0.54687,-0.10937 1,-0.10937 0.46875,0 0.84375,0.125 0.39062,0.10937 0.6875,0.39062 0.34375,-0.21875 0.73437,-0.35937 0.40625,-0.15625 0.89063,-0.15625 0.46875,0 0.85937,0.14062 0.40625,0.14063 0.6875,0.46875 0.28125,0.32813 0.4375,0.90625 0.15625,0.5625 0.15625,1.40625 v 4.21875 h -1.14062 v -4.125 q 0,-1.04687 -0.25,-1.51562 -0.23438,-0.48438 -0.90625,-0.48438 -0.25,0 -0.51563,0.0937 -0.25,0.0937 -0.48437,0.25 0.10937,0.29688 0.15625,0.6875 0.0625,0.39063 0.0625,0.875 v 4.21875 h -1.14063 v -4.125 q 0,-1.04687 -0.25,-1.51562 -0.23437,-0.48438 -0.90625,-0.48438 -0.34375,0 -0.78125,0.125 v 6 h -1.14062 z m 9.30304,0 q 0.45312,-0.14063 1,-0.23438 0.54687,-0.10937 1,-0.10937 0.46875,0 0.84375,0.125 0.39062,0.10937 0.6875,0.39062 0.34375,-0.21875 0.73437,-0.35937 0.40625,-0.15625 0.89063,-0.15625 0.46875,0 0.85937,0.14062 0.40625,0.14063 0.6875,0.46875 0.28125,0.32813 0.4375,0.90625 0.15625,0.5625 0.15625,1.40625 v 4.21875 h -1.14062 v -4.125 q 0,-1.04687 -0.25,-1.51562 -0.23438,-0.48438 -0.90625,-0.48438 -0.25,0 -0.51563,0.0937 -0.25,0.0937 -0.48437,0.25 0.10937,0.29688 0.15625,0.6875 0.0625,0.39063 0.0625,0.875 v 4.21875 h -1.14063 v -4.125 q 0,-1.04687 -0.25,-1.51562 -0.23437,-0.48438 -0.90625,-0.48438 -0.34375,0 -0.78125,0.125 v 6 h -1.14062 z m 10.4436,6.79687 h -1.14062 v -7 h 1.14062 z m -0.57812,-8.23437 q -0.29688,0 -0.53125,-0.20313 -0.21875,-0.21875 -0.21875,-0.5625 0,-0.34375 0.21875,-0.54687 0.23437,-0.20313 0.53125,-0.20313 0.3125,0 0.53125,0.20313 0.21875,0.20312 0.21875,0.54687 0,0.34375 -0.21875,0.5625 -0.21875,0.20313 -0.53125,0.20313 z m 3.7254,1.23437 h 1.75 v 0.98438 h -1.75 v 3.85937 q 0,0.71875 0.25,1.01563 0.26562,0.28125 0.70312,0.28125 0.23438,0 0.4375,-0.0625 0.20313,-0.0781 0.35938,-0.17188 l 0.21875,0.92188 q -0.54688,0.3125 -1.15625,0.3125 -0.98438,0 -1.48438,-0.54688 -0.48437,-0.54687 -0.48437,-1.82812 v -6.64063 l 1.15625,-0.20312 z m 4.27826,0 h 1.75 v 0.98438 h -1.75 v 3.85937 q 0,0.71875 0.25,1.01563 0.26562,0.28125 0.70312,0.28125 0.23438,0 0.4375,-0.0625 0.20313,-0.0781 0.35938,-0.17188 l 0.21875,0.92188 q -0.54688,0.3125 -1.15625,0.3125 -0.98438,0 -1.48438,-0.54688 -0.48437,-0.54687 -0.48437,-1.82812 v -6.64063 l 1.15625,-0.20312 z m 3.93042,3.84375 q 0.0156,0.5 0.0937,0.92188 0.0781,0.42187 0.25,0.73437 0.1875,0.3125 0.48437,0.48438 0.29688,0.17187 0.76563,0.17187 0.39062,0 0.71875,-0.10937 0.32812,-0.10938 0.46875,-0.1875 l 0.21875,0.90625 q -0.17188,0.125 -0.57813,0.26562 -0.40625,0.14063 -0.96875,0.14063 -0.73437,0 -1.23437,-0.26563 -0.5,-0.26562 -0.8125,-0.73437 -0.3125,-0.48438 -0.45313,-1.15625 -0.125,-0.67188 -0.125,-1.46875 0,-1.9375 0.64063,-2.82813 0.64062,-0.89062 1.6875,-0.89062 1.1875,0 1.67187,0.89062 0.5,0.89063 0.5,2.51563 0,0.14062 0,0.29687 0,0.15625 -0.0156,0.3125 z m 1.15625,-3.04687 q -0.57813,0 -0.84375,0.57812 -0.25,0.57813 -0.29688,1.53125 h 2.10938 q 0,-0.96875 -0.20313,-1.53125 -0.1875,-0.57812 -0.76562,-0.57812 z m 6.87353,0.26562 q -0.375,-0.21875 -0.82812,-0.21875 -0.32813,0 -0.57813,0.14063 -0.25,0.125 -0.4375,0.4375 -0.17187,0.29687 -0.26562,0.8125 -0.0937,0.5 -0.0937,1.25 0,1.4375 0.375,2.0625 0.375,0.60937 1.15625,0.60937 0.14062,0 0.3125,-0.0156 0.17187,-0.0156 0.35937,-0.0781 z m 0,-4.20312 1.15625,-0.20313 v 10.15625 q -0.375,0.15625 -0.85937,0.25 -0.48438,0.10938 -0.96875,0.10938 -1.4375,0 -2.09375,-0.92188 -0.64063,-0.92187 -0.64063,-2.76562 0,-0.84375 0.14063,-1.51563 0.14062,-0.67187 0.4375,-1.14062 0.29687,-0.48438 0.76562,-0.73438 0.46875,-0.26562 1.10938,-0.26562 0.3125,0 0.53125,0.0625 0.21875,0.0625 0.42187,0.17187 z"
       fill-rule="nonzero"
       id="path73" />
    <path
       fill="#d9d9d9"
       d="m 572.654,324.2605 q 0,0.8125 -0.15625,1.5 -0.14063,0.67187 -0.4375,1.15625 -0.29688,0.46875 -0.76563,0.73437 -0.45312,0.26563 -1.07812,0.26563 -0.625,0 -1.09375,-0.26563 -0.46875,-0.26562 -0.76563,-0.73437 -0.29687,-0.48438 -0.45312,-1.15625 -0.14063,-0.6875 -0.14063,-1.5 0,-0.82813 0.14063,-1.5 0.15625,-0.6875 0.45312,-1.17188 0.29688,-0.48437 0.76563,-0.75 0.46875,-0.26562 1.09375,-0.26562 0.625,0 1.07812,0.26562 0.46875,0.26563 0.76563,0.75 0.29687,0.48438 0.4375,1.17188 0.15625,0.67187 0.15625,1.5 z m -1.20313,0 q 0,-0.59375 -0.0625,-1.07813 -0.0625,-0.48437 -0.21875,-0.82812 -0.14062,-0.35938 -0.39062,-0.54688 -0.23438,-0.20312 -0.5625,-0.20312 -0.34375,0 -0.57813,0.20312 -0.23437,0.1875 -0.39062,0.54688 -0.15625,0.34375 -0.21875,0.82812 -0.0625,0.48438 -0.0625,1.07813 0,0.57812 0.0625,1.0625 0.0625,0.48437 0.21875,0.84375 0.15625,0.34375 0.39062,0.53125 0.23438,0.1875 0.57813,0.1875 0.32812,0 0.5625,-0.1875 0.25,-0.1875 0.39062,-0.53125 0.15625,-0.35938 0.21875,-0.84375 0.0625,-0.48438 0.0625,-1.0625 z m 4.9209,-6.85938 q 0.39063,0 0.67188,0.0781 0.29687,0.0781 0.48437,0.17187 l -0.23437,0.90625 q -0.1875,-0.0937 -0.39063,-0.14062 -0.20312,-0.0469 -0.42187,-0.0469 -0.3125,0 -0.51563,0.10938 -0.1875,0.10937 -0.29687,0.29687 -0.10938,0.1875 -0.15625,0.45313 -0.0312,0.25 -0.0312,0.54687 v 0.96875 h 1.79687 v 0.98438 h -1.79687 v 6.01562 h -1.14063 v -7.96875 q 0,-1.14062 0.5,-1.75 0.5,-0.625 1.53125,-0.625 z m 4.07813,0 q 0.39062,0 0.67187,0.0781 0.29688,0.0781 0.48438,0.17187 l -0.23438,0.90625 q -0.1875,-0.0937 -0.39062,-0.14062 -0.20313,-0.0469 -0.42188,-0.0469 -0.3125,0 -0.51562,0.10938 -0.1875,0.10937 -0.29688,0.29687 -0.10937,0.1875 -0.15625,0.45313 -0.0312,0.25 -0.0312,0.54687 v 0.96875 h 1.79688 v 0.98438 h -1.79688 v 6.01562 h -1.14062 v -7.96875 q 0,-1.14062 0.5,-1.75 0.5,-0.625 1.53125,-0.625 z m 3.01617,9.53125 q 0.5,0 0.75,-0.28125 0.26563,-0.29687 0.26563,-0.76562 0,-0.28125 -0.10938,-0.48438 -0.0937,-0.21875 -0.26562,-0.375 -0.17188,-0.15625 -0.40625,-0.28125 -0.21875,-0.125 -0.45313,-0.28125 -0.21875,-0.125 -0.4375,-0.29687 -0.21875,-0.1875 -0.39062,-0.42188 -0.15625,-0.23437 -0.26563,-0.53125 -0.0937,-0.3125 -0.0937,-0.70312 0,-0.875 0.53125,-1.40625 0.54688,-0.53125 1.46875,-0.53125 0.39063,0 0.73438,0.10937 0.34375,0.0937 0.57812,0.21875 l -0.25,0.90625 q -0.25,-0.125 -0.48437,-0.1875 -0.23438,-0.0781 -0.51563,-0.0781 -0.4375,0 -0.6875,0.25 -0.25,0.25 -0.25,0.71875 0,0.26562 0.0937,0.46875 0.0937,0.1875 0.23438,0.34375 0.15625,0.14062 0.34375,0.28125 0.20312,0.125 0.42187,0.25 0.25,0.14062 0.5,0.3125 0.25,0.17187 0.4375,0.40625 0.1875,0.23437 0.3125,0.54687 0.125,0.3125 0.125,0.76563 0,0.90625 -0.54687,1.46875 -0.53125,0.5625 -1.57813,0.5625 -0.53125,0 -0.96875,-0.15625 -0.42187,-0.14063 -0.625,-0.25 l 0.23438,-0.95313 q 0.20312,0.10938 0.53125,0.25 0.34375,0.125 0.76562,0.125 z m 4.35736,-2.34375 q 0.0156,0.5 0.0937,0.92188 0.0781,0.42187 0.25,0.73437 0.1875,0.3125 0.48438,0.48438 0.29687,0.17187 0.76562,0.17187 0.39063,0 0.71875,-0.10937 0.32813,-0.10938 0.46875,-0.1875 l 0.21875,0.90625 q -0.17187,0.125 -0.57812,0.26562 -0.40625,0.14063 -0.96875,0.14063 -0.73438,0 -1.23438,-0.26563 -0.5,-0.26562 -0.8125,-0.73437 -0.3125,-0.48438 -0.45312,-1.15625 -0.125,-0.67188 -0.125,-1.46875 0,-1.9375 0.64062,-2.82813 0.64063,-0.89062 1.6875,-0.89062 1.1875,0 1.67188,0.89062 0.5,0.89063 0.5,2.51563 0,0.14062 0,0.29687 0,0.15625 -0.0156,0.3125 z m 1.15625,-3.04687 q -0.57812,0 -0.84375,0.57812 -0.25,0.57813 -0.29687,1.53125 h 2.10937 q 0,-0.96875 -0.20312,-1.53125 -0.1875,-0.57812 -0.76563,-0.57812 z m 4.93604,-0.79688 h 1.75 v 0.98438 h -1.75 v 3.85937 q 0,0.71875 0.25,1.01563 0.26562,0.28125 0.70312,0.28125 0.23438,0 0.4375,-0.0625 0.20313,-0.0781 0.35938,-0.17188 l 0.21875,0.92188 q -0.54688,0.3125 -1.15625,0.3125 -0.98438,0 -1.48438,-0.54688 -0.48437,-0.54687 -0.48437,-1.82812 v -6.64063 l 1.15625,-0.20312 z"
       fill-rule="nonzero"
       id="path75" />
    <path
       fill="#000000"
       fill-opacity="0"
       d="m 443.4299,343.12195 h 50.96063 v 37.16534 H 443.4299 Z"
       fill-rule="evenodd"
       id="path77" />
    <path
       fill="#f3f3f3"
       d="m 461.25092,359.65506 q -0.46875,-0.20313 -1.04688,-0.20313 -0.54687,0 -1.01562,0.1875 v 6.5625 h -1.26563 v -7.35937 q 0.42188,-0.20313 0.96875,-0.34375 0.5625,-0.14063 1.21875,-0.14063 0.34375,0 0.6875,0.0469 0.35938,0.0469 0.67188,0.15625 z m 2.20749,3.07812 q 0,0.54688 0.0937,1.01563 0.0937,0.45312 0.28125,0.8125 0.20312,0.34375 0.53125,0.53125 0.32812,0.1875 0.84375,0.1875 0.42187,0 0.78125,-0.125 0.35937,-0.125 0.53125,-0.21875 l 0.23437,1.01562 q -0.20312,0.125 -0.65625,0.28125 -0.4375,0.15625 -1.04687,0.15625 -0.8125,0 -1.35938,-0.28125 -0.54687,-0.29687 -0.89062,-0.82812 -0.34375,-0.53125 -0.5,-1.26563 -0.14063,-0.73437 -0.14063,-1.60937 0,-2.125 0.70313,-3.10938 0.70312,-0.98437 1.85937,-0.98437 1.3125,0 1.84375,0.98437 0.54688,0.98438 0.54688,2.76563 0,0.15625 0,0.32812 0,0.15625 -0.0156,0.34375 z m 1.26562,-3.34375 q -0.625,0 -0.92187,0.625 -0.28125,0.625 -0.34375,1.6875 h 2.34375 q 0,-1.0625 -0.23438,-1.6875 -0.21875,-0.625 -0.84375,-0.625 z m 4.37452,-0.71875 q 0.375,-0.15625 0.79687,-0.25 0.42188,-0.10937 0.92188,-0.10937 1.03125,0 1.67187,0.64062 0.65625,0.64063 0.65625,1.98438 v 5.10937 q -0.53125,0.14063 -1.09375,0.21875 -0.54687,0.0937 -1.0625,0.0937 -0.53125,0 -1,-0.14062 -0.45312,-0.125 -0.79687,-0.40625 -0.34375,-0.29688 -0.5625,-0.73438 -0.20313,-0.45312 -0.20313,-1.10937 0,-0.59375 0.1875,-1.03125 0.1875,-0.45313 0.5,-0.75 0.32813,-0.3125 0.76563,-0.45313 0.4375,-0.15625 0.95312,-0.15625 0.48438,0 1.07813,0.10938 v -0.70313 q 0,-0.84375 -0.32813,-1.17187 -0.32812,-0.34375 -0.95312,-0.34375 -0.32813,0 -0.64063,0.0625 -0.29687,0.0625 -0.625,0.20312 z m 0.59375,5.28125 q 0,0.6875 0.34375,1.01563 0.35937,0.3125 1,0.3125 0.40625,0 0.875,-0.10938 v -2.4375 q -0.4375,-0.125 -0.875,-0.125 -0.26563,0 -0.51563,0.0781 -0.25,0.0625 -0.4375,0.21875 -0.1875,0.14062 -0.29687,0.40625 -0.0937,0.25 -0.0937,0.64062 z m 8.95459,-4.28125 q -0.42188,-0.23437 -0.90625,-0.23437 -0.35938,0 -0.64063,0.14062 -0.28125,0.14063 -0.48437,0.48438 -0.1875,0.34375 -0.29688,0.90625 -0.10937,0.54687 -0.10937,1.35937 0,1.59375 0.42187,2.28125 0.42188,0.67188 1.26563,0.67188 0.17187,0 0.35937,-0.0156 0.1875,-0.0312 0.39063,-0.0937 z m 0,-4.625 1.26562,-0.21875 v 11.17188 q -0.40625,0.17187 -0.9375,0.28125 -0.53125,0.10937 -1.07812,0.10937 -1.57813,0 -2.29688,-1 -0.70312,-1.01562 -0.70312,-3.0625 0,-0.92187 0.15625,-1.65625 0.15625,-0.73437 0.48437,-1.25 0.32813,-0.53125 0.84375,-0.8125 0.51563,-0.29687 1.21875,-0.29687 0.32813,0 0.5625,0.0781 0.25,0.0625 0.48438,0.17188 z"
       fill-rule="nonzero"
       id="path79" />
    <path
       fill="#000000"
       fill-opacity="0"
       d="m 605.86194,343.12006 h 50.96063 v 37.16537 h -50.96063 z"
       fill-rule="evenodd"
       id="path81" />
    <path
       fill="#f3f3f3"
       d="m 623.683,359.6532 q -0.46875,-0.20312 -1.04688,-0.20312 -0.54687,0 -1.01562,0.1875 v 6.5625 h -1.26563 v -7.35938 q 0.42188,-0.20312 0.96875,-0.34375 0.5625,-0.14062 1.21875,-0.14062 0.34375,0 0.6875,0.0469 0.35938,0.0469 0.67188,0.15625 z m 2.20746,3.07813 q 0,0.54687 0.0937,1.01562 0.0937,0.45313 0.28125,0.8125 0.20312,0.34375 0.53125,0.53125 0.32812,0.1875 0.84375,0.1875 0.42187,0 0.78125,-0.125 0.35937,-0.125 0.53125,-0.21875 l 0.23437,1.01563 q -0.20312,0.125 -0.65625,0.28125 -0.4375,0.15625 -1.04687,0.15625 -0.8125,0 -1.35938,-0.28125 -0.54687,-0.29688 -0.89062,-0.82813 -0.34375,-0.53125 -0.5,-1.26562 -0.14063,-0.73438 -0.14063,-1.60938 0,-2.125 0.70313,-3.10937 0.70312,-0.98438 1.85937,-0.98438 1.3125,0 1.84375,0.98438 0.54688,0.98437 0.54688,2.76562 0,0.15625 0,0.32813 0,0.15625 -0.0156,0.34375 z m 1.26562,-3.34375 q -0.625,0 -0.92187,0.625 -0.28125,0.625 -0.34375,1.6875 h 2.34375 q 0,-1.0625 -0.23438,-1.6875 -0.21875,-0.625 -0.84375,-0.625 z m 4.37452,-0.71875 q 0.375,-0.15625 0.79687,-0.25 0.42188,-0.10938 0.92188,-0.10938 1.03125,0 1.67187,0.64063 0.65625,0.64062 0.65625,1.98437 v 5.10938 q -0.53125,0.14062 -1.09375,0.21875 -0.54687,0.0937 -1.0625,0.0937 -0.53125,0 -1,-0.14063 -0.45312,-0.125 -0.79687,-0.40625 -0.34375,-0.29687 -0.5625,-0.73437 -0.20313,-0.45313 -0.20313,-1.10938 0,-0.59375 0.1875,-1.03125 0.1875,-0.45312 0.5,-0.75 0.32813,-0.3125 0.76563,-0.45312 0.4375,-0.15625 0.95312,-0.15625 0.48438,0 1.07813,0.10937 v -0.70312 q 0,-0.84375 -0.32813,-1.17188 -0.32812,-0.34375 -0.95312,-0.34375 -0.32813,0 -0.64063,0.0625 -0.29687,0.0625 -0.625,0.20313 z m 0.59375,5.28125 q 0,0.6875 0.34375,1.01562 0.35937,0.3125 1,0.3125 0.40625,0 0.875,-0.10937 v -2.4375 q -0.4375,-0.125 -0.875,-0.125 -0.26563,0 -0.51563,0.0781 -0.25,0.0625 -0.4375,0.21875 -0.1875,0.14063 -0.29687,0.40625 -0.0937,0.25 -0.0937,0.64063 z m 8.95459,-4.28125 q -0.42188,-0.23438 -0.90625,-0.23438 -0.35938,0 -0.64063,0.14063 -0.28125,0.14062 -0.48437,0.48437 -0.1875,0.34375 -0.29688,0.90625 -0.10937,0.54688 -0.10937,1.35938 0,1.59375 0.42187,2.28125 0.42188,0.67187 1.26563,0.67187 0.17187,0 0.35937,-0.0156 0.1875,-0.0312 0.39063,-0.0937 z m 0,-4.625 1.26562,-0.21875 v 11.17187 q -0.40625,0.17188 -0.9375,0.28125 -0.53125,0.10938 -1.07812,0.10938 -1.57813,0 -2.29688,-1 -0.70312,-1.01563 -0.70312,-3.0625 0,-0.92188 0.15625,-1.65625 0.15625,-0.73438 0.48437,-1.25 0.32813,-0.53125 0.84375,-0.8125 0.51563,-0.29688 1.21875,-0.29688 0.32813,0 0.5625,0.0781 0.25,0.0625 0.48438,0.17187 z"
       fill-rule="nonzero"
       id="path83" />
    <path
       fill="#000000"
       fill-opacity="0"
       d="m 583.26404,161.81902 h 50.96063 v 37.16536 h -50.96063 z"
       fill-rule="evenodd"
       id="path85" />
    <path
       fill="#f3f3f3"
       d="m 598.0294,184.89902 h -1.28125 q -0.45313,-1.51563 -0.85938,-3.46875 -0.40625,-1.96875 -0.73437,-4.21875 h 1.23437 q 0.0625,0.625 0.17188,1.46875 0.125,0.84375 0.26562,1.73437 0.14063,0.875 0.28125,1.70313 0.15625,0.82812 0.28125,1.42187 0.14063,-0.59375 0.29688,-1.4375 0.17187,-0.85937 0.34375,-1.75 0.17187,-0.89062 0.3125,-1.73437 0.15625,-0.84375 0.23437,-1.40625 h 1.1875 q 0.0625,0.5625 0.1875,1.40625 0.125,0.82812 0.26563,1.73437 0.14062,0.89063 0.28125,1.75 0.15625,0.84375 0.26562,1.4375 0.125,-0.59375 0.26563,-1.42187 0.15625,-0.84375 0.29687,-1.71875 0.14063,-0.875 0.25,-1.71875 0.125,-0.84375 0.1875,-1.46875 h 1.20313 q -0.34375,2.25 -0.75,4.21875 -0.39063,1.95312 -0.85938,3.46875 h -1.21875 q -0.125,-0.45313 -0.26562,-1.15625 -0.14063,-0.71875 -0.28125,-1.51563 -0.125,-0.8125 -0.25,-1.625 -0.10938,-0.8125 -0.20313,-1.5 -0.0937,0.6875 -0.23437,1.5 -0.14063,0.8125 -0.3125,1.625 -0.15625,0.79688 -0.3125,1.51563 -0.15625,0.70312 -0.25,1.15625 z m 9.69495,-6.54688 q -0.46875,-0.20312 -1.04688,-0.20312 -0.54687,0 -1.01562,0.1875 v 6.5625 h -1.26563 v -7.35938 q 0.42188,-0.20312 0.96875,-0.34375 0.5625,-0.14062 1.21875,-0.14062 0.34375,0 0.6875,0.0469 0.35938,0.0469 0.67188,0.15625 z m 2.74475,6.54688 h -1.26563 v -7.6875 h 1.26563 z m -0.64063,-9.0625 q -0.32812,0 -0.57812,-0.21875 -0.23438,-0.23438 -0.23438,-0.60938 0,-0.39062 0.23438,-0.60937 0.25,-0.23438 0.57812,-0.23438 0.34375,0 0.57813,0.23438 0.25,0.21875 0.25,0.60937 0,0.375 -0.25,0.60938 -0.23438,0.21875 -0.57813,0.21875 z m 4.09369,1.375 h 1.9375 v 1.07812 h -1.9375 v 4.23438 q 0,0.79687 0.28125,1.10937 0.29688,0.3125 0.78125,0.3125 0.25,0 0.46875,-0.0625 0.23438,-0.0781 0.39063,-0.1875 l 0.25,1.01563 q -0.59375,0.34375 -1.28125,0.34375 -1.07813,0 -1.60938,-0.60938 -0.53125,-0.60937 -0.53125,-2.01562 v -7.29688 l 1.25,-0.21875 z m 4.33447,4.21875 q 0,0.54687 0.0937,1.01562 0.0937,0.45313 0.28125,0.8125 0.20313,0.34375 0.53125,0.53125 0.32813,0.1875 0.84375,0.1875 0.42188,0 0.78125,-0.125 0.35938,-0.125 0.53125,-0.21875 l 0.23438,1.01563 q -0.20313,0.125 -0.65625,0.28125 -0.4375,0.15625 -1.04688,0.15625 -0.8125,0 -1.35937,-0.28125 -0.54688,-0.29688 -0.89063,-0.82813 -0.34375,-0.53125 -0.5,-1.26562 -0.14062,-0.73438 -0.14062,-1.60938 0,-2.125 0.70312,-3.10937 0.70313,-0.98438 1.85938,-0.98438 1.3125,0 1.84375,0.98438 0.54687,0.98437 0.54687,2.76562 0,0.15625 0,0.32813 0,0.15625 -0.0156,0.34375 z m 1.26563,-3.34375 q -0.625,0 -0.92188,0.625 -0.28125,0.625 -0.34375,1.6875 h 2.34375 q 0,-1.0625 -0.23437,-1.6875 -0.21875,-0.625 -0.84375,-0.625 z"
       fill-rule="nonzero"
       id="path87" />
    <path
       fill="#6fa8dc"
       d="m 371.27298,223.44882 h 177.92123 v 44.15747 H 371.27298 Z"
       fill-rule="evenodd"
       id="path89" />
    <path
       stroke="#595959"
       stroke-width="1"
       stroke-linejoin="round"
       stroke-linecap="butt"
       d="m 371.27298,223.44882 h 177.92123 v 44.15747 H 371.27298 Z"
       fill-rule="evenodd"
       id="path91" />
    <path
       fill="#000000"
       fill-opacity="0"
       d="m 379.6525,224.51968 h 29.60629 v 42.01575 H 379.6525 Z"
       fill-rule="evenodd"
       id="path93" />
    <path
       fill="#f3f3f3"
       d="m 389.965,241.0803 q 0.34375,-0.20313 0.71875,-0.5 0.39062,-0.29688 0.75,-0.64063 0.35937,-0.34375 0.65625,-0.70312 0.3125,-0.375 0.51562,-0.71875 H 393.84 v 12.92187 h -1.60938 v -10.39062 q -0.3125,0.32812 -0.73437,0.64062 -0.42188,0.29688 -0.89063,0.54688 z"
       fill-rule="nonzero"
       id="path95" />
    <path
       fill="#000000"
       fill-opacity="0"
       d="M 415.65353,224.32808 V 268.3281"
       fill-rule="evenodd"
       id="path97" />
    <path
       stroke="#595959"
       stroke-width="1"
       stroke-linejoin="round"
       stroke-linecap="butt"
       d="M 415.65353,224.32808 V 268.3281"
       fill-rule="evenodd"
       id="path99" />
    <path
       fill="#000000"
       fill-opacity="0"
       d="M 459.66248,224.32808 V 268.3281"
       fill-rule="evenodd"
       id="path101" />
    <path
       stroke="#595959"
       stroke-width="1"
       stroke-linejoin="round"
       stroke-linecap="butt"
       d="M 459.66248,224.32808 V 268.3281"
       fill-rule="evenodd"
       id="path103" />
    <path
       fill="#000000"
       fill-opacity="0"
       d="m 423.6538,224.51968 h 29.60629 v 42.01575 H 423.6538 Z"
       fill-rule="evenodd"
       id="path105" />
    <path
       fill="#f3f3f3"
       d="m 435.274,239.31468 q 1.09375,-1.10938 2.67187,-1.10938 1.51563,0 2.3125,0.79688 0.8125,0.79687 0.8125,2.46875 0,0.79687 -0.26562,1.5 -0.26563,0.70312 -0.65625,1.375 -0.39063,0.65625 -0.85938,1.3125 -0.45312,0.65625 -0.89062,1.34375 -0.42188,0.67187 -0.75,1.40625 -0.3125,0.73437 -0.39063,1.57812 h 4.07813 v 1.45313 h -5.79688 v -0.35938 q 0,-1.25 0.28125,-2.21875 0.29688,-0.96875 0.71875,-1.75 0.42188,-0.78125 0.92188,-1.45312 0.51562,-0.67188 0.92187,-1.3125 0.42188,-0.65625 0.70313,-1.32813 0.29687,-0.6875 0.29687,-1.5 0,-0.98437 -0.39062,-1.42187 -0.39063,-0.45313 -1.17188,-0.45313 -0.54687,0 -0.98437,0.21875 -0.4375,0.21875 -0.78125,0.54688 z"
       fill-rule="nonzero"
       id="path107" />
    <path
       fill="#000000"
       fill-opacity="0"
       d="M 459.6614,224.32808 V 268.3281"
       fill-rule="evenodd"
       id="path109" />
    <path
       stroke="#595959"
       stroke-width="1"
       stroke-linejoin="round"
       stroke-linecap="butt"
       d="M 459.6614,224.32808 V 268.3281"
       fill-rule="evenodd"
       id="path111" />
    <path
       fill="#000000"
       fill-opacity="0"
       d="M 505.27823,224.32808 V 268.3281"
       fill-rule="evenodd"
       id="path113" />
    <path
       stroke="#595959"
       stroke-width="1"
       stroke-linejoin="round"
       stroke-linecap="butt"
       d="M 505.27823,224.32808 V 268.3281"
       fill-rule="evenodd"
       id="path115" />
    <path
       fill="#000000"
       fill-opacity="0"
       d="m 469.26956,224.51968 h 29.60629 v 42.01575 h -29.60629 z"
       fill-rule="evenodd"
       id="path117" />
    <path
       fill="#f3f3f3"
       d="m 483.06644,244.48656 q 0.9375,0.32812 1.4375,1.1875 0.51562,0.84375 0.51562,2.1875 0,1.78125 -0.875,2.82812 -0.85937,1.03125 -2.60937,1.03125 -0.6875,0 -1.34375,-0.20312 -0.65625,-0.20313 -1.14063,-0.54688 l 0.4375,-1.29687 q 0.42188,0.25 0.89063,0.4375 0.48437,0.1875 1,0.1875 0.95312,0 1.48437,-0.57813 0.53125,-0.59375 0.53125,-1.875 0,-1.29687 -0.59375,-1.9375 -0.57812,-0.65625 -1.85937,-0.65625 h -0.48438 v -1.375 h 0.40625 q 1.125,0 1.65625,-0.59375 0.54688,-0.59375 0.54688,-1.65625 0,-1.01562 -0.4375,-1.5 -0.42188,-0.5 -1.125,-0.5 -0.48438,0 -0.9375,0.1875 -0.4375,0.1875 -0.75,0.46875 l -0.625,-1.17187 q 0.48437,-0.45313 1.14062,-0.67188 0.65625,-0.23437 1.3125,-0.23437 1.45313,0 2.23438,0.92187 0.79687,0.90625 0.79687,2.42188 0,1.0625 -0.42187,1.8125 -0.42188,0.73437 -1.1875,1.125 z"
       fill-rule="nonzero"
       id="path119" />
    <path
       fill="#000000"
       fill-opacity="0"
       d="m 548.5748,225.21837 v 44.00001"
       fill-rule="evenodd"
       id="path121" />
    <path
       stroke="#595959"
       stroke-width="1"
       stroke-linejoin="round"
       stroke-linecap="butt"
       d="m 548.5748,225.21837 v 44.00001"
       fill-rule="evenodd"
       id="path123" />
    <path
       fill="#6fa8dc"
       d="m 548.5748,223.44186 h 177.92126 v 44.15747 H 548.5748 Z"
       fill-rule="evenodd"
       id="path125" />
    <path
       stroke="#595959"
       stroke-width="1"
       stroke-linejoin="round"
       stroke-linecap="butt"
       d="m 548.5748,223.44186 h 177.92126 v 44.15747 H 548.5748 Z"
       fill-rule="evenodd"
       id="path127" />
    <path
       fill="#000000"
       fill-opacity="0"
       d="m 636.9643,224.32112 v 44.00002"
       fill-rule="evenodd"
       id="path129" />
    <path
       stroke="#595959"
       stroke-width="1"
       stroke-linejoin="round"
       stroke-linecap="butt"
       d="m 636.9643,224.32112 v 44.00002"
       fill-rule="evenodd"
       id="path131" />
    <path
       fill="#000000"
       fill-opacity="0"
       d="m 600.9556,224.51273 h 29.60632 v 42.01575 H 600.9556 Z"
       fill-rule="evenodd"
       id="path133" />
    <path
       fill="#f3f3f3"
       d="m 618.2477,239.77647 q -0.71875,0.0937 -1.3125,0.3125 -0.57813,0.20312 -1.04688,0.67187 -0.46875,0.45313 -0.78125,1.20313 -0.29687,0.73437 -0.45312,1.85937 0.39062,-0.17187 0.75,-0.23437 0.375,-0.0781 0.6875,-0.0781 1.34375,0 2.07812,1.04688 0.73438,1.04687 0.73438,2.90625 0,1.96875 -0.70313,3.10937 -0.6875,1.14063 -2.20312,1.14063 -0.76563,0 -1.34375,-0.29688 -0.57813,-0.29687 -0.96875,-0.96875 -0.375,-0.6875 -0.57813,-1.79687 -0.1875,-1.125 -0.1875,-2.71875 0,-1.40625 0.26563,-2.71875 0.28125,-1.32813 0.875,-2.35938 0.60937,-1.04687 1.59375,-1.6875 0.98437,-0.65625 2.42187,-0.71875 z m -2.54688,5.03125 q -0.29687,0 -0.59375,0.10937 -0.29687,0.0937 -0.5625,0.25 -0.0156,0.21875 -0.0156,0.45313 0,0.23437 0,0.48437 0,0.84375 0.0469,1.625 0.0469,0.78125 0.1875,1.375 0.15625,0.57813 0.4375,0.92188 0.29688,0.34375 0.78125,0.34375 0.73438,0 1.01563,-0.76563 0.29687,-0.78125 0.29687,-2.07812 0,-1.39063 -0.39062,-2.04688 -0.375,-0.67187 -1.20313,-0.67187 z"
       fill-rule="nonzero"
       id="path135" />
    <path
       fill="#000000"
       fill-opacity="0"
       d="m 636.96326,224.32112 v 44.00002"
       fill-rule="evenodd"
       id="path137" />
    <path
       stroke="#595959"
       stroke-width="1"
       stroke-linejoin="round"
       stroke-linecap="butt"
       d="m 636.96326,224.32112 v 44.00002"
       fill-rule="evenodd"
       id="path139" />
    <path
       fill="#000000"
       fill-opacity="0"
       d="m 682.5801,224.32112 v 44.00002"
       fill-rule="evenodd"
       id="path141" />
    <path
       stroke="#595959"
       stroke-width="1"
       stroke-linejoin="round"
       stroke-linecap="butt"
       d="m 682.5801,224.32112 v 44.00002"
       fill-rule="evenodd"
       id="path143" />
    <path
       fill="#000000"
       fill-opacity="0"
       d="m 646.5714,224.51273 h 29.60626 v 42.01575 H 646.5714 Z"
       fill-rule="evenodd"
       id="path145" />
    <path
       fill="#f3f3f3"
       d="m 659.5041,251.43272 q 0.0469,-0.89063 0.20312,-1.92188 0.15625,-1.04687 0.39063,-2.10937 0.25,-1.0625 0.53125,-2.125 0.29687,-1.07813 0.625,-2.0625 0.34375,-0.98438 0.67187,-1.8125 0.34375,-0.84375 0.6875,-1.48438 h -4.40625 v -1.40625 h 6.20313 v 1.25 q -0.4375,0.71875 -0.98438,1.98438 -0.54687,1.25 -1.01562,2.82812 -0.46875,1.57813 -0.82813,3.35938 -0.35937,1.76562 -0.4375,3.5 z"
       fill-rule="nonzero"
       id="path147" />
    <path
       fill="#000000"
       fill-opacity="0"
       d="m 725.87665,225.21141 v 44.00002"
       fill-rule="evenodd"
       id="path149" />
    <path
       stroke="#595959"
       stroke-width="1"
       stroke-linejoin="round"
       stroke-linecap="butt"
       d="m 725.87665,225.21141 v 44.00002"
       fill-rule="evenodd"
       id="path151" />
    <path
       fill="#000000"
       fill-opacity="0"
       d="m 512.1239,224.5214 h 29.60626 v 42.01575 H 512.1239 Z"
       fill-rule="evenodd"
       id="path153" />
    <path
       fill="#f3f3f3"
       d="m 521.90515,247.11327 q 0.34375,-1.15625 0.85938,-2.4375 0.53125,-1.29688 1.07812,-2.48438 0.5625,-1.20312 1.07813,-2.17187 0.51562,-0.96875 0.82812,-1.5 h 1.64063 v 8.4375 h 1.26562 v 1.32812 h -1.26562 v 3.15625 h -1.46875 v -3.15625 h -4.01563 z m 4.01563,-0.15625 v -6.29688 q -0.28125,0.57813 -0.65625,1.32813 -0.35938,0.73437 -0.71875,1.57812 -0.35938,0.84375 -0.70313,1.71875 -0.32812,0.85938 -0.57812,1.67188 z"
       fill-rule="nonzero"
       id="path155" />
    <path
       fill="#000000"
       fill-opacity="0"
       d="m 593.1732,223.51181 v 44"
       fill-rule="evenodd"
       id="path157" />
    <path
       stroke="#595959"
       stroke-width="1"
       stroke-linejoin="round"
       stroke-linecap="butt"
       d="m 593.1732,223.51181 v 44"
       fill-rule="evenodd"
       id="path159" />
    <path
       fill="#000000"
       fill-opacity="0"
       d="m 556.1509,224.51273 h 29.60632 v 42.01575 H 556.1509 Z"
       fill-rule="evenodd"
       id="path161" />
    <path
       fill="#f3f3f3"
       d="m 570.5055,239.90147 q -0.0937,1.34375 -0.14063,2.25 -0.0312,0.89062 -0.0625,1.40625 1.75,0.25 2.5625,1.28125 0.82813,1.01562 0.82813,2.76562 0,1 -0.28125,1.76563 -0.28125,0.75 -0.78125,1.28125 -0.48438,0.51562 -1.15625,0.78125 -0.67188,0.28125 -1.45313,0.28125 -0.54687,0 -1.10937,-0.15625 -0.54688,-0.14063 -1.03125,-0.42188 l 0.4375,-1.32812 q 0.8125,0.45312 1.64062,0.45312 0.90625,0 1.51563,-0.65625 0.625,-0.65625 0.625,-2 0,-1.46875 -0.84375,-2.10937 -0.82813,-0.64063 -2.51563,-0.71875 0.0937,-0.9375 0.14063,-1.70313 0.0625,-0.78125 0.0937,-1.51562 0.0469,-0.73438 0.0625,-1.46875 0.0312,-0.75 0.0469,-1.57813 h 4.375 v 1.39063 z"
       fill-rule="nonzero"
       id="path163" />
    <path
       fill="#6fa8dc"
       d="m 683.9759,223.6523 h 50.11029 v 44.00001 H 683.9759 Z"
       fill-rule="evenodd"
       id="path165" />
    <path
       fill="#000000"
       fill-opacity="0"
       d="m 734.27875,223.62311 v 44"
       fill-rule="evenodd"
       id="path167" />
    <path
       stroke="#595959"
       stroke-width="1"
       stroke-linejoin="round"
       stroke-linecap="butt"
       stroke-dasharray="4, 3"
       d="m 734.27875,223.62311 v 44"
       fill-rule="evenodd"
       id="path169" />
    <path
       fill="#000000"
       fill-opacity="0"
       d="m 683.4677,267.731 h 50.96063"
       fill-rule="evenodd"
       id="path171" />
    <path
       stroke="#595959"
       stroke-width="1"
       stroke-linejoin="round"
       stroke-linecap="butt"
       stroke-dasharray="4, 3"
       d="m 683.4677,267.731 h 50.96063"
       fill-rule="evenodd"
       id="path173" />
    <path
       fill="#cccccc"
       fill-opacity="0.4762"
       d="m 682.5811,224.29803 h 52.47241 v 42.01575 H 682.5811 Z"
       fill-rule="evenodd"
       id="path175" />
    <path
       fill="#efefef"
       d="m 711.75934,241.13991 q 0,1.07812 -0.53125,1.96875 -0.53125,0.89062 -1.23438,1.54687 0.78125,0.57813 1.35938,1.39063 0.57812,0.8125 0.57812,1.92187 0,0.875 -0.28125,1.54688 -0.26562,0.65625 -0.70312,1.09375 -0.4375,0.4375 -1,0.65625 -0.54688,0.23437 -1.14063,0.23437 -0.70312,0 -1.28125,-0.25 -0.57812,-0.25 -0.98437,-0.6875 -0.40625,-0.4375 -0.64063,-1.04687 -0.21875,-0.625 -0.21875,-1.35938 0,-1.15625 0.51563,-2.0625 0.51562,-0.90625 1.375,-1.59375 -0.71875,-0.53125 -1.17188,-1.35937 -0.4375,-0.84375 -0.4375,-1.95313 0,-0.84375 0.25,-1.45312 0.26563,-0.60938 0.6875,-1 0.42188,-0.39063 0.9375,-0.5625 0.53125,-0.1875 1.07813,-0.1875 0.51562,0 1.03125,0.1875 0.51562,0.17187 0.92187,0.5625 0.40625,0.375 0.64063,0.98437 0.25,0.59375 0.25,1.42188 z m -1.39063,6.9375 q 0,-0.48438 -0.15625,-0.89063 -0.15625,-0.42187 -0.42187,-0.78125 -0.26563,-0.375 -0.59375,-0.67187 -0.32813,-0.29688 -0.67188,-0.5625 -0.54687,0.5 -0.90625,1.17187 -0.34375,0.67188 -0.34375,1.6875 0,1 0.40625,1.60938 0.42188,0.60937 1.15625,0.60937 0.60938,0 1.0625,-0.54687 0.46875,-0.5625 0.46875,-1.625 z m -2.84375,-7.10938 q 0,0.60938 0.0937,1.0625 0.0937,0.45313 0.28125,0.79688 0.1875,0.34375 0.45313,0.625 0.28125,0.28125 0.625,0.53125 0.53125,-0.54688 0.85937,-1.15625 0.32813,-0.60938 0.32813,-1.57813 0,-1.125 -0.375,-1.5625 -0.375,-0.45312 -0.92188,-0.45312 -0.20312,0 -0.45312,0.0781 -0.23438,0.0781 -0.4375,0.28125 -0.1875,0.1875 -0.32813,0.53125 -0.125,0.32813 -0.125,0.84375 z"
       fill-rule="nonzero"
       id="path177" />
  </g>
</svg>
