<?xml version="1.0" encoding="UTF-8" standalone="no"?>
<svg
   version="1.1"
   viewBox="0 0 828.24805 256.21259"
   fill="none"
   stroke="none"
   stroke-linecap="square"
   stroke-miterlimit="10"
   id="svg485"
   sodipodi:docname="insync-replicas.svg"
   width="828.24805"
   height="256.21259"
   inkscape:version="1.2.2 (b0a8486541, 2022-12-01)"
   xmlns:inkscape="http://www.inkscape.org/namespaces/inkscape"
   xmlns:sodipodi="http://sodipodi.sourceforge.net/DTD/sodipodi-0.dtd"
   xmlns="http://www.w3.org/2000/svg"
   xmlns:svg="http://www.w3.org/2000/svg">
  <defs
     id="defs489" />
  <sodipodi:namedview
     id="namedview487"
     pagecolor="#ffffff"
     bordercolor="#666666"
     borderopacity="1.0"
     inkscape:showpageshadow="2"
     inkscape:pageopacity="0.0"
     inkscape:pagecheckerboard="0"
     inkscape:deskcolor="#d1d1d1"
     showgrid="false"
     inkscape:zoom="1.3552083"
     inkscape:cx="433.14374"
     inkscape:cy="94.450423"
     inkscape:window-width="1920"
     inkscape:window-height="1011"
     inkscape:window-x="0"
     inkscape:window-y="32"
     inkscape:window-maximized="1"
     inkscape:current-layer="svg485" />
  <clipPath
     id="g181d49305e0_0_0.0">
    <path
       d="M 0,0 H 960 V 540 H 0 Z"
       clip-rule="nonzero"
       id="path2" />
  </clipPath>
  <g
     clip-path="url(#g181d49305e0_0_0.0)"
     id="g483"
     transform="translate(-29.052494,-175.5)">
    <path
       fill="#000000"
       fill-opacity="0"
       d="m 136.80052,176 h 720 v 255.21259 h -720 z"
       fill-rule="evenodd"
       id="path7" />
    <path
       stroke="#f3f3f3"
       stroke-width="1"
       stroke-linejoin="round"
       stroke-linecap="butt"
       d="m 136.80052,176 h 720 v 255.21259 h -720 z"
       fill-rule="evenodd"
       id="path9" />
    <path
       fill="#e06666"
       d="m 785.8652,202.08957 h 50.11023 v 44 H 785.8652 Z"
       fill-rule="evenodd"
       id="path11" />
    <path
       fill="#e06666"
       d="m 256.88986,201.98163 h 528.4724 v 44.15749 h -528.4724 z"
       fill-rule="evenodd"
       id="path13" />
    <path
       stroke="#595959"
       stroke-width="1"
       stroke-linejoin="round"
       stroke-linecap="butt"
       d="m 256.88986,201.98163 h 528.4724 v 44.15749 h -528.4724 z"
       fill-rule="evenodd"
       id="path15" />
    <path
       fill="#000000"
       fill-opacity="0"
       d="m 265.2693,203.05249 h 29.60629 v 42.01575 H 265.2693 Z"
       fill-rule="evenodd"
       id="path17" />
    <path
       fill="#f3f3f3"
       d="m 275.5818,219.61311 q 0.34375,-0.20313 0.71875,-0.5 0.39062,-0.29688 0.75,-0.64063 0.35937,-0.34375 0.65625,-0.70312 0.3125,-0.375 0.51562,-0.71875 h 1.23438 v 12.92187 h -1.60938 v -10.39062 q -0.3125,0.32812 -0.73437,0.64062 -0.42188,0.29688 -0.89063,0.54688 z"
       fill-rule="nonzero"
       id="path19" />
    <path
       fill="#000000"
       fill-opacity="0"
       d="m 301.27036,202.86089 v 44"
       fill-rule="evenodd"
       id="path21" />
    <path
       stroke="#595959"
       stroke-width="1"
       stroke-linejoin="round"
       stroke-linecap="butt"
       d="m 301.27036,202.86089 v 44"
       fill-rule="evenodd"
       id="path23" />
    <path
       fill="#000000"
       fill-opacity="0"
       d="m 345.27927,202.86089 v 44"
       fill-rule="evenodd"
       id="path25" />
    <path
       stroke="#595959"
       stroke-width="1"
       stroke-linejoin="round"
       stroke-linecap="butt"
       d="m 345.27927,202.86089 v 44"
       fill-rule="evenodd"
       id="path27" />
    <path
       fill="#000000"
       fill-opacity="0"
       d="m 309.2706,203.05249 h 29.60629 v 42.01575 H 309.2706 Z"
       fill-rule="evenodd"
       id="path29" />
    <path
       fill="#f3f3f3"
       d="m 320.89078,217.84749 q 1.09375,-1.10938 2.67187,-1.10938 1.51563,0 2.3125,0.79688 0.8125,0.79687 0.8125,2.46875 0,0.79687 -0.26562,1.5 -0.26563,0.70312 -0.65625,1.375 -0.39063,0.65625 -0.85938,1.3125 -0.45312,0.65625 -0.89062,1.34375 -0.42188,0.67187 -0.75,1.40625 -0.3125,0.73437 -0.39063,1.57812 h 4.07813 v 1.45313 h -5.79688 v -0.35938 q 0,-1.25 0.28125,-2.21875 0.29688,-0.96875 0.71875,-1.75 0.42188,-0.78125 0.92188,-1.45312 0.51562,-0.67188 0.92187,-1.3125 0.42188,-0.65625 0.70313,-1.32813 0.29687,-0.6875 0.29687,-1.5 0,-0.98437 -0.39062,-1.42187 -0.39063,-0.45313 -1.17188,-0.45313 -0.54687,0 -0.98437,0.21875 -0.4375,0.21875 -0.78125,0.54688 z"
       fill-rule="nonzero"
       id="path31" />
    <path
       fill="#000000"
       fill-opacity="0"
       d="m 345.27823,202.86089 v 44"
       fill-rule="evenodd"
       id="path33" />
    <path
       stroke="#595959"
       stroke-width="1"
       stroke-linejoin="round"
       stroke-linecap="butt"
       d="m 345.27823,202.86089 v 44"
       fill-rule="evenodd"
       id="path35" />
    <path
       fill="#000000"
       fill-opacity="0"
       d="m 389.28714,202.86089 v 44"
       fill-rule="evenodd"
       id="path37" />
    <path
       stroke="#595959"
       stroke-width="1"
       stroke-linejoin="round"
       stroke-linecap="butt"
       d="m 389.28714,202.86089 v 44"
       fill-rule="evenodd"
       id="path39" />
    <path
       fill="#000000"
       fill-opacity="0"
       d="m 353.27847,203.05249 h 29.60629 v 42.01575 h -29.60629 z"
       fill-rule="evenodd"
       id="path41" />
    <path
       fill="#f3f3f3"
       d="m 368.8674,223.01936 q 0.9375,0.32812 1.4375,1.1875 0.51562,0.84375 0.51562,2.1875 0,1.78125 -0.875,2.82812 -0.85937,1.03125 -2.60937,1.03125 -0.6875,0 -1.34375,-0.20312 -0.65625,-0.20313 -1.14063,-0.54688 l 0.4375,-1.29687 q 0.42188,0.25 0.89063,0.4375 0.48437,0.1875 1,0.1875 0.95312,0 1.48437,-0.57813 0.53125,-0.59375 0.53125,-1.875 0,-1.29687 -0.59375,-1.9375 -0.57812,-0.65625 -1.85937,-0.65625 h -0.48438 v -1.375 h 0.40625 q 1.125,0 1.65625,-0.59375 0.54688,-0.59375 0.54688,-1.65625 0,-1.01562 -0.4375,-1.5 -0.42188,-0.5 -1.125,-0.5 -0.48438,0 -0.9375,0.1875 -0.4375,0.1875 -0.75,0.46875 l -0.625,-1.17187 q 0.48437,-0.45313 1.14062,-0.67188 0.65625,-0.23437 1.3125,-0.23437 1.45313,0 2.23438,0.92187 0.79687,0.90625 0.79687,2.42188 0,1.0625 -0.42187,1.8125 -0.42188,0.73437 -1.1875,1.125 z"
       fill-rule="nonzero"
       id="path43" />
    <path
       fill="#000000"
       fill-opacity="0"
       d="m 389.2861,202.86089 v 44"
       fill-rule="evenodd"
       id="path45" />
    <path
       stroke="#595959"
       stroke-width="1"
       stroke-linejoin="round"
       stroke-linecap="butt"
       d="m 389.2861,202.86089 v 44"
       fill-rule="evenodd"
       id="path47" />
    <path
       fill="#000000"
       fill-opacity="0"
       d="m 433.295,202.86089 v 44"
       fill-rule="evenodd"
       id="path49" />
    <path
       stroke="#595959"
       stroke-width="1"
       stroke-linejoin="round"
       stroke-linecap="butt"
       d="m 433.295,202.86089 v 44"
       fill-rule="evenodd"
       id="path51" />
    <path
       fill="#000000"
       fill-opacity="0"
       d="m 397.28635,203.05249 h 29.60629 v 42.01575 h -29.60629 z"
       fill-rule="evenodd"
       id="path53" />
    <path
       fill="#f3f3f3"
       d="m 408.5937,229.97249 v -1.875 h 1.875 v 1.875 z m 5.18332,0 v -1.875 h 1.875 v 1.875 z"
       fill-rule="nonzero"
       id="path55" />
    <path
       fill="#000000"
       fill-opacity="0"
       d="m 433.29398,202.86089 v 44"
       fill-rule="evenodd"
       id="path57" />
    <path
       stroke="#595959"
       stroke-width="1"
       stroke-linejoin="round"
       stroke-linecap="butt"
       d="m 433.29398,202.86089 v 44"
       fill-rule="evenodd"
       id="path59" />
    <path
       fill="#000000"
       fill-opacity="0"
       d="m 477.3029,202.86089 v 44"
       fill-rule="evenodd"
       id="path61" />
    <path
       stroke="#595959"
       stroke-width="1"
       stroke-linejoin="round"
       stroke-linecap="butt"
       d="m 477.3029,202.86089 v 44"
       fill-rule="evenodd"
       id="path63" />
    <path
       fill="#000000"
       fill-opacity="0"
       d="m 441.29422,203.05249 h 29.60629 v 42.01575 h -29.60629 z"
       fill-rule="evenodd"
       id="path65" />
    <path
       fill="#f3f3f3"
       d="m 452.60156,229.97249 v -1.875 h 1.875 v 1.875 z m 5.18332,0 v -1.875 h 1.875 v 1.875 z"
       fill-rule="nonzero"
       id="path67" />
    <path
       fill="#000000"
       fill-opacity="0"
       d="m 477.30185,202.86089 v 44"
       fill-rule="evenodd"
       id="path69" />
    <path
       stroke="#595959"
       stroke-width="1"
       stroke-linejoin="round"
       stroke-linecap="butt"
       d="m 477.30185,202.86089 v 44"
       fill-rule="evenodd"
       id="path71" />
    <path
       fill="#000000"
       fill-opacity="0"
       d="m 521.3108,202.86089 v 44"
       fill-rule="evenodd"
       id="path73" />
    <path
       stroke="#595959"
       stroke-width="1"
       stroke-linejoin="round"
       stroke-linecap="butt"
       d="m 521.3108,202.86089 v 44"
       fill-rule="evenodd"
       id="path75" />
    <path
       fill="#000000"
       fill-opacity="0"
       d="m 485.3021,203.05249 h 29.60629 v 42.01575 H 485.3021 Z"
       fill-rule="evenodd"
       id="path77" />
    <path
       fill="#f3f3f3"
       d="m 496.60944,229.97249 v -1.875 h 1.875 v 1.875 z m 5.18332,0 v -1.875 h 1.875 v 1.875 z"
       fill-rule="nonzero"
       id="path79" />
    <path
       fill="#000000"
       fill-opacity="0"
       d="m 521.3097,202.86089 v 44"
       fill-rule="evenodd"
       id="path81" />
    <path
       stroke="#595959"
       stroke-width="1"
       stroke-linejoin="round"
       stroke-linecap="butt"
       d="m 521.3097,202.86089 v 44"
       fill-rule="evenodd"
       id="path83" />
    <path
       fill="#000000"
       fill-opacity="0"
       d="m 565.31866,202.86089 v 44"
       fill-rule="evenodd"
       id="path85" />
    <path
       stroke="#595959"
       stroke-width="1"
       stroke-linejoin="round"
       stroke-linecap="butt"
       d="m 565.31866,202.86089 v 44"
       fill-rule="evenodd"
       id="path87" />
    <path
       fill="#000000"
       fill-opacity="0"
       d="m 529.31,203.05249 h 29.60626 v 42.01575 H 529.31 Z"
       fill-rule="evenodd"
       id="path89" />
    <path
       fill="#f3f3f3"
       d="m 540.6173,229.97249 v -1.875 h 1.875 v 1.875 z m 5.18329,0 v -1.875 h 1.875 v 1.875 z"
       fill-rule="nonzero"
       id="path91" />
    <path
       fill="#000000"
       fill-opacity="0"
       d="m 565.31757,202.86089 v 44"
       fill-rule="evenodd"
       id="path93" />
    <path
       stroke="#595959"
       stroke-width="1"
       stroke-linejoin="round"
       stroke-linecap="butt"
       d="m 565.31757,202.86089 v 44"
       fill-rule="evenodd"
       id="path95" />
    <path
       fill="#000000"
       fill-opacity="0"
       d="m 609.32654,202.86089 v 44"
       fill-rule="evenodd"
       id="path97" />
    <path
       stroke="#595959"
       stroke-width="1"
       stroke-linejoin="round"
       stroke-linecap="butt"
       d="m 609.32654,202.86089 v 44"
       fill-rule="evenodd"
       id="path99" />
    <path
       fill="#000000"
       fill-opacity="0"
       d="m 573.3179,203.05249 h 29.60626 v 42.01575 H 573.3179 Z"
       fill-rule="evenodd"
       id="path101" />
    <path
       fill="#f3f3f3"
       d="m 584.6252,229.97249 v -1.875 h 1.875 v 1.875 z m 5.18329,0 v -1.875 h 1.875 v 1.875 z"
       fill-rule="nonzero"
       id="path103" />
    <path
       fill="#000000"
       fill-opacity="0"
       d="m 609.32544,202.06036 v 44"
       fill-rule="evenodd"
       id="path105" />
    <path
       stroke="#595959"
       stroke-width="1"
       stroke-linejoin="round"
       stroke-linecap="butt"
       d="m 609.32544,202.06036 v 44"
       fill-rule="evenodd"
       id="path107" />
    <path
       fill="#000000"
       fill-opacity="0"
       d="m 653.3344,202.06036 v 44"
       fill-rule="evenodd"
       id="path109" />
    <path
       stroke="#595959"
       stroke-width="1"
       stroke-linejoin="round"
       stroke-linecap="butt"
       d="m 653.3344,202.06036 v 44"
       fill-rule="evenodd"
       id="path111" />
    <path
       fill="#000000"
       fill-opacity="0"
       d="M 617.32574,202.25197 H 646.932 v 42.01575 h -29.60626 z"
       fill-rule="evenodd"
       id="path113" />
    <path
       fill="#f3f3f3"
       d="m 628.63306,229.17197 v -1.875 h 1.875 v 1.875 z m 5.18329,0 v -1.875 h 1.875 v 1.875 z"
       fill-rule="nonzero"
       id="path115" />
    <path
       fill="#000000"
       fill-opacity="0"
       d="m 653.3333,202.06036 v 44"
       fill-rule="evenodd"
       id="path117" />
    <path
       stroke="#595959"
       stroke-width="1"
       stroke-linejoin="round"
       stroke-linecap="butt"
       d="m 653.3333,202.06036 v 44"
       fill-rule="evenodd"
       id="path119" />
    <path
       fill="#000000"
       fill-opacity="0"
       d="m 697.3423,202.06036 v 44"
       fill-rule="evenodd"
       id="path121" />
    <path
       stroke="#595959"
       stroke-width="1"
       stroke-linejoin="round"
       stroke-linecap="butt"
       d="m 697.3423,202.06036 v 44"
       fill-rule="evenodd"
       id="path123" />
    <path
       fill="#000000"
       fill-opacity="0"
       d="m 661.3336,202.25197 h 29.60626 v 42.01575 H 661.3336 Z"
       fill-rule="evenodd"
       id="path125" />
    <path
       fill="#f3f3f3"
       d="m 672.6409,229.17197 v -1.875 h 1.875 v 1.875 z m 5.18329,0 v -1.875 h 1.875 v 1.875 z"
       fill-rule="nonzero"
       id="path127" />
    <path
       fill="#000000"
       fill-opacity="0"
       d="m 697.3412,202.06036 v 44"
       fill-rule="evenodd"
       id="path129" />
    <path
       stroke="#595959"
       stroke-width="1"
       stroke-linejoin="round"
       stroke-linecap="butt"
       d="m 697.3412,202.06036 v 44"
       fill-rule="evenodd"
       id="path131" />
    <path
       fill="#000000"
       fill-opacity="0"
       d="m 741.35016,202.06036 v 44"
       fill-rule="evenodd"
       id="path133" />
    <path
       stroke="#595959"
       stroke-width="1"
       stroke-linejoin="round"
       stroke-linecap="butt"
       d="m 741.35016,202.06036 v 44"
       fill-rule="evenodd"
       id="path135" />
    <path
       fill="#000000"
       fill-opacity="0"
       d="m 705.3415,202.25197 h 29.60626 v 42.01575 H 705.3415 Z"
       fill-rule="evenodd"
       id="path137" />
    <path
       fill="#f3f3f3"
       d="m 716.6488,229.17197 v -1.875 h 1.875 v 1.875 z m 5.18329,0 v -1.875 h 1.875 v 1.875 z"
       fill-rule="nonzero"
       id="path139" />
    <path
       fill="#000000"
       fill-opacity="0"
       d="m 741.34906,202.06036 v 44"
       fill-rule="evenodd"
       id="path141" />
    <path
       stroke="#595959"
       stroke-width="1"
       stroke-linejoin="round"
       stroke-linecap="butt"
       d="m 741.34906,202.06036 v 44"
       fill-rule="evenodd"
       id="path143" />
    <path
       fill="#000000"
       fill-opacity="0"
       d="m 785.35803,202.06036 v 44"
       fill-rule="evenodd"
       id="path145" />
    <path
       stroke="#595959"
       stroke-width="1"
       stroke-linejoin="round"
       stroke-linecap="butt"
       d="m 785.35803,202.06036 v 44"
       fill-rule="evenodd"
       id="path147" />
    <path
       fill="#000000"
       fill-opacity="0"
       d="m 749.34937,202.25197 h 29.60626 v 42.01575 h -29.60626 z"
       fill-rule="evenodd"
       id="path149" />
    <path
       fill="#f3f3f3"
       d="m 761.10944,219.65634 q 0.6875,-0.20313 1.48437,-0.34375 0.8125,-0.14063 1.48438,-0.14063 0.73437,0 1.32812,0.20313 0.59375,0.1875 1.01563,0.65625 0.42187,0.46875 0.65625,1.26562 0.23437,0.78125 0.23437,1.96875 v 5.90625 h -1.60937 v -5.78125 q 0,-1.45312 -0.375,-2.125 -0.375,-0.67187 -1.40625,-0.67187 -0.53125,0 -1.20313,0.1875 v 8.39062 h -1.60937 z"
       fill-rule="nonzero"
       id="path151" />
    <path
       fill="#000000"
       fill-opacity="0"
       d="m 836.16797,202.06036 v 44"
       fill-rule="evenodd"
       id="path153" />
    <path
       stroke="#595959"
       stroke-width="1"
       stroke-linejoin="round"
       stroke-linecap="butt"
       stroke-dasharray="4, 3"
       d="m 836.16797,202.06036 v 44"
       fill-rule="evenodd"
       id="path155" />
    <path
       fill="#000000"
       fill-opacity="0"
       d="m 785.2703,201.93655 h 51.05512"
       fill-rule="evenodd"
       id="path157" />
    <path
       stroke="#595959"
       stroke-width="1"
       stroke-linejoin="round"
       stroke-linecap="butt"
       stroke-dasharray="4, 3"
       d="m 785.2703,201.93655 h 51.05512"
       fill-rule="evenodd"
       id="path159" />
    <path
       fill="#000000"
       fill-opacity="0"
       d="m 785.35693,246.16824 h 50.96063"
       fill-rule="evenodd"
       id="path161" />
    <path
       stroke="#595959"
       stroke-width="1"
       stroke-linejoin="round"
       stroke-linecap="butt"
       stroke-dasharray="4, 3"
       d="m 785.35693,246.16824 h 50.96063"
       fill-rule="evenodd"
       id="path163" />
    <path
       fill="#000000"
       fill-opacity="0"
       d="M 29.052494,281.79266 H 127.4462 v 42.01575 H 29.052494 Z"
       fill-rule="evenodd"
       id="path165" />
    <path
       fill="#f3f3f3"
       d="m 39.614994,295.96265 q 1.3125,-0.3125 2.5625,-0.3125 0.96875,0 1.75,0.23437 0.796875,0.23438 1.359375,0.73438 0.578125,0.48437 0.890625,1.28125 0.3125,0.78125 0.3125,1.875 0,1.125 -0.328125,1.92187 -0.3125,0.78125 -0.890625,1.28125 -0.578125,0.48438 -1.390625,0.71875 -0.8125,0.21875 -1.796875,0.21875 h -0.78125 v 4.79688 h -1.6875 z m 1.6875,6.48437 h 0.671875 q 0.625,0 1.140625,-0.14062 0.515625,-0.14063 0.859375,-0.45313 0.359375,-0.32812 0.546875,-0.82812 0.1875,-0.5 0.1875,-1.25 0,-0.75 -0.1875,-1.25 -0.1875,-0.51563 -0.515625,-0.82813 -0.3125,-0.3125 -0.78125,-0.4375 -0.46875,-0.125 -1.03125,-0.125 -0.484375,0 -0.890625,0.0469 z m 7.034317,-3.32812 q 0.484375,-0.20313 1.015625,-0.3125 0.546875,-0.125 1.1875,-0.125 1.296875,0 2.109375,0.8125 0.828125,0.8125 0.828125,2.51562 v 6.5 q -0.671875,0.1875 -1.375,0.29688 -0.6875,0.10937 -1.359375,0.10937 -0.671875,0 -1.265625,-0.17187 -0.578125,-0.15625 -1.03125,-0.53125 -0.4375,-0.375 -0.703125,-0.9375 -0.25,-0.57813 -0.25,-1.39063 0,-0.76562 0.234375,-1.32812 0.234375,-0.57813 0.640625,-0.95313 0.40625,-0.39062 0.96875,-0.57812 0.5625,-0.20313 1.21875,-0.20313 0.609375,0 1.359375,0.14063 v -0.89063 q 0,-1.07812 -0.421875,-1.5 -0.421875,-0.4375 -1.203125,-0.4375 -0.421875,0 -0.8125,0.0937 -0.375,0.0781 -0.8125,0.25 z m 0.765625,6.73437 q 0,0.85938 0.4375,1.28125 0.453125,0.40625 1.265625,0.40625 0.515625,0 1.109375,-0.14062 v -3.10938 q -0.5625,-0.15625 -1.109375,-0.15625 -0.34375,0 -0.671875,0.0937 -0.3125,0.0781 -0.546875,0.28125 -0.234375,0.1875 -0.359375,0.51563 -0.125,0.32812 -0.125,0.82812 z m 11.409317,-5.48437 q -0.59375,-0.25 -1.34375,-0.25 -0.6875,0 -1.28125,0.23437 v 8.35938 h -1.609375 v -9.35938 q 0.546875,-0.26562 1.234375,-0.4375 0.703125,-0.1875 1.546875,-0.1875 0.453125,0 0.890625,0.0625 0.453125,0.0469 0.84375,0.20313 z m 3.384872,-1.45313 h 2.453122 v 1.39063 h -2.453122 v 5.39062 q 0,1 0.359372,1.40625 0.359375,0.39063 0.984375,0.39063 0.3125,0 0.59375,-0.0937 0.296875,-0.0937 0.5,-0.21875 l 0.3125,1.28125 q -0.765625,0.45312 -1.625,0.45312 -1.374997,0 -2.062497,-0.76562 -0.671875,-0.78125 -0.671875,-2.57813 v -9.28125 l 1.609375,-0.28125 z m 6.098034,9.79688 h -1.609375 v -9.79688 h 1.609375 z m -0.8125,-11.53125 q -0.421875,0 -0.734375,-0.28125 -0.296875,-0.29688 -0.296875,-0.78125 0,-0.48438 0.296875,-0.76563 0.3125,-0.29687 0.734375,-0.29687 0.4375,0 0.734375,0.29687 0.3125,0.28125 0.3125,0.76563 0,0.48437 -0.3125,0.78125 -0.296875,0.28125 -0.734375,0.28125 z m 5.217942,1.73437 h 2.453125 v 1.39063 h -2.453125 v 5.39062 q 0,1 0.359375,1.40625 0.359375,0.39063 0.984375,0.39063 0.3125,0 0.59375,-0.0937 0.296875,-0.0937 0.5,-0.21875 l 0.3125,1.28125 q -0.765625,0.45312 -1.625,0.45312 -1.375,0 -2.0625,-0.76562 -0.671875,-0.78125 -0.671875,-2.57813 v -9.28125 l 1.609375,-0.28125 z m 6.098037,9.79688 h -1.609375 v -9.79688 h 1.609375 z m -0.8125,-11.53125 q -0.421875,0 -0.734375,-0.28125 -0.296875,-0.29688 -0.296875,-0.78125 0,-0.48438 0.296875,-0.76563 0.3125,-0.29687 0.734375,-0.29687 0.4375,0 0.734375,0.29687 0.3125,0.28125 0.3125,0.76563 0,0.48437 -0.3125,0.78125 -0.296875,0.28125 -0.734375,0.28125 z m 10.014816,6.64062 q 0,1.15625 -0.21875,2.10938 -0.203125,0.9375 -0.625,1.60937 -0.40625,0.67188 -1.0625,1.04688 -0.640625,0.375 -1.515625,0.375 -0.875,0 -1.53125,-0.375 -0.65625,-0.375 -1.078125,-1.04688 -0.40625,-0.67187 -0.625,-1.60937 -0.203125,-0.95313 -0.203125,-2.10938 0,-1.14062 0.203125,-2.07812 0.21875,-0.95313 0.625,-1.64063 0.421875,-0.6875 1.078125,-1.04687 0.65625,-0.375 1.53125,-0.375 0.875,0 1.515625,0.375 0.65625,0.35937 1.0625,1.04687 0.421875,0.6875 0.625,1.64063 0.21875,0.9375 0.21875,2.07812 z m -1.6875,0 q 0,-0.8125 -0.09375,-1.5 -0.09375,-0.6875 -0.296875,-1.17187 -0.203125,-0.5 -0.546875,-0.76563 -0.328125,-0.26562 -0.796875,-0.26562 -0.484375,0 -0.8125,0.26562 -0.328125,0.26563 -0.546875,0.76563 -0.203125,0.48437 -0.296875,1.17187 -0.09375,0.6875 -0.09375,1.5 0,0.82813 0.09375,1.51563 0.09375,0.67187 0.296875,1.15625 0.21875,0.48437 0.546875,0.76562 0.328125,0.26563 0.8125,0.26563 0.46875,0 0.796875,-0.26563 0.34375,-0.28125 0.546875,-0.76562 0.203125,-0.48438 0.296875,-1.15625 0.09375,-0.6875 0.09375,-1.51563 z m 4.028473,-4.625 q 0.6875,-0.20312 1.484375,-0.34375 0.8125,-0.14062 1.484375,-0.14062 0.734375,0 1.328125,0.20312 0.59375,0.1875 1.015625,0.65625 0.421875,0.46875 0.65625,1.26563 0.234375,0.78125 0.234375,1.96875 v 5.90625 h -1.609375 v -5.78125 q 0,-1.45313 -0.375,-2.125 -0.375,-0.67188 -1.40625,-0.67188 -0.53125,0 -1.203125,0.1875 v 8.39063 h -1.609375 z m 12.489653,-0.84375 q 0.34375,-0.20312 0.71875,-0.5 0.39063,-0.29687 0.75,-0.64062 0.35938,-0.34375 0.65625,-0.70313 0.3125,-0.375 0.51563,-0.71875 h 1.23437 v 12.92188 h -1.60937 v -10.39063 q -0.3125,0.32813 -0.73438,0.64063 -0.42187,0.29687 -0.89062,0.54687 z"
       fill-rule="nonzero"
       id="path167" />
    <path
       fill="#000000"
       fill-opacity="0"
       d="m 147.19948,203.39108 h 98.39369 v 42.01575 h -98.39369 z"
       fill-rule="evenodd"
       id="path169" />
    <path
       fill="#f3f3f3"
       d="m 163.5276,228.87358 v 1.4375 h -5.76563 V 217.3892 h 1.6875 v 11.48438 z m 3.01404,-2.98438 q 0.0156,0.70313 0.125,1.29688 0.10937,0.59375 0.35937,1.03125 0.25,0.4375 0.67188,0.6875 0.42187,0.23437 1.07812,0.23437 0.53125,0 0.98438,-0.15625 0.46875,-0.17187 0.67187,-0.28125 l 0.29688,1.29688 q -0.23438,0.15625 -0.8125,0.35937 -0.5625,0.20313 -1.34375,0.20313 -1.03125,0 -1.73438,-0.375 -0.6875,-0.375 -1.14062,-1.04688 -0.4375,-0.67187 -0.625,-1.60937 -0.17188,-0.9375 -0.17188,-2.04688 0,-2.70312 0.89063,-3.95312 0.89062,-1.25 2.35937,-1.25 1.67188,0 2.35938,1.25 0.6875,1.25 0.6875,3.5 0,0.20312 0,0.42187 0,0.21875 -0.0156,0.4375 z m 1.60937,-4.25 q -0.79687,0 -1.15625,0.79688 -0.35937,0.79687 -0.4375,2.14062 h 2.96875 q 0,-1.35937 -0.28125,-2.14062 -0.28125,-0.79688 -1.09375,-0.79688 z m 5.57163,-0.92187 q 0.48437,-0.20313 1.01562,-0.3125 0.54688,-0.125 1.1875,-0.125 1.29688,0 2.10938,0.8125 0.82812,0.8125 0.82812,2.51562 v 6.5 q -0.67187,0.1875 -1.375,0.29688 -0.6875,0.10937 -1.35937,0.10937 -0.67188,0 -1.26563,-0.17187 -0.57812,-0.15625 -1.03125,-0.53125 -0.4375,-0.375 -0.70312,-0.9375 -0.25,-0.57813 -0.25,-1.39063 0,-0.76562 0.23437,-1.32812 0.23438,-0.57813 0.64063,-0.95313 0.40625,-0.39062 0.96875,-0.57812 0.5625,-0.20313 1.21875,-0.20313 0.60937,0 1.35937,0.14063 v -0.89063 q 0,-1.07812 -0.42187,-1.5 -0.42188,-0.4375 -1.20313,-0.4375 -0.42187,0 -0.8125,0.0937 -0.375,0.0781 -0.8125,0.25 z m 0.76562,6.73437 q 0,0.85938 0.4375,1.28125 0.45313,0.40625 1.26563,0.40625 0.51562,0 1.10937,-0.14062 v -3.10938 q -0.5625,-0.15625 -1.10937,-0.15625 -0.34375,0 -0.67188,0.0937 -0.3125,0.0781 -0.54687,0.28125 -0.23438,0.1875 -0.35938,0.51563 -0.125,0.32812 -0.125,0.82812 z m 11.39369,-5.46875 q -0.54687,-0.29687 -1.15625,-0.29687 -0.46875,0 -0.82812,0.1875 -0.34375,0.1875 -0.60938,0.625 -0.25,0.42187 -0.375,1.14062 -0.125,0.70313 -0.125,1.75 0,2.01563 0.53125,2.89063 0.53125,0.85937 1.60938,0.85937 0.20312,0 0.4375,-0.0312 0.25,-0.0312 0.51562,-0.10937 z m 0,-5.875 1.60938,-0.28125 v 14.21875 q -0.53125,0.23438 -1.20313,0.375 -0.67187,0.14063 -1.35937,0.14063 -2.01563,0 -2.92188,-1.28125 -0.90625,-1.29688 -0.90625,-3.89063 0,-1.17187 0.1875,-2.10937 0.20313,-0.95313 0.625,-1.60938 0.42188,-0.67187 1.07813,-1.03125 0.65625,-0.35937 1.54687,-0.35937 0.42188,0 0.73438,0.0781 0.3125,0.0781 0.60937,0.23438 z m 5.60309,9.78125 q 0.0156,0.70313 0.125,1.29688 0.10938,0.59375 0.35938,1.03125 0.25,0.4375 0.67187,0.6875 0.42188,0.23437 1.07813,0.23437 0.53125,0 0.98437,-0.15625 0.46875,-0.17187 0.67188,-0.28125 l 0.29687,1.29688 q -0.23437,0.15625 -0.8125,0.35937 -0.5625,0.20313 -1.34375,0.20313 -1.03125,0 -1.73437,-0.375 -0.6875,-0.375 -1.14063,-1.04688 -0.4375,-0.67187 -0.625,-1.60937 -0.17187,-0.9375 -0.17187,-2.04688 0,-2.70312 0.89062,-3.95312 0.89063,-1.25 2.35938,-1.25 1.67187,0 2.35937,1.25 0.6875,1.25 0.6875,3.5 0,0.20312 0,0.42187 0,0.21875 -0.0156,0.4375 z m 1.60938,-4.25 q -0.79688,0 -1.15625,0.79688 -0.35938,0.79687 -0.4375,2.14062 h 2.96875 q 0,-1.35937 -0.28125,-2.14062 -0.28125,-0.79688 -1.09375,-0.79688 z m 9.64975,0.32813 q -0.59375,-0.25 -1.34375,-0.25 -0.6875,0 -1.28125,0.23437 v 8.35938 h -1.60938 v -9.35938 q 0.54688,-0.26562 1.23438,-0.4375 0.70312,-0.1875 1.54687,-0.1875 0.45313,0 0.89063,0.0625 0.45312,0.0469 0.84375,0.20313 z m 7.08534,2.76562 q 0,2.39063 0.57813,4.5 0.57812,2.10938 1.625,3.85938 l -1.28125,0.70312 q -1.15625,-1.8125 -1.84375,-4.09375 -0.67188,-2.29687 -0.67188,-4.96875 0,-2.67187 0.67188,-4.95312 0.6875,-2.29688 1.84375,-4.10938 l 1.28125,0.70313 q -1.04688,1.75 -1.625,3.85937 -0.57813,2.10938 -0.57813,4.5 z m 3.86391,-7.17187 q 1.3125,-0.3125 2.51562,-0.3125 0.98438,0 1.76563,0.23437 0.78125,0.21875 1.34375,0.70313 0.5625,0.48437 0.85937,1.25 0.3125,0.76562 0.3125,1.84375 0,1.34375 -0.51562,2.17187 -0.51563,0.82813 -1.39063,1.26563 0.21875,0.375 0.5625,1.01562 0.35938,0.64063 0.71875,1.42188 0.35938,0.76562 0.70313,1.59375 0.34375,0.8125 0.59375,1.5625 h -1.6875 q -0.20313,-0.5625 -0.51563,-1.26563 -0.29687,-0.71875 -0.64062,-1.40625 -0.32813,-0.70312 -0.67188,-1.34375 -0.32812,-0.65625 -0.59375,-1.09375 -0.29687,0.0312 -0.60937,0.0625 -0.3125,0.0156 -0.64063,0.0156 h -0.46875 v 5.03125 h -1.64062 z m 1.64062,6.32812 h 0.71875 q 1.28125,0 1.96875,-0.57812 0.6875,-0.59375 0.6875,-2.03125 0,-0.71875 -0.17187,-1.21875 -0.17188,-0.5 -0.5,-0.78125 -0.32813,-0.29688 -0.78125,-0.42188 -0.45313,-0.125 -1.01563,-0.125 -0.48437,0 -0.90625,0.0469 z m 7.69869,-3.9375 q 0.34375,-0.20312 0.71875,-0.5 0.39062,-0.29687 0.75,-0.64062 0.35937,-0.34375 0.65625,-0.70313 0.3125,-0.375 0.51562,-0.71875 h 1.23438 v 12.92188 h -1.60938 v -10.39063 q -0.3125,0.32813 -0.73437,0.64063 -0.42188,0.29687 -0.89063,0.54687 z m 9.00656,4.78125 q 0,-2.39062 -0.57813,-4.5 -0.57812,-2.10937 -1.625,-3.85937 l 1.28125,-0.70313 q 1.15625,1.8125 1.84375,4.10938 0.6875,2.28125 0.6875,4.95312 0,2.67188 -0.6875,4.96875 -0.6875,2.28125 -1.84375,4.09375 l -1.28125,-0.70312 q 1.04688,-1.75 1.625,-3.85938 0.57813,-2.10937 0.57813,-4.5 z"
       fill-rule="nonzero"
       id="path171" />
    <path
       fill="#000000"
       fill-opacity="0"
       d="m 147.19948,281.79266 h 111.2126 v 42.01575 h -111.2126 z"
       fill-rule="evenodd"
       id="path173" />
    <path
       fill="#f3f3f3"
       d="m 157.76198,308.71265 v -12.92188 h 5.8125 v 1.42188 h -4.125 v 4.07812 h 3.65625 v 1.39063 h -3.65625 v 6.03125 z m 13.76173,-4.89063 q 0,1.15625 -0.21875,2.10938 -0.20312,0.9375 -0.625,1.60937 -0.40625,0.67188 -1.0625,1.04688 -0.64062,0.375 -1.51562,0.375 -0.875,0 -1.53125,-0.375 -0.65625,-0.375 -1.07813,-1.04688 -0.40625,-0.67187 -0.625,-1.60937 -0.20312,-0.95313 -0.20312,-2.10938 0,-1.14062 0.20312,-2.07812 0.21875,-0.95313 0.625,-1.64063 0.42188,-0.6875 1.07813,-1.04687 0.65625,-0.375 1.53125,-0.375 0.875,0 1.51562,0.375 0.65625,0.35937 1.0625,1.04687 0.42188,0.6875 0.625,1.64063 0.21875,0.9375 0.21875,2.07812 z m -1.6875,0 q 0,-0.8125 -0.0937,-1.5 -0.0937,-0.6875 -0.29687,-1.17187 -0.20313,-0.5 -0.54688,-0.76563 -0.32812,-0.26562 -0.79687,-0.26562 -0.48438,0 -0.8125,0.26562 -0.32813,0.26563 -0.54688,0.76563 -0.20312,0.48437 -0.29687,1.17187 -0.0937,0.6875 -0.0937,1.5 0,0.82813 0.0937,1.51563 0.0937,0.67187 0.29687,1.15625 0.21875,0.48437 0.54688,0.76562 0.32812,0.26563 0.8125,0.26563 0.46875,0 0.79687,-0.26563 0.34375,-0.28125 0.54688,-0.76562 0.20312,-0.48438 0.29687,-1.15625 0.0937,-0.6875 0.0937,-1.51563 z m 6.57535,5.07813 q -1.39062,-0.0312 -1.98437,-0.67188 -0.59375,-0.65625 -0.59375,-2.04687 v -11.67188 l 1.59375,-0.28125 v 11.98438 q 0,0.65625 0.26562,0.95312 0.26563,0.28125 0.92188,0.39063 z m 4.53346,0 q -1.39062,-0.0312 -1.98437,-0.67188 -0.59375,-0.65625 -0.59375,-2.04687 v -11.67188 l 1.59375,-0.28125 v 11.98438 q 0,0.65625 0.26562,0.95312 0.26563,0.28125 0.92188,0.39063 z m 8.28347,-5.07813 q 0,1.15625 -0.21875,2.10938 -0.20313,0.9375 -0.625,1.60937 -0.40625,0.67188 -1.0625,1.04688 -0.64063,0.375 -1.51563,0.375 -0.875,0 -1.53125,-0.375 -0.65625,-0.375 -1.07812,-1.04688 -0.40625,-0.67187 -0.625,-1.60937 -0.20313,-0.95313 -0.20313,-2.10938 0,-1.14062 0.20313,-2.07812 0.21875,-0.95313 0.625,-1.64063 0.42187,-0.6875 1.07812,-1.04687 0.65625,-0.375 1.53125,-0.375 0.875,0 1.51563,0.375 0.65625,0.35937 1.0625,1.04687 0.42187,0.6875 0.625,1.64063 0.21875,0.9375 0.21875,2.07812 z m -1.6875,0 q 0,-0.8125 -0.0937,-1.5 -0.0937,-0.6875 -0.29688,-1.17187 -0.20312,-0.5 -0.54687,-0.76563 -0.32813,-0.26562 -0.79688,-0.26562 -0.48437,0 -0.8125,0.26562 -0.32812,0.26563 -0.54687,0.76563 -0.20313,0.48437 -0.29688,1.17187 -0.0937,0.6875 -0.0937,1.5 0,0.82813 0.0937,1.51563 0.0937,0.67187 0.29688,1.15625 0.21875,0.48437 0.54687,0.76562 0.32813,0.26563 0.8125,0.26563 0.46875,0 0.79688,-0.26563 0.34375,-0.28125 0.54687,-0.76562 0.20313,-0.48438 0.29688,-1.15625 0.0937,-0.6875 0.0937,-1.51563 z m 6.6066,4.89063 h -1.625 q -0.57813,-1.92188 -1.09375,-4.42188 -0.51563,-2.5 -0.9375,-5.375 h 1.57812 q 0.0781,0.79688 0.21875,1.875 0.15625,1.07813 0.32813,2.20313 0.1875,1.125 0.375,2.1875 0.1875,1.04687 0.35937,1.79687 0.15625,-0.75 0.375,-1.82812 0.21875,-1.07813 0.42188,-2.21875 0.21875,-1.14063 0.40625,-2.20313 0.1875,-1.07812 0.29687,-1.8125 h 1.51563 q 0.0781,0.73438 0.23437,1.79688 0.15625,1.0625 0.32813,2.21875 0.1875,1.14062 0.375,2.21875 0.1875,1.07812 0.32812,1.82812 0.17188,-0.75 0.35938,-1.8125 0.1875,-1.0625 0.35937,-2.17187 0.17188,-1.125 0.32813,-2.20313 0.15625,-1.07812 0.21875,-1.875 h 1.53125 q -0.42188,2.875 -0.9375,5.375 -0.51563,2.5 -1.09375,4.42188 h -1.5625 q -0.15625,-0.57813 -0.32813,-1.48438 -0.17187,-0.90625 -0.35937,-1.92187 -0.17188,-1.03125 -0.32813,-2.0625 -0.14062,-1.04688 -0.25,-1.90625 -0.125,0.85937 -0.3125,1.90625 -0.17187,1.03125 -0.39062,2.0625 -0.20313,1.01562 -0.40625,1.92187 -0.1875,0.90625 -0.3125,1.48438 z m 9.22128,-4.42188 q 0.0156,0.70313 0.125,1.29688 0.10937,0.59375 0.35937,1.03125 0.25,0.4375 0.67188,0.6875 0.42187,0.23437 1.07812,0.23437 0.53125,0 0.98438,-0.15625 0.46875,-0.17187 0.67187,-0.28125 l 0.29688,1.29688 q -0.23438,0.15625 -0.8125,0.35937 -0.5625,0.20313 -1.34375,0.20313 -1.03125,0 -1.73438,-0.375 -0.6875,-0.375 -1.14062,-1.04688 -0.4375,-0.67187 -0.625,-1.60937 -0.17188,-0.9375 -0.17188,-2.04688 0,-2.70312 0.89063,-3.95312 0.89062,-1.25 2.35937,-1.25 1.67188,0 2.35938,1.25 0.6875,1.25 0.6875,3.5 0,0.20312 0,0.42187 0,0.21875 -0.0156,0.4375 z m 1.60937,-4.25 q -0.79687,0 -1.15625,0.79688 -0.35937,0.79687 -0.4375,2.14062 h 2.96875 q 0,-1.35937 -0.28125,-2.14062 -0.28125,-0.79688 -1.09375,-0.79688 z m 9.64975,0.32813 q -0.59375,-0.25 -1.34375,-0.25 -0.6875,0 -1.28125,0.23437 v 8.35938 h -1.60937 v -9.35938 q 0.54687,-0.26562 1.23437,-0.4375 0.70313,-0.1875 1.54688,-0.1875 0.45312,0 0.89062,0.0625 0.45313,0.0469 0.84375,0.20313 z m 7.08535,2.76562 q 0,2.39063 0.57812,4.5 0.57813,2.10938 1.625,3.85938 l -1.28125,0.70312 q -1.15625,-1.8125 -1.84375,-4.09375 -0.67187,-2.29687 -0.67187,-4.96875 0,-2.67187 0.67187,-4.95312 0.6875,-2.29688 1.84375,-4.10938 l 1.28125,0.70313 q -1.04687,1.75 -1.625,3.85937 -0.57812,2.10938 -0.57812,4.5 z m 3.8639,-7.17187 q 1.3125,-0.3125 2.51563,-0.3125 0.98437,0 1.76562,0.23437 0.78125,0.21875 1.34375,0.70313 0.5625,0.48437 0.85938,1.25 0.3125,0.76562 0.3125,1.84375 0,1.34375 -0.51563,2.17187 -0.51562,0.82813 -1.39062,1.26563 0.21875,0.375 0.5625,1.01562 0.35937,0.64063 0.71875,1.42188 0.35937,0.76562 0.70312,1.59375 0.34375,0.8125 0.59375,1.5625 h -1.6875 q -0.20312,-0.5625 -0.51562,-1.26563 -0.29688,-0.71875 -0.64063,-1.40625 -0.32812,-0.70312 -0.67187,-1.34375 -0.32813,-0.65625 -0.59375,-1.09375 -0.29688,0.0312 -0.60938,0.0625 -0.3125,0.0156 -0.64062,0.0156 h -0.46875 v 5.03125 h -1.64063 z m 1.64063,6.32812 h 0.71875 q 1.28125,0 1.96875,-0.57812 0.6875,-0.59375 0.6875,-2.03125 0,-0.71875 -0.17188,-1.21875 -0.17187,-0.5 -0.5,-0.78125 -0.32812,-0.29688 -0.78125,-0.42188 -0.45312,-0.125 -1.01562,-0.125 -0.48438,0 -0.90625,0.0469 z m 7.21431,-5.70312 q 1.09375,-1.10938 2.67187,-1.10938 1.51563,0 2.3125,0.79688 0.8125,0.79687 0.8125,2.46875 0,0.79687 -0.26562,1.5 -0.26563,0.70312 -0.65625,1.375 -0.39063,0.65625 -0.85938,1.3125 -0.45312,0.65625 -0.89062,1.34375 -0.42188,0.67187 -0.75,1.40625 -0.3125,0.73437 -0.39063,1.57812 h 4.07813 v 1.45313 h -5.79688 v -0.35938 q 0,-1.25 0.28125,-2.21875 0.29688,-0.96875 0.71875,-1.75 0.42188,-0.78125 0.92188,-1.45312 0.51562,-0.67188 0.92187,-1.3125 0.42188,-0.65625 0.70313,-1.32813 0.29687,-0.6875 0.29687,-1.5 0,-0.98437 -0.39062,-1.42187 -0.39063,-0.45313 -1.17188,-0.45313 -0.54687,0 -0.98437,0.21875 -0.4375,0.21875 -0.78125,0.54688 z m 9.49093,6.54687 q 0,-2.39062 -0.57812,-4.5 -0.57813,-2.10937 -1.625,-3.85937 l 1.28125,-0.70313 q 1.15625,1.8125 1.84375,4.10938 0.6875,2.28125 0.6875,4.95312 0,2.67188 -0.6875,4.96875 -0.6875,2.28125 -1.84375,4.09375 l -1.28125,-0.70312 q 1.04687,-1.75 1.625,-3.85938 0.57812,-2.10937 0.57812,-4.5 z"
       fill-rule="nonzero"
       id="path175" />
    <path
       fill="#000000"
       fill-opacity="0"
       d="m 783.50397,203.04462 h 52.47241 v 42.01575 h -52.47241 z"
       fill-rule="evenodd"
       id="path177" />
    <path
       fill="#f3f3f3"
       d="m 798.6749,220.44899 q 0.6875,-0.20313 1.48437,-0.34375 0.8125,-0.14063 1.48438,-0.14063 0.73437,0 1.32812,0.20313 0.59375,0.1875 1.01563,0.65625 0.42187,0.46875 0.65625,1.26562 0.23437,0.78125 0.23437,1.96875 v 5.90625 h -1.60937 v -5.78125 q 0,-1.45312 -0.375,-2.125 -0.375,-0.67187 -1.40625,-0.67187 -0.53125,0 -1.20313,0.1875 v 8.39062 h -1.60937 z m 8.33606,3.25 h 2.53125 v -2.6875 h 1.375 v 2.6875 h 2.51562 v 1.35937 h -2.51562 v 2.70313 h -1.375 v -2.70313 h -2.53125 z m 8.53784,-4.09375 q 0.34375,-0.20313 0.71875,-0.5 0.39063,-0.29688 0.75,-0.64063 0.35938,-0.34375 0.65625,-0.70312 0.3125,-0.375 0.51563,-0.71875 h 1.23437 v 12.92187 h -1.60937 v -10.39062 q -0.3125,0.32812 -0.73438,0.64062 -0.42187,0.29688 -0.89062,0.54688 z"
       fill-rule="nonzero"
       id="path179" />
    <path
       fill="#6fa8dc"
       d="m 787.3691,281.2969 h 50.11023 v 44 H 787.3691 Z"
       fill-rule="evenodd"
       id="path181" />
    <path
       fill="#6fa8dc"
       d="m 258.3938,281.18896 h 528.4724 v 44.1575 H 258.3938 Z"
       fill-rule="evenodd"
       id="path183" />
    <path
       stroke="#595959"
       stroke-width="1"
       stroke-linejoin="round"
       stroke-linecap="butt"
       d="m 258.3938,281.18896 h 528.4724 v 44.1575 H 258.3938 Z"
       fill-rule="evenodd"
       id="path185" />
    <path
       fill="#000000"
       fill-opacity="0"
       d="m 266.77322,282.25986 h 29.60629 v 42.01575 h -29.60629 z"
       fill-rule="evenodd"
       id="path187" />
    <path
       fill="#f3f3f3"
       d="m 277.08572,298.82047 q 0.34375,-0.20313 0.71875,-0.5 0.39062,-0.29688 0.75,-0.64063 0.35937,-0.34375 0.65625,-0.70312 0.3125,-0.375 0.51562,-0.71875 h 1.23438 v 12.92187 h -1.60938 v -10.39062 q -0.3125,0.32812 -0.73437,0.64062 -0.42188,0.29688 -0.89063,0.54688 z"
       fill-rule="nonzero"
       id="path189" />
    <path
       fill="#000000"
       fill-opacity="0"
       d="m 302.7743,282.06824 v 44"
       fill-rule="evenodd"
       id="path191" />
    <path
       stroke="#595959"
       stroke-width="1"
       stroke-linejoin="round"
       stroke-linecap="butt"
       d="m 302.7743,282.06824 v 44"
       fill-rule="evenodd"
       id="path193" />
    <path
       fill="#000000"
       fill-opacity="0"
       d="m 346.7832,282.06824 v 44"
       fill-rule="evenodd"
       id="path195" />
    <path
       stroke="#595959"
       stroke-width="1"
       stroke-linejoin="round"
       stroke-linecap="butt"
       d="m 346.7832,282.06824 v 44"
       fill-rule="evenodd"
       id="path197" />
    <path
       fill="#000000"
       fill-opacity="0"
       d="m 310.77454,282.25986 h 29.60629 v 42.01575 h -29.60629 z"
       fill-rule="evenodd"
       id="path199" />
    <path
       fill="#f3f3f3"
       d="m 322.3947,297.05484 q 1.09375,-1.10937 2.67187,-1.10937 1.51563,0 2.3125,0.79687 0.8125,0.79688 0.8125,2.46875 0,0.79688 -0.26562,1.5 -0.26563,0.70313 -0.65625,1.375 -0.39063,0.65625 -0.85938,1.3125 -0.45312,0.65625 -0.89062,1.34375 -0.42188,0.67188 -0.75,1.40625 -0.3125,0.73438 -0.39063,1.57813 h 4.07813 v 1.45312 h -5.79688 v -0.35937 q 0,-1.25 0.28125,-2.21875 0.29688,-0.96875 0.71875,-1.75 0.42188,-0.78125 0.92188,-1.45313 0.51562,-0.67187 0.92187,-1.3125 0.42188,-0.65625 0.70313,-1.32812 0.29687,-0.6875 0.29687,-1.5 0,-0.98438 -0.39062,-1.42188 -0.39063,-0.45312 -1.17188,-0.45312 -0.54687,0 -0.98437,0.21875 -0.4375,0.21875 -0.78125,0.54687 z"
       fill-rule="nonzero"
       id="path201" />
    <path
       fill="#000000"
       fill-opacity="0"
       d="m 346.78217,282.06824 v 44"
       fill-rule="evenodd"
       id="path203" />
    <path
       stroke="#595959"
       stroke-width="1"
       stroke-linejoin="round"
       stroke-linecap="butt"
       d="m 346.78217,282.06824 v 44"
       fill-rule="evenodd"
       id="path205" />
    <path
       fill="#000000"
       fill-opacity="0"
       d="m 390.79108,282.06824 v 44"
       fill-rule="evenodd"
       id="path207" />
    <path
       stroke="#595959"
       stroke-width="1"
       stroke-linejoin="round"
       stroke-linecap="butt"
       d="m 390.79108,282.06824 v 44"
       fill-rule="evenodd"
       id="path209" />
    <path
       fill="#000000"
       fill-opacity="0"
       d="m 354.7824,282.25986 h 29.60629 v 42.01575 H 354.7824 Z"
       fill-rule="evenodd"
       id="path211" />
    <path
       fill="#f3f3f3"
       d="m 370.37134,302.2267 q 0.9375,0.32812 1.4375,1.1875 0.51562,0.84375 0.51562,2.1875 0,1.78125 -0.875,2.82812 -0.85937,1.03125 -2.60937,1.03125 -0.6875,0 -1.34375,-0.20312 -0.65625,-0.20313 -1.14063,-0.54688 l 0.4375,-1.29687 q 0.42188,0.25 0.89063,0.4375 0.48437,0.1875 1,0.1875 0.95312,0 1.48437,-0.57813 0.53125,-0.59375 0.53125,-1.875 0,-1.29687 -0.59375,-1.9375 -0.57812,-0.65625 -1.85937,-0.65625 h -0.48438 v -1.375 h 0.40625 q 1.125,0 1.65625,-0.59375 0.54688,-0.59375 0.54688,-1.65625 0,-1.01562 -0.4375,-1.5 -0.42188,-0.5 -1.125,-0.5 -0.48438,0 -0.9375,0.1875 -0.4375,0.1875 -0.75,0.46875 l -0.625,-1.17187 q 0.48437,-0.45313 1.14062,-0.67188 0.65625,-0.23437 1.3125,-0.23437 1.45313,0 2.23438,0.92187 0.79687,0.90625 0.79687,2.42188 0,1.0625 -0.42187,1.8125 -0.42188,0.73437 -1.1875,1.125 z"
       fill-rule="nonzero"
       id="path213" />
    <path
       fill="#000000"
       fill-opacity="0"
       d="m 390.79004,282.06824 v 44"
       fill-rule="evenodd"
       id="path215" />
    <path
       stroke="#595959"
       stroke-width="1"
       stroke-linejoin="round"
       stroke-linecap="butt"
       d="m 390.79004,282.06824 v 44"
       fill-rule="evenodd"
       id="path217" />
    <path
       fill="#000000"
       fill-opacity="0"
       d="m 434.79895,282.06824 v 44"
       fill-rule="evenodd"
       id="path219" />
    <path
       stroke="#595959"
       stroke-width="1"
       stroke-linejoin="round"
       stroke-linecap="butt"
       d="m 434.79895,282.06824 v 44"
       fill-rule="evenodd"
       id="path221" />
    <path
       fill="#000000"
       fill-opacity="0"
       d="m 398.79028,282.25986 h 29.60629 v 42.01575 h -29.60629 z"
       fill-rule="evenodd"
       id="path223" />
    <path
       fill="#f3f3f3"
       d="m 410.09763,309.17984 v -1.875 h 1.875 v 1.875 z m 5.18332,0 v -1.875 h 1.875 v 1.875 z"
       fill-rule="nonzero"
       id="path225" />
    <path
       fill="#000000"
       fill-opacity="0"
       d="m 434.7979,282.06824 v 44"
       fill-rule="evenodd"
       id="path227" />
    <path
       stroke="#595959"
       stroke-width="1"
       stroke-linejoin="round"
       stroke-linecap="butt"
       d="m 434.7979,282.06824 v 44"
       fill-rule="evenodd"
       id="path229" />
    <path
       fill="#000000"
       fill-opacity="0"
       d="m 478.80682,282.06824 v 44"
       fill-rule="evenodd"
       id="path231" />
    <path
       stroke="#595959"
       stroke-width="1"
       stroke-linejoin="round"
       stroke-linecap="butt"
       d="m 478.80682,282.06824 v 44"
       fill-rule="evenodd"
       id="path233" />
    <path
       fill="#000000"
       fill-opacity="0"
       d="m 442.79816,282.25986 h 29.60629 v 42.01575 h -29.60629 z"
       fill-rule="evenodd"
       id="path235" />
    <path
       fill="#f3f3f3"
       d="m 454.1055,309.17984 v -1.875 h 1.875 v 1.875 z m 5.18332,0 v -1.875 h 1.875 v 1.875 z"
       fill-rule="nonzero"
       id="path237" />
    <path
       fill="#000000"
       fill-opacity="0"
       d="m 478.8058,282.06824 v 44"
       fill-rule="evenodd"
       id="path239" />
    <path
       stroke="#595959"
       stroke-width="1"
       stroke-linejoin="round"
       stroke-linecap="butt"
       d="m 478.8058,282.06824 v 44"
       fill-rule="evenodd"
       id="path241" />
    <path
       fill="#000000"
       fill-opacity="0"
       d="m 522.8147,282.06824 v 44"
       fill-rule="evenodd"
       id="path243" />
    <path
       stroke="#595959"
       stroke-width="1"
       stroke-linejoin="round"
       stroke-linecap="butt"
       d="m 522.8147,282.06824 v 44"
       fill-rule="evenodd"
       id="path245" />
    <path
       fill="#000000"
       fill-opacity="0"
       d="m 486.80603,282.25986 h 29.60632 v 42.01575 h -29.60632 z"
       fill-rule="evenodd"
       id="path247" />
    <path
       fill="#f3f3f3"
       d="m 498.11337,309.17984 v -1.875 h 1.875 v 1.875 z m 5.18332,0 v -1.875 h 1.875 v 1.875 z"
       fill-rule="nonzero"
       id="path249" />
    <path
       fill="#000000"
       fill-opacity="0"
       d="m 522.81366,282.06824 v 44"
       fill-rule="evenodd"
       id="path251" />
    <path
       stroke="#595959"
       stroke-width="1"
       stroke-linejoin="round"
       stroke-linecap="butt"
       d="m 522.81366,282.06824 v 44"
       fill-rule="evenodd"
       id="path253" />
    <path
       fill="#000000"
       fill-opacity="0"
       d="m 566.8226,282.06824 v 44"
       fill-rule="evenodd"
       id="path255" />
    <path
       stroke="#595959"
       stroke-width="1"
       stroke-linejoin="round"
       stroke-linecap="butt"
       d="m 566.8226,282.06824 v 44"
       fill-rule="evenodd"
       id="path257" />
    <path
       fill="#000000"
       fill-opacity="0"
       d="m 530.8139,282.25986 h 29.60632 v 42.01575 H 530.8139 Z"
       fill-rule="evenodd"
       id="path259" />
    <path
       fill="#f3f3f3"
       d="m 542.1213,309.17984 v -1.875 h 1.875 v 1.875 z m 5.18329,0 v -1.875 h 1.875 v 1.875 z"
       fill-rule="nonzero"
       id="path261" />
    <path
       fill="#000000"
       fill-opacity="0"
       d="m 566.82153,282.06824 v 44"
       fill-rule="evenodd"
       id="path263" />
    <path
       stroke="#595959"
       stroke-width="1"
       stroke-linejoin="round"
       stroke-linecap="butt"
       d="m 566.82153,282.06824 v 44"
       fill-rule="evenodd"
       id="path265" />
    <path
       fill="#000000"
       fill-opacity="0"
       d="m 610.83044,282.06824 v 44"
       fill-rule="evenodd"
       id="path267" />
    <path
       stroke="#595959"
       stroke-width="1"
       stroke-linejoin="round"
       stroke-linecap="butt"
       d="m 610.83044,282.06824 v 44"
       fill-rule="evenodd"
       id="path269" />
    <path
       fill="#000000"
       fill-opacity="0"
       d="m 574.8218,282.25986 h 29.60632 v 42.01575 H 574.8218 Z"
       fill-rule="evenodd"
       id="path271" />
    <path
       fill="#f3f3f3"
       d="m 586.12915,309.17984 v -1.875 h 1.875 v 1.875 z m 5.18329,0 v -1.875 h 1.875 v 1.875 z"
       fill-rule="nonzero"
       id="path273" />
    <path
       fill="#000000"
       fill-opacity="0"
       d="m 610.8294,281.26773 v 44"
       fill-rule="evenodd"
       id="path275" />
    <path
       stroke="#595959"
       stroke-width="1"
       stroke-linejoin="round"
       stroke-linecap="butt"
       d="m 610.8294,281.26773 v 44"
       fill-rule="evenodd"
       id="path277" />
    <path
       fill="#000000"
       fill-opacity="0"
       d="m 654.8383,281.26773 v 44"
       fill-rule="evenodd"
       id="path279" />
    <path
       stroke="#595959"
       stroke-width="1"
       stroke-linejoin="round"
       stroke-linecap="butt"
       d="m 654.8383,281.26773 v 44"
       fill-rule="evenodd"
       id="path281" />
    <path
       fill="#000000"
       fill-opacity="0"
       d="m 618.82965,281.45932 h 29.60632 v 42.01575 h -29.60632 z"
       fill-rule="evenodd"
       id="path283" />
    <path
       fill="#f3f3f3"
       d="m 630.137,308.3793 v -1.875 h 1.875 v 1.875 z m 5.18329,0 v -1.875 h 1.875 v 1.875 z"
       fill-rule="nonzero"
       id="path285" />
    <path
       fill="#000000"
       fill-opacity="0"
       d="m 654.8373,281.26773 v 44"
       fill-rule="evenodd"
       id="path287" />
    <path
       stroke="#595959"
       stroke-width="1"
       stroke-linejoin="round"
       stroke-linecap="butt"
       d="m 654.8373,281.26773 v 44"
       fill-rule="evenodd"
       id="path289" />
    <path
       fill="#000000"
       fill-opacity="0"
       d="m 698.8462,281.26773 v 44"
       fill-rule="evenodd"
       id="path291" />
    <path
       stroke="#595959"
       stroke-width="1"
       stroke-linejoin="round"
       stroke-linecap="butt"
       d="m 698.8462,281.26773 v 44"
       fill-rule="evenodd"
       id="path293" />
    <path
       fill="#000000"
       fill-opacity="0"
       d="m 662.8375,281.45932 h 29.60632 v 42.01575 H 662.8375 Z"
       fill-rule="evenodd"
       id="path295" />
    <path
       fill="#f3f3f3"
       d="m 674.1449,308.3793 v -1.875 h 1.875 v 1.875 z m 5.18329,0 v -1.875 h 1.875 v 1.875 z"
       fill-rule="nonzero"
       id="path297" />
    <path
       fill="#000000"
       fill-opacity="0"
       d="m 698.84515,281.26773 v 44"
       fill-rule="evenodd"
       id="path299" />
    <path
       stroke="#595959"
       stroke-width="1"
       stroke-linejoin="round"
       stroke-linecap="butt"
       d="m 698.84515,281.26773 v 44"
       fill-rule="evenodd"
       id="path301" />
    <path
       fill="#000000"
       fill-opacity="0"
       d="m 742.85406,281.26773 v 44"
       fill-rule="evenodd"
       id="path303" />
    <path
       stroke="#595959"
       stroke-width="1"
       stroke-linejoin="round"
       stroke-linecap="butt"
       d="m 742.85406,281.26773 v 44"
       fill-rule="evenodd"
       id="path305" />
    <path
       fill="#000000"
       fill-opacity="0"
       d="m 706.8454,281.45932 h 29.60632 v 42.01575 H 706.8454 Z"
       fill-rule="evenodd"
       id="path307" />
    <path
       fill="#f3f3f3"
       d="m 718.1528,308.3793 v -1.875 h 1.875 v 1.875 z m 5.18329,0 v -1.875 h 1.875 v 1.875 z"
       fill-rule="nonzero"
       id="path309" />
    <path
       fill="#000000"
       fill-opacity="0"
       d="m 742.853,281.26773 v 44"
       fill-rule="evenodd"
       id="path311" />
    <path
       stroke="#595959"
       stroke-width="1"
       stroke-linejoin="round"
       stroke-linecap="butt"
       d="m 742.853,281.26773 v 44"
       fill-rule="evenodd"
       id="path313" />
    <path
       fill="#000000"
       fill-opacity="0"
       d="m 786.86194,281.26773 v 44"
       fill-rule="evenodd"
       id="path315" />
    <path
       stroke="#595959"
       stroke-width="1"
       stroke-linejoin="round"
       stroke-linecap="butt"
       d="m 786.86194,281.26773 v 44"
       fill-rule="evenodd"
       id="path317" />
    <path
       fill="#000000"
       fill-opacity="0"
       d="m 750.8533,281.45932 h 29.60632 v 42.01575 H 750.8533 Z"
       fill-rule="evenodd"
       id="path319" />
    <path
       fill="#f3f3f3"
       d="m 762.6134,298.86368 q 0.6875,-0.20313 1.48437,-0.34375 0.8125,-0.14063 1.48438,-0.14063 0.73437,0 1.32812,0.20313 0.59375,0.1875 1.01563,0.65625 0.42187,0.46875 0.65625,1.26562 0.23437,0.78125 0.23437,1.96875 v 5.90625 h -1.60937 v -5.78125 q 0,-1.45312 -0.375,-2.125 -0.375,-0.67187 -1.40625,-0.67187 -0.53125,0 -1.20313,0.1875 v 8.39062 h -1.60937 z"
       fill-rule="nonzero"
       id="path321" />
    <path
       fill="#000000"
       fill-opacity="0"
       d="m 837.67194,281.26773 v 44"
       fill-rule="evenodd"
       id="path323" />
    <path
       stroke="#595959"
       stroke-width="1"
       stroke-linejoin="round"
       stroke-linecap="butt"
       stroke-dasharray="4, 3"
       d="m 837.67194,281.26773 v 44"
       fill-rule="evenodd"
       id="path325" />
    <path
       fill="#000000"
       fill-opacity="0"
       d="m 786.7743,281.1439 h 51.05512"
       fill-rule="evenodd"
       id="path327" />
    <path
       stroke="#595959"
       stroke-width="1"
       stroke-linejoin="round"
       stroke-linecap="butt"
       stroke-dasharray="4, 3"
       d="m 786.7743,281.1439 h 51.05512"
       fill-rule="evenodd"
       id="path329" />
    <path
       fill="#000000"
       fill-opacity="0"
       d="m 786.8609,325.37558 h 50.96063"
       fill-rule="evenodd"
       id="path331" />
    <path
       stroke="#595959"
       stroke-width="1"
       stroke-linejoin="round"
       stroke-linecap="butt"
       stroke-dasharray="4, 3"
       d="m 786.8609,325.37558 h 50.96063"
       fill-rule="evenodd"
       id="path333" />
    <path
       fill="#000000"
       fill-opacity="0"
       d="m 785.0079,282.25198 h 52.47241 v 42.01575 H 785.0079 Z"
       fill-rule="evenodd"
       id="path335" />
    <path
       fill="#f3f3f3"
       d="m 800.1789,299.65634 q 0.6875,-0.20313 1.48437,-0.34375 0.8125,-0.14063 1.48438,-0.14063 0.73437,0 1.32812,0.20313 0.59375,0.1875 1.01563,0.65625 0.42187,0.46875 0.65625,1.26562 0.23437,0.78125 0.23437,1.96875 v 5.90625 h -1.60937 v -5.78125 q 0,-1.45312 -0.375,-2.125 -0.375,-0.67187 -1.40625,-0.67187 -0.53125,0 -1.20313,0.1875 v 8.39062 h -1.60937 z m 8.33606,3.25 h 2.53125 v -2.6875 h 1.375 v 2.6875 h 2.51562 v 1.35937 h -2.51562 v 2.70313 h -1.375 v -2.70313 h -2.53125 z m 8.53778,-4.09375 q 0.34375,-0.20313 0.71875,-0.5 0.39063,-0.29688 0.75,-0.64063 0.35938,-0.34375 0.65625,-0.70312 0.3125,-0.375 0.51563,-0.71875 h 1.23437 v 12.92187 h -1.60937 v -10.39062 q -0.3125,0.32812 -0.73438,0.64062 -0.42187,0.29688 -0.89062,0.54688 z"
       fill-rule="nonzero"
       id="path337" />
    <path
       fill="#6fa8dc"
       d="m 258.3938,358.7848 h 528.4724 v 44.15747 H 258.3938 Z"
       fill-rule="evenodd"
       id="path339" />
    <path
       stroke="#595959"
       stroke-width="1"
       stroke-linejoin="round"
       stroke-linecap="butt"
       d="m 258.3938,358.7848 h 528.4724 v 44.15747 H 258.3938 Z"
       fill-rule="evenodd"
       id="path341" />
    <path
       fill="#000000"
       fill-opacity="0"
       d="m 266.77322,359.85565 h 29.60629 v 42.01575 h -29.60629 z"
       fill-rule="evenodd"
       id="path343" />
    <path
       fill="#f3f3f3"
       d="m 277.08572,376.41626 q 0.34375,-0.20312 0.71875,-0.5 0.39062,-0.29687 0.75,-0.64062 0.35937,-0.34375 0.65625,-0.70313 0.3125,-0.375 0.51562,-0.71875 h 1.23438 v 12.92188 h -1.60938 v -10.39063 q -0.3125,0.32813 -0.73437,0.64063 -0.42188,0.29687 -0.89063,0.54687 z"
       fill-rule="nonzero"
       id="path345" />
    <path
       fill="#000000"
       fill-opacity="0"
       d="m 302.7743,359.66403 v 44"
       fill-rule="evenodd"
       id="path347" />
    <path
       stroke="#595959"
       stroke-width="1"
       stroke-linejoin="round"
       stroke-linecap="butt"
       d="m 302.7743,359.66403 v 44"
       fill-rule="evenodd"
       id="path349" />
    <path
       fill="#000000"
       fill-opacity="0"
       d="m 346.7832,359.66403 v 44"
       fill-rule="evenodd"
       id="path351" />
    <path
       stroke="#595959"
       stroke-width="1"
       stroke-linejoin="round"
       stroke-linecap="butt"
       d="m 346.7832,359.66403 v 44"
       fill-rule="evenodd"
       id="path353" />
    <path
       fill="#000000"
       fill-opacity="0"
       d="m 310.77454,359.85565 h 29.60629 v 42.01575 h -29.60629 z"
       fill-rule="evenodd"
       id="path355" />
    <path
       fill="#f3f3f3"
       d="m 322.3947,374.65063 q 1.09375,-1.10938 2.67187,-1.10938 1.51563,0 2.3125,0.79688 0.8125,0.79687 0.8125,2.46875 0,0.79687 -0.26562,1.5 -0.26563,0.70312 -0.65625,1.375 -0.39063,0.65625 -0.85938,1.3125 -0.45312,0.65625 -0.89062,1.34375 -0.42188,0.67187 -0.75,1.40625 -0.3125,0.73437 -0.39063,1.57812 h 4.07813 v 1.45313 h -5.79688 v -0.35938 q 0,-1.25 0.28125,-2.21875 0.29688,-0.96875 0.71875,-1.75 0.42188,-0.78125 0.92188,-1.45312 0.51562,-0.67188 0.92187,-1.3125 0.42188,-0.65625 0.70313,-1.32813 0.29687,-0.6875 0.29687,-1.5 0,-0.98437 -0.39062,-1.42187 -0.39063,-0.45313 -1.17188,-0.45313 -0.54687,0 -0.98437,0.21875 -0.4375,0.21875 -0.78125,0.54688 z"
       fill-rule="nonzero"
       id="path357" />
    <path
       fill="#000000"
       fill-opacity="0"
       d="m 346.78217,359.66403 v 44"
       fill-rule="evenodd"
       id="path359" />
    <path
       stroke="#595959"
       stroke-width="1"
       stroke-linejoin="round"
       stroke-linecap="butt"
       d="m 346.78217,359.66403 v 44"
       fill-rule="evenodd"
       id="path361" />
    <path
       fill="#000000"
       fill-opacity="0"
       d="m 390.79108,359.66403 v 44"
       fill-rule="evenodd"
       id="path363" />
    <path
       stroke="#595959"
       stroke-width="1"
       stroke-linejoin="round"
       stroke-linecap="butt"
       d="m 390.79108,359.66403 v 44"
       fill-rule="evenodd"
       id="path365" />
    <path
       fill="#000000"
       fill-opacity="0"
       d="m 354.7824,359.85565 h 29.60629 V 401.8714 H 354.7824 Z"
       fill-rule="evenodd"
       id="path367" />
    <path
       fill="#f3f3f3"
       d="m 370.37134,379.8225 q 0.9375,0.32812 1.4375,1.1875 0.51562,0.84375 0.51562,2.1875 0,1.78125 -0.875,2.82812 -0.85937,1.03125 -2.60937,1.03125 -0.6875,0 -1.34375,-0.20312 -0.65625,-0.20313 -1.14063,-0.54688 l 0.4375,-1.29687 q 0.42188,0.25 0.89063,0.4375 0.48437,0.1875 1,0.1875 0.95312,0 1.48437,-0.57813 0.53125,-0.59375 0.53125,-1.875 0,-1.29687 -0.59375,-1.9375 -0.57812,-0.65625 -1.85937,-0.65625 h -0.48438 v -1.375 h 0.40625 q 1.125,0 1.65625,-0.59375 0.54688,-0.59375 0.54688,-1.65625 0,-1.01562 -0.4375,-1.5 -0.42188,-0.5 -1.125,-0.5 -0.48438,0 -0.9375,0.1875 -0.4375,0.1875 -0.75,0.46875 l -0.625,-1.17187 q 0.48437,-0.45313 1.14062,-0.67188 0.65625,-0.23437 1.3125,-0.23437 1.45313,0 2.23438,0.92187 0.79687,0.90625 0.79687,2.42188 0,1.0625 -0.42187,1.8125 -0.42188,0.73437 -1.1875,1.125 z"
       fill-rule="nonzero"
       id="path369" />
    <path
       fill="#000000"
       fill-opacity="0"
       d="m 390.79004,359.66403 v 44"
       fill-rule="evenodd"
       id="path371" />
    <path
       stroke="#595959"
       stroke-width="1"
       stroke-linejoin="round"
       stroke-linecap="butt"
       d="m 390.79004,359.66403 v 44"
       fill-rule="evenodd"
       id="path373" />
    <path
       fill="#000000"
       fill-opacity="0"
       d="m 434.79895,359.66403 v 44"
       fill-rule="evenodd"
       id="path375" />
    <path
       stroke="#595959"
       stroke-width="1"
       stroke-linejoin="round"
       stroke-linecap="butt"
       d="m 434.79895,359.66403 v 44"
       fill-rule="evenodd"
       id="path377" />
    <path
       fill="#000000"
       fill-opacity="0"
       d="m 398.79028,359.85565 h 29.60629 v 42.01575 h -29.60629 z"
       fill-rule="evenodd"
       id="path379" />
    <path
       fill="#f3f3f3"
       d="m 410.09763,386.77563 v -1.875 h 1.875 v 1.875 z m 5.18332,0 v -1.875 h 1.875 v 1.875 z"
       fill-rule="nonzero"
       id="path381" />
    <path
       fill="#000000"
       fill-opacity="0"
       d="m 434.7979,359.66403 v 44"
       fill-rule="evenodd"
       id="path383" />
    <path
       stroke="#595959"
       stroke-width="1"
       stroke-linejoin="round"
       stroke-linecap="butt"
       d="m 434.7979,359.66403 v 44"
       fill-rule="evenodd"
       id="path385" />
    <path
       fill="#000000"
       fill-opacity="0"
       d="m 478.80682,359.66403 v 44"
       fill-rule="evenodd"
       id="path387" />
    <path
       stroke="#595959"
       stroke-width="1"
       stroke-linejoin="round"
       stroke-linecap="butt"
       d="m 478.80682,359.66403 v 44"
       fill-rule="evenodd"
       id="path389" />
    <path
       fill="#000000"
       fill-opacity="0"
       d="m 442.79816,359.85565 h 29.60629 v 42.01575 h -29.60629 z"
       fill-rule="evenodd"
       id="path391" />
    <path
       fill="#f3f3f3"
       d="m 454.1055,386.77563 v -1.875 h 1.875 v 1.875 z m 5.18332,0 v -1.875 h 1.875 v 1.875 z"
       fill-rule="nonzero"
       id="path393" />
    <path
       fill="#000000"
       fill-opacity="0"
       d="m 478.8058,359.66403 v 44"
       fill-rule="evenodd"
       id="path395" />
    <path
       stroke="#595959"
       stroke-width="1"
       stroke-linejoin="round"
       stroke-linecap="butt"
       d="m 478.8058,359.66403 v 44"
       fill-rule="evenodd"
       id="path397" />
    <path
       fill="#000000"
       fill-opacity="0"
       d="m 522.8147,359.66403 v 44"
       fill-rule="evenodd"
       id="path399" />
    <path
       stroke="#595959"
       stroke-width="1"
       stroke-linejoin="round"
       stroke-linecap="butt"
       d="m 522.8147,359.66403 v 44"
       fill-rule="evenodd"
       id="path401" />
    <path
       fill="#000000"
       fill-opacity="0"
       d="m 486.80603,359.85565 h 29.60632 v 42.01575 h -29.60632 z"
       fill-rule="evenodd"
       id="path403" />
    <path
       fill="#f3f3f3"
       d="m 498.11337,386.77563 v -1.875 h 1.875 v 1.875 z m 5.18332,0 v -1.875 h 1.875 v 1.875 z"
       fill-rule="nonzero"
       id="path405" />
    <path
       fill="#000000"
       fill-opacity="0"
       d="m 522.81366,359.66403 v 44"
       fill-rule="evenodd"
       id="path407" />
    <path
       stroke="#595959"
       stroke-width="1"
       stroke-linejoin="round"
       stroke-linecap="butt"
       d="m 522.81366,359.66403 v 44"
       fill-rule="evenodd"
       id="path409" />
    <path
       fill="#000000"
       fill-opacity="0"
       d="m 566.8226,359.66403 v 44"
       fill-rule="evenodd"
       id="path411" />
    <path
       stroke="#595959"
       stroke-width="1"
       stroke-linejoin="round"
       stroke-linecap="butt"
       d="m 566.8226,359.66403 v 44"
       fill-rule="evenodd"
       id="path413" />
    <path
       fill="#000000"
       fill-opacity="0"
       d="m 530.8139,359.85565 h 29.60632 V 401.8714 H 530.8139 Z"
       fill-rule="evenodd"
       id="path415" />
    <path
       fill="#f3f3f3"
       d="m 542.1213,386.77563 v -1.875 h 1.875 v 1.875 z m 5.18329,0 v -1.875 h 1.875 v 1.875 z"
       fill-rule="nonzero"
       id="path417" />
    <path
       fill="#000000"
       fill-opacity="0"
       d="m 566.82153,359.66403 v 44"
       fill-rule="evenodd"
       id="path419" />
    <path
       stroke="#595959"
       stroke-width="1"
       stroke-linejoin="round"
       stroke-linecap="butt"
       d="m 566.82153,359.66403 v 44"
       fill-rule="evenodd"
       id="path421" />
    <path
       fill="#000000"
       fill-opacity="0"
       d="m 610.83044,359.66403 v 44"
       fill-rule="evenodd"
       id="path423" />
    <path
       stroke="#595959"
       stroke-width="1"
       stroke-linejoin="round"
       stroke-linecap="butt"
       d="m 610.83044,359.66403 v 44"
       fill-rule="evenodd"
       id="path425" />
    <path
       fill="#000000"
       fill-opacity="0"
       d="m 574.8218,359.85565 h 29.60632 V 401.8714 H 574.8218 Z"
       fill-rule="evenodd"
       id="path427" />
    <path
       fill="#f3f3f3"
       d="m 586.12915,386.77563 v -1.875 h 1.875 v 1.875 z m 5.18329,0 v -1.875 h 1.875 v 1.875 z"
       fill-rule="nonzero"
       id="path429" />
    <path
       fill="#000000"
       fill-opacity="0"
       d="m 610.8294,358.86353 v 44"
       fill-rule="evenodd"
       id="path431" />
    <path
       stroke="#595959"
       stroke-width="1"
       stroke-linejoin="round"
       stroke-linecap="butt"
       d="m 610.8294,358.86353 v 44"
       fill-rule="evenodd"
       id="path433" />
    <path
       fill="#000000"
       fill-opacity="0"
       d="m 654.8383,358.86353 v 44"
       fill-rule="evenodd"
       id="path435" />
    <path
       stroke="#595959"
       stroke-width="1"
       stroke-linejoin="round"
       stroke-linecap="butt"
       d="m 654.8383,358.86353 v 44"
       fill-rule="evenodd"
       id="path437" />
    <path
       fill="#000000"
       fill-opacity="0"
       d="m 618.82965,359.0551 h 29.60632 v 42.01575 h -29.60632 z"
       fill-rule="evenodd"
       id="path439" />
    <path
       fill="#f3f3f3"
       d="m 630.137,385.97513 v -1.875 h 1.875 v 1.875 z m 5.18329,0 v -1.875 h 1.875 v 1.875 z"
       fill-rule="nonzero"
       id="path441" />
    <path
       fill="#000000"
       fill-opacity="0"
       d="m 654.8373,358.86353 v 44"
       fill-rule="evenodd"
       id="path443" />
    <path
       stroke="#595959"
       stroke-width="1"
       stroke-linejoin="round"
       stroke-linecap="butt"
       d="m 654.8373,358.86353 v 44"
       fill-rule="evenodd"
       id="path445" />
    <path
       fill="#000000"
       fill-opacity="0"
       d="m 698.8462,358.86353 v 44"
       fill-rule="evenodd"
       id="path447" />
    <path
       stroke="#595959"
       stroke-width="1"
       stroke-linejoin="round"
       stroke-linecap="butt"
       d="m 698.8462,358.86353 v 44"
       fill-rule="evenodd"
       id="path449" />
    <path
       fill="#000000"
       fill-opacity="0"
       d="m 662.8375,359.0551 h 29.60632 v 42.01575 H 662.8375 Z"
       fill-rule="evenodd"
       id="path451" />
    <path
       fill="#f3f3f3"
       d="m 674.1449,385.97513 v -1.875 h 1.875 v 1.875 z m 5.18329,0 v -1.875 h 1.875 v 1.875 z"
       fill-rule="nonzero"
       id="path453" />
    <path
       fill="#000000"
       fill-opacity="0"
       d="m 698.84515,358.86353 v 44"
       fill-rule="evenodd"
       id="path455" />
    <path
       stroke="#595959"
       stroke-width="1"
       stroke-linejoin="round"
       stroke-linecap="butt"
       d="m 698.84515,358.86353 v 44"
       fill-rule="evenodd"
       id="path457" />
    <path
       fill="#000000"
       fill-opacity="0"
       d="m 742.85406,358.86353 v 44"
       fill-rule="evenodd"
       id="path459" />
    <path
       stroke="#595959"
       stroke-width="1"
       stroke-linejoin="round"
       stroke-linecap="butt"
       d="m 742.85406,358.86353 v 44"
       fill-rule="evenodd"
       id="path461" />
    <path
       fill="#000000"
       fill-opacity="0"
       d="m 706.8454,359.0551 h 29.60632 v 42.01575 H 706.8454 Z"
       fill-rule="evenodd"
       id="path463" />
    <path
       fill="#f3f3f3"
       d="m 718.1528,385.97513 v -1.875 h 1.875 v 1.875 z m 5.18329,0 v -1.875 h 1.875 v 1.875 z"
       fill-rule="nonzero"
       id="path465" />
    <path
       fill="#000000"
       fill-opacity="0"
       d="m 742.853,358.86353 v 44"
       fill-rule="evenodd"
       id="path467" />
    <path
       stroke="#595959"
       stroke-width="1"
       stroke-linejoin="round"
       stroke-linecap="butt"
       d="m 742.853,358.86353 v 44"
       fill-rule="evenodd"
       id="path469" />
    <path
       fill="#000000"
       fill-opacity="0"
       d="m 786.86194,358.86353 v 44"
       fill-rule="evenodd"
       id="path471" />
    <path
       stroke="#595959"
       stroke-width="1"
       stroke-linejoin="round"
       stroke-linecap="butt"
       d="m 786.86194,358.86353 v 44"
       fill-rule="evenodd"
       id="path473" />
    <path
       fill="#000000"
       fill-opacity="0"
       d="m 750.8533,359.0551 h 29.60632 v 42.01575 H 750.8533 Z"
       fill-rule="evenodd"
       id="path475" />
    <path
       fill="#f3f3f3"
       d="m 762.6134,376.4595 q 0.6875,-0.20313 1.48437,-0.34375 0.8125,-0.14063 1.48438,-0.14063 0.73437,0 1.32812,0.20313 0.59375,0.1875 1.01563,0.65625 0.42187,0.46875 0.65625,1.26562 0.23437,0.78125 0.23437,1.96875 v 5.90625 h -1.60937 v -5.78125 q 0,-1.45312 -0.375,-2.125 -0.375,-0.67187 -1.40625,-0.67187 -0.53125,0 -1.20313,0.1875 v 8.39062 h -1.60937 z"
       fill-rule="nonzero"
       id="path477" />
    <path
       fill="#000000"
       fill-opacity="0"
       d="m 147.16798,360.39633 h 111.2126 v 42.01575 h -111.2126 z"
       fill-rule="evenodd"
       id="path479" />
    <path
       fill="#f3f3f3"
       d="m 157.73048,387.3163 v -12.92188 h 5.8125 v 1.42188 h -4.125 v 4.07812 h 3.65625 v 1.39063 h -3.65625 v 6.03125 z m 13.76173,-4.89063 q 0,1.15625 -0.21875,2.10938 -0.20312,0.9375 -0.625,1.60937 -0.40625,0.67188 -1.0625,1.04688 -0.64062,0.375 -1.51562,0.375 -0.875,0 -1.53125,-0.375 -0.65625,-0.375 -1.07813,-1.04688 -0.40625,-0.67187 -0.625,-1.60937 -0.20312,-0.95313 -0.20312,-2.10938 0,-1.14062 0.20312,-2.07812 0.21875,-0.95313 0.625,-1.64063 0.42188,-0.6875 1.07813,-1.04687 0.65625,-0.375 1.53125,-0.375 0.875,0 1.51562,0.375 0.65625,0.35937 1.0625,1.04687 0.42188,0.6875 0.625,1.64063 0.21875,0.9375 0.21875,2.07812 z m -1.6875,0 q 0,-0.8125 -0.0937,-1.5 -0.0937,-0.6875 -0.29687,-1.17187 -0.20313,-0.5 -0.54688,-0.76563 -0.32812,-0.26562 -0.79687,-0.26562 -0.48438,0 -0.8125,0.26562 -0.32813,0.26563 -0.54688,0.76563 -0.20312,0.48437 -0.29687,1.17187 -0.0937,0.6875 -0.0937,1.5 0,0.82813 0.0937,1.51563 0.0937,0.67187 0.29687,1.15625 0.21875,0.48437 0.54688,0.76562 0.32812,0.26563 0.8125,0.26563 0.46875,0 0.79687,-0.26563 0.34375,-0.28125 0.54688,-0.76562 0.20312,-0.48438 0.29687,-1.15625 0.0937,-0.6875 0.0937,-1.51563 z m 6.57535,5.07813 q -1.39062,-0.0312 -1.98437,-0.67188 -0.59375,-0.65625 -0.59375,-2.04687 v -11.67188 l 1.59375,-0.28125 v 11.98438 q 0,0.65625 0.26562,0.95312 0.26563,0.28125 0.92188,0.39063 z m 4.53346,0 q -1.39062,-0.0312 -1.98437,-0.67188 -0.59375,-0.65625 -0.59375,-2.04687 v -11.67188 l 1.59375,-0.28125 v 11.98438 q 0,0.65625 0.26562,0.95312 0.26563,0.28125 0.92188,0.39063 z m 8.28347,-5.07813 q 0,1.15625 -0.21875,2.10938 -0.20313,0.9375 -0.625,1.60937 -0.40625,0.67188 -1.0625,1.04688 -0.64063,0.375 -1.51563,0.375 -0.875,0 -1.53125,-0.375 -0.65625,-0.375 -1.07812,-1.04688 -0.40625,-0.67187 -0.625,-1.60937 -0.20313,-0.95313 -0.20313,-2.10938 0,-1.14062 0.20313,-2.07812 0.21875,-0.95313 0.625,-1.64063 0.42187,-0.6875 1.07812,-1.04687 0.65625,-0.375 1.53125,-0.375 0.875,0 1.51563,0.375 0.65625,0.35937 1.0625,1.04687 0.42187,0.6875 0.625,1.64063 0.21875,0.9375 0.21875,2.07812 z m -1.6875,0 q 0,-0.8125 -0.0937,-1.5 -0.0937,-0.6875 -0.29688,-1.17187 -0.20312,-0.5 -0.54687,-0.76563 -0.32813,-0.26562 -0.79688,-0.26562 -0.48437,0 -0.8125,0.26562 -0.32812,0.26563 -0.54687,0.76563 -0.20313,0.48437 -0.29688,1.17187 -0.0937,0.6875 -0.0937,1.5 0,0.82813 0.0937,1.51563 0.0937,0.67187 0.29688,1.15625 0.21875,0.48437 0.54687,0.76562 0.32813,0.26563 0.8125,0.26563 0.46875,0 0.79688,-0.26563 0.34375,-0.28125 0.54687,-0.76562 0.20313,-0.48438 0.29688,-1.15625 0.0937,-0.6875 0.0937,-1.51563 z m 6.6066,4.89063 h -1.625 q -0.57813,-1.92188 -1.09375,-4.42188 -0.51563,-2.5 -0.9375,-5.375 h 1.57812 q 0.0781,0.79688 0.21875,1.875 0.15625,1.07813 0.32813,2.20313 0.1875,1.125 0.375,2.1875 0.1875,1.04687 0.35937,1.79687 0.15625,-0.75 0.375,-1.82812 0.21875,-1.07813 0.42188,-2.21875 0.21875,-1.14063 0.40625,-2.20313 0.1875,-1.07812 0.29687,-1.8125 h 1.51563 q 0.0781,0.73438 0.23437,1.79688 0.15625,1.0625 0.32813,2.21875 0.1875,1.14062 0.375,2.21875 0.1875,1.07812 0.32812,1.82812 0.17188,-0.75 0.35938,-1.8125 0.1875,-1.0625 0.35937,-2.17187 0.17188,-1.125 0.32813,-2.20313 0.15625,-1.07812 0.21875,-1.875 h 1.53125 q -0.42188,2.875 -0.9375,5.375 -0.51563,2.5 -1.09375,4.42188 h -1.5625 q -0.15625,-0.57813 -0.32813,-1.48438 -0.17187,-0.90625 -0.35937,-1.92187 -0.17188,-1.03125 -0.32813,-2.0625 -0.14062,-1.04688 -0.25,-1.90625 -0.125,0.85937 -0.3125,1.90625 -0.17187,1.03125 -0.39062,2.0625 -0.20313,1.01562 -0.40625,1.92187 -0.1875,0.90625 -0.3125,1.48438 z m 9.22128,-4.42188 q 0.0156,0.70313 0.125,1.29688 0.10937,0.59375 0.35937,1.03125 0.25,0.4375 0.67188,0.6875 0.42187,0.23437 1.07812,0.23437 0.53125,0 0.98438,-0.15625 0.46875,-0.17187 0.67187,-0.28125 l 0.29688,1.29688 q -0.23438,0.15625 -0.8125,0.35937 -0.5625,0.20313 -1.34375,0.20313 -1.03125,0 -1.73438,-0.375 -0.6875,-0.375 -1.14062,-1.04688 -0.4375,-0.67187 -0.625,-1.60937 -0.17188,-0.9375 -0.17188,-2.04688 0,-2.70312 0.89063,-3.95312 0.89062,-1.25 2.35937,-1.25 1.67188,0 2.35938,1.25 0.6875,1.25 0.6875,3.5 0,0.20312 0,0.42187 0,0.21875 -0.0156,0.4375 z m 1.60937,-4.25 q -0.79687,0 -1.15625,0.79688 -0.35937,0.79687 -0.4375,2.14062 h 2.96875 q 0,-1.35937 -0.28125,-2.14062 -0.28125,-0.79688 -1.09375,-0.79688 z m 9.64975,0.32813 q -0.59375,-0.25 -1.34375,-0.25 -0.6875,0 -1.28125,0.23437 v 8.35938 h -1.60937 v -9.35938 q 0.54687,-0.26562 1.23437,-0.4375 0.70313,-0.1875 1.54688,-0.1875 0.45312,0 0.89062,0.0625 0.45313,0.0469 0.84375,0.20313 z m 7.08535,2.76562 q 0,2.39063 0.57812,4.5 0.57813,2.10938 1.625,3.85938 l -1.28125,0.70312 q -1.15625,-1.8125 -1.84375,-4.09375 -0.67187,-2.29687 -0.67187,-4.96875 0,-2.67187 0.67187,-4.95312 0.6875,-2.29688 1.84375,-4.10938 l 1.28125,0.70313 q -1.04687,1.75 -1.625,3.85937 -0.57812,2.10938 -0.57812,4.5 z m 3.8639,-7.17187 q 1.3125,-0.3125 2.51563,-0.3125 0.98437,0 1.76562,0.23437 0.78125,0.21875 1.34375,0.70313 0.5625,0.48437 0.85938,1.25 0.3125,0.76562 0.3125,1.84375 0,1.34375 -0.51563,2.17187 -0.51562,0.82813 -1.39062,1.26563 0.21875,0.375 0.5625,1.01562 0.35937,0.64063 0.71875,1.42188 0.35937,0.76562 0.70312,1.59375 0.34375,0.8125 0.59375,1.5625 h -1.6875 q -0.20312,-0.5625 -0.51562,-1.26563 -0.29688,-0.71875 -0.64063,-1.40625 -0.32812,-0.70312 -0.67187,-1.34375 -0.32813,-0.65625 -0.59375,-1.09375 -0.29688,0.0312 -0.60938,0.0625 -0.3125,0.0156 -0.64062,0.0156 h -0.46875 v 5.03125 h -1.64063 z m 1.64063,6.32812 h 0.71875 q 1.28125,0 1.96875,-0.57812 0.6875,-0.59375 0.6875,-2.03125 0,-0.71875 -0.17188,-1.21875 -0.17187,-0.5 -0.5,-0.78125 -0.32812,-0.29688 -0.78125,-0.42188 -0.45312,-0.125 -1.01562,-0.125 -0.48438,0 -0.90625,0.0469 z m 11.18306,-0.53125 q 0.9375,0.32813 1.4375,1.1875 0.51562,0.84375 0.51562,2.1875 0,1.78125 -0.875,2.82813 -0.85937,1.03125 -2.60937,1.03125 -0.6875,0 -1.34375,-0.20313 -0.65625,-0.20312 -1.14063,-0.54687 l 0.4375,-1.29688 q 0.42188,0.25 0.89063,0.4375 0.48437,0.1875 1,0.1875 0.95312,0 1.48437,-0.57812 0.53125,-0.59375 0.53125,-1.875 0,-1.29688 -0.59375,-1.9375 -0.57812,-0.65625 -1.85937,-0.65625 h -0.48438 v -1.375 h 0.40625 q 1.125,0 1.65625,-0.59375 0.54688,-0.59375 0.54688,-1.65625 0,-1.01563 -0.4375,-1.5 -0.42188,-0.5 -1.125,-0.5 -0.48438,0 -0.9375,0.1875 -0.4375,0.1875 -0.75,0.46875 l -0.625,-1.17188 q 0.48437,-0.45312 1.14062,-0.67187 0.65625,-0.23438 1.3125,-0.23438 1.45313,0 2.23438,0.92188 0.79687,0.90625 0.79687,2.42187 0,1.0625 -0.42187,1.8125 -0.42188,0.73438 -1.1875,1.125 z m 5.52218,1.375 q 0,-2.39062 -0.57812,-4.5 -0.57813,-2.10937 -1.625,-3.85937 l 1.28125,-0.70313 q 1.15625,1.8125 1.84375,4.10938 0.6875,2.28125 0.6875,4.95312 0,2.67188 -0.6875,4.96875 -0.6875,2.28125 -1.84375,4.09375 l -1.28125,-0.70312 q 1.04687,-1.75 1.625,-3.85938 0.57812,-2.10937 0.57812,-4.5 z"
       fill-rule="nonzero"
       id="path481" />
  </g>
</svg>
