<?xml version="1.0" encoding="UTF-8" standalone="no"?>
<svg
   version="1.1"
   viewBox="0 0 916.29065 166.26613"
   fill="none"
   stroke="none"
   stroke-linecap="square"
   stroke-miterlimit="10"
   id="svg265"
   sodipodi:docname="insync-replicas_2.svg"
   width="916.29065"
   height="166.26613"
   inkscape:version="1.2.2 (b0a8486541, 2022-12-01)"
   xmlns:inkscape="http://www.inkscape.org/namespaces/inkscape"
   xmlns:sodipodi="http://sodipodi.sourceforge.net/DTD/sodipodi-0.dtd"
   xmlns="http://www.w3.org/2000/svg"
   xmlns:svg="http://www.w3.org/2000/svg">
  <defs
     id="defs269" />
  <sodipodi:namedview
     id="namedview267"
     pagecolor="#ffffff"
     bordercolor="#666666"
     borderopacity="1.0"
     inkscape:showpageshadow="2"
     inkscape:pageopacity="0.0"
     inkscape:pagecheckerboard="0"
     inkscape:deskcolor="#d1d1d1"
     showgrid="false"
     inkscape:zoom="1.3552083"
     inkscape:cx="439.78478"
     inkscape:cy="82.64412"
     inkscape:window-width="1920"
     inkscape:window-height="1011"
     inkscape:window-x="0"
     inkscape:window-y="32"
     inkscape:window-maximized="1"
     inkscape:current-layer="svg265" />
  <clipPath
     id="g181d49305e0_0_437.0">
    <path
       d="M 0,0 H 960 V 540 H 0 Z"
       clip-rule="nonzero"
       id="path2" />
  </clipPath>
  <g
     clip-path="url(#g181d49305e0_0_437.0)"
     id="g263"
     transform="translate(-21.951426,-187.11662)">
    <path
       fill="#000000"
       fill-opacity="0"
       d="M 75.560684,187.11662 H 258.58129 v 42.00645 H 75.560684 Z"
       fill-rule="evenodd"
       id="path7" />
    <path
       fill="#ffffff"
       d="m 141.37595,206.61475 h 1.15625 q 2.3125,0 2.3125,-2.09375 0,-0.65625 -0.20313,-1.0625 -0.1875,-0.42188 -0.51562,-0.65625 -0.3125,-0.23438 -0.73438,-0.32813 -0.42187,-0.0937 -0.875,-0.0937 -0.28125,0 -0.57812,0.0156 -0.28125,0.0156 -0.5625,0.0625 z m 0,1.34375 v 4.65625 q 0.34375,0.0625 0.6875,0.10937 0.35937,0.0312 0.6875,0.0312 0.53125,0 0.98437,-0.10937 0.46875,-0.125 0.8125,-0.375 0.34375,-0.26563 0.53125,-0.71875 0.20313,-0.46875 0.20313,-1.14063 0,-1.15625 -0.625,-1.79687 -0.625,-0.65625 -1.9375,-0.65625 z m -1.6875,-6.67188 q 0.65625,-0.14062 1.32812,-0.21875 0.6875,-0.0937 1.35938,-0.0937 0.84375,0 1.59375,0.15625 0.76562,0.15625 1.34375,0.54688 0.57812,0.375 0.92187,1 0.34375,0.625 0.34375,1.5625 0,1.15625 -0.48437,1.90625 -0.48438,0.73437 -1.25,1.07812 0.95312,0.375 1.5625,1.14063 0.625,0.76562 0.625,2.10937 0,1 -0.32813,1.70313 -0.32812,0.6875 -0.9375,1.125 -0.59375,0.4375 -1.42187,0.64062 -0.82813,0.1875 -1.8125,0.1875 -0.65625,0 -1.375,-0.0781 -0.70313,-0.0781 -1.46875,-0.21875 z m 13.84491,4.40625 q -0.59375,-0.25 -1.34375,-0.25 -0.6875,0 -1.28125,0.23438 v 8.35937 h -1.60938 v -9.35937 q 0.54688,-0.26563 1.23438,-0.4375 0.70312,-0.1875 1.54687,-0.1875 0.45313,0 0.89063,0.0625 0.45312,0.0469 0.84375,0.20312 z m 7.99509,3.45313 q 0,1.15625 -0.21875,2.10937 -0.20313,0.9375 -0.625,1.60938 -0.40625,0.67187 -1.0625,1.04687 -0.64063,0.375 -1.51563,0.375 -0.875,0 -1.53125,-0.375 -0.65625,-0.375 -1.07812,-1.04687 -0.40625,-0.67188 -0.625,-1.60938 -0.20313,-0.95312 -0.20313,-2.10937 0,-1.14063 0.20313,-2.07813 0.21875,-0.95312 0.625,-1.64062 0.42187,-0.6875 1.07812,-1.04688 0.65625,-0.375 1.53125,-0.375 0.875,0 1.51563,0.375 0.65625,0.35938 1.0625,1.04688 0.42187,0.6875 0.625,1.64062 0.21875,0.9375 0.21875,2.07813 z m -1.6875,0 q 0,-0.8125 -0.0937,-1.5 -0.0937,-0.6875 -0.29688,-1.17188 -0.20312,-0.5 -0.54687,-0.76562 -0.32813,-0.26563 -0.79688,-0.26563 -0.48437,0 -0.8125,0.26563 -0.32812,0.26562 -0.54687,0.76562 -0.20313,0.48438 -0.29688,1.17188 -0.0937,0.6875 -0.0937,1.5 0,0.82812 0.0937,1.51562 0.0937,0.67188 0.29688,1.15625 0.21875,0.48438 0.54687,0.76563 0.32813,0.26562 0.8125,0.26562 0.46875,0 0.79688,-0.26562 0.34375,-0.28125 0.54687,-0.76563 0.20313,-0.48437 0.29688,-1.15625 0.0937,-0.6875 0.0937,-1.51562 z m 10.09097,-4.90625 q -0.78125,1.34375 -1.5,2.45312 -0.71875,1.10938 -1.42188,2.07813 0.4375,0.53125 0.90625,1.1875 0.46875,0.64062 0.89063,1.34375 0.4375,0.70312 0.8125,1.40625 0.375,0.6875 0.625,1.32812 h -1.75 q -0.28125,-0.60937 -0.65625,-1.28125 -0.35938,-0.67187 -0.78125,-1.3125 -0.40625,-0.65625 -0.8125,-1.23437 -0.40625,-0.57813 -0.76563,-0.96875 v 4.79687 h -1.60937 V 199.8335 l 1.60937,-0.28125 v 8.90625 q 0.32813,-0.45313 0.70313,-1 0.39062,-0.5625 0.76562,-1.125 0.375,-0.57813 0.70313,-1.10938 0.34375,-0.54687 0.5625,-0.98437 z m 2.73309,5.375 q 0.0156,0.70312 0.125,1.29687 0.10938,0.59375 0.35938,1.03125 0.25,0.4375 0.67187,0.6875 0.42188,0.23438 1.07813,0.23438 0.53125,0 0.98437,-0.15625 0.46875,-0.17188 0.67188,-0.28125 l 0.29687,1.29687 q -0.23437,0.15625 -0.8125,0.35938 -0.5625,0.20312 -1.34375,0.20312 -1.03125,0 -1.73437,-0.375 -0.6875,-0.375 -1.14063,-1.04687 -0.4375,-0.67188 -0.625,-1.60938 -0.17187,-0.9375 -0.17187,-2.04687 0,-2.70313 0.89062,-3.95313 0.89063,-1.25 2.35938,-1.25 1.67187,0 2.35937,1.25 0.6875,1.25 0.6875,3.5 0,0.20313 0,0.42188 0,0.21875 -0.0156,0.4375 z m 1.60938,-4.25 q -0.79688,0 -1.15625,0.79687 -0.35938,0.79688 -0.4375,2.14063 h 2.96875 q 0,-1.35938 -0.28125,-2.14063 -0.28125,-0.79687 -1.09375,-0.79687 z m 9.64975,0.32812 q -0.59375,-0.25 -1.34375,-0.25 -0.6875,0 -1.28125,0.23438 v 8.35937 h -1.60938 v -9.35937 q 0.54688,-0.26563 1.23438,-0.4375 0.70312,-0.1875 1.54687,-0.1875 0.45313,0 0.89063,0.0625 0.45312,0.0469 0.84375,0.20312 z m 5.38222,-2.01562 q 0.34375,-0.20313 0.71875,-0.5 0.39062,-0.29688 0.75,-0.64063 0.35937,-0.34375 0.65625,-0.70312 0.3125,-0.375 0.51562,-0.71875 h 1.23438 v 12.92187 h -1.60938 V 203.646 q -0.3125,0.32812 -0.73437,0.64062 -0.42188,0.29688 -0.89063,0.54688 z"
       fill-rule="nonzero"
       id="path9" />
    <path
       fill="#000000"
       fill-opacity="0"
       d="m 22.807486,202.76276 v 150.12"
       fill-rule="evenodd"
       id="path11" />
    <path
       stroke="#f3f3f3"
       stroke-width="1"
       stroke-linejoin="round"
       stroke-linecap="butt"
       d="m 22.807486,202.76276 v 150.12"
       fill-rule="evenodd"
       id="path13" />
    <path
       fill="#000000"
       fill-opacity="0"
       d="m 311.8786,202.76276 v 150.12"
       fill-rule="evenodd"
       id="path15" />
    <path
       stroke="#f3f3f3"
       stroke-width="1"
       stroke-linejoin="round"
       stroke-linecap="butt"
       d="m 311.8786,202.76276 v 150.12"
       fill-rule="evenodd"
       id="path17" />
    <path
       fill="#000000"
       fill-opacity="0"
       d="M 21.951426,352.88275 H 312.18611"
       fill-rule="evenodd"
       id="path19" />
    <path
       stroke="#f3f3f3"
       stroke-width="1"
       stroke-linejoin="round"
       stroke-linecap="butt"
       d="M 21.951426,352.88275 H 312.18611"
       fill-rule="evenodd"
       id="path21" />
    <path
       fill="#000000"
       fill-opacity="0"
       d="m 22.807486,203.06186 h 59.26573"
       fill-rule="evenodd"
       id="path23" />
    <path
       stroke="#f3f3f3"
       stroke-width="1"
       stroke-linejoin="round"
       stroke-linecap="butt"
       d="m 22.807486,203.06186 h 59.26573"
       fill-rule="evenodd"
       id="path25" />
    <path
       fill="#000000"
       fill-opacity="0"
       d="m 250.73613,203.06186 h 61.40868"
       fill-rule="evenodd"
       id="path27" />
    <path
       stroke="#f3f3f3"
       stroke-width="1"
       stroke-linejoin="round"
       stroke-linecap="butt"
       d="m 250.73613,203.06186 h 61.40868"
       fill-rule="evenodd"
       id="path29" />
    <path
       fill="#e06666"
       d="m 230.23445,244.71582 h 50.11024 v 44 h -50.11024 z"
       fill-rule="evenodd"
       id="path31" />
    <path
       fill="#e06666"
       d="m 52.82547,244.51706 h 177.92126 v 44.15747 H 52.82547 Z"
       fill-rule="evenodd"
       id="path33" />
    <path
       stroke="#595959"
       stroke-width="1"
       stroke-linejoin="round"
       stroke-linecap="butt"
       d="m 52.82547,244.51706 h 177.92126 v 44.15747 H 52.82547 Z"
       fill-rule="evenodd"
       id="path35" />
    <path
       fill="#000000"
       fill-opacity="0"
       d="m 61.204987,245.58792 h 29.6063 v 42.01575 h -29.6063 z"
       fill-rule="evenodd"
       id="path37" />
    <path
       fill="#f3f3f3"
       d="m 71.51749,262.14856 q 0.34375,-0.20313 0.71875,-0.5 0.390625,-0.29688 0.75,-0.64063 0.359375,-0.34375 0.65625,-0.70312 0.3125,-0.375 0.515625,-0.71875 h 1.234375 v 12.92187 h -1.609375 v -10.39062 q -0.3125,0.32812 -0.734375,0.64062 -0.421875,0.29688 -0.890625,0.54688 z"
       fill-rule="nonzero"
       id="path39" />
    <path
       fill="#000000"
       fill-opacity="0"
       d="m 97.20604,245.39633 v 44"
       fill-rule="evenodd"
       id="path41" />
    <path
       stroke="#595959"
       stroke-width="1"
       stroke-linejoin="round"
       stroke-linecap="butt"
       d="m 97.20604,245.39633 v 44"
       fill-rule="evenodd"
       id="path43" />
    <path
       fill="#000000"
       fill-opacity="0"
       d="m 141.21497,245.39633 v 44"
       fill-rule="evenodd"
       id="path45" />
    <path
       stroke="#595959"
       stroke-width="1"
       stroke-linejoin="round"
       stroke-linecap="butt"
       d="m 141.21497,245.39633 v 44"
       fill-rule="evenodd"
       id="path47" />
    <path
       fill="#000000"
       fill-opacity="0"
       d="m 105.2063,245.58792 h 29.60629 v 42.01575 H 105.2063 Z"
       fill-rule="evenodd"
       id="path49" />
    <path
       fill="#f3f3f3"
       d="m 116.82649,260.38293 q 1.09375,-1.10938 2.67187,-1.10938 1.51563,0 2.3125,0.79688 0.8125,0.79687 0.8125,2.46875 0,0.79687 -0.26562,1.5 -0.26563,0.70312 -0.65625,1.375 -0.39063,0.65625 -0.85938,1.3125 -0.45312,0.65625 -0.89062,1.34375 -0.42188,0.67187 -0.75,1.40625 -0.3125,0.73437 -0.39063,1.57812 h 4.07813 v 1.45313 h -5.79688 v -0.35938 q 0,-1.25 0.28125,-2.21875 0.29688,-0.96875 0.71875,-1.75 0.42188,-0.78125 0.92188,-1.45312 0.51562,-0.67188 0.92187,-1.3125 0.42188,-0.65625 0.70313,-1.32813 0.29687,-0.6875 0.29687,-1.5 0,-0.98437 -0.39062,-1.42187 -0.39063,-0.45313 -1.17188,-0.45313 -0.54687,0 -0.98437,0.21875 -0.4375,0.21875 -0.78125,0.54688 z"
       fill-rule="nonzero"
       id="path51" />
    <path
       fill="#000000"
       fill-opacity="0"
       d="m 141.21391,245.39633 v 44"
       fill-rule="evenodd"
       id="path53" />
    <path
       stroke="#595959"
       stroke-width="1"
       stroke-linejoin="round"
       stroke-linecap="butt"
       d="m 141.21391,245.39633 v 44"
       fill-rule="evenodd"
       id="path55" />
    <path
       fill="#000000"
       fill-opacity="0"
       d="m 186.8307,245.39633 v 44"
       fill-rule="evenodd"
       id="path57" />
    <path
       stroke="#595959"
       stroke-width="1"
       stroke-linejoin="round"
       stroke-linecap="butt"
       d="m 186.8307,245.39633 v 44"
       fill-rule="evenodd"
       id="path59" />
    <path
       fill="#000000"
       fill-opacity="0"
       d="m 150.82205,245.58792 h 29.60629 v 42.01575 h -29.60629 z"
       fill-rule="evenodd"
       id="path61" />
    <path
       fill="#f3f3f3"
       d="m 162.1294,272.50793 v -1.875 h 1.875 v 1.875 z m 5.1833,0 v -1.875 h 1.875 v 1.875 z"
       fill-rule="nonzero"
       id="path63" />
    <path
       fill="#000000"
       fill-opacity="0"
       d="m 230.1273,246.28662 v 44"
       fill-rule="evenodd"
       id="path65" />
    <path
       stroke="#595959"
       stroke-width="1"
       stroke-linejoin="round"
       stroke-linecap="butt"
       d="m 230.1273,246.28662 v 44"
       fill-rule="evenodd"
       id="path67" />
    <path
       fill="#000000"
       fill-opacity="0"
       d="M 193.23149,245.58005 H 222.8378 V 287.5958 H 193.23149 Z"
       fill-rule="evenodd"
       id="path69" />
    <path
       fill="#f3f3f3"
       d="m 204.99162,262.98444 q 0.6875,-0.20313 1.48437,-0.34375 0.8125,-0.14063 1.48438,-0.14063 0.73437,0 1.32812,0.20313 0.59375,0.1875 1.01563,0.65625 0.42187,0.46875 0.65625,1.26562 0.23437,0.78125 0.23437,1.96875 v 5.90625 h -1.60937 v -5.78125 q 0,-1.45312 -0.375,-2.125 -0.375,-0.67187 -1.40625,-0.67187 -0.53125,0 -1.20313,0.1875 v 8.39062 h -1.60937 z"
       fill-rule="nonzero"
       id="path71" />
    <path
       fill="#000000"
       fill-opacity="0"
       d="m 280.53726,244.68661 v 44"
       fill-rule="evenodd"
       id="path73" />
    <path
       stroke="#595959"
       stroke-width="1"
       stroke-linejoin="round"
       stroke-linecap="butt"
       stroke-dasharray="4, 3"
       d="m 280.53726,244.68661 v 44"
       fill-rule="evenodd"
       id="path75" />
    <path
       fill="#000000"
       fill-opacity="0"
       d="m 229.63963,244.56279 h 51.05513"
       fill-rule="evenodd"
       id="path77" />
    <path
       stroke="#595959"
       stroke-width="1"
       stroke-linejoin="round"
       stroke-linecap="butt"
       stroke-dasharray="4, 3"
       d="m 229.63963,244.56279 h 51.05513"
       fill-rule="evenodd"
       id="path79" />
    <path
       fill="#000000"
       fill-opacity="0"
       d="m 229.72624,288.7945 h 50.96065"
       fill-rule="evenodd"
       id="path81" />
    <path
       stroke="#595959"
       stroke-width="1"
       stroke-linejoin="round"
       stroke-linecap="butt"
       stroke-dasharray="4, 3"
       d="m 229.72624,288.7945 h 50.96065"
       fill-rule="evenodd"
       id="path83" />
    <path
       fill="#000000"
       fill-opacity="0"
       d="m 116.42782,304.26642 h 98.3937 v 42.01575 h -98.3937 z"
       fill-rule="evenodd"
       id="path85" />
    <path
       fill="#f3f3f3"
       d="m 132.75595,329.7489 v 1.4375 h -5.76563 v -12.92188 h 1.68751 v 11.48438 z m 3.01404,-2.98438 q 0.0156,0.70313 0.125,1.29688 0.10937,0.59375 0.35937,1.03125 0.25,0.4375 0.67188,0.6875 0.42187,0.23437 1.07812,0.23437 0.53125,0 0.98438,-0.15625 0.46875,-0.17187 0.67187,-0.28125 l 0.29688,1.29688 q -0.23438,0.15625 -0.8125,0.35937 -0.5625,0.20313 -1.34375,0.20313 -1.03125,0 -1.73438,-0.375 -0.6875,-0.375 -1.14062,-1.04688 -0.4375,-0.67187 -0.625,-1.60937 -0.17188,-0.9375 -0.17188,-2.04688 0,-2.70312 0.89063,-3.95312 0.89062,-1.25 2.35937,-1.25 1.67188,0 2.35938,1.25 0.6875,1.25 0.6875,3.5 0,0.20312 0,0.42187 0,0.21875 -0.0156,0.4375 z m 1.60937,-4.25 q -0.79687,0 -1.15625,0.79688 -0.35937,0.79687 -0.4375,2.14062 h 2.96875 q 0,-1.35937 -0.28125,-2.14062 -0.28125,-0.79688 -1.09375,-0.79688 z m 5.57163,-0.92187 q 0.48437,-0.20313 1.01562,-0.3125 0.54688,-0.125 1.1875,-0.125 1.29688,0 2.10938,0.8125 0.82812,0.8125 0.82812,2.51562 v 6.5 q -0.67187,0.1875 -1.375,0.29688 -0.6875,0.10937 -1.35937,0.10937 -0.67188,0 -1.26563,-0.17187 -0.57812,-0.15625 -1.03125,-0.53125 -0.4375,-0.375 -0.70312,-0.9375 -0.25,-0.57813 -0.25,-1.39063 0,-0.76562 0.23437,-1.32812 0.23438,-0.57813 0.64063,-0.95313 0.40625,-0.39062 0.96875,-0.57812 0.5625,-0.20313 1.21875,-0.20313 0.60937,0 1.35937,0.14063 v -0.89063 q 0,-1.07812 -0.42187,-1.5 -0.42188,-0.4375 -1.20313,-0.4375 -0.42187,0 -0.8125,0.0937 -0.375,0.0781 -0.8125,0.25 z m 0.76562,6.73437 q 0,0.85938 0.4375,1.28125 0.45313,0.40625 1.26563,0.40625 0.51562,0 1.10937,-0.14062 v -3.10938 q -0.5625,-0.15625 -1.10937,-0.15625 -0.34375,0 -0.67188,0.0937 -0.3125,0.0781 -0.54687,0.28125 -0.23438,0.1875 -0.35938,0.51563 -0.125,0.32812 -0.125,0.82812 z m 11.39369,-5.46875 q -0.54687,-0.29687 -1.15625,-0.29687 -0.46875,0 -0.82812,0.1875 -0.34375,0.1875 -0.60938,0.625 -0.25,0.42187 -0.375,1.14062 -0.125,0.70313 -0.125,1.75 0,2.01563 0.53125,2.89063 0.53125,0.85937 1.60938,0.85937 0.20312,0 0.4375,-0.0312 0.25,-0.0312 0.51562,-0.10937 z m 0,-5.875 1.60938,-0.28125 v 14.21875 q -0.53125,0.23438 -1.20313,0.375 -0.67187,0.14063 -1.35937,0.14063 -2.01563,0 -2.92188,-1.28125 -0.90625,-1.29688 -0.90625,-3.89063 0,-1.17187 0.1875,-2.10937 0.20313,-0.95313 0.625,-1.60938 0.42188,-0.67187 1.07813,-1.03125 0.65625,-0.35937 1.54687,-0.35937 0.42188,0 0.73438,0.0781 0.3125,0.0781 0.60937,0.23438 z m 5.60309,9.78125 q 0.0156,0.70313 0.125,1.29688 0.10938,0.59375 0.35938,1.03125 0.25,0.4375 0.67187,0.6875 0.42188,0.23437 1.07813,0.23437 0.53125,0 0.98437,-0.15625 0.46875,-0.17187 0.67188,-0.28125 l 0.29687,1.29688 q -0.23437,0.15625 -0.8125,0.35937 -0.5625,0.20313 -1.34375,0.20313 -1.03125,0 -1.73437,-0.375 -0.6875,-0.375 -1.14063,-1.04688 -0.4375,-0.67187 -0.625,-1.60937 -0.17187,-0.9375 -0.17187,-2.04688 0,-2.70312 0.89062,-3.95312 0.89063,-1.25 2.35938,-1.25 1.67187,0 2.35937,1.25 0.6875,1.25 0.6875,3.5 0,0.20312 0,0.42187 0,0.21875 -0.0156,0.4375 z m 1.60938,-4.25 q -0.79688,0 -1.15625,0.79688 -0.35938,0.79687 -0.4375,2.14062 h 2.96875 q 0,-1.35937 -0.28125,-2.14062 -0.28125,-0.79688 -1.09375,-0.79688 z m 9.64975,0.32813 q -0.59375,-0.25 -1.34375,-0.25 -0.6875,0 -1.28125,0.23437 v 8.35938 h -1.60938 v -9.35938 q 0.54688,-0.26562 1.23438,-0.4375 0.70312,-0.1875 1.54687,-0.1875 0.45313,0 0.89063,0.0625 0.45312,0.0469 0.84375,0.20313 z m 7.08534,2.76562 q 0,2.39063 0.57813,4.5 0.57812,2.10938 1.625,3.85938 l -1.28125,0.70312 q -1.15625,-1.8125 -1.84375,-4.09375 -0.67188,-2.29687 -0.67188,-4.96875 0,-2.67187 0.67188,-4.95312 0.6875,-2.29688 1.84375,-4.10938 l 1.28125,0.70313 q -1.04688,1.75 -1.625,3.85937 -0.57813,2.10938 -0.57813,4.5 z m 3.86391,-7.17187 q 1.3125,-0.3125 2.51562,-0.3125 0.98438,0 1.76563,0.23437 0.78125,0.21875 1.34375,0.70313 0.5625,0.48437 0.85937,1.25 0.3125,0.76562 0.3125,1.84375 0,1.34375 -0.51562,2.17187 -0.51563,0.82813 -1.39063,1.26563 0.21875,0.375 0.5625,1.01562 0.35938,0.64063 0.71875,1.42188 0.35938,0.76562 0.70313,1.59375 0.34375,0.8125 0.59375,1.5625 h -1.6875 q -0.20313,-0.5625 -0.51563,-1.26563 -0.29687,-0.71875 -0.64062,-1.40625 -0.32813,-0.70312 -0.67188,-1.34375 -0.32812,-0.65625 -0.59375,-1.09375 -0.29687,0.0312 -0.60937,0.0625 -0.3125,0.0156 -0.64063,0.0156 h -0.46875 v 5.03125 h -1.64062 z m 1.64062,6.32812 h 0.71875 q 1.28125,0 1.96875,-0.57812 0.6875,-0.59375 0.6875,-2.03125 0,-0.71875 -0.17187,-1.21875 -0.17188,-0.5 -0.5,-0.78125 -0.32813,-0.29688 -0.78125,-0.42188 -0.45313,-0.125 -1.01563,-0.125 -0.48437,0 -0.90625,0.0469 z m 7.69869,-3.9375 q 0.34375,-0.20312 0.71875,-0.5 0.39062,-0.29687 0.75,-0.64062 0.35937,-0.34375 0.65625,-0.70313 0.3125,-0.375 0.51562,-0.71875 h 1.23438 v 12.92188 h -1.60938 v -10.39063 q -0.3125,0.32813 -0.73437,0.64063 -0.42188,0.29687 -0.89063,0.54687 z m 9.00656,4.78125 q 0,-2.39062 -0.57813,-4.5 -0.57812,-2.10937 -1.625,-3.85937 l 1.28125,-0.70313 q 1.15625,1.8125 1.84375,4.10938 0.6875,2.28125 0.6875,4.95312 0,2.67188 -0.6875,4.96875 -0.6875,2.28125 -1.84375,4.09375 l -1.28125,-0.70312 q 1.04688,-1.75 1.625,-3.85938 0.57813,-2.10937 0.57813,-4.5 z"
       fill-rule="nonzero"
       id="path87" />
    <path
       fill="#000000"
       fill-opacity="0"
       d="m 424.3937,304.26642 h 111.21262 v 42.01575 H 424.3937 Z"
       fill-rule="evenodd"
       id="path89" />
    <path
       fill="#f3f3f3"
       d="m 434.9562,331.1864 v -12.92188 h 5.8125 v 1.42188 h -4.125 v 4.07812 h 3.65625 v 1.39063 h -3.65625 v 6.03125 z m 13.76172,-4.89063 q 0,1.15625 -0.21875,2.10938 -0.20313,0.9375 -0.625,1.60937 -0.40625,0.67188 -1.0625,1.04688 -0.64063,0.375 -1.51563,0.375 -0.875,0 -1.53125,-0.375 -0.65625,-0.375 -1.07812,-1.04688 -0.40625,-0.67187 -0.625,-1.60937 -0.20313,-0.95313 -0.20313,-2.10938 0,-1.14062 0.20313,-2.07812 0.21875,-0.95313 0.625,-1.64063 0.42187,-0.6875 1.07812,-1.04687 0.65625,-0.375 1.53125,-0.375 0.875,0 1.51563,0.375 0.65625,0.35937 1.0625,1.04687 0.42187,0.6875 0.625,1.64063 0.21875,0.9375 0.21875,2.07812 z m -1.6875,0 q 0,-0.8125 -0.0937,-1.5 -0.0937,-0.6875 -0.29688,-1.17187 -0.20312,-0.5 -0.54687,-0.76563 -0.32813,-0.26562 -0.79688,-0.26562 -0.48437,0 -0.8125,0.26562 -0.32812,0.26563 -0.54687,0.76563 -0.20313,0.48437 -0.29688,1.17187 -0.0937,0.6875 -0.0937,1.5 0,0.82813 0.0937,1.51563 0.0937,0.67187 0.29688,1.15625 0.21875,0.48437 0.54687,0.76562 0.32813,0.26563 0.8125,0.26563 0.46875,0 0.79688,-0.26563 0.34375,-0.28125 0.54687,-0.76562 0.20313,-0.48438 0.29688,-1.15625 0.0937,-0.6875 0.0937,-1.51563 z m 6.57535,5.07813 q -1.39063,-0.0312 -1.98438,-0.67188 -0.59375,-0.65625 -0.59375,-2.04687 v -11.67188 l 1.59375,-0.28125 v 11.98438 q 0,0.65625 0.26563,0.95312 0.26562,0.28125 0.92187,0.39063 z m 4.53348,0 q -1.39063,-0.0312 -1.98438,-0.67188 -0.59375,-0.65625 -0.59375,-2.04687 v -11.67188 l 1.59375,-0.28125 v 11.98438 q 0,0.65625 0.26563,0.95312 0.26562,0.28125 0.92187,0.39063 z m 8.28344,-5.07813 q 0,1.15625 -0.21875,2.10938 -0.20312,0.9375 -0.625,1.60937 -0.40625,0.67188 -1.0625,1.04688 -0.64062,0.375 -1.51562,0.375 -0.875,0 -1.53125,-0.375 -0.65625,-0.375 -1.07813,-1.04688 -0.40625,-0.67187 -0.625,-1.60937 -0.20312,-0.95313 -0.20312,-2.10938 0,-1.14062 0.20312,-2.07812 0.21875,-0.95313 0.625,-1.64063 0.42188,-0.6875 1.07813,-1.04687 0.65625,-0.375 1.53125,-0.375 0.875,0 1.51562,0.375 0.65625,0.35937 1.0625,1.04687 0.42188,0.6875 0.625,1.64063 0.21875,0.9375 0.21875,2.07812 z m -1.6875,0 q 0,-0.8125 -0.0937,-1.5 -0.0937,-0.6875 -0.29687,-1.17187 -0.20313,-0.5 -0.54688,-0.76563 -0.32812,-0.26562 -0.79687,-0.26562 -0.48438,0 -0.8125,0.26562 -0.32813,0.26563 -0.54688,0.76563 -0.20312,0.48437 -0.29687,1.17187 -0.0937,0.6875 -0.0937,1.5 0,0.82813 0.0937,1.51563 0.0937,0.67187 0.29687,1.15625 0.21875,0.48437 0.54688,0.76562 0.32812,0.26563 0.8125,0.26563 0.46875,0 0.79687,-0.26563 0.34375,-0.28125 0.54688,-0.76562 0.20312,-0.48438 0.29687,-1.15625 0.0937,-0.6875 0.0937,-1.51563 z m 6.6066,4.89063 h -1.625 q -0.57812,-1.92188 -1.09375,-4.42188 -0.51562,-2.5 -0.9375,-5.375 h 1.57813 q 0.0781,0.79688 0.21875,1.875 0.15625,1.07813 0.32812,2.20313 0.1875,1.125 0.375,2.1875 0.1875,1.04687 0.35938,1.79687 0.15625,-0.75 0.375,-1.82812 0.21875,-1.07813 0.42187,-2.21875 0.21875,-1.14063 0.40625,-2.20313 0.1875,-1.07812 0.29688,-1.8125 h 1.51562 q 0.0781,0.73438 0.23438,1.79688 0.15625,1.0625 0.32812,2.21875 0.1875,1.14062 0.375,2.21875 0.1875,1.07812 0.32813,1.82812 0.17187,-0.75 0.35937,-1.8125 0.1875,-1.0625 0.35938,-2.17187 0.17187,-1.125 0.32812,-2.20313 0.15625,-1.07812 0.21875,-1.875 h 1.53125 q -0.42187,2.875 -0.9375,5.375 -0.51562,2.5 -1.09375,4.42188 h -1.5625 q -0.15625,-0.57813 -0.32812,-1.48438 -0.17188,-0.90625 -0.35938,-1.92187 -0.17187,-1.03125 -0.32812,-2.0625 -0.14063,-1.04688 -0.25,-1.90625 -0.125,0.85937 -0.3125,1.90625 -0.17188,1.03125 -0.39063,2.0625 -0.20312,1.01562 -0.40625,1.92187 -0.1875,0.90625 -0.3125,1.48438 z m 9.22128,-4.42188 q 0.0156,0.70313 0.125,1.29688 0.10938,0.59375 0.35938,1.03125 0.25,0.4375 0.67187,0.6875 0.42188,0.23437 1.07813,0.23437 0.53125,0 0.98437,-0.15625 0.46875,-0.17187 0.67188,-0.28125 l 0.29687,1.29688 q -0.23437,0.15625 -0.8125,0.35937 -0.5625,0.20313 -1.34375,0.20313 -1.03125,0 -1.73437,-0.375 -0.6875,-0.375 -1.14063,-1.04688 -0.4375,-0.67187 -0.625,-1.60937 -0.17187,-0.9375 -0.17187,-2.04688 0,-2.70312 0.89062,-3.95312 0.89063,-1.25 2.35938,-1.25 1.67187,0 2.35937,1.25 0.6875,1.25 0.6875,3.5 0,0.20312 0,0.42187 0,0.21875 -0.0156,0.4375 z m 1.60938,-4.25 q -0.79688,0 -1.15625,0.79688 -0.35938,0.79687 -0.4375,2.14062 h 2.96875 q 0,-1.35937 -0.28125,-2.14062 -0.28125,-0.79688 -1.09375,-0.79688 z m 9.64975,0.32813 q -0.59375,-0.25 -1.34375,-0.25 -0.6875,0 -1.28125,0.23437 v 8.35938 h -1.60938 v -9.35938 q 0.54688,-0.26562 1.23438,-0.4375 0.70312,-0.1875 1.54687,-0.1875 0.45313,0 0.89063,0.0625 0.45312,0.0469 0.84375,0.20313 z m 7.08536,2.76562 q 0,2.39063 0.57812,4.5 0.57813,2.10938 1.625,3.85938 l -1.28125,0.70312 q -1.15625,-1.8125 -1.84375,-4.09375 -0.67187,-2.29687 -0.67187,-4.96875 0,-2.67187 0.67187,-4.95312 0.6875,-2.29688 1.84375,-4.10938 l 1.28125,0.70313 q -1.04687,1.75 -1.625,3.85937 -0.57812,2.10938 -0.57812,4.5 z m 3.86389,-7.17187 q 1.3125,-0.3125 2.51562,-0.3125 0.98438,0 1.76563,0.23437 0.78125,0.21875 1.34375,0.70313 0.5625,0.48437 0.85937,1.25 0.3125,0.76562 0.3125,1.84375 0,1.34375 -0.51562,2.17187 -0.51563,0.82813 -1.39063,1.26563 0.21875,0.375 0.5625,1.01562 0.35938,0.64063 0.71875,1.42188 0.35938,0.76562 0.70313,1.59375 0.34375,0.8125 0.59375,1.5625 h -1.6875 q -0.20313,-0.5625 -0.51563,-1.26563 -0.29687,-0.71875 -0.64062,-1.40625 -0.32813,-0.70312 -0.67188,-1.34375 -0.32812,-0.65625 -0.59375,-1.09375 -0.29687,0.0312 -0.60937,0.0625 -0.3125,0.0156 -0.64063,0.0156 h -0.46875 v 5.03125 h -1.64062 z m 1.64062,6.32812 h 0.71875 q 1.28125,0 1.96875,-0.57812 0.6875,-0.59375 0.6875,-2.03125 0,-0.71875 -0.17187,-1.21875 -0.17188,-0.5 -0.5,-0.78125 -0.32813,-0.29688 -0.78125,-0.42188 -0.45313,-0.125 -1.01563,-0.125 -0.48437,0 -0.90625,0.0469 z m 7.21433,-5.70312 q 1.09375,-1.10938 2.67187,-1.10938 1.51563,0 2.3125,0.79688 0.8125,0.79687 0.8125,2.46875 0,0.79687 -0.26562,1.5 -0.26563,0.70312 -0.65625,1.375 -0.39063,0.65625 -0.85938,1.3125 -0.45312,0.65625 -0.89062,1.34375 -0.42188,0.67187 -0.75,1.40625 -0.3125,0.73437 -0.39063,1.57812 h 4.07813 v 1.45313 h -5.79688 v -0.35938 q 0,-1.25 0.28125,-2.21875 0.29688,-0.96875 0.71875,-1.75 0.42188,-0.78125 0.92188,-1.45312 0.51562,-0.67188 0.92187,-1.3125 0.42188,-0.65625 0.70313,-1.32813 0.29687,-0.6875 0.29687,-1.5 0,-0.98437 -0.39062,-1.42187 -0.39063,-0.45313 -1.17188,-0.45313 -0.54687,0 -0.98437,0.21875 -0.4375,0.21875 -0.78125,0.54688 z m 9.4909,6.54687 q 0,-2.39062 -0.57812,-4.5 -0.57813,-2.10937 -1.625,-3.85937 l 1.28125,-0.70313 q 1.15625,1.8125 1.84375,4.10938 0.6875,2.28125 0.6875,4.95312 0,2.67188 -0.6875,4.96875 -0.6875,2.28125 -1.84375,4.09375 l -1.28125,-0.70312 q 1.04687,-1.75 1.625,-3.85938 0.57812,-2.10937 0.57812,-4.5 z"
       fill-rule="nonzero"
       id="path91" />
    <path
       fill="#000000"
       fill-opacity="0"
       d="m 228.83963,244.56273 h 52.47244 v 42.01576 h -52.47244 z"
       fill-rule="evenodd"
       id="path93" />
    <path
       fill="#f3f3f3"
       d="m 244.01064,261.9671 q 0.6875,-0.20312 1.48437,-0.34375 0.8125,-0.14062 1.48438,-0.14062 0.73437,0 1.32812,0.20312 0.59375,0.1875 1.01563,0.65625 0.42187,0.46875 0.65625,1.26563 0.23437,0.78125 0.23437,1.96875 v 5.90625 h -1.60937 v -5.78125 q 0,-1.45313 -0.375,-2.125 -0.375,-0.67188 -1.40625,-0.67188 -0.53125,0 -1.20313,0.1875 v 8.39063 h -1.60937 z m 8.33606,3.25 h 2.53125 v -2.6875 h 1.37502 v 2.6875 h 2.51562 v 1.35938 h -2.51562 v 2.70312 h -1.37502 v -2.70312 h -2.53125 z m 8.53783,-4.09375 q 0.34375,-0.20312 0.71875,-0.5 0.39062,-0.29687 0.75,-0.64062 0.35937,-0.34375 0.65625,-0.70313 0.3125,-0.375 0.51562,-0.71875 h 1.23438 v 12.92188 h -1.60938 V 261.0921 q -0.3125,0.32813 -0.73437,0.64063 -0.42188,0.29687 -0.89063,0.54687 z"
       fill-rule="nonzero"
       id="path95" />
    <path
       fill="#000000"
       fill-opacity="0"
       d="m 737.32544,304.26642 h 111.21265 v 42.01575 H 737.32544 Z"
       fill-rule="evenodd"
       id="path97" />
    <path
       fill="#f3f3f3"
       d="m 747.88794,331.1864 v -12.92188 h 5.8125 v 1.42188 h -4.125 v 4.07812 h 3.65625 v 1.39063 h -3.65625 v 6.03125 z m 13.76178,-4.89063 q 0,1.15625 -0.21875,2.10938 -0.20313,0.9375 -0.625,1.60937 -0.40625,0.67188 -1.0625,1.04688 -0.64063,0.375 -1.51563,0.375 -0.875,0 -1.53125,-0.375 -0.65625,-0.375 -1.07812,-1.04688 -0.40625,-0.67187 -0.625,-1.60937 -0.20313,-0.95313 -0.20313,-2.10938 0,-1.14062 0.20313,-2.07812 0.21875,-0.95313 0.625,-1.64063 0.42187,-0.6875 1.07812,-1.04687 0.65625,-0.375 1.53125,-0.375 0.875,0 1.51563,0.375 0.65625,0.35937 1.0625,1.04687 0.42187,0.6875 0.625,1.64063 0.21875,0.9375 0.21875,2.07812 z m -1.6875,0 q 0,-0.8125 -0.0937,-1.5 -0.0937,-0.6875 -0.29688,-1.17187 -0.20312,-0.5 -0.54687,-0.76563 -0.32813,-0.26562 -0.79688,-0.26562 -0.48437,0 -0.8125,0.26562 -0.32812,0.26563 -0.54687,0.76563 -0.20313,0.48437 -0.29688,1.17187 -0.0937,0.6875 -0.0937,1.5 0,0.82813 0.0937,1.51563 0.0937,0.67187 0.29688,1.15625 0.21875,0.48437 0.54687,0.76562 0.32813,0.26563 0.8125,0.26563 0.46875,0 0.79688,-0.26563 0.34375,-0.28125 0.54687,-0.76562 0.20313,-0.48438 0.29688,-1.15625 0.0937,-0.6875 0.0937,-1.51563 z m 6.57532,5.07813 q -1.39063,-0.0312 -1.98438,-0.67188 -0.59375,-0.65625 -0.59375,-2.04687 v -11.67188 l 1.59375,-0.28125 v 11.98438 q 0,0.65625 0.26563,0.95312 0.26562,0.28125 0.92187,0.39063 z m 4.53344,0 q -1.39062,-0.0312 -1.98437,-0.67188 -0.59375,-0.65625 -0.59375,-2.04687 v -11.67188 l 1.59375,-0.28125 v 11.98438 q 0,0.65625 0.26562,0.95312 0.26563,0.28125 0.92188,0.39063 z m 8.28351,-5.07813 q 0,1.15625 -0.21875,2.10938 -0.20312,0.9375 -0.625,1.60937 -0.40625,0.67188 -1.0625,1.04688 -0.64062,0.375 -1.51562,0.375 -0.875,0 -1.53125,-0.375 -0.65625,-0.375 -1.07813,-1.04688 -0.40625,-0.67187 -0.625,-1.60937 -0.20312,-0.95313 -0.20312,-2.10938 0,-1.14062 0.20312,-2.07812 0.21875,-0.95313 0.625,-1.64063 0.42188,-0.6875 1.07813,-1.04687 0.65625,-0.375 1.53125,-0.375 0.875,0 1.51562,0.375 0.65625,0.35937 1.0625,1.04687 0.42188,0.6875 0.625,1.64063 0.21875,0.9375 0.21875,2.07812 z m -1.6875,0 q 0,-0.8125 -0.0937,-1.5 -0.0937,-0.6875 -0.29687,-1.17187 -0.20313,-0.5 -0.54688,-0.76563 -0.32812,-0.26562 -0.79687,-0.26562 -0.48438,0 -0.8125,0.26562 -0.32813,0.26563 -0.54688,0.76563 -0.20312,0.48437 -0.29687,1.17187 -0.0937,0.6875 -0.0937,1.5 0,0.82813 0.0937,1.51563 0.0937,0.67187 0.29687,1.15625 0.21875,0.48437 0.54688,0.76562 0.32812,0.26563 0.8125,0.26563 0.46875,0 0.79687,-0.26563 0.34375,-0.28125 0.54688,-0.76562 0.20312,-0.48438 0.29687,-1.15625 0.0937,-0.6875 0.0937,-1.51563 z m 6.60657,4.89063 h -1.625 q -0.57812,-1.92188 -1.09375,-4.42188 -0.51562,-2.5 -0.9375,-5.375 h 1.57813 q 0.0781,0.79688 0.21875,1.875 0.15625,1.07813 0.32812,2.20313 0.1875,1.125 0.375,2.1875 0.1875,1.04687 0.35938,1.79687 0.15625,-0.75 0.375,-1.82812 0.21875,-1.07813 0.42187,-2.21875 0.21875,-1.14063 0.40625,-2.20313 0.1875,-1.07812 0.29688,-1.8125 h 1.51562 q 0.0781,0.73438 0.23438,1.79688 0.15625,1.0625 0.32812,2.21875 0.1875,1.14062 0.375,2.21875 0.1875,1.07812 0.32813,1.82812 0.17187,-0.75 0.35937,-1.8125 0.1875,-1.0625 0.35938,-2.17187 0.17187,-1.125 0.32812,-2.20313 0.15625,-1.07812 0.21875,-1.875 h 1.53125 q -0.42187,2.875 -0.9375,5.375 -0.51562,2.5 -1.09375,4.42188 h -1.5625 q -0.15625,-0.57813 -0.32812,-1.48438 -0.17188,-0.90625 -0.35938,-1.92187 -0.17187,-1.03125 -0.32812,-2.0625 -0.14063,-1.04688 -0.25,-1.90625 -0.125,0.85937 -0.3125,1.90625 -0.17188,1.03125 -0.39063,2.0625 -0.20312,1.01562 -0.40625,1.92187 -0.1875,0.90625 -0.3125,1.48438 z m 9.22131,-4.42188 q 0.0156,0.70313 0.125,1.29688 0.10938,0.59375 0.35938,1.03125 0.25,0.4375 0.67187,0.6875 0.42188,0.23437 1.07813,0.23437 0.53125,0 0.98437,-0.15625 0.46875,-0.17187 0.67188,-0.28125 l 0.29687,1.29688 q -0.23437,0.15625 -0.8125,0.35937 -0.5625,0.20313 -1.34375,0.20313 -1.03125,0 -1.73437,-0.375 -0.6875,-0.375 -1.14063,-1.04688 -0.4375,-0.67187 -0.625,-1.60937 -0.17187,-0.9375 -0.17187,-2.04688 0,-2.70312 0.89062,-3.95312 0.89063,-1.25 2.35938,-1.25 1.67187,0 2.35937,1.25 0.6875,1.25 0.6875,3.5 0,0.20312 0,0.42187 0,0.21875 -0.0156,0.4375 z m 1.60938,-4.25 q -0.79688,0 -1.15625,0.79688 -0.35938,0.79687 -0.4375,2.14062 h 2.96875 q 0,-1.35937 -0.28125,-2.14062 -0.28125,-0.79688 -1.09375,-0.79688 z m 9.64972,0.32813 q -0.59375,-0.25 -1.34375,-0.25 -0.6875,0 -1.28125,0.23437 v 8.35938 h -1.60938 v -9.35938 q 0.54688,-0.26562 1.23438,-0.4375 0.70312,-0.1875 1.54687,-0.1875 0.45313,0 0.89063,0.0625 0.45312,0.0469 0.84375,0.20313 z m 7.08532,2.76562 q 0,2.39063 0.57813,4.5 0.57812,2.10938 1.625,3.85938 l -1.28125,0.70312 q -1.15625,-1.8125 -1.84375,-4.09375 -0.67188,-2.29687 -0.67188,-4.96875 0,-2.67187 0.67188,-4.95312 0.6875,-2.29688 1.84375,-4.10938 l 1.28125,0.70313 q -1.04688,1.75 -1.625,3.85937 -0.57813,2.10938 -0.57813,4.5 z m 3.86396,-7.17187 q 1.3125,-0.3125 2.51562,-0.3125 0.98438,0 1.76563,0.23437 0.78125,0.21875 1.34375,0.70313 0.5625,0.48437 0.85937,1.25 0.3125,0.76562 0.3125,1.84375 0,1.34375 -0.51562,2.17187 -0.51563,0.82813 -1.39063,1.26563 0.21875,0.375 0.5625,1.01562 0.35938,0.64063 0.71875,1.42188 0.35938,0.76562 0.70313,1.59375 0.34375,0.8125 0.59375,1.5625 h -1.6875 q -0.20313,-0.5625 -0.51563,-1.26563 -0.29687,-0.71875 -0.64062,-1.40625 -0.32813,-0.70312 -0.67188,-1.34375 -0.32812,-0.65625 -0.59375,-1.09375 -0.29687,0.0312 -0.60937,0.0625 -0.3125,0.0156 -0.64063,0.0156 h -0.46875 v 5.03125 h -1.64062 z m 1.64062,6.32812 h 0.71875 q 1.28125,0 1.96875,-0.57812 0.6875,-0.59375 0.6875,-2.03125 0,-0.71875 -0.17187,-1.21875 -0.17188,-0.5 -0.5,-0.78125 -0.32813,-0.29688 -0.78125,-0.42188 -0.45313,-0.125 -1.01563,-0.125 -0.48437,0 -0.90625,0.0469 z m 11.18305,-0.53125 q 0.9375,0.32813 1.4375,1.1875 0.51562,0.84375 0.51562,2.1875 0,1.78125 -0.875,2.82813 -0.85937,1.03125 -2.60937,1.03125 -0.6875,0 -1.34375,-0.20313 -0.65625,-0.20312 -1.14063,-0.54687 l 0.4375,-1.29688 q 0.42188,0.25 0.89063,0.4375 0.48437,0.1875 1,0.1875 0.95312,0 1.48437,-0.57812 0.53125,-0.59375 0.53125,-1.875 0,-1.29688 -0.59375,-1.9375 -0.57812,-0.65625 -1.85937,-0.65625 h -0.48438 v -1.375 h 0.40625 q 1.125,0 1.65625,-0.59375 0.54688,-0.59375 0.54688,-1.65625 0,-1.01563 -0.4375,-1.5 -0.42188,-0.5 -1.125,-0.5 -0.48438,0 -0.9375,0.1875 -0.4375,0.1875 -0.75,0.46875 l -0.625,-1.17188 q 0.48437,-0.45312 1.14062,-0.67187 0.65625,-0.23438 1.3125,-0.23438 1.45313,0 2.23438,0.92188 0.79687,0.90625 0.79687,2.42187 0,1.0625 -0.42187,1.8125 -0.42188,0.73438 -1.1875,1.125 z m 5.52215,1.375 q 0,-2.39062 -0.57812,-4.5 -0.57813,-2.10937 -1.625,-3.85937 l 1.28125,-0.70313 q 1.15625,1.8125 1.84375,4.10938 0.6875,2.28125 0.6875,4.95312 0,2.67188 -0.6875,4.96875 -0.6875,2.28125 -1.84375,4.09375 l -1.28125,-0.70312 q 1.04687,-1.75 1.625,-3.85938 0.57812,-2.10937 0.57812,-4.5 z"
       fill-rule="nonzero"
       id="path99" />
    <path
       fill="#000000"
       fill-opacity="0"
       d="m 388.49243,187.11662 h 183.02063 v 42.00645 H 388.49243 Z"
       fill-rule="evenodd"
       id="path101" />
    <path
       fill="#ffffff"
       d="m 454.3077,206.61475 h 1.15625 q 2.3125,0 2.3125,-2.09375 0,-0.65625 -0.20313,-1.0625 -0.1875,-0.42188 -0.51562,-0.65625 -0.3125,-0.23438 -0.73438,-0.32813 -0.42187,-0.0937 -0.875,-0.0937 -0.28125,0 -0.57812,0.0156 -0.28125,0.0156 -0.5625,0.0625 z m 0,1.34375 v 4.65625 q 0.34375,0.0625 0.6875,0.10937 0.35937,0.0312 0.6875,0.0312 0.53125,0 0.98437,-0.10937 0.46875,-0.125 0.8125,-0.375 0.34375,-0.26563 0.53125,-0.71875 0.20313,-0.46875 0.20313,-1.14063 0,-1.15625 -0.625,-1.79687 -0.625,-0.65625 -1.9375,-0.65625 z m -1.6875,-6.67188 q 0.65625,-0.14062 1.32812,-0.21875 0.6875,-0.0937 1.35938,-0.0937 0.84375,0 1.59375,0.15625 0.76562,0.15625 1.34375,0.54688 0.57812,0.375 0.92187,1 0.34375,0.625 0.34375,1.5625 0,1.15625 -0.48437,1.90625 -0.48438,0.73437 -1.25,1.07812 0.95312,0.375 1.5625,1.14063 0.625,0.76562 0.625,2.10937 0,1 -0.32813,1.70313 -0.32812,0.6875 -0.9375,1.125 -0.59375,0.4375 -1.42187,0.64062 -0.82813,0.1875 -1.8125,0.1875 -0.65625,0 -1.375,-0.0781 -0.70313,-0.0781 -1.46875,-0.21875 z m 13.84491,4.40625 q -0.59375,-0.25 -1.34375,-0.25 -0.6875,0 -1.28125,0.23438 v 8.35937 h -1.60937 v -9.35937 q 0.54687,-0.26563 1.23437,-0.4375 0.70313,-0.1875 1.54688,-0.1875 0.45312,0 0.89062,0.0625 0.45313,0.0469 0.84375,0.20312 z m 7.99509,3.45313 q 0,1.15625 -0.21875,2.10937 -0.20313,0.9375 -0.625,1.60938 -0.40625,0.67187 -1.0625,1.04687 -0.64063,0.375 -1.51563,0.375 -0.875,0 -1.53125,-0.375 -0.65625,-0.375 -1.07812,-1.04687 -0.40625,-0.67188 -0.625,-1.60938 -0.20313,-0.95312 -0.20313,-2.10937 0,-1.14063 0.20313,-2.07813 0.21875,-0.95312 0.625,-1.64062 0.42187,-0.6875 1.07812,-1.04688 0.65625,-0.375 1.53125,-0.375 0.875,0 1.51563,0.375 0.65625,0.35938 1.0625,1.04688 0.42187,0.6875 0.625,1.64062 0.21875,0.9375 0.21875,2.07813 z m -1.6875,0 q 0,-0.8125 -0.0937,-1.5 -0.0937,-0.6875 -0.29688,-1.17188 -0.20312,-0.5 -0.54687,-0.76562 -0.32813,-0.26563 -0.79688,-0.26563 -0.48437,0 -0.8125,0.26563 -0.32812,0.26562 -0.54687,0.76562 -0.20313,0.48438 -0.29688,1.17188 -0.0937,0.6875 -0.0937,1.5 0,0.82812 0.0937,1.51562 0.0937,0.67188 0.29688,1.15625 0.21875,0.48438 0.54687,0.76563 0.32813,0.26562 0.8125,0.26562 0.46875,0 0.79688,-0.26562 0.34375,-0.28125 0.54687,-0.76563 0.20313,-0.48437 0.29688,-1.15625 0.0937,-0.6875 0.0937,-1.51562 z m 10.09097,-4.90625 q -0.78125,1.34375 -1.5,2.45312 -0.71875,1.10938 -1.42188,2.07813 0.4375,0.53125 0.90625,1.1875 0.46875,0.64062 0.89063,1.34375 0.4375,0.70312 0.8125,1.40625 0.375,0.6875 0.625,1.32812 h -1.75 q -0.28125,-0.60937 -0.65625,-1.28125 -0.35938,-0.67187 -0.78125,-1.3125 -0.40625,-0.65625 -0.8125,-1.23437 -0.40625,-0.57813 -0.76563,-0.96875 v 4.79687 h -1.60937 V 199.8335 l 1.60937,-0.28125 v 8.90625 q 0.32813,-0.45313 0.70313,-1 0.39062,-0.5625 0.76562,-1.125 0.375,-0.57813 0.70313,-1.10938 0.34375,-0.54687 0.5625,-0.98437 z m 2.73309,5.375 q 0.0156,0.70312 0.125,1.29687 0.10938,0.59375 0.35938,1.03125 0.25,0.4375 0.67187,0.6875 0.42188,0.23438 1.07813,0.23438 0.53125,0 0.98437,-0.15625 0.46875,-0.17188 0.67188,-0.28125 l 0.29687,1.29687 q -0.23437,0.15625 -0.8125,0.35938 -0.5625,0.20312 -1.34375,0.20312 -1.03125,0 -1.73437,-0.375 -0.6875,-0.375 -1.14063,-1.04687 -0.4375,-0.67188 -0.625,-1.60938 -0.17187,-0.9375 -0.17187,-2.04687 0,-2.70313 0.89062,-3.95313 0.89063,-1.25 2.35938,-1.25 1.67187,0 2.35937,1.25 0.6875,1.25 0.6875,3.5 0,0.20313 0,0.42188 0,0.21875 -0.0156,0.4375 z m 1.60938,-4.25 q -0.79688,0 -1.15625,0.79687 -0.35938,0.79688 -0.4375,2.14063 h 2.96875 q 0,-1.35938 -0.28125,-2.14063 -0.28125,-0.79687 -1.09375,-0.79687 z m 9.64975,0.32812 q -0.59375,-0.25 -1.34375,-0.25 -0.6875,0 -1.28125,0.23438 v 8.35937 h -1.60938 v -9.35937 q 0.54688,-0.26563 1.23438,-0.4375 0.70312,-0.1875 1.54687,-0.1875 0.45313,0 0.89063,0.0625 0.45312,0.0469 0.84375,0.20312 z m 4.89783,-3.78125 q 1.09375,-1.10937 2.67187,-1.10937 1.51563,0 2.3125,0.79687 0.8125,0.79688 0.8125,2.46875 0,0.79688 -0.26562,1.5 -0.26563,0.70313 -0.65625,1.375 -0.39063,0.65625 -0.85938,1.3125 -0.45312,0.65625 -0.89062,1.34375 -0.42188,0.67188 -0.75,1.40625 -0.3125,0.73438 -0.39063,1.57813 h 4.07813 v 1.45312 h -5.79688 v -0.35937 q 0,-1.25 0.28125,-2.21875 0.29688,-0.96875 0.71875,-1.75 0.42188,-0.78125 0.92188,-1.45313 0.51562,-0.67187 0.92187,-1.3125 0.42188,-0.65625 0.70313,-1.32812 0.29687,-0.6875 0.29687,-1.5 0,-0.98438 -0.39062,-1.42188 -0.39063,-0.45312 -1.17188,-0.45312 -0.54687,0 -0.98437,0.21875 -0.4375,0.21875 -0.78125,0.54687 z"
       fill-rule="nonzero"
       id="path103" />
    <path
       fill="#000000"
       fill-opacity="0"
       d="m 335.73926,202.76276 v 150.12"
       fill-rule="evenodd"
       id="path105" />
    <path
       stroke="#f3f3f3"
       stroke-width="1"
       stroke-linejoin="round"
       stroke-linecap="butt"
       d="m 335.73926,202.76276 v 150.12"
       fill-rule="evenodd"
       id="path107" />
    <path
       fill="#000000"
       fill-opacity="0"
       d="m 624.81036,202.76276 v 150.12"
       fill-rule="evenodd"
       id="path109" />
    <path
       stroke="#f3f3f3"
       stroke-width="1"
       stroke-linejoin="round"
       stroke-linecap="butt"
       d="m 624.81036,202.76276 v 150.12"
       fill-rule="evenodd"
       id="path111" />
    <path
       fill="#000000"
       fill-opacity="0"
       d="M 334.88318,352.88275 H 625.11786"
       fill-rule="evenodd"
       id="path113" />
    <path
       stroke="#f3f3f3"
       stroke-width="1"
       stroke-linejoin="round"
       stroke-linecap="butt"
       d="M 334.88318,352.88275 H 625.11786"
       fill-rule="evenodd"
       id="path115" />
    <path
       fill="#000000"
       fill-opacity="0"
       d="m 335.73926,203.06186 h 59.26572"
       fill-rule="evenodd"
       id="path117" />
    <path
       stroke="#f3f3f3"
       stroke-width="1"
       stroke-linejoin="round"
       stroke-linecap="butt"
       d="m 335.73926,203.06186 h 59.26572"
       fill-rule="evenodd"
       id="path119" />
    <path
       fill="#000000"
       fill-opacity="0"
       d="m 563.6679,203.06186 h 61.40863"
       fill-rule="evenodd"
       id="path121" />
    <path
       stroke="#f3f3f3"
       stroke-width="1"
       stroke-linejoin="round"
       stroke-linecap="butt"
       d="m 563.6679,203.06186 h 61.40863"
       fill-rule="evenodd"
       id="path123" />
    <path
       fill="#000000"
       fill-opacity="0"
       d="m 701.4242,187.11662 h 183.02063 v 42.00645 H 701.4242 Z"
       fill-rule="evenodd"
       id="path125" />
    <path
       fill="#ffffff"
       d="m 767.23944,206.61475 h 1.15625 q 2.3125,0 2.3125,-2.09375 0,-0.65625 -0.20313,-1.0625 -0.1875,-0.42188 -0.51562,-0.65625 -0.3125,-0.23438 -0.73438,-0.32813 -0.42187,-0.0937 -0.875,-0.0937 -0.28125,0 -0.57812,0.0156 -0.28125,0.0156 -0.5625,0.0625 z m 0,1.34375 v 4.65625 q 0.34375,0.0625 0.6875,0.10937 0.35937,0.0312 0.6875,0.0312 0.53125,0 0.98437,-0.10937 0.46875,-0.125 0.8125,-0.375 0.34375,-0.26563 0.53125,-0.71875 0.20313,-0.46875 0.20313,-1.14063 0,-1.15625 -0.625,-1.79687 -0.625,-0.65625 -1.9375,-0.65625 z m -1.6875,-6.67188 q 0.65625,-0.14062 1.32812,-0.21875 0.6875,-0.0937 1.35938,-0.0937 0.84375,0 1.59375,0.15625 0.76562,0.15625 1.34375,0.54688 0.57812,0.375 0.92187,1 0.34375,0.625 0.34375,1.5625 0,1.15625 -0.48437,1.90625 -0.48438,0.73437 -1.25,1.07812 0.95312,0.375 1.5625,1.14063 0.625,0.76562 0.625,2.10937 0,1 -0.32813,1.70313 -0.32812,0.6875 -0.9375,1.125 -0.59375,0.4375 -1.42187,0.64062 -0.82813,0.1875 -1.8125,0.1875 -0.65625,0 -1.375,-0.0781 -0.70313,-0.0781 -1.46875,-0.21875 z m 13.84491,4.40625 q -0.59375,-0.25 -1.34375,-0.25 -0.6875,0 -1.28125,0.23438 v 8.35937 h -1.60938 v -9.35937 q 0.54688,-0.26563 1.23438,-0.4375 0.70312,-0.1875 1.54687,-0.1875 0.45313,0 0.89063,0.0625 0.45312,0.0469 0.84375,0.20312 z m 7.99512,3.45313 q 0,1.15625 -0.21875,2.10937 -0.20313,0.9375 -0.625,1.60938 -0.40625,0.67187 -1.0625,1.04687 -0.64063,0.375 -1.51563,0.375 -0.875,0 -1.53125,-0.375 -0.65625,-0.375 -1.07812,-1.04687 -0.40625,-0.67188 -0.625,-1.60938 -0.20313,-0.95312 -0.20313,-2.10937 0,-1.14063 0.20313,-2.07813 0.21875,-0.95312 0.625,-1.64062 0.42187,-0.6875 1.07812,-1.04688 0.65625,-0.375 1.53125,-0.375 0.875,0 1.51563,0.375 0.65625,0.35938 1.0625,1.04688 0.42187,0.6875 0.625,1.64062 0.21875,0.9375 0.21875,2.07813 z m -1.6875,0 q 0,-0.8125 -0.0937,-1.5 -0.0937,-0.6875 -0.29688,-1.17188 -0.20312,-0.5 -0.54687,-0.76562 -0.32813,-0.26563 -0.79688,-0.26563 -0.48437,0 -0.8125,0.26563 -0.32812,0.26562 -0.54687,0.76562 -0.20313,0.48438 -0.29688,1.17188 -0.0937,0.6875 -0.0937,1.5 0,0.82812 0.0937,1.51562 0.0937,0.67188 0.29688,1.15625 0.21875,0.48438 0.54687,0.76563 0.32813,0.26562 0.8125,0.26562 0.46875,0 0.79688,-0.26562 0.34375,-0.28125 0.54687,-0.76563 0.20313,-0.48437 0.29688,-1.15625 0.0937,-0.6875 0.0937,-1.51562 z m 10.09094,-4.90625 q -0.78125,1.34375 -1.5,2.45312 -0.71875,1.10938 -1.42188,2.07813 0.4375,0.53125 0.90625,1.1875 0.46875,0.64062 0.89063,1.34375 0.4375,0.70312 0.8125,1.40625 0.375,0.6875 0.625,1.32812 h -1.75 q -0.28125,-0.60937 -0.65625,-1.28125 -0.35938,-0.67187 -0.78125,-1.3125 -0.40625,-0.65625 -0.8125,-1.23437 -0.40625,-0.57813 -0.76563,-0.96875 v 4.79687 h -1.60937 V 199.8335 l 1.60937,-0.28125 v 8.90625 q 0.32813,-0.45313 0.70313,-1 0.39062,-0.5625 0.76562,-1.125 0.375,-0.57813 0.70313,-1.10938 0.34375,-0.54687 0.5625,-0.98437 z m 2.73309,5.375 q 0.0156,0.70312 0.125,1.29687 0.10938,0.59375 0.35938,1.03125 0.25,0.4375 0.67187,0.6875 0.42188,0.23438 1.07813,0.23438 0.53125,0 0.98437,-0.15625 0.46875,-0.17188 0.67188,-0.28125 l 0.29687,1.29687 q -0.23437,0.15625 -0.8125,0.35938 -0.5625,0.20312 -1.34375,0.20312 -1.03125,0 -1.73437,-0.375 -0.6875,-0.375 -1.14063,-1.04687 -0.4375,-0.67188 -0.625,-1.60938 -0.17187,-0.9375 -0.17187,-2.04687 0,-2.70313 0.89062,-3.95313 0.89063,-1.25 2.35938,-1.25 1.67187,0 2.35937,1.25 0.6875,1.25 0.6875,3.5 0,0.20313 0,0.42188 0,0.21875 -0.0156,0.4375 z m 1.60938,-4.25 q -0.79688,0 -1.15625,0.79687 -0.35938,0.79688 -0.4375,2.14063 h 2.96875 q 0,-1.35938 -0.28125,-2.14063 -0.28125,-0.79687 -1.09375,-0.79687 z m 9.64978,0.32812 q -0.59375,-0.25 -1.34375,-0.25 -0.6875,0 -1.28125,0.23438 v 8.35937 h -1.60938 v -9.35937 q 0.54688,-0.26563 1.23438,-0.4375 0.70312,-0.1875 1.54687,-0.1875 0.45313,0 0.89063,0.0625 0.45312,0.0469 0.84375,0.20312 z m 8.86657,1.39063 q 0.9375,0.32812 1.4375,1.1875 0.51563,0.84375 0.51563,2.1875 0,1.78125 -0.875,2.82812 -0.85938,1.03125 -2.60938,1.03125 -0.6875,0 -1.34375,-0.20312 -0.65625,-0.20313 -1.14062,-0.54688 l 0.4375,-1.29687 q 0.42187,0.25 0.89062,0.4375 0.48438,0.1875 1,0.1875 0.95313,0 1.48438,-0.57813 0.53125,-0.59375 0.53125,-1.875 0,-1.29687 -0.59375,-1.9375 -0.57813,-0.65625 -1.85938,-0.65625 h -0.48437 v -1.375 h 0.40625 q 1.125,0 1.65625,-0.59375 0.54687,-0.59375 0.54687,-1.65625 0,-1.01562 -0.4375,-1.5 -0.42187,-0.5 -1.125,-0.5 -0.48437,0 -0.9375,0.1875 -0.4375,0.1875 -0.75,0.46875 l -0.625,-1.17187 q 0.48438,-0.45313 1.14063,-0.67188 0.65625,-0.23437 1.3125,-0.23437 1.45312,0 2.23437,0.92187 0.79688,0.90625 0.79688,2.42188 0,1.0625 -0.42188,1.8125 -0.42187,0.73437 -1.1875,1.125 z"
       fill-rule="nonzero"
       id="path127" />
    <path
       fill="#000000"
       fill-opacity="0"
       d="m 648.671,202.76276 v 150.12"
       fill-rule="evenodd"
       id="path129" />
    <path
       stroke="#f3f3f3"
       stroke-width="1"
       stroke-linejoin="round"
       stroke-linecap="butt"
       d="m 648.671,202.76276 v 150.12"
       fill-rule="evenodd"
       id="path131" />
    <path
       fill="#000000"
       fill-opacity="0"
       d="m 937.7421,202.76276 v 150.12"
       fill-rule="evenodd"
       id="path133" />
    <path
       stroke="#f3f3f3"
       stroke-width="1"
       stroke-linejoin="round"
       stroke-linecap="butt"
       d="m 937.7421,202.76276 v 150.12"
       fill-rule="evenodd"
       id="path135" />
    <path
       fill="#000000"
       fill-opacity="0"
       d="M 647.81494,352.88275 H 938.04962"
       fill-rule="evenodd"
       id="path137" />
    <path
       stroke="#f3f3f3"
       stroke-width="1"
       stroke-linejoin="round"
       stroke-linecap="butt"
       d="M 647.81494,352.88275 H 938.04962"
       fill-rule="evenodd"
       id="path139" />
    <path
       fill="#000000"
       fill-opacity="0"
       d="m 648.671,203.06186 h 59.26569"
       fill-rule="evenodd"
       id="path141" />
    <path
       stroke="#f3f3f3"
       stroke-width="1"
       stroke-linejoin="round"
       stroke-linecap="butt"
       d="m 648.671,203.06186 h 59.26569"
       fill-rule="evenodd"
       id="path143" />
    <path
       fill="#000000"
       fill-opacity="0"
       d="m 876.5997,203.06186 h 61.40863"
       fill-rule="evenodd"
       id="path145" />
    <path
       stroke="#f3f3f3"
       stroke-width="1"
       stroke-linejoin="round"
       stroke-linecap="butt"
       d="m 876.5997,203.06186 h 61.40863"
       fill-rule="evenodd"
       id="path147" />
    <path
       fill="#6fa8dc"
       d="m 543.1649,245.60164 h 50.11023 v 44.00001 H 543.1649 Z"
       fill-rule="evenodd"
       id="path149" />
    <path
       fill="#6fa8dc"
       d="m 365.75592,245.4029 h 177.92126 v 44.15747 H 365.75592 Z"
       fill-rule="evenodd"
       id="path151" />
    <path
       stroke="#595959"
       stroke-width="1"
       stroke-linejoin="round"
       stroke-linecap="butt"
       d="m 365.75592,245.4029 h 177.92126 v 44.15747 H 365.75592 Z"
       fill-rule="evenodd"
       id="path153" />
    <path
       fill="#000000"
       fill-opacity="0"
       d="m 374.13544,246.47375 h 29.60629 v 42.01575 h -29.60629 z"
       fill-rule="evenodd"
       id="path155" />
    <path
       fill="#f3f3f3"
       d="m 384.44794,263.03436 q 0.34375,-0.20313 0.71875,-0.5 0.39063,-0.29688 0.75,-0.64063 0.35938,-0.34375 0.65625,-0.70312 0.3125,-0.375 0.51563,-0.71875 h 1.23437 v 12.92187 h -1.60937 v -10.39062 q -0.3125,0.32812 -0.73438,0.64062 -0.42187,0.29688 -0.89062,0.54688 z"
       fill-rule="nonzero"
       id="path157" />
    <path
       fill="#000000"
       fill-opacity="0"
       d="m 410.13647,246.28215 v 44.00002"
       fill-rule="evenodd"
       id="path159" />
    <path
       stroke="#595959"
       stroke-width="1"
       stroke-linejoin="round"
       stroke-linecap="butt"
       d="m 410.13647,246.28215 v 44.00002"
       fill-rule="evenodd"
       id="path161" />
    <path
       fill="#000000"
       fill-opacity="0"
       d="m 454.14542,246.28215 v 44.00002"
       fill-rule="evenodd"
       id="path163" />
    <path
       stroke="#595959"
       stroke-width="1"
       stroke-linejoin="round"
       stroke-linecap="butt"
       d="m 454.14542,246.28215 v 44.00002"
       fill-rule="evenodd"
       id="path165" />
    <path
       fill="#000000"
       fill-opacity="0"
       d="m 418.13675,246.47375 h 29.60629 v 42.01575 h -29.60629 z"
       fill-rule="evenodd"
       id="path167" />
    <path
       fill="#f3f3f3"
       d="m 429.75693,261.26874 q 1.09375,-1.10938 2.67187,-1.10938 1.51563,0 2.3125,0.79688 0.8125,0.79687 0.8125,2.46875 0,0.79687 -0.26562,1.5 -0.26563,0.70312 -0.65625,1.375 -0.39063,0.65625 -0.85938,1.3125 -0.45312,0.65625 -0.89062,1.34375 -0.42188,0.67187 -0.75,1.40625 -0.3125,0.73437 -0.39063,1.57812 h 4.07813 v 1.45313 h -5.79688 v -0.35938 q 0,-1.25 0.28125,-2.21875 0.29688,-0.96875 0.71875,-1.75 0.42188,-0.78125 0.92188,-1.45312 0.51562,-0.67188 0.92187,-1.3125 0.42188,-0.65625 0.70313,-1.32813 0.29687,-0.6875 0.29687,-1.5 0,-0.98437 -0.39062,-1.42187 -0.39063,-0.45313 -1.17188,-0.45313 -0.54687,0 -0.98437,0.21875 -0.4375,0.21875 -0.78125,0.54688 z"
       fill-rule="nonzero"
       id="path169" />
    <path
       fill="#000000"
       fill-opacity="0"
       d="m 454.14435,246.28215 v 44.00002"
       fill-rule="evenodd"
       id="path171" />
    <path
       stroke="#595959"
       stroke-width="1"
       stroke-linejoin="round"
       stroke-linecap="butt"
       d="m 454.14435,246.28215 v 44.00002"
       fill-rule="evenodd"
       id="path173" />
    <path
       fill="#000000"
       fill-opacity="0"
       d="m 499.76117,246.28215 v 44.00002"
       fill-rule="evenodd"
       id="path175" />
    <path
       stroke="#595959"
       stroke-width="1"
       stroke-linejoin="round"
       stroke-linecap="butt"
       d="m 499.76117,246.28215 v 44.00002"
       fill-rule="evenodd"
       id="path177" />
    <path
       fill="#000000"
       fill-opacity="0"
       d="m 463.7525,246.47375 h 29.60629 V 288.4895 H 463.7525 Z"
       fill-rule="evenodd"
       id="path179" />
    <path
       fill="#f3f3f3"
       d="m 475.05984,273.39374 v -1.875 h 1.875 v 1.875 z m 5.18329,0 v -1.875 h 1.875 v 1.875 z"
       fill-rule="nonzero"
       id="path181" />
    <path
       fill="#000000"
       fill-opacity="0"
       d="m 543.05774,247.17244 v 44.00002"
       fill-rule="evenodd"
       id="path183" />
    <path
       stroke="#595959"
       stroke-width="1"
       stroke-linejoin="round"
       stroke-linecap="butt"
       d="m 543.05774,247.17244 v 44.00002"
       fill-rule="evenodd"
       id="path185" />
    <path
       fill="#000000"
       fill-opacity="0"
       d="m 506.16196,246.46588 h 29.60629 v 42.01575 h -29.60629 z"
       fill-rule="evenodd"
       id="path187" />
    <path
       fill="#f3f3f3"
       d="m 517.92206,263.87024 q 0.6875,-0.20312 1.48437,-0.34375 0.8125,-0.14062 1.48438,-0.14062 0.73437,0 1.32812,0.20312 0.59375,0.1875 1.01563,0.65625 0.42187,0.46875 0.65625,1.26563 0.23437,0.78125 0.23437,1.96875 v 5.90625 h -1.60937 v -5.78125 q 0,-1.45313 -0.375,-2.125 -0.375,-0.67188 -1.40625,-0.67188 -0.53125,0 -1.20313,0.1875 v 8.39063 h -1.60937 z"
       fill-rule="nonzero"
       id="path189" />
    <path
       fill="#000000"
       fill-opacity="0"
       d="m 593.4677,245.57243 v 44.00002"
       fill-rule="evenodd"
       id="path191" />
    <path
       stroke="#595959"
       stroke-width="1"
       stroke-linejoin="round"
       stroke-linecap="butt"
       stroke-dasharray="4, 3"
       d="m 593.4677,245.57243 v 44.00002"
       fill-rule="evenodd"
       id="path193" />
    <path
       fill="#000000"
       fill-opacity="0"
       d="m 542.57007,245.44862 h 51.05511"
       fill-rule="evenodd"
       id="path195" />
    <path
       stroke="#595959"
       stroke-width="1"
       stroke-linejoin="round"
       stroke-linecap="butt"
       stroke-dasharray="4, 3"
       d="m 542.57007,245.44862 h 51.05511"
       fill-rule="evenodd"
       id="path197" />
    <path
       fill="#000000"
       fill-opacity="0"
       d="m 542.6567,289.68033 h 50.96063"
       fill-rule="evenodd"
       id="path199" />
    <path
       stroke="#595959"
       stroke-width="1"
       stroke-linejoin="round"
       stroke-linecap="butt"
       stroke-dasharray="4, 3"
       d="m 542.6567,289.68033 h 50.96063"
       fill-rule="evenodd"
       id="path201" />
    <path
       fill="#000000"
       fill-opacity="0"
       d="m 541.7701,245.44856 h 52.47241 v 42.01573 H 541.7701 Z"
       fill-rule="evenodd"
       id="path203" />
    <path
       fill="#f3f3f3"
       d="m 556.9411,262.85294 q 0.6875,-0.20313 1.48437,-0.34375 0.8125,-0.14063 1.48438,-0.14063 0.73437,0 1.32812,0.20313 0.59375,0.1875 1.01563,0.65625 0.42187,0.46875 0.65625,1.26562 0.23437,0.78125 0.23437,1.96875 v 5.90625 h -1.60937 v -5.78125 q 0,-1.45312 -0.375,-2.125 -0.375,-0.67187 -1.40625,-0.67187 -0.53125,0 -1.20313,0.1875 v 8.39062 h -1.60937 z m 8.33606,3.25 h 2.53125 v -2.6875 h 1.375 v 2.6875 h 2.51562 v 1.35937 h -2.51562 v 2.70313 h -1.375 v -2.70313 h -2.53125 z m 8.53778,-4.09375 q 0.34375,-0.20313 0.71875,-0.5 0.39063,-0.29688 0.75,-0.64063 0.35938,-0.34375 0.65625,-0.70312 0.3125,-0.375 0.51563,-0.71875 h 1.23437 v 12.92187 h -1.60937 v -10.39062 q -0.3125,0.32812 -0.73438,0.64062 -0.42187,0.29688 -0.89062,0.54688 z"
       fill-rule="nonzero"
       id="path205" />
    <path
       fill="#6fa8dc"
       d="m 703.9711,242.68636 h 177.92126 v 44.15749 H 703.9711 Z"
       fill-rule="evenodd"
       id="path207" />
    <path
       stroke="#595959"
       stroke-width="1"
       stroke-linejoin="round"
       stroke-linecap="butt"
       d="m 703.9711,242.68636 h 177.92126 v 44.15749 H 703.9711 Z"
       fill-rule="evenodd"
       id="path209" />
    <path
       fill="#000000"
       fill-opacity="0"
       d="m 712.35065,243.75722 h 29.60632 v 42.01576 h -29.60632 z"
       fill-rule="evenodd"
       id="path211" />
    <path
       fill="#f3f3f3"
       d="m 722.66315,260.31784 q 0.34375,-0.20313 0.71875,-0.5 0.39062,-0.29688 0.75,-0.64063 0.35937,-0.34375 0.65625,-0.70312 0.3125,-0.375 0.51562,-0.71875 h 1.23438 v 12.92187 h -1.60938 v -10.39062 q -0.3125,0.32812 -0.73437,0.64062 -0.42188,0.29688 -0.89063,0.54688 z"
       fill-rule="nonzero"
       id="path213" />
    <path
       fill="#000000"
       fill-opacity="0"
       d="m 748.3517,243.56561 v 44"
       fill-rule="evenodd"
       id="path215" />
    <path
       stroke="#595959"
       stroke-width="1"
       stroke-linejoin="round"
       stroke-linecap="butt"
       d="m 748.3517,243.56561 v 44"
       fill-rule="evenodd"
       id="path217" />
    <path
       fill="#000000"
       fill-opacity="0"
       d="m 792.36066,243.56561 v 44"
       fill-rule="evenodd"
       id="path219" />
    <path
       stroke="#595959"
       stroke-width="1"
       stroke-linejoin="round"
       stroke-linecap="butt"
       d="m 792.36066,243.56561 v 44"
       fill-rule="evenodd"
       id="path221" />
    <path
       fill="#000000"
       fill-opacity="0"
       d="m 756.352,243.75722 h 29.60626 v 42.01576 H 756.352 Z"
       fill-rule="evenodd"
       id="path223" />
    <path
       fill="#f3f3f3"
       d="m 767.97217,258.55222 q 1.09375,-1.10938 2.67187,-1.10938 1.51563,0 2.3125,0.79688 0.8125,0.79687 0.8125,2.46875 0,0.79687 -0.26562,1.5 -0.26563,0.70312 -0.65625,1.375 -0.39063,0.65625 -0.85938,1.3125 -0.45312,0.65625 -0.89062,1.34375 -0.42188,0.67187 -0.75,1.40625 -0.3125,0.73437 -0.39063,1.57812 h 4.07813 v 1.45313 h -5.79688 v -0.35938 q 0,-1.25 0.28125,-2.21875 0.29688,-0.96875 0.71875,-1.75 0.42188,-0.78125 0.92188,-1.45312 0.51562,-0.67188 0.92187,-1.3125 0.42188,-0.65625 0.70313,-1.32813 0.29687,-0.6875 0.29687,-1.5 0,-0.98437 -0.39062,-1.42187 -0.39063,-0.45313 -1.17188,-0.45313 -0.54687,0 -0.98437,0.21875 -0.4375,0.21875 -0.78125,0.54688 z"
       fill-rule="nonzero"
       id="path225" />
    <path
       fill="#000000"
       fill-opacity="0"
       d="m 792.35956,243.56561 v 44"
       fill-rule="evenodd"
       id="path227" />
    <path
       stroke="#595959"
       stroke-width="1"
       stroke-linejoin="round"
       stroke-linecap="butt"
       d="m 792.35956,243.56561 v 44"
       fill-rule="evenodd"
       id="path229" />
    <path
       fill="#000000"
       fill-opacity="0"
       d="m 837.9764,243.56561 v 44"
       fill-rule="evenodd"
       id="path231" />
    <path
       stroke="#595959"
       stroke-width="1"
       stroke-linejoin="round"
       stroke-linecap="butt"
       d="m 837.9764,243.56561 v 44"
       fill-rule="evenodd"
       id="path233" />
    <path
       fill="#000000"
       fill-opacity="0"
       d="m 801.9677,243.75722 h 29.60632 v 42.01576 H 801.9677 Z"
       fill-rule="evenodd"
       id="path235" />
    <path
       fill="#f3f3f3"
       d="m 813.2751,270.67722 v -1.875 h 1.875 v 1.875 z m 5.18329,0 v -1.875 h 1.875 v 1.875 z"
       fill-rule="nonzero"
       id="path237" />
    <path
       fill="#000000"
       fill-opacity="0"
       d="m 881.27295,244.4559 v 44"
       fill-rule="evenodd"
       id="path239" />
    <path
       stroke="#595959"
       stroke-width="1"
       stroke-linejoin="round"
       stroke-linecap="butt"
       d="m 881.27295,244.4559 v 44"
       fill-rule="evenodd"
       id="path241" />
    <path
       fill="#000000"
       fill-opacity="0"
       d="m 844.37714,243.74934 h 29.60632 v 42.01576 h -29.60632 z"
       fill-rule="evenodd"
       id="path243" />
    <path
       fill="#f3f3f3"
       d="m 856.13727,261.15372 q 0.6875,-0.20312 1.48437,-0.34375 0.8125,-0.14062 1.48438,-0.14062 0.73437,0 1.32812,0.20312 0.59375,0.1875 1.01563,0.65625 0.42187,0.46875 0.65625,1.26563 0.23437,0.78125 0.23437,1.96875 v 5.90625 h -1.60937 v -5.78125 q 0,-1.45313 -0.375,-2.125 -0.375,-0.67188 -1.40625,-0.67188 -0.53125,0 -1.20313,0.1875 v 8.39063 h -1.60937 z"
       fill-rule="nonzero"
       id="path245" />
    <path
       fill="#000000"
       fill-opacity="0"
       d="m 255.07585,244.56273 312.9449,0.8819"
       fill-rule="evenodd"
       id="path247" />
    <path
       stroke="#595959"
       stroke-width="1"
       stroke-linejoin="round"
       stroke-linecap="butt"
       d="m 255.07585,244.56273 312.9449,0.8819"
       fill-rule="evenodd"
       id="path249" />
    <path
       fill="#000000"
       fill-opacity="0"
       d="m 255.07585,244.56273 c 0,-7.8811 78.23622,-15.87244 156.47243,-15.76221 78.23624,0.11025 156.47247,8.32205 156.47247,16.64411"
       fill-rule="evenodd"
       id="path251" />
    <path
       stroke="#f3f3f3"
       stroke-width="2"
       stroke-linejoin="round"
       stroke-linecap="butt"
       d="m 255.07585,244.56273 c 0,-7.88109 78.23622,-15.87244 156.47246,-15.76221 39.1181,0.0551 78.23624,2.13562 107.5748,5.24262 14.66931,1.55349 26.89368,3.36363 35.45081,5.30546 0.53479,0.12139 1.05529,0.24326 1.56115,0.36563 0.25293,0.0612 0.50226,0.12249 0.74781,0.18392 l 0.43914,0.11171"
       fill-rule="evenodd"
       id="path253" />
    <path
       fill="#f3f3f3"
       stroke="#f3f3f3"
       stroke-width="2"
       stroke-linecap="butt"
       d="m 555.82587,242.95511 9.58813,1.16533 -6.59588,-7.05583 z"
       fill-rule="evenodd"
       id="path255" />
    <path
       fill="#000000"
       fill-opacity="0"
       d="m 255.07585,244.56273 c 0,-12.67717 195.6693,-25.35432 391.33856,-25.35432"
       fill-rule="evenodd"
       id="path257" />
    <path
       stroke="#d9d9d9"
       stroke-width="2"
       stroke-linejoin="round"
       stroke-linecap="butt"
       stroke-dasharray="8, 6"
       d="m 255.07585,244.56273 c 0,-6.33859 48.91731,-12.67717 122.29332,-17.43111 36.68799,-2.37697 79.49066,-4.35777 125.35065,-5.74434 22.93002,-0.69328 46.6243,-1.238 70.70084,-1.60939 12.0382,-0.18571 24.17205,-0.32809 36.35357,-0.42402 6.09076,-0.048 12.19348,-0.0844 18.30219,-0.10872 1.52716,-0.006 3.05475,-0.0114 4.58252,-0.016 l 1.75549,-0.004"
       fill-rule="evenodd"
       id="path259" />
    <path
       fill="#d9d9d9"
       stroke="#d9d9d9"
       stroke-width="2"
       stroke-linecap="butt"
       d="m 634.41895,222.52818 9.07172,-3.31581 -9.08069,-3.29111 z"
       fill-rule="evenodd"
       id="path261" />
  </g>
</svg>
