<?xml version="1.0" encoding="UTF-8" standalone="no"?>
<svg
   version="1.1"
   viewBox="0 0 582.80804 45.424339"
   fill="none"
   stroke="none"
   stroke-linecap="square"
   stroke-miterlimit="10"
   id="svg13169"
   sodipodi:docname="log-of-records.svg"
   width="582.80804"
   height="45.424339"
   inkscape:version="1.2.1 (9c6d41e410, 2022-07-14)"
   xmlns:inkscape="http://www.inkscape.org/namespaces/inkscape"
   xmlns:sodipodi="http://sodipodi.sourceforge.net/DTD/sodipodi-0.dtd"
   xmlns="http://www.w3.org/2000/svg"
   xmlns:svg="http://www.w3.org/2000/svg">
  <defs
     id="defs13173" />
  <sodipodi:namedview
     id="namedview13171"
     pagecolor="#ffffff"
     bordercolor="#666666"
     borderopacity="1.0"
     inkscape:showpageshadow="2"
     inkscape:pageopacity="0.0"
     inkscape:pagecheckerboard="0"
     inkscape:deskcolor="#d1d1d1"
     showgrid="false"
     inkscape:zoom="1.3552083"
     inkscape:cx="263.79708"
     inkscape:cy="22.874712"
     inkscape:window-width="1920"
     inkscape:window-height="1011"
     inkscape:window-x="0"
     inkscape:window-y="32"
     inkscape:window-maximized="1"
     inkscape:current-layer="svg13169" />
  <clipPath
     id="g1c60e132c9c_0_0.0">
    <path
       d="M 0,0 H 960 V 540 H 0 Z"
       clip-rule="nonzero"
       id="path13004" />
  </clipPath>
  <g
     clip-path="url(#g1c60e132c9c_0_0.0)"
     id="g13167"
     transform="translate(-216.38986,-247.0376)">
    <path
       fill="#eeeeee"
       d="m 745.8652,247.69061 h 50.11023 v 44 H 745.8652 Z"
       fill-rule="evenodd"
       id="path13009" />
    <path
       fill="#eeeeee"
       d="m 216.88986,247.58267 h 528.4724 v 44.15747 h -528.4724 z"
       fill-rule="evenodd"
       id="path13011" />
    <path
       stroke="#595959"
       stroke-width="1"
       stroke-linejoin="round"
       stroke-linecap="butt"
       d="m 216.88986,247.58267 h 528.4724 v 44.15747 h -528.4724 z"
       fill-rule="evenodd"
       id="path13013" />
    <path
       fill="#000000"
       fill-opacity="0"
       d="m 216.88974,248.65355 h 44.37796 v 42.01573 h -44.37796 z"
       fill-rule="evenodd"
       id="path13015" />
    <path
       fill="#000000"
       d="m 232.3765,275.57355 v -12.92188 h 5.8125 v 1.42188 h -4.125 v 4.01562 h 3.73437 v 1.40625 H 234.064 v 4.64063 h 4.42187 v 1.4375 z m 8.25725,-10.35938 q 0.34375,-0.20312 0.71875,-0.5 0.39062,-0.29687 0.75,-0.64062 0.35937,-0.34375 0.65625,-0.70313 0.3125,-0.375 0.51562,-0.71875 h 1.23438 v 12.92188 h -1.60938 v -10.39063 q -0.3125,0.32813 -0.73437,0.64063 -0.42188,0.29687 -0.89063,0.54687 z"
       fill-rule="nonzero"
       id="path13017" />
    <path
       fill="#000000"
       fill-opacity="0"
       d="m 261.27036,248.46194 v 44"
       fill-rule="evenodd"
       id="path13019" />
    <path
       stroke="#595959"
       stroke-width="1"
       stroke-linejoin="round"
       stroke-linecap="butt"
       d="m 261.27036,248.46194 v 44"
       fill-rule="evenodd"
       id="path13021" />
    <path
       fill="#000000"
       fill-opacity="0"
       d="m 305.27927,248.46194 v 44"
       fill-rule="evenodd"
       id="path13023" />
    <path
       stroke="#595959"
       stroke-width="1"
       stroke-linejoin="round"
       stroke-linecap="butt"
       d="m 305.27927,248.46194 v 44"
       fill-rule="evenodd"
       id="path13025" />
    <path
       fill="#000000"
       fill-opacity="0"
       d="m 261.27036,248.65355 h 44.37796 v 42.01573 h -44.37796 z"
       fill-rule="evenodd"
       id="path13027" />
    <path
       fill="#000000"
       d="m 276.7571,275.57355 v -12.92188 h 5.8125 v 1.42188 h -4.125 v 4.01562 h 3.73437 v 1.40625 h -3.73437 v 4.64063 h 4.42187 v 1.4375 z m 7.77289,-12.125 q 1.09375,-1.10938 2.67187,-1.10938 1.51563,0 2.3125,0.79688 0.8125,0.79687 0.8125,2.46875 0,0.79687 -0.26562,1.5 -0.26563,0.70312 -0.65625,1.375 -0.39063,0.65625 -0.85938,1.3125 -0.45312,0.65625 -0.89062,1.34375 -0.42188,0.67187 -0.75,1.40625 -0.3125,0.73437 -0.39063,1.57812 h 4.07813 v 1.45313 h -5.79688 v -0.35938 q 0,-1.25 0.28125,-2.21875 0.29688,-0.96875 0.71875,-1.75 0.42188,-0.78125 0.92188,-1.45312 0.51562,-0.67188 0.92187,-1.3125 0.42188,-0.65625 0.70313,-1.32813 0.29687,-0.6875 0.29687,-1.5 0,-0.98437 -0.39062,-1.42187 -0.39063,-0.45313 -1.17188,-0.45313 -0.54687,0 -0.98437,0.21875 -0.4375,0.21875 -0.78125,0.54688 z"
       fill-rule="nonzero"
       id="path13029" />
    <path
       fill="#000000"
       fill-opacity="0"
       d="m 305.27823,248.46194 v 44"
       fill-rule="evenodd"
       id="path13031" />
    <path
       stroke="#595959"
       stroke-width="1"
       stroke-linejoin="round"
       stroke-linecap="butt"
       d="m 305.27823,248.46194 v 44"
       fill-rule="evenodd"
       id="path13033" />
    <path
       fill="#000000"
       fill-opacity="0"
       d="m 349.28714,248.46194 v 44"
       fill-rule="evenodd"
       id="path13035" />
    <path
       stroke="#595959"
       stroke-width="1"
       stroke-linejoin="round"
       stroke-linecap="butt"
       d="m 349.28714,248.46194 v 44"
       fill-rule="evenodd"
       id="path13037" />
    <path
       fill="#000000"
       fill-opacity="0"
       d="m 304.90027,248.65355 h 44.37796 v 42.01573 h -44.37796 z"
       fill-rule="evenodd"
       id="path13039" />
    <path
       fill="#000000"
       d="m 320.38702,275.57355 v -12.92188 h 5.8125 v 1.42188 h -4.125 v 4.01562 h 3.73437 v 1.40625 h -3.73437 v 4.64063 h 4.42187 v 1.4375 z m 11.74164,-6.95313 q 0.9375,0.32813 1.4375,1.1875 0.51562,0.84375 0.51562,2.1875 0,1.78125 -0.875,2.82813 -0.85937,1.03125 -2.60937,1.03125 -0.6875,0 -1.34375,-0.20313 -0.65625,-0.20312 -1.14063,-0.54687 l 0.4375,-1.29688 q 0.42188,0.25 0.89063,0.4375 0.48437,0.1875 1,0.1875 0.95312,0 1.48437,-0.57812 0.53125,-0.59375 0.53125,-1.875 0,-1.29688 -0.59375,-1.9375 -0.57812,-0.65625 -1.85937,-0.65625 h -0.48438 v -1.375 h 0.40625 q 1.125,0 1.65625,-0.59375 0.54688,-0.59375 0.54688,-1.65625 0,-1.01563 -0.4375,-1.5 -0.42188,-0.5 -1.125,-0.5 -0.48438,0 -0.9375,0.1875 -0.4375,0.1875 -0.75,0.46875 l -0.625,-1.17188 q 0.48437,-0.45312 1.14062,-0.67187 0.65625,-0.23438 1.3125,-0.23438 1.45313,0 2.23438,0.92188 0.79687,0.90625 0.79687,2.42187 0,1.0625 -0.42187,1.8125 -0.42188,0.73438 -1.1875,1.125 z"
       fill-rule="nonzero"
       id="path13041" />
    <path
       fill="#000000"
       fill-opacity="0"
       d="m 349.2861,248.46194 v 44"
       fill-rule="evenodd"
       id="path13043" />
    <path
       stroke="#595959"
       stroke-width="1"
       stroke-linejoin="round"
       stroke-linecap="butt"
       d="m 349.2861,248.46194 v 44"
       fill-rule="evenodd"
       id="path13045" />
    <path
       fill="#000000"
       fill-opacity="0"
       d="m 393.295,248.46194 v 44"
       fill-rule="evenodd"
       id="path13047" />
    <path
       stroke="#595959"
       stroke-width="1"
       stroke-linejoin="round"
       stroke-linecap="butt"
       d="m 393.295,248.46194 v 44"
       fill-rule="evenodd"
       id="path13049" />
    <path
       fill="#000000"
       fill-opacity="0"
       d="m 357.28635,248.65355 h 29.60629 v 42.01573 h -29.60629 z"
       fill-rule="evenodd"
       id="path13051" />
    <path
       fill="#000000"
       d="m 368.5937,275.57355 v -1.875 h 1.875 v 1.875 z m 5.18332,0 v -1.875 h 1.875 v 1.875 z"
       fill-rule="nonzero"
       id="path13053" />
    <path
       fill="#000000"
       fill-opacity="0"
       d="m 393.29398,248.46194 v 44"
       fill-rule="evenodd"
       id="path13055" />
    <path
       stroke="#595959"
       stroke-width="1"
       stroke-linejoin="round"
       stroke-linecap="butt"
       d="m 393.29398,248.46194 v 44"
       fill-rule="evenodd"
       id="path13057" />
    <path
       fill="#000000"
       fill-opacity="0"
       d="m 437.3029,248.46194 v 44"
       fill-rule="evenodd"
       id="path13059" />
    <path
       stroke="#595959"
       stroke-width="1"
       stroke-linejoin="round"
       stroke-linecap="butt"
       d="m 437.3029,248.46194 v 44"
       fill-rule="evenodd"
       id="path13061" />
    <path
       fill="#000000"
       fill-opacity="0"
       d="m 401.29422,248.65355 h 29.60629 v 42.01573 h -29.60629 z"
       fill-rule="evenodd"
       id="path13063" />
    <path
       fill="#000000"
       d="m 412.60156,275.57355 v -1.875 h 1.875 v 1.875 z m 5.18332,0 v -1.875 h 1.875 v 1.875 z"
       fill-rule="nonzero"
       id="path13065" />
    <path
       fill="#000000"
       fill-opacity="0"
       d="m 437.30185,248.46194 v 44"
       fill-rule="evenodd"
       id="path13067" />
    <path
       stroke="#595959"
       stroke-width="1"
       stroke-linejoin="round"
       stroke-linecap="butt"
       d="m 437.30185,248.46194 v 44"
       fill-rule="evenodd"
       id="path13069" />
    <path
       fill="#000000"
       fill-opacity="0"
       d="m 481.31076,248.46194 v 44"
       fill-rule="evenodd"
       id="path13071" />
    <path
       stroke="#595959"
       stroke-width="1"
       stroke-linejoin="round"
       stroke-linecap="butt"
       d="m 481.31076,248.46194 v 44"
       fill-rule="evenodd"
       id="path13073" />
    <path
       fill="#000000"
       fill-opacity="0"
       d="m 445.3021,248.65355 h 29.60629 v 42.01573 H 445.3021 Z"
       fill-rule="evenodd"
       id="path13075" />
    <path
       fill="#000000"
       d="m 456.60944,275.57355 v -1.875 h 1.875 v 1.875 z m 5.18332,0 v -1.875 h 1.875 v 1.875 z"
       fill-rule="nonzero"
       id="path13077" />
    <path
       fill="#000000"
       fill-opacity="0"
       d="m 481.30972,248.46194 v 44"
       fill-rule="evenodd"
       id="path13079" />
    <path
       stroke="#595959"
       stroke-width="1"
       stroke-linejoin="round"
       stroke-linecap="butt"
       d="m 481.30972,248.46194 v 44"
       fill-rule="evenodd"
       id="path13081" />
    <path
       fill="#000000"
       fill-opacity="0"
       d="m 525.31866,248.46194 v 44"
       fill-rule="evenodd"
       id="path13083" />
    <path
       stroke="#595959"
       stroke-width="1"
       stroke-linejoin="round"
       stroke-linecap="butt"
       d="m 525.31866,248.46194 v 44"
       fill-rule="evenodd"
       id="path13085" />
    <path
       fill="#000000"
       fill-opacity="0"
       d="m 489.30997,248.65355 h 29.60629 v 42.01573 h -29.60629 z"
       fill-rule="evenodd"
       id="path13087" />
    <path
       fill="#000000"
       d="m 500.6173,275.57355 v -1.875 h 1.875 v 1.875 z m 5.18332,0 v -1.875 h 1.875 v 1.875 z"
       fill-rule="nonzero"
       id="path13089" />
    <path
       fill="#000000"
       fill-opacity="0"
       d="m 525.31757,248.46194 v 44"
       fill-rule="evenodd"
       id="path13091" />
    <path
       stroke="#595959"
       stroke-width="1"
       stroke-linejoin="round"
       stroke-linecap="butt"
       d="m 525.31757,248.46194 v 44"
       fill-rule="evenodd"
       id="path13093" />
    <path
       fill="#000000"
       fill-opacity="0"
       d="m 569.32654,248.46194 v 44"
       fill-rule="evenodd"
       id="path13095" />
    <path
       stroke="#595959"
       stroke-width="1"
       stroke-linejoin="round"
       stroke-linecap="butt"
       d="m 569.32654,248.46194 v 44"
       fill-rule="evenodd"
       id="path13097" />
    <path
       fill="#000000"
       fill-opacity="0"
       d="m 533.3179,248.65355 h 29.60626 v 42.01573 H 533.3179 Z"
       fill-rule="evenodd"
       id="path13099" />
    <path
       fill="#000000"
       d="m 544.6252,275.57355 v -1.875 h 1.875 v 1.875 z m 5.18329,0 v -1.875 h 1.875 v 1.875 z"
       fill-rule="nonzero"
       id="path13101" />
    <path
       fill="#000000"
       fill-opacity="0"
       d="M 569.32544,247.66142 V 291.6614"
       fill-rule="evenodd"
       id="path13103" />
    <path
       stroke="#595959"
       stroke-width="1"
       stroke-linejoin="round"
       stroke-linecap="butt"
       d="M 569.32544,247.66142 V 291.6614"
       fill-rule="evenodd"
       id="path13105" />
    <path
       fill="#000000"
       fill-opacity="0"
       d="M 613.3344,247.66142 V 291.6614"
       fill-rule="evenodd"
       id="path13107" />
    <path
       stroke="#595959"
       stroke-width="1"
       stroke-linejoin="round"
       stroke-linecap="butt"
       d="M 613.3344,247.66142 V 291.6614"
       fill-rule="evenodd"
       id="path13109" />
    <path
       fill="#000000"
       fill-opacity="0"
       d="M 577.32574,247.85301 H 606.932 v 42.01576 h -29.60626 z"
       fill-rule="evenodd"
       id="path13111" />
    <path
       fill="#000000"
       d="m 588.63306,274.773 v -1.875 h 1.875 v 1.875 z m 5.18329,0 v -1.875 h 1.875 v 1.875 z"
       fill-rule="nonzero"
       id="path13113" />
    <path
       fill="#000000"
       fill-opacity="0"
       d="M 613.3333,247.66142 V 291.6614"
       fill-rule="evenodd"
       id="path13115" />
    <path
       stroke="#595959"
       stroke-width="1"
       stroke-linejoin="round"
       stroke-linecap="butt"
       d="M 613.3333,247.66142 V 291.6614"
       fill-rule="evenodd"
       id="path13117" />
    <path
       fill="#000000"
       fill-opacity="0"
       d="M 657.3423,247.66142 V 291.6614"
       fill-rule="evenodd"
       id="path13119" />
    <path
       stroke="#595959"
       stroke-width="1"
       stroke-linejoin="round"
       stroke-linecap="butt"
       d="M 657.3423,247.66142 V 291.6614"
       fill-rule="evenodd"
       id="path13121" />
    <path
       fill="#000000"
       fill-opacity="0"
       d="m 621.3336,247.85301 h 29.60626 v 42.01576 H 621.3336 Z"
       fill-rule="evenodd"
       id="path13123" />
    <path
       fill="#000000"
       d="m 632.6409,274.773 v -1.875 h 1.875 v 1.875 z m 5.18329,0 v -1.875 h 1.875 v 1.875 z"
       fill-rule="nonzero"
       id="path13125" />
    <path
       fill="#000000"
       fill-opacity="0"
       d="M 657.3412,247.66142 V 291.6614"
       fill-rule="evenodd"
       id="path13127" />
    <path
       stroke="#595959"
       stroke-width="1"
       stroke-linejoin="round"
       stroke-linecap="butt"
       d="M 657.3412,247.66142 V 291.6614"
       fill-rule="evenodd"
       id="path13129" />
    <path
       fill="#000000"
       fill-opacity="0"
       d="M 701.35016,247.66142 V 291.6614"
       fill-rule="evenodd"
       id="path13131" />
    <path
       stroke="#595959"
       stroke-width="1"
       stroke-linejoin="round"
       stroke-linecap="butt"
       d="M 701.35016,247.66142 V 291.6614"
       fill-rule="evenodd"
       id="path13133" />
    <path
       fill="#000000"
       fill-opacity="0"
       d="m 665.3415,247.85301 h 29.60626 v 42.01576 H 665.3415 Z"
       fill-rule="evenodd"
       id="path13135" />
    <path
       fill="#000000"
       d="m 676.6488,274.773 v -1.875 h 1.875 v 1.875 z m 5.18329,0 v -1.875 h 1.875 v 1.875 z"
       fill-rule="nonzero"
       id="path13137" />
    <path
       fill="#000000"
       fill-opacity="0"
       d="M 701.34906,247.66142 V 291.6614"
       fill-rule="evenodd"
       id="path13139" />
    <path
       stroke="#595959"
       stroke-width="1"
       stroke-linejoin="round"
       stroke-linecap="butt"
       d="M 701.34906,247.66142 V 291.6614"
       fill-rule="evenodd"
       id="path13141" />
    <path
       fill="#000000"
       fill-opacity="0"
       d="M 745.35803,247.66142 V 291.6614"
       fill-rule="evenodd"
       id="path13143" />
    <path
       stroke="#595959"
       stroke-width="1"
       stroke-linejoin="round"
       stroke-linecap="butt"
       d="M 745.35803,247.66142 V 291.6614"
       fill-rule="evenodd"
       id="path13145" />
    <path
       fill="#000000"
       fill-opacity="0"
       d="m 701.34906,247.85301 h 44.37799 v 42.01576 h -44.37799 z"
       fill-rule="evenodd"
       id="path13147" />
    <path
       fill="#000000"
       d="m 716.35077,274.773 v -12.92187 h 5.8125 v 1.42187 h -4.125 v 4.01563 h 3.73437 v 1.40625 h -3.73437 v 4.64062 h 4.42187 v 1.4375 z m 8.39789,-9.51562 q 0.6875,-0.20313 1.48437,-0.34375 0.8125,-0.14063 1.48438,-0.14063 0.73437,0 1.32812,0.20313 0.59375,0.1875 1.01563,0.65625 0.42187,0.46875 0.65625,1.26562 0.23437,0.78125 0.23437,1.96875 v 5.90625 h -1.60937 v -5.78125 q 0,-1.45312 -0.375,-2.125 -0.375,-0.67187 -1.40625,-0.67187 -0.53125,0 -1.20313,0.1875 v 8.39062 h -1.60937 z"
       fill-rule="nonzero"
       id="path13149" />
    <path
       fill="#000000"
       fill-opacity="0"
       d="M 796.16797,247.66142 V 291.6614"
       fill-rule="evenodd"
       id="path13151" />
    <path
       stroke="#595959"
       stroke-width="1"
       stroke-linejoin="round"
       stroke-linecap="butt"
       stroke-dasharray="4, 3"
       d="M 796.16797,247.66142 V 291.6614"
       fill-rule="evenodd"
       id="path13153" />
    <path
       fill="#000000"
       fill-opacity="0"
       d="m 745.2703,247.5376 h 51.05512"
       fill-rule="evenodd"
       id="path13155" />
    <path
       stroke="#595959"
       stroke-width="1"
       stroke-linejoin="round"
       stroke-linecap="butt"
       stroke-dasharray="4, 3"
       d="m 745.2703,247.5376 h 51.05512"
       fill-rule="evenodd"
       id="path13157" />
    <path
       fill="#000000"
       fill-opacity="0"
       d="m 745.35693,291.7693 h 50.96063"
       fill-rule="evenodd"
       id="path13159" />
    <path
       stroke="#595959"
       stroke-width="1"
       stroke-linejoin="round"
       stroke-linecap="butt"
       stroke-dasharray="4, 3"
       d="m 745.35693,291.7693 h 50.96063"
       fill-rule="evenodd"
       id="path13161" />
    <path
       fill="#000000"
       fill-opacity="0"
       d="m 743.67035,248.64568 h 55.52753 v 42.01573 h -55.52753 z"
       fill-rule="evenodd"
       id="path13163" />
    <path
       fill="#000000"
       d="m 756.2247,275.56567 v -12.92188 h 5.8125 v 1.42188 h -4.125 v 4.01562 h 3.73437 v 1.40625 h -3.73437 v 4.64063 h 4.42187 v 1.4375 z m 8.39783,-9.51563 q 0.6875,-0.20312 1.48437,-0.34375 0.8125,-0.14062 1.48438,-0.14062 0.73437,0 1.32812,0.20312 0.59375,0.1875 1.01563,0.65625 0.42187,0.46875 0.65625,1.26563 0.23437,0.78125 0.23437,1.96875 v 5.90625 h -1.60937 v -5.78125 q 0,-1.45313 -0.375,-2.125 -0.375,-0.67188 -1.40625,-0.67188 -0.53125,0 -1.20313,0.1875 v 8.39063 h -1.60937 z m 8.33606,3.25 h 2.53125 v -2.6875 h 1.375 v 2.6875 h 2.51562 v 1.35938 h -2.51562 v 2.70312 h -1.375 v -2.70312 h -2.53125 z m 8.53784,-4.09375 q 0.34375,-0.20312 0.71875,-0.5 0.39062,-0.29687 0.75,-0.64062 0.35937,-0.34375 0.65625,-0.70313 0.3125,-0.375 0.51562,-0.71875 h 1.23438 v 12.92188 h -1.60938 v -10.39063 q -0.3125,0.32813 -0.73437,0.64063 -0.42188,0.29687 -0.89063,0.54687 z"
       fill-rule="nonzero"
       id="path13165" />
  </g>
</svg>
