<?xml version="1.0" encoding="UTF-8" standalone="no"?>
<svg
   version="1.1"
   viewBox="0 0 730.57483 314.80972"
   fill="none"
   stroke="none"
   stroke-linecap="square"
   stroke-miterlimit="10"
   id="svg197"
   sodipodi:docname="producer-buffer.svg"
   width="730.57483"
   height="314.80972"
   inkscape:version="1.2.2 (b0a8486541, 2022-12-01)"
   xmlns:inkscape="http://www.inkscape.org/namespaces/inkscape"
   xmlns:sodipodi="http://sodipodi.sourceforge.net/DTD/sodipodi-0.dtd"
   xmlns="http://www.w3.org/2000/svg"
   xmlns:svg="http://www.w3.org/2000/svg">
  <defs
     id="defs201" />
  <sodipodi:namedview
     id="namedview199"
     pagecolor="#ffffff"
     bordercolor="#666666"
     borderopacity="1.0"
     inkscape:showpageshadow="2"
     inkscape:pageopacity="0.0"
     inkscape:pagecheckerboard="0"
     inkscape:deskcolor="#d1d1d1"
     showgrid="false"
     inkscape:zoom="1.3552083"
     inkscape:cx="288.51653"
     inkscape:cy="174.14297"
     inkscape:window-width="1920"
     inkscape:window-height="1011"
     inkscape:window-x="0"
     inkscape:window-y="32"
     inkscape:window-maximized="1"
     inkscape:current-layer="svg197" />
  <clipPath
     id="g1db106035c2_0_100.0">
    <path
       d="M 0,0 H 960 V 540 H 0 Z"
       clip-rule="nonzero"
       id="path2" />
  </clipPath>
  <g
     clip-path="url(#g1db106035c2_0_100.0)"
     id="g195"
     transform="translate(-173.6063,-95.58793)">
    <path
       fill="#434343"
       d="m 222.80315,135.50394 h 514.3937 v 274.3937 h -514.3937 z"
       fill-rule="evenodd"
       id="path7" />
    <path
       stroke="#d9d9d9"
       stroke-width="1"
       stroke-linejoin="round"
       stroke-linecap="butt"
       d="m 222.80315,135.50394 h 514.3937 v 274.3937 h -514.3937 z"
       fill-rule="evenodd"
       id="path9" />
    <path
       fill="#6fa8dc"
       fill-opacity="0.4405"
       d="m 238.3937,323.80447 h 483.21262 v 65.79526 H 238.3937 Z"
       fill-rule="evenodd"
       id="path11" />
    <path
       stroke="#595959"
       stroke-width="1"
       stroke-linejoin="round"
       stroke-linecap="butt"
       d="m 238.3937,323.80447 h 483.21262 v 65.79526 H 238.3937 Z"
       fill-rule="evenodd"
       id="path13" />
    <path
       fill="#f3f3f3"
       d="m 255.0812,360.59787 v 1.42187 h -2.875 v 11.5 h -1.67188 v -11.5 h -2.875 v -1.42187 z m 6.9834,8.03125 q 0,1.15625 -0.21875,2.10937 -0.20313,0.9375 -0.625,1.60938 -0.40625,0.67187 -1.0625,1.04687 -0.64063,0.375 -1.51563,0.375 -0.875,0 -1.53125,-0.375 -0.65625,-0.375 -1.07812,-1.04687 -0.40625,-0.67188 -0.625,-1.60938 -0.20313,-0.95312 -0.20313,-2.10937 0,-1.14063 0.20313,-2.07813 0.21875,-0.95312 0.625,-1.64062 0.42187,-0.6875 1.07812,-1.04688 0.65625,-0.375 1.53125,-0.375 0.875,0 1.51563,0.375 0.65625,0.35938 1.0625,1.04688 0.42187,0.6875 0.625,1.64062 0.21875,0.9375 0.21875,2.07813 z m -1.6875,0 q 0,-0.8125 -0.0937,-1.5 -0.0937,-0.6875 -0.29688,-1.17188 -0.20312,-0.5 -0.54687,-0.76562 -0.32813,-0.26563 -0.79688,-0.26563 -0.48437,0 -0.8125,0.26563 -0.32812,0.26562 -0.54687,0.76562 -0.20313,0.48438 -0.29688,1.17188 -0.0937,0.6875 -0.0937,1.5 0,0.82812 0.0937,1.51562 0.0937,0.67188 0.29688,1.15625 0.21875,0.48438 0.54687,0.76563 0.32813,0.26562 0.8125,0.26562 0.46875,0 0.79688,-0.26562 0.34375,-0.28125 0.54687,-0.76563 0.20313,-0.48437 0.29688,-1.15625 0.0937,-0.6875 0.0937,-1.51562 z m 5.62222,3.42187 q 0.53125,0.29688 1.15625,0.29688 0.46875,0 0.8125,-0.1875 0.35938,-0.1875 0.60938,-0.60938 0.25,-0.4375 0.375,-1.14062 0.14062,-0.71875 0.14062,-1.76563 0,-2.01562 -0.51562,-2.875 -0.51563,-0.875 -1.625,-0.875 -0.21875,0 -0.46875,0.0312 -0.23438,0.0312 -0.48438,0.10938 z m 0,4.92188 h -1.60937 v -12.98438 q 0.51562,-0.21875 1.17187,-0.35937 0.67188,-0.14063 1.35938,-0.14063 1.03125,0 1.76562,0.35938 0.73438,0.34375 1.1875,1.01562 0.46875,0.65625 0.67188,1.625 0.21875,0.95313 0.21875,2.1875 0,2.46875 -0.79688,3.78125 -0.78125,1.3125 -2.57812,1.3125 -0.42188,0 -0.76563,-0.0937 -0.32812,-0.0781 -0.625,-0.23437 z m 8.72809,-3.45313 h -1.60938 v -9.79687 h 1.60938 z m -0.8125,-11.53125 q -0.42188,0 -0.73438,-0.28125 -0.29687,-0.29687 -0.29687,-0.78125 0,-0.48437 0.29687,-0.76562 0.3125,-0.29688 0.73438,-0.29688 0.4375,0 0.73437,0.29688 0.3125,0.28125 0.3125,0.76562 0,0.48438 -0.3125,0.78125 -0.29687,0.28125 -0.73437,0.28125 z m 6.7023,11.78125 q -1,0 -1.67187,-0.39062 -0.67188,-0.40625 -1.09375,-1.07813 -0.42188,-0.6875 -0.60938,-1.60937 -0.17187,-0.9375 -0.17187,-2.04688 0,-2.42187 0.89062,-3.78125 0.89063,-1.375 2.67188,-1.375 0.54687,0 0.96875,0.125 0.4375,0.125 0.8125,0.32813 l -0.40625,1.32812 q -0.57813,-0.375 -1.29688,-0.375 -1,0 -1.48437,0.92188 -0.46875,0.90625 -0.46875,2.82812 0,0.8125 0.0937,1.5 0.0937,0.67188 0.32812,1.15625 0.23438,0.48438 0.60938,0.76563 0.39062,0.28125 0.98437,0.28125 0.40625,0 0.73438,-0.0937 0.32812,-0.10938 0.625,-0.28125 l 0.35937,1.25 q -0.3125,0.20312 -0.8125,0.375 -0.48437,0.17187 -1.0625,0.17187 z m 9.03613,-7.67187 h 1.15625 q 2.3125,0 2.3125,-2.09375 0,-0.65625 -0.20312,-1.0625 -0.1875,-0.42188 -0.51563,-0.65625 -0.3125,-0.23438 -0.73437,-0.32813 -0.42188,-0.0937 -0.875,-0.0937 -0.28125,0 -0.57813,0.0156 -0.28125,0.0156 -0.5625,0.0625 z m 0,1.34375 v 4.65625 q 0.34375,0.0625 0.6875,0.10937 0.35938,0.0312 0.6875,0.0312 0.53125,0 0.98438,-0.10937 0.46875,-0.125 0.8125,-0.375 0.34375,-0.26563 0.53125,-0.71875 0.20312,-0.46875 0.20312,-1.14063 0,-1.15625 -0.625,-1.79687 -0.625,-0.65625 -1.9375,-0.65625 z m -1.6875,-6.67188 q 0.65625,-0.14062 1.32813,-0.21875 0.6875,-0.0937 1.35937,-0.0937 0.84375,0 1.59375,0.15625 0.76563,0.15625 1.34375,0.54688 0.57813,0.375 0.92188,1 0.34375,0.625 0.34375,1.5625 0,1.15625 -0.48438,1.90625 -0.48437,0.73437 -1.25,1.07812 0.95313,0.375 1.5625,1.14063 0.625,0.76562 0.625,2.10937 0,1 -0.32812,1.70313 -0.32813,0.6875 -0.9375,1.125 -0.59375,0.4375 -1.42188,0.64062 -0.82812,0.1875 -1.8125,0.1875 -0.65625,0 -1.375,-0.0781 -0.70312,-0.0781 -1.46875,-0.21875 z m 13.35788,0 q 1.3125,-0.3125 2.5625,-0.3125 0.96875,0 1.75,0.23438 0.79688,0.23437 1.35938,0.73437 0.57812,0.48438 0.89062,1.28125 0.3125,0.78125 0.3125,1.875 0,1.125 -0.32812,1.92188 -0.3125,0.78125 -0.89063,1.28125 -0.57812,0.48437 -1.39062,0.71875 -0.8125,0.21875 -1.79688,0.21875 h -0.78125 v 4.79687 h -1.6875 z m 1.6875,6.48438 h 0.67188 q 0.625,0 1.14062,-0.14063 0.51563,-0.14062 0.85938,-0.45312 0.35937,-0.32813 0.54687,-0.82813 0.1875,-0.5 0.1875,-1.25 0,-0.75 -0.1875,-1.25 -0.1875,-0.51562 -0.51562,-0.82812 -0.3125,-0.3125 -0.78125,-0.4375 -0.46875,-0.125 -1.03125,-0.125 -0.48438,0 -0.89063,0.0469 z m 7.03434,-3.32813 q 0.48437,-0.20312 1.01562,-0.3125 0.54688,-0.125 1.1875,-0.125 1.29688,0 2.10938,0.8125 0.82812,0.8125 0.82812,2.51563 v 6.5 q -0.67187,0.1875 -1.375,0.29687 -0.6875,0.10938 -1.35937,0.10938 -0.67188,0 -1.26563,-0.17188 -0.57812,-0.15625 -1.03125,-0.53125 -0.4375,-0.375 -0.70312,-0.9375 -0.25,-0.57812 -0.25,-1.39062 0,-0.76563 0.23437,-1.32813 0.23438,-0.57812 0.64063,-0.95312 0.40625,-0.39063 0.96875,-0.57813 0.5625,-0.20312 1.21875,-0.20312 0.60937,0 1.35937,0.14062 v -0.89062 q 0,-1.07813 -0.42187,-1.5 -0.42188,-0.4375 -1.20313,-0.4375 -0.42187,0 -0.8125,0.0937 -0.375,0.0781 -0.8125,0.25 z m 0.76562,6.73438 q 0,0.85937 0.4375,1.28125 0.45313,0.40625 1.26563,0.40625 0.51562,0 1.10937,-0.14063 v -3.10937 q -0.5625,-0.15625 -1.10937,-0.15625 -0.34375,0 -0.67188,0.0937 -0.3125,0.0781 -0.54687,0.28125 -0.23438,0.1875 -0.35938,0.51562 -0.125,0.32813 -0.125,0.82813 z m 11.4093,-5.48438 q -0.59375,-0.25 -1.34375,-0.25 -0.6875,0 -1.28125,0.23438 v 8.35937 h -1.60937 v -9.35937 q 0.54687,-0.26563 1.23437,-0.4375 0.70313,-0.1875 1.54688,-0.1875 0.45312,0 0.89062,0.0625 0.45313,0.0469 0.84375,0.20312 z m 3.38489,-1.45312 h 2.45313 v 1.39062 h -2.45313 v 5.39063 q 0,1 0.35938,1.40625 0.35937,0.39062 0.98437,0.39062 0.3125,0 0.59375,-0.0937 0.29688,-0.0937 0.5,-0.21875 l 0.3125,1.28125 q -0.76562,0.45313 -1.625,0.45313 -1.375,0 -2.0625,-0.76563 -0.67187,-0.78125 -0.67187,-2.57812 v -9.28125 l 1.60937,-0.28125 z m 6.09802,9.79687 h -1.60937 v -9.79687 h 1.60937 z m -0.8125,-11.53125 q -0.42187,0 -0.73437,-0.28125 -0.29688,-0.29687 -0.29688,-0.78125 0,-0.48437 0.29688,-0.76562 0.3125,-0.29688 0.73437,-0.29688 0.4375,0 0.73438,0.29688 0.3125,0.28125 0.3125,0.76562 0,0.48438 -0.3125,0.78125 -0.29688,0.28125 -0.73438,0.28125 z m 5.21796,1.73438 h 2.45312 v 1.39062 h -2.45312 v 5.39063 q 0,1 0.35937,1.40625 0.35938,0.39062 0.98438,0.39062 0.3125,0 0.59375,-0.0937 0.29687,-0.0937 0.5,-0.21875 l 0.3125,1.28125 q -0.76563,0.45313 -1.625,0.45313 -1.375,0 -2.0625,-0.76563 -0.67188,-0.78125 -0.67188,-2.57812 v -9.28125 l 1.60938,-0.28125 z m 6.09802,9.79687 h -1.60937 v -9.79687 h 1.60937 z m -0.8125,-11.53125 q -0.42187,0 -0.73437,-0.28125 -0.29688,-0.29687 -0.29688,-0.78125 0,-0.48437 0.29688,-0.76562 0.3125,-0.29688 0.73437,-0.29688 0.4375,0 0.73438,0.29688 0.3125,0.28125 0.3125,0.76562 0,0.48438 -0.3125,0.78125 -0.29688,0.28125 -0.73438,0.28125 z m 10.01483,6.64063 q 0,1.15625 -0.21875,2.10937 -0.20312,0.9375 -0.625,1.60938 -0.40625,0.67187 -1.0625,1.04687 -0.64062,0.375 -1.51562,0.375 -0.875,0 -1.53125,-0.375 -0.65625,-0.375 -1.07813,-1.04687 -0.40625,-0.67188 -0.625,-1.60938 -0.20312,-0.95312 -0.20312,-2.10937 0,-1.14063 0.20312,-2.07813 0.21875,-0.95312 0.625,-1.64062 0.42188,-0.6875 1.07813,-1.04688 0.65625,-0.375 1.53125,-0.375 0.875,0 1.51562,0.375 0.65625,0.35938 1.0625,1.04688 0.42188,0.6875 0.625,1.64062 0.21875,0.9375 0.21875,2.07813 z m -1.6875,0 q 0,-0.8125 -0.0937,-1.5 -0.0937,-0.6875 -0.29687,-1.17188 -0.20313,-0.5 -0.54688,-0.76562 -0.32812,-0.26563 -0.79687,-0.26563 -0.48438,0 -0.8125,0.26563 -0.32813,0.26562 -0.54688,0.76562 -0.20312,0.48438 -0.29687,1.17188 -0.0937,0.6875 -0.0937,1.5 0,0.82812 0.0937,1.51562 0.0937,0.67188 0.29687,1.15625 0.21875,0.48438 0.54688,0.76563 0.32812,0.26562 0.8125,0.26562 0.46875,0 0.79687,-0.26562 0.34375,-0.28125 0.54688,-0.76563 0.20312,-0.48437 0.29687,-1.15625 0.0937,-0.6875 0.0937,-1.51562 z m 4.02848,-4.625 q 0.6875,-0.20313 1.48437,-0.34375 0.8125,-0.14063 1.48438,-0.14063 0.73437,0 1.32812,0.20313 0.59375,0.1875 1.01563,0.65625 0.42187,0.46875 0.65625,1.26562 0.23437,0.78125 0.23437,1.96875 v 5.90625 h -1.60937 v -5.78125 q 0,-1.45312 -0.375,-2.125 -0.375,-0.67187 -1.40625,-0.67187 -0.53125,0 -1.20313,0.1875 v 8.39062 h -1.60937 z m 12.48965,-0.84375 q 0.34375,-0.20313 0.71875,-0.5 0.39063,-0.29688 0.75,-0.64063 0.35938,-0.34375 0.65625,-0.70312 0.3125,-0.375 0.51563,-0.71875 h 1.23437 v 12.92187 h -1.60937 v -10.39062 q -0.3125,0.32812 -0.73438,0.64062 -0.42187,0.29688 -0.89062,0.54688 z m 13.36328,4.78125 q 0,2.39062 0.57813,4.5 0.57812,2.10937 1.625,3.85937 l -1.28125,0.70313 q -1.15625,-1.8125 -1.84375,-4.09375 -0.67188,-2.29688 -0.67188,-4.96875 0,-2.67188 0.67188,-4.95313 0.6875,-2.29687 1.84375,-4.10937 l 1.28125,0.70312 q -1.04688,1.75 -1.625,3.85938 -0.57813,2.10937 -0.57813,4.5 z m 5.55139,-1.84375 h 1.15625 q 2.3125,0 2.3125,-2.09375 0,-0.65625 -0.20312,-1.0625 -0.1875,-0.42188 -0.51563,-0.65625 -0.3125,-0.23438 -0.73437,-0.32813 -0.42188,-0.0937 -0.875,-0.0937 -0.28125,0 -0.57813,0.0156 -0.28125,0.0156 -0.5625,0.0625 z m 0,1.34375 v 4.65625 q 0.34375,0.0625 0.6875,0.10937 0.35938,0.0312 0.6875,0.0312 0.53125,0 0.98438,-0.10937 0.46875,-0.125 0.8125,-0.375 0.34375,-0.26563 0.53125,-0.71875 0.20312,-0.46875 0.20312,-1.14063 0,-1.15625 -0.625,-1.79687 -0.625,-0.65625 -1.9375,-0.65625 z m -1.6875,-6.67188 q 0.65625,-0.14062 1.32813,-0.21875 0.6875,-0.0937 1.35937,-0.0937 0.84375,0 1.59375,0.15625 0.76563,0.15625 1.34375,0.54688 0.57813,0.375 0.92188,1 0.34375,0.625 0.34375,1.5625 0,1.15625 -0.48438,1.90625 -0.48437,0.73437 -1.25,1.07812 0.95313,0.375 1.5625,1.14063 0.625,0.76562 0.625,2.10937 0,1 -0.32812,1.70313 -0.32813,0.6875 -0.9375,1.125 -0.59375,0.4375 -1.42188,0.64062 -0.82812,0.1875 -1.8125,0.1875 -0.65625,0 -1.375,-0.0781 -0.70312,-0.0781 -1.46875,-0.21875 z m 9.46991,2.39063 q 0.34375,-0.20313 0.71875,-0.5 0.39063,-0.29688 0.75,-0.64063 0.35938,-0.34375 0.65625,-0.70312 0.3125,-0.375 0.51563,-0.71875 h 1.23437 v 12.92187 h -1.60937 v -10.39062 q -0.3125,0.32812 -0.73438,0.64062 -0.42187,0.29688 -0.89062,0.54688 z m 9.00657,4.78125 q 0,-2.39063 -0.57813,-4.5 -0.57812,-2.10938 -1.625,-3.85938 l 1.28125,-0.70312 q 1.15625,1.8125 1.84375,4.10937 0.6875,2.28125 0.6875,4.95313 0,2.67187 -0.6875,4.96875 -0.6875,2.28125 -1.84375,4.09375 l -1.28125,-0.70313 q 1.04688,-1.75 1.625,-3.85937 0.57813,-2.10938 0.57813,-4.5 z"
       fill-rule="nonzero"
       id="path15" />
    <path
       fill="#6fa8dc"
       fill-opacity="0.4405"
       d="m 238.3937,239.8042 h 483.21262 v 65.79529 H 238.3937 Z"
       fill-rule="evenodd"
       id="path17" />
    <path
       stroke="#595959"
       stroke-width="1"
       stroke-linejoin="round"
       stroke-linecap="butt"
       d="m 238.3937,239.8042 h 483.21262 v 65.79529 H 238.3937 Z"
       fill-rule="evenodd"
       id="path19" />
    <path
       fill="#f3f3f3"
       d="m 255.0812,276.5976 v 1.42187 h -2.875 v 11.5 h -1.67188 v -11.5 h -2.875 v -1.42187 z m 6.9834,8.03125 q 0,1.15625 -0.21875,2.10937 -0.20313,0.9375 -0.625,1.60938 -0.40625,0.67187 -1.0625,1.04687 -0.64063,0.375 -1.51563,0.375 -0.875,0 -1.53125,-0.375 -0.65625,-0.375 -1.07812,-1.04687 -0.40625,-0.67188 -0.625,-1.60938 -0.20313,-0.95312 -0.20313,-2.10937 0,-1.14063 0.20313,-2.07813 0.21875,-0.95312 0.625,-1.64062 0.42187,-0.6875 1.07812,-1.04688 0.65625,-0.375 1.53125,-0.375 0.875,0 1.51563,0.375 0.65625,0.35938 1.0625,1.04688 0.42187,0.6875 0.625,1.64062 0.21875,0.9375 0.21875,2.07813 z m -1.6875,0 q 0,-0.8125 -0.0937,-1.5 -0.0937,-0.6875 -0.29688,-1.17188 -0.20312,-0.5 -0.54687,-0.76562 -0.32813,-0.26563 -0.79688,-0.26563 -0.48437,0 -0.8125,0.26563 -0.32812,0.26562 -0.54687,0.76562 -0.20313,0.48438 -0.29688,1.17188 -0.0937,0.6875 -0.0937,1.5 0,0.82812 0.0937,1.51562 0.0937,0.67188 0.29688,1.15625 0.21875,0.48438 0.54687,0.76563 0.32813,0.26562 0.8125,0.26562 0.46875,0 0.79688,-0.26562 0.34375,-0.28125 0.54687,-0.76563 0.20313,-0.48437 0.29688,-1.15625 0.0937,-0.6875 0.0937,-1.51562 z m 5.62222,3.42187 q 0.53125,0.29688 1.15625,0.29688 0.46875,0 0.8125,-0.1875 0.35938,-0.1875 0.60938,-0.60938 0.25,-0.4375 0.375,-1.14062 0.14062,-0.71875 0.14062,-1.76563 0,-2.01562 -0.51562,-2.875 -0.51563,-0.875 -1.625,-0.875 -0.21875,0 -0.46875,0.0312 -0.23438,0.0312 -0.48438,0.10938 z m 0,4.92188 h -1.60937 v -12.98438 q 0.51562,-0.21875 1.17187,-0.35937 0.67188,-0.14063 1.35938,-0.14063 1.03125,0 1.76562,0.35938 0.73438,0.34375 1.1875,1.01562 0.46875,0.65625 0.67188,1.625 0.21875,0.95313 0.21875,2.1875 0,2.46875 -0.79688,3.78125 -0.78125,1.3125 -2.57812,1.3125 -0.42188,0 -0.76563,-0.0937 -0.32812,-0.0781 -0.625,-0.23437 z m 8.72809,-3.45313 h -1.60938 v -9.79687 h 1.60938 z m -0.8125,-11.53125 q -0.42188,0 -0.73438,-0.28125 -0.29687,-0.29687 -0.29687,-0.78125 0,-0.48437 0.29687,-0.76562 0.3125,-0.29688 0.73438,-0.29688 0.4375,0 0.73437,0.29688 0.3125,0.28125 0.3125,0.76562 0,0.48438 -0.3125,0.78125 -0.29687,0.28125 -0.73437,0.28125 z m 6.7023,11.78125 q -1,0 -1.67187,-0.39062 -0.67188,-0.40625 -1.09375,-1.07813 -0.42188,-0.6875 -0.60938,-1.60937 -0.17187,-0.9375 -0.17187,-2.04688 0,-2.42187 0.89062,-3.78125 0.89063,-1.375 2.67188,-1.375 0.54687,0 0.96875,0.125 0.4375,0.125 0.8125,0.32813 l -0.40625,1.32812 q -0.57813,-0.375 -1.29688,-0.375 -1,0 -1.48437,0.92188 -0.46875,0.90625 -0.46875,2.82812 0,0.8125 0.0937,1.5 0.0937,0.67188 0.32812,1.15625 0.23438,0.48438 0.60938,0.76563 0.39062,0.28125 0.98437,0.28125 0.40625,0 0.73438,-0.0937 0.32812,-0.10938 0.625,-0.28125 l 0.35937,1.25 q -0.3125,0.20312 -0.8125,0.375 -0.48437,0.17187 -1.0625,0.17187 z m 11.36426,-13.17187 q 0.45312,1.39062 0.89062,2.82812 0.4375,1.42188 0.85938,2.98438 0.42187,1.5625 0.82812,3.32812 0.42188,1.75 0.85938,3.78125 h -1.6875 q -0.14063,-0.84375 -0.3125,-1.65625 -0.15625,-0.82812 -0.3125,-1.64062 h -4.07813 q -0.1875,0.8125 -0.34375,1.64062 -0.14062,0.8125 -0.28125,1.65625 h -1.625 q 0.40625,-2.03125 0.82813,-3.78125 0.4375,-1.76562 0.85937,-3.32812 0.42188,-1.5625 0.85938,-2.98438 0.4375,-1.4375 0.89062,-2.82812 z m -0.90625,1.89062 q -0.46875,1.54688 -0.90625,3.125 -0.42188,1.5625 -0.8125,3.20313 h 3.40625 q -0.375,-1.64063 -0.8125,-3.20313 -0.42188,-1.57812 -0.875,-3.125 z m 9.91269,-1.71875 q 1.3125,-0.3125 2.5625,-0.3125 0.96875,0 1.75,0.23438 0.79687,0.23437 1.35937,0.73437 0.57813,0.48438 0.89063,1.28125 0.3125,0.78125 0.3125,1.875 0,1.125 -0.32813,1.92188 -0.3125,0.78125 -0.89062,1.28125 -0.57813,0.48437 -1.39063,0.71875 -0.8125,0.21875 -1.79687,0.21875 h -0.78125 v 4.79687 h -1.6875 z m 1.6875,6.48438 h 0.67187 q 0.625,0 1.14063,-0.14063 0.51562,-0.14062 0.85937,-0.45312 0.35938,-0.32813 0.54688,-0.82813 0.1875,-0.5 0.1875,-1.25 0,-0.75 -0.1875,-1.25 -0.1875,-0.51562 -0.51563,-0.82812 -0.3125,-0.3125 -0.78125,-0.4375 -0.46875,-0.125 -1.03125,-0.125 -0.48437,0 -0.89062,0.0469 z m 7.03433,-3.32813 q 0.48437,-0.20312 1.01562,-0.3125 0.54688,-0.125 1.1875,-0.125 1.29688,0 2.10938,0.8125 0.82812,0.8125 0.82812,2.51563 v 6.5 q -0.67187,0.1875 -1.375,0.29687 -0.6875,0.10938 -1.35937,0.10938 -0.67188,0 -1.26563,-0.17188 -0.57812,-0.15625 -1.03125,-0.53125 -0.4375,-0.375 -0.70312,-0.9375 -0.25,-0.57812 -0.25,-1.39062 0,-0.76563 0.23437,-1.32813 0.23438,-0.57812 0.64063,-0.95312 0.40625,-0.39063 0.96875,-0.57813 0.5625,-0.20312 1.21875,-0.20312 0.60937,0 1.35937,0.14062 v -0.89062 q 0,-1.07813 -0.42187,-1.5 -0.42188,-0.4375 -1.20313,-0.4375 -0.42187,0 -0.8125,0.0937 -0.375,0.0781 -0.8125,0.25 z m 0.76562,6.73438 q 0,0.85937 0.4375,1.28125 0.45313,0.40625 1.26563,0.40625 0.51562,0 1.10937,-0.14063 v -3.10937 q -0.5625,-0.15625 -1.10937,-0.15625 -0.34375,0 -0.67188,0.0937 -0.3125,0.0781 -0.54687,0.28125 -0.23438,0.1875 -0.35938,0.51562 -0.125,0.32813 -0.125,0.82813 z m 11.40931,-5.48438 q -0.59375,-0.25 -1.34375,-0.25 -0.6875,0 -1.28125,0.23438 v 8.35937 h -1.60938 v -9.35937 q 0.54688,-0.26563 1.23438,-0.4375 0.70312,-0.1875 1.54687,-0.1875 0.45313,0 0.89063,0.0625 0.45312,0.0469 0.84375,0.20312 z m 3.38488,-1.45312 h 2.45313 v 1.39062 h -2.45313 v 5.39063 q 0,1 0.35938,1.40625 0.35937,0.39062 0.98437,0.39062 0.3125,0 0.59375,-0.0937 0.29688,-0.0937 0.5,-0.21875 l 0.3125,1.28125 q -0.76562,0.45313 -1.625,0.45313 -1.375,0 -2.0625,-0.76563 -0.67187,-0.78125 -0.67187,-2.57812 v -9.28125 l 1.60937,-0.28125 z m 6.09803,9.79687 h -1.60938 v -9.79687 h 1.60938 z m -0.8125,-11.53125 q -0.42188,0 -0.73438,-0.28125 -0.29687,-0.29687 -0.29687,-0.78125 0,-0.48437 0.29687,-0.76562 0.3125,-0.29688 0.73438,-0.29688 0.4375,0 0.73437,0.29688 0.3125,0.28125 0.3125,0.76562 0,0.48438 -0.3125,0.78125 -0.29687,0.28125 -0.73437,0.28125 z m 5.21795,1.73438 h 2.45313 v 1.39062 h -2.45313 v 5.39063 q 0,1 0.35938,1.40625 0.35937,0.39062 0.98437,0.39062 0.3125,0 0.59375,-0.0937 0.29688,-0.0937 0.5,-0.21875 l 0.3125,1.28125 q -0.76562,0.45313 -1.625,0.45313 -1.375,0 -2.0625,-0.76563 -0.67187,-0.78125 -0.67187,-2.57812 v -9.28125 l 1.60937,-0.28125 z m 6.09803,9.79687 h -1.60938 v -9.79687 h 1.60938 z m -0.8125,-11.53125 q -0.42188,0 -0.73438,-0.28125 -0.29687,-0.29687 -0.29687,-0.78125 0,-0.48437 0.29687,-0.76562 0.3125,-0.29688 0.73438,-0.29688 0.4375,0 0.73437,0.29688 0.3125,0.28125 0.3125,0.76562 0,0.48438 -0.3125,0.78125 -0.29687,0.28125 -0.73437,0.28125 z m 10.01483,6.64063 q 0,1.15625 -0.21875,2.10937 -0.20313,0.9375 -0.625,1.60938 -0.40625,0.67187 -1.0625,1.04687 -0.64063,0.375 -1.51563,0.375 -0.875,0 -1.53125,-0.375 -0.65625,-0.375 -1.07812,-1.04687 -0.40625,-0.67188 -0.625,-1.60938 -0.20313,-0.95312 -0.20313,-2.10937 0,-1.14063 0.20313,-2.07813 0.21875,-0.95312 0.625,-1.64062 0.42187,-0.6875 1.07812,-1.04688 0.65625,-0.375 1.53125,-0.375 0.875,0 1.51563,0.375 0.65625,0.35938 1.0625,1.04688 0.42187,0.6875 0.625,1.64062 0.21875,0.9375 0.21875,2.07813 z m -1.6875,0 q 0,-0.8125 -0.0937,-1.5 -0.0937,-0.6875 -0.29688,-1.17188 -0.20312,-0.5 -0.54687,-0.76562 -0.32813,-0.26563 -0.79688,-0.26563 -0.48437,0 -0.8125,0.26563 -0.32812,0.26562 -0.54687,0.76562 -0.20313,0.48438 -0.29688,1.17188 -0.0937,0.6875 -0.0937,1.5 0,0.82812 0.0937,1.51562 0.0937,0.67188 0.29688,1.15625 0.21875,0.48438 0.54687,0.76563 0.32813,0.26562 0.8125,0.26562 0.46875,0 0.79688,-0.26562 0.34375,-0.28125 0.54687,-0.76563 0.20313,-0.48437 0.29688,-1.15625 0.0937,-0.6875 0.0937,-1.51562 z m 4.02847,-4.625 q 0.6875,-0.20313 1.48438,-0.34375 0.8125,-0.14063 1.48437,-0.14063 0.73438,0 1.32813,0.20313 0.59375,0.1875 1.01562,0.65625 0.42188,0.46875 0.65625,1.26562 0.23438,0.78125 0.23438,1.96875 v 5.90625 h -1.60938 v -5.78125 q 0,-1.45312 -0.375,-2.125 -0.375,-0.67187 -1.40625,-0.67187 -0.53125,0 -1.20312,0.1875 v 8.39062 h -1.60938 z m 12.00528,-2.60938 q 1.09375,-1.10937 2.67188,-1.10937 1.51562,0 2.3125,0.79687 0.8125,0.79688 0.8125,2.46875 0,0.79688 -0.26563,1.5 -0.26562,0.70313 -0.65625,1.375 -0.39062,0.65625 -0.85937,1.3125 -0.45313,0.65625 -0.89063,1.34375 -0.42187,0.67188 -0.75,1.40625 -0.3125,0.73438 -0.39062,1.57813 h 4.07812 v 1.45312 h -5.79687 v -0.35937 q 0,-1.25 0.28125,-2.21875 0.29687,-0.96875 0.71875,-1.75 0.42187,-0.78125 0.92187,-1.45313 0.51563,-0.67187 0.92188,-1.3125 0.42187,-0.65625 0.70312,-1.32812 0.29688,-0.6875 0.29688,-1.5 0,-0.98438 -0.39063,-1.42188 -0.39062,-0.45312 -1.17187,-0.45312 -0.54688,0 -0.98438,0.21875 -0.4375,0.21875 -0.78125,0.54687 z m 13.84766,6.54688 q 0,2.39062 0.57812,4.5 0.57813,2.10937 1.625,3.85937 l -1.28125,0.70313 q -1.15625,-1.8125 -1.84375,-4.09375 -0.67187,-2.29688 -0.67187,-4.96875 0,-2.67188 0.67187,-4.95313 0.6875,-2.29687 1.84375,-4.10937 l 1.28125,0.70312 q -1.04687,1.75 -1.625,3.85938 -0.57812,2.10937 -0.57812,4.5 z m 7.87951,-7.34375 q 0.45313,1.39062 0.89063,2.82812 0.4375,1.42188 0.85937,2.98438 0.42188,1.5625 0.82813,3.32812 0.42187,1.75 0.85937,3.78125 h -1.6875 q -0.14062,-0.84375 -0.3125,-1.65625 -0.15625,-0.82812 -0.3125,-1.64062 h -4.07812 q -0.1875,0.8125 -0.34375,1.64062 -0.14063,0.8125 -0.28125,1.65625 h -1.625 q 0.40625,-2.03125 0.82812,-3.78125 0.4375,-1.76562 0.85938,-3.32812 0.42187,-1.5625 0.85937,-2.98438 0.4375,-1.4375 0.89063,-2.82812 z m -0.90625,1.89062 q -0.46875,1.54688 -0.90625,3.125 -0.42187,1.5625 -0.8125,3.20313 h 3.40625 q -0.375,-1.64063 -0.8125,-3.20313 -0.42187,-1.57812 -0.875,-3.125 z m 5.54035,-1.09375 q 1.09375,-1.10937 2.67187,-1.10937 1.51563,0 2.3125,0.79687 0.8125,0.79688 0.8125,2.46875 0,0.79688 -0.26562,1.5 -0.26563,0.70313 -0.65625,1.375 -0.39063,0.65625 -0.85938,1.3125 -0.45312,0.65625 -0.89062,1.34375 -0.42188,0.67188 -0.75,1.40625 -0.3125,0.73438 -0.39063,1.57813 h 4.07813 v 1.45312 h -5.79688 v -0.35937 q 0,-1.25 0.28125,-2.21875 0.29688,-0.96875 0.71875,-1.75 0.42188,-0.78125 0.92188,-1.45313 0.51562,-0.67187 0.92187,-1.3125 0.42188,-0.65625 0.70313,-1.32812 0.29687,-0.6875 0.29687,-1.5 0,-0.98438 -0.39062,-1.42188 -0.39063,-0.45312 -1.17188,-0.45312 -0.54687,0 -0.98437,0.21875 -0.4375,0.21875 -0.78125,0.54687 z m 9.49093,6.54688 q 0,-2.39063 -0.57812,-4.5 -0.57813,-2.10938 -1.625,-3.85938 l 1.28125,-0.70312 q 1.15625,1.8125 1.84375,4.10937 0.6875,2.28125 0.6875,4.95313 0,2.67187 -0.6875,4.96875 -0.6875,2.28125 -1.84375,4.09375 l -1.28125,-0.70313 q 1.04687,-1.75 1.625,-3.85937 0.57812,-2.10938 0.57812,-4.5 z"
       fill-rule="nonzero"
       id="path21" />
    <path
       fill="#6fa8dc"
       fill-opacity="0.4405"
       d="m 238.3937,155.80446 h 483.21262 v 65.79527 H 238.3937 Z"
       fill-rule="evenodd"
       id="path23" />
    <path
       stroke="#595959"
       stroke-width="1"
       stroke-linejoin="round"
       stroke-linecap="butt"
       d="m 238.3937,155.80446 h 483.21262 v 65.79527 H 238.3937 Z"
       fill-rule="evenodd"
       id="path25" />
    <path
       fill="#f3f3f3"
       d="m 255.0812,192.59785 v 1.42187 h -2.875 v 11.5 h -1.67188 v -11.5 h -2.875 v -1.42187 z m 6.9834,8.03125 q 0,1.15625 -0.21875,2.10937 -0.20313,0.9375 -0.625,1.60938 -0.40625,0.67187 -1.0625,1.04687 -0.64063,0.375 -1.51563,0.375 -0.875,0 -1.53125,-0.375 -0.65625,-0.375 -1.07812,-1.04687 -0.40625,-0.67188 -0.625,-1.60938 -0.20313,-0.95312 -0.20313,-2.10937 0,-1.14063 0.20313,-2.07813 0.21875,-0.95312 0.625,-1.64062 0.42187,-0.6875 1.07812,-1.04688 0.65625,-0.375 1.53125,-0.375 0.875,0 1.51563,0.375 0.65625,0.35938 1.0625,1.04688 0.42187,0.6875 0.625,1.64062 0.21875,0.9375 0.21875,2.07813 z m -1.6875,0 q 0,-0.8125 -0.0937,-1.5 -0.0937,-0.6875 -0.29688,-1.17188 -0.20312,-0.5 -0.54687,-0.76562 -0.32813,-0.26563 -0.79688,-0.26563 -0.48437,0 -0.8125,0.26563 -0.32812,0.26562 -0.54687,0.76562 -0.20313,0.48438 -0.29688,1.17188 -0.0937,0.6875 -0.0937,1.5 0,0.82812 0.0937,1.51562 0.0937,0.67188 0.29688,1.15625 0.21875,0.48438 0.54687,0.76563 0.32813,0.26562 0.8125,0.26562 0.46875,0 0.79688,-0.26562 0.34375,-0.28125 0.54687,-0.76563 0.20313,-0.48437 0.29688,-1.15625 0.0937,-0.6875 0.0937,-1.51562 z m 5.62222,3.42187 q 0.53125,0.29688 1.15625,0.29688 0.46875,0 0.8125,-0.1875 0.35938,-0.1875 0.60938,-0.60938 0.25,-0.4375 0.375,-1.14062 0.14062,-0.71875 0.14062,-1.76563 0,-2.01562 -0.51562,-2.875 -0.51563,-0.875 -1.625,-0.875 -0.21875,0 -0.46875,0.0312 -0.23438,0.0312 -0.48438,0.10938 z m 0,4.92188 h -1.60937 v -12.98438 q 0.51562,-0.21875 1.17187,-0.35937 0.67188,-0.14063 1.35938,-0.14063 1.03125,0 1.76562,0.35938 0.73438,0.34375 1.1875,1.01562 0.46875,0.65625 0.67188,1.625 0.21875,0.95313 0.21875,2.1875 0,2.46875 -0.79688,3.78125 -0.78125,1.3125 -2.57812,1.3125 -0.42188,0 -0.76563,-0.0937 -0.32812,-0.0781 -0.625,-0.23437 z m 8.72809,-3.45313 h -1.60938 v -9.79687 h 1.60938 z m -0.8125,-11.53125 q -0.42188,0 -0.73438,-0.28125 -0.29687,-0.29687 -0.29687,-0.78125 0,-0.48437 0.29687,-0.76562 0.3125,-0.29688 0.73438,-0.29688 0.4375,0 0.73437,0.29688 0.3125,0.28125 0.3125,0.76562 0,0.48438 -0.3125,0.78125 -0.29687,0.28125 -0.73437,0.28125 z m 6.7023,11.78125 q -1,0 -1.67187,-0.39062 -0.67188,-0.40625 -1.09375,-1.07813 -0.42188,-0.6875 -0.60938,-1.60937 -0.17187,-0.9375 -0.17187,-2.04688 0,-2.42187 0.89062,-3.78125 0.89063,-1.375 2.67188,-1.375 0.54687,0 0.96875,0.125 0.4375,0.125 0.8125,0.32813 l -0.40625,1.32812 q -0.57813,-0.375 -1.29688,-0.375 -1,0 -1.48437,0.92188 -0.46875,0.90625 -0.46875,2.82812 0,0.8125 0.0937,1.5 0.0937,0.67188 0.32812,1.15625 0.23438,0.48438 0.60938,0.76563 0.39062,0.28125 0.98437,0.28125 0.40625,0 0.73438,-0.0937 0.32812,-0.10938 0.625,-0.28125 l 0.35937,1.25 q -0.3125,0.20312 -0.8125,0.375 -0.48437,0.17187 -1.0625,0.17187 z m 11.36426,-13.17187 q 0.45312,1.39062 0.89062,2.82812 0.4375,1.42188 0.85938,2.98438 0.42187,1.5625 0.82812,3.32812 0.42188,1.75 0.85938,3.78125 h -1.6875 q -0.14063,-0.84375 -0.3125,-1.65625 -0.15625,-0.82812 -0.3125,-1.64062 h -4.07813 q -0.1875,0.8125 -0.34375,1.64062 -0.14062,0.8125 -0.28125,1.65625 h -1.625 q 0.40625,-2.03125 0.82813,-3.78125 0.4375,-1.76562 0.85937,-3.32812 0.42188,-1.5625 0.85938,-2.98438 0.4375,-1.4375 0.89062,-2.82812 z m -0.90625,1.89062 q -0.46875,1.54688 -0.90625,3.125 -0.42188,1.5625 -0.8125,3.20313 h 3.40625 q -0.375,-1.64063 -0.8125,-3.20313 -0.42188,-1.57812 -0.875,-3.125 z m 9.91269,-1.71875 q 1.3125,-0.3125 2.5625,-0.3125 0.96875,0 1.75,0.23438 0.79687,0.23437 1.35937,0.73437 0.57813,0.48438 0.89063,1.28125 0.3125,0.78125 0.3125,1.875 0,1.125 -0.32813,1.92188 -0.3125,0.78125 -0.89062,1.28125 -0.57813,0.48437 -1.39063,0.71875 -0.8125,0.21875 -1.79687,0.21875 h -0.78125 v 4.79687 h -1.6875 z m 1.6875,6.48438 h 0.67187 q 0.625,0 1.14063,-0.14063 0.51562,-0.14062 0.85937,-0.45312 0.35938,-0.32813 0.54688,-0.82813 0.1875,-0.5 0.1875,-1.25 0,-0.75 -0.1875,-1.25 -0.1875,-0.51562 -0.51563,-0.82812 -0.3125,-0.3125 -0.78125,-0.4375 -0.46875,-0.125 -1.03125,-0.125 -0.48437,0 -0.89062,0.0469 z m 7.03433,-3.32813 q 0.48437,-0.20312 1.01562,-0.3125 0.54688,-0.125 1.1875,-0.125 1.29688,0 2.10938,0.8125 0.82812,0.8125 0.82812,2.51563 v 6.5 q -0.67187,0.1875 -1.375,0.29687 -0.6875,0.10938 -1.35937,0.10938 -0.67188,0 -1.26563,-0.17188 -0.57812,-0.15625 -1.03125,-0.53125 -0.4375,-0.375 -0.70312,-0.9375 -0.25,-0.57812 -0.25,-1.39062 0,-0.76563 0.23437,-1.32813 0.23438,-0.57812 0.64063,-0.95312 0.40625,-0.39063 0.96875,-0.57813 0.5625,-0.20312 1.21875,-0.20312 0.60937,0 1.35937,0.14062 v -0.89062 q 0,-1.07813 -0.42187,-1.5 -0.42188,-0.4375 -1.20313,-0.4375 -0.42187,0 -0.8125,0.0937 -0.375,0.0781 -0.8125,0.25 z m 0.76562,6.73438 q 0,0.85937 0.4375,1.28125 0.45313,0.40625 1.26563,0.40625 0.51562,0 1.10937,-0.14063 v -3.10937 q -0.5625,-0.15625 -1.10937,-0.15625 -0.34375,0 -0.67188,0.0937 -0.3125,0.0781 -0.54687,0.28125 -0.23438,0.1875 -0.35938,0.51562 -0.125,0.32813 -0.125,0.82813 z m 11.40931,-5.48438 q -0.59375,-0.25 -1.34375,-0.25 -0.6875,0 -1.28125,0.23438 v 8.35937 h -1.60938 v -9.35937 q 0.54688,-0.26563 1.23438,-0.4375 0.70312,-0.1875 1.54687,-0.1875 0.45313,0 0.89063,0.0625 0.45312,0.0469 0.84375,0.20312 z m 3.38488,-1.45312 h 2.45313 v 1.39062 h -2.45313 v 5.39063 q 0,1 0.35938,1.40625 0.35937,0.39062 0.98437,0.39062 0.3125,0 0.59375,-0.0937 0.29688,-0.0937 0.5,-0.21875 l 0.3125,1.28125 q -0.76562,0.45313 -1.625,0.45313 -1.375,0 -2.0625,-0.76563 -0.67187,-0.78125 -0.67187,-2.57812 v -9.28125 l 1.60937,-0.28125 z m 6.09803,9.79687 h -1.60938 v -9.79687 h 1.60938 z m -0.8125,-11.53125 q -0.42188,0 -0.73438,-0.28125 -0.29687,-0.29687 -0.29687,-0.78125 0,-0.48437 0.29687,-0.76562 0.3125,-0.29688 0.73438,-0.29688 0.4375,0 0.73437,0.29688 0.3125,0.28125 0.3125,0.76562 0,0.48438 -0.3125,0.78125 -0.29687,0.28125 -0.73437,0.28125 z m 5.21795,1.73438 h 2.45313 v 1.39062 h -2.45313 v 5.39063 q 0,1 0.35938,1.40625 0.35937,0.39062 0.98437,0.39062 0.3125,0 0.59375,-0.0937 0.29688,-0.0937 0.5,-0.21875 l 0.3125,1.28125 q -0.76562,0.45313 -1.625,0.45313 -1.375,0 -2.0625,-0.76563 -0.67187,-0.78125 -0.67187,-2.57812 v -9.28125 l 1.60937,-0.28125 z m 6.09803,9.79687 h -1.60938 v -9.79687 h 1.60938 z m -0.8125,-11.53125 q -0.42188,0 -0.73438,-0.28125 -0.29687,-0.29687 -0.29687,-0.78125 0,-0.48437 0.29687,-0.76562 0.3125,-0.29688 0.73438,-0.29688 0.4375,0 0.73437,0.29688 0.3125,0.28125 0.3125,0.76562 0,0.48438 -0.3125,0.78125 -0.29687,0.28125 -0.73437,0.28125 z m 10.01483,6.64063 q 0,1.15625 -0.21875,2.10937 -0.20313,0.9375 -0.625,1.60938 -0.40625,0.67187 -1.0625,1.04687 -0.64063,0.375 -1.51563,0.375 -0.875,0 -1.53125,-0.375 -0.65625,-0.375 -1.07812,-1.04687 -0.40625,-0.67188 -0.625,-1.60938 -0.20313,-0.95312 -0.20313,-2.10937 0,-1.14063 0.20313,-2.07813 0.21875,-0.95312 0.625,-1.64062 0.42187,-0.6875 1.07812,-1.04688 0.65625,-0.375 1.53125,-0.375 0.875,0 1.51563,0.375 0.65625,0.35938 1.0625,1.04688 0.42187,0.6875 0.625,1.64062 0.21875,0.9375 0.21875,2.07813 z m -1.6875,0 q 0,-0.8125 -0.0937,-1.5 -0.0937,-0.6875 -0.29688,-1.17188 -0.20312,-0.5 -0.54687,-0.76562 -0.32813,-0.26563 -0.79688,-0.26563 -0.48437,0 -0.8125,0.26563 -0.32812,0.26562 -0.54687,0.76562 -0.20313,0.48438 -0.29688,1.17188 -0.0937,0.6875 -0.0937,1.5 0,0.82812 0.0937,1.51562 0.0937,0.67188 0.29688,1.15625 0.21875,0.48438 0.54687,0.76563 0.32813,0.26562 0.8125,0.26562 0.46875,0 0.79688,-0.26562 0.34375,-0.28125 0.54687,-0.76563 0.20313,-0.48437 0.29688,-1.15625 0.0937,-0.6875 0.0937,-1.51562 z m 4.02847,-4.625 q 0.6875,-0.20313 1.48438,-0.34375 0.8125,-0.14063 1.48437,-0.14063 0.73438,0 1.32813,0.20313 0.59375,0.1875 1.01562,0.65625 0.42188,0.46875 0.65625,1.26562 0.23438,0.78125 0.23438,1.96875 v 5.90625 h -1.60938 v -5.78125 q 0,-1.45312 -0.375,-2.125 -0.375,-0.67187 -1.40625,-0.67187 -0.53125,0 -1.20312,0.1875 v 8.39062 h -1.60938 z m 12.48966,-0.84375 q 0.34375,-0.20313 0.71875,-0.5 0.39062,-0.29688 0.75,-0.64063 0.35937,-0.34375 0.65625,-0.70312 0.3125,-0.375 0.51562,-0.71875 h 1.23438 v 12.92187 h -1.60938 V 195.1291 q -0.3125,0.32812 -0.73437,0.64062 -0.42188,0.29688 -0.89063,0.54688 z m 13.36328,4.78125 q 0,2.39062 0.57812,4.5 0.57813,2.10937 1.625,3.85937 l -1.28125,0.70313 q -1.15625,-1.8125 -1.84375,-4.09375 -0.67187,-2.29688 -0.67187,-4.96875 0,-2.67188 0.67187,-4.95313 0.6875,-2.29687 1.84375,-4.10937 l 1.28125,0.70312 q -1.04687,1.75 -1.625,3.85938 -0.57812,2.10937 -0.57812,4.5 z m 7.87951,-7.34375 q 0.45313,1.39062 0.89063,2.82812 0.4375,1.42188 0.85937,2.98438 0.42188,1.5625 0.82813,3.32812 0.42187,1.75 0.85937,3.78125 h -1.6875 q -0.14062,-0.84375 -0.3125,-1.65625 -0.15625,-0.82812 -0.3125,-1.64062 h -4.07812 q -0.1875,0.8125 -0.34375,1.64062 -0.14063,0.8125 -0.28125,1.65625 h -1.625 q 0.40625,-2.03125 0.82812,-3.78125 0.4375,-1.76562 0.85938,-3.32812 0.42187,-1.5625 0.85937,-2.98438 0.4375,-1.4375 0.89063,-2.82812 z m -0.90625,1.89062 q -0.46875,1.54688 -0.90625,3.125 -0.42187,1.5625 -0.8125,3.20313 h 3.40625 q -0.375,-1.64063 -0.8125,-3.20313 -0.42187,-1.57812 -0.875,-3.125 z m 6.02472,0.67188 q 0.34375,-0.20313 0.71875,-0.5 0.39063,-0.29688 0.75,-0.64063 0.35938,-0.34375 0.65625,-0.70312 0.3125,-0.375 0.51563,-0.71875 h 1.23437 v 12.92187 h -1.60937 V 195.1291 q -0.3125,0.32812 -0.73438,0.64062 -0.42187,0.29688 -0.89062,0.54688 z m 9.00656,4.78125 q 0,-2.39063 -0.57812,-4.5 -0.57813,-2.10938 -1.625,-3.85938 l 1.28125,-0.70312 q 1.15625,1.8125 1.84375,4.10937 0.6875,2.28125 0.6875,4.95313 0,2.67187 -0.6875,4.96875 -0.6875,2.28125 -1.84375,4.09375 l -1.28125,-0.70313 q 1.04687,-1.75 1.625,-3.85937 0.57812,-2.10938 0.57812,-4.5 z"
       fill-rule="nonzero"
       id="path27" />
    <path
       fill="#eeeeee"
       d="m 544.3937,181.17192 h 173.2284 v 35.02362 H 544.3937 Z"
       fill-rule="evenodd"
       id="path29" />
    <path
       stroke="#595959"
       stroke-width="1"
       stroke-linejoin="round"
       stroke-linecap="butt"
       d="m 544.3937,181.17192 h 173.2284 v 35.02362 H 544.3937 Z"
       fill-rule="evenodd"
       id="path31" />
    <path
       fill="#ffe599"
       d="m 674.79266,184.68373 h 40 v 28 h -40 z"
       fill-rule="evenodd"
       id="path33" />
    <path
       stroke="#595959"
       stroke-width="1"
       stroke-linejoin="round"
       stroke-linecap="butt"
       d="m 674.79266,184.68373 h 40 v 28 h -40 z"
       fill-rule="evenodd"
       id="path35" />
    <path
       fill="#000000"
       d="m 687.0186,196.38748 q 0.5625,-0.1875 1.21875,-0.29688 0.65625,-0.125 1.1875,-0.125 0.5625,0 1.01562,0.15625 0.46875,0.14063 0.8125,0.46875 0.42188,-0.26562 0.89063,-0.4375 0.48437,-0.1875 1.0625,-0.1875 0.57812,0 1.04687,0.17188 0.46875,0.17187 0.79688,0.57812 0.34375,0.39063 0.53125,1.07813 0.20312,0.67187 0.20312,1.67187 v 5.07813 h -1.375 v -4.95313 q 0,-1.25 -0.29687,-1.82812 -0.28125,-0.57813 -1.07813,-0.57813 -0.3125,0 -0.625,0.10938 -0.29687,0.10937 -0.57812,0.3125 0.125,0.35937 0.1875,0.82812 0.0625,0.46875 0.0625,1.03125 v 5.07813 h -1.375 v -4.95313 q 0,-1.25 -0.28125,-1.82812 -0.28125,-0.57813 -1.09375,-0.57813 -0.40625,0 -0.9375,0.15625 v 7.20313 h -1.375 z m 11.04303,-0.71875 q 0.29688,-0.1875 0.625,-0.4375 0.32813,-0.25 0.625,-0.54688 0.3125,-0.29687 0.57813,-0.60937 0.26562,-0.3125 0.4375,-0.625 h 1.0625 v 11.09375 h -1.375 v -8.90625 q -0.28125,0.28125 -0.64063,0.54687 -0.35937,0.25 -0.75,0.46875 z"
       fill-rule="nonzero"
       id="path37" />
    <path
       fill="#ffe599"
       d="m 632.39105,184.68373 h 40 v 28 h -40 z"
       fill-rule="evenodd"
       id="path39" />
    <path
       stroke="#595959"
       stroke-width="1"
       stroke-linejoin="round"
       stroke-linecap="butt"
       d="m 632.39105,184.68373 h 40 v 28 h -40 z"
       fill-rule="evenodd"
       id="path41" />
    <path
       fill="#000000"
       d="m 644.61707,196.38748 q 0.5625,-0.1875 1.21875,-0.29688 0.65625,-0.125 1.1875,-0.125 0.5625,0 1.01562,0.15625 0.46875,0.14063 0.8125,0.46875 0.42188,-0.26562 0.89063,-0.4375 0.48437,-0.1875 1.0625,-0.1875 0.57812,0 1.04687,0.17188 0.46875,0.17187 0.79688,0.57812 0.34375,0.39063 0.53125,1.07813 0.20312,0.67187 0.20312,1.67187 v 5.07813 h -1.375 v -4.95313 q 0,-1.25 -0.29687,-1.82812 -0.28125,-0.57813 -1.07813,-0.57813 -0.3125,0 -0.625,0.10938 -0.29687,0.10937 -0.57812,0.3125 0.125,0.35937 0.1875,0.82812 0.0625,0.46875 0.0625,1.03125 v 5.07813 h -1.375 v -4.95313 q 0,-1.25 -0.28125,-1.82812 -0.28125,-0.57813 -1.09375,-0.57813 -0.40625,0 -0.9375,0.15625 v 7.20313 h -1.375 z m 10.62116,-2.25 q 0.9375,-0.9375 2.3125,-0.9375 1.28125,0 1.96875,0.6875 0.70312,0.67187 0.70312,2.10937 0,0.67188 -0.23437,1.28125 -0.21875,0.60938 -0.5625,1.1875 -0.32813,0.5625 -0.73438,1.125 -0.39062,0.54688 -0.76562,1.14063 -0.35938,0.57812 -0.64063,1.21875 -0.26562,0.625 -0.32812,1.34375 h 3.48437 v 1.25 h -4.96875 v -0.29688 q 0,-1.07812 0.25,-1.90625 0.25,-0.84375 0.60938,-1.51562 0.35937,-0.67188 0.79687,-1.23438 0.4375,-0.57812 0.79688,-1.125 0.35937,-0.5625 0.59375,-1.14062 0.25,-0.59375 0.25,-1.29688 0,-0.84375 -0.34375,-1.21875 -0.32813,-0.375 -1,-0.375 -0.45313,0 -0.82813,0.1875 -0.375,0.17188 -0.6875,0.46875 z"
       fill-rule="nonzero"
       id="path43" />
    <path
       fill="#ffe599"
       d="m 589.9895,184.68373 h 40 v 28 h -40 z"
       fill-rule="evenodd"
       id="path45" />
    <path
       stroke="#595959"
       stroke-width="1"
       stroke-linejoin="round"
       stroke-linecap="butt"
       d="m 589.9895,184.68373 h 40 v 28 h -40 z"
       fill-rule="evenodd"
       id="path47" />
    <path
       fill="#000000"
       d="m 602.21545,196.38748 q 0.5625,-0.1875 1.21875,-0.29688 0.65625,-0.125 1.1875,-0.125 0.5625,0 1.01563,0.15625 0.46875,0.14063 0.8125,0.46875 0.42187,-0.26562 0.89062,-0.4375 0.48438,-0.1875 1.0625,-0.1875 0.57813,0 1.04688,0.17188 0.46875,0.17187 0.79687,0.57812 0.34375,0.39063 0.53125,1.07813 0.20313,0.67187 0.20313,1.67187 v 5.07813 h -1.375 v -4.95313 q 0,-1.25 -0.29688,-1.82812 -0.28125,-0.57813 -1.07812,-0.57813 -0.3125,0 -0.625,0.10938 -0.29688,0.10937 -0.57813,0.3125 0.125,0.35937 0.1875,0.82812 0.0625,0.46875 0.0625,1.03125 v 5.07813 h -1.375 v -4.95313 q 0,-1.25 -0.28125,-1.82812 -0.28125,-0.57813 -1.09375,-0.57813 -0.40625,0 -0.9375,0.15625 v 7.20313 h -1.375 z m 14.02741,2.1875 q 0.79687,0.28125 1.23437,1.01562 0.45313,0.73438 0.45313,1.875 0,1.54688 -0.75,2.4375 -0.75,0.875 -2.25,0.875 -0.59375,0 -1.15625,-0.17187 -0.54688,-0.17188 -0.96875,-0.46875 l 0.375,-1.10938 q 0.35937,0.21875 0.76562,0.39063 0.40625,0.15625 0.85938,0.15625 0.8125,0 1.26562,-0.5 0.46875,-0.51563 0.46875,-1.625 0,-1.09375 -0.51562,-1.65625 -0.5,-0.5625 -1.60938,-0.5625 h -0.40625 v -1.17188 h 0.34375 q 0.96875,0 1.42188,-0.5 0.46875,-0.51562 0.46875,-1.4375 0,-0.85937 -0.375,-1.28125 -0.35938,-0.42187 -0.96875,-0.42187 -0.40625,0 -0.79688,0.15625 -0.375,0.15625 -0.64062,0.40625 l -0.54688,-1.01563 q 0.42188,-0.375 0.98438,-0.5625 0.57812,-0.20312 1.125,-0.20312 1.25,0 1.92187,0.78125 0.67188,0.78125 0.67188,2.07812 0,0.92188 -0.35938,1.5625 -0.35937,0.625 -1.01562,0.95313 z"
       fill-rule="nonzero"
       id="path49" />
    <path
       fill="#ffe599"
       d="m 547.58795,184.68373 h 40 v 28 h -40 z"
       fill-rule="evenodd"
       id="path51" />
    <path
       stroke="#595959"
       stroke-width="1"
       stroke-linejoin="round"
       stroke-linecap="butt"
       d="m 547.58795,184.68373 h 40 v 28 h -40 z"
       fill-rule="evenodd"
       id="path53" />
    <path
       fill="#000000"
       d="m 559.8139,196.38748 q 0.5625,-0.1875 1.21875,-0.29688 0.65625,-0.125 1.1875,-0.125 0.5625,0 1.01562,0.15625 0.46875,0.14063 0.8125,0.46875 0.42188,-0.26562 0.89063,-0.4375 0.48437,-0.1875 1.0625,-0.1875 0.57812,0 1.04687,0.17188 0.46875,0.17187 0.79688,0.57812 0.34375,0.39063 0.53125,1.07813 0.20312,0.67187 0.20312,1.67187 v 5.07813 h -1.375 v -4.95313 q 0,-1.25 -0.29687,-1.82812 -0.28125,-0.57813 -1.07813,-0.57813 -0.3125,0 -0.625,0.10938 -0.29687,0.10937 -0.57812,0.3125 0.125,0.35937 0.1875,0.82812 0.0625,0.46875 0.0625,1.03125 v 5.07813 h -1.375 v -4.95313 q 0,-1.25 -0.28125,-1.82812 -0.28125,-0.57813 -1.09375,-0.57813 -0.40625,0 -0.9375,0.15625 v 7.20313 h -1.375 z m 10.58991,4.4375 q 0.28125,-0.98438 0.73437,-2.07813 0.45313,-1.10937 0.92188,-2.125 0.48437,-1.03125 0.92187,-1.85937 0.45313,-0.84375 0.71875,-1.3125 h 1.40625 v 7.25 h 1.09375 v 1.14062 h -1.09375 v 2.70313 h -1.26562 v -2.70313 h -3.4375 z m 3.4375,-0.125 v -5.40625 q -0.23438,0.5 -0.54688,1.14062 -0.3125,0.64063 -0.625,1.35938 -0.3125,0.71875 -0.60937,1.46875 -0.28125,0.73437 -0.48438,1.4375 z"
       fill-rule="nonzero"
       id="path55" />
    <path
       fill="#000000"
       fill-opacity="0"
       d="m 544.4068,150.40027 h 173.2284 v 38.77165 H 544.4068 Z"
       fill-rule="evenodd"
       id="path57" />
    <path
       fill="#f3f3f3"
       d="m 611.9542,168.38527 h 1 q 1.98438,0 1.98438,-1.78125 0,-0.5625 -0.17188,-0.92188 -0.17187,-0.35937 -0.45312,-0.5625 -0.26563,-0.20312 -0.625,-0.28125 -0.35938,-0.0781 -0.75,-0.0781 -0.25,0 -0.5,0.0156 -0.23438,0.0156 -0.48438,0.0469 z m 0,1.15625 v 4 q 0.3125,0.0469 0.60938,0.0781 0.29687,0.0312 0.57812,0.0312 0.45313,0 0.84375,-0.0937 0.40625,-0.0937 0.70313,-0.3125 0.29687,-0.23437 0.45312,-0.625 0.17188,-0.39062 0.17188,-0.96875 0,-0.98437 -0.53125,-1.54687 -0.53125,-0.5625 -1.67188,-0.5625 z m -1.4375,-5.70313 q 0.5625,-0.14062 1.14063,-0.20312 0.59375,-0.0781 1.15625,-0.0781 0.73437,0 1.375,0.14063 0.64062,0.14062 1.14062,0.46875 0.5,0.32812 0.79688,0.85937 0.29687,0.53125 0.29687,1.32813 0,1 -0.42187,1.64062 -0.40625,0.625 -1.0625,0.92188 0.8125,0.32812 1.32812,0.98437 0.53125,0.65625 0.53125,1.79688 0,0.875 -0.28125,1.46875 -0.26562,0.57812 -0.78125,0.96875 -0.51562,0.375 -1.23437,0.54687 -0.70313,0.15625 -1.54688,0.15625 -0.5625,0 -1.17187,-0.0625 -0.60938,-0.0625 -1.26563,-0.1875 z m 8.36725,2.70313 q 0.42187,-0.1875 0.875,-0.28125 0.46875,-0.10938 1.01562,-0.10938 1.125,0 1.82813,0.70313 0.70312,0.6875 0.70312,2.15625 v 5.57812 q -0.57812,0.15625 -1.1875,0.25 -0.59375,0.0937 -1.17187,0.0937 -0.57813,0 -1.07813,-0.14062 -0.5,-0.14063 -0.875,-0.45313 -0.375,-0.32812 -0.60937,-0.8125 -0.21875,-0.5 -0.21875,-1.20312 0,-0.65625 0.20312,-1.14063 0.20313,-0.48437 0.54688,-0.8125 0.35937,-0.32812 0.82812,-0.5 0.48438,-0.17187 1.04688,-0.17187 0.53125,0 1.17187,0.14062 v -0.78125 q 0,-0.92187 -0.35937,-1.28125 -0.35938,-0.375 -1.03125,-0.375 -0.375,0 -0.70313,0.0781 -0.32812,0.0625 -0.70312,0.21875 z m 0.65625,5.76562 q 0,0.73438 0.375,1.09375 0.39062,0.34375 1.09375,0.34375 0.4375,0 0.95312,-0.10937 v -2.67188 q -0.48437,-0.125 -0.95312,-0.125 -0.29688,0 -0.57813,0.0781 -0.26562,0.0625 -0.46875,0.23437 -0.20312,0.17188 -0.3125,0.45313 -0.10937,0.28125 -0.10937,0.70312 z m 7.44403,-5.95312 h 2.10938 v 1.1875 h -2.10938 v 4.625 q 0,0.85937 0.3125,1.20312 0.3125,0.34375 0.84375,0.34375 0.26563,0 0.51563,-0.0781 0.25,-0.0781 0.42187,-0.1875 l 0.26563,1.10937 q -0.65625,0.375 -1.39063,0.375 -1.1875,0 -1.76562,-0.65625 -0.57813,-0.67187 -0.57813,-2.20312 v -7.96875 l 1.375,-0.23438 z m 6.33722,8.60937 q -0.875,0 -1.45313,-0.32812 -0.5625,-0.34375 -0.92187,-0.92188 -0.35938,-0.57812 -0.51563,-1.375 -0.15625,-0.8125 -0.15625,-1.75 0,-2.07812 0.75,-3.25 0.76563,-1.1875 2.3125,-1.1875 0.45313,0 0.82813,0.10938 0.375,0.10937 0.6875,0.29687 l -0.35938,1.125 q -0.48437,-0.3125 -1.09375,-0.3125 -0.85937,0 -1.28125,0.78125 -0.40625,0.78125 -0.40625,2.4375 0,0.6875 0.0781,1.28125 0.0937,0.57813 0.28125,1 0.20312,0.40625 0.53125,0.64063 0.32812,0.23437 0.84375,0.23437 0.34375,0 0.625,-0.0781 0.28125,-0.0937 0.54687,-0.23438 l 0.29688,1.07813 q -0.25,0.17187 -0.6875,0.3125 -0.42188,0.14062 -0.90625,0.14062 z m 3.08551,-0.20312 v -12.17188 l 1.375,-0.25 v 4.0625 q 0.29687,-0.0937 0.65625,-0.15625 0.35937,-0.0625 0.73437,-0.0625 0.53125,0 0.98438,0.17188 0.46875,0.17187 0.8125,0.57812 0.34375,0.39063 0.54687,1.07813 0.20313,0.67187 0.20313,1.67187 v 5.07813 h -1.375 v -4.95313 q 0,-1.25 -0.32813,-1.82812 -0.3125,-0.57813 -1.20312,-0.57813 -0.45313,0 -1.03125,0.15625 v 7.20313 z m 10.70703,-8.875 q 0.29688,-0.1875 0.625,-0.4375 0.32813,-0.25 0.625,-0.54688 0.3125,-0.29687 0.57813,-0.60937 0.26562,-0.3125 0.4375,-0.625 h 1.0625 v 11.09375 h -1.375 v -8.90625 q -0.28125,0.28125 -0.64063,0.54687 -0.35937,0.25 -0.75,0.46875 z"
       fill-rule="nonzero"
       id="path59" />
    <path
       fill="#eeeeee"
       d="m 451.1942,181.17192 h 88.81891 v 35.02362 H 451.1942 Z"
       fill-rule="evenodd"
       id="path61" />
    <path
       stroke="#595959"
       stroke-width="1"
       stroke-linejoin="round"
       stroke-linecap="butt"
       d="m 451.1942,181.17192 h 88.81891 v 35.02362 H 451.1942 Z"
       fill-rule="evenodd"
       id="path63" />
    <path
       fill="#ffe599"
       d="m 497.1916,184.68373 h 40 v 28 h -40 z"
       fill-rule="evenodd"
       id="path65" />
    <path
       stroke="#595959"
       stroke-width="1"
       stroke-linejoin="round"
       stroke-linecap="butt"
       d="m 497.1916,184.68373 h 40 v 28 h -40 z"
       fill-rule="evenodd"
       id="path67" />
    <path
       fill="#000000"
       d="m 509.41757,196.38748 q 0.5625,-0.1875 1.21875,-0.29688 0.65625,-0.125 1.1875,-0.125 0.56253,0 1.01566,0.15625 0.46875,0.14063 0.8125,0.46875 0.42187,-0.26562 0.89062,-0.4375 0.48438,-0.1875 1.0625,-0.1875 0.57813,0 1.04688,0.17188 0.46875,0.17187 0.79687,0.57812 0.34375,0.39063 0.53125,1.07813 0.20313,0.67187 0.20313,1.67187 v 5.07813 h -1.375 v -4.95313 q 0,-1.25 -0.29688,-1.82812 -0.28125,-0.57813 -1.07812,-0.57813 -0.3125,0 -0.625,0.10938 -0.29688,0.10937 -0.57813,0.3125 0.125,0.35937 0.1875,0.82812 0.0625,0.46875 0.0625,1.03125 v 5.07813 h -1.375 v -4.95313 q 0,-1.25 -0.28125,-1.82812 -0.28125,-0.57813 -1.09378,-0.57813 -0.40625,0 -0.9375,0.15625 v 7.20313 h -1.375 z m 12.98056,-1.73438 q -0.0937,1.15625 -0.125,1.92188 -0.0312,0.76562 -0.0625,1.21875 1.51563,0.20312 2.21875,1.09375 0.70313,0.875 0.70313,2.375 0,0.84375 -0.25,1.5 -0.23438,0.65625 -0.65625,1.10937 -0.42188,0.45313 -1,0.67188 -0.57813,0.23437 -1.25,0.23437 -0.46875,0 -0.95313,-0.125 -0.46875,-0.125 -0.89062,-0.35937 l 0.39062,-1.14063 q 0.6875,0.375 1.40625,0.375 0.76563,0 1.29688,-0.54687 0.53125,-0.5625 0.53125,-1.71875 0,-1.26563 -0.71875,-1.8125 -0.71875,-0.54688 -2.17188,-0.625 0.0781,-0.79688 0.125,-1.45313 0.0625,-0.67187 0.0937,-1.29687 0.0312,-0.64063 0.0469,-1.26563 0.0312,-0.64062 0.0469,-1.35937 h 3.73438 v 1.20312 z"
       fill-rule="nonzero"
       id="path69" />
    <path
       fill="#ffe599"
       d="m 454.79004,184.68373 h 40 v 28 h -40 z"
       fill-rule="evenodd"
       id="path71" />
    <path
       stroke="#595959"
       stroke-width="1"
       stroke-linejoin="round"
       stroke-linecap="butt"
       d="m 454.79004,184.68373 h 40 v 28 h -40 z"
       fill-rule="evenodd"
       id="path73" />
    <path
       fill="#000000"
       d="m 467.016,196.38748 q 0.5625,-0.1875 1.21875,-0.29688 0.65625,-0.125 1.1875,-0.125 0.5625,0 1.01563,0.15625 0.46875,0.14063 0.8125,0.46875 0.42187,-0.26562 0.89062,-0.4375 0.48438,-0.1875 1.0625,-0.1875 0.57813,0 1.04688,0.17188 0.46875,0.17187 0.79687,0.57812 0.34375,0.39063 0.53125,1.07813 0.20313,0.67187 0.20313,1.67187 v 5.07813 h -1.375 v -4.95313 q 0,-1.25 -0.29688,-1.82812 -0.28125,-0.57813 -1.07812,-0.57813 -0.3125,0 -0.625,0.10938 -0.29688,0.10937 -0.57813,0.3125 0.125,0.35937 0.1875,0.82812 0.0625,0.46875 0.0625,1.03125 v 5.07813 h -1.375 v -4.95313 q 0,-1.25 -0.28125,-1.82812 -0.28125,-0.57813 -1.09375,-0.57813 -0.40625,0 -0.9375,0.15625 v 7.20313 h -1.375 z m 15.48053,-1.84375 q -0.60938,0.0781 -1.10938,0.26562 -0.5,0.1875 -0.90625,0.57813 -0.39062,0.39062 -0.65625,1.03125 -0.26562,0.64062 -0.39062,1.59375 0.32812,-0.14063 0.64062,-0.20313 0.3125,-0.0625 0.59375,-0.0625 1.14063,0 1.76563,0.90625 0.64062,0.90625 0.64062,2.48438 0,1.6875 -0.60937,2.67187 -0.59375,0.96875 -1.89063,0.96875 -0.65625,0 -1.15625,-0.25 -0.48437,-0.25 -0.8125,-0.82812 -0.32812,-0.59375 -0.5,-1.54688 -0.15625,-0.95312 -0.15625,-2.32812 0,-1.20313 0.21875,-2.32813 0.23438,-1.14062 0.75,-2.03125 0.53125,-0.89062 1.35938,-1.45312 0.84375,-0.5625 2.07812,-0.60938 z m -2.17188,4.3125 q -0.25,0 -0.51562,0.0937 -0.25,0.0937 -0.46875,0.21875 -0.0156,0.1875 -0.0156,0.39062 0,0.20313 0,0.40625 0,0.73438 0.0312,1.40625 0.0469,0.65625 0.17188,1.17188 0.125,0.5 0.375,0.79687 0.25,0.29688 0.65625,0.29688 0.625,0 0.875,-0.65625 0.25,-0.67188 0.25,-1.78125 0,-1.20313 -0.32813,-1.76563 -0.32812,-0.57812 -1.03125,-0.57812 z"
       fill-rule="nonzero"
       id="path75" />
    <path
       fill="#000000"
       fill-opacity="0"
       d="m 457.8084,150.57874 h 75.59051 v 38.77165 H 457.8084 Z"
       fill-rule="evenodd"
       id="path77" />
    <path
       fill="#f3f3f3"
       d="m 476.53687,168.56374 h 1 q 1.98438,0 1.98438,-1.78125 0,-0.5625 -0.17188,-0.92188 -0.17187,-0.35937 -0.45312,-0.5625 -0.26563,-0.20312 -0.625,-0.28125 -0.35938,-0.0781 -0.75,-0.0781 -0.25,0 -0.5,0.0156 -0.23438,0.0156 -0.48438,0.0469 z m 0,1.15625 v 4 q 0.3125,0.0469 0.60938,0.0781 0.29687,0.0312 0.57812,0.0312 0.45313,0 0.84375,-0.0937 0.40625,-0.0937 0.70313,-0.3125 0.29687,-0.23437 0.45312,-0.625 0.17188,-0.39062 0.17188,-0.96875 0,-0.98437 -0.53125,-1.54687 -0.53125,-0.5625 -1.67188,-0.5625 z m -1.4375,-5.70313 q 0.5625,-0.14062 1.14063,-0.20312 0.59375,-0.0781 1.15625,-0.0781 0.73437,0 1.375,0.14063 0.64062,0.14062 1.14062,0.46875 0.5,0.32812 0.79688,0.85937 0.29687,0.53125 0.29687,1.32813 0,1 -0.42187,1.64062 -0.40625,0.625 -1.0625,0.92188 0.8125,0.32812 1.32812,0.98437 0.53125,0.65625 0.53125,1.79688 0,0.875 -0.28125,1.46875 -0.26562,0.57812 -0.78125,0.96875 -0.51562,0.375 -1.23437,0.54687 -0.70313,0.15625 -1.54688,0.15625 -0.5625,0 -1.17187,-0.0625 -0.60938,-0.0625 -1.26563,-0.1875 z m 8.36728,2.70313 q 0.42187,-0.1875 0.875,-0.28125 0.46875,-0.10938 1.01562,-0.10938 1.125,0 1.82813,0.70313 0.70312,0.6875 0.70312,2.15625 v 5.57812 q -0.57812,0.15625 -1.1875,0.25 -0.59375,0.0937 -1.17187,0.0937 -0.57813,0 -1.07813,-0.14062 -0.5,-0.14063 -0.875,-0.45313 -0.375,-0.32812 -0.60937,-0.8125 -0.21875,-0.5 -0.21875,-1.20312 0,-0.65625 0.20312,-1.14063 0.20313,-0.48437 0.54688,-0.8125 0.35937,-0.32812 0.82812,-0.5 0.48438,-0.17187 1.04688,-0.17187 0.53125,0 1.17187,0.14062 v -0.78125 q 0,-0.92187 -0.35937,-1.28125 -0.35938,-0.375 -1.03125,-0.375 -0.375,0 -0.70313,0.0781 -0.32812,0.0625 -0.70312,0.21875 z m 0.65625,5.76562 q 0,0.73438 0.375,1.09375 0.39062,0.34375 1.09375,0.34375 0.4375,0 0.95312,-0.10937 v -2.67188 q -0.48437,-0.125 -0.95312,-0.125 -0.29688,0 -0.57813,0.0781 -0.26562,0.0625 -0.46875,0.23437 -0.20312,0.17188 -0.3125,0.45313 -0.10937,0.28125 -0.10937,0.70312 z m 7.444,-5.95312 h 2.10937 v 1.1875 h -2.10937 v 4.625 q 0,0.85937 0.3125,1.20312 0.3125,0.34375 0.84375,0.34375 0.26562,0 0.51562,-0.0781 0.25,-0.0781 0.42188,-0.1875 l 0.26562,1.10937 q -0.65625,0.375 -1.39062,0.375 -1.1875,0 -1.76563,-0.65625 -0.57812,-0.67187 -0.57812,-2.20312 v -7.96875 l 1.375,-0.23438 z m 6.33728,8.60937 q -0.875,0 -1.45313,-0.32812 -0.5625,-0.34375 -0.92187,-0.92188 -0.35938,-0.57812 -0.51563,-1.375 -0.15625,-0.8125 -0.15625,-1.75 0,-2.07812 0.75,-3.25 0.76563,-1.1875 2.3125,-1.1875 0.45313,0 0.82813,0.10938 0.375,0.10937 0.6875,0.29687 l -0.35938,1.125 q -0.48437,-0.3125 -1.09375,-0.3125 -0.85937,0 -1.28125,0.78125 -0.40625,0.78125 -0.40625,2.4375 0,0.6875 0.0781,1.28125 0.0937,0.57813 0.28125,1 0.20312,0.40625 0.53125,0.64063 0.32812,0.23437 0.84375,0.23437 0.34375,0 0.625,-0.0781 0.28125,-0.0937 0.54687,-0.23438 l 0.29688,1.07813 q -0.25,0.17187 -0.6875,0.3125 -0.42188,0.14062 -0.90625,0.14062 z m 3.08551,-0.20312 v -12.17188 l 1.375,-0.25 v 4.0625 q 0.29687,-0.0937 0.65625,-0.15625 0.35937,-0.0625 0.73437,-0.0625 0.53125,0 0.98438,0.17188 0.46875,0.17187 0.8125,0.57812 0.34375,0.39063 0.54687,1.07813 0.20313,0.67187 0.20313,1.67187 v 5.07813 h -1.375 v -4.95313 q 0,-1.25 -0.32813,-1.82812 -0.3125,-0.57813 -1.20312,-0.57813 -0.45313,0 -1.03125,0.15625 v 7.20313 z m 10.28516,-10.40625 q 0.9375,-0.9375 2.3125,-0.9375 1.28125,0 1.96875,0.6875 0.70312,0.67187 0.70312,2.10937 0,0.67188 -0.23437,1.28125 -0.21875,0.60938 -0.5625,1.1875 -0.32813,0.5625 -0.73438,1.125 -0.39062,0.54688 -0.76562,1.14063 -0.35938,0.57812 -0.64063,1.21875 -0.26562,0.625 -0.32812,1.34375 h 3.48437 v 1.25 h -4.96875 v -0.29688 q 0,-1.07812 0.25,-1.90625 0.25,-0.84375 0.60938,-1.51562 0.35937,-0.67188 0.79687,-1.23438 0.4375,-0.57812 0.79688,-1.125 0.35937,-0.5625 0.59375,-1.14062 0.25,-0.59375 0.25,-1.29688 0,-0.84375 -0.34375,-1.21875 -0.32813,-0.375 -1,-0.375 -0.45313,0 -0.82813,0.1875 -0.375,0.17188 -0.6875,0.46875 z"
       fill-rule="nonzero"
       id="path79" />
    <path
       fill="#eeeeee"
       d="m 544.3937,265.47375 h 173.2284 v 35.02362 H 544.3937 Z"
       fill-rule="evenodd"
       id="path81" />
    <path
       stroke="#595959"
       stroke-width="1"
       stroke-linejoin="round"
       stroke-linecap="butt"
       d="m 544.3937,265.47375 h 173.2284 v 35.02362 H 544.3937 Z"
       fill-rule="evenodd"
       id="path83" />
    <path
       fill="#ffe599"
       d="m 674.79266,268.98557 h 40 v 28 h -40 z"
       fill-rule="evenodd"
       id="path85" />
    <path
       stroke="#595959"
       stroke-width="1"
       stroke-linejoin="round"
       stroke-linecap="butt"
       d="m 674.79266,268.98557 h 40 v 28 h -40 z"
       fill-rule="evenodd"
       id="path87" />
    <path
       fill="#000000"
       d="m 687.0186,280.6893 q 0.5625,-0.1875 1.21875,-0.29688 0.65625,-0.125 1.1875,-0.125 0.5625,0 1.01562,0.15625 0.46875,0.14063 0.8125,0.46875 0.42188,-0.26562 0.89063,-0.4375 0.48437,-0.1875 1.0625,-0.1875 0.57812,0 1.04687,0.17188 0.46875,0.17187 0.79688,0.57812 0.34375,0.39063 0.53125,1.07813 0.20312,0.67187 0.20312,1.67187 v 5.07813 h -1.375 v -4.95313 q 0,-1.25 -0.29687,-1.82812 -0.28125,-0.57813 -1.07813,-0.57813 -0.3125,0 -0.625,0.10938 -0.29687,0.10937 -0.57812,0.3125 0.125,0.35937 0.1875,0.82812 0.0625,0.46875 0.0625,1.03125 v 5.07813 h -1.375 v -4.95313 q 0,-1.25 -0.28125,-1.82812 -0.28125,-0.57813 -1.09375,-0.57813 -0.40625,0 -0.9375,0.15625 v 7.20313 h -1.375 z m 11.04303,-0.71875 q 0.29688,-0.1875 0.625,-0.4375 0.32813,-0.25 0.625,-0.54688 0.3125,-0.29687 0.57813,-0.60937 0.26562,-0.3125 0.4375,-0.625 h 1.0625 v 11.09375 h -1.375 v -8.90625 q -0.28125,0.28125 -0.64063,0.54687 -0.35937,0.25 -0.75,0.46875 z"
       fill-rule="nonzero"
       id="path89" />
    <path
       fill="#ffe599"
       d="m 632.39105,268.98557 h 40 v 28 h -40 z"
       fill-rule="evenodd"
       id="path91" />
    <path
       stroke="#595959"
       stroke-width="1"
       stroke-linejoin="round"
       stroke-linecap="butt"
       d="m 632.39105,268.98557 h 40 v 28 h -40 z"
       fill-rule="evenodd"
       id="path93" />
    <path
       fill="#000000"
       d="m 644.61707,280.6893 q 0.5625,-0.1875 1.21875,-0.29688 0.65625,-0.125 1.1875,-0.125 0.5625,0 1.01562,0.15625 0.46875,0.14063 0.8125,0.46875 0.42188,-0.26562 0.89063,-0.4375 0.48437,-0.1875 1.0625,-0.1875 0.57812,0 1.04687,0.17188 0.46875,0.17187 0.79688,0.57812 0.34375,0.39063 0.53125,1.07813 0.20312,0.67187 0.20312,1.67187 v 5.07813 h -1.375 v -4.95313 q 0,-1.25 -0.29687,-1.82812 -0.28125,-0.57813 -1.07813,-0.57813 -0.3125,0 -0.625,0.10938 -0.29687,0.10937 -0.57812,0.3125 0.125,0.35937 0.1875,0.82812 0.0625,0.46875 0.0625,1.03125 v 5.07813 h -1.375 v -4.95313 q 0,-1.25 -0.28125,-1.82812 -0.28125,-0.57813 -1.09375,-0.57813 -0.40625,0 -0.9375,0.15625 v 7.20313 h -1.375 z m 10.62116,-2.25 q 0.9375,-0.9375 2.3125,-0.9375 1.28125,0 1.96875,0.6875 0.70312,0.67187 0.70312,2.10937 0,0.67188 -0.23437,1.28125 -0.21875,0.60938 -0.5625,1.1875 -0.32813,0.5625 -0.73438,1.125 -0.39062,0.54688 -0.76562,1.14063 -0.35938,0.57812 -0.64063,1.21875 -0.26562,0.625 -0.32812,1.34375 h 3.48437 v 1.25 h -4.96875 v -0.29688 q 0,-1.07812 0.25,-1.90625 0.25,-0.84375 0.60938,-1.51562 0.35937,-0.67188 0.79687,-1.23438 0.4375,-0.57812 0.79688,-1.125 0.35937,-0.5625 0.59375,-1.14062 0.25,-0.59375 0.25,-1.29688 0,-0.84375 -0.34375,-1.21875 -0.32813,-0.375 -1,-0.375 -0.45313,0 -0.82813,0.1875 -0.375,0.17188 -0.6875,0.46875 z"
       fill-rule="nonzero"
       id="path95" />
    <path
       fill="#ffe599"
       d="m 589.9895,268.98557 h 40 v 28 h -40 z"
       fill-rule="evenodd"
       id="path97" />
    <path
       stroke="#595959"
       stroke-width="1"
       stroke-linejoin="round"
       stroke-linecap="butt"
       d="m 589.9895,268.98557 h 40 v 28 h -40 z"
       fill-rule="evenodd"
       id="path99" />
    <path
       fill="#000000"
       d="m 602.21545,280.6893 q 0.5625,-0.1875 1.21875,-0.29688 0.65625,-0.125 1.1875,-0.125 0.5625,0 1.01563,0.15625 0.46875,0.14063 0.8125,0.46875 0.42187,-0.26562 0.89062,-0.4375 0.48438,-0.1875 1.0625,-0.1875 0.57813,0 1.04688,0.17188 0.46875,0.17187 0.79687,0.57812 0.34375,0.39063 0.53125,1.07813 0.20313,0.67187 0.20313,1.67187 v 5.07813 h -1.375 v -4.95313 q 0,-1.25 -0.29688,-1.82812 -0.28125,-0.57813 -1.07812,-0.57813 -0.3125,0 -0.625,0.10938 -0.29688,0.10937 -0.57813,0.3125 0.125,0.35937 0.1875,0.82812 0.0625,0.46875 0.0625,1.03125 v 5.07813 h -1.375 v -4.95313 q 0,-1.25 -0.28125,-1.82812 -0.28125,-0.57813 -1.09375,-0.57813 -0.40625,0 -0.9375,0.15625 v 7.20313 h -1.375 z m 14.02741,2.1875 q 0.79687,0.28125 1.23437,1.01562 0.45313,0.73438 0.45313,1.875 0,1.54688 -0.75,2.4375 -0.75,0.875 -2.25,0.875 -0.59375,0 -1.15625,-0.17187 -0.54688,-0.17188 -0.96875,-0.46875 l 0.375,-1.10938 q 0.35937,0.21875 0.76562,0.39063 0.40625,0.15625 0.85938,0.15625 0.8125,0 1.26562,-0.5 0.46875,-0.51563 0.46875,-1.625 0,-1.09375 -0.51562,-1.65625 -0.5,-0.5625 -1.60938,-0.5625 h -0.40625 v -1.17188 h 0.34375 q 0.96875,0 1.42188,-0.5 0.46875,-0.51562 0.46875,-1.4375 0,-0.85937 -0.375,-1.28125 -0.35938,-0.42187 -0.96875,-0.42187 -0.40625,0 -0.79688,0.15625 -0.375,0.15625 -0.64062,0.40625 l -0.54688,-1.01563 q 0.42188,-0.375 0.98438,-0.5625 0.57812,-0.20312 1.125,-0.20312 1.25,0 1.92187,0.78125 0.67188,0.78125 0.67188,2.07812 0,0.92188 -0.35938,1.5625 -0.35937,0.625 -1.01562,0.95313 z"
       fill-rule="nonzero"
       id="path101" />
    <path
       fill="#ffe599"
       d="m 547.58795,268.98557 h 40 v 28 h -40 z"
       fill-rule="evenodd"
       id="path103" />
    <path
       stroke="#595959"
       stroke-width="1"
       stroke-linejoin="round"
       stroke-linecap="butt"
       d="m 547.58795,268.98557 h 40 v 28 h -40 z"
       fill-rule="evenodd"
       id="path105" />
    <path
       fill="#000000"
       d="m 559.8139,280.6893 q 0.5625,-0.1875 1.21875,-0.29688 0.65625,-0.125 1.1875,-0.125 0.5625,0 1.01562,0.15625 0.46875,0.14063 0.8125,0.46875 0.42188,-0.26562 0.89063,-0.4375 0.48437,-0.1875 1.0625,-0.1875 0.57812,0 1.04687,0.17188 0.46875,0.17187 0.79688,0.57812 0.34375,0.39063 0.53125,1.07813 0.20312,0.67187 0.20312,1.67187 v 5.07813 h -1.375 v -4.95313 q 0,-1.25 -0.29687,-1.82812 -0.28125,-0.57813 -1.07813,-0.57813 -0.3125,0 -0.625,0.10938 -0.29687,0.10937 -0.57812,0.3125 0.125,0.35937 0.1875,0.82812 0.0625,0.46875 0.0625,1.03125 v 5.07813 h -1.375 v -4.95313 q 0,-1.25 -0.28125,-1.82812 -0.28125,-0.57813 -1.09375,-0.57813 -0.40625,0 -0.9375,0.15625 v 7.20313 h -1.375 z m 10.58991,4.4375 q 0.28125,-0.98438 0.73437,-2.07813 0.45313,-1.10937 0.92188,-2.125 0.48437,-1.03125 0.92187,-1.85937 0.45313,-0.84375 0.71875,-1.3125 h 1.40625 v 7.25 h 1.09375 v 1.14062 h -1.09375 v 2.70313 h -1.26562 v -2.70313 h -3.4375 z m 3.4375,-0.125 v -5.40625 q -0.23438,0.5 -0.54688,1.14062 -0.3125,0.64063 -0.625,1.35938 -0.3125,0.71875 -0.60937,1.46875 -0.28125,0.73437 -0.48438,1.4375 z"
       fill-rule="nonzero"
       id="path107" />
    <path
       fill="#000000"
       fill-opacity="0"
       d="m 544.4068,234.7021 h 173.2284 v 38.77165 H 544.4068 Z"
       fill-rule="evenodd"
       id="path109" />
    <path
       fill="#f3f3f3"
       d="m 611.9542,252.6871 h 1 q 1.98438,0 1.98438,-1.78125 0,-0.5625 -0.17188,-0.92188 -0.17187,-0.35937 -0.45312,-0.5625 -0.26563,-0.20312 -0.625,-0.28125 -0.35938,-0.0781 -0.75,-0.0781 -0.25,0 -0.5,0.0156 -0.23438,0.0156 -0.48438,0.0469 z m 0,1.15625 v 4 q 0.3125,0.0469 0.60938,0.0781 0.29687,0.0312 0.57812,0.0312 0.45313,0 0.84375,-0.0937 0.40625,-0.0937 0.70313,-0.3125 0.29687,-0.23437 0.45312,-0.625 0.17188,-0.39062 0.17188,-0.96875 0,-0.98437 -0.53125,-1.54687 -0.53125,-0.5625 -1.67188,-0.5625 z m -1.4375,-5.70313 q 0.5625,-0.14062 1.14063,-0.20312 0.59375,-0.0781 1.15625,-0.0781 0.73437,0 1.375,0.14063 0.64062,0.14062 1.14062,0.46875 0.5,0.32812 0.79688,0.85937 0.29687,0.53125 0.29687,1.32813 0,1 -0.42187,1.64062 -0.40625,0.625 -1.0625,0.92188 0.8125,0.32812 1.32812,0.98437 0.53125,0.65625 0.53125,1.79688 0,0.875 -0.28125,1.46875 -0.26562,0.57812 -0.78125,0.96875 -0.51562,0.375 -1.23437,0.54687 -0.70313,0.15625 -1.54688,0.15625 -0.5625,0 -1.17187,-0.0625 -0.60938,-0.0625 -1.26563,-0.1875 z m 8.36725,2.70313 q 0.42187,-0.1875 0.875,-0.28125 0.46875,-0.10938 1.01562,-0.10938 1.125,0 1.82813,0.70313 0.70312,0.6875 0.70312,2.15625 v 5.57812 q -0.57812,0.15625 -1.1875,0.25 -0.59375,0.0937 -1.17187,0.0937 -0.57813,0 -1.07813,-0.14062 -0.5,-0.14063 -0.875,-0.45313 -0.375,-0.32812 -0.60937,-0.8125 -0.21875,-0.5 -0.21875,-1.20312 0,-0.65625 0.20312,-1.14063 0.20313,-0.48437 0.54688,-0.8125 0.35937,-0.32812 0.82812,-0.5 0.48438,-0.17187 1.04688,-0.17187 0.53125,0 1.17187,0.14062 v -0.78125 q 0,-0.92187 -0.35937,-1.28125 -0.35938,-0.375 -1.03125,-0.375 -0.375,0 -0.70313,0.0781 -0.32812,0.0625 -0.70312,0.21875 z m 0.65625,5.76562 q 0,0.73438 0.375,1.09375 0.39062,0.34375 1.09375,0.34375 0.4375,0 0.95312,-0.10937 v -2.67188 q -0.48437,-0.125 -0.95312,-0.125 -0.29688,0 -0.57813,0.0781 -0.26562,0.0625 -0.46875,0.23437 -0.20312,0.17188 -0.3125,0.45313 -0.10937,0.28125 -0.10937,0.70312 z m 7.44403,-5.95312 h 2.10938 v 1.1875 h -2.10938 v 4.625 q 0,0.85937 0.3125,1.20312 0.3125,0.34375 0.84375,0.34375 0.26563,0 0.51563,-0.0781 0.25,-0.0781 0.42187,-0.1875 l 0.26563,1.10937 q -0.65625,0.375 -1.39063,0.375 -1.1875,0 -1.76562,-0.65625 -0.57813,-0.67187 -0.57813,-2.20312 v -7.96875 l 1.375,-0.23438 z m 6.33722,8.60937 q -0.875,0 -1.45313,-0.32812 -0.5625,-0.34375 -0.92187,-0.92188 -0.35938,-0.57812 -0.51563,-1.375 -0.15625,-0.8125 -0.15625,-1.75 0,-2.07812 0.75,-3.25 0.76563,-1.1875 2.3125,-1.1875 0.45313,0 0.82813,0.10938 0.375,0.10937 0.6875,0.29687 l -0.35938,1.125 q -0.48437,-0.3125 -1.09375,-0.3125 -0.85937,0 -1.28125,0.78125 -0.40625,0.78125 -0.40625,2.4375 0,0.6875 0.0781,1.28125 0.0937,0.57813 0.28125,1 0.20312,0.40625 0.53125,0.64063 0.32812,0.23437 0.84375,0.23437 0.34375,0 0.625,-0.0781 0.28125,-0.0937 0.54687,-0.23438 l 0.29688,1.07813 q -0.25,0.17187 -0.6875,0.3125 -0.42188,0.14062 -0.90625,0.14062 z m 3.08551,-0.20312 v -12.17188 l 1.375,-0.25 v 4.0625 q 0.29687,-0.0937 0.65625,-0.15625 0.35937,-0.0625 0.73437,-0.0625 0.53125,0 0.98438,0.17188 0.46875,0.17187 0.8125,0.57812 0.34375,0.39063 0.54687,1.07813 0.20313,0.67187 0.20313,1.67187 v 5.07813 h -1.375 v -4.95313 q 0,-1.25 -0.32813,-1.82812 -0.3125,-0.57813 -1.20312,-0.57813 -0.45313,0 -1.03125,0.15625 v 7.20313 z m 10.70703,-8.875 q 0.29688,-0.1875 0.625,-0.4375 0.32813,-0.25 0.625,-0.54688 0.3125,-0.29687 0.57813,-0.60937 0.26562,-0.3125 0.4375,-0.625 h 1.0625 v 11.09375 h -1.375 v -8.90625 q -0.28125,0.28125 -0.64063,0.54687 -0.35937,0.25 -0.75,0.46875 z"
       fill-rule="nonzero"
       id="path111" />
    <path
       fill="#eeeeee"
       d="m 544.3937,349.7756 h 173.2284 v 35.02362 H 544.3937 Z"
       fill-rule="evenodd"
       id="path113" />
    <path
       stroke="#595959"
       stroke-width="1"
       stroke-linejoin="round"
       stroke-linecap="butt"
       d="m 544.3937,349.7756 h 173.2284 v 35.02362 H 544.3937 Z"
       fill-rule="evenodd"
       id="path115" />
    <path
       fill="#ffe599"
       d="m 674.79266,353.2874 h 40 v 28 h -40 z"
       fill-rule="evenodd"
       id="path117" />
    <path
       stroke="#595959"
       stroke-width="1"
       stroke-linejoin="round"
       stroke-linecap="butt"
       d="m 674.79266,353.2874 h 40 v 28 h -40 z"
       fill-rule="evenodd"
       id="path119" />
    <path
       fill="#000000"
       d="m 687.0186,364.99115 q 0.5625,-0.1875 1.21875,-0.29688 0.65625,-0.125 1.1875,-0.125 0.5625,0 1.01562,0.15625 0.46875,0.14063 0.8125,0.46875 0.42188,-0.26562 0.89063,-0.4375 0.48437,-0.1875 1.0625,-0.1875 0.57812,0 1.04687,0.17188 0.46875,0.17187 0.79688,0.57812 0.34375,0.39063 0.53125,1.07813 0.20312,0.67187 0.20312,1.67187 v 5.07813 h -1.375 v -4.95313 q 0,-1.25 -0.29687,-1.82812 -0.28125,-0.57813 -1.07813,-0.57813 -0.3125,0 -0.625,0.10938 -0.29687,0.10937 -0.57812,0.3125 0.125,0.35937 0.1875,0.82812 0.0625,0.46875 0.0625,1.03125 v 5.07813 h -1.375 v -4.95313 q 0,-1.25 -0.28125,-1.82812 -0.28125,-0.57813 -1.09375,-0.57813 -0.40625,0 -0.9375,0.15625 v 7.20313 h -1.375 z m 11.04303,-0.71875 q 0.29688,-0.1875 0.625,-0.4375 0.32813,-0.25 0.625,-0.54688 0.3125,-0.29687 0.57813,-0.60937 0.26562,-0.3125 0.4375,-0.625 h 1.0625 v 11.09375 h -1.375 v -8.90625 q -0.28125,0.28125 -0.64063,0.54687 -0.35937,0.25 -0.75,0.46875 z"
       fill-rule="nonzero"
       id="path121" />
    <path
       fill="#ffe599"
       d="m 632.39105,353.2874 h 40 v 28 h -40 z"
       fill-rule="evenodd"
       id="path123" />
    <path
       stroke="#595959"
       stroke-width="1"
       stroke-linejoin="round"
       stroke-linecap="butt"
       d="m 632.39105,353.2874 h 40 v 28 h -40 z"
       fill-rule="evenodd"
       id="path125" />
    <path
       fill="#000000"
       d="m 644.61707,364.99115 q 0.5625,-0.1875 1.21875,-0.29688 0.65625,-0.125 1.1875,-0.125 0.5625,0 1.01562,0.15625 0.46875,0.14063 0.8125,0.46875 0.42188,-0.26562 0.89063,-0.4375 0.48437,-0.1875 1.0625,-0.1875 0.57812,0 1.04687,0.17188 0.46875,0.17187 0.79688,0.57812 0.34375,0.39063 0.53125,1.07813 0.20312,0.67187 0.20312,1.67187 v 5.07813 h -1.375 v -4.95313 q 0,-1.25 -0.29687,-1.82812 -0.28125,-0.57813 -1.07813,-0.57813 -0.3125,0 -0.625,0.10938 -0.29687,0.10937 -0.57812,0.3125 0.125,0.35937 0.1875,0.82812 0.0625,0.46875 0.0625,1.03125 v 5.07813 h -1.375 v -4.95313 q 0,-1.25 -0.28125,-1.82812 -0.28125,-0.57813 -1.09375,-0.57813 -0.40625,0 -0.9375,0.15625 v 7.20313 h -1.375 z m 10.62116,-2.25 q 0.9375,-0.9375 2.3125,-0.9375 1.28125,0 1.96875,0.6875 0.70312,0.67187 0.70312,2.10937 0,0.67188 -0.23437,1.28125 -0.21875,0.60938 -0.5625,1.1875 -0.32813,0.5625 -0.73438,1.125 -0.39062,0.54688 -0.76562,1.14063 -0.35938,0.57812 -0.64063,1.21875 -0.26562,0.625 -0.32812,1.34375 h 3.48437 v 1.25 h -4.96875 v -0.29688 q 0,-1.07812 0.25,-1.90625 0.25,-0.84375 0.60938,-1.51562 0.35937,-0.67188 0.79687,-1.23438 0.4375,-0.57812 0.79688,-1.125 0.35937,-0.5625 0.59375,-1.14062 0.25,-0.59375 0.25,-1.29688 0,-0.84375 -0.34375,-1.21875 -0.32813,-0.375 -1,-0.375 -0.45313,0 -0.82813,0.1875 -0.375,0.17188 -0.6875,0.46875 z"
       fill-rule="nonzero"
       id="path127" />
    <path
       fill="#ffe599"
       d="m 589.9895,353.2874 h 40 v 28 h -40 z"
       fill-rule="evenodd"
       id="path129" />
    <path
       stroke="#595959"
       stroke-width="1"
       stroke-linejoin="round"
       stroke-linecap="butt"
       d="m 589.9895,353.2874 h 40 v 28 h -40 z"
       fill-rule="evenodd"
       id="path131" />
    <path
       fill="#000000"
       d="m 602.21545,364.99115 q 0.5625,-0.1875 1.21875,-0.29688 0.65625,-0.125 1.1875,-0.125 0.5625,0 1.01563,0.15625 0.46875,0.14063 0.8125,0.46875 0.42187,-0.26562 0.89062,-0.4375 0.48438,-0.1875 1.0625,-0.1875 0.57813,0 1.04688,0.17188 0.46875,0.17187 0.79687,0.57812 0.34375,0.39063 0.53125,1.07813 0.20313,0.67187 0.20313,1.67187 v 5.07813 h -1.375 v -4.95313 q 0,-1.25 -0.29688,-1.82812 -0.28125,-0.57813 -1.07812,-0.57813 -0.3125,0 -0.625,0.10938 -0.29688,0.10937 -0.57813,0.3125 0.125,0.35937 0.1875,0.82812 0.0625,0.46875 0.0625,1.03125 v 5.07813 h -1.375 v -4.95313 q 0,-1.25 -0.28125,-1.82812 -0.28125,-0.57813 -1.09375,-0.57813 -0.40625,0 -0.9375,0.15625 v 7.20313 h -1.375 z m 14.02741,2.1875 q 0.79687,0.28125 1.23437,1.01562 0.45313,0.73438 0.45313,1.875 0,1.54688 -0.75,2.4375 -0.75,0.875 -2.25,0.875 -0.59375,0 -1.15625,-0.17187 -0.54688,-0.17188 -0.96875,-0.46875 l 0.375,-1.10938 q 0.35937,0.21875 0.76562,0.39063 0.40625,0.15625 0.85938,0.15625 0.8125,0 1.26562,-0.5 0.46875,-0.51563 0.46875,-1.625 0,-1.09375 -0.51562,-1.65625 -0.5,-0.5625 -1.60938,-0.5625 h -0.40625 v -1.17188 h 0.34375 q 0.96875,0 1.42188,-0.5 0.46875,-0.51562 0.46875,-1.4375 0,-0.85937 -0.375,-1.28125 -0.35938,-0.42187 -0.96875,-0.42187 -0.40625,0 -0.79688,0.15625 -0.375,0.15625 -0.64062,0.40625 l -0.54688,-1.01563 q 0.42188,-0.375 0.98438,-0.5625 0.57812,-0.20312 1.125,-0.20312 1.25,0 1.92187,0.78125 0.67188,0.78125 0.67188,2.07812 0,0.92188 -0.35938,1.5625 -0.35937,0.625 -1.01562,0.95313 z"
       fill-rule="nonzero"
       id="path133" />
    <path
       fill="#ffe599"
       d="m 547.58795,353.2874 h 40 v 28 h -40 z"
       fill-rule="evenodd"
       id="path135" />
    <path
       stroke="#595959"
       stroke-width="1"
       stroke-linejoin="round"
       stroke-linecap="butt"
       d="m 547.58795,353.2874 h 40 v 28 h -40 z"
       fill-rule="evenodd"
       id="path137" />
    <path
       fill="#000000"
       d="m 559.8139,364.99115 q 0.5625,-0.1875 1.21875,-0.29688 0.65625,-0.125 1.1875,-0.125 0.5625,0 1.01562,0.15625 0.46875,0.14063 0.8125,0.46875 0.42188,-0.26562 0.89063,-0.4375 0.48437,-0.1875 1.0625,-0.1875 0.57812,0 1.04687,0.17188 0.46875,0.17187 0.79688,0.57812 0.34375,0.39063 0.53125,1.07813 0.20312,0.67187 0.20312,1.67187 v 5.07813 h -1.375 v -4.95313 q 0,-1.25 -0.29687,-1.82812 -0.28125,-0.57813 -1.07813,-0.57813 -0.3125,0 -0.625,0.10938 -0.29687,0.10937 -0.57812,0.3125 0.125,0.35937 0.1875,0.82812 0.0625,0.46875 0.0625,1.03125 v 5.07813 h -1.375 v -4.95313 q 0,-1.25 -0.28125,-1.82812 -0.28125,-0.57813 -1.09375,-0.57813 -0.40625,0 -0.9375,0.15625 v 7.20313 h -1.375 z m 10.58991,4.4375 q 0.28125,-0.98438 0.73437,-2.07813 0.45313,-1.10937 0.92188,-2.125 0.48437,-1.03125 0.92187,-1.85937 0.45313,-0.84375 0.71875,-1.3125 h 1.40625 v 7.25 h 1.09375 v 1.14062 h -1.09375 v 2.70313 h -1.26562 v -2.70313 h -3.4375 z m 3.4375,-0.125 v -5.40625 q -0.23438,0.5 -0.54688,1.14062 -0.3125,0.64063 -0.625,1.35938 -0.3125,0.71875 -0.60937,1.46875 -0.28125,0.73437 -0.48438,1.4375 z"
       fill-rule="nonzero"
       id="path139" />
    <path
       fill="#000000"
       fill-opacity="0"
       d="m 544.4068,319.00394 h 173.2284 v 38.77167 H 544.4068 Z"
       fill-rule="evenodd"
       id="path141" />
    <path
       fill="#f3f3f3"
       d="m 611.9542,336.98895 h 1 q 1.98438,0 1.98438,-1.78125 0,-0.5625 -0.17188,-0.92188 -0.17187,-0.35937 -0.45312,-0.5625 -0.26563,-0.20312 -0.625,-0.28125 -0.35938,-0.0781 -0.75,-0.0781 -0.25,0 -0.5,0.0156 -0.23438,0.0156 -0.48438,0.0469 z m 0,1.15625 v 4 q 0.3125,0.0469 0.60938,0.0781 0.29687,0.0312 0.57812,0.0312 0.45313,0 0.84375,-0.0937 0.40625,-0.0937 0.70313,-0.3125 0.29687,-0.23437 0.45312,-0.625 0.17188,-0.39062 0.17188,-0.96875 0,-0.98437 -0.53125,-1.54687 -0.53125,-0.5625 -1.67188,-0.5625 z m -1.4375,-5.70313 q 0.5625,-0.14062 1.14063,-0.20312 0.59375,-0.0781 1.15625,-0.0781 0.73437,0 1.375,0.14063 0.64062,0.14062 1.14062,0.46875 0.5,0.32812 0.79688,0.85937 0.29687,0.53125 0.29687,1.32813 0,1 -0.42187,1.64062 -0.40625,0.625 -1.0625,0.92188 0.8125,0.32812 1.32812,0.98437 0.53125,0.65625 0.53125,1.79688 0,0.875 -0.28125,1.46875 -0.26562,0.57812 -0.78125,0.96875 -0.51562,0.375 -1.23437,0.54687 -0.70313,0.15625 -1.54688,0.15625 -0.5625,0 -1.17187,-0.0625 -0.60938,-0.0625 -1.26563,-0.1875 z m 8.36725,2.70313 q 0.42187,-0.1875 0.875,-0.28125 0.46875,-0.10938 1.01562,-0.10938 1.125,0 1.82813,0.70313 0.70312,0.6875 0.70312,2.15625 v 5.57812 q -0.57812,0.15625 -1.1875,0.25 -0.59375,0.0937 -1.17187,0.0937 -0.57813,0 -1.07813,-0.14062 -0.5,-0.14063 -0.875,-0.45313 -0.375,-0.32812 -0.60937,-0.8125 -0.21875,-0.5 -0.21875,-1.20312 0,-0.65625 0.20312,-1.14063 0.20313,-0.48437 0.54688,-0.8125 0.35937,-0.32812 0.82812,-0.5 0.48438,-0.17187 1.04688,-0.17187 0.53125,0 1.17187,0.14062 v -0.78125 q 0,-0.92187 -0.35937,-1.28125 -0.35938,-0.375 -1.03125,-0.375 -0.375,0 -0.70313,0.0781 -0.32812,0.0625 -0.70312,0.21875 z m 0.65625,5.76562 q 0,0.73438 0.375,1.09375 0.39062,0.34375 1.09375,0.34375 0.4375,0 0.95312,-0.10937 v -2.67188 q -0.48437,-0.125 -0.95312,-0.125 -0.29688,0 -0.57813,0.0781 -0.26562,0.0625 -0.46875,0.23437 -0.20312,0.17188 -0.3125,0.45313 -0.10937,0.28125 -0.10937,0.70312 z m 7.44403,-5.95312 h 2.10938 v 1.1875 h -2.10938 v 4.625 q 0,0.85937 0.3125,1.20312 0.3125,0.34375 0.84375,0.34375 0.26563,0 0.51563,-0.0781 0.25,-0.0781 0.42187,-0.1875 l 0.26563,1.10937 q -0.65625,0.375 -1.39063,0.375 -1.1875,0 -1.76562,-0.65625 -0.57813,-0.67187 -0.57813,-2.20312 v -7.96875 l 1.375,-0.23438 z m 6.33722,8.60937 q -0.875,0 -1.45313,-0.32812 -0.5625,-0.34375 -0.92187,-0.92188 -0.35938,-0.57812 -0.51563,-1.375 -0.15625,-0.8125 -0.15625,-1.75 0,-2.07812 0.75,-3.25 0.76563,-1.1875 2.3125,-1.1875 0.45313,0 0.82813,0.10938 0.375,0.10937 0.6875,0.29687 l -0.35938,1.125 q -0.48437,-0.3125 -1.09375,-0.3125 -0.85937,0 -1.28125,0.78125 -0.40625,0.78125 -0.40625,2.4375 0,0.6875 0.0781,1.28125 0.0937,0.57813 0.28125,1 0.20312,0.40625 0.53125,0.64063 0.32812,0.23437 0.84375,0.23437 0.34375,0 0.625,-0.0781 0.28125,-0.0937 0.54687,-0.23438 l 0.29688,1.07813 q -0.25,0.17187 -0.6875,0.3125 -0.42188,0.14062 -0.90625,0.14062 z m 3.08551,-0.20312 v -12.17188 l 1.375,-0.25 v 4.0625 q 0.29687,-0.0937 0.65625,-0.15625 0.35937,-0.0625 0.73437,-0.0625 0.53125,0 0.98438,0.17188 0.46875,0.17187 0.8125,0.57812 0.34375,0.39063 0.54687,1.07813 0.20313,0.67187 0.20313,1.67187 v 5.07813 h -1.375 v -4.95313 q 0,-1.25 -0.32813,-1.82812 -0.3125,-0.57813 -1.20312,-0.57813 -0.45313,0 -1.03125,0.15625 v 7.20313 z m 10.70703,-8.875 q 0.29688,-0.1875 0.625,-0.4375 0.32813,-0.25 0.625,-0.54688 0.3125,-0.29687 0.57813,-0.60937 0.26562,-0.3125 0.4375,-0.625 h 1.0625 v 11.09375 h -1.375 v -8.90625 q -0.28125,0.28125 -0.64063,0.54687 -0.35937,0.25 -0.75,0.46875 z"
       fill-rule="nonzero"
       id="path143" />
    <path
       fill="#eeeeee"
       d="m 408.79266,349.7756 h 131.24408 v 35.02362 H 408.79266 Z"
       fill-rule="evenodd"
       id="path145" />
    <path
       stroke="#595959"
       stroke-width="1"
       stroke-linejoin="round"
       stroke-linecap="butt"
       d="m 408.79266,349.7756 h 131.24408 v 35.02362 H 408.79266 Z"
       fill-rule="evenodd"
       id="path147" />
    <path
       fill="#ffe599"
       d="m 497.1916,353.2874 h 40 v 28 h -40 z"
       fill-rule="evenodd"
       id="path149" />
    <path
       stroke="#595959"
       stroke-width="1"
       stroke-linejoin="round"
       stroke-linecap="butt"
       d="m 497.1916,353.2874 h 40 v 28 h -40 z"
       fill-rule="evenodd"
       id="path151" />
    <path
       fill="#000000"
       d="m 509.41757,364.99115 q 0.5625,-0.1875 1.21875,-0.29688 0.65625,-0.125 1.1875,-0.125 0.56253,0 1.01566,0.15625 0.46875,0.14063 0.8125,0.46875 0.42187,-0.26562 0.89062,-0.4375 0.48438,-0.1875 1.0625,-0.1875 0.57813,0 1.04688,0.17188 0.46875,0.17187 0.79687,0.57812 0.34375,0.39063 0.53125,1.07813 0.20313,0.67187 0.20313,1.67187 v 5.07813 h -1.375 v -4.95313 q 0,-1.25 -0.29688,-1.82812 -0.28125,-0.57813 -1.07812,-0.57813 -0.3125,0 -0.625,0.10938 -0.29688,0.10937 -0.57813,0.3125 0.125,0.35937 0.1875,0.82812 0.0625,0.46875 0.0625,1.03125 v 5.07813 h -1.375 v -4.95313 q 0,-1.25 -0.28125,-1.82812 -0.28125,-0.57813 -1.09378,-0.57813 -0.40625,0 -0.9375,0.15625 v 7.20313 h -1.375 z m 12.98056,-1.73438 q -0.0937,1.15625 -0.125,1.92188 -0.0312,0.76562 -0.0625,1.21875 1.51563,0.20312 2.21875,1.09375 0.70313,0.875 0.70313,2.375 0,0.84375 -0.25,1.5 -0.23438,0.65625 -0.65625,1.10937 -0.42188,0.45313 -1,0.67188 -0.57813,0.23437 -1.25,0.23437 -0.46875,0 -0.95313,-0.125 -0.46875,-0.125 -0.89062,-0.35937 l 0.39062,-1.14063 q 0.6875,0.375 1.40625,0.375 0.76563,0 1.29688,-0.54687 0.53125,-0.5625 0.53125,-1.71875 0,-1.26563 -0.71875,-1.8125 -0.71875,-0.54688 -2.17188,-0.625 0.0781,-0.79688 0.125,-1.45313 0.0625,-0.67187 0.0937,-1.29687 0.0312,-0.64063 0.0469,-1.26563 0.0312,-0.64062 0.0469,-1.35937 h 3.73438 v 1.20312 z"
       fill-rule="nonzero"
       id="path153" />
    <path
       fill="#ffe599"
       d="m 454.79004,353.2874 h 40 v 28 h -40 z"
       fill-rule="evenodd"
       id="path155" />
    <path
       stroke="#595959"
       stroke-width="1"
       stroke-linejoin="round"
       stroke-linecap="butt"
       d="m 454.79004,353.2874 h 40 v 28 h -40 z"
       fill-rule="evenodd"
       id="path157" />
    <path
       fill="#000000"
       d="m 467.016,364.99115 q 0.5625,-0.1875 1.21875,-0.29688 0.65625,-0.125 1.1875,-0.125 0.5625,0 1.01563,0.15625 0.46875,0.14063 0.8125,0.46875 0.42187,-0.26562 0.89062,-0.4375 0.48438,-0.1875 1.0625,-0.1875 0.57813,0 1.04688,0.17188 0.46875,0.17187 0.79687,0.57812 0.34375,0.39063 0.53125,1.07813 0.20313,0.67187 0.20313,1.67187 v 5.07813 h -1.375 v -4.95313 q 0,-1.25 -0.29688,-1.82812 -0.28125,-0.57813 -1.07812,-0.57813 -0.3125,0 -0.625,0.10938 -0.29688,0.10937 -0.57813,0.3125 0.125,0.35937 0.1875,0.82812 0.0625,0.46875 0.0625,1.03125 v 5.07813 h -1.375 v -4.95313 q 0,-1.25 -0.28125,-1.82812 -0.28125,-0.57813 -1.09375,-0.57813 -0.40625,0 -0.9375,0.15625 v 7.20313 h -1.375 z m 15.48053,-1.84375 q -0.60938,0.0781 -1.10938,0.26562 -0.5,0.1875 -0.90625,0.57813 -0.39062,0.39062 -0.65625,1.03125 -0.26562,0.64062 -0.39062,1.59375 0.32812,-0.14063 0.64062,-0.20313 0.3125,-0.0625 0.59375,-0.0625 1.14063,0 1.76563,0.90625 0.64062,0.90625 0.64062,2.48438 0,1.6875 -0.60937,2.67187 -0.59375,0.96875 -1.89063,0.96875 -0.65625,0 -1.15625,-0.25 -0.48437,-0.25 -0.8125,-0.82812 -0.32812,-0.59375 -0.5,-1.54688 -0.15625,-0.95312 -0.15625,-2.32812 0,-1.20313 0.21875,-2.32813 0.23438,-1.14062 0.75,-2.03125 0.53125,-0.89062 1.35938,-1.45312 0.84375,-0.5625 2.07812,-0.60938 z m -2.17188,4.3125 q -0.25,0 -0.51562,0.0937 -0.25,0.0937 -0.46875,0.21875 -0.0156,0.1875 -0.0156,0.39062 0,0.20313 0,0.40625 0,0.73438 0.0312,1.40625 0.0469,0.65625 0.17188,1.17188 0.125,0.5 0.375,0.79687 0.25,0.29688 0.65625,0.29688 0.625,0 0.875,-0.65625 0.25,-0.67188 0.25,-1.78125 0,-1.20313 -0.32813,-1.76563 -0.32812,-0.57812 -1.03125,-0.57812 z"
       fill-rule="nonzero"
       id="path159" />
    <path
       fill="#ffe599"
       d="m 412.38846,353.2874 h 40 v 28 h -40 z"
       fill-rule="evenodd"
       id="path161" />
    <path
       stroke="#595959"
       stroke-width="1"
       stroke-linejoin="round"
       stroke-linecap="butt"
       d="m 412.38846,353.2874 h 40 v 28 h -40 z"
       fill-rule="evenodd"
       id="path163" />
    <path
       fill="#000000"
       d="m 424.61444,364.99115 q 0.5625,-0.1875 1.21875,-0.29688 0.65625,-0.125 1.1875,-0.125 0.5625,0 1.01562,0.15625 0.46875,0.14063 0.8125,0.46875 0.42188,-0.26562 0.89063,-0.4375 0.48437,-0.1875 1.0625,-0.1875 0.57812,0 1.04687,0.17188 0.46875,0.17187 0.79688,0.57812 0.34375,0.39063 0.53125,1.07813 0.20312,0.67187 0.20312,1.67187 v 5.07813 h -1.375 v -4.95313 q 0,-1.25 -0.29687,-1.82812 -0.28125,-0.57813 -1.07813,-0.57813 -0.3125,0 -0.625,0.10938 -0.29687,0.10937 -0.57812,0.3125 0.125,0.35937 0.1875,0.82812 0.0625,0.46875 0.0625,1.03125 v 5.07813 h -1.375 v -4.95313 q 0,-1.25 -0.28125,-1.82812 -0.28125,-0.57813 -1.09375,-0.57813 -0.40625,0 -0.9375,0.15625 v 7.20313 h -1.375 z m 11.76178,8.15625 q 0.0312,-0.76563 0.15625,-1.65625 0.14062,-0.89063 0.34375,-1.79688 0.21875,-0.92187 0.46875,-1.82812 0.25,-0.92188 0.53125,-1.76563 0.28125,-0.84375 0.5625,-1.5625 0.29687,-0.71875 0.59375,-1.26562 h -3.78125 v -1.21875 h 5.32812 v 1.07812 q -0.39062,0.625 -0.85937,1.70313 -0.45313,1.07812 -0.85938,2.4375 -0.40625,1.34375 -0.71875,2.875 -0.29687,1.51562 -0.35937,3 z"
       fill-rule="nonzero"
       id="path165" />
    <path
       fill="#000000"
       fill-opacity="0"
       d="m 408.79004,319.00394 h 131.24408 v 38.77167 H 408.79004 Z"
       fill-rule="evenodd"
       id="path167" />
    <path
       fill="#f3f3f3"
       d="m 455.34528,336.98895 h 1 q 1.98437,0 1.98437,-1.78125 0,-0.5625 -0.17187,-0.92188 -0.17188,-0.35937 -0.45313,-0.5625 -0.26562,-0.20312 -0.625,-0.28125 -0.35937,-0.0781 -0.75,-0.0781 -0.25,0 -0.5,0.0156 -0.23437,0.0156 -0.48437,0.0469 z m 0,1.15625 v 4 q 0.3125,0.0469 0.60937,0.0781 0.29688,0.0312 0.57813,0.0312 0.45312,0 0.84375,-0.0937 0.40625,-0.0937 0.70312,-0.3125 0.29688,-0.23437 0.45313,-0.625 0.17187,-0.39062 0.17187,-0.96875 0,-0.98437 -0.53125,-1.54687 -0.53125,-0.5625 -1.67187,-0.5625 z m -1.4375,-5.70313 q 0.5625,-0.14062 1.14062,-0.20312 0.59375,-0.0781 1.15625,-0.0781 0.73438,0 1.375,0.14063 0.64063,0.14062 1.14063,0.46875 0.5,0.32812 0.79687,0.85937 0.29688,0.53125 0.29688,1.32813 0,1 -0.42188,1.64062 -0.40625,0.625 -1.0625,0.92188 0.8125,0.32812 1.32813,0.98437 0.53125,0.65625 0.53125,1.79688 0,0.875 -0.28125,1.46875 -0.26563,0.57812 -0.78125,0.96875 -0.51563,0.375 -1.23438,0.54687 -0.70312,0.15625 -1.54687,0.15625 -0.5625,0 -1.17188,-0.0625 -0.60937,-0.0625 -1.26562,-0.1875 z m 8.36725,2.70313 q 0.42187,-0.1875 0.875,-0.28125 0.46875,-0.10938 1.01562,-0.10938 1.125,0 1.82813,0.70313 0.70312,0.6875 0.70312,2.15625 v 5.57812 q -0.57812,0.15625 -1.1875,0.25 -0.59375,0.0937 -1.17187,0.0937 -0.57813,0 -1.07813,-0.14062 -0.5,-0.14063 -0.875,-0.45313 -0.375,-0.32812 -0.60937,-0.8125 -0.21875,-0.5 -0.21875,-1.20312 0,-0.65625 0.20312,-1.14063 0.20313,-0.48437 0.54688,-0.8125 0.35937,-0.32812 0.82812,-0.5 0.48438,-0.17187 1.04688,-0.17187 0.53125,0 1.17187,0.14062 v -0.78125 q 0,-0.92187 -0.35937,-1.28125 -0.35938,-0.375 -1.03125,-0.375 -0.375,0 -0.70313,0.0781 -0.32812,0.0625 -0.70312,0.21875 z m 0.65625,5.76562 q 0,0.73438 0.375,1.09375 0.39062,0.34375 1.09375,0.34375 0.4375,0 0.95312,-0.10937 v -2.67188 q -0.48437,-0.125 -0.95312,-0.125 -0.29688,0 -0.57813,0.0781 -0.26562,0.0625 -0.46875,0.23437 -0.20312,0.17188 -0.3125,0.45313 -0.10937,0.28125 -0.10937,0.70312 z m 7.44403,-5.95312 h 2.10938 v 1.1875 h -2.10938 v 4.625 q 0,0.85937 0.3125,1.20312 0.3125,0.34375 0.84375,0.34375 0.26563,0 0.51563,-0.0781 0.25,-0.0781 0.42187,-0.1875 l 0.26563,1.10937 q -0.65625,0.375 -1.39063,0.375 -1.1875,0 -1.76562,-0.65625 -0.57813,-0.67187 -0.57813,-2.20312 v -7.96875 l 1.375,-0.23438 z m 6.33725,8.60937 q -0.875,0 -1.45313,-0.32812 -0.5625,-0.34375 -0.92187,-0.92188 -0.35938,-0.57812 -0.51563,-1.375 -0.15625,-0.8125 -0.15625,-1.75 0,-2.07812 0.75,-3.25 0.76563,-1.1875 2.3125,-1.1875 0.45313,0 0.82813,0.10938 0.375,0.10937 0.6875,0.29687 l -0.35938,1.125 q -0.48437,-0.3125 -1.09375,-0.3125 -0.85937,0 -1.28125,0.78125 -0.40625,0.78125 -0.40625,2.4375 0,0.6875 0.0781,1.28125 0.0937,0.57813 0.28125,1 0.20312,0.40625 0.53125,0.64063 0.32812,0.23437 0.84375,0.23437 0.34375,0 0.625,-0.0781 0.28125,-0.0937 0.54687,-0.23438 l 0.29688,1.07813 q -0.25,0.17187 -0.6875,0.3125 -0.42188,0.14062 -0.90625,0.14062 z m 3.08551,-0.20312 v -12.17188 l 1.375,-0.25 v 4.0625 q 0.29688,-0.0937 0.65625,-0.15625 0.35938,-0.0625 0.73438,-0.0625 0.53125,0 0.98437,0.17188 0.46875,0.17187 0.8125,0.57812 0.34375,0.39063 0.54688,1.07813 0.20312,0.67187 0.20312,1.67187 v 5.07813 h -1.375 v -4.95313 q 0,-1.25 -0.32812,-1.82812 -0.3125,-0.57813 -1.20313,-0.57813 -0.45312,0 -1.03125,0.15625 v 7.20313 z m 10.28516,-10.40625 q 0.9375,-0.9375 2.3125,-0.9375 1.28125,0 1.96875,0.6875 0.70312,0.67187 0.70312,2.10937 0,0.67188 -0.23437,1.28125 -0.21875,0.60938 -0.5625,1.1875 -0.32813,0.5625 -0.73438,1.125 -0.39062,0.54688 -0.76562,1.14063 -0.35938,0.57812 -0.64063,1.21875 -0.26562,0.625 -0.32812,1.34375 h 3.48437 v 1.25 h -4.96875 v -0.29688 q 0,-1.07812 0.25,-1.90625 0.25,-0.84375 0.60938,-1.51562 0.35937,-0.67188 0.79687,-1.23438 0.4375,-0.57812 0.79688,-1.125 0.35937,-0.5625 0.59375,-1.14062 0.25,-0.59375 0.25,-1.29688 0,-0.84375 -0.34375,-1.21875 -0.32813,-0.375 -1,-0.375 -0.45313,0 -0.82813,0.1875 -0.375,0.17188 -0.6875,0.46875 z"
       fill-rule="nonzero"
       id="path169" />
    <path
       fill="#000000"
       fill-opacity="0"
       d="m 737.19684,272.70078 h 49.19684"
       fill-rule="evenodd"
       id="path171" />
    <path
       stroke="#f3f3f3"
       stroke-width="2"
       stroke-linejoin="round"
       stroke-linecap="butt"
       d="m 737.19684,272.70078 h 37.19684"
       fill-rule="evenodd"
       id="path173" />
    <path
       fill="#f3f3f3"
       stroke="#f3f3f3"
       stroke-width="2"
       stroke-linecap="butt"
       d="m 774.3937,276.00424 9.07623,-3.30347 -9.07623,-3.30346 z"
       fill-rule="evenodd"
       id="path175" />
    <path
       fill="#000000"
       fill-opacity="0"
       d="m 222.80315,95.58793 h 514.3937 v 42.01574 h -514.3937 z"
       fill-rule="evenodd"
       id="path177" />
    <path
       fill="#f3f3f3"
       d="m 461.17038,115.08605 h 1.15625 q 2.3125,0 2.3125,-2.09375 0,-0.65625 -0.20312,-1.0625 -0.1875,-0.42187 -0.51563,-0.65625 -0.3125,-0.23437 -0.73437,-0.32812 -0.42188,-0.0937 -0.875,-0.0937 -0.28125,0 -0.57813,0.0156 -0.28125,0.0156 -0.5625,0.0625 z m 0,1.34375 v 4.65625 q 0.34375,0.0625 0.6875,0.10938 0.35938,0.0312 0.6875,0.0312 0.53125,0 0.98438,-0.10938 0.46875,-0.125 0.8125,-0.375 0.34375,-0.26562 0.53125,-0.71875 0.20312,-0.46875 0.20312,-1.14062 0,-1.15625 -0.625,-1.79688 -0.625,-0.65625 -1.9375,-0.65625 z m -1.6875,-6.67187 q 0.65625,-0.14063 1.32813,-0.21875 0.6875,-0.0937 1.35937,-0.0937 0.84375,0 1.59375,0.15625 0.76563,0.15625 1.34375,0.54687 0.57813,0.375 0.92188,1 0.34375,0.625 0.34375,1.5625 0,1.15625 -0.48438,1.90625 -0.48437,0.73438 -1.25,1.07813 0.95313,0.375 1.5625,1.14062 0.625,0.76563 0.625,2.10938 0,1 -0.32812,1.70312 -0.32813,0.6875 -0.9375,1.125 -0.59375,0.4375 -1.42188,0.64063 -0.82812,0.1875 -1.8125,0.1875 -0.65625,0 -1.375,-0.0781 -0.70312,-0.0781 -1.46875,-0.21875 z m 15.67304,12.46875 q -0.23438,0.0937 -0.59375,0.1875 -0.34375,0.0781 -0.71875,0.14062 -0.375,0.0625 -0.76563,0.10938 -0.375,0.0469 -0.70312,0.0469 -0.76563,0 -1.40625,-0.1875 -0.625,-0.17187 -1.07813,-0.60937 -0.4375,-0.45313 -0.6875,-1.21875 -0.23437,-0.78125 -0.23437,-1.95313 v -6.03125 h 1.59375 v 5.96875 q 0,1.4375 0.4375,2.03125 0.45312,0.57813 1.34375,0.57813 0.29687,0 0.59375,-0.0156 0.29687,-0.0312 0.60937,-0.125 v -8.4375 h 1.60938 z m 5.75186,-14.20313 q 0.53125,0 0.9375,0.125 0.42187,0.10938 0.6875,0.23438 l -0.34375,1.26562 q -0.26563,-0.125 -0.54688,-0.1875 -0.26562,-0.0625 -0.59375,-0.0625 -0.42187,0 -0.70312,0.15625 -0.28125,0.14063 -0.4375,0.40625 -0.14063,0.25 -0.20313,0.625 -0.0469,0.35938 -0.0469,0.76563 v 1.35937 h 2.51562 v 1.39063 h -2.51562 v 8.40625 h -1.60938 v -11.15625 q 0,-1.59375 0.70313,-2.45313 0.71875,-0.875 2.15625,-0.875 z m 5.70312,0 q 0.53125,0 0.9375,0.125 0.42188,0.10938 0.6875,0.23438 l -0.34375,1.26562 q -0.26562,-0.125 -0.54687,-0.1875 -0.26563,-0.0625 -0.59375,-0.0625 -0.42188,0 -0.70313,0.15625 -0.28125,0.14063 -0.4375,0.40625 -0.14062,0.25 -0.20312,0.625 -0.0469,0.35938 -0.0469,0.76563 v 1.35937 h 2.51563 v 1.39063 h -2.51563 v 8.40625 h -1.60937 v -11.15625 q 0,-1.59375 0.70312,-2.45313 0.71875,-0.875 2.15625,-0.875 z m 3.77786,10.0625 q 0.0156,0.70313 0.125,1.29688 0.10938,0.59375 0.35938,1.03125 0.25,0.4375 0.67187,0.6875 0.42188,0.23437 1.07813,0.23437 0.53125,0 0.98437,-0.15625 0.46875,-0.17187 0.67188,-0.28125 l 0.29687,1.29688 q -0.23437,0.15625 -0.8125,0.35937 -0.5625,0.20313 -1.34375,0.20313 -1.03125,0 -1.73437,-0.375 -0.6875,-0.375 -1.14063,-1.04688 -0.4375,-0.67187 -0.625,-1.60937 -0.17187,-0.9375 -0.17187,-2.04688 0,-2.70312 0.89062,-3.95312 0.89063,-1.25 2.35938,-1.25 1.67187,0 2.35937,1.25 0.6875,1.25 0.6875,3.5 0,0.20312 0,0.42187 0,0.21875 -0.0156,0.4375 z m 1.60938,-4.25 q -0.79688,0 -1.15625,0.79688 -0.35938,0.79687 -0.4375,2.14062 h 2.96875 q 0,-1.35937 -0.28125,-2.14062 -0.28125,-0.79688 -1.09375,-0.79688 z m 9.64975,0.32813 q -0.59375,-0.25 -1.34375,-0.25 -0.6875,0 -1.28125,0.23437 v 8.35938 h -1.60938 v -9.35938 q 0.54688,-0.26562 1.23438,-0.4375 0.70312,-0.1875 1.54687,-0.1875 0.45313,0 0.89063,0.0625 0.45312,0.0469 0.84375,0.20313 z"
       fill-rule="nonzero"
       id="path179" />
    <path
       fill="#000000"
       fill-opacity="0"
       d="m 786.3937,272.70078 v 0 c 0,-32.24994 26.1438,-58.39369 58.39374,-58.39369 v 0 c 15.48694,0 30.3396,6.15217 41.29059,17.10312 10.95093,10.95094 17.10309,25.8036 17.10309,41.29057 v 0 c 0,32.24997 -26.14374,58.39371 -58.39368,58.39371 v 0 c -32.24994,0 -58.39374,-26.14374 -58.39374,-58.39371 z"
       fill-rule="evenodd"
       id="path181" />
    <path
       stroke="#f3f3f3"
       stroke-width="2"
       stroke-linejoin="round"
       stroke-linecap="butt"
       d="m 786.3937,272.70078 v 0 c 0,-32.24994 26.1438,-58.39369 58.39374,-58.39369 v 0 c 15.48694,0 30.3396,6.15217 41.29059,17.10312 10.95093,10.95094 17.10309,25.8036 17.10309,41.29057 v 0 c 0,32.24997 -26.14374,58.39371 -58.39368,58.39371 v 0 c -32.24994,0 -58.39374,-26.14374 -58.39374,-58.39371 z"
       fill-rule="evenodd"
       id="path183" />
    <path
       fill="#f3f3f3"
       d="m 823.99524,267.46454 q 1,0 1.54687,-0.5625 0.5625,-0.5625 0.5625,-1.51563 0,-0.5 -0.17187,-0.89062 -0.17188,-0.39063 -0.4375,-0.70313 -0.26563,-0.32812 -0.625,-0.57812 -0.35938,-0.26563 -0.71875,-0.53125 -0.4375,-0.29688 -0.90625,-0.625 -0.46875,-0.34375 -0.85938,-0.78125 -0.375,-0.45313 -0.625,-1.04688 -0.23437,-0.60937 -0.23437,-1.40625 0,-0.78125 0.26562,-1.40625 0.28125,-0.64062 0.75,-1.09375 0.48438,-0.45312 1.14063,-0.6875 0.67187,-0.25 1.4375,-0.25 0.73437,0 1.375,0.1875 0.64062,0.1875 1.0625,0.45313 l -0.51563,1.32812 q -0.39062,-0.26562 -0.85937,-0.40625 -0.45313,-0.14062 -0.95313,-0.14062 -0.92187,0 -1.46875,0.5 -0.54687,0.48437 -0.54687,1.4375 0,0.53125 0.17187,0.92187 0.1875,0.39063 0.46875,0.71875 0.29688,0.3125 0.67188,0.57813 0.375,0.25 0.8125,0.53125 0.42187,0.28125 0.875,0.625 0.45312,0.32812 0.8125,0.76562 0.35937,0.4375 0.59375,1.03125 0.23437,0.57813 0.23437,1.375 0,0.73438 -0.23437,1.39063 -0.21875,0.65625 -0.6875,1.15625 -0.46875,0.48437 -1.1875,0.78125 -0.71875,0.28125 -1.6875,0.28125 -0.90625,0 -1.57813,-0.20313 -0.67187,-0.20312 -1.1875,-0.54687 l 0.51563,-1.34375 q 0.48437,0.29687 1,0.48437 0.51562,0.17188 1.1875,0.17188 z m 7.22644,-3.26563 q 0.0156,0.70313 0.125,1.29688 0.10938,0.59375 0.35938,1.03125 0.25,0.4375 0.67187,0.6875 0.42188,0.23437 1.07813,0.23437 0.53125,0 0.98437,-0.15625 0.46875,-0.17187 0.67188,-0.28125 l 0.29687,1.29688 q -0.23437,0.15625 -0.8125,0.35937 -0.5625,0.20313 -1.34375,0.20313 -1.03125,0 -1.73437,-0.375 -0.6875,-0.375 -1.14063,-1.04688 -0.4375,-0.67187 -0.625,-1.60937 -0.17187,-0.9375 -0.17187,-2.04688 0,-2.70312 0.89062,-3.95312 0.89063,-1.25 2.35938,-1.25 1.67187,0 2.35937,1.25 0.6875,1.25 0.6875,3.5 0,0.20312 0,0.42187 0,0.21875 -0.0156,0.4375 z m 1.60938,-4.25 q -0.79688,0 -1.15625,0.79688 -0.35938,0.79687 -0.4375,2.14062 h 2.96875 q 0,-1.35937 -0.28125,-2.14062 -0.28125,-0.79688 -1.09375,-0.79688 z m 5.4154,-0.84375 q 0.6875,-0.20312 1.48438,-0.34375 0.8125,-0.14062 1.48437,-0.14062 0.73438,0 1.32813,0.20312 0.59375,0.1875 1.01562,0.65625 0.42188,0.46875 0.65625,1.26563 0.23438,0.78125 0.23438,1.96875 v 5.90625 h -1.60938 v -5.78125 q 0,-1.45313 -0.375,-2.125 -0.375,-0.67188 -1.40625,-0.67188 -0.53125,0 -1.20312,0.1875 v 8.39063 h -1.60938 z m 13.21106,1.1875 q -0.54687,-0.29687 -1.15625,-0.29687 -0.46875,0 -0.82812,0.1875 -0.34375,0.1875 -0.60938,0.625 -0.25,0.42187 -0.375,1.14062 -0.125,0.70313 -0.125,1.75 0,2.01563 0.53125,2.89063 0.53125,0.85937 1.60938,0.85937 0.20312,0 0.4375,-0.0312 0.25,-0.0312 0.51562,-0.10937 z m 0,-5.875 1.60938,-0.28125 v 14.21875 q -0.53125,0.23438 -1.20313,0.375 -0.67187,0.14063 -1.35937,0.14063 -2.01563,0 -2.92188,-1.28125 -0.90625,-1.29688 -0.90625,-3.89063 0,-1.17187 0.1875,-2.10937 0.20313,-0.95313 0.625,-1.60938 0.42188,-0.67187 1.07813,-1.03125 0.65625,-0.35937 1.54687,-0.35937 0.42188,0 0.73438,0.0781 0.3125,0.0781 0.60937,0.23438 z m 5.60309,9.78125 q 0.0156,0.70313 0.125,1.29688 0.10937,0.59375 0.35937,1.03125 0.25,0.4375 0.67188,0.6875 0.42187,0.23437 1.07812,0.23437 0.53125,0 0.98438,-0.15625 0.46875,-0.17187 0.67187,-0.28125 l 0.29688,1.29688 q -0.23438,0.15625 -0.8125,0.35937 -0.5625,0.20313 -1.34375,0.20313 -1.03125,0 -1.73438,-0.375 -0.6875,-0.375 -1.14062,-1.04688 -0.4375,-0.67187 -0.625,-1.60937 -0.17188,-0.9375 -0.17188,-2.04688 0,-2.70312 0.89063,-3.95312 0.89062,-1.25 2.35937,-1.25 1.67188,0 2.35938,1.25 0.6875,1.25 0.6875,3.5 0,0.20312 0,0.42187 0,0.21875 -0.0156,0.4375 z m 1.60937,-4.25 q -0.79687,0 -1.15625,0.79688 -0.35937,0.79687 -0.4375,2.14062 h 2.96875 q 0,-1.35937 -0.28125,-2.14062 -0.28125,-0.79688 -1.09375,-0.79688 z m 9.64972,0.32813 q -0.59375,-0.25 -1.34375,-0.25 -0.6875,0 -1.28125,0.23437 v 8.35938 h -1.60937 v -9.35938 q 0.54687,-0.26562 1.23437,-0.4375 0.70313,-0.1875 1.54688,-0.1875 0.45312,0 0.89062,0.0625 0.45313,0.0469 0.84375,0.20313 z"
       fill-rule="nonzero"
       id="path185" />
    <path
       fill="#f3f3f3"
       d="m 828.56696,277.6989 v 1.42187 h -2.875 v 11.5 h -1.67188 v -11.5 h -2.875 v -1.42187 z m 1.7132,12.92187 v -14.20312 l 1.60937,-0.28125 v 4.75 q 0.35938,-0.10938 0.76563,-0.1875 0.42187,-0.0781 0.85937,-0.0781 0.60938,0 1.14063,0.20313 0.54687,0.1875 0.95312,0.65625 0.40625,0.46875 0.64063,1.26562 0.23437,0.78125 0.23437,1.96875 v 5.90625 h -1.60937 v -5.78125 q 0,-1.45312 -0.375,-2.125 -0.375,-0.67187 -1.40625,-0.67187 -0.53125,0 -1.20313,0.1875 v 8.39062 z m 13.22668,-8.34375 q -0.59375,-0.25 -1.34375,-0.25 -0.6875,0 -1.28125,0.23438 v 8.35937 h -1.60937 v -9.35937 q 0.54687,-0.26563 1.23437,-0.4375 0.70313,-0.1875 1.54688,-0.1875 0.45312,0 0.89062,0.0625 0.45313,0.0469 0.84375,0.20312 z m 2.80762,3.92188 q 0.0156,0.70312 0.125,1.29687 0.10937,0.59375 0.35937,1.03125 0.25,0.4375 0.67188,0.6875 0.42187,0.23438 1.07812,0.23438 0.53125,0 0.98438,-0.15625 0.46875,-0.17188 0.67187,-0.28125 l 0.29688,1.29687 q -0.23438,0.15625 -0.8125,0.35938 -0.5625,0.20312 -1.34375,0.20312 -1.03125,0 -1.73438,-0.375 -0.6875,-0.375 -1.14062,-1.04687 -0.4375,-0.67188 -0.625,-1.60938 -0.17188,-0.9375 -0.17188,-2.04687 0,-2.70313 0.89063,-3.95313 0.89062,-1.25 2.35937,-1.25 1.67188,0 2.35938,1.25 0.6875,1.25 0.6875,3.5 0,0.20313 0,0.42188 0,0.21875 -0.0156,0.4375 z m 1.60937,-4.25 q -0.79687,0 -1.15625,0.79687 -0.35937,0.79688 -0.4375,2.14063 h 2.96875 q 0,-1.35938 -0.28125,-2.14063 -0.28125,-0.79687 -1.09375,-0.79687 z m 5.5716,-0.92188 q 0.48437,-0.20312 1.01562,-0.3125 0.54688,-0.125 1.1875,-0.125 1.29688,0 2.10938,0.8125 0.82812,0.8125 0.82812,2.51563 v 6.5 q -0.67187,0.1875 -1.375,0.29687 -0.6875,0.10938 -1.35937,0.10938 -0.67188,0 -1.26563,-0.17188 -0.57812,-0.15625 -1.03125,-0.53125 -0.4375,-0.375 -0.70312,-0.9375 -0.25,-0.57812 -0.25,-1.39062 0,-0.76563 0.23437,-1.32813 0.23438,-0.57812 0.64063,-0.95312 0.40625,-0.39063 0.96875,-0.57813 0.5625,-0.20312 1.21875,-0.20312 0.60937,0 1.35937,0.14062 v -0.89062 q 0,-1.07813 -0.42187,-1.5 -0.42188,-0.4375 -1.20313,-0.4375 -0.42187,0 -0.8125,0.0937 -0.375,0.0781 -0.8125,0.25 z m 0.76562,6.73438 q 0,0.85937 0.4375,1.28125 0.45313,0.40625 1.26563,0.40625 0.51562,0 1.10937,-0.14063 v -3.10937 q -0.5625,-0.15625 -1.10937,-0.15625 -0.34375,0 -0.67188,0.0937 -0.3125,0.0781 -0.54687,0.28125 -0.23438,0.1875 -0.35938,0.51562 -0.125,0.32813 -0.125,0.82813 z m 11.39368,-5.46875 q -0.54688,-0.29688 -1.15625,-0.29688 -0.46875,0 -0.82813,0.1875 -0.34375,0.1875 -0.60937,0.625 -0.25,0.42188 -0.375,1.14063 -0.125,0.70312 -0.125,1.75 0,2.01562 0.53125,2.89062 0.53125,0.85938 1.60937,0.85938 0.20313,0 0.4375,-0.0312 0.25,-0.0312 0.51563,-0.10938 z m 0,-5.875 1.60937,-0.28125 v 14.21875 q -0.53125,0.23437 -1.20312,0.375 -0.67188,0.14062 -1.35938,0.14062 -2.01562,0 -2.92187,-1.28125 -0.90625,-1.29687 -0.90625,-3.89062 0,-1.17188 0.1875,-2.10938 0.20312,-0.95312 0.625,-1.60937 0.42187,-0.67188 1.07812,-1.03125 0.65625,-0.35938 1.54688,-0.35938 0.42187,0 0.73437,0.0781 0.3125,0.0781 0.60938,0.23437 z"
       fill-rule="nonzero"
       id="path187" />
    <path
       fill="#000000"
       fill-opacity="0"
       d="m 173.6063,270 h 49.19685"
       fill-rule="evenodd"
       id="path189" />
    <path
       stroke="#f3f3f3"
       stroke-width="2"
       stroke-linejoin="round"
       stroke-linecap="butt"
       d="m 173.6063,270 h 37.19685"
       fill-rule="evenodd"
       id="path191" />
    <path
       fill="#f3f3f3"
       stroke="#f3f3f3"
       stroke-width="2"
       stroke-linecap="butt"
       d="m 210.80315,273.30347 9.0762,-3.30347 -9.0762,-3.30346 z"
       fill-rule="evenodd"
       id="path193" />
  </g>
</svg>
