<?xml version="1.0" encoding="UTF-8" standalone="no"?>
<svg
   version="1.1"
   viewBox="0 0 863.77698 360.39368"
   fill="none"
   stroke="none"
   stroke-linecap="square"
   stroke-miterlimit="10"
   id="svg221"
   sodipodi:docname="producer-acks.svg"
   width="863.77698"
   height="360.39368"
   inkscape:version="1.2.2 (b0a8486541, 2022-12-01)"
   xmlns:inkscape="http://www.inkscape.org/namespaces/inkscape"
   xmlns:sodipodi="http://sodipodi.sourceforge.net/DTD/sodipodi-0.dtd"
   xmlns="http://www.w3.org/2000/svg"
   xmlns:svg="http://www.w3.org/2000/svg">
  <defs
     id="defs225" />
  <sodipodi:namedview
     id="namedview223"
     pagecolor="#ffffff"
     bordercolor="#666666"
     borderopacity="1.0"
     inkscape:showpageshadow="2"
     inkscape:pageopacity="0.0"
     inkscape:pagecheckerboard="0"
     inkscape:deskcolor="#d1d1d1"
     showgrid="false"
     inkscape:zoom="1.3552083"
     inkscape:cx="417.64796"
     inkscape:cy="167.50192"
     inkscape:window-width="1920"
     inkscape:window-height="1011"
     inkscape:window-x="0"
     inkscape:window-y="32"
     inkscape:window-maximized="1"
     inkscape:current-layer="svg221" />
  <clipPath
     id="g1db106035c2_0_908.0">
    <path
       d="M 0,0 H 960 V 540 H 0 Z"
       clip-rule="nonzero"
       id="path2" />
  </clipPath>
  <g
     clip-path="url(#g1db106035c2_0_908.0)"
     id="g219"
     transform="translate(-44.595802,-102.81102)">
    <path
       fill="#000000"
       fill-opacity="0"
       d="m 45.595802,283.00787 v 0 c 0,-98.96768 80.229168,-179.19685 179.196838,-179.19685 v 0 c 47.52596,0 93.10539,18.87962 126.71132,52.48555 33.60593,33.60593 52.48554,79.18535 52.48554,126.7113 v 0 c 0,98.96768 -80.22916,179.19684 -179.19685,179.19684 v 0 c -98.96768,0 -179.196843,-80.22916 -179.196843,-179.19684 z"
       fill-rule="evenodd"
       id="path7" />
    <path
       stroke="#f3f3f3"
       stroke-width="2"
       stroke-linejoin="round"
       stroke-linecap="butt"
       d="m 45.595802,283.00787 v 0 c 0,-98.96768 80.229168,-179.19685 179.196838,-179.19685 v 0 c 47.52596,0 93.10539,18.87962 126.71132,52.48555 33.60593,33.60593 52.48554,79.18535 52.48554,126.7113 v 0 c 0,98.96768 -80.22916,179.19684 -179.19685,179.19684 v 0 c -98.96768,0 -179.196843,-80.22916 -179.196843,-179.19684 z"
       fill-rule="evenodd"
       id="path9" />
    <path
       fill="#434343"
       d="m 125.9895,249.97612 h 197.6063 v 71.55904 H 125.9895 Z"
       fill-rule="evenodd"
       id="path11" />
    <path
       stroke="#d9d9d9"
       stroke-width="1"
       stroke-linejoin="round"
       stroke-linecap="butt"
       d="m 125.9895,249.97612 h 197.6063 v 71.55904 H 125.9895 Z"
       fill-rule="evenodd"
       id="path13" />
    <path
       fill="#eeeeee"
       d="m 138.39108,275.25302 h 173.22833 v 35.02362 H 138.39108 Z"
       fill-rule="evenodd"
       id="path15" />
    <path
       stroke="#595959"
       stroke-width="1"
       stroke-linejoin="round"
       stroke-linecap="butt"
       d="m 138.39108,275.25302 h 173.22833 v 35.02362 H 138.39108 Z"
       fill-rule="evenodd"
       id="path17" />
    <path
       fill="#ffe599"
       d="m 268.79004,278.76483 h 40 v 28 h -40 z"
       fill-rule="evenodd"
       id="path19" />
    <path
       stroke="#595959"
       stroke-width="1"
       stroke-linejoin="round"
       stroke-linecap="butt"
       d="m 268.79004,278.76483 h 40 v 28 h -40 z"
       fill-rule="evenodd"
       id="path21" />
    <path
       fill="#000000"
       d="m 281.016,290.46857 q 0.5625,-0.1875 1.21875,-0.29688 0.65625,-0.125 1.1875,-0.125 0.5625,0 1.01563,0.15625 0.46875,0.14063 0.8125,0.46875 0.42187,-0.26562 0.89062,-0.4375 0.48438,-0.1875 1.0625,-0.1875 0.57813,0 1.04688,0.17188 0.46875,0.17187 0.79687,0.57812 0.34375,0.39063 0.53125,1.07813 0.20313,0.67187 0.20313,1.67187 v 5.07813 h -1.375 v -4.95313 q 0,-1.25 -0.29688,-1.82812 -0.28125,-0.57813 -1.07812,-0.57813 -0.3125,0 -0.625,0.10938 -0.29688,0.10937 -0.57813,0.3125 0.125,0.35937 0.1875,0.82812 0.0625,0.46875 0.0625,1.03125 v 5.07813 h -1.375 v -4.95313 q 0,-1.25 -0.28125,-1.82812 -0.28125,-0.57813 -1.09375,-0.57813 -0.40625,0 -0.9375,0.15625 v 7.20313 h -1.375 z m 11.04303,-0.71875 q 0.29687,-0.1875 0.625,-0.4375 0.32812,-0.25 0.625,-0.54688 0.3125,-0.29687 0.57812,-0.60937 0.26563,-0.3125 0.4375,-0.625 h 1.0625 v 11.09375 h -1.375 v -8.90625 q -0.28125,0.28125 -0.64062,0.54687 -0.35938,0.25 -0.75,0.46875 z"
       fill-rule="nonzero"
       id="path23" />
    <path
       fill="#ffe599"
       d="m 226.38846,278.76483 h 40 v 28 h -40 z"
       fill-rule="evenodd"
       id="path25" />
    <path
       stroke="#595959"
       stroke-width="1"
       stroke-linejoin="round"
       stroke-linecap="butt"
       d="m 226.38846,278.76483 h 40 v 28 h -40 z"
       fill-rule="evenodd"
       id="path27" />
    <path
       fill="#000000"
       d="m 238.61443,290.46857 q 0.5625,-0.1875 1.21875,-0.29688 0.65625,-0.125 1.1875,-0.125 0.5625,0 1.01562,0.15625 0.46875,0.14063 0.8125,0.46875 0.42188,-0.26562 0.89063,-0.4375 0.48437,-0.1875 1.0625,-0.1875 0.57812,0 1.04687,0.17188 0.46875,0.17187 0.79688,0.57812 0.34375,0.39063 0.53125,1.07813 0.20312,0.67187 0.20312,1.67187 v 5.07813 h -1.375 v -4.95313 q 0,-1.25 -0.29687,-1.82812 -0.28125,-0.57813 -1.07813,-0.57813 -0.3125,0 -0.625,0.10938 -0.29687,0.10937 -0.57812,0.3125 0.125,0.35937 0.1875,0.82812 0.0625,0.46875 0.0625,1.03125 v 5.07813 h -1.375 v -4.95313 q 0,-1.25 -0.28125,-1.82812 -0.28125,-0.57813 -1.09375,-0.57813 -0.40625,0 -0.9375,0.15625 v 7.20313 h -1.375 z m 10.62115,-2.25 q 0.9375,-0.9375 2.3125,-0.9375 1.28125,0 1.96875,0.6875 0.70313,0.67187 0.70313,2.10937 0,0.67188 -0.23438,1.28125 -0.21875,0.60938 -0.5625,1.1875 -0.32812,0.5625 -0.73437,1.125 -0.39063,0.54688 -0.76563,1.14063 -0.35937,0.57812 -0.64062,1.21875 -0.26563,0.625 -0.32813,1.34375 h 3.48438 v 1.25 h -4.96875 v -0.29688 q 0,-1.07812 0.25,-1.90625 0.25,-0.84375 0.60937,-1.51562 0.35938,-0.67188 0.79688,-1.23438 0.4375,-0.57812 0.79687,-1.125 0.35938,-0.5625 0.59375,-1.14062 0.25,-0.59375 0.25,-1.29688 0,-0.84375 -0.34375,-1.21875 -0.32812,-0.375 -1,-0.375 -0.45312,0 -0.82812,0.1875 -0.375,0.17188 -0.6875,0.46875 z"
       fill-rule="nonzero"
       id="path29" />
    <path
       fill="#ffe599"
       d="m 183.98688,278.76483 h 40 v 28 h -40 z"
       fill-rule="evenodd"
       id="path31" />
    <path
       stroke="#595959"
       stroke-width="1"
       stroke-linejoin="round"
       stroke-linecap="butt"
       d="m 183.98688,278.76483 h 40 v 28 h -40 z"
       fill-rule="evenodd"
       id="path33" />
    <path
       fill="#000000"
       d="m 196.21284,290.46857 q 0.5625,-0.1875 1.21875,-0.29688 0.65625,-0.125 1.1875,-0.125 0.5625,0 1.01562,0.15625 0.46875,0.14063 0.8125,0.46875 0.42188,-0.26562 0.89063,-0.4375 0.48437,-0.1875 1.0625,-0.1875 0.57812,0 1.04687,0.17188 0.46875,0.17187 0.79688,0.57812 0.34375,0.39063 0.53125,1.07813 0.20312,0.67187 0.20312,1.67187 v 5.07813 h -1.375 v -4.95313 q 0,-1.25 -0.29687,-1.82812 -0.28125,-0.57813 -1.07813,-0.57813 -0.3125,0 -0.625,0.10938 -0.29687,0.10937 -0.57812,0.3125 0.125,0.35937 0.1875,0.82812 0.0625,0.46875 0.0625,1.03125 v 5.07813 h -1.375 v -4.95313 q 0,-1.25 -0.28125,-1.82812 -0.28125,-0.57813 -1.09375,-0.57813 -0.40625,0 -0.9375,0.15625 v 7.20313 h -1.375 z m 14.0274,2.1875 q 0.79688,0.28125 1.23438,1.01562 0.45312,0.73438 0.45312,1.875 0,1.54688 -0.75,2.4375 -0.75,0.875 -2.25,0.875 -0.59375,0 -1.15625,-0.17187 -0.54687,-0.17188 -0.96875,-0.46875 l 0.375,-1.10938 q 0.35938,0.21875 0.76563,0.39063 0.40625,0.15625 0.85937,0.15625 0.8125,0 1.26563,-0.5 0.46875,-0.51563 0.46875,-1.625 0,-1.09375 -0.51563,-1.65625 -0.5,-0.5625 -1.60937,-0.5625 h -0.40625 v -1.17188 h 0.34375 q 0.96875,0 1.42187,-0.5 0.46875,-0.51562 0.46875,-1.4375 0,-0.85937 -0.375,-1.28125 -0.35937,-0.42187 -0.96875,-0.42187 -0.40625,0 -0.79687,0.15625 -0.375,0.15625 -0.64063,0.40625 l -0.54687,-1.01563 q 0.42187,-0.375 0.98437,-0.5625 0.57813,-0.20312 1.125,-0.20312 1.25,0 1.92188,0.78125 0.67187,0.78125 0.67187,2.07812 0,0.92188 -0.35937,1.5625 -0.35938,0.625 -1.01563,0.95313 z"
       fill-rule="nonzero"
       id="path35" />
    <path
       fill="#ffe599"
       d="m 141.5853,278.76483 h 40 v 28 h -40 z"
       fill-rule="evenodd"
       id="path37" />
    <path
       stroke="#595959"
       stroke-width="1"
       stroke-linejoin="round"
       stroke-linecap="butt"
       d="m 141.5853,278.76483 h 40 v 28 h -40 z"
       fill-rule="evenodd"
       id="path39" />
    <path
       fill="#000000"
       d="m 153.81128,290.46857 q 0.5625,-0.1875 1.21875,-0.29688 0.65625,-0.125 1.1875,-0.125 0.5625,0 1.01562,0.15625 0.46875,0.14063 0.8125,0.46875 0.42188,-0.26562 0.89063,-0.4375 0.48437,-0.1875 1.0625,-0.1875 0.57812,0 1.04687,0.17188 0.46875,0.17187 0.79688,0.57812 0.34375,0.39063 0.53125,1.07813 0.20312,0.67187 0.20312,1.67187 v 5.07813 h -1.375 v -4.95313 q 0,-1.25 -0.29687,-1.82812 -0.28125,-0.57813 -1.07813,-0.57813 -0.3125,0 -0.625,0.10938 -0.29687,0.10937 -0.57812,0.3125 0.125,0.35937 0.1875,0.82812 0.0625,0.46875 0.0625,1.03125 v 5.07813 h -1.375 v -4.95313 q 0,-1.25 -0.28125,-1.82812 -0.28125,-0.57813 -1.09375,-0.57813 -0.40625,0 -0.9375,0.15625 v 7.20313 h -1.375 z m 10.5899,4.4375 q 0.28125,-0.98438 0.73438,-2.07813 0.45312,-1.10937 0.92187,-2.125 0.48438,-1.03125 0.92188,-1.85937 0.45312,-0.84375 0.71875,-1.3125 h 1.40625 v 7.25 h 1.09375 v 1.14062 h -1.09375 v 2.70313 h -1.26563 v -2.70313 h -3.4375 z m 3.4375,-0.125 v -5.40625 q -0.23437,0.5 -0.54687,1.14062 -0.3125,0.64063 -0.625,1.35938 -0.3125,0.71875 -0.60938,1.46875 -0.28125,0.73437 -0.48437,1.4375 z"
       fill-rule="nonzero"
       id="path41" />
    <path
       fill="#000000"
       fill-opacity="0"
       d="m 138.4042,244.48137 h 173.22833 v 38.77165 H 138.4042 Z"
       fill-rule="evenodd"
       id="path43" />
    <path
       fill="#f3f3f3"
       d="m 198.92755,257.74762 q 0.39062,1.20312 0.76562,2.4375 0.375,1.21875 0.73438,2.5625 0.35937,1.34375 0.71875,2.84375 0.35937,1.5 0.73437,3.25 h -1.45312 q -0.125,-0.71875 -0.26563,-1.42188 -0.125,-0.70312 -0.26562,-1.40625 h -3.5 q -0.15625,0.70313 -0.28125,1.40625 -0.125,0.70313 -0.25,1.42188 h -1.40625 q 0.35937,-1.75 0.71875,-3.25 0.375,-1.5 0.73437,-2.84375 0.35938,-1.34375 0.73438,-2.5625 0.375,-1.23438 0.76562,-2.4375 z m -0.78125,1.64062 q -0.40625,1.32813 -0.78125,2.67188 -0.35938,1.34375 -0.6875,2.75 h 2.92187 q -0.3125,-1.40625 -0.6875,-2.75 -0.35937,-1.34375 -0.76562,-2.67188 z m 5.17302,0.57813 q 0.29687,-0.1875 0.625,-0.4375 0.32812,-0.25 0.625,-0.54688 0.3125,-0.29687 0.57812,-0.60937 0.26563,-0.3125 0.4375,-0.625 h 1.0625 v 11.09375 h -1.375 v -8.90625 q -0.28125,0.28125 -0.64062,0.54687 -0.35938,0.25 -0.75,0.46875 z m 11.65628,2.5 h 1 q 1.98437,0 1.98437,-1.78125 0,-0.5625 -0.17187,-0.92188 -0.17188,-0.35937 -0.45313,-0.5625 -0.26562,-0.20312 -0.625,-0.28125 -0.35937,-0.0781 -0.75,-0.0781 -0.25,0 -0.5,0.0156 -0.23437,0.0156 -0.48437,0.0469 z m 0,1.15625 v 4 q 0.3125,0.0469 0.60937,0.0781 0.29688,0.0312 0.57813,0.0312 0.45312,0 0.84375,-0.0937 0.40625,-0.0937 0.70312,-0.3125 0.29688,-0.23437 0.45313,-0.625 0.17187,-0.39062 0.17187,-0.96875 0,-0.98437 -0.53125,-1.54687 -0.53125,-0.5625 -1.67187,-0.5625 z m -1.4375,-5.70313 q 0.5625,-0.14062 1.14062,-0.20312 0.59375,-0.0781 1.15625,-0.0781 0.73438,0 1.375,0.14063 0.64063,0.14062 1.14063,0.46875 0.5,0.32812 0.79687,0.85937 0.29688,0.53125 0.29688,1.32813 0,1 -0.42188,1.64062 -0.40625,0.625 -1.0625,0.92188 0.8125,0.32812 1.32813,0.98437 0.53125,0.65625 0.53125,1.79688 0,0.875 -0.28125,1.46875 -0.26563,0.57812 -0.78125,0.96875 -0.51563,0.375 -1.23438,0.54687 -0.70312,0.15625 -1.54687,0.15625 -0.5625,0 -1.17188,-0.0625 -0.60937,-0.0625 -1.26562,-0.1875 z m 8.36726,2.70313 q 0.42188,-0.1875 0.875,-0.28125 0.46875,-0.10938 1.01563,-0.10938 1.125,0 1.82812,0.70313 0.70313,0.6875 0.70313,2.15625 v 5.57812 q -0.57813,0.15625 -1.1875,0.25 -0.59375,0.0937 -1.17188,0.0937 -0.57812,0 -1.07812,-0.14062 -0.5,-0.14063 -0.875,-0.45313 -0.375,-0.32812 -0.60938,-0.8125 -0.21875,-0.5 -0.21875,-1.20312 0,-0.65625 0.20313,-1.14063 0.20312,-0.48437 0.54687,-0.8125 0.35938,-0.32812 0.82813,-0.5 0.48437,-0.17187 1.04687,-0.17187 0.53125,0 1.17188,0.14062 v -0.78125 q 0,-0.92187 -0.35938,-1.28125 -0.35937,-0.375 -1.03125,-0.375 -0.375,0 -0.70312,0.0781 -0.32813,0.0625 -0.70313,0.21875 z m 0.65625,5.76562 q 0,0.73438 0.375,1.09375 0.39063,0.34375 1.09375,0.34375 0.4375,0 0.95313,-0.10937 v -2.67188 q -0.48438,-0.125 -0.95313,-0.125 -0.29687,0 -0.57812,0.0781 -0.26563,0.0625 -0.46875,0.23437 -0.20313,0.17188 -0.3125,0.45313 -0.10938,0.28125 -0.10938,0.70312 z m 7.44402,-5.95312 h 2.10937 v 1.1875 h -2.10937 v 4.625 q 0,0.85937 0.3125,1.20312 0.3125,0.34375 0.84375,0.34375 0.26562,0 0.51562,-0.0781 0.25,-0.0781 0.42188,-0.1875 l 0.26562,1.10937 q -0.65625,0.375 -1.39062,0.375 -1.1875,0 -1.76563,-0.65625 -0.57812,-0.67187 -0.57812,-2.20312 v -7.96875 l 1.375,-0.23438 z m 6.33726,8.60937 q -0.875,0 -1.45312,-0.32812 -0.5625,-0.34375 -0.92188,-0.92188 -0.35937,-0.57812 -0.51562,-1.375 -0.15625,-0.8125 -0.15625,-1.75 0,-2.07812 0.75,-3.25 0.76562,-1.1875 2.3125,-1.1875 0.45312,0 0.82812,0.10938 0.375,0.10937 0.6875,0.29687 l -0.35937,1.125 q -0.48438,-0.3125 -1.09375,-0.3125 -0.85938,0 -1.28125,0.78125 -0.40625,0.78125 -0.40625,2.4375 0,0.6875 0.0781,1.28125 0.0937,0.57813 0.28125,1 0.20313,0.40625 0.53125,0.64063 0.32813,0.23437 0.84375,0.23437 0.34375,0 0.625,-0.0781 0.28125,-0.0937 0.54688,-0.23438 l 0.29687,1.07813 q -0.25,0.17187 -0.6875,0.3125 -0.42187,0.14062 -0.90625,0.14062 z m 3.08551,-0.20312 v -12.17188 l 1.375,-0.25 v 4.0625 q 0.29688,-0.0937 0.65625,-0.15625 0.35938,-0.0625 0.73438,-0.0625 0.53125,0 0.98437,0.17188 0.46875,0.17187 0.8125,0.57812 0.34375,0.39063 0.54688,1.07813 0.20312,0.67187 0.20312,1.67187 v 5.07813 h -1.375 v -4.95313 q 0,-1.25 -0.32812,-1.82812 -0.3125,-0.57813 -1.20313,-0.57813 -0.45312,0 -1.03125,0.15625 v 7.20313 z m 10.70704,-8.875 q 0.29687,-0.1875 0.625,-0.4375 0.32812,-0.25 0.625,-0.54688 0.3125,-0.29687 0.57812,-0.60937 0.26563,-0.3125 0.4375,-0.625 h 1.0625 v 11.09375 h -1.375 v -8.90625 q -0.28125,0.28125 -0.64062,0.54687 -0.35938,0.25 -0.75,0.46875 z"
       fill-rule="nonzero"
       id="path45" />
    <path
       fill="#6fa8dc"
       d="m 577.19946,324.37402 h 101.13385 v 42.01575 H 577.19946 Z"
       fill-rule="evenodd"
       id="path47" />
    <path
       fill="#f3f3f3"
       d="m 624.6414,338.37213 q 0.45312,1.39063 0.89062,2.82813 0.4375,1.42187 0.85938,2.98437 0.42187,1.5625 0.82812,3.32813 0.42188,1.75 0.85938,3.78125 h -1.6875 q -0.14063,-0.84375 -0.3125,-1.65625 -0.15625,-0.82813 -0.3125,-1.64063 h -4.07813 q -0.1875,0.8125 -0.34375,1.64063 -0.14062,0.8125 -0.28125,1.65625 h -1.625 q 0.40625,-2.03125 0.82813,-3.78125 0.4375,-1.76563 0.85937,-3.32813 0.42188,-1.5625 0.85938,-2.98437 0.4375,-1.4375 0.89062,-2.82813 z m -0.90625,1.89063 q -0.46875,1.54687 -0.90625,3.125 -0.42188,1.5625 -0.8125,3.20312 h 3.40625 q -0.375,-1.64062 -0.8125,-3.20312 -0.42188,-1.57813 -0.875,-3.125 z m 6.02472,0.67187 q 0.34375,-0.20312 0.71875,-0.5 0.39062,-0.29687 0.75,-0.64062 0.35937,-0.34375 0.65625,-0.70313 0.3125,-0.375 0.51562,-0.71875 h 1.23438 v 12.92188 h -1.60938 v -10.39063 q -0.3125,0.32813 -0.73437,0.64063 -0.42188,0.29687 -0.89063,0.54687 z"
       fill-rule="nonzero"
       id="path49" />
    <path
       fill="#e06666"
       d="m 577.19946,372.6601 h 101.13385 v 42.01575 H 577.19946 Z"
       fill-rule="evenodd"
       id="path51" />
    <path
       fill="#f3f3f3"
       d="m 624.6414,386.65823 q 0.45312,1.39062 0.89062,2.82812 0.4375,1.42188 0.85938,2.98438 0.42187,1.5625 0.82812,3.32812 0.42188,1.75 0.85938,3.78125 h -1.6875 q -0.14063,-0.84375 -0.3125,-1.65625 -0.15625,-0.82812 -0.3125,-1.64062 h -4.07813 q -0.1875,0.8125 -0.34375,1.64062 -0.14062,0.8125 -0.28125,1.65625 h -1.625 q 0.40625,-2.03125 0.82813,-3.78125 0.4375,-1.76562 0.85937,-3.32812 0.42188,-1.5625 0.85938,-2.98438 0.4375,-1.4375 0.89062,-2.82812 z m -0.90625,1.89062 q -0.46875,1.54688 -0.90625,3.125 -0.42188,1.5625 -0.8125,3.20313 h 3.40625 q -0.375,-1.64063 -0.8125,-3.20313 -0.42188,-1.57812 -0.875,-3.125 z m 5.54034,-1.09375 q 1.09375,-1.10937 2.67188,-1.10937 1.51562,0 2.3125,0.79687 0.8125,0.79688 0.8125,2.46875 0,0.79688 -0.26563,1.5 -0.26562,0.70313 -0.65625,1.375 -0.39062,0.65625 -0.85937,1.3125 -0.45313,0.65625 -0.89063,1.34375 -0.42187,0.67188 -0.75,1.40625 -0.3125,0.73438 -0.39062,1.57813 h 4.07812 v 1.45312 h -5.79687 v -0.35937 q 0,-1.25 0.28125,-2.21875 0.29687,-0.96875 0.71875,-1.75 0.42187,-0.78125 0.92187,-1.45313 0.51563,-0.67187 0.92188,-1.3125 0.42187,-0.65625 0.70312,-1.32812 0.29688,-0.6875 0.29688,-1.5 0,-0.98438 -0.39063,-1.42188 -0.39062,-0.45312 -1.17187,-0.45312 -0.54688,0 -0.98438,0.21875 -0.4375,0.21875 -0.78125,0.54687 z"
       fill-rule="nonzero"
       id="path53" />
    <path
       fill="#000000"
       fill-opacity="0"
       d="m 583.35693,287.15686 h 86.07873 v 42.01575 h -86.07873 z"
       fill-rule="evenodd"
       id="path55" />
    <path
       fill="#ffffff"
       d="m 600.7013,306.655 h 1.15625 q 2.3125,0 2.3125,-2.09375 0,-0.65625 -0.20313,-1.0625 -0.1875,-0.42188 -0.51562,-0.65625 -0.3125,-0.23438 -0.73438,-0.32813 -0.42187,-0.0937 -0.875,-0.0937 -0.28125,0 -0.57812,0.0156 -0.28125,0.0156 -0.5625,0.0625 z m 0,1.34375 v 4.65625 q 0.34375,0.0625 0.6875,0.10937 0.35937,0.0312 0.6875,0.0312 0.53125,0 0.98437,-0.10937 0.46875,-0.125 0.8125,-0.375 0.34375,-0.26563 0.53125,-0.71875 0.20313,-0.46875 0.20313,-1.14063 0,-1.15625 -0.625,-1.79687 -0.625,-0.65625 -1.9375,-0.65625 z m -1.6875,-6.67188 q 0.65625,-0.14062 1.32812,-0.21875 0.6875,-0.0937 1.35938,-0.0937 0.84375,0 1.59375,0.15625 0.76562,0.15625 1.34375,0.54688 0.57812,0.375 0.92187,1 0.34375,0.625 0.34375,1.5625 0,1.15625 -0.48437,1.90625 -0.48438,0.73437 -1.25,1.07812 0.95312,0.375 1.5625,1.14063 0.625,0.76562 0.625,2.10937 0,1 -0.32813,1.70313 -0.32812,0.6875 -0.9375,1.125 -0.59375,0.4375 -1.42187,0.64062 -0.82813,0.1875 -1.8125,0.1875 -0.65625,0 -1.375,-0.0781 -0.70313,-0.0781 -1.46875,-0.21875 z m 13.84491,4.40625 q -0.59375,-0.25 -1.34375,-0.25 -0.6875,0 -1.28125,0.23438 v 8.35937 h -1.60938 v -9.35937 q 0.54688,-0.26563 1.23438,-0.4375 0.70312,-0.1875 1.54687,-0.1875 0.45313,0 0.89063,0.0625 0.45312,0.0469 0.84375,0.20312 z m 7.99506,3.45313 q 0,1.15625 -0.21875,2.10937 -0.20313,0.9375 -0.625,1.60938 -0.40625,0.67187 -1.0625,1.04687 -0.64063,0.375 -1.51563,0.375 -0.875,0 -1.53125,-0.375 -0.65625,-0.375 -1.07812,-1.04687 -0.40625,-0.67188 -0.625,-1.60938 -0.20313,-0.95312 -0.20313,-2.10937 0,-1.14063 0.20313,-2.07813 0.21875,-0.95312 0.625,-1.64062 0.42187,-0.6875 1.07812,-1.04688 0.65625,-0.375 1.53125,-0.375 0.875,0 1.51563,0.375 0.65625,0.35938 1.0625,1.04688 0.42187,0.6875 0.625,1.64062 0.21875,0.9375 0.21875,2.07813 z m -1.6875,0 q 0,-0.8125 -0.0937,-1.5 -0.0937,-0.6875 -0.29688,-1.17188 -0.20312,-0.5 -0.54687,-0.76562 -0.32813,-0.26563 -0.79688,-0.26563 -0.48437,0 -0.8125,0.26563 -0.32812,0.26562 -0.54687,0.76562 -0.20313,0.48438 -0.29688,1.17188 -0.0937,0.6875 -0.0937,1.5 0,0.82812 0.0937,1.51562 0.0937,0.67188 0.29688,1.15625 0.21875,0.48438 0.54687,0.76563 0.32813,0.26562 0.8125,0.26562 0.46875,0 0.79688,-0.26562 0.34375,-0.28125 0.54687,-0.76563 0.20313,-0.48437 0.29688,-1.15625 0.0937,-0.6875 0.0937,-1.51562 z m 10.091,-4.90625 q -0.78125,1.34375 -1.5,2.45312 -0.71875,1.10938 -1.42188,2.07813 0.4375,0.53125 0.90625,1.1875 0.46875,0.64062 0.89063,1.34375 0.4375,0.70312 0.8125,1.40625 0.375,0.6875 0.625,1.32812 h -1.75 q -0.28125,-0.60937 -0.65625,-1.28125 -0.35938,-0.67187 -0.78125,-1.3125 -0.40625,-0.65625 -0.8125,-1.23437 -0.40625,-0.57813 -0.76563,-0.96875 v 4.79687 h -1.60937 v -14.20312 l 1.60937,-0.28125 v 8.90625 q 0.32813,-0.45313 0.70313,-1 0.39062,-0.5625 0.76562,-1.125 0.375,-0.57813 0.70313,-1.10938 0.34375,-0.54687 0.5625,-0.98437 z m 2.73309,5.375 q 0.0156,0.70312 0.125,1.29687 0.10938,0.59375 0.35938,1.03125 0.25,0.4375 0.67187,0.6875 0.42188,0.23438 1.07813,0.23438 0.53125,0 0.98437,-0.15625 0.46875,-0.17188 0.67188,-0.28125 l 0.29687,1.29687 q -0.23437,0.15625 -0.8125,0.35938 -0.5625,0.20312 -1.34375,0.20312 -1.03125,0 -1.73437,-0.375 -0.6875,-0.375 -1.14063,-1.04687 -0.4375,-0.67188 -0.625,-1.60938 -0.17187,-0.9375 -0.17187,-2.04687 0,-2.70313 0.89062,-3.95313 0.89063,-1.25 2.35938,-1.25 1.67187,0 2.35937,1.25 0.6875,1.25 0.6875,3.5 0,0.20313 0,0.42188 0,0.21875 -0.0156,0.4375 z m 1.60938,-4.25 q -0.79688,0 -1.15625,0.79687 -0.35938,0.79688 -0.4375,2.14063 h 2.96875 q 0,-1.35938 -0.28125,-2.14063 -0.28125,-0.79687 -1.09375,-0.79687 z m 9.64972,0.32812 q -0.59375,-0.25 -1.34375,-0.25 -0.6875,0 -1.28125,0.23438 v 8.35937 h -1.60938 v -9.35937 q 0.54688,-0.26563 1.23438,-0.4375 0.70312,-0.1875 1.54687,-0.1875 0.45313,0 0.89063,0.0625 0.45312,0.0469 0.84375,0.20312 z m 4.89788,-3.78125 q 1.09375,-1.10937 2.67188,-1.10937 1.51562,0 2.3125,0.79687 0.8125,0.79688 0.8125,2.46875 0,0.79688 -0.26563,1.5 -0.26562,0.70313 -0.65625,1.375 -0.39062,0.65625 -0.85937,1.3125 -0.45313,0.65625 -0.89063,1.34375 -0.42187,0.67188 -0.75,1.40625 -0.3125,0.73438 -0.39062,1.57813 h 4.07812 v 1.45312 h -5.79687 v -0.35937 q 0,-1.25 0.28125,-2.21875 0.29687,-0.96875 0.71875,-1.75 0.42187,-0.78125 0.92187,-1.45313 0.51563,-0.67187 0.92188,-1.3125 0.42187,-0.65625 0.70312,-1.32812 0.29688,-0.6875 0.29688,-1.5 0,-0.98438 -0.39063,-1.42188 -0.39062,-0.45312 -1.17187,-0.45312 -0.54688,0 -0.98438,0.21875 -0.4375,0.21875 -0.78125,0.54687 z"
       fill-rule="nonzero"
       id="path57" />
    <path
       fill="#000000"
       fill-opacity="0"
       d="M 563.584,309.66885 V 427.21606"
       fill-rule="evenodd"
       id="path59" />
    <path
       stroke="#f3f3f3"
       stroke-width="1"
       stroke-linejoin="round"
       stroke-linecap="butt"
       d="M 563.584,309.66885 V 427.21606"
       fill-rule="evenodd"
       id="path61" />
    <path
       fill="#000000"
       fill-opacity="0"
       d="M 691.8727,309.66885 V 427.21606"
       fill-rule="evenodd"
       id="path63" />
    <path
       stroke="#f3f3f3"
       stroke-width="1"
       stroke-linejoin="round"
       stroke-linecap="butt"
       d="M 691.8727,309.66885 V 427.21606"
       fill-rule="evenodd"
       id="path65" />
    <path
       fill="#000000"
       fill-opacity="0"
       d="M 563.20404,427.21606 H 692.00915"
       fill-rule="evenodd"
       id="path67" />
    <path
       stroke="#f3f3f3"
       stroke-width="1"
       stroke-linejoin="round"
       stroke-linecap="butt"
       d="M 563.20404,427.21606 H 692.00915"
       fill-rule="evenodd"
       id="path69" />
    <path
       fill="#000000"
       fill-opacity="0"
       d="m 563.584,309.90305 h 26.30188"
       fill-rule="evenodd"
       id="path71" />
    <path
       stroke="#f3f3f3"
       stroke-width="1"
       stroke-linejoin="round"
       stroke-linecap="butt"
       d="m 563.584,309.90305 h 26.30188"
       fill-rule="evenodd"
       id="path73" />
    <path
       fill="#000000"
       fill-opacity="0"
       d="m 664.73785,309.90305 h 26.30194"
       fill-rule="evenodd"
       id="path75" />
    <path
       stroke="#f3f3f3"
       stroke-width="1"
       stroke-linejoin="round"
       stroke-linecap="butt"
       d="m 664.73785,309.90305 h 26.30194"
       fill-rule="evenodd"
       id="path77" />
    <path
       fill="#000000"
       fill-opacity="0"
       d="m 323.5958,277.75565 c 59.89764,0 89.84647,-29.6378 119.79529,-59.27559 29.94882,-29.6378 59.89764,-59.27559 119.79526,-59.27559"
       fill-rule="evenodd"
       id="path79" />
    <path
       stroke="#efefef"
       stroke-width="2"
       stroke-linejoin="round"
       stroke-linecap="butt"
       d="m 323.5958,277.75565 c 59.89764,0 89.84647,-29.6378 119.79529,-59.2756 14.9744,-14.8189 29.94882,-29.63779 48.66681,-40.75197 9.35901,-5.55709 19.65393,-10.18799 31.35269,-13.42963 5.84937,-1.6208 12.04975,-2.8943 18.65949,-3.7626 1.65246,-0.21708 3.3305,-0.40883 5.03503,-0.57434 0.8523,-0.0828 1.71118,-0.15896 2.57684,-0.22849 0.4328,-0.0348 0.86731,-0.0679 1.30353,-0.0993 l 0.20807,-0.0141"
       fill-rule="evenodd"
       id="path81" />
    <path
       fill="#efefef"
       stroke="#efefef"
       stroke-width="2"
       stroke-linecap="butt"
       d="m 551.3078,162.9211 8.95648,-3.61549 -9.18506,-2.98749 z"
       fill-rule="evenodd"
       id="path83" />
    <path
       fill="#e06666"
       d="m 577.1982,141.02887 h 101.13385 v 42.01575 H 577.1982 Z"
       fill-rule="evenodd"
       id="path85" />
    <path
       fill="#f3f3f3"
       d="m 624.6401,155.027 q 0.45312,1.39062 0.89062,2.82812 0.4375,1.42188 0.85938,2.98438 0.42187,1.5625 0.82812,3.32812 0.42188,1.75 0.85938,3.78125 h -1.6875 q -0.14063,-0.84375 -0.3125,-1.65625 -0.15625,-0.82812 -0.3125,-1.64062 h -4.07813 q -0.1875,0.8125 -0.34375,1.64062 -0.14062,0.8125 -0.28125,1.65625 h -1.625 q 0.40625,-2.03125 0.82813,-3.78125 0.4375,-1.76562 0.85937,-3.32812 0.42188,-1.5625 0.85938,-2.98438 0.4375,-1.4375 0.89062,-2.82812 z m -0.90625,1.89062 q -0.46875,1.54688 -0.90625,3.125 -0.42188,1.5625 -0.8125,3.20313 h 3.40625 q -0.375,-1.64063 -0.8125,-3.20313 -0.42188,-1.57812 -0.875,-3.125 z m 6.02472,0.67188 q 0.34375,-0.20313 0.71875,-0.5 0.39062,-0.29688 0.75,-0.64063 0.35937,-0.34375 0.65625,-0.70312 0.3125,-0.375 0.51562,-0.71875 h 1.23438 v 12.92187 h -1.60938 v -10.39062 q -0.3125,0.32812 -0.73437,0.64062 -0.42188,0.29688 -0.89063,0.54688 z"
       fill-rule="nonzero"
       id="path87" />
    <path
       fill="#6fa8dc"
       d="m 577.1982,189.31496 h 101.13385 v 42.01575 H 577.1982 Z"
       fill-rule="evenodd"
       id="path89" />
    <path
       fill="#f3f3f3"
       d="m 624.6401,203.31308 q 0.45312,1.39063 0.89062,2.82813 0.4375,1.42187 0.85938,2.98437 0.42187,1.5625 0.82812,3.32813 0.42188,1.75 0.85938,3.78125 h -1.6875 q -0.14063,-0.84375 -0.3125,-1.65625 -0.15625,-0.82813 -0.3125,-1.64063 h -4.07813 q -0.1875,0.8125 -0.34375,1.64063 -0.14062,0.8125 -0.28125,1.65625 h -1.625 q 0.40625,-2.03125 0.82813,-3.78125 0.4375,-1.76563 0.85937,-3.32813 0.42188,-1.5625 0.85938,-2.98437 0.4375,-1.4375 0.89062,-2.82813 z m -0.90625,1.89063 q -0.46875,1.54687 -0.90625,3.125 -0.42188,1.5625 -0.8125,3.20312 h 3.40625 q -0.375,-1.64062 -0.8125,-3.20312 -0.42188,-1.57813 -0.875,-3.125 z m 5.54034,-1.09375 q 1.09375,-1.10938 2.67188,-1.10938 1.51562,0 2.3125,0.79688 0.8125,0.79687 0.8125,2.46875 0,0.79687 -0.26563,1.5 -0.26562,0.70312 -0.65625,1.375 -0.39062,0.65625 -0.85937,1.3125 -0.45313,0.65625 -0.89063,1.34375 -0.42187,0.67187 -0.75,1.40625 -0.3125,0.73437 -0.39062,1.57812 h 4.07812 v 1.45313 h -5.79687 v -0.35938 q 0,-1.25 0.28125,-2.21875 0.29687,-0.96875 0.71875,-1.75 0.42187,-0.78125 0.92187,-1.45312 0.51563,-0.67188 0.92188,-1.3125 0.42187,-0.65625 0.70312,-1.32813 0.29688,-0.6875 0.29688,-1.5 0,-0.98437 -0.39063,-1.42187 -0.39062,-0.45313 -1.17187,-0.45313 -0.54688,0 -0.98438,0.21875 -0.4375,0.21875 -0.78125,0.54688 z"
       fill-rule="nonzero"
       id="path91" />
    <path
       fill="#000000"
       fill-opacity="0"
       d="m 583.35565,103.81173 h 86.07874 v 42.01575 h -86.07874 z"
       fill-rule="evenodd"
       id="path93" />
    <path
       fill="#ffffff"
       d="m 600.69995,123.30985 h 1.15625 q 2.3125,0 2.3125,-2.09375 0,-0.65625 -0.20313,-1.0625 -0.1875,-0.42188 -0.51562,-0.65625 -0.3125,-0.23438 -0.73438,-0.32813 -0.42187,-0.0937 -0.875,-0.0937 -0.28125,0 -0.57812,0.0156 -0.28125,0.0156 -0.5625,0.0625 z m 0,1.34375 v 4.65624 q 0.34375,0.0625 0.6875,0.10938 0.35937,0.0312 0.6875,0.0312 0.53125,0 0.98437,-0.10938 0.46875,-0.125 0.8125,-0.375 0.34375,-0.26562 0.53125,-0.71875 0.20313,-0.46874 0.20313,-1.14061 0,-1.15625 -0.625,-1.79688 -0.625,-0.65625 -1.9375,-0.65625 z m -1.6875,-6.67188 q 0.65625,-0.14062 1.32812,-0.21875 0.6875,-0.0937 1.35938,-0.0937 0.84375,0 1.59375,0.15625 0.76562,0.15625 1.34375,0.54688 0.57812,0.375 0.92187,1 0.34375,0.625 0.34375,1.5625 0,1.15625 -0.48437,1.90625 -0.48438,0.73437 -1.25,1.07812 0.95312,0.375 1.5625,1.14063 0.625,0.76562 0.625,2.10937 0,1 -0.32813,1.70312 -0.32812,0.6875 -0.9375,1.125 -0.59375,0.4375 -1.42187,0.64063 -0.82813,0.1875 -1.8125,0.1875 -0.65625,0 -1.375,-0.0781 -0.70313,-0.0781 -1.46875,-0.21875 z m 13.84491,4.40625 q -0.59375,-0.25 -1.34375,-0.25 -0.6875,0 -1.28125,0.23438 v 8.35937 h -1.60938 v -9.35937 q 0.54688,-0.26563 1.23438,-0.4375 0.70312,-0.1875 1.54687,-0.1875 0.45313,0 0.89063,0.0625 0.45312,0.0469 0.84375,0.20312 z m 7.99512,3.45313 q 0,1.15625 -0.21875,2.10937 -0.20313,0.9375 -0.625,1.60937 -0.40625,0.67188 -1.0625,1.04688 -0.64063,0.375 -1.51563,0.375 -0.875,0 -1.53125,-0.375 -0.65625,-0.375 -1.07812,-1.04688 -0.40625,-0.67187 -0.625,-1.60936 -0.20313,-0.95313 -0.20313,-2.10938 0,-1.14062 0.20313,-2.07812 0.21875,-0.95313 0.625,-1.64063 0.42187,-0.6875 1.07812,-1.04687 0.65625,-0.375 1.53125,-0.375 0.875,0 1.51563,0.375 0.65625,0.35937 1.0625,1.04687 0.42187,0.6875 0.625,1.64063 0.21875,0.9375 0.21875,2.07812 z m -1.6875,0 q 0,-0.8125 -0.0937,-1.5 -0.0937,-0.6875 -0.29688,-1.17188 -0.20312,-0.5 -0.54687,-0.76562 -0.32813,-0.26563 -0.79688,-0.26563 -0.48437,0 -0.8125,0.26563 -0.32812,0.26562 -0.54687,0.76562 -0.20313,0.48438 -0.29688,1.17188 -0.0937,0.6875 -0.0937,1.5 0,0.82812 0.0937,1.51562 0.0937,0.67187 0.29688,1.15625 0.21875,0.48437 0.54687,0.76562 0.32813,0.26563 0.8125,0.26563 0.46875,0 0.79688,-0.26563 0.34375,-0.28125 0.54687,-0.76562 0.20313,-0.48438 0.29688,-1.15624 0.0937,-0.6875 0.0937,-1.51563 z m 10.09094,-4.90625 q -0.78125,1.34375 -1.5,2.45312 -0.71875,1.10938 -1.42188,2.07813 0.4375,0.53125 0.90625,1.1875 0.46875,0.64062 0.89063,1.34375 0.4375,0.70312 0.8125,1.40624 0.375,0.6875 0.625,1.32813 h -1.75 q -0.28125,-0.60938 -0.65625,-1.28125 -0.35938,-0.67188 -0.78125,-1.3125 -0.40625,-0.65624 -0.8125,-1.23437 -0.40625,-0.57812 -0.76563,-0.96875 v 4.79687 h -1.60937 V 116.5286 l 1.60937,-0.28125 v 8.90625 q 0.32813,-0.45312 0.70313,-1 0.39062,-0.5625 0.76562,-1.125 0.375,-0.57812 0.70313,-1.10937 0.34375,-0.54688 0.5625,-0.98438 z m 2.73309,5.375 q 0.0156,0.70312 0.125,1.29687 0.10938,0.59375 0.35938,1.03125 0.25,0.4375 0.67187,0.6875 0.42188,0.23437 1.07813,0.23437 0.53125,0 0.98437,-0.15625 0.46875,-0.17187 0.67188,-0.28125 l 0.29687,1.29688 q -0.23437,0.15625 -0.8125,0.35937 -0.5625,0.20313 -1.34375,0.20313 -1.03125,0 -1.73437,-0.375 -0.6875,-0.375 -1.14063,-1.04688 -0.4375,-0.67187 -0.625,-1.60936 -0.17187,-0.9375 -0.17187,-2.04688 0,-2.70312 0.89062,-3.95312 0.89063,-1.25 2.35938,-1.25 1.67187,0 2.35937,1.25 0.6875,1.25 0.6875,3.5 0,0.20312 0,0.42187 0,0.21875 -0.0156,0.4375 z m 1.60938,-4.25 q -0.79688,0 -1.15625,0.79687 -0.35938,0.79688 -0.4375,2.14063 h 2.96875 q 0,-1.35938 -0.28125,-2.14063 -0.28125,-0.79687 -1.09375,-0.79687 z m 9.64978,0.32812 q -0.59375,-0.25 -1.34375,-0.25 -0.6875,0 -1.28125,0.23438 v 8.35937 h -1.60938 v -9.35937 q 0.54688,-0.26563 1.23438,-0.4375 0.70312,-0.1875 1.54687,-0.1875 0.45313,0 0.89063,0.0625 0.45312,0.0469 0.84375,0.20312 z m 5.3822,-2.01562 q 0.34375,-0.20313 0.71875,-0.5 0.39062,-0.29688 0.75,-0.64063 0.35937,-0.34375 0.65625,-0.70312 0.3125,-0.375 0.51562,-0.71875 h 1.23438 v 12.92187 h -1.60938 V 120.3411 q -0.3125,0.32812 -0.73437,0.64062 -0.42188,0.29688 -0.89063,0.54688 z"
       fill-rule="nonzero"
       id="path95" />
    <path
       fill="#000000"
       fill-opacity="0"
       d="m 563.58276,126.32252 v 117.288"
       fill-rule="evenodd"
       id="path97" />
    <path
       stroke="#f3f3f3"
       stroke-width="1"
       stroke-linejoin="round"
       stroke-linecap="butt"
       d="m 563.58276,126.32252 v 117.288"
       fill-rule="evenodd"
       id="path99" />
    <path
       fill="#000000"
       fill-opacity="0"
       d="m 691.87146,126.32252 v 117.288"
       fill-rule="evenodd"
       id="path101" />
    <path
       stroke="#f3f3f3"
       stroke-width="1"
       stroke-linejoin="round"
       stroke-linecap="butt"
       d="m 691.87146,126.32252 v 117.288"
       fill-rule="evenodd"
       id="path103" />
    <path
       fill="#000000"
       fill-opacity="0"
       d="M 563.2028,243.61052 H 692.00791"
       fill-rule="evenodd"
       id="path105" />
    <path
       stroke="#f3f3f3"
       stroke-width="1"
       stroke-linejoin="round"
       stroke-linecap="butt"
       d="M 563.2028,243.61052 H 692.00791"
       fill-rule="evenodd"
       id="path107" />
    <path
       fill="#000000"
       fill-opacity="0"
       d="m 563.58276,126.55621 h 26.30188"
       fill-rule="evenodd"
       id="path109" />
    <path
       stroke="#f3f3f3"
       stroke-width="1"
       stroke-linejoin="round"
       stroke-linecap="butt"
       d="m 563.58276,126.55621 h 26.30188"
       fill-rule="evenodd"
       id="path111" />
    <path
       fill="#000000"
       fill-opacity="0"
       d="m 664.7367,126.55621 h 26.30188"
       fill-rule="evenodd"
       id="path113" />
    <path
       stroke="#f3f3f3"
       stroke-width="1"
       stroke-linejoin="round"
       stroke-linecap="butt"
       d="m 664.7367,126.55621 h 26.30188"
       fill-rule="evenodd"
       id="path115" />
    <path
       fill="#000000"
       fill-opacity="0"
       d="M 174.17848,111.81102 H 275.40683 V 134.4252 H 174.17848 Z"
       fill-rule="evenodd"
       id="path117" />
    <path
       fill="#f3f3f3"
       d="m 178.27354,128.57477 q 1,0 1.54687,-0.5625 0.5625,-0.5625 0.5625,-1.51562 0,-0.5 -0.17187,-0.89063 -0.17188,-0.39062 -0.4375,-0.70312 -0.26563,-0.32813 -0.625,-0.57813 -0.35938,-0.26562 -0.71875,-0.53125 -0.4375,-0.29687 -0.90625,-0.625 -0.46875,-0.34375 -0.85938,-0.78125 -0.375,-0.45312 -0.625,-1.04687 -0.23437,-0.60938 -0.23437,-1.40625 0,-0.78125 0.26562,-1.40625 0.28125,-0.64063 0.75,-1.09375 0.48438,-0.45313 1.14063,-0.6875 0.67187,-0.25 1.4375,-0.25 0.73437,0 1.375,0.1875 0.64062,0.1875 1.0625,0.45312 l -0.51563,1.32813 q -0.39062,-0.26563 -0.85937,-0.40625 -0.45313,-0.14063 -0.95313,-0.14063 -0.92187,0 -1.46875,0.5 -0.54687,0.48438 -0.54687,1.4375 0,0.53125 0.17187,0.92188 0.1875,0.39062 0.46875,0.71875 0.29688,0.3125 0.67188,0.57812 0.375,0.25 0.8125,0.53125 0.42187,0.28125 0.875,0.625 0.45312,0.32813 0.8125,0.76563 0.35937,0.4375 0.59375,1.03125 0.23437,0.57812 0.23437,1.375 0,0.73437 -0.23437,1.39062 -0.21875,0.65625 -0.6875,1.15625 -0.46875,0.48437 -1.1875,0.78125 -0.71875,0.28125 -1.6875,0.28125 -0.90625,0 -1.57813,-0.20313 -0.67187,-0.20312 -1.1875,-0.54687 l 0.51563,-1.34375 q 0.48437,0.29687 1,0.48437 0.51562,0.17188 1.1875,0.17188 z m 7.22647,-3.26562 q 0.0156,0.70312 0.125,1.29687 0.10938,0.59375 0.35938,1.03125 0.25,0.4375 0.67187,0.6875 0.42188,0.23437 1.07813,0.23437 0.53125,0 0.98437,-0.15625 0.46875,-0.17187 0.67188,-0.28125 l 0.29687,1.29688 q -0.23437,0.15625 -0.8125,0.35937 -0.5625,0.20313 -1.34375,0.20313 -1.03125,0 -1.73437,-0.375 -0.6875,-0.375 -1.14063,-1.04688 -0.4375,-0.67187 -0.625,-1.60937 -0.17187,-0.9375 -0.17187,-2.04687 0,-2.70313 0.89062,-3.95313 0.89063,-1.25 2.35938,-1.25 1.67187,0 2.35937,1.25 0.6875,1.25 0.6875,3.5 0,0.20313 0,0.42188 0,0.21875 -0.0156,0.4375 z m 1.60938,-4.25 q -0.79688,0 -1.15625,0.79687 -0.35938,0.79688 -0.4375,2.14063 h 2.96875 q 0,-1.35938 -0.28125,-2.14063 -0.28125,-0.79687 -1.09375,-0.79687 z m 5.41537,-0.84375 q 0.6875,-0.20313 1.48438,-0.34375 0.8125,-0.14063 1.48437,-0.14063 0.73438,0 1.32813,0.20313 0.59375,0.1875 1.01562,0.65625 0.42188,0.46875 0.65625,1.26562 0.23438,0.78125 0.23438,1.96875 v 5.90625 h -1.60938 v -5.78125 q 0,-1.45312 -0.375,-2.125 -0.375,-0.67187 -1.40625,-0.67187 -0.53125,0 -1.20312,0.1875 v 8.39062 h -1.60938 z m 13.21106,1.1875 q -0.54687,-0.29688 -1.15625,-0.29688 -0.46875,0 -0.82812,0.1875 -0.34375,0.1875 -0.60938,0.625 -0.25,0.42188 -0.375,1.14063 -0.125,0.70312 -0.125,1.75 0,2.01562 0.53125,2.89062 0.53125,0.85937 1.60938,0.85937 0.20312,0 0.4375,-0.0312 0.25,-0.0312 0.51562,-0.10937 z m 0,-5.875 1.60938,-0.28125 v 14.21874 q -0.53125,0.23438 -1.20313,0.375 -0.67187,0.14063 -1.35937,0.14063 -2.01563,0 -2.92188,-1.28125 -0.90625,-1.29687 -0.90625,-3.89062 0,-1.17188 0.1875,-2.10938 0.20313,-0.95312 0.625,-1.60937 0.42188,-0.67188 1.07813,-1.03125 0.65625,-0.35938 1.54687,-0.35938 0.42188,0 0.73438,0.0781 0.3125,0.0781 0.60937,0.23437 z m 5.60309,9.78125 q 0.0156,0.70312 0.125,1.29687 0.10937,0.59375 0.35937,1.03125 0.25,0.4375 0.67188,0.6875 0.42187,0.23437 1.07812,0.23437 0.53125,0 0.98438,-0.15625 0.46875,-0.17187 0.67187,-0.28125 l 0.29688,1.29688 q -0.23438,0.15625 -0.8125,0.35937 -0.5625,0.20313 -1.34375,0.20313 -1.03125,0 -1.73438,-0.375 -0.6875,-0.375 -1.14062,-1.04688 -0.4375,-0.67187 -0.625,-1.60937 -0.17188,-0.9375 -0.17188,-2.04687 0,-2.70313 0.89063,-3.95313 0.89062,-1.25 2.35937,-1.25 1.67188,0 2.35938,1.25 0.6875,1.25 0.6875,3.5 0,0.20313 0,0.42188 0,0.21875 -0.0156,0.4375 z m 1.60937,-4.25 q -0.79687,0 -1.15625,0.79687 -0.35937,0.79688 -0.4375,2.14063 h 2.96875 q 0,-1.35938 -0.28125,-2.14063 -0.28125,-0.79687 -1.09375,-0.79687 z m 9.64975,0.32812 q -0.59375,-0.25 -1.34375,-0.25 -0.6875,0 -1.28125,0.23438 v 8.35937 h -1.60937 v -9.35937 q 0.54687,-0.26563 1.23437,-0.4375 0.70313,-0.1875 1.54688,-0.1875 0.45312,0 0.89062,0.0625 0.45313,0.0469 0.84375,0.20312 z m 11.75722,-4.57812 v 1.42187 h -2.875 v 11.5 h -1.67187 v -11.5 h -2.875 v -1.42187 z m 1.7132,12.92187 V 115.5279 l 1.60937,-0.28125 v 4.75 q 0.35938,-0.10938 0.76563,-0.1875 0.42187,-0.0781 0.85937,-0.0781 0.60938,0 1.14063,0.20313 0.54687,0.1875 0.95312,0.65625 0.40625,0.46875 0.64063,1.26562 0.23437,0.78125 0.23437,1.96875 v 5.90625 h -1.60937 v -5.78125 q 0,-1.45312 -0.375,-2.125 -0.375,-0.67187 -1.40625,-0.67187 -0.53125,0 -1.20313,0.1875 v 8.39062 z m 13.22668,-8.34375 q -0.59375,-0.25 -1.34375,-0.25 -0.6875,0 -1.28125,0.23438 v 8.35937 h -1.60937 v -9.35937 q 0.54687,-0.26563 1.23437,-0.4375 0.70313,-0.1875 1.54688,-0.1875 0.45312,0 0.89062,0.0625 0.45313,0.0469 0.84375,0.20312 z m 2.80759,3.92188 q 0.0156,0.70312 0.125,1.29687 0.10937,0.59375 0.35937,1.03125 0.25,0.4375 0.67188,0.6875 0.42187,0.23437 1.07812,0.23437 0.53125,0 0.98438,-0.15625 0.46875,-0.17187 0.67187,-0.28125 l 0.29688,1.29688 q -0.23438,0.15625 -0.8125,0.35937 -0.5625,0.20313 -1.34375,0.20313 -1.03125,0 -1.73438,-0.375 -0.6875,-0.375 -1.14062,-1.04688 -0.4375,-0.67187 -0.625,-1.60937 -0.17188,-0.9375 -0.17188,-2.04687 0,-2.70313 0.89063,-3.95313 0.89062,-1.25 2.35937,-1.25 1.67188,0 2.35938,1.25 0.6875,1.25 0.6875,3.5 0,0.20313 0,0.42188 0,0.21875 -0.0156,0.4375 z m 1.60937,-4.25 q -0.79687,0 -1.15625,0.79687 -0.35937,0.79688 -0.4375,2.14063 h 2.96875 q 0,-1.35938 -0.28125,-2.14063 -0.28125,-0.79687 -1.09375,-0.79687 z m 5.57163,-0.92188 q 0.48437,-0.20312 1.01562,-0.3125 0.54688,-0.125 1.1875,-0.125 1.29688,0 2.10938,0.8125 0.82812,0.8125 0.82812,2.51563 v 6.49999 q -0.67187,0.1875 -1.375,0.29688 -0.6875,0.10937 -1.35937,0.10937 -0.67188,0 -1.26563,-0.17187 -0.57812,-0.15625 -1.03125,-0.53125 -0.4375,-0.375 -0.70312,-0.9375 -0.25,-0.57812 -0.25,-1.39062 0,-0.76563 0.23437,-1.32813 0.23438,-0.57812 0.64063,-0.95312 0.40625,-0.39063 0.96875,-0.57813 0.5625,-0.20312 1.21875,-0.20312 0.60937,0 1.35937,0.14062 v -0.89062 q 0,-1.07813 -0.42187,-1.5 -0.42188,-0.4375 -1.20313,-0.4375 -0.42187,0 -0.8125,0.0937 -0.375,0.0781 -0.8125,0.25 z m 0.76562,6.73438 q 0,0.85937 0.4375,1.28124 0.45313,0.40625 1.26563,0.40625 0.51562,0 1.10937,-0.14062 v -3.10937 q -0.5625,-0.15625 -1.10937,-0.15625 -0.34375,0 -0.67188,0.0937 -0.3125,0.0781 -0.54687,0.28125 -0.23438,0.1875 -0.35938,0.51562 -0.125,0.32813 -0.125,0.82813 z m 11.39371,-5.46875 q -0.54687,-0.29688 -1.15625,-0.29688 -0.46875,0 -0.82812,0.1875 -0.34375,0.1875 -0.60938,0.625 -0.25,0.42188 -0.375,1.14063 -0.125,0.70312 -0.125,1.75 0,2.01562 0.53125,2.89062 0.53125,0.85937 1.60938,0.85937 0.20312,0 0.4375,-0.0312 0.25,-0.0312 0.51562,-0.10937 z m 0,-5.875 1.60938,-0.28125 v 14.21874 q -0.53125,0.23438 -1.20313,0.375 -0.67187,0.14063 -1.35937,0.14063 -2.01563,0 -2.92188,-1.28125 -0.90625,-1.29687 -0.90625,-3.89062 0,-1.17188 0.1875,-2.10938 0.20313,-0.95312 0.625,-1.60937 0.42188,-0.67188 1.07813,-1.03125 0.65625,-0.35938 1.54687,-0.35938 0.42188,0 0.73438,0.0781 0.3125,0.0781 0.60937,0.23437 z"
       fill-rule="nonzero"
       id="path119" />
    <path
       fill="#434343"
       d="m 336,253.59317 v 0 c 0,-7.51454 6.09174,-13.60629 13.60629,-13.60629 v 0 c 3.60861,0 7.06943,1.43351 9.62113,3.9852 2.55166,2.55166 3.98517,6.01248 3.98517,9.62109 v 0 c 0,7.51456 -6.09174,13.60629 -13.6063,13.60629 v 0 C 342.09174,267.19946 336,261.10773 336,253.59317 Z"
       fill-rule="evenodd"
       id="path121" />
    <path
       stroke="#f3f3f3"
       stroke-width="1"
       stroke-linejoin="round"
       stroke-linecap="butt"
       d="m 336,253.59317 v 0 c 0,-7.51454 6.09174,-13.60629 13.60629,-13.60629 v 0 c 3.60861,0 7.06943,1.43351 9.62113,3.9852 2.55166,2.55166 3.98517,6.01248 3.98517,9.62109 v 0 c 0,7.51456 -6.09174,13.60629 -13.6063,13.60629 v 0 C 342.09174,267.19946 336,261.10773 336,253.59317 Z"
       fill-rule="evenodd"
       id="path123" />
    <path
       fill="#f3f3f3"
       d="m 347.2913,250.57817 q 0.29687,-0.1875 0.625,-0.4375 0.32812,-0.25 0.625,-0.54688 0.3125,-0.29687 0.57812,-0.60937 0.26563,-0.3125 0.4375,-0.625 h 1.0625 v 11.09377 h -1.375 v -8.90627 q -0.28125,0.28125 -0.64062,0.54688 -0.35938,0.25 -0.75,0.46875 z"
       fill-rule="nonzero"
       id="path125" />
    <path
       fill="#434343"
       d="m 722.9596,341.18634 v 0 c 0,-7.51453 6.09174,-13.60629 13.60626,-13.60629 v 0 c 3.60864,0 7.06946,1.43353 9.62116,3.9852 2.55163,2.55166 3.98517,6.01248 3.98517,9.62109 v 0 c 0,7.51456 -6.09174,13.60632 -13.60633,13.60632 v 0 c -7.51452,0 -13.60626,-6.09176 -13.60626,-13.60632 z"
       fill-rule="evenodd"
       id="path127" />
    <path
       stroke="#f3f3f3"
       stroke-width="1"
       stroke-linejoin="round"
       stroke-linecap="butt"
       d="m 722.9596,341.18634 v 0 c 0,-7.51453 6.09174,-13.60629 13.60626,-13.60629 v 0 c 3.60864,0 7.06946,1.43353 9.62116,3.9852 2.55163,2.55166 3.98517,6.01248 3.98517,9.62109 v 0 c 0,7.51456 -6.09174,13.60632 -13.60633,13.60632 v 0 c -7.51452,0 -13.60626,-6.09176 -13.60626,-13.60632 z"
       fill-rule="evenodd"
       id="path129" />
    <path
       fill="#f3f3f3"
       d="m 733.829,336.6401 q 0.9375,-0.9375 2.3125,-0.9375 1.28125,0 1.96875,0.6875 0.70312,0.67188 0.70312,2.10938 0,0.67187 -0.23437,1.28125 -0.21875,0.60937 -0.5625,1.1875 -0.32813,0.5625 -0.73438,1.125 -0.39062,0.54687 -0.76562,1.14062 -0.35938,0.57813 -0.64063,1.21875 -0.26562,0.625 -0.32812,1.34375 h 3.48437 v 1.25 h -4.96875 v -0.29687 q 0,-1.07813 0.25,-1.90625 0.25,-0.84375 0.60938,-1.51563 0.35937,-0.67187 0.79687,-1.23437 0.4375,-0.57813 0.79688,-1.125 0.35937,-0.5625 0.59375,-1.14063 0.25,-0.59375 0.25,-1.29687 0,-0.84375 -0.34375,-1.21875 -0.32813,-0.375 -1,-0.375 -0.45313,0 -0.82813,0.1875 -0.375,0.17187 -0.6875,0.46875 z"
       fill-rule="nonzero"
       id="path131" />
    <path
       fill="#6fa8dc"
       d="m 793.19946,225.00131 h 101.13385 v 42.01575 H 793.19946 Z"
       fill-rule="evenodd"
       id="path133" />
    <path
       fill="#f3f3f3"
       d="m 840.6414,238.99944 q 0.45312,1.39062 0.89062,2.82812 0.4375,1.42188 0.85938,2.98438 0.42187,1.5625 0.82812,3.32812 0.42188,1.75 0.85938,3.78125 h -1.6875 q -0.14063,-0.84375 -0.3125,-1.65625 -0.15625,-0.82812 -0.3125,-1.64062 h -4.07813 q -0.1875,0.8125 -0.34375,1.64062 -0.14062,0.8125 -0.28125,1.65625 h -1.625 q 0.40625,-2.03125 0.82813,-3.78125 0.4375,-1.76562 0.85937,-3.32812 0.42188,-1.5625 0.85938,-2.98438 0.4375,-1.4375 0.89062,-2.82812 z m -0.90625,1.89062 q -0.46875,1.54688 -0.90625,3.125 -0.42188,1.5625 -0.8125,3.20313 h 3.40625 q -0.375,-1.64063 -0.8125,-3.20313 -0.42188,-1.57812 -0.875,-3.125 z m 6.02472,0.67188 q 0.34375,-0.20313 0.71875,-0.5 0.39062,-0.29688 0.75,-0.64063 0.35937,-0.34375 0.65625,-0.70312 0.3125,-0.375 0.51562,-0.71875 h 1.23438 v 12.92187 h -1.60938 v -10.39062 q -0.3125,0.32812 -0.73437,0.64062 -0.42188,0.29688 -0.89063,0.54688 z"
       fill-rule="nonzero"
       id="path135" />
    <path
       fill="#6fa8dc"
       d="m 793.19946,273.2874 h 101.13385 v 42.01575 H 793.19946 Z"
       fill-rule="evenodd"
       id="path137" />
    <path
       fill="#f3f3f3"
       d="m 840.6414,287.28552 q 0.45312,1.39063 0.89062,2.82813 0.4375,1.42187 0.85938,2.98437 0.42187,1.5625 0.82812,3.32813 0.42188,1.75 0.85938,3.78125 h -1.6875 q -0.14063,-0.84375 -0.3125,-1.65625 -0.15625,-0.82813 -0.3125,-1.64063 h -4.07813 q -0.1875,0.8125 -0.34375,1.64063 -0.14062,0.8125 -0.28125,1.65625 h -1.625 q 0.40625,-2.03125 0.82813,-3.78125 0.4375,-1.76563 0.85937,-3.32813 0.42188,-1.5625 0.85938,-2.98437 0.4375,-1.4375 0.89062,-2.82813 z m -0.90625,1.89063 q -0.46875,1.54687 -0.90625,3.125 -0.42188,1.5625 -0.8125,3.20312 h 3.40625 q -0.375,-1.64062 -0.8125,-3.20312 -0.42188,-1.57813 -0.875,-3.125 z m 5.54034,-1.09375 q 1.09375,-1.10938 2.67188,-1.10938 1.51562,0 2.3125,0.79688 0.8125,0.79687 0.8125,2.46875 0,0.79687 -0.26563,1.5 -0.26562,0.70312 -0.65625,1.375 -0.39062,0.65625 -0.85937,1.3125 -0.45313,0.65625 -0.89063,1.34375 -0.42187,0.67187 -0.75,1.40625 -0.3125,0.73437 -0.39062,1.57812 h 4.07812 v 1.45313 h -5.79687 v -0.35938 q 0,-1.25 0.28125,-2.21875 0.29687,-0.96875 0.71875,-1.75 0.42187,-0.78125 0.92187,-1.45312 0.51563,-0.67188 0.92188,-1.3125 0.42187,-0.65625 0.70312,-1.32813 0.29688,-0.6875 0.29688,-1.5 0,-0.98437 -0.39063,-1.42187 -0.39062,-0.45313 -1.17187,-0.45313 -0.54688,0 -0.98438,0.21875 -0.4375,0.21875 -0.78125,0.54688 z"
       fill-rule="nonzero"
       id="path139" />
    <path
       fill="#000000"
       fill-opacity="0"
       d="m 799.35693,187.78416 h 86.07873 v 42.01575 h -86.07873 z"
       fill-rule="evenodd"
       id="path141" />
    <path
       fill="#ffffff"
       d="m 816.7013,207.28229 h 1.15625 q 2.3125,0 2.3125,-2.09375 0,-0.65625 -0.20313,-1.0625 -0.1875,-0.42188 -0.51562,-0.65625 -0.3125,-0.23438 -0.73438,-0.32813 -0.42187,-0.0937 -0.875,-0.0937 -0.28125,0 -0.57812,0.0156 -0.28125,0.0156 -0.5625,0.0625 z m 0,1.34375 v 4.65625 q 0.34375,0.0625 0.6875,0.10937 0.35937,0.0312 0.6875,0.0312 0.53125,0 0.98437,-0.10937 0.46875,-0.125 0.8125,-0.375 0.34375,-0.26563 0.53125,-0.71875 0.20313,-0.46875 0.20313,-1.14063 0,-1.15625 -0.625,-1.79687 -0.625,-0.65625 -1.9375,-0.65625 z m -1.6875,-6.67188 q 0.65625,-0.14062 1.32812,-0.21875 0.6875,-0.0937 1.35938,-0.0937 0.84375,0 1.59375,0.15625 0.76562,0.15625 1.34375,0.54688 0.57812,0.375 0.92187,1 0.34375,0.625 0.34375,1.5625 0,1.15625 -0.48437,1.90625 -0.48438,0.73437 -1.25,1.07812 0.95312,0.375 1.5625,1.14063 0.625,0.76562 0.625,2.10937 0,1 -0.32813,1.70313 -0.32812,0.6875 -0.9375,1.125 -0.59375,0.4375 -1.42187,0.64062 -0.82813,0.1875 -1.8125,0.1875 -0.65625,0 -1.375,-0.0781 -0.70313,-0.0781 -1.46875,-0.21875 z m 13.84491,4.40625 q -0.59375,-0.25 -1.34375,-0.25 -0.6875,0 -1.28125,0.23438 v 8.35937 h -1.60938 v -9.35937 q 0.54688,-0.26563 1.23438,-0.4375 0.70312,-0.1875 1.54687,-0.1875 0.45313,0 0.89063,0.0625 0.45312,0.0469 0.84375,0.20312 z m 7.99506,3.45313 q 0,1.15625 -0.21875,2.10937 -0.20313,0.9375 -0.625,1.60938 -0.40625,0.67187 -1.0625,1.04687 -0.64063,0.375 -1.51563,0.375 -0.875,0 -1.53125,-0.375 -0.65625,-0.375 -1.07812,-1.04687 -0.40625,-0.67188 -0.625,-1.60938 -0.20313,-0.95312 -0.20313,-2.10937 0,-1.14063 0.20313,-2.07813 0.21875,-0.95312 0.625,-1.64062 0.42187,-0.6875 1.07812,-1.04688 0.65625,-0.375 1.53125,-0.375 0.875,0 1.51563,0.375 0.65625,0.35938 1.0625,1.04688 0.42187,0.6875 0.625,1.64062 0.21875,0.9375 0.21875,2.07813 z m -1.6875,0 q 0,-0.8125 -0.0937,-1.5 -0.0937,-0.6875 -0.29688,-1.17188 -0.20312,-0.5 -0.54687,-0.76562 -0.32813,-0.26563 -0.79688,-0.26563 -0.48437,0 -0.8125,0.26563 -0.32812,0.26562 -0.54687,0.76562 -0.20313,0.48438 -0.29688,1.17188 -0.0937,0.6875 -0.0937,1.5 0,0.82812 0.0937,1.51562 0.0937,0.67188 0.29688,1.15625 0.21875,0.48438 0.54687,0.76563 0.32813,0.26562 0.8125,0.26562 0.46875,0 0.79688,-0.26562 0.34375,-0.28125 0.54687,-0.76563 0.20313,-0.48437 0.29688,-1.15625 0.0937,-0.6875 0.0937,-1.51562 z m 10.091,-4.90625 q -0.78125,1.34375 -1.5,2.45312 -0.71875,1.10938 -1.42188,2.07813 0.4375,0.53125 0.90625,1.1875 0.46875,0.64062 0.89063,1.34375 0.4375,0.70312 0.8125,1.40625 0.375,0.6875 0.625,1.32812 h -1.75 q -0.28125,-0.60937 -0.65625,-1.28125 -0.35938,-0.67187 -0.78125,-1.3125 -0.40625,-0.65625 -0.8125,-1.23437 -0.40625,-0.57813 -0.76563,-0.96875 v 4.79687 h -1.60937 v -14.20312 l 1.60937,-0.28125 v 8.90625 q 0.32813,-0.45313 0.70313,-1 0.39062,-0.5625 0.76562,-1.125 0.375,-0.57813 0.70313,-1.10938 0.34375,-0.54687 0.5625,-0.98437 z m 2.73309,5.375 q 0.0156,0.70312 0.125,1.29687 0.10938,0.59375 0.35938,1.03125 0.25,0.4375 0.67187,0.6875 0.42188,0.23438 1.07813,0.23438 0.53125,0 0.98437,-0.15625 0.46875,-0.17188 0.67188,-0.28125 l 0.29687,1.29687 q -0.23437,0.15625 -0.8125,0.35938 -0.5625,0.20312 -1.34375,0.20312 -1.03125,0 -1.73437,-0.375 -0.6875,-0.375 -1.14063,-1.04687 -0.4375,-0.67188 -0.625,-1.60938 -0.17187,-0.9375 -0.17187,-2.04687 0,-2.70313 0.89062,-3.95313 0.89063,-1.25 2.35938,-1.25 1.67187,0 2.35937,1.25 0.6875,1.25 0.6875,3.5 0,0.20313 0,0.42188 0,0.21875 -0.0156,0.4375 z m 1.60938,-4.25 q -0.79688,0 -1.15625,0.79687 -0.35938,0.79688 -0.4375,2.14063 h 2.96875 q 0,-1.35938 -0.28125,-2.14063 -0.28125,-0.79687 -1.09375,-0.79687 z m 9.64972,0.32812 q -0.59375,-0.25 -1.34375,-0.25 -0.6875,0 -1.28125,0.23438 v 8.35937 h -1.60938 v -9.35937 q 0.54688,-0.26563 1.23438,-0.4375 0.70312,-0.1875 1.54687,-0.1875 0.45313,0 0.89063,0.0625 0.45312,0.0469 0.84375,0.20312 z m 8.86663,1.39063 q 0.9375,0.32812 1.4375,1.1875 0.51563,0.84375 0.51563,2.1875 0,1.78125 -0.875,2.82812 -0.85938,1.03125 -2.60938,1.03125 -0.6875,0 -1.34375,-0.20312 -0.65625,-0.20313 -1.14062,-0.54688 l 0.4375,-1.29687 q 0.42187,0.25 0.89062,0.4375 0.48438,0.1875 1,0.1875 0.95313,0 1.48438,-0.57813 0.53125,-0.59375 0.53125,-1.875 0,-1.29687 -0.59375,-1.9375 -0.57813,-0.65625 -1.85938,-0.65625 h -0.48437 v -1.375 h 0.40625 q 1.125,0 1.65625,-0.59375 0.54687,-0.59375 0.54687,-1.65625 0,-1.01562 -0.4375,-1.5 -0.42187,-0.5 -1.125,-0.5 -0.48437,0 -0.9375,0.1875 -0.4375,0.1875 -0.75,0.46875 l -0.625,-1.17187 q 0.48438,-0.45313 1.14063,-0.67188 0.65625,-0.23437 1.3125,-0.23437 1.45312,0 2.23437,0.92187 0.79688,0.90625 0.79688,2.42188 0,1.0625 -0.42188,1.8125 -0.42187,0.73437 -1.1875,1.125 z"
       fill-rule="nonzero"
       id="path143" />
    <path
       fill="#000000"
       fill-opacity="0"
       d="M 779.58405,210.30148 V 328.38867"
       fill-rule="evenodd"
       id="path145" />
    <path
       stroke="#f3f3f3"
       stroke-width="1"
       stroke-linejoin="round"
       stroke-linecap="butt"
       d="M 779.58405,210.30148 V 328.38867"
       fill-rule="evenodd"
       id="path147" />
    <path
       fill="#000000"
       fill-opacity="0"
       d="M 907.8728,210.30148 V 328.38867"
       fill-rule="evenodd"
       id="path149" />
    <path
       stroke="#f3f3f3"
       stroke-width="1"
       stroke-linejoin="round"
       stroke-linecap="butt"
       d="M 907.8728,210.30148 V 328.38867"
       fill-rule="evenodd"
       id="path151" />
    <path
       fill="#000000"
       fill-opacity="0"
       d="M 779.20416,328.38867 H 908.00927"
       fill-rule="evenodd"
       id="path153" />
    <path
       stroke="#f3f3f3"
       stroke-width="1"
       stroke-linejoin="round"
       stroke-linecap="butt"
       d="M 779.20416,328.38867 H 908.00927"
       fill-rule="evenodd"
       id="path155" />
    <path
       fill="#000000"
       fill-opacity="0"
       d="m 779.58405,210.53676 h 26.30194"
       fill-rule="evenodd"
       id="path157" />
    <path
       stroke="#f3f3f3"
       stroke-width="1"
       stroke-linejoin="round"
       stroke-linecap="butt"
       d="m 779.58405,210.53676 h 26.30194"
       fill-rule="evenodd"
       id="path159" />
    <path
       fill="#000000"
       fill-opacity="0"
       d="m 880.738,210.53676 h 26.30194"
       fill-rule="evenodd"
       id="path161" />
    <path
       stroke="#f3f3f3"
       stroke-width="1"
       stroke-linejoin="round"
       stroke-linecap="butt"
       d="m 880.738,210.53676 h 26.30194"
       fill-rule="evenodd"
       id="path163" />
    <path
       fill="#000000"
       fill-opacity="0"
       d="m 677.6011,147.19948 c 41.19971,0 67.89941,23.19685 82.39941,46.39369 14.5,23.19686 16.8003,46.39371 33.60059,46.39371"
       fill-rule="evenodd"
       id="path165" />
    <path
       stroke="#f3f3f3"
       stroke-width="2"
       stroke-linejoin="round"
       stroke-linecap="butt"
       d="m 677.6011,147.19948 c 41.19971,0 67.89941,23.19685 82.39941,46.39369 7.25,11.59844 11.45008,23.19686 15.93769,31.89568 1.12188,2.1747 2.26178,4.16818 3.47174,5.93512 0.60504,0.88348 1.22754,1.71032 1.87414,2.47487 0.32325,0.38227 0.65253,0.74896 0.98865,1.09938 0.0841,0.0876 0.16846,0.17419 0.25336,0.25976 l 0.0324,0.032"
       fill-rule="evenodd"
       id="path167" />
    <path
       fill="#f3f3f3"
       stroke="#f3f3f3"
       stroke-width="2"
       stroke-linecap="butt"
       d="m 781.26544,238.3299 9.64508,0.51259 -7.05908,-6.59241 z"
       fill-rule="evenodd"
       id="path169" />
    <path
       fill="#000000"
       fill-opacity="0"
       d="m 793.1982,253.21785 c -19.79834,0 -25.2384,-24 -39.59668,-48 -14.35828,-24 -37.63477,-48 -75.26947,-48"
       fill-rule="evenodd"
       id="path171" />
    <path
       stroke="#f3f3f3"
       stroke-width="2"
       stroke-linejoin="round"
       stroke-linecap="butt"
       d="m 793.1982,253.21785 c -19.79834,0 -25.23834,-24 -39.59662,-48 -7.17914,-12 -16.58789,-24 -28.90613,-33 -6.15912,-4.5 -13.04559,-8.25 -20.7445,-10.875 -3.84949,-1.3125 -7.90204,-2.34375 -12.16828,-3.04688 -0.26666,-0.0439 -0.53412,-0.0866 -0.80243,-0.12799 l -0.67828,-0.10096"
       fill-rule="evenodd"
       id="path173" />
    <path
       fill="#f3f3f3"
       stroke="#f3f3f3"
       stroke-width="2"
       stroke-linecap="butt"
       d="m 690.5357,154.77182 -9.28723,2.65292 8.8197,3.93746 z"
       fill-rule="evenodd"
       id="path175" />
    <path
       fill="#000000"
       fill-opacity="0"
       d="m 678.33203,167.12283 c 31.23425,0 62.46063,46.80315 62.46851,93.60629 0.008,46.80316 -31.20276,93.60629 -62.40552,93.60629"
       fill-rule="evenodd"
       id="path177" />
    <path
       stroke="#f3f3f3"
       stroke-width="2"
       stroke-linejoin="round"
       stroke-linecap="butt"
       d="m 678.33203,167.12283 c 31.23425,0 62.46063,46.80315 62.46851,93.60629 0.004,23.40158 -7.79676,46.80316 -19.49878,64.35434 -5.85096,8.77557 -12.67731,16.08856 -19.99115,21.20767 -1.82843,1.27976 -3.68732,2.42246 -5.56903,3.41654 -0.94092,0.49704 -1.88752,0.95697 -2.83887,1.37832 -0.47565,0.21067 -0.95252,0.41172 -1.43042,0.60294 -0.23895,0.0956 -0.47821,0.18878 -0.71771,0.27945 l -0.55603,0.20456"
       fill-rule="evenodd"
       id="path179" />
    <path
       fill="#f3f3f3"
       stroke="#f3f3f3"
       stroke-width="2"
       stroke-linecap="butt"
       d="m 689.6033,348.92355 -8.33234,4.88498 9.52295,1.61377 z"
       fill-rule="evenodd"
       id="path181" />
    <path
       fill="#000000"
       fill-opacity="0"
       d="m 678.33203,340.73544 c 25.23425,0 50.46063,-40.80316 50.46851,-81.60632 0.008,-40.80313 -25.20276,-81.60629 -50.40552,-81.60629"
       fill-rule="evenodd"
       id="path183" />
    <path
       stroke="#f3f3f3"
       stroke-width="2"
       stroke-linejoin="round"
       stroke-linecap="butt"
       d="m 678.33203,340.73544 c 25.23425,0 50.46063,-40.80316 50.46851,-81.60629 0.004,-20.40158 -6.29676,-40.80316 -15.74878,-56.10434 -4.72595,-7.65059 -10.23981,-14.02608 -16.1474,-18.48892 -1.47687,-1.11572 -2.97834,-2.11188 -4.49829,-2.97856 -0.75989,-0.43334 -1.52448,-0.83429 -2.29291,-1.20163 l -0.0515,-0.024"
       fill-rule="evenodd"
       id="path185" />
    <path
       fill="#f3f3f3"
       stroke="#f3f3f3"
       stroke-width="2"
       stroke-linecap="butt"
       d="m 690.8349,177.11998 -9.59729,1.08723 8.05078,5.33616 z"
       fill-rule="evenodd"
       id="path187" />
    <path
       fill="#000000"
       fill-opacity="0"
       d="m 562.3989,178.39896 c -55.5993,0 -81.34827,28.84251 -111.19867,57.68503 -29.85037,28.84253 -63.80222,57.68506 -127.60446,57.68506"
       fill-rule="evenodd"
       id="path189" />
    <path
       stroke="#efefef"
       stroke-width="2"
       stroke-linejoin="round"
       stroke-linecap="butt"
       d="m 562.3989,178.39896 c -55.5993,0 -81.34827,28.84251 -111.19867,57.68503 -14.9252,14.42126 -30.87573,28.84253 -51.07028,39.65848 -10.09726,5.40795 -21.25556,9.91461 -33.87711,13.06924 -6.31082,1.57733 -12.98739,2.81665 -20.08017,3.66165 -1.77316,0.21124 -3.57239,0.39786 -5.39837,0.55893 -0.91297,0.0806 -1.83268,0.15469 -2.75916,0.22238 -0.46326,0.0338 -0.92819,0.066 -1.39487,0.0966 l -1.02972,0.0636"
       fill-rule="evenodd"
       id="path191" />
    <path
       fill="#efefef"
       stroke="#efefef"
       stroke-width="2"
       stroke-linecap="butt"
       d="m 335.49307,290.11285 -8.97473,3.56989 9.16974,3.03417 z"
       fill-rule="evenodd"
       id="path193" />
    <path
       fill="#434343"
       d="m 722.9601,137.71024 v 0 c 0,-7.51456 6.0918,-13.6063 13.60632,-13.6063 v 0 c 3.60865,0 7.06946,1.43352 9.6211,3.98519 2.55169,2.55168 3.98523,6.0125 3.98523,9.62111 v 0 c 0,7.51456 -6.0918,13.60629 -13.60633,13.60629 v 0 c -7.51452,0 -13.60632,-6.09173 -13.60632,-13.60629 z"
       fill-rule="evenodd"
       id="path195" />
    <path
       stroke="#f3f3f3"
       stroke-width="1"
       stroke-linejoin="round"
       stroke-linecap="butt"
       d="m 722.9601,137.71024 v 0 c 0,-7.51456 6.0918,-13.6063 13.60632,-13.6063 v 0 c 3.60865,0 7.06946,1.43352 9.6211,3.98519 2.55169,2.55168 3.98523,6.0125 3.98523,9.62111 v 0 c 0,7.51456 -6.0918,13.60629 -13.60633,13.60629 v 0 c -7.51452,0 -13.60632,-6.09173 -13.60632,-13.60629 z"
       fill-rule="evenodd"
       id="path197" />
    <path
       fill="#f3f3f3"
       d="m 737.2358,137.60149 q 0.79688,0.28125 1.23438,1.01562 0.45312,0.73438 0.45312,1.875 0,1.54688 -0.75,2.4375 -0.75,0.875 -2.25,0.875 -0.59375,0 -1.15625,-0.17187 -0.54687,-0.17188 -0.96875,-0.46875 l 0.375,-1.10938 q 0.35938,0.21875 0.76563,0.39063 0.40625,0.15625 0.85937,0.15625 0.8125,0 1.26563,-0.5 0.46875,-0.51563 0.46875,-1.625 0,-1.09375 -0.51563,-1.65625 -0.5,-0.5625 -1.60937,-0.5625 h -0.40625 v -1.17188 h 0.34375 q 0.96875,0 1.42187,-0.5 0.46875,-0.51562 0.46875,-1.4375 0,-0.85937 -0.375,-1.28125 -0.35937,-0.42187 -0.96875,-0.42187 -0.40625,0 -0.79687,0.15625 -0.375,0.15625 -0.64063,0.40625 l -0.54687,-1.01563 q 0.42187,-0.375 0.98437,-0.5625 0.57813,-0.20312 1.125,-0.20312 1.25,0 1.92188,0.78125 0.67187,0.78125 0.67187,2.07812 0,0.92188 -0.35937,1.5625 -0.35938,0.625 -1.01563,0.95313 z"
       fill-rule="nonzero"
       id="path199" />
    <path
       fill="#434343"
       d="m 689.9601,273.55014 v 0 c 0,-7.51456 6.0918,-13.60632 13.60632,-13.60632 v 0 c 3.60865,0 7.06946,1.43353 9.6211,3.9852 2.55169,2.55169 3.98523,6.01251 3.98523,9.62112 v 0 c 0,7.51456 -6.0918,13.60629 -13.60633,13.60629 v 0 c -7.51452,0 -13.60632,-6.09173 -13.60632,-13.60629 z"
       fill-rule="evenodd"
       id="path201" />
    <path
       stroke="#f3f3f3"
       stroke-width="1"
       stroke-linejoin="round"
       stroke-linecap="butt"
       d="m 689.9601,273.55014 v 0 c 0,-7.51456 6.0918,-13.60632 13.60632,-13.60632 v 0 c 3.60865,0 7.06946,1.43353 9.6211,3.9852 2.55169,2.55169 3.98523,6.01251 3.98523,9.62112 v 0 c 0,7.51456 -6.0918,13.60629 -13.60633,13.60629 v 0 c -7.51452,0 -13.60632,-6.09173 -13.60632,-13.60629 z"
       fill-rule="evenodd"
       id="path203" />
    <path
       fill="#f3f3f3"
       d="m 700.7983,275.69138 q 0.28125,-0.98438 0.73438,-2.07813 0.45312,-1.10937 0.92187,-2.125 0.48438,-1.03125 0.92188,-1.85937 0.45312,-0.84375 0.71875,-1.3125 h 1.40625 v 7.25 h 1.09375 v 1.14062 h -1.09375 v 2.70313 H 704.2358 V 276.707 h -3.4375 z m 3.4375,-0.125 v -5.40625 q -0.23437,0.5 -0.54687,1.14062 -0.3125,0.64063 -0.625,1.35938 -0.3125,0.71875 -0.60938,1.46875 -0.28125,0.73437 -0.48437,1.4375 z"
       fill-rule="nonzero"
       id="path205" />
    <path
       fill="#434343"
       d="m 758.39844,269.99896 v 0 c 0,-7.51456 6.09174,-13.60632 13.60626,-13.60632 v 0 c 3.60864,0 7.06946,1.43353 9.62116,3.9852 2.55163,2.55169 3.98517,6.01251 3.98517,9.62112 v 0 c 0,7.51453 -6.09174,13.60629 -13.60633,13.60629 v 0 c -7.51452,0 -13.60626,-6.09176 -13.60626,-13.60629 z"
       fill-rule="evenodd"
       id="path207" />
    <path
       stroke="#f3f3f3"
       stroke-width="1"
       stroke-linejoin="round"
       stroke-linecap="butt"
       d="m 758.39844,269.99896 v 0 c 0,-7.51456 6.09174,-13.60632 13.60626,-13.60632 v 0 c 3.60864,0 7.06946,1.43353 9.62116,3.9852 2.55163,2.55169 3.98517,6.01251 3.98517,9.62112 v 0 c 0,7.51453 -6.09174,13.60629 -13.60633,13.60629 v 0 c -7.51452,0 -13.60626,-6.09176 -13.60626,-13.60629 z"
       fill-rule="evenodd"
       id="path209" />
    <path
       fill="#f3f3f3"
       d="m 774.1272,265.85895 q -0.60937,0.0781 -1.10937,0.26562 -0.5,0.1875 -0.90625,0.57813 -0.39063,0.39062 -0.65625,1.03125 -0.26563,0.64062 -0.39063,1.59375 0.32813,-0.14063 0.64063,-0.20313 0.3125,-0.0625 0.59375,-0.0625 1.14062,0 1.76562,0.90625 0.64063,0.90625 0.64063,2.48438 0,1.6875 -0.60938,2.67187 -0.59375,0.96875 -1.89062,0.96875 -0.65625,0 -1.15625,-0.25 -0.48438,-0.25 -0.8125,-0.82812 -0.32813,-0.59375 -0.5,-1.54688 -0.15625,-0.95312 -0.15625,-2.32812 0,-1.20313 0.21875,-2.32813 0.23437,-1.14062 0.75,-2.03125 0.53125,-0.89062 1.35937,-1.45312 0.84375,-0.5625 2.07813,-0.60938 z m -2.17187,4.3125 q -0.25,0 -0.51563,0.0937 -0.25,0.0937 -0.46875,0.21875 -0.0156,0.1875 -0.0156,0.39062 0,0.20313 0,0.40625 0,0.73438 0.0312,1.40625 0.0469,0.65625 0.17187,1.17188 0.125,0.5 0.375,0.79687 0.25,0.29688 0.65625,0.29688 0.625,0 0.875,-0.65625 0.25,-0.67188 0.25,-1.78125 0,-1.20313 -0.32812,-1.76563 -0.32813,-0.57812 -1.03125,-0.57812 z"
       fill-rule="nonzero"
       id="path211" />
    <path
       fill="#434343"
       d="m 523.19946,205.21785 v 0 c 0,-7.51456 6.09174,-13.60631 13.60632,-13.60631 v 0 c 3.60858,0 7.0694,1.43352 9.6211,3.9852 2.55169,2.55168 3.98517,6.0125 3.98517,9.62111 v 0 c 0,7.51456 -6.09174,13.60629 -13.60627,13.60629 v 0 c -7.51458,0 -13.60632,-6.09173 -13.60632,-13.60629 z"
       fill-rule="evenodd"
       id="path213" />
    <path
       stroke="#f3f3f3"
       stroke-width="1"
       stroke-linejoin="round"
       stroke-linecap="butt"
       d="m 523.19946,205.21785 v 0 c 0,-7.51456 6.09174,-13.60631 13.60632,-13.60631 v 0 c 3.60858,0 7.0694,1.43352 9.6211,3.9852 2.55169,2.55168 3.98517,6.0125 3.98517,9.62111 v 0 c 0,7.51456 -6.09174,13.60629 -13.60627,13.60629 v 0 c -7.51458,0 -13.60632,-6.09173 -13.60632,-13.60629 z"
       fill-rule="evenodd"
       id="path215" />
    <path
       fill="#f3f3f3"
       d="m 536.4283,201.18723 q -0.0937,1.15625 -0.125,1.92187 -0.0312,0.76563 -0.0625,1.21875 1.51563,0.20313 2.21875,1.09375 0.70313,0.875 0.70313,2.375 0,0.84375 -0.25,1.5 -0.23438,0.65625 -0.65625,1.10938 -0.42188,0.45312 -1,0.67187 -0.57813,0.23438 -1.25,0.23438 -0.46875,0 -0.95313,-0.125 -0.46875,-0.125 -0.89062,-0.35938 l 0.39062,-1.14062 q 0.6875,0.375 1.40625,0.375 0.76563,0 1.29688,-0.54688 0.53125,-0.5625 0.53125,-1.71875 0,-1.26562 -0.71875,-1.8125 -0.71875,-0.54687 -2.17188,-0.625 0.0781,-0.79687 0.125,-1.45312 0.0625,-0.67188 0.0937,-1.29688 0.0312,-0.64062 0.0469,-1.26562 0.0312,-0.64063 0.0469,-1.35938 h 3.73438 v 1.20313 z"
       fill-rule="nonzero"
       id="path217" />
  </g>
</svg>
