<?xml version="1.0" encoding="UTF-8" standalone="no"?>
<svg
   version="1.1"
   viewBox="0 0 703.77423 400.87543"
   fill="none"
   stroke="none"
   stroke-linecap="square"
   stroke-miterlimit="10"
   id="svg197"
   sodipodi:docname="producer-sender-thread_3.svg"
   width="703.77423"
   height="400.87543"
   inkscape:version="1.2.2 (b0a8486541, 2022-12-01)"
   xmlns:inkscape="http://www.inkscape.org/namespaces/inkscape"
   xmlns:sodipodi="http://sodipodi.sourceforge.net/DTD/sodipodi-0.dtd"
   xmlns="http://www.w3.org/2000/svg"
   xmlns:svg="http://www.w3.org/2000/svg">
  <defs
     id="defs201" />
  <sodipodi:namedview
     id="namedview199"
     pagecolor="#ffffff"
     bordercolor="#666666"
     borderopacity="1.0"
     inkscape:showpageshadow="2"
     inkscape:pageopacity="0.0"
     inkscape:pagecheckerboard="0"
     inkscape:deskcolor="#d1d1d1"
     showgrid="false"
     inkscape:zoom="1.3552083"
     inkscape:cx="417.64796"
     inkscape:cy="192.59032"
     inkscape:window-width="1920"
     inkscape:window-height="1011"
     inkscape:window-x="0"
     inkscape:window-y="32"
     inkscape:window-maximized="1"
     inkscape:current-layer="svg197" />
  <clipPath
     id="g1db106035c2_0_510.0">
    <path
       d="M 0,0 H 960 V 540 H 0 Z"
       clip-rule="nonzero"
       id="path2" />
  </clipPath>
  <g
     clip-path="url(#g1db106035c2_0_510.0)"
     id="g195"
     transform="translate(-44.595802,-77.79598)">
    <path
       fill="#000000"
       fill-opacity="0"
       d="m 45.595802,283.00787 v 0 c 0,-98.96768 80.229168,-179.19685 179.196838,-179.19685 v 0 c 47.52596,0 93.10539,18.87962 126.71132,52.48555 33.60593,33.60593 52.48554,79.18535 52.48554,126.7113 v 0 c 0,98.96768 -80.22916,179.19684 -179.19685,179.19684 v 0 c -98.96768,0 -179.196843,-80.22916 -179.196843,-179.19684 z"
       fill-rule="evenodd"
       id="path7" />
    <path
       stroke="#f3f3f3"
       stroke-width="2"
       stroke-linejoin="round"
       stroke-linecap="butt"
       d="m 45.595802,283.00787 v 0 c 0,-98.96768 80.229168,-179.19685 179.196838,-179.19685 v 0 c 47.52596,0 93.10539,18.87962 126.71132,52.48555 33.60593,33.60593 52.48554,79.18535 52.48554,126.7113 v 0 c 0,98.96768 -80.22916,179.19684 -179.19685,179.19684 v 0 c -98.96768,0 -179.196843,-80.22916 -179.196843,-179.19684 z"
       fill-rule="evenodd"
       id="path9" />
    <path
       fill="#434343"
       d="m 125.9895,317.042 h 197.6063 v 71.21262 H 125.9895 Z"
       fill-rule="evenodd"
       id="path11" />
    <path
       stroke="#d9d9d9"
       stroke-width="1"
       stroke-linejoin="round"
       stroke-linecap="butt"
       d="m 125.9895,317.042 h 197.6063 v 71.21262 H 125.9895 Z"
       fill-rule="evenodd"
       id="path13" />
    <path
       fill="#eeeeee"
       d="m 138.39108,342.51575 h 173.22833 v 35.02362 H 138.39108 Z"
       fill-rule="evenodd"
       id="path15" />
    <path
       stroke="#595959"
       stroke-width="1"
       stroke-linejoin="round"
       stroke-linecap="butt"
       d="m 138.39108,342.51575 h 173.22833 v 35.02362 H 138.39108 Z"
       fill-rule="evenodd"
       id="path17" />
    <path
       fill="#ffe599"
       d="m 268.79004,346.02756 h 40 v 28 h -40 z"
       fill-rule="evenodd"
       id="path19" />
    <path
       stroke="#595959"
       stroke-width="1"
       stroke-linejoin="round"
       stroke-linecap="butt"
       d="m 268.79004,346.02756 h 40 v 28 h -40 z"
       fill-rule="evenodd"
       id="path21" />
    <path
       fill="#000000"
       d="m 281.016,357.73132 q 0.5625,-0.1875 1.21875,-0.29688 0.65625,-0.125 1.1875,-0.125 0.5625,0 1.01563,0.15625 0.46875,0.14063 0.8125,0.46875 0.42187,-0.26562 0.89062,-0.4375 0.48438,-0.1875 1.0625,-0.1875 0.57813,0 1.04688,0.17188 0.46875,0.17187 0.79687,0.57812 0.34375,0.39063 0.53125,1.07813 0.20313,0.67187 0.20313,1.67187 v 5.07813 h -1.375 v -4.95313 q 0,-1.25 -0.29688,-1.82812 -0.28125,-0.57813 -1.07812,-0.57813 -0.3125,0 -0.625,0.10938 -0.29688,0.10937 -0.57813,0.3125 0.125,0.35937 0.1875,0.82812 0.0625,0.46875 0.0625,1.03125 v 5.07813 h -1.375 v -4.95313 q 0,-1.25 -0.28125,-1.82812 -0.28125,-0.57813 -1.09375,-0.57813 -0.40625,0 -0.9375,0.15625 v 7.20313 h -1.375 z m 12.98053,-1.73438 q -0.0937,1.15625 -0.125,1.92188 -0.0312,0.76562 -0.0625,1.21875 1.51562,0.20312 2.21875,1.09375 0.70312,0.875 0.70312,2.375 0,0.84375 -0.25,1.5 -0.23437,0.65625 -0.65625,1.10937 -0.42187,0.45313 -1,0.67188 -0.57812,0.23437 -1.25,0.23437 -0.46875,0 -0.95312,-0.125 -0.46875,-0.125 -0.89063,-0.35937 l 0.39063,-1.14063 q 0.6875,0.375 1.40625,0.375 0.76562,0 1.29687,-0.54687 0.53125,-0.5625 0.53125,-1.71875 0,-1.26563 -0.71875,-1.8125 -0.71875,-0.54688 -2.17187,-0.625 0.0781,-0.79688 0.125,-1.45313 0.0625,-0.67187 0.0937,-1.29687 0.0312,-0.64063 0.0469,-1.26563 0.0312,-0.64062 0.0469,-1.35937 h 3.73437 v 1.20312 z"
       fill-rule="nonzero"
       id="path23" />
    <path
       fill="#ffe599"
       d="m 226.38846,346.02756 h 40 v 28 h -40 z"
       fill-rule="evenodd"
       id="path25" />
    <path
       stroke="#595959"
       stroke-width="1"
       stroke-linejoin="round"
       stroke-linecap="butt"
       d="m 226.38846,346.02756 h 40 v 28 h -40 z"
       fill-rule="evenodd"
       id="path27" />
    <path
       fill="#000000"
       d="m 238.61443,357.73132 q 0.5625,-0.1875 1.21875,-0.29688 0.65625,-0.125 1.1875,-0.125 0.5625,0 1.01562,0.15625 0.46875,0.14063 0.8125,0.46875 0.42188,-0.26562 0.89063,-0.4375 0.48437,-0.1875 1.0625,-0.1875 0.57812,0 1.04687,0.17188 0.46875,0.17187 0.79688,0.57812 0.34375,0.39063 0.53125,1.07813 0.20312,0.67187 0.20312,1.67187 v 5.07813 h -1.375 v -4.95313 q 0,-1.25 -0.29687,-1.82812 -0.28125,-0.57813 -1.07813,-0.57813 -0.3125,0 -0.625,0.10938 -0.29687,0.10937 -0.57812,0.3125 0.125,0.35937 0.1875,0.82812 0.0625,0.46875 0.0625,1.03125 v 5.07813 h -1.375 v -4.95313 q 0,-1.25 -0.28125,-1.82812 -0.28125,-0.57813 -1.09375,-0.57813 -0.40625,0 -0.9375,0.15625 v 7.20313 h -1.375 z m 15.48053,-1.84375 q -0.60938,0.0781 -1.10938,0.26562 -0.5,0.1875 -0.90625,0.57813 -0.39062,0.39062 -0.65625,1.03125 -0.26562,0.64062 -0.39062,1.59375 0.32812,-0.14063 0.64062,-0.20313 0.3125,-0.0625 0.59375,-0.0625 1.14063,0 1.76563,0.90625 0.64062,0.90625 0.64062,2.48438 0,1.6875 -0.60937,2.67187 -0.59375,0.96875 -1.89063,0.96875 -0.65625,0 -1.15625,-0.25 -0.48437,-0.25 -0.8125,-0.82812 -0.32812,-0.59375 -0.5,-1.54688 -0.15625,-0.95312 -0.15625,-2.32812 0,-1.20313 0.21875,-2.32813 0.23438,-1.14062 0.75,-2.03125 0.53125,-0.89062 1.35938,-1.45312 0.84375,-0.5625 2.07812,-0.60938 z m -2.17188,4.3125 q -0.25,0 -0.51562,0.0937 -0.25,0.0937 -0.46875,0.21875 -0.0156,0.1875 -0.0156,0.39062 0,0.20313 0,0.40625 0,0.73438 0.0312,1.40625 0.0469,0.65625 0.17188,1.17188 0.125,0.5 0.375,0.79687 0.25,0.29688 0.65625,0.29688 0.625,0 0.875,-0.65625 0.25,-0.67188 0.25,-1.78125 0,-1.20313 -0.32813,-1.76563 -0.32812,-0.57812 -1.03125,-0.57812 z"
       fill-rule="nonzero"
       id="path29" />
    <path
       fill="#ffe599"
       d="m 183.98688,346.02756 h 40 v 28 h -40 z"
       fill-rule="evenodd"
       id="path31" />
    <path
       stroke="#595959"
       stroke-width="1"
       stroke-linejoin="round"
       stroke-linecap="butt"
       d="m 183.98688,346.02756 h 40 v 28 h -40 z"
       fill-rule="evenodd"
       id="path33" />
    <path
       fill="#000000"
       d="m 196.21284,357.73132 q 0.5625,-0.1875 1.21875,-0.29688 0.65625,-0.125 1.1875,-0.125 0.5625,0 1.01562,0.15625 0.46875,0.14063 0.8125,0.46875 0.42188,-0.26562 0.89063,-0.4375 0.48437,-0.1875 1.0625,-0.1875 0.57812,0 1.04687,0.17188 0.46875,0.17187 0.79688,0.57812 0.34375,0.39063 0.53125,1.07813 0.20312,0.67187 0.20312,1.67187 v 5.07813 h -1.375 v -4.95313 q 0,-1.25 -0.29687,-1.82812 -0.28125,-0.57813 -1.07813,-0.57813 -0.3125,0 -0.625,0.10938 -0.29687,0.10937 -0.57812,0.3125 0.125,0.35937 0.1875,0.82812 0.0625,0.46875 0.0625,1.03125 v 5.07813 h -1.375 v -4.95313 q 0,-1.25 -0.28125,-1.82812 -0.28125,-0.57813 -1.09375,-0.57813 -0.40625,0 -0.9375,0.15625 v 7.20313 h -1.375 z m 11.76178,8.15625 q 0.0312,-0.76563 0.15625,-1.65625 0.14062,-0.89063 0.34375,-1.79688 0.21875,-0.92187 0.46875,-1.82812 0.25,-0.92188 0.53125,-1.76563 0.28125,-0.84375 0.5625,-1.5625 0.29687,-0.71875 0.59375,-1.26562 h -3.78125 v -1.21875 h 5.32812 v 1.07812 q -0.39062,0.625 -0.85937,1.70313 -0.45313,1.07812 -0.85938,2.4375 -0.40625,1.34375 -0.71875,2.875 -0.29687,1.51562 -0.35937,3 z"
       fill-rule="nonzero"
       id="path35" />
    <path
       fill="#ffe599"
       d="m 141.5853,346.02756 h 40 v 28 h -40 z"
       fill-rule="evenodd"
       id="path37" />
    <path
       stroke="#595959"
       stroke-width="1"
       stroke-linejoin="round"
       stroke-linecap="butt"
       d="m 141.5853,346.02756 h 40 v 28 h -40 z"
       fill-rule="evenodd"
       id="path39" />
    <path
       fill="#000000"
       d="m 153.81128,357.73132 q 0.5625,-0.1875 1.21875,-0.29688 0.65625,-0.125 1.1875,-0.125 0.5625,0 1.01562,0.15625 0.46875,0.14063 0.8125,0.46875 0.42188,-0.26562 0.89063,-0.4375 0.48437,-0.1875 1.0625,-0.1875 0.57812,0 1.04687,0.17188 0.46875,0.17187 0.79688,0.57812 0.34375,0.39063 0.53125,1.07813 0.20312,0.67187 0.20312,1.67187 v 5.07813 h -1.375 v -4.95313 q 0,-1.25 -0.29687,-1.82812 -0.28125,-0.57813 -1.07813,-0.57813 -0.3125,0 -0.625,0.10938 -0.29687,0.10937 -0.57812,0.3125 0.125,0.35937 0.1875,0.82812 0.0625,0.46875 0.0625,1.03125 v 5.07813 h -1.375 v -4.95313 q 0,-1.25 -0.28125,-1.82812 -0.28125,-0.57813 -1.09375,-0.57813 -0.40625,0 -0.9375,0.15625 v 7.20313 h -1.375 z m 15.88678,-0.48438 q 0,0.92188 -0.45313,1.6875 -0.45312,0.76563 -1.0625,1.32813 0.67188,0.48437 1.15625,1.1875 0.5,0.6875 0.5,1.65625 0,0.75 -0.23437,1.32812 -0.23438,0.5625 -0.60938,0.9375 -0.375,0.375 -0.85937,0.5625 -0.46875,0.1875 -0.98438,0.1875 -0.59375,0 -1.09375,-0.21875 -0.48437,-0.20312 -0.84375,-0.57812 -0.34375,-0.375 -0.54687,-0.90625 -0.1875,-0.53125 -0.1875,-1.15625 0,-0.98438 0.4375,-1.76563 0.4375,-0.78125 1.1875,-1.375 -0.60938,-0.45312 -1,-1.15625 -0.39063,-0.71875 -0.39063,-1.6875 0,-0.71875 0.21875,-1.23437 0.23438,-0.53125 0.59375,-0.85938 0.35938,-0.34375 0.8125,-0.48437 0.45313,-0.15625 0.90625,-0.15625 0.45313,0 0.89063,0.15625 0.4375,0.14062 0.78125,0.46875 0.35937,0.32812 0.5625,0.84375 0.21875,0.51562 0.21875,1.23437 z m -1.20313,5.95313 q 0,-0.42188 -0.14062,-0.78125 -0.125,-0.35938 -0.35938,-0.67188 -0.21875,-0.3125 -0.5,-0.5625 -0.28125,-0.25 -0.57812,-0.48437 -0.46875,0.4375 -0.78125,1.01562 -0.29688,0.57813 -0.29688,1.4375 0,0.85938 0.35938,1.39063 0.35937,0.51562 0.98437,0.51562 0.53125,0 0.92188,-0.46875 0.39062,-0.48437 0.39062,-1.39062 z m -2.42187,-6.09375 q 0,0.51562 0.0781,0.90625 0.0781,0.39062 0.23438,0.6875 0.15625,0.29687 0.39062,0.53125 0.23438,0.23437 0.53125,0.45312 0.45313,-0.46875 0.73438,-0.98437 0.28125,-0.53125 0.28125,-1.35938 0,-0.96875 -0.32813,-1.34375 -0.3125,-0.375 -0.78125,-0.375 -0.17187,0 -0.39062,0.0625 -0.20313,0.0625 -0.375,0.23438 -0.15625,0.15625 -0.26563,0.45312 -0.10937,0.28125 -0.10937,0.73438 z"
       fill-rule="nonzero"
       id="path41" />
    <path
       fill="#000000"
       fill-opacity="0"
       d="m 138.4042,311.74408 h 173.22833 v 38.77167 H 138.4042 Z"
       fill-rule="evenodd"
       id="path43" />
    <path
       fill="#f3f3f3"
       d="m 198.92755,325.01035 q 0.39062,1.20313 0.76562,2.4375 0.375,1.21875 0.73438,2.5625 0.35937,1.34375 0.71875,2.84375 0.35937,1.5 0.73437,3.25 h -1.45312 q -0.125,-0.71875 -0.26563,-1.42187 -0.125,-0.70313 -0.26562,-1.40625 h -3.5 q -0.15625,0.70312 -0.28125,1.40625 -0.125,0.70312 -0.25,1.42187 h -1.40625 q 0.35937,-1.75 0.71875,-3.25 0.375,-1.5 0.73437,-2.84375 0.35938,-1.34375 0.73438,-2.5625 0.375,-1.23437 0.76562,-2.4375 z m -0.78125,1.64063 q -0.40625,1.32812 -0.78125,2.67187 -0.35938,1.34375 -0.6875,2.75 h 2.92187 q -0.3125,-1.40625 -0.6875,-2.75 -0.35937,-1.34375 -0.76562,-2.67187 z m 5.17302,0.57812 q 0.29687,-0.1875 0.625,-0.4375 0.32812,-0.25 0.625,-0.54687 0.3125,-0.29688 0.57812,-0.60938 0.26563,-0.3125 0.4375,-0.625 h 1.0625 v 11.09375 h -1.375 v -8.90625 q -0.28125,0.28125 -0.64062,0.54688 -0.35938,0.25 -0.75,0.46875 z m 11.65628,2.5 h 1 q 1.98437,0 1.98437,-1.78125 0,-0.5625 -0.17187,-0.92187 -0.17188,-0.35938 -0.45313,-0.5625 -0.26562,-0.20313 -0.625,-0.28125 -0.35937,-0.0781 -0.75,-0.0781 -0.25,0 -0.5,0.0156 -0.23437,0.0156 -0.48437,0.0469 z m 0,1.15625 v 4 q 0.3125,0.0469 0.60937,0.0781 0.29688,0.0312 0.57813,0.0312 0.45312,0 0.84375,-0.0937 0.40625,-0.0937 0.70312,-0.3125 0.29688,-0.23438 0.45313,-0.625 0.17187,-0.39063 0.17187,-0.96875 0,-0.98438 -0.53125,-1.54688 -0.53125,-0.5625 -1.67187,-0.5625 z m -1.4375,-5.70312 q 0.5625,-0.14063 1.14062,-0.20313 0.59375,-0.0781 1.15625,-0.0781 0.73438,0 1.375,0.14062 0.64063,0.14063 1.14063,0.46875 0.5,0.32813 0.79687,0.85938 0.29688,0.53125 0.29688,1.32812 0,1 -0.42188,1.64063 -0.40625,0.625 -1.0625,0.92187 0.8125,0.32813 1.32813,0.98438 0.53125,0.65625 0.53125,1.79687 0,0.875 -0.28125,1.46875 -0.26563,0.57813 -0.78125,0.96875 -0.51563,0.375 -1.23438,0.54688 -0.70312,0.15625 -1.54687,0.15625 -0.5625,0 -1.17188,-0.0625 -0.60937,-0.0625 -1.26562,-0.1875 z m 8.36726,2.70312 q 0.42188,-0.1875 0.875,-0.28125 0.46875,-0.10937 1.01563,-0.10937 1.125,0 1.82812,0.70312 0.70313,0.6875 0.70313,2.15625 v 5.57813 q -0.57813,0.15625 -1.1875,0.25 -0.59375,0.0937 -1.17188,0.0937 -0.57812,0 -1.07812,-0.14063 -0.5,-0.14062 -0.875,-0.45312 -0.375,-0.32813 -0.60938,-0.8125 -0.21875,-0.5 -0.21875,-1.20313 0,-0.65625 0.20313,-1.14062 0.20312,-0.48438 0.54687,-0.8125 0.35938,-0.32813 0.82813,-0.5 0.48437,-0.17188 1.04687,-0.17188 0.53125,0 1.17188,0.14063 v -0.78125 q 0,-0.92188 -0.35938,-1.28125 -0.35937,-0.375 -1.03125,-0.375 -0.375,0 -0.70312,0.0781 -0.32813,0.0625 -0.70313,0.21875 z m 0.65625,5.76563 q 0,0.73437 0.375,1.09375 0.39063,0.34375 1.09375,0.34375 0.4375,0 0.95313,-0.10938 v -2.67187 q -0.48438,-0.125 -0.95313,-0.125 -0.29687,0 -0.57812,0.0781 -0.26563,0.0625 -0.46875,0.23438 -0.20313,0.17187 -0.3125,0.45312 -0.10938,0.28125 -0.10938,0.70313 z m 7.44402,-5.95313 h 2.10937 v 1.1875 h -2.10937 v 4.625 q 0,0.85938 0.3125,1.20313 0.3125,0.34375 0.84375,0.34375 0.26562,0 0.51562,-0.0781 0.25,-0.0781 0.42188,-0.1875 l 0.26562,1.10938 q -0.65625,0.375 -1.39062,0.375 -1.1875,0 -1.76563,-0.65625 -0.57812,-0.67188 -0.57812,-2.20313 v -7.96875 l 1.375,-0.23437 z m 6.33726,8.60938 q -0.875,0 -1.45312,-0.32813 -0.5625,-0.34375 -0.92188,-0.92187 -0.35937,-0.57813 -0.51562,-1.375 -0.15625,-0.8125 -0.15625,-1.75 0,-2.07813 0.75,-3.25 0.76562,-1.1875 2.3125,-1.1875 0.45312,0 0.82812,0.10937 0.375,0.10938 0.6875,0.29688 l -0.35937,1.125 q -0.48438,-0.3125 -1.09375,-0.3125 -0.85938,0 -1.28125,0.78125 -0.40625,0.78125 -0.40625,2.4375 0,0.6875 0.0781,1.28125 0.0937,0.57812 0.28125,1 0.20313,0.40625 0.53125,0.64062 0.32813,0.23438 0.84375,0.23438 0.34375,0 0.625,-0.0781 0.28125,-0.0937 0.54688,-0.23437 l 0.29687,1.07812 q -0.25,0.17188 -0.6875,0.3125 -0.42187,0.14063 -0.90625,0.14063 z m 3.08551,-0.20313 v -12.17187 l 1.375,-0.25 v 4.0625 q 0.29688,-0.0937 0.65625,-0.15625 0.35938,-0.0625 0.73438,-0.0625 0.53125,0 0.98437,0.17187 0.46875,0.17188 0.8125,0.57813 0.34375,0.39062 0.54688,1.07812 0.20312,0.67188 0.20312,1.67188 v 5.07812 h -1.375 v -4.95312 q 0,-1.25 -0.32812,-1.82813 -0.3125,-0.57812 -1.20313,-0.57812 -0.45312,0 -1.03125,0.15625 v 7.20312 z m 10.28516,-10.40625 q 0.9375,-0.9375 2.3125,-0.9375 1.28125,0 1.96875,0.6875 0.70313,0.67188 0.70313,2.10938 0,0.67187 -0.23438,1.28125 -0.21875,0.60937 -0.5625,1.1875 -0.32812,0.5625 -0.73437,1.125 -0.39063,0.54687 -0.76563,1.14062 -0.35937,0.57813 -0.64062,1.21875 -0.26563,0.625 -0.32813,1.34375 h 3.48438 v 1.25 h -4.96875 v -0.29687 q 0,-1.07813 0.25,-1.90625 0.25,-0.84375 0.60937,-1.51563 0.35938,-0.67187 0.79688,-1.23437 0.4375,-0.57813 0.79687,-1.125 0.35938,-0.5625 0.59375,-1.14063 0.25,-0.59375 0.25,-1.29687 0,-0.84375 -0.34375,-1.21875 -0.32812,-0.375 -1,-0.375 -0.45312,0 -0.82812,0.1875 -0.375,0.17187 -0.6875,0.46875 z"
       fill-rule="nonzero"
       id="path45" />
    <path
       fill="#434343"
       d="m 240,175.2937 h 197.6063 v 71.55905 H 240 Z"
       fill-rule="evenodd"
       id="path47" />
    <path
       stroke="#d9d9d9"
       stroke-width="1"
       stroke-linejoin="round"
       stroke-linecap="butt"
       d="m 240,175.2937 h 197.6063 v 71.55905 H 240 Z"
       fill-rule="evenodd"
       id="path49" />
    <path
       fill="#eeeeee"
       d="m 252.40158,200.5706 h 173.22833 v 35.02362 H 252.40158 Z"
       fill-rule="evenodd"
       id="path51" />
    <path
       stroke="#595959"
       stroke-width="1"
       stroke-linejoin="round"
       stroke-linecap="butt"
       d="m 252.40158,200.5706 h 173.22833 v 35.02362 H 252.40158 Z"
       fill-rule="evenodd"
       id="path53" />
    <path
       fill="#ffe599"
       d="m 382.80054,204.08241 h 40 v 28 h -40 z"
       fill-rule="evenodd"
       id="path55" />
    <path
       stroke="#595959"
       stroke-width="1"
       stroke-linejoin="round"
       stroke-linecap="butt"
       d="m 382.80054,204.08241 h 40 v 28 h -40 z"
       fill-rule="evenodd"
       id="path57" />
    <path
       fill="#000000"
       d="m 395.0265,215.78616 q 0.5625,-0.1875 1.21875,-0.29688 0.65625,-0.125 1.1875,-0.125 0.5625,0 1.01562,0.15625 0.46875,0.14063 0.8125,0.46875 0.42188,-0.26562 0.89063,-0.4375 0.48437,-0.1875 1.0625,-0.1875 0.57812,0 1.04687,0.17188 0.46875,0.17187 0.79688,0.57812 0.34375,0.39063 0.53125,1.07813 0.20312,0.67187 0.20312,1.67187 v 5.07813 h -1.375 v -4.95313 q 0,-1.25 -0.29687,-1.82812 -0.28125,-0.57813 -1.07813,-0.57813 -0.3125,0 -0.625,0.10938 -0.29687,0.10937 -0.57812,0.3125 0.125,0.35937 0.1875,0.82812 0.0625,0.46875 0.0625,1.03125 v 5.07813 h -1.375 v -4.95313 q 0,-1.25 -0.28125,-1.82812 -0.28125,-0.57813 -1.09375,-0.57813 -0.40625,0 -0.9375,0.15625 v 7.20313 h -1.375 z m 11.04303,-0.71875 q 0.29687,-0.1875 0.625,-0.4375 0.32812,-0.25 0.625,-0.54688 0.3125,-0.29687 0.57812,-0.60937 0.26563,-0.3125 0.4375,-0.625 h 1.0625 v 11.09375 h -1.375 v -8.90625 q -0.28125,0.28125 -0.64062,0.54687 -0.35938,0.25 -0.75,0.46875 z"
       fill-rule="nonzero"
       id="path59" />
    <path
       fill="#ffe599"
       d="m 340.39896,204.08241 h 40 v 28 h -40 z"
       fill-rule="evenodd"
       id="path61" />
    <path
       stroke="#595959"
       stroke-width="1"
       stroke-linejoin="round"
       stroke-linecap="butt"
       d="m 340.39896,204.08241 h 40 v 28 h -40 z"
       fill-rule="evenodd"
       id="path63" />
    <path
       fill="#000000"
       d="m 352.62494,215.78616 q 0.5625,-0.1875 1.21875,-0.29688 0.65625,-0.125 1.1875,-0.125 0.5625,0 1.01562,0.15625 0.46875,0.14063 0.8125,0.46875 0.42188,-0.26562 0.89063,-0.4375 0.48437,-0.1875 1.0625,-0.1875 0.57812,0 1.04687,0.17188 0.46875,0.17187 0.79688,0.57812 0.34375,0.39063 0.53125,1.07813 0.20312,0.67187 0.20312,1.67187 v 5.07813 h -1.375 v -4.95313 q 0,-1.25 -0.29687,-1.82812 -0.28125,-0.57813 -1.07813,-0.57813 -0.3125,0 -0.625,0.10938 -0.29687,0.10937 -0.57812,0.3125 0.125,0.35937 0.1875,0.82812 0.0625,0.46875 0.0625,1.03125 v 5.07813 h -1.375 v -4.95313 q 0,-1.25 -0.28125,-1.82812 -0.28125,-0.57813 -1.09375,-0.57813 -0.40625,0 -0.9375,0.15625 v 7.20313 h -1.375 z m 10.62115,-2.25 q 0.9375,-0.9375 2.3125,-0.9375 1.28125,0 1.96875,0.6875 0.70313,0.67187 0.70313,2.10937 0,0.67188 -0.23438,1.28125 -0.21875,0.60938 -0.5625,1.1875 -0.32812,0.5625 -0.73437,1.125 -0.39063,0.54688 -0.76563,1.14063 -0.35937,0.57812 -0.64062,1.21875 -0.26563,0.625 -0.32813,1.34375 h 3.48438 v 1.25 h -4.96875 v -0.29688 q 0,-1.07812 0.25,-1.90625 0.25,-0.84375 0.60937,-1.51562 0.35938,-0.67188 0.79688,-1.23438 0.4375,-0.57812 0.79687,-1.125 0.35938,-0.5625 0.59375,-1.14062 0.25,-0.59375 0.25,-1.29688 0,-0.84375 -0.34375,-1.21875 -0.32812,-0.375 -1,-0.375 -0.45312,0 -0.82812,0.1875 -0.375,0.17188 -0.6875,0.46875 z"
       fill-rule="nonzero"
       id="path65" />
    <path
       fill="#ffe599"
       d="m 297.99738,204.08241 h 40 v 28 h -40 z"
       fill-rule="evenodd"
       id="path67" />
    <path
       stroke="#595959"
       stroke-width="1"
       stroke-linejoin="round"
       stroke-linecap="butt"
       d="m 297.99738,204.08241 h 40 v 28 h -40 z"
       fill-rule="evenodd"
       id="path69" />
    <path
       fill="#000000"
       d="m 310.22336,215.78616 q 0.5625,-0.1875 1.21875,-0.29688 0.65625,-0.125 1.1875,-0.125 0.5625,0 1.01563,0.15625 0.46875,0.14063 0.8125,0.46875 0.42187,-0.26562 0.89062,-0.4375 0.48438,-0.1875 1.0625,-0.1875 0.57813,0 1.04688,0.17188 0.46875,0.17187 0.79687,0.57812 0.34375,0.39063 0.53125,1.07813 0.20313,0.67187 0.20313,1.67187 v 5.07813 h -1.375 v -4.95313 q 0,-1.25 -0.29688,-1.82812 -0.28125,-0.57813 -1.07812,-0.57813 -0.3125,0 -0.625,0.10938 -0.29688,0.10937 -0.57813,0.3125 0.125,0.35937 0.1875,0.82812 0.0625,0.46875 0.0625,1.03125 v 5.07813 h -1.375 v -4.95313 q 0,-1.25 -0.28125,-1.82812 -0.28125,-0.57813 -1.09375,-0.57813 -0.40625,0 -0.9375,0.15625 v 7.20313 h -1.375 z m 14.0274,2.1875 q 0.79688,0.28125 1.23438,1.01562 0.45312,0.73438 0.45312,1.875 0,1.54688 -0.75,2.4375 -0.75,0.875 -2.25,0.875 -0.59375,0 -1.15625,-0.17187 -0.54687,-0.17188 -0.96875,-0.46875 l 0.375,-1.10938 q 0.35938,0.21875 0.76563,0.39063 0.40625,0.15625 0.85937,0.15625 0.8125,0 1.26563,-0.5 0.46875,-0.51563 0.46875,-1.625 0,-1.09375 -0.51563,-1.65625 -0.5,-0.5625 -1.60937,-0.5625 h -0.40625 v -1.17188 h 0.34375 q 0.96875,0 1.42187,-0.5 0.46875,-0.51562 0.46875,-1.4375 0,-0.85937 -0.375,-1.28125 -0.35937,-0.42187 -0.96875,-0.42187 -0.40625,0 -0.79687,0.15625 -0.375,0.15625 -0.64063,0.40625 l -0.54687,-1.01563 q 0.42187,-0.375 0.98437,-0.5625 0.57813,-0.20312 1.125,-0.20312 1.25,0 1.92188,0.78125 0.67187,0.78125 0.67187,2.07812 0,0.92188 -0.35937,1.5625 -0.35938,0.625 -1.01563,0.95313 z"
       fill-rule="nonzero"
       id="path71" />
    <path
       fill="#ffe599"
       d="m 255.5958,204.08241 h 40 v 28 h -40 z"
       fill-rule="evenodd"
       id="path73" />
    <path
       stroke="#595959"
       stroke-width="1"
       stroke-linejoin="round"
       stroke-linecap="butt"
       d="m 255.5958,204.08241 h 40 v 28 h -40 z"
       fill-rule="evenodd"
       id="path75" />
    <path
       fill="#000000"
       d="m 267.82178,215.78616 q 0.5625,-0.1875 1.21875,-0.29688 0.65625,-0.125 1.1875,-0.125 0.5625,0 1.01562,0.15625 0.46875,0.14063 0.8125,0.46875 0.42188,-0.26562 0.89063,-0.4375 0.48437,-0.1875 1.0625,-0.1875 0.57812,0 1.04687,0.17188 0.46875,0.17187 0.79688,0.57812 0.34375,0.39063 0.53125,1.07813 0.20312,0.67187 0.20312,1.67187 v 5.07813 h -1.375 v -4.95313 q 0,-1.25 -0.29687,-1.82812 -0.28125,-0.57813 -1.07813,-0.57813 -0.3125,0 -0.625,0.10938 -0.29687,0.10937 -0.57812,0.3125 0.125,0.35937 0.1875,0.82812 0.0625,0.46875 0.0625,1.03125 v 5.07813 h -1.375 v -4.95313 q 0,-1.25 -0.28125,-1.82812 -0.28125,-0.57813 -1.09375,-0.57813 -0.40625,0 -0.9375,0.15625 v 7.20313 h -1.375 z m 10.5899,4.4375 q 0.28125,-0.98438 0.73438,-2.07813 0.45312,-1.10937 0.92187,-2.125 0.48438,-1.03125 0.92188,-1.85937 0.45312,-0.84375 0.71875,-1.3125 h 1.40625 v 7.25 h 1.09375 v 1.14062 h -1.09375 v 2.70313 h -1.26563 v -2.70313 h -3.4375 z m 3.4375,-0.125 v -5.40625 q -0.23437,0.5 -0.54687,1.14062 -0.3125,0.64063 -0.625,1.35938 -0.3125,0.71875 -0.60938,1.46875 -0.28125,0.73437 -0.48437,1.4375 z"
       fill-rule="nonzero"
       id="path77" />
    <path
       fill="#000000"
       fill-opacity="0"
       d="M 252.4147,169.79895 H 425.64303 V 208.5706 H 252.4147 Z"
       fill-rule="evenodd"
       id="path79" />
    <path
       fill="#f3f3f3"
       d="m 312.93805,183.0652 q 0.39062,1.20312 0.76562,2.4375 0.375,1.21875 0.73438,2.5625 0.35937,1.34375 0.71875,2.84375 0.35937,1.5 0.73437,3.25 h -1.45312 q -0.125,-0.71875 -0.26563,-1.42188 -0.125,-0.70312 -0.26562,-1.40625 h -3.5 q -0.15625,0.70313 -0.28125,1.40625 -0.125,0.70313 -0.25,1.42188 h -1.40625 q 0.35937,-1.75 0.71875,-3.25 0.375,-1.5 0.73437,-2.84375 0.35938,-1.34375 0.73438,-2.5625 0.375,-1.23438 0.76562,-2.4375 z m -0.78125,1.64062 q -0.40625,1.32813 -0.78125,2.67188 -0.35938,1.34375 -0.6875,2.75 h 2.92187 q -0.3125,-1.40625 -0.6875,-2.75 -0.35937,-1.34375 -0.76562,-2.67188 z m 5.173,0.57813 q 0.29688,-0.1875 0.625,-0.4375 0.32813,-0.25 0.625,-0.54688 0.3125,-0.29687 0.57813,-0.60937 0.26562,-0.3125 0.4375,-0.625 h 1.0625 v 11.09375 h -1.375 v -8.90625 q -0.28125,0.28125 -0.64063,0.54687 -0.35937,0.25 -0.75,0.46875 z m 11.65628,2.5 h 1 q 1.98438,0 1.98438,-1.78125 0,-0.5625 -0.17188,-0.92188 -0.17187,-0.35937 -0.45312,-0.5625 -0.26563,-0.20312 -0.625,-0.28125 -0.35938,-0.0781 -0.75,-0.0781 -0.25,0 -0.5,0.0156 -0.23438,0.0156 -0.48438,0.0469 z m 0,1.15625 v 4 q 0.3125,0.0469 0.60938,0.0781 0.29687,0.0312 0.57812,0.0312 0.45313,0 0.84375,-0.0937 0.40625,-0.0937 0.70313,-0.3125 0.29687,-0.23437 0.45312,-0.625 0.17188,-0.39062 0.17188,-0.96875 0,-0.98437 -0.53125,-1.54687 -0.53125,-0.5625 -1.67188,-0.5625 z m -1.4375,-5.70313 q 0.5625,-0.14062 1.14063,-0.20312 0.59375,-0.0781 1.15625,-0.0781 0.73437,0 1.375,0.14063 0.64062,0.14062 1.14062,0.46875 0.5,0.32812 0.79688,0.85937 0.29687,0.53125 0.29687,1.32813 0,1 -0.42187,1.64062 -0.40625,0.625 -1.0625,0.92188 0.8125,0.32812 1.32812,0.98437 0.53125,0.65625 0.53125,1.79688 0,0.875 -0.28125,1.46875 -0.26562,0.57812 -0.78125,0.96875 -0.51562,0.375 -1.23437,0.54687 -0.70313,0.15625 -1.54688,0.15625 -0.5625,0 -1.17187,-0.0625 -0.60938,-0.0625 -1.26563,-0.1875 z m 8.36728,2.70313 q 0.42188,-0.1875 0.875,-0.28125 0.46875,-0.10938 1.01563,-0.10938 1.125,0 1.82812,0.70313 0.70313,0.6875 0.70313,2.15625 v 5.57812 q -0.57813,0.15625 -1.1875,0.25 -0.59375,0.0937 -1.17188,0.0937 -0.57812,0 -1.07812,-0.14062 -0.5,-0.14063 -0.875,-0.45313 -0.375,-0.32812 -0.60938,-0.8125 -0.21875,-0.5 -0.21875,-1.20312 0,-0.65625 0.20313,-1.14063 0.20312,-0.48437 0.54687,-0.8125 0.35938,-0.32812 0.82813,-0.5 0.48437,-0.17187 1.04687,-0.17187 0.53125,0 1.17188,0.14062 v -0.78125 q 0,-0.92187 -0.35938,-1.28125 -0.35937,-0.375 -1.03125,-0.375 -0.375,0 -0.70312,0.0781 -0.32813,0.0625 -0.70313,0.21875 z m 0.65625,5.76562 q 0,0.73438 0.375,1.09375 0.39063,0.34375 1.09375,0.34375 0.4375,0 0.95313,-0.10937 v -2.67188 q -0.48438,-0.125 -0.95313,-0.125 -0.29687,0 -0.57812,0.0781 -0.26563,0.0625 -0.46875,0.23437 -0.20313,0.17188 -0.3125,0.45313 -0.10938,0.28125 -0.10938,0.70312 z m 7.444,-5.95312 h 2.10938 v 1.1875 h -2.10938 v 4.625 q 0,0.85937 0.3125,1.20312 0.3125,0.34375 0.84375,0.34375 0.26563,0 0.51563,-0.0781 0.25,-0.0781 0.42187,-0.1875 l 0.26563,1.10937 q -0.65625,0.375 -1.39063,0.375 -1.1875,0 -1.76562,-0.65625 -0.57813,-0.67187 -0.57813,-2.20312 v -7.96875 l 1.375,-0.23438 z m 6.33728,8.60937 q -0.875,0 -1.45312,-0.32812 -0.5625,-0.34375 -0.92188,-0.92188 -0.35937,-0.57812 -0.51562,-1.375 -0.15625,-0.8125 -0.15625,-1.75 0,-2.07812 0.75,-3.25 0.76562,-1.1875 2.3125,-1.1875 0.45312,0 0.82812,0.10938 0.375,0.10937 0.6875,0.29687 l -0.35937,1.125 q -0.48438,-0.3125 -1.09375,-0.3125 -0.85938,0 -1.28125,0.78125 -0.40625,0.78125 -0.40625,2.4375 0,0.6875 0.0781,1.28125 0.0937,0.57813 0.28125,1 0.20313,0.40625 0.53125,0.64063 0.32813,0.23437 0.84375,0.23437 0.34375,0 0.625,-0.0781 0.28125,-0.0937 0.54688,-0.23438 l 0.29687,1.07813 q -0.25,0.17187 -0.6875,0.3125 -0.42187,0.14062 -0.90625,0.14062 z m 3.08551,-0.20312 v -12.17188 l 1.375,-0.25 v 4.0625 q 0.29688,-0.0937 0.65625,-0.15625 0.35938,-0.0625 0.73438,-0.0625 0.53125,0 0.98437,0.17188 0.46875,0.17187 0.8125,0.57812 0.34375,0.39063 0.54688,1.07813 0.20312,0.67187 0.20312,1.67187 v 5.07813 h -1.375 v -4.95313 q 0,-1.25 -0.32812,-1.82812 -0.3125,-0.57813 -1.20313,-0.57813 -0.45312,0 -1.03125,0.15625 v 7.20313 z m 10.70704,-8.875 q 0.29687,-0.1875 0.625,-0.4375 0.32812,-0.25 0.625,-0.54688 0.3125,-0.29687 0.57812,-0.60937 0.26563,-0.3125 0.4375,-0.625 h 1.0625 v 11.09375 h -1.375 v -8.90625 q -0.28125,0.28125 -0.64062,0.54687 -0.35938,0.25 -0.75,0.46875 z"
       fill-rule="nonzero"
       id="path81" />
    <path
       fill="#6fa8dc"
       d="m 633.19946,324.37402 h 101.13385 v 42.01575 H 633.19946 Z"
       fill-rule="evenodd"
       id="path83" />
    <path
       fill="#f3f3f3"
       d="m 650.7184,338.37213 v 1.42188 h -2.875 v 11.5 h -1.67188 v -11.5 h -2.875 v -1.42188 z m 6.9834,8.03125 q 0,1.15625 -0.21875,2.10938 -0.20313,0.9375 -0.625,1.60937 -0.40625,0.67188 -1.0625,1.04688 -0.64063,0.375 -1.51563,0.375 -0.875,0 -1.53125,-0.375 -0.65625,-0.375 -1.07812,-1.04688 -0.40625,-0.67187 -0.625,-1.60937 -0.20313,-0.95313 -0.20313,-2.10938 0,-1.14062 0.20313,-2.07812 0.21875,-0.95313 0.625,-1.64063 0.42187,-0.6875 1.07812,-1.04687 0.65625,-0.375 1.53125,-0.375 0.875,0 1.51563,0.375 0.65625,0.35937 1.0625,1.04687 0.42187,0.6875 0.625,1.64063 0.21875,0.9375 0.21875,2.07812 z m -1.6875,0 q 0,-0.8125 -0.0937,-1.5 -0.0937,-0.6875 -0.29688,-1.17187 -0.20312,-0.5 -0.54687,-0.76563 -0.32813,-0.26562 -0.79688,-0.26562 -0.48437,0 -0.8125,0.26562 -0.32812,0.26563 -0.54687,0.76563 -0.20313,0.48437 -0.29688,1.17187 -0.0937,0.6875 -0.0937,1.5 0,0.82813 0.0937,1.51563 0.0937,0.67187 0.29688,1.15625 0.21875,0.48437 0.54687,0.76562 0.32813,0.26563 0.8125,0.26563 0.46875,0 0.79688,-0.26563 0.34375,-0.28125 0.54687,-0.76562 0.20313,-0.48438 0.29688,-1.15625 0.0937,-0.6875 0.0937,-1.51563 z m 5.62219,3.42188 q 0.53125,0.29687 1.15625,0.29687 0.46875,0 0.8125,-0.1875 0.35938,-0.1875 0.60938,-0.60937 0.25,-0.4375 0.375,-1.14063 0.14062,-0.71875 0.14062,-1.76562 0,-2.01563 -0.51562,-2.875 -0.51563,-0.875 -1.625,-0.875 -0.21875,0 -0.46875,0.0312 -0.23438,0.0312 -0.48438,0.10937 z m 0,4.92187 h -1.60937 v -12.98437 q 0.51562,-0.21875 1.17187,-0.35938 0.67188,-0.14062 1.35938,-0.14062 1.03125,0 1.76562,0.35937 0.73438,0.34375 1.1875,1.01563 0.46875,0.65625 0.67188,1.625 0.21875,0.95312 0.21875,2.1875 0,2.46875 -0.79688,3.78125 -0.78125,1.3125 -2.57812,1.3125 -0.42188,0 -0.76563,-0.0937 -0.32812,-0.0781 -0.625,-0.23438 z m 14.88171,-16.375 q 0.45313,1.39063 0.89063,2.82813 0.4375,1.42187 0.85937,2.98437 0.42188,1.5625 0.82813,3.32813 0.42187,1.75 0.85937,3.78125 h -1.6875 q -0.14062,-0.84375 -0.3125,-1.65625 -0.15625,-0.82813 -0.3125,-1.64063 h -4.07812 q -0.1875,0.8125 -0.34375,1.64063 -0.14063,0.8125 -0.28125,1.65625 h -1.625 q 0.40625,-2.03125 0.82812,-3.78125 0.4375,-1.76563 0.85938,-3.32813 0.42187,-1.5625 0.85937,-2.98437 0.4375,-1.4375 0.89063,-2.82813 z m -0.90625,1.89063 q -0.46875,1.54687 -0.90625,3.125 -0.42187,1.5625 -0.8125,3.20312 h 3.40625 q -0.375,-1.64062 -0.8125,-3.20312 -0.42187,-1.57813 -0.875,-3.125 z m 9.91266,-1.71875 q 1.3125,-0.3125 2.5625,-0.3125 0.96875,0 1.75,0.23437 0.79688,0.23438 1.35938,0.73438 0.57812,0.48437 0.89062,1.28125 0.3125,0.78125 0.3125,1.875 0,1.125 -0.32812,1.92187 -0.3125,0.78125 -0.89063,1.28125 -0.57812,0.48438 -1.39062,0.71875 -0.8125,0.21875 -1.79688,0.21875 h -0.78125 v 4.79688 h -1.6875 z m 1.6875,6.48437 h 0.67188 q 0.625,0 1.14062,-0.14062 0.51563,-0.14063 0.85938,-0.45313 0.35937,-0.32812 0.54687,-0.82812 0.1875,-0.5 0.1875,-1.25 0,-0.75 -0.1875,-1.25 -0.1875,-0.51563 -0.51562,-0.82813 -0.3125,-0.3125 -0.78125,-0.4375 -0.46875,-0.125 -1.03125,-0.125 -0.48438,0 -0.89063,0.0469 z m 7.03437,-3.32812 q 0.48437,-0.20313 1.01562,-0.3125 0.54688,-0.125 1.1875,-0.125 1.29682,0 2.10932,0.8125 0.82812,0.8125 0.82812,2.51562 v 6.5 q -0.67187,0.1875 -1.375,0.29688 -0.6875,0.10937 -1.35931,0.10937 -0.67188,0 -1.26563,-0.17187 -0.57812,-0.15625 -1.03125,-0.53125 -0.4375,-0.375 -0.70312,-0.9375 -0.25,-0.57813 -0.25,-1.39063 0,-0.76562 0.23437,-1.32812 0.23438,-0.57813 0.64063,-0.95313 0.40625,-0.39062 0.96875,-0.57812 0.5625,-0.20313 1.21875,-0.20313 0.60937,0 1.35931,0.14063 v -0.89063 q 0,-1.07812 -0.42187,-1.5 -0.42182,-0.4375 -1.20307,-0.4375 -0.42187,0 -0.8125,0.0937 -0.375,0.0781 -0.8125,0.25 z m 0.76562,6.73437 q 0,0.85938 0.4375,1.28125 0.45313,0.40625 1.26563,0.40625 0.51556,0 1.10931,-0.14062 v -3.10938 q -0.5625,-0.15625 -1.10931,-0.15625 -0.34375,0 -0.67188,0.0937 -0.3125,0.0781 -0.54687,0.28125 -0.23438,0.1875 -0.35938,0.51563 -0.125,0.32812 -0.125,0.82812 z m 11.4093,-5.48437 q -0.59375,-0.25 -1.34375,-0.25 -0.6875,0 -1.28125,0.23437 v 8.35938 h -1.60937 v -9.35938 q 0.54687,-0.26562 1.23437,-0.4375 0.70313,-0.1875 1.54688,-0.1875 0.45312,0 0.89062,0.0625 0.45313,0.0469 0.84375,0.20313 z m 3.38483,-1.45313 h 2.45313 v 1.39063 h -2.45313 v 5.39062 q 0,1 0.35938,1.40625 0.35937,0.39063 0.98437,0.39063 0.3125,0 0.59375,-0.0937 0.29688,-0.0937 0.5,-0.21875 l 0.3125,1.28125 q -0.76562,0.45312 -1.625,0.45312 -1.375,0 -2.0625,-0.76562 -0.67187,-0.78125 -0.67187,-2.57813 v -9.28125 l 1.60937,-0.28125 z m 7.98602,-0.5625 q 0.34375,-0.20312 0.71875,-0.5 0.39063,-0.29687 0.75,-0.64062 0.35938,-0.34375 0.65625,-0.70313 0.3125,-0.375 0.51563,-0.71875 h 1.23437 v 12.92188 h -1.60937 v -10.39063 q -0.3125,0.32813 -0.73438,0.64063 -0.42187,0.29687 -0.89062,0.54687 z"
       fill-rule="nonzero"
       id="path85" />
    <path
       fill="#e06666"
       d="m 633.19946,372.6601 h 101.13385 v 42.01575 H 633.19946 Z"
       fill-rule="evenodd"
       id="path87" />
    <path
       fill="#f3f3f3"
       d="m 649.88696,386.65823 v 1.42187 h -2.875 v 11.5 h -1.67187 v -11.5 h -2.875 v -1.42187 z m 6.9834,8.03125 q 0,1.15625 -0.21875,2.10937 -0.20313,0.9375 -0.625,1.60938 -0.40625,0.67187 -1.0625,1.04687 -0.64063,0.375 -1.51563,0.375 -0.875,0 -1.53125,-0.375 -0.65625,-0.375 -1.07812,-1.04687 -0.40625,-0.67188 -0.625,-1.60938 -0.20313,-0.95312 -0.20313,-2.10937 0,-1.14063 0.20313,-2.07813 0.21875,-0.95312 0.625,-1.64062 0.42187,-0.6875 1.07812,-1.04688 0.65625,-0.375 1.53125,-0.375 0.875,0 1.51563,0.375 0.65625,0.35938 1.0625,1.04688 0.42187,0.6875 0.625,1.64062 0.21875,0.9375 0.21875,2.07813 z m -1.6875,0 q 0,-0.8125 -0.0937,-1.5 -0.0937,-0.6875 -0.29688,-1.17188 -0.20312,-0.5 -0.54687,-0.76562 -0.32813,-0.26563 -0.79688,-0.26563 -0.48437,0 -0.8125,0.26563 -0.32812,0.26562 -0.54687,0.76562 -0.20313,0.48438 -0.29688,1.17188 -0.0937,0.6875 -0.0937,1.5 0,0.82812 0.0937,1.51562 0.0937,0.67188 0.29688,1.15625 0.21875,0.48438 0.54687,0.76563 0.32813,0.26562 0.8125,0.26562 0.46875,0 0.79688,-0.26562 0.34375,-0.28125 0.54687,-0.76563 0.20313,-0.48437 0.29688,-1.15625 0.0937,-0.6875 0.0937,-1.51562 z m 5.62225,3.42187 q 0.53125,0.29688 1.15625,0.29688 0.46875,0 0.8125,-0.1875 0.35938,-0.1875 0.60938,-0.60938 0.25,-0.4375 0.375,-1.14062 0.14062,-0.71875 0.14062,-1.76563 0,-2.01562 -0.51562,-2.875 -0.51563,-0.875 -1.625,-0.875 -0.21875,0 -0.46875,0.0312 -0.23438,0.0312 -0.48438,0.10938 z m 0,4.92188 h -1.60937 v -12.98438 q 0.51562,-0.21875 1.17187,-0.35937 0.67188,-0.14063 1.35938,-0.14063 1.03125,0 1.76562,0.35938 0.73438,0.34375 1.1875,1.01562 0.46875,0.65625 0.67188,1.625 0.21875,0.95313 0.21875,2.1875 0,2.46875 -0.79688,3.78125 -0.78125,1.3125 -2.57812,1.3125 -0.42188,0 -0.76563,-0.0937 -0.32812,-0.0781 -0.625,-0.23437 z m 14.88165,-16.375 q 0.45313,1.39062 0.89063,2.82812 0.4375,1.42188 0.85937,2.98438 0.42188,1.5625 0.82813,3.32812 0.42187,1.75 0.85937,3.78125 h -1.6875 q -0.14062,-0.84375 -0.3125,-1.65625 -0.15625,-0.82812 -0.3125,-1.64062 h -4.07812 q -0.1875,0.8125 -0.34375,1.64062 -0.14063,0.8125 -0.28125,1.65625 h -1.625 q 0.40625,-2.03125 0.82812,-3.78125 0.4375,-1.76562 0.85938,-3.32812 0.42187,-1.5625 0.85937,-2.98438 0.4375,-1.4375 0.89063,-2.82812 z m -0.90625,1.89062 q -0.46875,1.54688 -0.90625,3.125 -0.42187,1.5625 -0.8125,3.20313 h 3.40625 q -0.375,-1.64063 -0.8125,-3.20313 -0.42187,-1.57812 -0.875,-3.125 z m 9.91272,-1.71875 q 1.3125,-0.3125 2.5625,-0.3125 0.96875,0 1.75,0.23438 0.79688,0.23437 1.35938,0.73437 0.57812,0.48438 0.89062,1.28125 0.3125,0.78125 0.3125,1.875 0,1.125 -0.32812,1.92188 -0.3125,0.78125 -0.89063,1.28125 -0.57812,0.48437 -1.39062,0.71875 -0.8125,0.21875 -1.79688,0.21875 h -0.78125 v 4.79687 h -1.6875 z m 1.6875,6.48438 h 0.67188 q 0.625,0 1.14062,-0.14063 0.51563,-0.14062 0.85938,-0.45312 0.35937,-0.32813 0.54687,-0.82813 0.1875,-0.5 0.1875,-1.25 0,-0.75 -0.1875,-1.25 -0.1875,-0.51562 -0.51562,-0.82812 -0.3125,-0.3125 -0.78125,-0.4375 -0.46875,-0.125 -1.03125,-0.125 -0.48438,0 -0.89063,0.0469 z m 7.03431,-3.32813 q 0.48437,-0.20312 1.01562,-0.3125 0.54688,-0.125 1.1875,-0.125 1.29688,0 2.10938,0.8125 0.82812,0.8125 0.82812,2.51563 v 6.5 q -0.67187,0.1875 -1.375,0.29687 -0.6875,0.10938 -1.35937,0.10938 -0.67188,0 -1.26563,-0.17188 -0.57812,-0.15625 -1.03125,-0.53125 -0.4375,-0.375 -0.70312,-0.9375 -0.25,-0.57812 -0.25,-1.39062 0,-0.76563 0.23437,-1.32813 0.23438,-0.57812 0.64063,-0.95312 0.40625,-0.39063 0.96875,-0.57813 0.5625,-0.20312 1.21875,-0.20312 0.60937,0 1.35937,0.14062 v -0.89062 q 0,-1.07813 -0.42187,-1.5 -0.42188,-0.4375 -1.20313,-0.4375 -0.42187,0 -0.8125,0.0937 -0.375,0.0781 -0.8125,0.25 z m 0.76562,6.73438 q 0,0.85937 0.4375,1.28125 0.45313,0.40625 1.26563,0.40625 0.51562,0 1.10937,-0.14063 v -3.10937 q -0.5625,-0.15625 -1.10937,-0.15625 -0.34375,0 -0.67188,0.0937 -0.3125,0.0781 -0.54687,0.28125 -0.23438,0.1875 -0.35938,0.51562 -0.125,0.32813 -0.125,0.82813 z m 11.4093,-5.48438 q -0.59375,-0.25 -1.34375,-0.25 -0.6875,0 -1.28125,0.23438 v 8.35937 h -1.60937 v -9.35937 q 0.54687,-0.26563 1.23437,-0.4375 0.70313,-0.1875 1.54688,-0.1875 0.45312,0 0.89062,0.0625 0.45313,0.0469 0.84375,0.20312 z m 3.38489,-1.45312 h 2.45313 v 1.39062 h -2.45313 v 5.39063 q 0,1 0.35938,1.40625 0.35937,0.39062 0.98437,0.39062 0.3125,0 0.59375,-0.0937 0.29688,-0.0937 0.5,-0.21875 l 0.3125,1.28125 q -0.76562,0.45313 -1.625,0.45313 -1.375,0 -2.0625,-0.76563 -0.67187,-0.78125 -0.67187,-2.57812 v -9.28125 l 1.60937,-0.28125 z m 7.50165,-2.32813 q 1.09375,-1.10937 2.67187,-1.10937 1.51563,0 2.3125,0.79687 0.8125,0.79688 0.8125,2.46875 0,0.79688 -0.26562,1.5 -0.26563,0.70313 -0.65625,1.375 -0.39063,0.65625 -0.85938,1.3125 -0.45312,0.65625 -0.89062,1.34375 -0.42188,0.67188 -0.75,1.40625 -0.3125,0.73438 -0.39063,1.57813 h 4.07813 v 1.45312 h -5.79688 v -0.35937 q 0,-1.25 0.28125,-2.21875 0.29688,-0.96875 0.71875,-1.75 0.42188,-0.78125 0.92188,-1.45313 0.51562,-0.67187 0.92187,-1.3125 0.42188,-0.65625 0.70313,-1.32812 0.29687,-0.6875 0.29687,-1.5 0,-0.98438 -0.39062,-1.42188 -0.39063,-0.45312 -1.17188,-0.45312 -0.54687,0 -0.98437,0.21875 -0.4375,0.21875 -0.78125,0.54687 z"
       fill-rule="nonzero"
       id="path89" />
    <path
       fill="#6fa8dc"
       d="M 633.19946,420.95145 H 734.33331 V 462.9672 H 633.19946 Z"
       fill-rule="evenodd"
       id="path91" />
    <path
       fill="#f3f3f3"
       d="m 649.88696,434.94955 v 1.42187 h -2.875 v 11.5 h -1.67187 v -11.5 h -2.875 v -1.42187 z m 6.9834,8.03125 q 0,1.15625 -0.21875,2.10937 -0.20313,0.9375 -0.625,1.60938 -0.40625,0.67187 -1.0625,1.04687 -0.64063,0.375 -1.51563,0.375 -0.875,0 -1.53125,-0.375 -0.65625,-0.375 -1.07812,-1.04687 -0.40625,-0.67188 -0.625,-1.60938 -0.20313,-0.95312 -0.20313,-2.10937 0,-1.14063 0.20313,-2.07813 0.21875,-0.95312 0.625,-1.64062 0.42187,-0.6875 1.07812,-1.04688 0.65625,-0.375 1.53125,-0.375 0.875,0 1.51563,0.375 0.65625,0.35938 1.0625,1.04688 0.42187,0.6875 0.625,1.64062 0.21875,0.9375 0.21875,2.07813 z m -1.6875,0 q 0,-0.8125 -0.0937,-1.5 -0.0937,-0.6875 -0.29688,-1.17188 -0.20312,-0.5 -0.54687,-0.76562 -0.32813,-0.26563 -0.79688,-0.26563 -0.48437,0 -0.8125,0.26563 -0.32812,0.26562 -0.54687,0.76562 -0.20313,0.48438 -0.29688,1.17188 -0.0937,0.6875 -0.0937,1.5 0,0.82812 0.0937,1.51562 0.0937,0.67188 0.29688,1.15625 0.21875,0.48438 0.54687,0.76563 0.32813,0.26562 0.8125,0.26562 0.46875,0 0.79688,-0.26562 0.34375,-0.28125 0.54687,-0.76563 0.20313,-0.48437 0.29688,-1.15625 0.0937,-0.6875 0.0937,-1.51562 z m 5.62225,3.42187 q 0.53125,0.29688 1.15625,0.29688 0.46875,0 0.8125,-0.1875 0.35938,-0.1875 0.60938,-0.60938 0.25,-0.4375 0.375,-1.14062 0.14062,-0.71875 0.14062,-1.76563 0,-2.01562 -0.51562,-2.875 -0.51563,-0.875 -1.625,-0.875 -0.21875,0 -0.46875,0.0312 -0.23438,0.0312 -0.48438,0.10938 z m 0,4.92188 h -1.60937 v -12.98438 q 0.51562,-0.21875 1.17187,-0.35937 0.67188,-0.14063 1.35938,-0.14063 1.03125,0 1.76562,0.35938 0.73438,0.34375 1.1875,1.01562 0.46875,0.65625 0.67188,1.625 0.21875,0.95313 0.21875,2.1875 0,2.46875 -0.79688,3.78125 -0.78125,1.3125 -2.57812,1.3125 -0.42188,0 -0.76563,-0.0937 -0.32812,-0.0781 -0.625,-0.23437 z m 12.55353,-10.875 h 1.15625 q 2.3125,0 2.3125,-2.09375 0,-0.65625 -0.20313,-1.0625 -0.1875,-0.42188 -0.51562,-0.65625 -0.3125,-0.23438 -0.73438,-0.32813 -0.42187,-0.0937 -0.875,-0.0937 -0.28125,0 -0.57812,0.0156 -0.28125,0.0156 -0.5625,0.0625 z m 0,1.34375 v 4.65625 q 0.34375,0.0625 0.6875,0.10937 0.35937,0.0312 0.6875,0.0312 0.53125,0 0.98437,-0.10937 0.46875,-0.125 0.8125,-0.375 0.34375,-0.26563 0.53125,-0.71875 0.20313,-0.46875 0.20313,-1.14063 0,-1.15625 -0.625,-1.79687 -0.625,-0.65625 -1.9375,-0.65625 z m -1.6875,-6.67188 q 0.65625,-0.14062 1.32812,-0.21875 0.6875,-0.0937 1.35938,-0.0937 0.84375,0 1.59375,0.15625 0.76562,0.15625 1.34375,0.54688 0.57812,0.375 0.92187,1 0.34375,0.625 0.34375,1.5625 0,1.15625 -0.48437,1.90625 -0.48438,0.73437 -1.25,1.07812 0.95312,0.375 1.5625,1.14063 0.625,0.76562 0.625,2.10937 0,1 -0.32813,1.70313 -0.32812,0.6875 -0.9375,1.125 -0.59375,0.4375 -1.42187,0.64062 -0.82813,0.1875 -1.8125,0.1875 -0.65625,0 -1.375,-0.0781 -0.70313,-0.0781 -1.46875,-0.21875 z m 13.35791,0 q 1.3125,-0.3125 2.5625,-0.3125 0.96875,0 1.75,0.23438 0.79687,0.23437 1.35937,0.73437 0.57813,0.48438 0.89063,1.28125 0.3125,0.78125 0.3125,1.875 0,1.125 -0.32813,1.92188 -0.3125,0.78125 -0.89062,1.28125 -0.57813,0.48437 -1.39063,0.71875 -0.8125,0.21875 -1.79687,0.21875 h -0.78125 v 4.79687 h -1.6875 z m 1.6875,6.48438 h 0.67187 q 0.625,0 1.14063,-0.14063 0.51562,-0.14062 0.85937,-0.45312 0.35938,-0.32813 0.54688,-0.82813 0.1875,-0.5 0.1875,-1.25 0,-0.75 -0.1875,-1.25 -0.1875,-0.51562 -0.51563,-0.82812 -0.3125,-0.3125 -0.78125,-0.4375 -0.46875,-0.125 -1.03125,-0.125 -0.48437,0 -0.89062,0.0469 z m 7.0343,-3.32813 q 0.48438,-0.20312 1.01563,-0.3125 0.54687,-0.125 1.1875,-0.125 1.29687,0 2.10937,0.8125 0.82813,0.8125 0.82813,2.51563 v 6.5 q -0.67188,0.1875 -1.375,0.29687 -0.6875,0.10938 -1.35938,0.10938 -0.67187,0 -1.26562,-0.17188 -0.57813,-0.15625 -1.03125,-0.53125 -0.4375,-0.375 -0.70313,-0.9375 -0.25,-0.57812 -0.25,-1.39062 0,-0.76563 0.23438,-1.32813 0.23437,-0.57812 0.64062,-0.95312 0.40625,-0.39063 0.96875,-0.57813 0.5625,-0.20312 1.21875,-0.20312 0.60938,0 1.35938,0.14062 v -0.89062 q 0,-1.07813 -0.42188,-1.5 -0.42187,-0.4375 -1.20312,-0.4375 -0.42188,0 -0.8125,0.0937 -0.375,0.0781 -0.8125,0.25 z m 0.76563,6.73438 q 0,0.85937 0.4375,1.28125 0.45312,0.40625 1.26562,0.40625 0.51563,0 1.10938,-0.14063 v -3.10937 q -0.5625,-0.15625 -1.10938,-0.15625 -0.34375,0 -0.67187,0.0937 -0.3125,0.0781 -0.54688,0.28125 -0.23437,0.1875 -0.35937,0.51562 -0.125,0.32813 -0.125,0.82813 z m 11.4093,-5.48438 q -0.59375,-0.25 -1.34375,-0.25 -0.6875,0 -1.28125,0.23438 v 8.35937 h -1.60938 v -9.35937 q 0.54688,-0.26563 1.23438,-0.4375 0.70312,-0.1875 1.54687,-0.1875 0.45313,0 0.89063,0.0625 0.45312,0.0469 0.84375,0.20312 z m 3.38489,-1.45312 h 2.45312 v 1.39062 h -2.45312 v 5.39063 q 0,1 0.35937,1.40625 0.35938,0.39062 0.98438,0.39062 0.3125,0 0.59375,-0.0937 0.29687,-0.0937 0.5,-0.21875 l 0.3125,1.28125 q -0.76563,0.45313 -1.625,0.45313 -1.375,0 -2.0625,-0.76563 -0.67188,-0.78125 -0.67188,-2.57812 v -9.28125 l 1.60938,-0.28125 z"
       fill-rule="nonzero"
       id="path93" />
    <path
       fill="#f3f3f3"
       d="m 717.2967,437.51205 q 0.34375,-0.20313 0.71875,-0.5 0.39062,-0.29688 0.75,-0.64063 0.35937,-0.34375 0.65625,-0.70312 0.3125,-0.375 0.51562,-0.71875 h 1.23438 v 12.92187 h -1.60938 V 437.4808 q -0.3125,0.32812 -0.73437,0.64062 -0.42188,0.29688 -0.89063,0.54688 z"
       fill-rule="nonzero"
       id="path95" />
    <path
       fill="#000000"
       fill-opacity="0"
       d="m 639.35693,287.15686 h 86.07873 v 42.01575 h -86.07873 z"
       fill-rule="evenodd"
       id="path97" />
    <path
       fill="#ffffff"
       d="m 656.7013,306.655 h 1.15625 q 2.3125,0 2.3125,-2.09375 0,-0.65625 -0.20313,-1.0625 -0.1875,-0.42188 -0.51562,-0.65625 -0.3125,-0.23438 -0.73438,-0.32813 -0.42187,-0.0937 -0.875,-0.0937 -0.28125,0 -0.57812,0.0156 -0.28125,0.0156 -0.5625,0.0625 z m 0,1.34375 v 4.65625 q 0.34375,0.0625 0.6875,0.10937 0.35937,0.0312 0.6875,0.0312 0.53125,0 0.98437,-0.10937 0.46875,-0.125 0.8125,-0.375 0.34375,-0.26563 0.53125,-0.71875 0.20313,-0.46875 0.20313,-1.14063 0,-1.15625 -0.625,-1.79687 -0.625,-0.65625 -1.9375,-0.65625 z m -1.6875,-6.67188 q 0.65625,-0.14062 1.32812,-0.21875 0.6875,-0.0937 1.35938,-0.0937 0.84375,0 1.59375,0.15625 0.76562,0.15625 1.34375,0.54688 0.57812,0.375 0.92187,1 0.34375,0.625 0.34375,1.5625 0,1.15625 -0.48437,1.90625 -0.48438,0.73437 -1.25,1.07812 0.95312,0.375 1.5625,1.14063 0.625,0.76562 0.625,2.10937 0,1 -0.32813,1.70313 -0.32812,0.6875 -0.9375,1.125 -0.59375,0.4375 -1.42187,0.64062 -0.82813,0.1875 -1.8125,0.1875 -0.65625,0 -1.375,-0.0781 -0.70313,-0.0781 -1.46875,-0.21875 z m 13.84491,4.40625 q -0.59375,-0.25 -1.34375,-0.25 -0.6875,0 -1.28125,0.23438 v 8.35937 h -1.60938 v -9.35937 q 0.54688,-0.26563 1.23438,-0.4375 0.70312,-0.1875 1.54687,-0.1875 0.45313,0 0.89063,0.0625 0.45312,0.0469 0.84375,0.20312 z m 7.99506,3.45313 q 0,1.15625 -0.21875,2.10937 -0.20313,0.9375 -0.625,1.60938 -0.40625,0.67187 -1.0625,1.04687 -0.64063,0.375 -1.51563,0.375 -0.875,0 -1.53125,-0.375 -0.65625,-0.375 -1.07812,-1.04687 -0.40625,-0.67188 -0.625,-1.60938 -0.20313,-0.95312 -0.20313,-2.10937 0,-1.14063 0.20313,-2.07813 0.21875,-0.95312 0.625,-1.64062 0.42187,-0.6875 1.07812,-1.04688 0.65625,-0.375 1.53125,-0.375 0.875,0 1.51563,0.375 0.65625,0.35938 1.0625,1.04688 0.42187,0.6875 0.625,1.64062 0.21875,0.9375 0.21875,2.07813 z m -1.6875,0 q 0,-0.8125 -0.0937,-1.5 -0.0937,-0.6875 -0.29688,-1.17188 -0.20312,-0.5 -0.54687,-0.76562 -0.32813,-0.26563 -0.79688,-0.26563 -0.48437,0 -0.8125,0.26563 -0.32812,0.26562 -0.54687,0.76562 -0.20313,0.48438 -0.29688,1.17188 -0.0937,0.6875 -0.0937,1.5 0,0.82812 0.0937,1.51562 0.0937,0.67188 0.29688,1.15625 0.21875,0.48438 0.54687,0.76563 0.32813,0.26562 0.8125,0.26562 0.46875,0 0.79688,-0.26562 0.34375,-0.28125 0.54687,-0.76563 0.20313,-0.48437 0.29688,-1.15625 0.0937,-0.6875 0.0937,-1.51562 z m 10.091,-4.90625 q -0.78125,1.34375 -1.5,2.45312 -0.71875,1.10938 -1.42188,2.07813 0.4375,0.53125 0.90625,1.1875 0.46875,0.64062 0.89063,1.34375 0.4375,0.70312 0.8125,1.40625 0.375,0.6875 0.625,1.32812 h -1.75 q -0.28125,-0.60937 -0.65625,-1.28125 -0.35938,-0.67187 -0.78125,-1.3125 -0.40625,-0.65625 -0.8125,-1.23437 -0.40625,-0.57813 -0.76563,-0.96875 v 4.79687 h -1.60937 v -14.20312 l 1.60937,-0.28125 v 8.90625 q 0.32813,-0.45313 0.70313,-1 0.39062,-0.5625 0.76562,-1.125 0.375,-0.57813 0.70313,-1.10938 0.34375,-0.54687 0.5625,-0.98437 z m 2.73309,5.375 q 0.0156,0.70312 0.125,1.29687 0.10938,0.59375 0.35938,1.03125 0.25,0.4375 0.67187,0.6875 0.42188,0.23438 1.07813,0.23438 0.53125,0 0.98437,-0.15625 0.46875,-0.17188 0.67188,-0.28125 l 0.29687,1.29687 q -0.23437,0.15625 -0.8125,0.35938 -0.5625,0.20312 -1.34375,0.20312 -1.03125,0 -1.73437,-0.375 -0.6875,-0.375 -1.14063,-1.04687 -0.4375,-0.67188 -0.625,-1.60938 -0.17187,-0.9375 -0.17187,-2.04687 0,-2.70313 0.89062,-3.95313 0.89063,-1.25 2.35938,-1.25 1.67187,0 2.35937,1.25 0.6875,1.25 0.6875,3.5 0,0.20313 0,0.42188 0,0.21875 -0.0156,0.4375 z m 1.60938,-4.25 q -0.79688,0 -1.15625,0.79687 -0.35938,0.79688 -0.4375,2.14063 h 2.96875 q 0,-1.35938 -0.28125,-2.14063 -0.28125,-0.79687 -1.09375,-0.79687 z m 9.64972,0.32812 q -0.59375,-0.25 -1.34375,-0.25 -0.6875,0 -1.28125,0.23438 v 8.35937 h -1.60938 v -9.35937 q 0.54688,-0.26563 1.23438,-0.4375 0.70312,-0.1875 1.54687,-0.1875 0.45313,0 0.89063,0.0625 0.45312,0.0469 0.84375,0.20312 z m 4.89788,-3.78125 q 1.09375,-1.10937 2.67188,-1.10937 1.51562,0 2.3125,0.79687 0.8125,0.79688 0.8125,2.46875 0,0.79688 -0.26563,1.5 -0.26562,0.70313 -0.65625,1.375 -0.39062,0.65625 -0.85937,1.3125 -0.45313,0.65625 -0.89063,1.34375 -0.42187,0.67188 -0.75,1.40625 -0.3125,0.73438 -0.39062,1.57813 h 4.07812 v 1.45312 h -5.79687 v -0.35937 q 0,-1.25 0.28125,-2.21875 0.29687,-0.96875 0.71875,-1.75 0.42187,-0.78125 0.92187,-1.45313 0.51563,-0.67187 0.92188,-1.3125 0.42187,-0.65625 0.70312,-1.32812 0.29688,-0.6875 0.29688,-1.5 0,-0.98438 -0.39063,-1.42188 -0.39062,-0.45312 -1.17187,-0.45312 -0.54688,0 -0.98438,0.21875 -0.4375,0.21875 -0.78125,0.54687 z"
       fill-rule="nonzero"
       id="path99" />
    <path
       fill="#000000"
       fill-opacity="0"
       d="M 619.58136,309.66983 V 478.17142"
       fill-rule="evenodd"
       id="path101" />
    <path
       stroke="#f3f3f3"
       stroke-width="1"
       stroke-linejoin="round"
       stroke-linecap="butt"
       d="M 619.58136,309.66983 V 478.17142"
       fill-rule="evenodd"
       id="path103" />
    <path
       fill="#000000"
       fill-opacity="0"
       d="M 747.87006,309.66983 V 478.17142"
       fill-rule="evenodd"
       id="path105" />
    <path
       stroke="#f3f3f3"
       stroke-width="1"
       stroke-linejoin="round"
       stroke-linecap="butt"
       d="M 747.87006,309.66983 V 478.17142"
       fill-rule="evenodd"
       id="path107" />
    <path
       fill="#000000"
       fill-opacity="0"
       d="M 619.2014,478.17142 H 748.00651"
       fill-rule="evenodd"
       id="path109" />
    <path
       stroke="#f3f3f3"
       stroke-width="1"
       stroke-linejoin="round"
       stroke-linecap="butt"
       d="M 619.2014,478.17142 H 748.00651"
       fill-rule="evenodd"
       id="path111" />
    <path
       fill="#000000"
       fill-opacity="0"
       d="m 619.58136,310.00555 h 26.30188"
       fill-rule="evenodd"
       id="path113" />
    <path
       stroke="#f3f3f3"
       stroke-width="1"
       stroke-linejoin="round"
       stroke-linecap="butt"
       d="m 619.58136,310.00555 h 26.30188"
       fill-rule="evenodd"
       id="path115" />
    <path
       fill="#000000"
       fill-opacity="0"
       d="m 720.7352,310.00555 h 26.30194"
       fill-rule="evenodd"
       id="path117" />
    <path
       stroke="#f3f3f3"
       stroke-width="1"
       stroke-linejoin="round"
       stroke-linecap="butt"
       d="m 720.7352,310.00555 h 26.30194"
       fill-rule="evenodd"
       id="path119" />
    <path
       fill="#000000"
       fill-opacity="0"
       d="m 437.6063,211.07323 c 45.59842,0 68.39764,-9.56693 91.19687,-19.13385 22.79919,-9.56694 45.59839,-19.13386 91.19684,-19.13386"
       fill-rule="evenodd"
       id="path121" />
    <path
       stroke="#efefef"
       stroke-width="2"
       stroke-linejoin="round"
       stroke-linecap="butt"
       d="m 437.6063,211.07323 c 45.59842,0 68.39764,-9.56693 91.19687,-19.13387 11.3996,-4.78346 22.79919,-9.56692 37.04871,-13.15452 7.12475,-1.79379 14.96197,-3.28864 23.86792,-4.33501 4.453,-0.52319 9.17315,-0.93428 14.20501,-1.21455 1.25794,-0.0701 2.5354,-0.13197 3.83301,-0.18541 l 0.24451,-0.009"
       fill-rule="evenodd"
       id="path123" />
    <path
       fill="#efefef"
       stroke="#efefef"
       stroke-width="2"
       stroke-linecap="butt"
       d="m 608.067,176.34352 9.00977,-3.48071 -9.13923,-3.12496 z"
       fill-rule="evenodd"
       id="path125" />
    <path
       fill="#e06666"
       d="m 633.19946,115.01312 h 101.13385 v 42.01575 H 633.19946 Z"
       fill-rule="evenodd"
       id="path127" />
    <path
       fill="#f3f3f3"
       d="m 650.7184,129.01125 v 1.42187 h -2.875 v 11.5 h -1.67188 v -11.5 h -2.875 v -1.42187 z m 6.9834,8.03125 q 0,1.15625 -0.21875,2.10937 -0.20313,0.9375 -0.625,1.60938 -0.40625,0.67187 -1.0625,1.04687 -0.64063,0.375 -1.51563,0.375 -0.875,0 -1.53125,-0.375 -0.65625,-0.375 -1.07812,-1.04687 -0.40625,-0.67188 -0.625,-1.60938 -0.20313,-0.95312 -0.20313,-2.10937 0,-1.14063 0.20313,-2.07813 0.21875,-0.95312 0.625,-1.64062 0.42187,-0.6875 1.07812,-1.04688 0.65625,-0.375 1.53125,-0.375 0.875,0 1.51563,0.375 0.65625,0.35938 1.0625,1.04688 0.42187,0.6875 0.625,1.64062 0.21875,0.9375 0.21875,2.07813 z m -1.6875,0 q 0,-0.8125 -0.0937,-1.5 -0.0937,-0.6875 -0.29688,-1.17188 -0.20312,-0.5 -0.54687,-0.76562 -0.32813,-0.26563 -0.79688,-0.26563 -0.48437,0 -0.8125,0.26563 -0.32812,0.26562 -0.54687,0.76562 -0.20313,0.48438 -0.29688,1.17188 -0.0937,0.6875 -0.0937,1.5 0,0.82812 0.0937,1.51562 0.0937,0.67188 0.29688,1.15625 0.21875,0.48438 0.54687,0.76563 0.32813,0.26562 0.8125,0.26562 0.46875,0 0.79688,-0.26562 0.34375,-0.28125 0.54687,-0.76563 0.20313,-0.48437 0.29688,-1.15625 0.0937,-0.6875 0.0937,-1.51562 z m 5.62219,3.42187 q 0.53125,0.29688 1.15625,0.29688 0.46875,0 0.8125,-0.1875 0.35938,-0.1875 0.60938,-0.60938 0.25,-0.4375 0.375,-1.14062 0.14062,-0.71875 0.14062,-1.76563 0,-2.01562 -0.51562,-2.875 -0.51563,-0.875 -1.625,-0.875 -0.21875,0 -0.46875,0.0312 -0.23438,0.0312 -0.48438,0.10938 z m 0,4.92188 h -1.60937 v -12.98438 q 0.51562,-0.21875 1.17187,-0.35937 0.67188,-0.14063 1.35938,-0.14063 1.03125,0 1.76562,0.35938 0.73438,0.34375 1.1875,1.01562 0.46875,0.65625 0.67188,1.625 0.21875,0.95313 0.21875,2.1875 0,2.46875 -0.79688,3.78125 -0.78125,1.3125 -2.57812,1.3125 -0.42188,0 -0.76563,-0.0937 -0.32812,-0.0781 -0.625,-0.23437 z m 14.88171,-16.375 q 0.45313,1.39062 0.89063,2.82812 0.4375,1.42188 0.85937,2.98438 0.42188,1.5625 0.82813,3.32812 0.42187,1.75 0.85937,3.78125 h -1.6875 q -0.14062,-0.84375 -0.3125,-1.65625 -0.15625,-0.82812 -0.3125,-1.64062 h -4.07812 q -0.1875,0.8125 -0.34375,1.64062 -0.14063,0.8125 -0.28125,1.65625 h -1.625 q 0.40625,-2.03125 0.82812,-3.78125 0.4375,-1.76562 0.85938,-3.32812 0.42187,-1.5625 0.85937,-2.98438 0.4375,-1.4375 0.89063,-2.82812 z m -0.90625,1.89062 q -0.46875,1.54688 -0.90625,3.125 -0.42187,1.5625 -0.8125,3.20313 h 3.40625 q -0.375,-1.64063 -0.8125,-3.20313 -0.42187,-1.57812 -0.875,-3.125 z m 9.91266,-1.71875 q 1.3125,-0.3125 2.5625,-0.3125 0.96875,0 1.75,0.23438 0.79688,0.23437 1.35938,0.73437 0.57812,0.48438 0.89062,1.28125 0.3125,0.78125 0.3125,1.875 0,1.125 -0.32812,1.92188 -0.3125,0.78125 -0.89063,1.28125 -0.57812,0.48437 -1.39062,0.71875 -0.8125,0.21875 -1.79688,0.21875 h -0.78125 v 4.79687 h -1.6875 z m 1.6875,6.48438 h 0.67188 q 0.625,0 1.14062,-0.14063 0.51563,-0.14062 0.85938,-0.45312 0.35937,-0.32813 0.54687,-0.82813 0.1875,-0.5 0.1875,-1.25 0,-0.75 -0.1875,-1.25 -0.1875,-0.51562 -0.51562,-0.82812 -0.3125,-0.3125 -0.78125,-0.4375 -0.46875,-0.125 -1.03125,-0.125 -0.48438,0 -0.89063,0.0469 z m 7.03437,-3.32813 q 0.48437,-0.20312 1.01562,-0.3125 0.54688,-0.125 1.1875,-0.125 1.29682,0 2.10932,0.8125 0.82812,0.8125 0.82812,2.51563 v 6.5 q -0.67187,0.1875 -1.375,0.29687 -0.6875,0.10938 -1.35931,0.10938 -0.67188,0 -1.26563,-0.17188 -0.57812,-0.15625 -1.03125,-0.53125 -0.4375,-0.375 -0.70312,-0.9375 -0.25,-0.57812 -0.25,-1.39062 0,-0.76563 0.23437,-1.32813 0.23438,-0.57812 0.64063,-0.95312 0.40625,-0.39063 0.96875,-0.57813 0.5625,-0.20312 1.21875,-0.20312 0.60937,0 1.35931,0.14062 v -0.89062 q 0,-1.07813 -0.42187,-1.5 -0.42182,-0.4375 -1.20307,-0.4375 -0.42187,0 -0.8125,0.0937 -0.375,0.0781 -0.8125,0.25 z m 0.76562,6.73438 q 0,0.85937 0.4375,1.28125 0.45313,0.40625 1.26563,0.40625 0.51556,0 1.10931,-0.14063 v -3.10937 q -0.5625,-0.15625 -1.10931,-0.15625 -0.34375,0 -0.67188,0.0937 -0.3125,0.0781 -0.54687,0.28125 -0.23438,0.1875 -0.35938,0.51562 -0.125,0.32813 -0.125,0.82813 z m 11.4093,-5.48438 q -0.59375,-0.25 -1.34375,-0.25 -0.6875,0 -1.28125,0.23438 v 8.35937 h -1.60937 v -9.35937 q 0.54687,-0.26563 1.23437,-0.4375 0.70313,-0.1875 1.54688,-0.1875 0.45312,0 0.89062,0.0625 0.45313,0.0469 0.84375,0.20312 z m 3.38483,-1.45312 h 2.45313 v 1.39062 h -2.45313 v 5.39063 q 0,1 0.35938,1.40625 0.35937,0.39062 0.98437,0.39062 0.3125,0 0.59375,-0.0937 0.29688,-0.0937 0.5,-0.21875 l 0.3125,1.28125 q -0.76562,0.45313 -1.625,0.45313 -1.375,0 -2.0625,-0.76563 -0.67187,-0.78125 -0.67187,-2.57812 v -9.28125 l 1.60937,-0.28125 z m 7.98602,-0.5625 q 0.34375,-0.20313 0.71875,-0.5 0.39063,-0.29688 0.75,-0.64063 0.35938,-0.34375 0.65625,-0.70312 0.3125,-0.375 0.51563,-0.71875 h 1.23437 v 12.92187 h -1.60937 V 131.5425 q -0.3125,0.32812 -0.73438,0.64062 -0.42187,0.29688 -0.89062,0.54688 z"
       fill-rule="nonzero"
       id="path129" />
    <path
       fill="#6fa8dc"
       d="m 633.19946,163.29921 h 101.13385 v 42.01575 H 633.19946 Z"
       fill-rule="evenodd"
       id="path131" />
    <path
       fill="#f3f3f3"
       d="m 649.88696,177.29733 v 1.42187 h -2.875 v 11.5 h -1.67187 v -11.5 h -2.875 v -1.42187 z m 6.9834,8.03125 q 0,1.15625 -0.21875,2.10937 -0.20313,0.9375 -0.625,1.60938 -0.40625,0.67187 -1.0625,1.04687 -0.64063,0.375 -1.51563,0.375 -0.875,0 -1.53125,-0.375 -0.65625,-0.375 -1.07812,-1.04687 -0.40625,-0.67188 -0.625,-1.60938 -0.20313,-0.95312 -0.20313,-2.10937 0,-1.14063 0.20313,-2.07813 0.21875,-0.95312 0.625,-1.64062 0.42187,-0.6875 1.07812,-1.04688 0.65625,-0.375 1.53125,-0.375 0.875,0 1.51563,0.375 0.65625,0.35938 1.0625,1.04688 0.42187,0.6875 0.625,1.64062 0.21875,0.9375 0.21875,2.07813 z m -1.6875,0 q 0,-0.8125 -0.0937,-1.5 -0.0937,-0.6875 -0.29688,-1.17188 -0.20312,-0.5 -0.54687,-0.76562 -0.32813,-0.26563 -0.79688,-0.26563 -0.48437,0 -0.8125,0.26563 -0.32812,0.26562 -0.54687,0.76562 -0.20313,0.48438 -0.29688,1.17188 -0.0937,0.6875 -0.0937,1.5 0,0.82812 0.0937,1.51562 0.0937,0.67188 0.29688,1.15625 0.21875,0.48438 0.54687,0.76563 0.32813,0.26562 0.8125,0.26562 0.46875,0 0.79688,-0.26562 0.34375,-0.28125 0.54687,-0.76563 0.20313,-0.48437 0.29688,-1.15625 0.0937,-0.6875 0.0937,-1.51562 z m 5.62225,3.42187 q 0.53125,0.29688 1.15625,0.29688 0.46875,0 0.8125,-0.1875 0.35938,-0.1875 0.60938,-0.60938 0.25,-0.4375 0.375,-1.14062 0.14062,-0.71875 0.14062,-1.76563 0,-2.01562 -0.51562,-2.875 -0.51563,-0.875 -1.625,-0.875 -0.21875,0 -0.46875,0.0312 -0.23438,0.0312 -0.48438,0.10938 z m 0,4.92188 h -1.60937 v -12.98438 q 0.51562,-0.21875 1.17187,-0.35937 0.67188,-0.14063 1.35938,-0.14063 1.03125,0 1.76562,0.35938 0.73438,0.34375 1.1875,1.01562 0.46875,0.65625 0.67188,1.625 0.21875,0.95313 0.21875,2.1875 0,2.46875 -0.79688,3.78125 -0.78125,1.3125 -2.57812,1.3125 -0.42188,0 -0.76563,-0.0937 -0.32812,-0.0781 -0.625,-0.23437 z m 14.88165,-16.375 q 0.45313,1.39062 0.89063,2.82812 0.4375,1.42188 0.85937,2.98438 0.42188,1.5625 0.82813,3.32812 0.42187,1.75 0.85937,3.78125 h -1.6875 q -0.14062,-0.84375 -0.3125,-1.65625 -0.15625,-0.82812 -0.3125,-1.64062 h -4.07812 q -0.1875,0.8125 -0.34375,1.64062 -0.14063,0.8125 -0.28125,1.65625 h -1.625 q 0.40625,-2.03125 0.82812,-3.78125 0.4375,-1.76562 0.85938,-3.32812 0.42187,-1.5625 0.85937,-2.98438 0.4375,-1.4375 0.89063,-2.82812 z m -0.90625,1.89062 q -0.46875,1.54688 -0.90625,3.125 -0.42187,1.5625 -0.8125,3.20313 h 3.40625 q -0.375,-1.64063 -0.8125,-3.20313 -0.42187,-1.57812 -0.875,-3.125 z m 9.91272,-1.71875 q 1.3125,-0.3125 2.5625,-0.3125 0.96875,0 1.75,0.23438 0.79688,0.23437 1.35938,0.73437 0.57812,0.48438 0.89062,1.28125 0.3125,0.78125 0.3125,1.875 0,1.125 -0.32812,1.92188 -0.3125,0.78125 -0.89063,1.28125 -0.57812,0.48437 -1.39062,0.71875 -0.8125,0.21875 -1.79688,0.21875 h -0.78125 v 4.79687 h -1.6875 z m 1.6875,6.48438 h 0.67188 q 0.625,0 1.14062,-0.14063 0.51563,-0.14062 0.85938,-0.45312 0.35937,-0.32813 0.54687,-0.82813 0.1875,-0.5 0.1875,-1.25 0,-0.75 -0.1875,-1.25 -0.1875,-0.51562 -0.51562,-0.82812 -0.3125,-0.3125 -0.78125,-0.4375 -0.46875,-0.125 -1.03125,-0.125 -0.48438,0 -0.89063,0.0469 z m 7.03431,-3.32813 q 0.48437,-0.20312 1.01562,-0.3125 0.54688,-0.125 1.1875,-0.125 1.29688,0 2.10938,0.8125 0.82812,0.8125 0.82812,2.51563 v 6.5 q -0.67187,0.1875 -1.375,0.29687 -0.6875,0.10938 -1.35937,0.10938 -0.67188,0 -1.26563,-0.17188 -0.57812,-0.15625 -1.03125,-0.53125 -0.4375,-0.375 -0.70312,-0.9375 -0.25,-0.57812 -0.25,-1.39062 0,-0.76563 0.23437,-1.32813 0.23438,-0.57812 0.64063,-0.95312 0.40625,-0.39063 0.96875,-0.57813 0.5625,-0.20312 1.21875,-0.20312 0.60937,0 1.35937,0.14062 v -0.89062 q 0,-1.07813 -0.42187,-1.5 -0.42188,-0.4375 -1.20313,-0.4375 -0.42187,0 -0.8125,0.0937 -0.375,0.0781 -0.8125,0.25 z m 0.76562,6.73438 q 0,0.85937 0.4375,1.28125 0.45313,0.40625 1.26563,0.40625 0.51562,0 1.10937,-0.14063 v -3.10937 q -0.5625,-0.15625 -1.10937,-0.15625 -0.34375,0 -0.67188,0.0937 -0.3125,0.0781 -0.54687,0.28125 -0.23438,0.1875 -0.35938,0.51562 -0.125,0.32813 -0.125,0.82813 z m 11.4093,-5.48438 q -0.59375,-0.25 -1.34375,-0.25 -0.6875,0 -1.28125,0.23438 v 8.35937 h -1.60937 v -9.35937 q 0.54687,-0.26563 1.23437,-0.4375 0.70313,-0.1875 1.54688,-0.1875 0.45312,0 0.89062,0.0625 0.45313,0.0469 0.84375,0.20312 z m 3.38489,-1.45312 h 2.45313 v 1.39062 h -2.45313 v 5.39063 q 0,1 0.35938,1.40625 0.35937,0.39062 0.98437,0.39062 0.3125,0 0.59375,-0.0937 0.29688,-0.0937 0.5,-0.21875 l 0.3125,1.28125 q -0.76562,0.45313 -1.625,0.45313 -1.375,0 -2.0625,-0.76563 -0.67187,-0.78125 -0.67187,-2.57812 v -9.28125 l 1.60937,-0.28125 z m 7.50165,-2.32813 q 1.09375,-1.10937 2.67187,-1.10937 1.51563,0 2.3125,0.79687 0.8125,0.79688 0.8125,2.46875 0,0.79688 -0.26562,1.5 -0.26563,0.70313 -0.65625,1.375 -0.39063,0.65625 -0.85938,1.3125 -0.45312,0.65625 -0.89062,1.34375 -0.42188,0.67188 -0.75,1.40625 -0.3125,0.73438 -0.39063,1.57813 h 4.07813 v 1.45312 h -5.79688 v -0.35937 q 0,-1.25 0.28125,-2.21875 0.29688,-0.96875 0.71875,-1.75 0.42188,-0.78125 0.92188,-1.45313 0.51562,-0.67187 0.92187,-1.3125 0.42188,-0.65625 0.70313,-1.32812 0.29687,-0.6875 0.29687,-1.5 0,-0.98438 -0.39062,-1.42188 -0.39063,-0.45312 -1.17188,-0.45312 -0.54687,0 -0.98437,0.21875 -0.4375,0.21875 -0.78125,0.54687 z"
       fill-rule="nonzero"
       id="path133" />
    <path
       fill="#e06666"
       d="M 633.19946,211.59055 H 734.33331 V 253.6063 H 633.19946 Z"
       fill-rule="evenodd"
       id="path135" />
    <path
       fill="#f3f3f3"
       d="m 649.88696,225.58867 v 1.42187 h -2.875 v 11.5 h -1.67187 v -11.5 h -2.875 v -1.42187 z m 6.9834,8.03125 q 0,1.15625 -0.21875,2.10937 -0.20313,0.9375 -0.625,1.60938 -0.40625,0.67187 -1.0625,1.04687 -0.64063,0.375 -1.51563,0.375 -0.875,0 -1.53125,-0.375 -0.65625,-0.375 -1.07812,-1.04687 -0.40625,-0.67188 -0.625,-1.60938 -0.20313,-0.95312 -0.20313,-2.10937 0,-1.14063 0.20313,-2.07813 0.21875,-0.95312 0.625,-1.64062 0.42187,-0.6875 1.07812,-1.04688 0.65625,-0.375 1.53125,-0.375 0.875,0 1.51563,0.375 0.65625,0.35938 1.0625,1.04688 0.42187,0.6875 0.625,1.64062 0.21875,0.9375 0.21875,2.07813 z m -1.6875,0 q 0,-0.8125 -0.0937,-1.5 -0.0937,-0.6875 -0.29688,-1.17188 -0.20312,-0.5 -0.54687,-0.76562 -0.32813,-0.26563 -0.79688,-0.26563 -0.48437,0 -0.8125,0.26563 -0.32812,0.26562 -0.54687,0.76562 -0.20313,0.48438 -0.29688,1.17188 -0.0937,0.6875 -0.0937,1.5 0,0.82812 0.0937,1.51562 0.0937,0.67188 0.29688,1.15625 0.21875,0.48438 0.54687,0.76563 0.32813,0.26562 0.8125,0.26562 0.46875,0 0.79688,-0.26562 0.34375,-0.28125 0.54687,-0.76563 0.20313,-0.48437 0.29688,-1.15625 0.0937,-0.6875 0.0937,-1.51562 z m 5.62225,3.42187 q 0.53125,0.29688 1.15625,0.29688 0.46875,0 0.8125,-0.1875 0.35938,-0.1875 0.60938,-0.60938 0.25,-0.4375 0.375,-1.14062 0.14062,-0.71875 0.14062,-1.76563 0,-2.01562 -0.51562,-2.875 -0.51563,-0.875 -1.625,-0.875 -0.21875,0 -0.46875,0.0312 -0.23438,0.0312 -0.48438,0.10938 z m 0,4.92188 h -1.60937 v -12.98438 q 0.51562,-0.21875 1.17187,-0.35937 0.67188,-0.14063 1.35938,-0.14063 1.03125,0 1.76562,0.35938 0.73438,0.34375 1.1875,1.01562 0.46875,0.65625 0.67188,1.625 0.21875,0.95313 0.21875,2.1875 0,2.46875 -0.79688,3.78125 -0.78125,1.3125 -2.57812,1.3125 -0.42188,0 -0.76563,-0.0937 -0.32812,-0.0781 -0.625,-0.23437 z m 12.55353,-10.875 h 1.15625 q 2.3125,0 2.3125,-2.09375 0,-0.65625 -0.20313,-1.0625 -0.1875,-0.42188 -0.51562,-0.65625 -0.3125,-0.23438 -0.73438,-0.32813 -0.42187,-0.0937 -0.875,-0.0937 -0.28125,0 -0.57812,0.0156 -0.28125,0.0156 -0.5625,0.0625 z m 0,1.34375 v 4.65625 q 0.34375,0.0625 0.6875,0.10937 0.35937,0.0312 0.6875,0.0312 0.53125,0 0.98437,-0.10937 0.46875,-0.125 0.8125,-0.375 0.34375,-0.26563 0.53125,-0.71875 0.20313,-0.46875 0.20313,-1.14063 0,-1.15625 -0.625,-1.79687 -0.625,-0.65625 -1.9375,-0.65625 z m -1.6875,-6.67188 q 0.65625,-0.14062 1.32812,-0.21875 0.6875,-0.0937 1.35938,-0.0937 0.84375,0 1.59375,0.15625 0.76562,0.15625 1.34375,0.54688 0.57812,0.375 0.92187,1 0.34375,0.625 0.34375,1.5625 0,1.15625 -0.48437,1.90625 -0.48438,0.73437 -1.25,1.07812 0.95312,0.375 1.5625,1.14063 0.625,0.76562 0.625,2.10937 0,1 -0.32813,1.70313 -0.32812,0.6875 -0.9375,1.125 -0.59375,0.4375 -1.42187,0.64062 -0.82813,0.1875 -1.8125,0.1875 -0.65625,0 -1.375,-0.0781 -0.70313,-0.0781 -1.46875,-0.21875 z m 13.35791,0 q 1.3125,-0.3125 2.5625,-0.3125 0.96875,0 1.75,0.23438 0.79687,0.23437 1.35937,0.73437 0.57813,0.48438 0.89063,1.28125 0.3125,0.78125 0.3125,1.875 0,1.125 -0.32813,1.92188 -0.3125,0.78125 -0.89062,1.28125 -0.57813,0.48437 -1.39063,0.71875 -0.8125,0.21875 -1.79687,0.21875 h -0.78125 v 4.79687 h -1.6875 z m 1.6875,6.48438 h 0.67187 q 0.625,0 1.14063,-0.14063 0.51562,-0.14062 0.85937,-0.45312 0.35938,-0.32813 0.54688,-0.82813 0.1875,-0.5 0.1875,-1.25 0,-0.75 -0.1875,-1.25 -0.1875,-0.51562 -0.51563,-0.82812 -0.3125,-0.3125 -0.78125,-0.4375 -0.46875,-0.125 -1.03125,-0.125 -0.48437,0 -0.89062,0.0469 z m 7.0343,-3.32813 q 0.48438,-0.20312 1.01563,-0.3125 0.54687,-0.125 1.1875,-0.125 1.29687,0 2.10937,0.8125 0.82813,0.8125 0.82813,2.51563 v 6.5 q -0.67188,0.1875 -1.375,0.29687 -0.6875,0.10938 -1.35938,0.10938 -0.67187,0 -1.26562,-0.17188 -0.57813,-0.15625 -1.03125,-0.53125 -0.4375,-0.375 -0.70313,-0.9375 -0.25,-0.57812 -0.25,-1.39062 0,-0.76563 0.23438,-1.32813 0.23437,-0.57812 0.64062,-0.95312 0.40625,-0.39063 0.96875,-0.57813 0.5625,-0.20312 1.21875,-0.20312 0.60938,0 1.35938,0.14062 v -0.89062 q 0,-1.07813 -0.42188,-1.5 -0.42187,-0.4375 -1.20312,-0.4375 -0.42188,0 -0.8125,0.0937 -0.375,0.0781 -0.8125,0.25 z m 0.76563,6.73438 q 0,0.85937 0.4375,1.28125 0.45312,0.40625 1.26562,0.40625 0.51563,0 1.10938,-0.14063 v -3.10937 q -0.5625,-0.15625 -1.10938,-0.15625 -0.34375,0 -0.67187,0.0937 -0.3125,0.0781 -0.54688,0.28125 -0.23437,0.1875 -0.35937,0.51562 -0.125,0.32813 -0.125,0.82813 z m 11.4093,-5.48438 q -0.59375,-0.25 -1.34375,-0.25 -0.6875,0 -1.28125,0.23438 v 8.35937 h -1.60938 v -9.35937 q 0.54688,-0.26563 1.23438,-0.4375 0.70312,-0.1875 1.54687,-0.1875 0.45313,0 0.89063,0.0625 0.45312,0.0469 0.84375,0.20312 z m 3.38489,-1.45312 h 2.45312 v 1.39062 h -2.45312 v 5.39063 q 0,1 0.35937,1.40625 0.35938,0.39062 0.98438,0.39062 0.3125,0 0.59375,-0.0937 0.29687,-0.0937 0.5,-0.21875 l 0.3125,1.28125 q -0.76563,0.45313 -1.625,0.45313 -1.375,0 -2.0625,-0.76563 -0.67188,-0.78125 -0.67188,-2.57812 v -9.28125 l 1.60938,-0.28125 z"
       fill-rule="nonzero"
       id="path137" />
    <path
       fill="#f3f3f3"
       d="m 717.2967,228.15117 q 0.34375,-0.20313 0.71875,-0.5 0.39062,-0.29688 0.75,-0.64063 0.35937,-0.34375 0.65625,-0.70312 0.3125,-0.375 0.51562,-0.71875 h 1.23438 v 12.92187 h -1.60938 v -10.39062 q -0.3125,0.32812 -0.73437,0.64062 -0.42188,0.29688 -0.89063,0.54688 z"
       fill-rule="nonzero"
       id="path139" />
    <path
       fill="#000000"
       fill-opacity="0"
       d="m 639.35693,77.79598 h 86.07873 v 42.01575 h -86.07873 z"
       fill-rule="evenodd"
       id="path141" />
    <path
       fill="#ffffff"
       d="m 656.7013,97.294106 h 1.15625 q 2.3125,0 2.3125,-2.09375 0,-0.65625 -0.20313,-1.0625 -0.1875,-0.421875 -0.51562,-0.65625 -0.3125,-0.234375 -0.73438,-0.328125 -0.42187,-0.09375 -0.875,-0.09375 -0.28125,0 -0.57812,0.01563 -0.28125,0.01563 -0.5625,0.0625 z m 0,1.34375 v 4.656254 q 0.34375,0.0625 0.6875,0.10937 0.35937,0.0312 0.6875,0.0312 0.53125,0 0.98437,-0.10937 0.46875,-0.125 0.8125,-0.375 0.34375,-0.26563 0.53125,-0.71875 0.20313,-0.46875 0.20313,-1.14063 0,-1.156249 -0.625,-1.796874 -0.625,-0.65625 -1.9375,-0.65625 z m -1.6875,-6.671875 q 0.65625,-0.140625 1.32812,-0.21875 0.6875,-0.09375 1.35938,-0.09375 0.84375,0 1.59375,0.15625 0.76562,0.15625 1.34375,0.546875 0.57812,0.375 0.92187,1 0.34375,0.625 0.34375,1.5625 0,1.15625 -0.48437,1.90625 -0.48438,0.734375 -1.25,1.078125 0.95312,0.375 1.5625,1.140625 0.625,0.765625 0.625,2.109374 0,1 -0.32813,1.70313 -0.32812,0.6875 -0.9375,1.125 -0.59375,0.4375 -1.42187,0.64062 -0.82813,0.1875 -1.8125,0.1875 -0.65625,0 -1.375,-0.0781 -0.70313,-0.0781 -1.46875,-0.21875 z m 13.84491,4.40625 q -0.59375,-0.25 -1.34375,-0.25 -0.6875,0 -1.28125,0.234375 v 8.359374 h -1.60938 v -9.359374 q 0.54688,-0.265625 1.23438,-0.4375 0.70312,-0.1875 1.54687,-0.1875 0.45313,0 0.89063,0.0625 0.45312,0.04687 0.84375,0.203125 z m 7.99506,3.453125 q 0,1.156254 -0.21875,2.109374 -0.20313,0.9375 -0.625,1.60938 -0.40625,0.67187 -1.0625,1.04687 -0.64063,0.375 -1.51563,0.375 -0.875,0 -1.53125,-0.375 -0.65625,-0.375 -1.07812,-1.04687 -0.40625,-0.67188 -0.625,-1.60938 -0.20313,-0.95312 -0.20313,-2.109374 0,-1.140625 0.20313,-2.078125 0.21875,-0.953125 0.625,-1.640625 0.42187,-0.6875 1.07812,-1.046875 0.65625,-0.375 1.53125,-0.375 0.875,0 1.51563,0.375 0.65625,0.359375 1.0625,1.046875 0.42187,0.6875 0.625,1.640625 0.21875,0.9375 0.21875,2.078125 z m -1.6875,0 q 0,-0.8125 -0.0937,-1.5 -0.0937,-0.6875 -0.29688,-1.171875 -0.20312,-0.5 -0.54687,-0.765625 -0.32813,-0.265625 -0.79688,-0.265625 -0.48437,0 -0.8125,0.265625 -0.32812,0.265625 -0.54687,0.765625 -0.20313,0.484375 -0.29688,1.171875 -0.0937,0.6875 -0.0937,1.5 0,0.828124 0.0937,1.515624 0.0937,0.67188 0.29688,1.15625 0.21875,0.48438 0.54687,0.76563 0.32813,0.26562 0.8125,0.26562 0.46875,0 0.79688,-0.26562 0.34375,-0.28125 0.54687,-0.76563 0.20313,-0.48437 0.29688,-1.15625 0.0937,-0.6875 0.0937,-1.515624 z m 10.091,-4.90625 q -0.78125,1.34375 -1.5,2.453125 -0.71875,1.109375 -1.42188,2.078125 0.4375,0.53125 0.90625,1.187504 0.46875,0.64062 0.89063,1.34375 0.4375,0.70312 0.8125,1.40625 0.375,0.6875 0.625,1.32812 h -1.75 q -0.28125,-0.60937 -0.65625,-1.28125 -0.35938,-0.67187 -0.78125,-1.3125 -0.40625,-0.65625 -0.8125,-1.23437 -0.40625,-0.57813 -0.76563,-0.968754 v 4.796874 h -1.60937 V 90.512856 l 1.60937,-0.28125 v 8.90625 q 0.32813,-0.453125 0.70313,-1 0.39062,-0.5625 0.76562,-1.125 0.375,-0.578125 0.70313,-1.109375 0.34375,-0.546875 0.5625,-0.984375 z m 2.73309,5.375004 q 0.0156,0.70312 0.125,1.29687 0.10938,0.59375 0.35938,1.03125 0.25,0.4375 0.67187,0.6875 0.42188,0.23438 1.07813,0.23438 0.53125,0 0.98437,-0.15625 0.46875,-0.17188 0.67188,-0.28125 l 0.29687,1.29687 q -0.23437,0.15625 -0.8125,0.35938 -0.5625,0.20312 -1.34375,0.20312 -1.03125,0 -1.73437,-0.375 -0.6875,-0.375 -1.14063,-1.04687 -0.4375,-0.67188 -0.625,-1.60938 -0.17187,-0.9375 -0.17187,-2.046874 0,-2.703125 0.89062,-3.953125 0.89063,-1.25 2.35938,-1.25 1.67187,0 2.35937,1.25 0.6875,1.25 0.6875,3.5 0,0.203125 0,0.421875 0,0.218754 -0.0156,0.437504 z m 1.60938,-4.250004 q -0.79688,0 -1.15625,0.796875 -0.35938,0.796875 -0.4375,2.140625 h 2.96875 q 0,-1.359375 -0.28125,-2.140625 -0.28125,-0.796875 -1.09375,-0.796875 z m 9.64972,0.328125 q -0.59375,-0.25 -1.34375,-0.25 -0.6875,0 -1.28125,0.234375 v 8.359374 h -1.60938 v -9.359374 q 0.54688,-0.265625 1.23438,-0.4375 0.70312,-0.1875 1.54687,-0.1875 0.45313,0 0.89063,0.0625 0.45312,0.04687 0.84375,0.203125 z m 5.38226,-2.015625 q 0.34375,-0.203125 0.71875,-0.5 0.39062,-0.296875 0.75,-0.640625 0.35937,-0.34375 0.65625,-0.703125 0.3125,-0.375 0.51562,-0.71875 h 1.23438 v 12.921874 h -1.60938 V 94.325356 q -0.3125,0.328125 -0.73437,0.640625 -0.42188,0.296875 -0.89063,0.546875 z"
       fill-rule="nonzero"
       id="path143" />
    <path
       fill="#000000"
       fill-opacity="0"
       d="M 619.58136,100.30893 V 268.81052"
       fill-rule="evenodd"
       id="path145" />
    <path
       stroke="#f3f3f3"
       stroke-width="1"
       stroke-linejoin="round"
       stroke-linecap="butt"
       d="M 619.58136,100.30893 V 268.81052"
       fill-rule="evenodd"
       id="path147" />
    <path
       fill="#000000"
       fill-opacity="0"
       d="M 747.87006,100.30893 V 268.81052"
       fill-rule="evenodd"
       id="path149" />
    <path
       stroke="#f3f3f3"
       stroke-width="1"
       stroke-linejoin="round"
       stroke-linecap="butt"
       d="M 747.87006,100.30893 V 268.81052"
       fill-rule="evenodd"
       id="path151" />
    <path
       fill="#000000"
       fill-opacity="0"
       d="M 619.2014,268.81052 H 748.00651"
       fill-rule="evenodd"
       id="path153" />
    <path
       stroke="#f3f3f3"
       stroke-width="1"
       stroke-linejoin="round"
       stroke-linecap="butt"
       d="M 619.2014,268.81052 H 748.00651"
       fill-rule="evenodd"
       id="path155" />
    <path
       fill="#000000"
       fill-opacity="0"
       d="m 619.58136,100.64466 h 26.30188"
       fill-rule="evenodd"
       id="path157" />
    <path
       stroke="#f3f3f3"
       stroke-width="1"
       stroke-linejoin="round"
       stroke-linecap="butt"
       d="m 619.58136,100.64466 h 26.30188"
       fill-rule="evenodd"
       id="path159" />
    <path
       fill="#000000"
       fill-opacity="0"
       d="m 720.7352,100.64466 h 26.30194"
       fill-rule="evenodd"
       id="path161" />
    <path
       stroke="#f3f3f3"
       stroke-width="1"
       stroke-linejoin="round"
       stroke-linecap="butt"
       d="m 720.7352,100.64466 h 26.30194"
       fill-rule="evenodd"
       id="path163" />
    <path
       fill="#000000"
       fill-opacity="0"
       d="m 323.5958,352.6483 c 83.80139,0 130.65399,-39.16534 167.60281,-78.33069 36.94879,-39.16536 63.9939,-78.33072 127.98773,-78.33072"
       fill-rule="evenodd"
       id="path165" />
    <path
       stroke="#efefef"
       stroke-width="2"
       stroke-linejoin="round"
       stroke-linecap="butt"
       d="m 323.5958,352.6483 c 83.80139,0 130.65399,-39.16534 167.60281,-78.33069 18.47443,-19.58269 34.4729,-39.16536 53.85193,-53.85237 9.68958,-7.34351 20.2243,-13.46309 32.33624,-17.74681 6.05597,-2.14185 12.50623,-3.82474 19.44233,-4.97215 1.734,-0.28687 3.49841,-0.54026 5.29455,-0.75897 0.89813,-0.10938 1.80414,-0.21006 2.71832,-0.30195 0.4571,-0.046 0.9162,-0.0897 1.37738,-0.13119 l 0.97681,-0.0828"
       fill-rule="evenodd"
       id="path167" />
    <path
       fill="#efefef"
       stroke="#efefef"
       stroke-width="2"
       stroke-linecap="butt"
       d="m 607.32947,199.77208 8.93549,-3.66718 -9.20215,-2.93437 z"
       fill-rule="evenodd"
       id="path169" />
    <path
       fill="#000000"
       fill-opacity="0"
       d="M 174.17848,111.81102 H 275.40683 V 134.4252 H 174.17848 Z"
       fill-rule="evenodd"
       id="path171" />
    <path
       fill="#f3f3f3"
       d="m 178.27354,128.57477 q 1,0 1.54687,-0.5625 0.5625,-0.5625 0.5625,-1.51562 0,-0.5 -0.17187,-0.89063 -0.17188,-0.39062 -0.4375,-0.70312 -0.26563,-0.32813 -0.625,-0.57813 -0.35938,-0.26562 -0.71875,-0.53125 -0.4375,-0.29687 -0.90625,-0.625 -0.46875,-0.34375 -0.85938,-0.78125 -0.375,-0.45312 -0.625,-1.04687 -0.23437,-0.60938 -0.23437,-1.40625 0,-0.78125 0.26562,-1.40625 0.28125,-0.64063 0.75,-1.09375 0.48438,-0.45313 1.14063,-0.6875 0.67187,-0.25 1.4375,-0.25 0.73437,0 1.375,0.1875 0.64062,0.1875 1.0625,0.45312 l -0.51563,1.32813 q -0.39062,-0.26563 -0.85937,-0.40625 -0.45313,-0.14063 -0.95313,-0.14063 -0.92187,0 -1.46875,0.5 -0.54687,0.48438 -0.54687,1.4375 0,0.53125 0.17187,0.92188 0.1875,0.39062 0.46875,0.71875 0.29688,0.3125 0.67188,0.57812 0.375,0.25 0.8125,0.53125 0.42187,0.28125 0.875,0.625 0.45312,0.32813 0.8125,0.76563 0.35937,0.4375 0.59375,1.03125 0.23437,0.57812 0.23437,1.375 0,0.73437 -0.23437,1.39062 -0.21875,0.65625 -0.6875,1.15625 -0.46875,0.48437 -1.1875,0.78125 -0.71875,0.28125 -1.6875,0.28125 -0.90625,0 -1.57813,-0.20313 -0.67187,-0.20312 -1.1875,-0.54687 l 0.51563,-1.34375 q 0.48437,0.29687 1,0.48437 0.51562,0.17188 1.1875,0.17188 z m 7.22647,-3.26562 q 0.0156,0.70312 0.125,1.29687 0.10938,0.59375 0.35938,1.03125 0.25,0.4375 0.67187,0.6875 0.42188,0.23437 1.07813,0.23437 0.53125,0 0.98437,-0.15625 0.46875,-0.17187 0.67188,-0.28125 l 0.29687,1.29688 q -0.23437,0.15625 -0.8125,0.35937 -0.5625,0.20313 -1.34375,0.20313 -1.03125,0 -1.73437,-0.375 -0.6875,-0.375 -1.14063,-1.04688 -0.4375,-0.67187 -0.625,-1.60937 -0.17187,-0.9375 -0.17187,-2.04687 0,-2.70313 0.89062,-3.95313 0.89063,-1.25 2.35938,-1.25 1.67187,0 2.35937,1.25 0.6875,1.25 0.6875,3.5 0,0.20313 0,0.42188 0,0.21875 -0.0156,0.4375 z m 1.60938,-4.25 q -0.79688,0 -1.15625,0.79687 -0.35938,0.79688 -0.4375,2.14063 h 2.96875 q 0,-1.35938 -0.28125,-2.14063 -0.28125,-0.79687 -1.09375,-0.79687 z m 5.41537,-0.84375 q 0.6875,-0.20313 1.48438,-0.34375 0.8125,-0.14063 1.48437,-0.14063 0.73438,0 1.32813,0.20313 0.59375,0.1875 1.01562,0.65625 0.42188,0.46875 0.65625,1.26562 0.23438,0.78125 0.23438,1.96875 v 5.90625 h -1.60938 v -5.78125 q 0,-1.45312 -0.375,-2.125 -0.375,-0.67187 -1.40625,-0.67187 -0.53125,0 -1.20312,0.1875 v 8.39062 h -1.60938 z m 13.21106,1.1875 q -0.54687,-0.29688 -1.15625,-0.29688 -0.46875,0 -0.82812,0.1875 -0.34375,0.1875 -0.60938,0.625 -0.25,0.42188 -0.375,1.14063 -0.125,0.70312 -0.125,1.75 0,2.01562 0.53125,2.89062 0.53125,0.85937 1.60938,0.85937 0.20312,0 0.4375,-0.0312 0.25,-0.0312 0.51562,-0.10937 z m 0,-5.875 1.60938,-0.28125 v 14.21874 q -0.53125,0.23438 -1.20313,0.375 -0.67187,0.14063 -1.35937,0.14063 -2.01563,0 -2.92188,-1.28125 -0.90625,-1.29687 -0.90625,-3.89062 0,-1.17188 0.1875,-2.10938 0.20313,-0.95312 0.625,-1.60937 0.42188,-0.67188 1.07813,-1.03125 0.65625,-0.35938 1.54687,-0.35938 0.42188,0 0.73438,0.0781 0.3125,0.0781 0.60937,0.23437 z m 5.60309,9.78125 q 0.0156,0.70312 0.125,1.29687 0.10937,0.59375 0.35937,1.03125 0.25,0.4375 0.67188,0.6875 0.42187,0.23437 1.07812,0.23437 0.53125,0 0.98438,-0.15625 0.46875,-0.17187 0.67187,-0.28125 l 0.29688,1.29688 q -0.23438,0.15625 -0.8125,0.35937 -0.5625,0.20313 -1.34375,0.20313 -1.03125,0 -1.73438,-0.375 -0.6875,-0.375 -1.14062,-1.04688 -0.4375,-0.67187 -0.625,-1.60937 -0.17188,-0.9375 -0.17188,-2.04687 0,-2.70313 0.89063,-3.95313 0.89062,-1.25 2.35937,-1.25 1.67188,0 2.35938,1.25 0.6875,1.25 0.6875,3.5 0,0.20313 0,0.42188 0,0.21875 -0.0156,0.4375 z m 1.60937,-4.25 q -0.79687,0 -1.15625,0.79687 -0.35937,0.79688 -0.4375,2.14063 h 2.96875 q 0,-1.35938 -0.28125,-2.14063 -0.28125,-0.79687 -1.09375,-0.79687 z m 9.64975,0.32812 q -0.59375,-0.25 -1.34375,-0.25 -0.6875,0 -1.28125,0.23438 v 8.35937 h -1.60937 v -9.35937 q 0.54687,-0.26563 1.23437,-0.4375 0.70313,-0.1875 1.54688,-0.1875 0.45312,0 0.89062,0.0625 0.45313,0.0469 0.84375,0.20312 z m 11.75722,-4.57812 v 1.42187 h -2.875 v 11.5 h -1.67187 v -11.5 h -2.875 v -1.42187 z m 1.7132,12.92187 V 115.5279 l 1.60937,-0.28125 v 4.75 q 0.35938,-0.10938 0.76563,-0.1875 0.42187,-0.0781 0.85937,-0.0781 0.60938,0 1.14063,0.20313 0.54687,0.1875 0.95312,0.65625 0.40625,0.46875 0.64063,1.26562 0.23437,0.78125 0.23437,1.96875 v 5.90625 h -1.60937 v -5.78125 q 0,-1.45312 -0.375,-2.125 -0.375,-0.67187 -1.40625,-0.67187 -0.53125,0 -1.20313,0.1875 v 8.39062 z m 13.22668,-8.34375 q -0.59375,-0.25 -1.34375,-0.25 -0.6875,0 -1.28125,0.23438 v 8.35937 h -1.60937 v -9.35937 q 0.54687,-0.26563 1.23437,-0.4375 0.70313,-0.1875 1.54688,-0.1875 0.45312,0 0.89062,0.0625 0.45313,0.0469 0.84375,0.20312 z m 2.80759,3.92188 q 0.0156,0.70312 0.125,1.29687 0.10937,0.59375 0.35937,1.03125 0.25,0.4375 0.67188,0.6875 0.42187,0.23437 1.07812,0.23437 0.53125,0 0.98438,-0.15625 0.46875,-0.17187 0.67187,-0.28125 l 0.29688,1.29688 q -0.23438,0.15625 -0.8125,0.35937 -0.5625,0.20313 -1.34375,0.20313 -1.03125,0 -1.73438,-0.375 -0.6875,-0.375 -1.14062,-1.04688 -0.4375,-0.67187 -0.625,-1.60937 -0.17188,-0.9375 -0.17188,-2.04687 0,-2.70313 0.89063,-3.95313 0.89062,-1.25 2.35937,-1.25 1.67188,0 2.35938,1.25 0.6875,1.25 0.6875,3.5 0,0.20313 0,0.42188 0,0.21875 -0.0156,0.4375 z m 1.60937,-4.25 q -0.79687,0 -1.15625,0.79687 -0.35937,0.79688 -0.4375,2.14063 h 2.96875 q 0,-1.35938 -0.28125,-2.14063 -0.28125,-0.79687 -1.09375,-0.79687 z m 5.57163,-0.92188 q 0.48437,-0.20312 1.01562,-0.3125 0.54688,-0.125 1.1875,-0.125 1.29688,0 2.10938,0.8125 0.82812,0.8125 0.82812,2.51563 v 6.49999 q -0.67187,0.1875 -1.375,0.29688 -0.6875,0.10937 -1.35937,0.10937 -0.67188,0 -1.26563,-0.17187 -0.57812,-0.15625 -1.03125,-0.53125 -0.4375,-0.375 -0.70312,-0.9375 -0.25,-0.57812 -0.25,-1.39062 0,-0.76563 0.23437,-1.32813 0.23438,-0.57812 0.64063,-0.95312 0.40625,-0.39063 0.96875,-0.57813 0.5625,-0.20312 1.21875,-0.20312 0.60937,0 1.35937,0.14062 v -0.89062 q 0,-1.07813 -0.42187,-1.5 -0.42188,-0.4375 -1.20313,-0.4375 -0.42187,0 -0.8125,0.0937 -0.375,0.0781 -0.8125,0.25 z m 0.76562,6.73438 q 0,0.85937 0.4375,1.28124 0.45313,0.40625 1.26563,0.40625 0.51562,0 1.10937,-0.14062 v -3.10937 q -0.5625,-0.15625 -1.10937,-0.15625 -0.34375,0 -0.67188,0.0937 -0.3125,0.0781 -0.54687,0.28125 -0.23438,0.1875 -0.35938,0.51562 -0.125,0.32813 -0.125,0.82813 z m 11.39371,-5.46875 q -0.54687,-0.29688 -1.15625,-0.29688 -0.46875,0 -0.82812,0.1875 -0.34375,0.1875 -0.60938,0.625 -0.25,0.42188 -0.375,1.14063 -0.125,0.70312 -0.125,1.75 0,2.01562 0.53125,2.89062 0.53125,0.85937 1.60938,0.85937 0.20312,0 0.4375,-0.0312 0.25,-0.0312 0.51562,-0.10937 z m 0,-5.875 1.60938,-0.28125 v 14.21874 q -0.53125,0.23438 -1.20313,0.375 -0.67187,0.14063 -1.35937,0.14063 -2.01563,0 -2.92188,-1.28125 -0.90625,-1.29687 -0.90625,-3.89062 0,-1.17188 0.1875,-2.10938 0.20313,-0.95312 0.625,-1.60937 0.42188,-0.67188 1.07813,-1.03125 0.65625,-0.35938 1.54687,-0.35938 0.42188,0 0.73438,0.0781 0.3125,0.0781 0.60937,0.23437 z"
       fill-rule="nonzero"
       id="path173" />
    <path
       fill="#000000"
       fill-opacity="0"
       d="m 510.9794,208.51306 34.85001,-35.29062"
       fill-rule="evenodd"
       id="path175" />
    <path
       stroke="#cc4125"
       stroke-width="4"
       stroke-linejoin="round"
       stroke-linecap="butt"
       d="m 510.9794,208.51306 34.85001,-35.29062"
       fill-rule="evenodd"
       id="path177" />
    <path
       fill="#000000"
       fill-opacity="0"
       d="M 545.16254,207.869 511.64631,173.8665"
       fill-rule="evenodd"
       id="path179" />
    <path
       stroke="#cc4125"
       stroke-width="4"
       stroke-linejoin="round"
       stroke-linecap="butt"
       d="M 545.16254,207.869 511.64631,173.8665"
       fill-rule="evenodd"
       id="path181" />
    <path
       fill="#434343"
       d="m 452.7874,183.4042 v 0 c 0,-7.51456 6.09174,-13.60631 13.60629,-13.60631 v 0 c 3.60861,0 7.06943,1.43352 9.6211,3.9852 2.55169,2.55167 3.9852,6.01248 3.9852,9.62111 v 0 c 0,7.51454 -6.09174,13.60629 -13.6063,13.60629 v 0 c -7.51455,0 -13.60629,-6.09175 -13.60629,-13.60629 z"
       fill-rule="evenodd"
       id="path183" />
    <path
       stroke="#f3f3f3"
       stroke-width="1"
       stroke-linejoin="round"
       stroke-linecap="butt"
       d="m 452.7874,183.4042 v 0 c 0,-7.51456 6.09174,-13.60631 13.60629,-13.60631 v 0 c 3.60861,0 7.06943,1.43352 9.6211,3.9852 2.55169,2.55167 3.9852,6.01248 3.9852,9.62111 v 0 c 0,7.51454 -6.09174,13.60629 -13.6063,13.60629 v 0 c -7.51455,0 -13.60629,-6.09175 -13.60629,-13.60629 z"
       fill-rule="evenodd"
       id="path185" />
    <path
       fill="#f3f3f3"
       d="m 464.0787,180.3892 q 0.29688,-0.1875 0.625,-0.4375 0.32813,-0.25 0.625,-0.54688 0.3125,-0.29687 0.57813,-0.60937 0.26562,-0.3125 0.4375,-0.625 h 1.0625 v 11.09375 h -1.375 v -8.90625 q -0.28125,0.28125 -0.64063,0.54687 -0.35937,0.25 -0.75,0.46875 z"
       fill-rule="nonzero"
       id="path187" />
    <path
       fill="#434343"
       d="m 340.7979,325.3517 v 0 c 0,-7.51456 6.09174,-13.60632 13.60629,-13.60632 v 0 c 3.60862,0 7.06943,1.43353 9.6211,3.9852 2.55169,2.55169 3.9852,6.01251 3.9852,9.62112 v 0 c 0,7.51456 -6.09174,13.60629 -13.6063,13.60629 v 0 c -7.51455,0 -13.60629,-6.09173 -13.60629,-13.60629 z"
       fill-rule="evenodd"
       id="path189" />
    <path
       stroke="#f3f3f3"
       stroke-width="1"
       stroke-linejoin="round"
       stroke-linecap="butt"
       d="m 340.7979,325.3517 v 0 c 0,-7.51456 6.09174,-13.60632 13.60629,-13.60632 v 0 c 3.60862,0 7.06943,1.43353 9.6211,3.9852 2.55169,2.55169 3.9852,6.01251 3.9852,9.62112 v 0 c 0,7.51456 -6.09174,13.60629 -13.6063,13.60629 v 0 c -7.51455,0 -13.60629,-6.09173 -13.60629,-13.60629 z"
       fill-rule="evenodd"
       id="path191" />
    <path
       fill="#f3f3f3"
       d="m 351.66733,320.80545 q 0.9375,-0.9375 2.3125,-0.9375 1.28125,0 1.96875,0.6875 0.70312,0.67187 0.70312,2.10937 0,0.67188 -0.23437,1.28125 -0.21875,0.60938 -0.5625,1.1875 -0.32813,0.5625 -0.73438,1.125 -0.39062,0.54688 -0.76562,1.14063 -0.35938,0.57812 -0.64063,1.21875 -0.26562,0.625 -0.32812,1.34375 h 3.48437 v 1.25 h -4.96875 v -0.29688 q 0,-1.07812 0.25,-1.90625 0.25,-0.84375 0.60938,-1.51562 0.35937,-0.67188 0.79687,-1.23438 0.4375,-0.57812 0.79688,-1.125 0.35937,-0.5625 0.59375,-1.14062 0.25,-0.59375 0.25,-1.29688 0,-0.84375 -0.34375,-1.21875 -0.32813,-0.375 -1,-0.375 -0.45313,0 -0.82813,0.1875 -0.375,0.17188 -0.6875,0.46875 z"
       fill-rule="nonzero"
       id="path193" />
  </g>
</svg>
