<?xml version="1.0" encoding="UTF-8" standalone="no"?>
<svg
   version="1.1"
   viewBox="0 0 316.18112 475.39374"
   fill="none"
   stroke="none"
   stroke-linecap="square"
   stroke-miterlimit="10"
   id="svg81"
   sodipodi:docname="producer-flow.svg"
   width="316.18112"
   height="475.39374"
   inkscape:version="1.2.2 (b0a8486541, 2022-12-01)"
   xmlns:inkscape="http://www.inkscape.org/namespaces/inkscape"
   xmlns:sodipodi="http://sodipodi.sourceforge.net/DTD/sodipodi-0.dtd"
   xmlns="http://www.w3.org/2000/svg"
   xmlns:svg="http://www.w3.org/2000/svg">
  <defs
     id="defs85" />
  <sodipodi:namedview
     id="namedview83"
     pagecolor="#ffffff"
     bordercolor="#666666"
     borderopacity="1.0"
     inkscape:showpageshadow="2"
     inkscape:pageopacity="0.0"
     inkscape:pagecheckerboard="0"
     inkscape:deskcolor="#d1d1d1"
     showgrid="false"
     inkscape:zoom="1.3552083"
     inkscape:cx="191.85242"
     inkscape:cy="246.45657"
     inkscape:window-width="1920"
     inkscape:window-height="1011"
     inkscape:window-x="0"
     inkscape:window-y="32"
     inkscape:window-maximized="1"
     inkscape:current-layer="svg81" />
  <clipPath
     id="g1db106035c2_0_0.0">
    <path
       d="M 0,0 H 960 V 540 H 0 Z"
       clip-rule="nonzero"
       id="path2" />
  </clipPath>
  <g
     clip-path="url(#g1db106035c2_0_0.0)"
     id="g79"
     transform="translate(-269.89896,-23.5)">
    <path
       fill="#000000"
       fill-opacity="0"
       d="m 270.39896,76.531235 v 0 C 270.39896,47.519035 293.918,24 322.93018,24 h 210.11865 v 0 c 13.93213,0 27.29364,5.534525 37.1452,15.386044 9.8515,9.851517 15.38605,23.21304 15.38605,37.14519 V 445.86247 c 0,29.01221 -23.51904,52.53125 -52.53125,52.53125 H 322.93018 c -29.01218,0 -52.53122,-23.51904 -52.53122,-52.53125 z"
       fill-rule="evenodd"
       id="path7" />
    <path
       stroke="#d9d9d9"
       stroke-width="1"
       stroke-linejoin="round"
       stroke-linecap="butt"
       stroke-dasharray="1, 3"
       d="m 270.39896,76.531235 v 0 C 270.39896,47.519035 293.918,24 322.93018,24 h 210.11865 v 0 c 13.93213,0 27.29364,5.534525 37.1452,15.386044 9.8515,9.851517 15.38605,23.21304 15.38605,37.14519 V 445.86247 c 0,29.01221 -23.51904,52.53125 -52.53125,52.53125 H 322.93018 c -29.01218,0 -52.53122,-23.51904 -52.53122,-52.53125 z"
       fill-rule="evenodd"
       id="path9" />
    <path
       fill="#000000"
       fill-opacity="0"
       d="m 394.3937,88.9297 v 0 c 0,-15.759995 12.776,-28.536003 28.53601,-28.536003 H 537.0703 v 0 c 7.56818,0 14.82642,3.006466 20.17798,8.358002 5.35157,5.35154 8.35803,12.609787 8.35803,20.178001 v 362.14056 c 0,15.76001 -12.776,28.53601 -28.53601,28.53601 H 422.92971 c -15.76001,0 -28.53601,-12.776 -28.53601,-28.53601 z"
       fill-rule="evenodd"
       id="path11" />
    <path
       stroke="#efefef"
       stroke-width="2"
       stroke-linejoin="round"
       stroke-linecap="butt"
       stroke-dasharray="8, 6"
       d="m 394.3937,88.9297 v 0 c 0,-15.759995 12.776,-28.536003 28.53601,-28.536003 H 537.0703 v 0 c 7.56818,0 14.82642,3.006466 20.17798,8.358002 5.35157,5.35154 8.35803,12.609787 8.35803,20.178001 v 362.14056 c 0,15.76001 -12.776,28.53601 -28.53601,28.53601 H 422.92971 c -15.76001,0 -28.53601,-12.776 -28.53601,-28.53601 z"
       fill-rule="evenodd"
       id="path13" />
    <path
       fill="#eeeeee"
       d="m 413.41733,87.674706 v 0 c 0,-4.537231 3.67816,-8.215385 8.21539,-8.215385 h 116.73459 c 2.17884,0 4.26844,0.865547 5.80915,2.406227 1.54065,1.540688 2.40625,3.630302 2.40625,5.809158 v 32.860564 c 0,4.53723 -3.67817,8.21539 -8.2154,8.21539 H 421.63272 c -4.53723,0 -8.21539,-3.67816 -8.21539,-8.21539 z"
       fill-rule="evenodd"
       id="path15" />
    <path
       stroke="#595959"
       stroke-width="1"
       stroke-linejoin="round"
       stroke-linecap="butt"
       d="m 413.41733,87.674706 v 0 c 0,-4.537231 3.67816,-8.215385 8.21539,-8.215385 h 116.73459 c 2.17884,0 4.26844,0.865547 5.80915,2.406227 1.54065,1.540688 2.40625,3.630302 2.40625,5.809158 v 32.860564 c 0,4.53723 -3.67817,8.21539 -8.2154,8.21539 H 421.63272 c -4.53723,0 -8.21539,-3.67816 -8.21539,-8.21539 z"
       fill-rule="evenodd"
       id="path17" />
    <path
       fill="#000000"
       d="m 454.00275,109.86874 q 1,0 1.54687,-0.5625 0.5625,-0.5625 0.5625,-1.51562 0,-0.5 -0.17187,-0.89063 -0.17188,-0.39062 -0.4375,-0.70312 -0.26563,-0.32813 -0.625,-0.57813 -0.35938,-0.26562 -0.71875,-0.53125 -0.4375,-0.29687 -0.90625,-0.625 -0.46875,-0.34375 -0.85938,-0.78125 -0.375,-0.45312 -0.625,-1.04687 -0.23437,-0.60938 -0.23437,-1.40625 0,-0.78125 0.26562,-1.406255 0.28125,-0.640625 0.75,-1.09375 0.48438,-0.453125 1.14063,-0.6875 0.67187,-0.25 1.4375,-0.25 0.73437,0 1.375,0.1875 0.64062,0.1875 1.0625,0.453125 l -0.51563,1.328125 q -0.39062,-0.265625 -0.85937,-0.40625 -0.45313,-0.140625 -0.95313,-0.140625 -0.92187,0 -1.46875,0.5 -0.54687,0.48438 -0.54687,1.4375 0,0.53125 0.17187,0.92188 0.1875,0.39062 0.46875,0.71875 0.29688,0.3125 0.67188,0.57812 0.375,0.25 0.8125,0.53125 0.42187,0.28125 0.875,0.625 0.45312,0.32813 0.8125,0.76563 0.35937,0.4375 0.59375,1.03125 0.23437,0.57812 0.23437,1.375 0,0.73437 -0.23437,1.39062 -0.21875,0.65625 -0.6875,1.15625 -0.46875,0.48438 -1.1875,0.78125 -0.71875,0.28125 -1.6875,0.28125 -0.90625,0 -1.57813,-0.20312 -0.67187,-0.20313 -1.1875,-0.54688 l 0.51563,-1.34375 q 0.48437,0.29688 1,0.48438 0.51562,0.17187 1.1875,0.17187 z m 7.22647,-3.26562 q 0.0156,0.70312 0.125,1.29687 0.10938,0.59375 0.35938,1.03125 0.25,0.4375 0.67187,0.6875 0.42188,0.23438 1.07813,0.23438 0.53125,0 0.98437,-0.15625 0.46875,-0.17188 0.67188,-0.28125 l 0.29687,1.29687 q -0.23437,0.15625 -0.8125,0.35938 -0.5625,0.20312 -1.34375,0.20312 -1.03125,0 -1.73437,-0.375 -0.6875,-0.375 -1.14063,-1.04687 -0.4375,-0.67188 -0.625,-1.60938 -0.17187,-0.9375 -0.17187,-2.04687 0,-2.70313 0.89062,-3.95313 0.89063,-1.25 2.35938,-1.25 1.67187,0 2.35937,1.25 0.6875,1.25 0.6875,3.5 0,0.20313 0,0.42188 0,0.21875 -0.0156,0.4375 z m 1.60938,-4.25 q -0.79688,0 -1.15625,0.79687 -0.35938,0.79688 -0.4375,2.14063 h 2.96875 q 0,-1.35938 -0.28125,-2.14063 -0.28125,-0.79687 -1.09375,-0.79687 z m 9.64975,0.32812 q -0.59375,-0.25 -1.34375,-0.25 -0.6875,0 -1.28125,0.23438 v 8.35937 h -1.60938 v -9.35937 q 0.54688,-0.26563 1.23438,-0.4375 0.70312,-0.1875 1.54687,-0.1875 0.45313,0 0.89063,0.0625 0.45312,0.0469 0.84375,0.20312 z m 3.49426,8.34375 h -1.60938 v -9.79687 h 1.60938 z m -0.8125,-11.53125 q -0.42188,0 -0.73438,-0.28125 -0.29687,-0.296875 -0.29687,-0.78125 0,-0.484375 0.29687,-0.765625 0.3125,-0.296875 0.73438,-0.296875 0.4375,0 0.73437,0.296875 0.3125,0.28125 0.3125,0.765625 0,0.484375 -0.3125,0.78125 -0.29687,0.28125 -0.73437,0.28125 z m 3.87417,1.9375 q 0.48438,-0.20312 1.01563,-0.3125 0.54687,-0.125 1.1875,-0.125 1.29687,0 2.10937,0.8125 0.82813,0.8125 0.82813,2.51563 v 6.5 q -0.67188,0.1875 -1.375,0.29687 -0.6875,0.10938 -1.35938,0.10938 -0.67187,0 -1.26562,-0.17188 -0.57813,-0.15625 -1.03125,-0.53125 -0.4375,-0.375 -0.70313,-0.9375 -0.25,-0.57812 -0.25,-1.39062 0,-0.76563 0.23438,-1.32813 0.23437,-0.57812 0.64062,-0.95312 0.40625,-0.39063 0.96875,-0.57813 0.5625,-0.20312 1.21875,-0.20312 0.60938,0 1.35938,0.14062 v -0.89062 q 0,-1.07813 -0.42188,-1.5 -0.42187,-0.4375 -1.20312,-0.4375 -0.42188,0 -0.8125,0.0937 -0.375,0.0781 -0.8125,0.25 z m 0.76563,6.73438 q 0,0.85937 0.4375,1.28125 0.45312,0.40625 1.26562,0.40625 0.51563,0 1.10938,-0.14063 v -3.10937 q -0.5625,-0.15625 -1.10938,-0.15625 -0.34375,0 -0.67187,0.0937 -0.3125,0.0781 -0.54688,0.28125 -0.23437,0.1875 -0.35937,0.51562 -0.125,0.32813 -0.125,0.82813 z m 9.72183,3.04687 q -1.39062,-0.0312 -1.98437,-0.67187 -0.59375,-0.65625 -0.59375,-2.04688 V 96.821865 l 1.59375,-0.28125 v 11.984375 q 0,0.65625 0.26562,0.95313 0.26563,0.28125 0.92188,0.39062 z m 3.59595,-0.1875 h -1.60938 v -9.79687 h 1.60938 z m -0.8125,-11.53125 q -0.42188,0 -0.73438,-0.28125 -0.29687,-0.296875 -0.29687,-0.78125 0,-0.484375 0.29687,-0.765625 0.3125,-0.296875 0.73438,-0.296875 0.4375,0 0.73437,0.296875 0.3125,0.28125 0.3125,0.765625 0,0.484375 -0.3125,0.78125 -0.29687,0.28125 -0.73437,0.28125 z m 8.21796,2.9375 q -0.40625,0.6875 -0.9375,1.64063 -0.51563,0.95312 -1.03125,1.95312 -0.51563,0.98438 -0.96875,1.95313 -0.45313,0.95312 -0.73438,1.67187 h 3.79688 v 1.375 h -5.46875 v -1.15625 q 0.3125,-0.82812 0.76562,-1.82812 0.46875,-1.01563 0.98438,-2.01563 0.51562,-1 1,-1.90625 0.5,-0.90625 0.85937,-1.5 h -3.375 v -1.39062 h 5.10938 z m 3.06433,4.17188 q 0.0156,0.70312 0.125,1.29687 0.10937,0.59375 0.35937,1.03125 0.25,0.4375 0.67188,0.6875 0.42187,0.23438 1.07812,0.23438 0.53125,0 0.98438,-0.15625 0.46875,-0.17188 0.67187,-0.28125 l 0.29688,1.29687 q -0.23438,0.15625 -0.8125,0.35938 -0.5625,0.20312 -1.34375,0.20312 -1.03125,0 -1.73438,-0.375 -0.6875,-0.375 -1.14062,-1.04687 -0.4375,-0.67188 -0.625,-1.60938 -0.17188,-0.9375 -0.17188,-2.04687 0,-2.70313 0.89063,-3.95313 0.89062,-1.25 2.35937,-1.25 1.67188,0 2.35938,1.25 0.6875,1.25 0.6875,3.5 0,0.20313 0,0.42188 0,0.21875 -0.0156,0.4375 z m 1.60937,-4.25 q -0.79687,0 -1.15625,0.79687 -0.35937,0.79688 -0.4375,2.14063 h 2.96875 q 0,-1.35938 -0.28125,-2.14063 -0.28125,-0.79687 -1.09375,-0.79687 z"
       fill-rule="nonzero"
       id="path19" />
    <path
       fill="#eeeeee"
       d="m 413.41733,170.62221 v 0 c 0,-4.53723 3.67816,-8.21538 8.21539,-8.21538 h 116.73459 c 2.17884,0 4.26844,0.86554 5.80915,2.40622 1.54065,1.5407 2.40625,3.63031 2.40625,5.80916 v 32.86056 c 0,4.53724 -3.67817,8.2154 -8.2154,8.2154 H 421.63272 c -4.53723,0 -8.21539,-3.67816 -8.21539,-8.2154 z"
       fill-rule="evenodd"
       id="path21" />
    <path
       stroke="#595959"
       stroke-width="1"
       stroke-linejoin="round"
       stroke-linecap="butt"
       d="m 413.41733,170.62221 v 0 c 0,-4.53723 3.67816,-8.21538 8.21539,-8.21538 h 116.73459 c 2.17884,0 4.26844,0.86554 5.80915,2.40622 1.54065,1.5407 2.40625,3.63031 2.40625,5.80916 v 32.86056 c 0,4.53724 -3.67817,8.2154 -8.2154,8.2154 H 421.63272 c -4.53723,0 -8.21539,-3.67816 -8.21539,-8.2154 z"
       fill-rule="evenodd"
       id="path23" />
    <path
       fill="#000000"
       d="m 429.98288,192.81624 q 1,0 1.54688,-0.5625 0.5625,-0.5625 0.5625,-1.51563 0,-0.5 -0.17188,-0.89062 -0.17187,-0.39063 -0.4375,-0.70313 -0.26562,-0.32812 -0.625,-0.57812 -0.35937,-0.26563 -0.71875,-0.53125 -0.4375,-0.29688 -0.90625,-0.625 -0.46875,-0.34375 -0.85937,-0.78125 -0.375,-0.45313 -0.625,-1.04688 -0.23438,-0.60937 -0.23438,-1.40625 0,-0.78125 0.26563,-1.40625 0.28125,-0.64062 0.75,-1.09375 0.48437,-0.45312 1.14062,-0.6875 0.67188,-0.25 1.4375,-0.25 0.73438,0 1.375,0.1875 0.64063,0.1875 1.0625,0.45313 l -0.51562,1.32812 q -0.39063,-0.26562 -0.85938,-0.40625 -0.45312,-0.14062 -0.95312,-0.14062 -0.92188,0 -1.46875,0.5 -0.54688,0.48437 -0.54688,1.4375 0,0.53125 0.17188,0.92187 0.1875,0.39063 0.46875,0.71875 0.29687,0.3125 0.67187,0.57813 0.375,0.25 0.8125,0.53125 0.42188,0.28125 0.875,0.625 0.45313,0.32812 0.8125,0.76562 0.35938,0.4375 0.59375,1.03125 0.23438,0.57813 0.23438,1.375 0,0.73438 -0.23438,1.39063 -0.21875,0.65625 -0.6875,1.15625 -0.46875,0.48437 -1.1875,0.78125 -0.71875,0.28125 -1.6875,0.28125 -0.90625,0 -1.57812,-0.20313 -0.67188,-0.20312 -1.1875,-0.54687 l 0.51562,-1.34375 q 0.48438,0.29687 1,0.48437 0.51563,0.17188 1.1875,0.17188 z m 7.22647,-3.26563 q 0.0156,0.70313 0.125,1.29688 0.10938,0.59375 0.35938,1.03125 0.25,0.4375 0.67187,0.6875 0.42188,0.23437 1.07813,0.23437 0.53125,0 0.98437,-0.15625 0.46875,-0.17187 0.67188,-0.28125 l 0.29687,1.29688 q -0.23437,0.15625 -0.8125,0.35937 -0.5625,0.20313 -1.34375,0.20313 -1.03125,0 -1.73437,-0.375 -0.6875,-0.375 -1.14063,-1.04688 -0.4375,-0.67187 -0.625,-1.60937 -0.17187,-0.9375 -0.17187,-2.04688 0,-2.70312 0.89062,-3.95312 0.89063,-1.25 2.35938,-1.25 1.67187,0 2.35937,1.25 0.6875,1.25 0.6875,3.5 0,0.20312 0,0.42187 0,0.21875 -0.0156,0.4375 z m 1.60938,-4.25 q -0.79688,0 -1.15625,0.79688 -0.35938,0.79687 -0.4375,2.14062 h 2.96875 q 0,-1.35937 -0.28125,-2.14062 -0.28125,-0.79688 -1.09375,-0.79688 z m 7.96225,8.85938 q -1.39063,-0.0312 -1.98438,-0.67188 -0.59375,-0.65625 -0.59375,-2.04687 v -11.67188 l 1.59375,-0.28125 v 11.98438 q 0,0.65625 0.26563,0.95312 0.26562,0.28125 0.92187,0.39063 z m 3.09597,-4.60938 q 0.0156,0.70313 0.125,1.29688 0.10938,0.59375 0.35938,1.03125 0.25,0.4375 0.67187,0.6875 0.42188,0.23437 1.07813,0.23437 0.53125,0 0.98437,-0.15625 0.46875,-0.17187 0.67188,-0.28125 l 0.29687,1.29688 q -0.23437,0.15625 -0.8125,0.35937 -0.5625,0.20313 -1.34375,0.20313 -1.03125,0 -1.73437,-0.375 -0.6875,-0.375 -1.14063,-1.04688 -0.4375,-0.67187 -0.625,-1.60937 -0.17187,-0.9375 -0.17187,-2.04688 0,-2.70312 0.89062,-3.95312 0.89063,-1.25 2.35938,-1.25 1.67187,0 2.35937,1.25 0.6875,1.25 0.6875,3.5 0,0.20312 0,0.42187 0,0.21875 -0.0156,0.4375 z m 1.60938,-4.25 q -0.79688,0 -1.15625,0.79688 -0.35938,0.79687 -0.4375,2.14062 h 2.96875 q 0,-1.35937 -0.28125,-2.14062 -0.28125,-0.79688 -1.09375,-0.79688 z m 8.39975,8.92188 q -1,0 -1.67188,-0.39063 -0.67187,-0.40625 -1.09375,-1.07812 -0.42187,-0.6875 -0.60937,-1.60938 -0.17188,-0.9375 -0.17188,-2.04687 0,-2.42188 0.89063,-3.78125 0.89062,-1.375 2.67187,-1.375 0.54688,0 0.96875,0.125 0.4375,0.125 0.8125,0.32812 l -0.40625,1.32813 q -0.57812,-0.375 -1.29687,-0.375 -1,0 -1.48438,0.92187 -0.46875,0.90625 -0.46875,2.82813 0,0.8125 0.0937,1.5 0.0937,0.67187 0.32813,1.15625 0.23437,0.48437 0.60937,0.76562 0.39063,0.28125 0.98438,0.28125 0.40625,0 0.73437,-0.0937 0.32813,-0.10937 0.625,-0.28125 l 0.35938,1.25 q -0.3125,0.20313 -0.8125,0.375 -0.48438,0.17188 -1.0625,0.17188 z m 5.10129,-10.04688 h 2.45312 v 1.39063 h -2.45312 v 5.39062 q 0,1 0.35937,1.40625 0.35938,0.39063 0.98438,0.39063 0.3125,0 0.59375,-0.0937 0.29687,-0.0937 0.5,-0.21875 l 0.3125,1.28125 q -0.76563,0.45312 -1.625,0.45312 -1.375,0 -2.0625,-0.76562 -0.67188,-0.78125 -0.67188,-2.57813 v -9.28125 l 1.60938,-0.28125 z m 8.23599,-2.95312 q 1.3125,-0.3125 2.5625,-0.3125 0.96875,0 1.75,0.23437 0.79687,0.23438 1.35937,0.73438 0.57813,0.48437 0.89063,1.28125 0.3125,0.78125 0.3125,1.875 0,1.125 -0.32813,1.92187 -0.3125,0.78125 -0.89062,1.28125 -0.57813,0.48438 -1.39063,0.71875 -0.8125,0.21875 -1.79687,0.21875 h -0.78125 v 4.79688 h -1.6875 z m 1.6875,6.48437 h 0.67187 q 0.625,0 1.14063,-0.14062 0.51562,-0.14063 0.85937,-0.45313 0.35938,-0.32812 0.54688,-0.82812 0.1875,-0.5 0.1875,-1.25 0,-0.75 -0.1875,-1.25 -0.1875,-0.51563 -0.51563,-0.82813 -0.3125,-0.3125 -0.78125,-0.4375 -0.46875,-0.125 -1.03125,-0.125 -0.48437,0 -0.89062,0.0469 z m 7.03433,-3.32812 q 0.48438,-0.20313 1.01563,-0.3125 0.54687,-0.125 1.1875,-0.125 1.29687,0 2.10937,0.8125 0.82813,0.8125 0.82813,2.51562 v 6.5 q -0.67188,0.1875 -1.375,0.29688 -0.6875,0.10937 -1.35938,0.10937 -0.67187,0 -1.26562,-0.17187 -0.57813,-0.15625 -1.03125,-0.53125 -0.4375,-0.375 -0.70313,-0.9375 -0.25,-0.57813 -0.25,-1.39063 0,-0.76562 0.23438,-1.32812 0.23437,-0.57813 0.64062,-0.95313 0.40625,-0.39062 0.96875,-0.57812 0.5625,-0.20313 1.21875,-0.20313 0.60938,0 1.35938,0.14063 v -0.89063 q 0,-1.07812 -0.42188,-1.5 -0.42187,-0.4375 -1.20312,-0.4375 -0.42188,0 -0.8125,0.0937 -0.375,0.0781 -0.8125,0.25 z m 0.76563,6.73437 q 0,0.85938 0.4375,1.28125 0.45312,0.40625 1.26562,0.40625 0.51563,0 1.10938,-0.14062 v -3.10938 q -0.5625,-0.15625 -1.10938,-0.15625 -0.34375,0 -0.67187,0.0937 -0.3125,0.0781 -0.54688,0.28125 -0.23437,0.1875 -0.35937,0.51563 -0.125,0.32812 -0.125,0.82812 z m 11.4093,-5.48437 q -0.59375,-0.25 -1.34375,-0.25 -0.6875,0 -1.28125,0.23437 v 8.35938 h -1.60938 v -9.35938 q 0.54688,-0.26562 1.23438,-0.4375 0.70312,-0.1875 1.54687,-0.1875 0.45313,0 0.89063,0.0625 0.45312,0.0469 0.84375,0.20313 z m 3.38489,-1.45313 h 2.45312 v 1.39063 h -2.45312 v 5.39062 q 0,1 0.35937,1.40625 0.35938,0.39063 0.98438,0.39063 0.3125,0 0.59375,-0.0937 0.29687,-0.0937 0.5,-0.21875 l 0.3125,1.28125 q -0.76563,0.45312 -1.625,0.45312 -1.375,0 -2.0625,-0.76562 -0.67188,-0.78125 -0.67188,-2.57813 v -9.28125 l 1.60938,-0.28125 z m 6.09802,9.79688 h -1.60938 v -9.79688 h 1.60938 z m -0.8125,-11.53125 q -0.42188,0 -0.73438,-0.28125 -0.29687,-0.29688 -0.29687,-0.78125 0,-0.48438 0.29687,-0.76563 0.3125,-0.29687 0.73438,-0.29687 0.4375,0 0.73437,0.29687 0.3125,0.28125 0.3125,0.76563 0,0.48437 -0.3125,0.78125 -0.29687,0.28125 -0.73437,0.28125 z m 5.21795,1.73437 h 2.45313 v 1.39063 h -2.45313 v 5.39062 q 0,1 0.35938,1.40625 0.35937,0.39063 0.98437,0.39063 0.3125,0 0.59375,-0.0937 0.29688,-0.0937 0.5,-0.21875 l 0.3125,1.28125 q -0.76562,0.45312 -1.625,0.45312 -1.375,0 -2.0625,-0.76562 -0.67187,-0.78125 -0.67187,-2.57813 v -9.28125 l 1.60937,-0.28125 z m 6.09803,9.79688 h -1.60938 v -9.79688 h 1.60938 z m -0.8125,-11.53125 q -0.42188,0 -0.73438,-0.28125 -0.29687,-0.29688 -0.29687,-0.78125 0,-0.48438 0.29687,-0.76563 0.3125,-0.29687 0.73438,-0.29687 0.4375,0 0.73437,0.29687 0.3125,0.28125 0.3125,0.76563 0,0.48437 -0.3125,0.78125 -0.29687,0.28125 -0.73437,0.28125 z m 10.01483,6.64062 q 0,1.15625 -0.21875,2.10938 -0.20313,0.9375 -0.625,1.60937 -0.40625,0.67188 -1.0625,1.04688 -0.64063,0.375 -1.51563,0.375 -0.875,0 -1.53125,-0.375 -0.65625,-0.375 -1.07812,-1.04688 -0.40625,-0.67187 -0.625,-1.60937 -0.20313,-0.95313 -0.20313,-2.10938 0,-1.14062 0.20313,-2.07812 0.21875,-0.95313 0.625,-1.64063 0.42187,-0.6875 1.07812,-1.04687 0.65625,-0.375 1.53125,-0.375 0.875,0 1.51563,0.375 0.65625,0.35937 1.0625,1.04687 0.42187,0.6875 0.625,1.64063 0.21875,0.9375 0.21875,2.07812 z m -1.6875,0 q 0,-0.8125 -0.0937,-1.5 -0.0937,-0.6875 -0.29688,-1.17187 -0.20312,-0.5 -0.54687,-0.76563 -0.32813,-0.26562 -0.79688,-0.26562 -0.48437,0 -0.8125,0.26562 -0.32812,0.26563 -0.54687,0.76563 -0.20313,0.48437 -0.29688,1.17187 -0.0937,0.6875 -0.0937,1.5 0,0.82813 0.0937,1.51563 0.0937,0.67187 0.29688,1.15625 0.21875,0.48437 0.54687,0.76562 0.32813,0.26563 0.8125,0.26563 0.46875,0 0.79688,-0.26563 0.34375,-0.28125 0.54687,-0.76562 0.20313,-0.48438 0.29688,-1.15625 0.0937,-0.6875 0.0937,-1.51563 z m 4.02844,-4.625 q 0.6875,-0.20312 1.48438,-0.34375 0.8125,-0.14062 1.48437,-0.14062 0.73438,0 1.32813,0.20312 0.59375,0.1875 1.01562,0.65625 0.42188,0.46875 0.65625,1.26563 0.23438,0.78125 0.23438,1.96875 v 5.90625 h -1.60938 v -5.78125 q 0,-1.45313 -0.375,-2.125 -0.375,-0.67188 -1.40625,-0.67188 -0.53125,0 -1.20312,0.1875 v 8.39063 h -1.60938 z"
       fill-rule="nonzero"
       id="path25" />
    <path
       fill="#eeeeee"
       d="m 413.41733,253.56972 v 0 c 0,-4.53723 3.67816,-8.21539 8.21539,-8.21539 h 116.73459 c 2.17884,0 4.26844,0.86555 5.80915,2.40623 1.54065,1.54068 2.40625,3.63031 2.40625,5.80916 v 32.86055 c 0,4.53726 -3.67817,8.21539 -8.2154,8.21539 H 421.63272 c -4.53723,0 -8.21539,-3.67813 -8.21539,-8.21539 z"
       fill-rule="evenodd"
       id="path27" />
    <path
       stroke="#595959"
       stroke-width="1"
       stroke-linejoin="round"
       stroke-linecap="butt"
       d="m 413.41733,253.56972 v 0 c 0,-4.53723 3.67816,-8.21539 8.21539,-8.21539 h 116.73459 c 2.17884,0 4.26844,0.86555 5.80915,2.40623 1.54065,1.54068 2.40625,3.63031 2.40625,5.80916 v 32.86055 c 0,4.53726 -3.67817,8.21539 -8.2154,8.21539 H 421.63272 c -4.53723,0 -8.21539,-3.67813 -8.21539,-8.21539 z"
       fill-rule="evenodd"
       id="path29" />
    <path
       fill="#000000"
       d="m 452.86215,277.20123 q -2.28125,0 -3.5,-1.6875 -1.20313,-1.70313 -1.20313,-5.25 0,-1.8125 0.34375,-3.0625 0.34375,-1.25 0.95313,-2.03125 0.625,-0.78125 1.45312,-1.125 0.84375,-0.35938 1.82813,-0.35938 0.82812,0 1.53125,0.21875 0.71875,0.21875 1.15625,0.53125 l -0.5,1.40625 q -0.45313,-0.29687 -0.96875,-0.48437 -0.5,-0.1875 -1.17188,-0.1875 -1.5,0 -2.17187,1.25 -0.67188,1.23437 -0.67188,3.84375 0,2.625 0.70313,4.04687 0.71875,1.42188 2.32812,1.42188 0.76563,0 1.23438,-0.1875 0.48437,-0.1875 0.92187,-0.48438 l 0.46875,1.3125 q -0.42187,0.34375 -1.125,0.57813 -0.70312,0.25 -1.60937,0.25 z m 10.59741,-5.17188 q 0,1.15625 -0.21875,2.10938 -0.20312,0.9375 -0.625,1.60937 -0.40625,0.67188 -1.0625,1.04688 -0.64062,0.375 -1.51562,0.375 -0.875,0 -1.53125,-0.375 -0.65625,-0.375 -1.07813,-1.04688 -0.40625,-0.67187 -0.625,-1.60937 -0.20312,-0.95313 -0.20312,-2.10938 0,-1.14062 0.20312,-2.07812 0.21875,-0.95313 0.625,-1.64063 0.42188,-0.6875 1.07813,-1.04687 0.65625,-0.375 1.53125,-0.375 0.875,0 1.51562,0.375 0.65625,0.35937 1.0625,1.04687 0.42188,0.6875 0.625,1.64063 0.21875,0.9375 0.21875,2.07812 z m -1.6875,0 q 0,-0.8125 -0.0937,-1.5 -0.0937,-0.6875 -0.29687,-1.17187 -0.20313,-0.5 -0.54688,-0.76563 -0.32812,-0.26562 -0.79687,-0.26562 -0.48438,0 -0.8125,0.26562 -0.32813,0.26563 -0.54688,0.76563 -0.20312,0.48437 -0.29687,1.17187 -0.0937,0.6875 -0.0937,1.5 0,0.82813 0.0937,1.51563 0.0937,0.67187 0.29687,1.15625 0.21875,0.48437 0.54688,0.76562 0.32812,0.26563 0.8125,0.26563 0.46875,0 0.79687,-0.26563 0.34375,-0.28125 0.54688,-0.76562 0.20312,-0.48438 0.29687,-1.15625 0.0937,-0.6875 0.0937,-1.51563 z m 4.02848,-4.625 q 0.65625,-0.20312 1.42187,-0.34375 0.76563,-0.14062 1.39063,-0.14062 0.65625,0 1.1875,0.17187 0.53125,0.17188 0.95312,0.5625 0.48438,-0.32812 1.03125,-0.53125 0.5625,-0.20312 1.23438,-0.20312 0.67187,0 1.21875,0.20312 0.5625,0.1875 0.95312,0.65625 0.39063,0.46875 0.60938,1.26563 0.21875,0.78125 0.21875,1.96875 v 5.90625 h -1.59375 v -5.78125 q 0,-1.45313 -0.34375,-2.125 -0.32813,-0.67188 -1.26563,-0.67188 -0.35937,0 -0.71875,0.125 -0.35937,0.125 -0.67187,0.35938 0.14062,0.42187 0.21875,0.96875 0.0781,0.54687 0.0781,1.21875 v 5.90625 h -1.60937 v -5.78125 q 0,-1.45313 -0.34375,-2.125 -0.32813,-0.67188 -1.26563,-0.67188 -0.48437,0 -1.09375,0.1875 v 8.39063 h -1.60937 z m 14.61581,8.04688 q 0.53125,0.29687 1.15625,0.29687 0.46875,0 0.8125,-0.1875 0.35937,-0.1875 0.60937,-0.60937 0.25,-0.4375 0.375,-1.14063 0.14063,-0.71875 0.14063,-1.76562 0,-2.01563 -0.51563,-2.875 -0.51562,-0.875 -1.625,-0.875 -0.21875,0 -0.46875,0.0312 -0.23437,0.0312 -0.48437,0.10937 z m 0,4.92187 h -1.60938 v -12.98437 q 0.51563,-0.21875 1.17188,-0.35938 0.67187,-0.14062 1.35937,-0.14062 1.03125,0 1.76563,0.35937 0.73437,0.34375 1.1875,1.01563 0.46875,0.65625 0.67187,1.625 0.21875,0.95312 0.21875,2.1875 0,2.46875 -0.79687,3.78125 -0.78125,1.3125 -2.57813,1.3125 -0.42187,0 -0.76562,-0.0937 -0.32813,-0.0781 -0.625,-0.23438 z m 11.35309,-11.79687 q -0.59375,-0.25 -1.34375,-0.25 -0.6875,0 -1.28125,0.23437 v 8.35938 h -1.60938 v -9.35938 q 0.54688,-0.26562 1.23438,-0.4375 0.70312,-0.1875 1.54687,-0.1875 0.45313,0 0.89063,0.0625 0.45312,0.0469 0.84375,0.20313 z m 2.80758,3.92187 q 0.0156,0.70313 0.125,1.29688 0.10938,0.59375 0.35938,1.03125 0.25,0.4375 0.67187,0.6875 0.42188,0.23437 1.07813,0.23437 0.53125,0 0.98437,-0.15625 0.46875,-0.17187 0.67188,-0.28125 l 0.29687,1.29688 q -0.23437,0.15625 -0.8125,0.35937 -0.5625,0.20313 -1.34375,0.20313 -1.03125,0 -1.73437,-0.375 -0.6875,-0.375 -1.14063,-1.04688 -0.4375,-0.67187 -0.625,-1.60937 -0.17187,-0.9375 -0.17187,-2.04688 0,-2.70312 0.89062,-3.95312 0.89063,-1.25 2.35938,-1.25 1.67187,0 2.35937,1.25 0.6875,1.25 0.6875,3.5 0,0.20312 0,0.42187 0,0.21875 -0.0156,0.4375 z m 1.60938,-4.25 q -0.79688,0 -1.15625,0.79688 -0.35938,0.79687 -0.4375,2.14062 h 2.96875 q 0,-1.35937 -0.28125,-2.14062 -0.28125,-0.79688 -1.09375,-0.79688 z m 6.77475,7.53125 q 0.71875,0 1.07812,-0.39062 0.35938,-0.40625 0.35938,-1.0625 0,-0.40625 -0.15625,-0.6875 -0.14063,-0.29688 -0.39063,-0.51563 -0.23437,-0.23437 -0.5625,-0.40625 -0.3125,-0.1875 -0.625,-0.39062 -0.3125,-0.1875 -0.60937,-0.4375 -0.29688,-0.25 -0.53125,-0.57813 -0.23438,-0.32812 -0.375,-0.73437 -0.14063,-0.42188 -0.14063,-0.98438 0,-1.21875 0.75,-1.95312 0.76563,-0.75 2.04688,-0.75 0.54687,0 1.03125,0.14062 0.48437,0.14063 0.79687,0.29688 l -0.35937,1.29687 q -0.32813,-0.1875 -0.67188,-0.28125 -0.32812,-0.0937 -0.71875,-0.0937 -0.59375,0 -0.95312,0.34375 -0.35938,0.34375 -0.35938,1 0,0.375 0.125,0.64063 0.14063,0.26562 0.34375,0.48437 0.21875,0.21875 0.48438,0.40625 0.28125,0.1875 0.57812,0.34375 0.35938,0.20313 0.70313,0.45313 0.34375,0.25 0.60937,0.57812 0.28125,0.3125 0.4375,0.75 0.17188,0.4375 0.17188,1.0625 0,1.28125 -0.76563,2.07813 -0.75,0.78125 -2.20312,0.78125 -0.73438,0 -1.34375,-0.21875 -0.59375,-0.20313 -0.89063,-0.35938 l 0.32813,-1.32812 q 0.28125,0.14062 0.75,0.32812 0.48437,0.1875 1.0625,0.1875 z m 6.36178,0 q 0.71875,0 1.07813,-0.39062 0.35937,-0.40625 0.35937,-1.0625 0,-0.40625 -0.15625,-0.6875 -0.14062,-0.29688 -0.39062,-0.51563 -0.23438,-0.23437 -0.5625,-0.40625 -0.3125,-0.1875 -0.625,-0.39062 -0.3125,-0.1875 -0.60938,-0.4375 -0.29687,-0.25 -0.53125,-0.57813 -0.23437,-0.32812 -0.375,-0.73437 -0.14062,-0.42188 -0.14062,-0.98438 0,-1.21875 0.75,-1.95312 0.76562,-0.75 2.04687,-0.75 0.54688,0 1.03125,0.14062 0.48438,0.14063 0.79688,0.29688 l -0.35938,1.29687 q -0.32812,-0.1875 -0.67187,-0.28125 -0.32813,-0.0937 -0.71875,-0.0937 -0.59375,0 -0.95313,0.34375 -0.35937,0.34375 -0.35937,1 0,0.375 0.125,0.64063 0.14062,0.26562 0.34375,0.48437 0.21875,0.21875 0.48437,0.40625 0.28125,0.1875 0.57813,0.34375 0.35937,0.20313 0.70312,0.45313 0.34375,0.25 0.60938,0.57812 0.28125,0.3125 0.4375,0.75 0.17187,0.4375 0.17187,1.0625 0,1.28125 -0.76562,2.07813 -0.75,0.78125 -2.20313,0.78125 -0.73437,0 -1.34375,-0.21875 -0.59375,-0.20313 -0.89062,-0.35938 l 0.32812,-1.32812 q 0.28125,0.14062 0.75,0.32812 0.48438,0.1875 1.0625,0.1875 z"
       fill-rule="nonzero"
       id="path31" />
    <path
       fill="#eeeeee"
       d="m 413.41733,336.5172 v 0 c 0,-4.53723 3.67816,-8.21536 8.21539,-8.21536 h 116.73459 c 2.17884,0 4.26844,0.86554 5.80915,2.40622 1.54065,1.54068 2.40625,3.63031 2.40625,5.80914 v 32.86056 c 0,4.53724 -3.67817,8.2154 -8.2154,8.2154 H 421.63272 c -4.53723,0 -8.21539,-3.67816 -8.21539,-8.2154 z"
       fill-rule="evenodd"
       id="path33" />
    <path
       stroke="#595959"
       stroke-width="1"
       stroke-linejoin="round"
       stroke-linecap="butt"
       d="m 413.41733,336.5172 v 0 c 0,-4.53723 3.67816,-8.21536 8.21539,-8.21536 h 116.73459 c 2.17884,0 4.26844,0.86554 5.80915,2.40622 1.54065,1.54068 2.40625,3.63031 2.40625,5.80914 v 32.86056 c 0,4.53724 -3.67817,8.2154 -8.2154,8.2154 H 421.63272 c -4.53723,0 -8.21539,-3.67816 -8.21539,-8.2154 z"
       fill-rule="evenodd"
       id="path35" />
    <path
       fill="#000000"
       d="m 461.17038,352.44562 h 1.15625 q 2.3125,0 2.3125,-2.09375 0,-0.65625 -0.20312,-1.0625 -0.1875,-0.42187 -0.51563,-0.65625 -0.3125,-0.23437 -0.73437,-0.32812 -0.42188,-0.0937 -0.875,-0.0937 -0.28125,0 -0.57813,0.0156 -0.28125,0.0156 -0.5625,0.0625 z m 0,1.34375 v 4.65625 q 0.34375,0.0625 0.6875,0.10938 0.35938,0.0312 0.6875,0.0312 0.53125,0 0.98438,-0.10938 0.46875,-0.125 0.8125,-0.375 0.34375,-0.26562 0.53125,-0.71875 0.20312,-0.46875 0.20312,-1.14062 0,-1.15625 -0.625,-1.79688 -0.625,-0.65625 -1.9375,-0.65625 z m -1.6875,-6.67187 q 0.65625,-0.14063 1.32813,-0.21875 0.6875,-0.0937 1.35937,-0.0937 0.84375,0 1.59375,0.15625 0.76563,0.15625 1.34375,0.54687 0.57813,0.375 0.92188,1 0.34375,0.625 0.34375,1.5625 0,1.15625 -0.48438,1.90625 -0.48437,0.73438 -1.25,1.07813 0.95313,0.375 1.5625,1.14062 0.625,0.76563 0.625,2.10938 0,1 -0.32812,1.70312 -0.32813,0.6875 -0.9375,1.125 -0.59375,0.4375 -1.42188,0.64063 -0.82812,0.1875 -1.8125,0.1875 -0.65625,0 -1.375,-0.0781 -0.70312,-0.0781 -1.46875,-0.21875 z m 15.67304,12.46875 q -0.23438,0.0937 -0.59375,0.1875 -0.34375,0.0781 -0.71875,0.14062 -0.375,0.0625 -0.76563,0.10938 -0.375,0.0469 -0.70312,0.0469 -0.76563,0 -1.40625,-0.1875 -0.625,-0.17187 -1.07813,-0.60937 -0.4375,-0.45313 -0.6875,-1.21875 -0.23437,-0.78125 -0.23437,-1.95313 v -6.03125 h 1.59375 v 5.96875 q 0,1.4375 0.4375,2.03125 0.45312,0.57813 1.34375,0.57813 0.29687,0 0.59375,-0.0156 0.29687,-0.0312 0.60937,-0.125 v -8.4375 h 1.60938 z m 5.75186,-14.20313 q 0.53125,0 0.9375,0.125 0.42187,0.10938 0.6875,0.23438 l -0.34375,1.26562 q -0.26563,-0.125 -0.54688,-0.1875 -0.26562,-0.0625 -0.59375,-0.0625 -0.42187,0 -0.70312,0.15625 -0.28125,0.14063 -0.4375,0.40625 -0.14063,0.25 -0.20313,0.625 -0.0469,0.35938 -0.0469,0.76563 v 1.35937 h 2.51562 v 1.39063 h -2.51562 v 8.40625 h -1.60938 v -11.15625 q 0,-1.59375 0.70313,-2.45313 0.71875,-0.875 2.15625,-0.875 z m 5.70312,0 q 0.53125,0 0.9375,0.125 0.42188,0.10938 0.6875,0.23438 l -0.34375,1.26562 q -0.26562,-0.125 -0.54687,-0.1875 -0.26563,-0.0625 -0.59375,-0.0625 -0.42188,0 -0.70313,0.15625 -0.28125,0.14063 -0.4375,0.40625 -0.14062,0.25 -0.20312,0.625 -0.0469,0.35938 -0.0469,0.76563 v 1.35937 h 2.51563 v 1.39063 h -2.51563 v 8.40625 h -1.60937 v -11.15625 q 0,-1.59375 0.70312,-2.45313 0.71875,-0.875 2.15625,-0.875 z m 3.77786,10.0625 q 0.0156,0.70313 0.125,1.29688 0.10938,0.59375 0.35938,1.03125 0.25,0.4375 0.67187,0.6875 0.42188,0.23437 1.07813,0.23437 0.53125,0 0.98437,-0.15625 0.46875,-0.17187 0.67188,-0.28125 l 0.29687,1.29688 q -0.23437,0.15625 -0.8125,0.35937 -0.5625,0.20313 -1.34375,0.20313 -1.03125,0 -1.73437,-0.375 -0.6875,-0.375 -1.14063,-1.04688 -0.4375,-0.67187 -0.625,-1.60937 -0.17187,-0.9375 -0.17187,-2.04688 0,-2.70312 0.89062,-3.95312 0.89063,-1.25 2.35938,-1.25 1.67187,0 2.35937,1.25 0.6875,1.25 0.6875,3.5 0,0.20312 0,0.42187 0,0.21875 -0.0156,0.4375 z m 1.60938,-4.25 q -0.79688,0 -1.15625,0.79688 -0.35938,0.79687 -0.4375,2.14062 h 2.96875 q 0,-1.35937 -0.28125,-2.14062 -0.28125,-0.79688 -1.09375,-0.79688 z m 9.64975,0.32813 q -0.59375,-0.25 -1.34375,-0.25 -0.6875,0 -1.28125,0.23437 v 8.35938 h -1.60938 v -9.35938 q 0.54688,-0.26562 1.23438,-0.4375 0.70312,-0.1875 1.54687,-0.1875 0.45313,0 0.89063,0.0625 0.45312,0.0469 0.84375,0.20313 z"
       fill-rule="nonzero"
       id="path37" />
    <path
       fill="#eeeeee"
       d="m 413.41733,419.46472 v 0 c 0,-4.53723 3.67816,-8.21539 8.21539,-8.21539 h 116.73459 c 2.17884,0 4.26844,0.86557 5.80915,2.40625 1.54065,1.54068 2.40625,3.63031 2.40625,5.80914 v 32.86056 c 0,4.53724 -3.67817,8.2154 -8.2154,8.2154 H 421.63272 c -4.53723,0 -8.21539,-3.67816 -8.21539,-8.2154 z"
       fill-rule="evenodd"
       id="path39" />
    <path
       stroke="#595959"
       stroke-width="1"
       stroke-linejoin="round"
       stroke-linecap="butt"
       d="m 413.41733,419.46472 v 0 c 0,-4.53723 3.67816,-8.21539 8.21539,-8.21539 h 116.73459 c 2.17884,0 4.26844,0.86557 5.80915,2.40625 1.54065,1.54068 2.40625,3.63031 2.40625,5.80914 v 32.86056 c 0,4.53724 -3.67817,8.2154 -8.2154,8.2154 H 421.63272 c -4.53723,0 -8.21539,-3.67816 -8.21539,-8.2154 z"
       fill-rule="evenodd"
       id="path41" />
    <path
       fill="#000000"
       d="m 444.8705,441.65875 q 1,0 1.54687,-0.5625 0.5625,-0.5625 0.5625,-1.51563 0,-0.5 -0.17187,-0.89062 -0.17188,-0.39063 -0.4375,-0.70313 -0.26563,-0.32812 -0.625,-0.57812 -0.35938,-0.26563 -0.71875,-0.53125 -0.4375,-0.29688 -0.90625,-0.625 -0.46875,-0.34375 -0.85938,-0.78125 -0.375,-0.45313 -0.625,-1.04688 -0.23437,-0.60937 -0.23437,-1.40625 0,-0.78125 0.26562,-1.40625 0.28125,-0.64062 0.75,-1.09375 0.48438,-0.45312 1.14063,-0.6875 0.67187,-0.25 1.4375,-0.25 0.73437,0 1.375,0.1875 0.64062,0.1875 1.0625,0.45313 l -0.51563,1.32812 q -0.39062,-0.26562 -0.85937,-0.40625 -0.45313,-0.14062 -0.95313,-0.14062 -0.92187,0 -1.46875,0.5 -0.54687,0.48437 -0.54687,1.4375 0,0.53125 0.17187,0.92187 0.1875,0.39063 0.46875,0.71875 0.29688,0.3125 0.67188,0.57813 0.375,0.25 0.8125,0.53125 0.42187,0.28125 0.875,0.625 0.45312,0.32812 0.8125,0.76562 0.35937,0.4375 0.59375,1.03125 0.23437,0.57813 0.23437,1.375 0,0.73438 -0.23437,1.39063 -0.21875,0.65625 -0.6875,1.15625 -0.46875,0.48437 -1.1875,0.78125 -0.71875,0.28125 -1.6875,0.28125 -0.90625,0 -1.57813,-0.20313 -0.67187,-0.20312 -1.1875,-0.54687 l 0.51563,-1.34375 q 0.48437,0.29687 1,0.48437 0.51562,0.17188 1.1875,0.17188 z m 7.22647,-3.26563 q 0.0156,0.70313 0.125,1.29688 0.10938,0.59375 0.35938,1.03125 0.25,0.4375 0.67187,0.6875 0.42188,0.23437 1.07813,0.23437 0.53125,0 0.98437,-0.15625 0.46875,-0.17187 0.67188,-0.28125 l 0.29687,1.29688 q -0.23437,0.15625 -0.8125,0.35937 -0.5625,0.20313 -1.34375,0.20313 -1.03125,0 -1.73437,-0.375 -0.6875,-0.375 -1.14063,-1.04688 -0.4375,-0.67187 -0.625,-1.60937 -0.17187,-0.9375 -0.17187,-2.04688 0,-2.70312 0.89062,-3.95312 0.89063,-1.25 2.35938,-1.25 1.67187,0 2.35937,1.25 0.6875,1.25 0.6875,3.5 0,0.20312 0,0.42187 0,0.21875 -0.0156,0.4375 z m 1.60938,-4.25 q -0.79688,0 -1.15625,0.79688 -0.35938,0.79687 -0.4375,2.14062 h 2.96875 q 0,-1.35937 -0.28125,-2.14062 -0.28125,-0.79688 -1.09375,-0.79688 z m 5.41537,-0.84375 q 0.6875,-0.20312 1.48438,-0.34375 0.8125,-0.14062 1.48437,-0.14062 0.73438,0 1.32813,0.20312 0.59375,0.1875 1.01562,0.65625 0.42188,0.46875 0.65625,1.26563 0.23438,0.78125 0.23438,1.96875 v 5.90625 h -1.60938 v -5.78125 q 0,-1.45313 -0.375,-2.125 -0.375,-0.67188 -1.40625,-0.67188 -0.53125,0 -1.20312,0.1875 v 8.39063 h -1.60938 z m 13.21106,1.1875 q -0.54687,-0.29687 -1.15625,-0.29687 -0.46875,0 -0.82812,0.1875 -0.34375,0.1875 -0.60938,0.625 -0.25,0.42187 -0.375,1.14062 -0.125,0.70313 -0.125,1.75 0,2.01563 0.53125,2.89063 0.53125,0.85937 1.60938,0.85937 0.20312,0 0.4375,-0.0312 0.25,-0.0312 0.51562,-0.10937 z m 0,-5.875 1.60938,-0.28125 v 14.21875 q -0.53125,0.23438 -1.20313,0.375 -0.67187,0.14063 -1.35937,0.14063 -2.01563,0 -2.92188,-1.28125 -0.90625,-1.29688 -0.90625,-3.89063 0,-1.17187 0.1875,-2.10937 0.20313,-0.95313 0.625,-1.60938 0.42188,-0.67187 1.07813,-1.03125 0.65625,-0.35937 1.54687,-0.35937 0.42188,0 0.73438,0.0781 0.3125,0.0781 0.60937,0.23438 z m 9.92856,6.78125 h 1.15625 q 2.3125,0 2.3125,-2.09375 0,-0.65625 -0.20313,-1.0625 -0.1875,-0.42187 -0.51562,-0.65625 -0.3125,-0.23437 -0.73438,-0.32812 -0.42187,-0.0937 -0.875,-0.0937 -0.28125,0 -0.57812,0.0156 -0.28125,0.0156 -0.5625,0.0625 z m 0,1.34375 v 4.65625 q 0.34375,0.0625 0.6875,0.10938 0.35937,0.0312 0.6875,0.0312 0.53125,0 0.98437,-0.10938 0.46875,-0.125 0.8125,-0.375 0.34375,-0.26562 0.53125,-0.71875 0.20313,-0.46875 0.20313,-1.14062 0,-1.15625 -0.625,-1.79688 -0.625,-0.65625 -1.9375,-0.65625 z m -1.6875,-6.67187 q 0.65625,-0.14063 1.32812,-0.21875 0.6875,-0.0937 1.35938,-0.0937 0.84375,0 1.59375,0.15625 0.76562,0.15625 1.34375,0.54687 0.57812,0.375 0.92187,1 0.34375,0.625 0.34375,1.5625 0,1.15625 -0.48437,1.90625 -0.48438,0.73438 -1.25,1.07813 0.95312,0.375 1.5625,1.14062 0.625,0.76563 0.625,2.10938 0,1 -0.32813,1.70312 -0.32812,0.6875 -0.9375,1.125 -0.59375,0.4375 -1.42187,0.64063 -0.82813,0.1875 -1.8125,0.1875 -0.65625,0 -1.375,-0.0781 -0.70313,-0.0781 -1.46875,-0.21875 z m 9.76678,3.15625 q 0.48438,-0.20313 1.01563,-0.3125 0.54687,-0.125 1.1875,-0.125 1.29687,0 2.10937,0.8125 0.82813,0.8125 0.82813,2.51562 v 6.5 q -0.67188,0.1875 -1.375,0.29688 -0.6875,0.10937 -1.35938,0.10937 -0.67187,0 -1.26562,-0.17187 -0.57813,-0.15625 -1.03125,-0.53125 -0.4375,-0.375 -0.70313,-0.9375 -0.25,-0.57813 -0.25,-1.39063 0,-0.76562 0.23438,-1.32812 0.23437,-0.57813 0.64062,-0.95313 0.40625,-0.39062 0.96875,-0.57812 0.5625,-0.20313 1.21875,-0.20313 0.60938,0 1.35938,0.14063 v -0.89063 q 0,-1.07812 -0.42188,-1.5 -0.42187,-0.4375 -1.20312,-0.4375 -0.42188,0 -0.8125,0.0937 -0.375,0.0781 -0.8125,0.25 z m 0.76563,6.73437 q 0,0.85938 0.4375,1.28125 0.45312,0.40625 1.26562,0.40625 0.51563,0 1.10938,-0.14062 v -3.10938 q -0.5625,-0.15625 -1.10938,-0.15625 -0.34375,0 -0.67187,0.0937 -0.3125,0.0781 -0.54688,0.28125 -0.23437,0.1875 -0.35937,0.51563 -0.125,0.32812 -0.125,0.82812 z m 8.67493,-6.9375 h 2.45312 v 1.39063 h -2.45312 v 5.39062 q 0,1 0.35937,1.40625 0.35938,0.39063 0.98438,0.39063 0.3125,0 0.59375,-0.0937 0.29687,-0.0937 0.5,-0.21875 l 0.3125,1.28125 q -0.76563,0.45312 -1.625,0.45312 -1.375,0 -2.0625,-0.76562 -0.67188,-0.78125 -0.67188,-2.57813 v -9.28125 l 1.60938,-0.28125 z m 7.3797,10.04688 q -1,0 -1.67188,-0.39063 -0.67187,-0.40625 -1.09375,-1.07812 -0.42187,-0.6875 -0.60937,-1.60938 -0.17188,-0.9375 -0.17188,-2.04687 0,-2.42188 0.89063,-3.78125 0.89062,-1.375 2.67187,-1.375 0.54688,0 0.96875,0.125 0.4375,0.125 0.8125,0.32812 l -0.40625,1.32813 q -0.57812,-0.375 -1.29687,-0.375 -1,0 -1.48438,0.92187 -0.46875,0.90625 -0.46875,2.82813 0,0.8125 0.0937,1.5 0.0937,0.67187 0.32813,1.15625 0.23437,0.48437 0.60937,0.76562 0.39063,0.28125 0.98438,0.28125 0.40625,0 0.73437,-0.0937 0.32813,-0.10937 0.625,-0.28125 l 0.35938,1.25 q -0.3125,0.20313 -0.8125,0.375 -0.48438,0.17188 -1.0625,0.17188 z m 3.60128,-0.25 v -14.20313 l 1.60941,-0.28125 v 4.75 q 0.35937,-0.10937 0.76562,-0.1875 0.42188,-0.0781 0.85938,-0.0781 0.60937,0 1.14062,0.20312 0.54688,0.1875 0.95313,0.65625 0.40625,0.46875 0.64062,1.26563 0.23438,0.78125 0.23438,1.96875 v 5.90625 h -1.60938 v -5.78125 q 0,-1.45313 -0.375,-2.125 -0.375,-0.67188 -1.40625,-0.67188 -0.53125,0 -1.20312,0.1875 v 8.39063 z"
       fill-rule="nonzero"
       id="path43" />
    <path
       fill="#000000"
       fill-opacity="0"
       d="m 480,128.75066 v 33.6693"
       fill-rule="evenodd"
       id="path45" />
    <path
       stroke="#f3f3f3"
       stroke-width="2"
       stroke-linejoin="round"
       stroke-linecap="butt"
       d="m 480,128.75066 v 21.6693"
       fill-rule="evenodd"
       id="path47" />
    <path
       fill="#f3f3f3"
       stroke="#f3f3f3"
       stroke-width="2"
       stroke-linecap="butt"
       d="m 476.69653,150.41995 3.30347,9.07619 3.30346,-9.07619 z"
       fill-rule="evenodd"
       id="path49" />
    <path
       fill="#000000"
       fill-opacity="0"
       d="m 480,211.69817 v 33.66928"
       fill-rule="evenodd"
       id="path51" />
    <path
       stroke="#f3f3f3"
       stroke-width="2"
       stroke-linejoin="round"
       stroke-linecap="butt"
       d="m 480,211.69817 v 21.66928"
       fill-rule="evenodd"
       id="path53" />
    <path
       fill="#f3f3f3"
       stroke="#f3f3f3"
       stroke-width="2"
       stroke-linecap="butt"
       d="m 476.69653,233.36746 3.30347,9.07619 3.30346,-9.07619 z"
       fill-rule="evenodd"
       id="path55" />
    <path
       fill="#000000"
       fill-opacity="0"
       d="m 480,377.59317 v 33.66931"
       fill-rule="evenodd"
       id="path57" />
    <path
       stroke="#f3f3f3"
       stroke-width="2"
       stroke-linejoin="round"
       stroke-linecap="butt"
       d="m 480,377.59317 v 21.66931"
       fill-rule="evenodd"
       id="path59" />
    <path
       fill="#f3f3f3"
       stroke="#f3f3f3"
       stroke-width="2"
       stroke-linecap="butt"
       d="m 476.69653,399.26248 3.30347,9.07617 3.30346,-9.07617 z"
       fill-rule="evenodd"
       id="path61" />
    <path
       fill="#000000"
       fill-opacity="0"
       d="m 480,294.64566 v 33.66931"
       fill-rule="evenodd"
       id="path63" />
    <path
       stroke="#f3f3f3"
       stroke-width="2"
       stroke-linejoin="round"
       stroke-linecap="butt"
       d="m 480,294.64566 v 21.66931"
       fill-rule="evenodd"
       id="path65" />
    <path
       fill="#f3f3f3"
       stroke="#f3f3f3"
       stroke-width="2"
       stroke-linecap="butt"
       d="m 476.69653,316.31497 3.30347,9.07617 3.30346,-9.07617 z"
       fill-rule="evenodd"
       id="path67" />
    <path
       fill="#000000"
       fill-opacity="0"
       d="m 442.80316,24.001049 h 74.39368 v 42.01575 h -74.39368 z"
       fill-rule="evenodd"
       id="path69" />
    <path
       fill="#efefef"
       d="m 466.71216,49.780422 q 0.71875,0 1.07812,-0.390625 0.35938,-0.40625 0.35938,-1.0625 0,-0.40625 -0.15625,-0.6875 -0.14063,-0.296875 -0.39063,-0.515625 -0.23437,-0.234375 -0.5625,-0.40625 -0.3125,-0.1875 -0.625,-0.390625 -0.3125,-0.1875 -0.60937,-0.4375 -0.29688,-0.25 -0.53125,-0.578125 -0.23438,-0.328125 -0.375,-0.734375 -0.14063,-0.421875 -0.14063,-0.984375 0,-1.21875 0.75,-1.953125 0.76563,-0.75 2.04688,-0.75 0.54687,0 1.03125,0.140625 0.48437,0.140625 0.79687,0.296875 l -0.35937,1.296875 q -0.32813,-0.1875 -0.67188,-0.28125 -0.32812,-0.09375 -0.71875,-0.09375 -0.59375,0 -0.95312,0.34375 -0.35938,0.34375 -0.35938,1 0,0.375 0.125,0.640625 0.14063,0.265625 0.34375,0.484375 0.21875,0.21875 0.48438,0.40625 0.28125,0.1875 0.57812,0.34375 0.35938,0.203125 0.70313,0.453125 0.34375,0.25 0.60937,0.578125 0.28125,0.3125 0.4375,0.75 0.17188,0.4375 0.17188,1.0625 0,1.28125 -0.76563,2.078125 -0.75,0.78125 -2.20312,0.78125 -0.73438,0 -1.34375,-0.21875 -0.59375,-0.203125 -0.89063,-0.359375 l 0.32813,-1.328125 q 0.28125,0.140625 0.75,0.328125 0.48437,0.1875 1.0625,0.1875 z m 6.11179,-3.28125 q 0.0156,0.703125 0.125,1.296875 0.10937,0.59375 0.35937,1.03125 0.25,0.4375 0.67188,0.6875 0.42187,0.234375 1.07812,0.234375 0.53125,0 0.98438,-0.15625 0.46875,-0.171875 0.67187,-0.28125 l 0.29688,1.296875 q -0.23438,0.15625 -0.8125,0.359375 -0.5625,0.203125 -1.34375,0.203125 -1.03125,0 -1.73438,-0.375 -0.6875,-0.375 -1.14062,-1.046875 -0.4375,-0.671875 -0.625,-1.609375 -0.17188,-0.9375 -0.17188,-2.046875 0,-2.703125 0.89063,-3.953125 0.89062,-1.25 2.35937,-1.25 1.67188,0 2.35938,1.25 0.6875,1.25 0.6875,3.5 0,0.203125 0,0.421875 0,0.21875 -0.0156,0.4375 z m 1.60937,-4.25 q -0.79687,0 -1.15625,0.796875 -0.35937,0.796875 -0.4375,2.140625 h 2.96875 q 0,-1.359375 -0.28125,-2.140625 -0.28125,-0.796875 -1.09375,-0.796875 z m 5.41538,-0.84375 q 0.6875,-0.203125 1.48437,-0.34375 0.8125,-0.140625 1.48438,-0.140625 0.73437,0 1.32812,0.203125 0.59375,0.1875 1.01563,0.65625 0.42187,0.46875 0.65625,1.265625 0.23437,0.78125 0.23437,1.96875 v 5.90625 h -1.60937 v -5.78125 q 0,-1.453125 -0.375,-2.125 -0.375,-0.671875 -1.40625,-0.671875 -0.53125,0 -1.20313,0.1875 v 8.390625 h -1.60937 z m 13.21106,1.1875 q -0.54688,-0.296875 -1.15625,-0.296875 -0.46875,0 -0.82813,0.1875 -0.34375,0.1875 -0.60937,0.625 -0.25,0.421875 -0.375,1.140625 -0.125,0.703125 -0.125,1.75 0,2.015625 0.53125,2.890625 0.53125,0.859375 1.60937,0.859375 0.20313,0 0.4375,-0.03125 0.25,-0.03125 0.51563,-0.109375 z m 0,-5.875 1.60937,-0.28125 v 14.21875 q -0.53125,0.234375 -1.20312,0.375 -0.67188,0.140625 -1.35938,0.140625 -2.01562,0 -2.92187,-1.28125 -0.90625,-1.296875 -0.90625,-3.890625 0,-1.171875 0.1875,-2.109375 0.20312,-0.953125 0.625,-1.609375 0.42187,-0.671875 1.07812,-1.03125 0.65625,-0.359375 1.54688,-0.359375 0.42187,0 0.73437,0.07813 0.3125,0.07813 0.60938,0.234375 z"
       fill-rule="nonzero"
       id="path71" />
    <path
       fill="#b7b7b7"
       d="m 288.80054,230.20473 h 86.39368 v 79.59056 h -86.39368 z"
       fill-rule="evenodd"
       id="path73" />
    <path
       stroke="#595959"
       stroke-width="1"
       stroke-linejoin="round"
       stroke-linecap="butt"
       d="m 288.80054,230.20473 h 86.39368 v 79.59056 h -86.39368 z"
       fill-rule="evenodd"
       id="path75" />
    <path
       fill="#000000"
       d="m 304.73047,275.1231 q -0.375,-1.34375 -0.76562,-2.5625 -0.39063,-1.23437 -0.76563,-2.32812 -0.35937,-1.09375 -0.70312,-1.98438 -0.32813,-0.90625 -0.59375,-1.57812 -0.0781,1.07812 -0.125,2.35937 -0.0469,1.26563 -0.0937,2.60938 -0.0469,1.34375 -0.0781,2.70312 -0.0312,1.34375 -0.0469,2.57813 h -1.60938 q 0.0625,-1.67188 0.10938,-3.375 0.0625,-1.71875 0.14062,-3.35938 0.0937,-1.65625 0.1875,-3.21875 0.10938,-1.57812 0.23438,-2.96875 h 1.67187 q 0.32813,0.79688 0.75,1.90625 0.4375,1.10938 0.875,2.32813 0.4375,1.20312 0.84375,2.42187 0.42188,1.20313 0.71875,2.21875 0.29688,-1.01562 0.6875,-2.21875 0.39063,-1.21875 0.8125,-2.42187 0.4375,-1.21875 0.85938,-2.32813 0.42187,-1.10937 0.75,-1.90625 h 1.65625 q 0.14062,1.39063 0.23437,2.96875 0.10938,1.5625 0.1875,3.21875 0.0937,1.64063 0.14063,3.35938 0.0625,1.70312 0.10937,3.375 h -1.59375 q -0.0469,-1.23438 -0.0781,-2.59375 -0.0156,-1.35938 -0.0625,-2.73438 -0.0469,-1.375 -0.10938,-2.67187 -0.0469,-1.29688 -0.125,-2.375 -0.17187,0.46875 -0.42187,1.17187 -0.25,0.70313 -0.53125,1.53125 -0.26563,0.8125 -0.5625,1.6875 -0.28125,0.85938 -0.53125,1.65625 -0.25,0.79688 -0.45313,1.46875 -0.1875,0.65625 -0.29687,1.0625 z m 10.04443,-2.625 q 0.0156,0.70313 0.125,1.29688 0.10938,0.59375 0.35938,1.03125 0.25,0.4375 0.67187,0.6875 0.42188,0.23437 1.07813,0.23437 0.53125,0 0.98437,-0.15625 0.46875,-0.17187 0.67188,-0.28125 l 0.29687,1.29688 q -0.23437,0.15625 -0.8125,0.35937 -0.5625,0.20313 -1.34375,0.20313 -1.03125,0 -1.73437,-0.375 -0.6875,-0.375 -1.14063,-1.04688 -0.4375,-0.67187 -0.625,-1.60937 -0.17187,-0.9375 -0.17187,-2.04688 0,-2.70312 0.89062,-3.95312 0.89063,-1.25 2.35938,-1.25 1.67187,0 2.35937,1.25 0.6875,1.25 0.6875,3.5 0,0.20312 0,0.42187 0,0.21875 -0.0156,0.4375 z m 1.60938,-4.25 q -0.79688,0 -1.15625,0.79688 -0.35938,0.79687 -0.4375,2.14062 h 2.96875 q 0,-1.35937 -0.28125,-2.14062 -0.28125,-0.79688 -1.09375,-0.79688 z m 6.91537,-1.125 h 2.45313 v 1.39063 h -2.45313 v 5.39062 q 0,1 0.35938,1.40625 0.35937,0.39063 0.98437,0.39063 0.3125,0 0.59375,-0.0937 0.29688,-0.0937 0.5,-0.21875 l 0.3125,1.28125 q -0.76562,0.45312 -1.625,0.45312 -1.375,0 -2.0625,-0.76562 -0.67187,-0.78125 -0.67187,-2.57813 v -9.28125 l 1.60937,-0.28125 z m 4.64493,0.20313 q 0.48438,-0.20313 1.01563,-0.3125 0.54687,-0.125 1.1875,-0.125 1.29687,0 2.10937,0.8125 0.82813,0.8125 0.82813,2.51562 v 6.5 q -0.67188,0.1875 -1.375,0.29688 -0.6875,0.10937 -1.35938,0.10937 -0.67187,0 -1.26562,-0.17187 -0.57813,-0.15625 -1.03125,-0.53125 -0.4375,-0.375 -0.70313,-0.9375 -0.25,-0.57813 -0.25,-1.39063 0,-0.76562 0.23438,-1.32812 0.23437,-0.57813 0.64062,-0.95313 0.40625,-0.39062 0.96875,-0.57812 0.5625,-0.20313 1.21875,-0.20313 0.60938,0 1.35938,0.14063 v -0.89063 q 0,-1.07812 -0.42188,-1.5 -0.42187,-0.4375 -1.20312,-0.4375 -0.42188,0 -0.8125,0.0937 -0.375,0.0781 -0.8125,0.25 z m 0.76563,6.73437 q 0,0.85938 0.4375,1.28125 0.45312,0.40625 1.26562,0.40625 0.51563,0 1.10938,-0.14062 v -3.10938 q -0.5625,-0.15625 -1.10938,-0.15625 -0.34375,0 -0.67187,0.0937 -0.3125,0.0781 -0.54688,0.28125 -0.23437,0.1875 -0.35937,0.51563 -0.125,0.32812 -0.125,0.82812 z m 11.39367,-5.46875 q -0.54687,-0.29687 -1.15625,-0.29687 -0.46875,0 -0.82812,0.1875 -0.34375,0.1875 -0.60938,0.625 -0.25,0.42187 -0.375,1.14062 -0.125,0.70313 -0.125,1.75 0,2.01563 0.53125,2.89063 0.53125,0.85937 1.60938,0.85937 0.20312,0 0.4375,-0.0312 0.25,-0.0312 0.51562,-0.10937 z m 0,-5.875 1.60938,-0.28125 v 14.21875 q -0.53125,0.23438 -1.20313,0.375 -0.67187,0.14063 -1.35937,0.14063 -2.01563,0 -2.92188,-1.28125 -0.90625,-1.29688 -0.90625,-3.89063 0,-1.17187 0.1875,-2.10937 0.20313,-0.95313 0.625,-1.60938 0.42188,-0.67187 1.07813,-1.03125 0.65625,-0.35937 1.54687,-0.35937 0.42188,0 0.73438,0.0781 0.3125,0.0781 0.60937,0.23438 z m 4.64997,4.60938 q 0.48437,-0.20313 1.01562,-0.3125 0.54688,-0.125 1.1875,-0.125 1.29688,0 2.10938,0.8125 0.82812,0.8125 0.82812,2.51562 v 6.5 q -0.67187,0.1875 -1.375,0.29688 -0.6875,0.10937 -1.35937,0.10937 -0.67188,0 -1.26563,-0.17187 -0.57812,-0.15625 -1.03125,-0.53125 -0.4375,-0.375 -0.70312,-0.9375 -0.25,-0.57813 -0.25,-1.39063 0,-0.76562 0.23437,-1.32812 0.23438,-0.57813 0.64063,-0.95313 0.40625,-0.39062 0.96875,-0.57812 0.5625,-0.20313 1.21875,-0.20313 0.60937,0 1.35937,0.14063 v -0.89063 q 0,-1.07812 -0.42187,-1.5 -0.42188,-0.4375 -1.20313,-0.4375 -0.42187,0 -0.8125,0.0937 -0.375,0.0781 -0.8125,0.25 z m 0.76562,6.73437 q 0,0.85938 0.4375,1.28125 0.45313,0.40625 1.26563,0.40625 0.51562,0 1.10937,-0.14062 v -3.10938 q -0.5625,-0.15625 -1.10937,-0.15625 -0.34375,0 -0.67188,0.0937 -0.3125,0.0781 -0.54687,0.28125 -0.23438,0.1875 -0.35938,0.51563 -0.125,0.32812 -0.125,0.82812 z m 8.67496,-6.9375 h 2.45312 v 1.39063 h -2.45312 v 5.39062 q 0,1 0.35937,1.40625 0.35938,0.39063 0.98438,0.39063 0.3125,0 0.59375,-0.0937 0.29687,-0.0937 0.5,-0.21875 l 0.3125,1.28125 q -0.76563,0.45312 -1.625,0.45312 -1.375,0 -2.0625,-0.76562 -0.67188,-0.78125 -0.67188,-2.57813 v -9.28125 l 1.60938,-0.28125 z m 4.6449,0.20313 q 0.48437,-0.20313 1.01562,-0.3125 0.54688,-0.125 1.1875,-0.125 1.29688,0 2.10938,0.8125 0.82812,0.8125 0.82812,2.51562 v 6.5 q -0.67187,0.1875 -1.375,0.29688 -0.6875,0.10937 -1.35937,0.10937 -0.67188,0 -1.26563,-0.17187 -0.57812,-0.15625 -1.03125,-0.53125 -0.4375,-0.375 -0.70312,-0.9375 -0.25,-0.57813 -0.25,-1.39063 0,-0.76562 0.23437,-1.32812 0.23438,-0.57813 0.64063,-0.95313 0.40625,-0.39062 0.96875,-0.57812 0.5625,-0.20313 1.21875,-0.20313 0.60937,0 1.35937,0.14063 v -0.89063 q 0,-1.07812 -0.42187,-1.5 -0.42188,-0.4375 -1.20313,-0.4375 -0.42187,0 -0.8125,0.0937 -0.375,0.0781 -0.8125,0.25 z m 0.76562,6.73437 q 0,0.85938 0.4375,1.28125 0.45313,0.40625 1.26563,0.40625 0.51562,0 1.10937,-0.14062 v -3.10938 q -0.5625,-0.15625 -1.10937,-0.15625 -0.34375,0 -0.67188,0.0937 -0.3125,0.0781 -0.54687,0.28125 -0.23438,0.1875 -0.35938,0.51563 -0.125,0.32812 -0.125,0.82812 z"
       fill-rule="nonzero"
       id="path77" />
  </g>
</svg>
