<?xml version="1.0" encoding="UTF-8" standalone="no"?>
<svg
   version="1.1"
   viewBox="0 0 565 318.60629"
   fill="none"
   stroke="none"
   stroke-linecap="square"
   stroke-miterlimit="10"
   id="svg113"
   sodipodi:docname="select-partition.svg"
   width="565"
   height="318.60629"
   inkscape:version="1.2.2 (b0a8486541, 2022-12-01)"
   xmlns:inkscape="http://www.inkscape.org/namespaces/inkscape"
   xmlns:sodipodi="http://sodipodi.sourceforge.net/DTD/sodipodi-0.dtd"
   xmlns="http://www.w3.org/2000/svg"
   xmlns:svg="http://www.w3.org/2000/svg">
  <defs
     id="defs117" />
  <sodipodi:namedview
     id="namedview115"
     pagecolor="#ffffff"
     bordercolor="#666666"
     borderopacity="1.0"
     inkscape:showpageshadow="2"
     inkscape:pageopacity="0.0"
     inkscape:pagecheckerboard="0"
     inkscape:deskcolor="#d1d1d1"
     showgrid="false"
     inkscape:zoom="1.3552083"
     inkscape:cx="264.16603"
     inkscape:cy="157.17141"
     inkscape:window-width="1920"
     inkscape:window-height="1011"
     inkscape:window-x="0"
     inkscape:window-y="32"
     inkscape:window-maximized="1"
     inkscape:current-layer="svg113" />
  <clipPath
     id="g1db106035c2_0_60.0">
    <path
       d="M 0,0 H 960 V 540 H 0 Z"
       clip-rule="nonzero"
       id="path2" />
  </clipPath>
  <g
     clip-path="url(#g1db106035c2_0_60.0)"
     id="g111"
     transform="translate(-197.5,-113.10105)">
    <path
       fill="#000000"
       fill-opacity="0"
       d="m 198,166.5365 v 0 c 0,-29.23544 23.70001,-52.93545 52.93544,-52.93545 h 458.12915 c 14.03931,0 27.50366,5.57711 37.43097,15.50443 9.92737,9.92733 15.50446,23.39167 15.50446,37.43102 v 211.73541 c 0,29.23544 -23.70002,52.93542 -52.93543,52.93542 H 250.93544 C 221.70001,431.20733 198,407.50735 198,378.27191 Z"
       fill-rule="evenodd"
       id="path7" />
    <path
       stroke="#d9d9d9"
       stroke-width="1"
       stroke-linejoin="round"
       stroke-linecap="butt"
       stroke-dasharray="1, 3"
       d="m 198,166.5365 v 0 c 0,-29.23544 23.70001,-52.93545 52.93544,-52.93545 h 458.12915 c 14.03931,0 27.50366,5.57711 37.43097,15.50443 9.92737,9.92733 15.50446,23.39167 15.50446,37.43102 v 211.73541 c 0,29.23544 -23.70002,52.93542 -52.93543,52.93542 H 250.93544 C 221.70001,431.20733 198,407.50735 198,378.27191 Z"
       fill-rule="evenodd"
       id="path9" />
    <path
       fill="#eeeeee"
       d="m 428.20215,276.69702 v 0 c 0,-4.53723 3.67816,-8.21539 8.21539,-8.21539 h 122.93933 c 2.17884,0 4.26844,0.86554 5.80915,2.40622 1.54065,1.54068 2.40625,3.63031 2.40625,5.80917 v 32.86057 c 0,4.53723 -3.67817,8.21539 -8.2154,8.21539 H 436.41754 c -4.53723,0 -8.21539,-3.67816 -8.21539,-8.21539 z"
       fill-rule="evenodd"
       id="path11" />
    <path
       stroke="#595959"
       stroke-width="1"
       stroke-linejoin="round"
       stroke-linecap="butt"
       d="m 428.20215,276.69702 v 0 c 0,-4.53723 3.67816,-8.21539 8.21539,-8.21539 h 122.93933 c 2.17884,0 4.26844,0.86554 5.80915,2.40622 1.54065,1.54068 2.40625,3.63031 2.40625,5.80917 v 32.86057 c 0,4.53723 -3.67817,8.21539 -8.2154,8.21539 H 436.41754 c -4.53723,0 -8.21539,-3.67816 -8.21539,-8.21539 z"
       fill-rule="evenodd"
       id="path13" />
    <path
       fill="#434343"
       d="m 458.40863,289.0473 v -14.20313 l 1.60938,-0.28125 v 4.75 q 0.35937,-0.10937 0.76562,-0.1875 0.42188,-0.0781 0.85938,-0.0781 0.60937,0 1.14062,0.20312 0.54688,0.1875 0.95313,0.65625 0.40625,0.46875 0.64062,1.26563 0.23438,0.78125 0.23438,1.96875 v 5.90625 h -1.60938 v -5.78125 q 0,-1.45313 -0.375,-2.125 -0.375,-0.67188 -1.40625,-0.67188 -0.53125,0 -1.20312,0.1875 v 8.39063 z m 9.14856,-9.59375 q 0.48437,-0.20313 1.01562,-0.3125 0.54688,-0.125 1.1875,-0.125 1.29688,0 2.10938,0.8125 0.82812,0.8125 0.82812,2.51562 v 6.5 q -0.67187,0.1875 -1.375,0.29688 -0.6875,0.10937 -1.35937,0.10937 -0.67188,0 -1.26563,-0.17187 -0.57812,-0.15625 -1.03125,-0.53125 -0.4375,-0.375 -0.70312,-0.9375 -0.25,-0.57813 -0.25,-1.39063 0,-0.76562 0.23437,-1.32812 0.23438,-0.57813 0.64063,-0.95313 0.40625,-0.39062 0.96875,-0.57812 0.5625,-0.20313 1.21875,-0.20313 0.60937,0 1.35937,0.14063 v -0.89063 q 0,-1.07812 -0.42187,-1.5 -0.42188,-0.4375 -1.20313,-0.4375 -0.42187,0 -0.8125,0.0937 -0.375,0.0781 -0.8125,0.25 z m 0.76562,6.73437 q 0,0.85938 0.4375,1.28125 0.45313,0.40625 1.26563,0.40625 0.51562,0 1.10937,-0.14062 v -3.10938 q -0.5625,-0.15625 -1.10937,-0.15625 -0.34375,0 -0.67188,0.0937 -0.3125,0.0781 -0.54687,0.28125 -0.23438,0.1875 -0.35938,0.51563 -0.125,0.32812 -0.125,0.82812 z m 8.53431,1.71875 q 0.71875,0 1.07812,-0.39062 0.35938,-0.40625 0.35938,-1.0625 0,-0.40625 -0.15625,-0.6875 -0.14063,-0.29688 -0.39063,-0.51563 -0.23437,-0.23437 -0.5625,-0.40625 -0.3125,-0.1875 -0.625,-0.39062 -0.3125,-0.1875 -0.60937,-0.4375 -0.29688,-0.25 -0.53125,-0.57813 -0.23438,-0.32812 -0.375,-0.73437 -0.14063,-0.42188 -0.14063,-0.98438 0,-1.21875 0.75,-1.95312 0.76563,-0.75 2.04688,-0.75 0.54687,0 1.03125,0.14062 0.48437,0.14063 0.79687,0.29688 l -0.35937,1.29687 q -0.32813,-0.1875 -0.67188,-0.28125 -0.32812,-0.0937 -0.71875,-0.0937 -0.59375,0 -0.95312,0.34375 -0.35938,0.34375 -0.35938,1 0,0.375 0.125,0.64063 0.14063,0.26562 0.34375,0.48437 0.21875,0.21875 0.48438,0.40625 0.28125,0.1875 0.57812,0.34375 0.35938,0.20313 0.70313,0.45313 0.34375,0.25 0.60937,0.57812 0.28125,0.3125 0.4375,0.75 0.17188,0.4375 0.17188,1.0625 0,1.28125 -0.76563,2.07813 -0.75,0.78125 -2.20312,0.78125 -0.73438,0 -1.34375,-0.21875 -0.59375,-0.20313 -0.89063,-0.35938 l 0.32813,-1.32812 q 0.28125,0.14062 0.75,0.32812 0.48437,0.1875 1.0625,0.1875 z m 5.00241,1.14063 v -14.20313 l 1.60937,-0.28125 v 4.75 q 0.35938,-0.10937 0.76563,-0.1875 0.42187,-0.0781 0.85937,-0.0781 0.60938,0 1.14063,0.20312 0.54687,0.1875 0.95312,0.65625 0.40625,0.46875 0.64063,1.26563 0.23437,0.78125 0.23437,1.96875 v 5.90625 h -1.60937 v -5.78125 q 0,-1.45313 -0.375,-2.125 -0.375,-0.67188 -1.40625,-0.67188 -0.53125,0 -1.20313,0.1875 v 8.39063 z m 10.55481,-5.57813 q 0,2.39063 0.57812,4.5 0.57813,2.10938 1.625,3.85938 l -1.28125,0.70312 q -1.15625,-1.8125 -1.84375,-4.09375 -0.67187,-2.29687 -0.67187,-4.96875 0,-2.67187 0.67187,-4.95312 0.6875,-2.29688 1.84375,-4.10938 l 1.28125,0.70313 q -1.04687,1.75 -1.625,3.85937 -0.57812,2.10938 -0.57812,4.5 z m 9.81701,-4.21875 q -0.78125,1.34375 -1.5,2.45313 -0.71875,1.10937 -1.42187,2.07812 0.4375,0.53125 0.90625,1.1875 0.46875,0.64063 0.89062,1.34375 0.4375,0.70313 0.8125,1.40625 0.375,0.6875 0.625,1.32813 h -1.75 q -0.28125,-0.60938 -0.65625,-1.28125 -0.35937,-0.67188 -0.78125,-1.3125 -0.40625,-0.65625 -0.8125,-1.23438 -0.40625,-0.57812 -0.76562,-0.96875 v 4.79688 h -1.60938 v -14.20313 l 1.60938,-0.28125 v 8.90625 q 0.32812,-0.45312 0.70312,-1 0.39063,-0.5625 0.76563,-1.125 0.375,-0.57812 0.70312,-1.10937 0.34375,-0.54688 0.5625,-0.98438 z m 2.7331,5.375 q 0.0156,0.70313 0.125,1.29688 0.10937,0.59375 0.35937,1.03125 0.25,0.4375 0.67188,0.6875 0.42187,0.23437 1.07812,0.23437 0.53125,0 0.98438,-0.15625 0.46875,-0.17187 0.67187,-0.28125 l 0.29688,1.29688 q -0.23438,0.15625 -0.8125,0.35937 -0.5625,0.20313 -1.34375,0.20313 -1.03125,0 -1.73438,-0.375 -0.6875,-0.375 -1.14062,-1.04688 -0.4375,-0.67187 -0.625,-1.60937 -0.17188,-0.9375 -0.17188,-2.04688 0,-2.70312 0.89063,-3.95312 0.89062,-1.25 2.35937,-1.25 1.67188,0 2.35938,1.25 0.6875,1.25 0.6875,3.5 0,0.20312 0,0.42187 0,0.21875 -0.0156,0.4375 z m 1.60937,-4.25 q -0.79687,0 -1.15625,0.79688 -0.35937,0.79687 -0.4375,2.14062 h 2.96875 q 0,-1.35937 -0.28125,-2.14062 -0.28125,-0.79688 -1.09375,-0.79688 z m 7.58768,6.64063 q 0.53125,-1.875 0.98438,-3.75 0.45312,-1.89063 0.85937,-4.01563 h 1.57813 q -0.28125,1.35938 -0.60938,2.6875 -0.3125,1.32813 -0.67187,2.5625 -0.34375,1.21875 -0.6875,2.3125 -0.34375,1.09375 -0.64063,1.98438 -0.35937,1.04687 -0.6875,1.76562 -0.3125,0.71875 -0.70312,1.15625 -0.375,0.4375 -0.82813,0.625 -0.45312,0.20313 -1.0625,0.20313 -0.32812,0 -0.67187,-0.0781 -0.32813,-0.0781 -0.5625,-0.17187 l 0.29687,-1.3125 q 0.48438,0.20312 0.92188,0.20312 0.53125,0 0.85937,-0.39062 0.34375,-0.39063 0.67188,-1.17188 l 0.1875,-0.46875 q -0.35938,-0.96875 -0.73438,-2.15625 -0.35937,-1.1875 -0.70312,-2.46875 -0.34375,-1.28125 -0.65625,-2.625 -0.3125,-1.35937 -0.57813,-2.65625 h 1.70313 q 0.14062,0.875 0.34375,1.92188 0.20312,1.04687 0.4375,2.09375 0.23437,1.04687 0.46875,2.03125 0.25,0.96875 0.48437,1.71875 z m 5.966,-3.54688 q 0,-2.39062 -0.57812,-4.5 -0.57813,-2.10937 -1.625,-3.85937 l 1.28125,-0.70313 q 1.15625,1.8125 1.84375,4.10938 0.6875,2.28125 0.6875,4.95312 0,2.67188 -0.6875,4.96875 -0.6875,2.28125 -1.84375,4.09375 l -1.28125,-0.70312 q 1.04687,-1.75 1.625,-3.85938 0.57812,-2.10937 0.57812,-4.5 z m 13.42377,2.42188 q 0,-1.67188 0.54688,-2.54688 0.5625,-0.875 1.64062,-0.875 1.07813,0 1.625,0.875 0.5625,0.875 0.5625,2.54688 0,1.6875 -0.5625,2.5625 -0.54687,0.875 -1.625,0.875 -1.07812,0 -1.64062,-0.875 -0.54688,-0.875 -0.54688,-2.5625 z m 3.01563,0 q 0,-1.25 -0.21875,-1.75 -0.20313,-0.5 -0.60938,-0.5 -0.40625,0 -0.60937,0.5 -0.20313,0.5 -0.20313,1.75 0,1.25 0.20313,1.76562 0.20312,0.5 0.60937,0.5 0.40625,0 0.60938,-0.5 0.21875,-0.51562 0.21875,-1.76562 z m -0.48438,-9.76563 -5.21875,12.92188 h -1.45312 l 5.20312,-12.92188 z m -8.40625,3.17188 q 0,-1.6875 0.54688,-2.5625 0.5625,-0.875 1.64062,-0.875 1.07813,0 1.625,0.875 0.5625,0.875 0.5625,2.5625 0,1.67187 -0.5625,2.54687 -0.54687,0.875 -1.625,0.875 -1.07812,0 -1.64062,-0.875 -0.54688,-0.875 -0.54688,-2.54687 z m 3.01563,0 q 0,-1.25 -0.21875,-1.75 -0.20313,-0.51563 -0.60938,-0.51563 -0.40625,0 -0.625,0.51563 -0.20312,0.5 -0.20312,1.75 0,1.25 0.20312,1.75 0.21875,0.5 0.625,0.5 0.40625,0 0.60938,-0.5 0.21875,-0.5 0.21875,-1.75 z"
       fill-rule="nonzero"
       id="path15" />
    <path
       fill="#434343"
       d="m 444.5749,301.53168 q 0.6875,-0.20313 1.48438,-0.34375 0.8125,-0.14063 1.48437,-0.14063 0.73438,0 1.32813,0.20313 0.59375,0.1875 1.01562,0.65625 0.42188,0.46875 0.65625,1.26562 0.23438,0.78125 0.23438,1.96875 v 5.90625 h -1.60938 v -5.78125 q 0,-1.45312 -0.375,-2.125 -0.375,-0.67187 -1.40625,-0.67187 -0.53125,0 -1.20312,0.1875 v 8.39062 h -1.60938 z m 15.05481,9.23437 q -0.23438,0.0937 -0.59375,0.1875 -0.34375,0.0781 -0.71875,0.14063 -0.375,0.0625 -0.76563,0.10937 -0.375,0.0469 -0.70312,0.0469 -0.76563,0 -1.40625,-0.1875 -0.625,-0.17188 -1.07813,-0.60938 -0.4375,-0.45312 -0.6875,-1.21875 -0.23437,-0.78125 -0.23437,-1.95312 v -6.03125 h 1.59375 v 5.96875 q 0,1.4375 0.4375,2.03125 0.45312,0.57812 1.34375,0.57812 0.29687,0 0.59375,-0.0156 0.29687,-0.0312 0.60937,-0.125 v -8.4375 h 1.60938 z m 2.89252,-9.23437 q 0.65625,-0.20313 1.42187,-0.34375 0.76563,-0.14063 1.39063,-0.14063 0.65625,0 1.1875,0.17188 0.53125,0.17187 0.95312,0.5625 0.48438,-0.32813 1.03125,-0.53125 0.5625,-0.20313 1.23438,-0.20313 0.67187,0 1.21875,0.20313 0.5625,0.1875 0.95312,0.65625 0.39063,0.46875 0.60938,1.26562 0.21875,0.78125 0.21875,1.96875 v 5.90625 h -1.59375 v -5.78125 q 0,-1.45312 -0.34375,-2.125 -0.32813,-0.67187 -1.26563,-0.67187 -0.35937,0 -0.71875,0.125 -0.35937,0.125 -0.67187,0.35937 0.14062,0.42188 0.21875,0.96875 0.0781,0.54688 0.0781,1.21875 v 5.90625 h -1.60937 v -5.78125 q 0,-1.45312 -0.34375,-2.125 -0.32813,-0.67187 -1.26563,-0.67187 -0.48437,0 -1.09375,0.1875 v 8.39062 h -1.60937 z m 14.58456,3.9375 q 0,2.39062 0.57813,4.5 0.57812,2.10937 1.625,3.85937 l -1.28125,0.70313 q -1.15625,-1.8125 -1.84375,-4.09375 -0.67188,-2.29688 -0.67188,-4.96875 0,-2.67188 0.67188,-4.95313 0.6875,-2.29687 1.84375,-4.10937 l 1.28125,0.70312 q -1.04688,1.75 -1.625,3.85938 -0.57813,2.10937 -0.57813,4.5 z m 5.34827,4.10937 q 0.53125,0.29688 1.15625,0.29688 0.46875,0 0.8125,-0.1875 0.35937,-0.1875 0.60937,-0.60938 0.25,-0.4375 0.375,-1.14062 0.14063,-0.71875 0.14063,-1.76563 0,-2.01562 -0.51563,-2.875 -0.51562,-0.875 -1.625,-0.875 -0.21875,0 -0.46875,0.0312 -0.23437,0.0312 -0.48437,0.10938 z m 0,4.92188 h -1.60938 v -12.98438 q 0.51563,-0.21875 1.17188,-0.35937 0.67187,-0.14063 1.35937,-0.14063 1.03125,0 1.76563,0.35938 0.73437,0.34375 1.1875,1.01562 0.46875,0.65625 0.67187,1.625 0.21875,0.95313 0.21875,2.1875 0,2.46875 -0.79687,3.78125 -0.78125,1.3125 -2.57813,1.3125 -0.42187,0 -0.76562,-0.0937 -0.32813,-0.0781 -0.625,-0.23437 z m 7.27496,-13.04688 q 0.48438,-0.20312 1.01563,-0.3125 0.54687,-0.125 1.1875,-0.125 1.29687,0 2.10937,0.8125 0.82813,0.8125 0.82813,2.51563 v 6.5 q -0.67188,0.1875 -1.375,0.29687 -0.6875,0.10938 -1.35938,0.10938 -0.67187,0 -1.26562,-0.17188 -0.57813,-0.15625 -1.03125,-0.53125 -0.4375,-0.375 -0.70313,-0.9375 -0.25,-0.57812 -0.25,-1.39062 0,-0.76563 0.23438,-1.32813 0.23437,-0.57812 0.64062,-0.95312 0.40625,-0.39063 0.96875,-0.57813 0.5625,-0.20312 1.21875,-0.20312 0.60938,0 1.35938,0.14062 v -0.89062 q 0,-1.07813 -0.42188,-1.5 -0.42187,-0.4375 -1.20312,-0.4375 -0.42188,0 -0.8125,0.0937 -0.375,0.0781 -0.8125,0.25 z m 0.76563,6.73438 q 0,0.85937 0.4375,1.28125 0.45312,0.40625 1.26562,0.40625 0.51563,0 1.10938,-0.14063 v -3.10937 q -0.5625,-0.15625 -1.10938,-0.15625 -0.34375,0 -0.67187,0.0937 -0.3125,0.0781 -0.54688,0.28125 -0.23437,0.1875 -0.35937,0.51562 -0.125,0.32813 -0.125,0.82813 z m 11.4093,-5.48438 q -0.59375,-0.25 -1.34375,-0.25 -0.6875,0 -1.28125,0.23438 v 8.35937 h -1.60938 v -9.35937 q 0.54688,-0.26563 1.23438,-0.4375 0.70312,-0.1875 1.54687,-0.1875 0.45313,0 0.89063,0.0625 0.45312,0.0469 0.84375,0.20312 z m 3.38489,-1.45312 h 2.45312 v 1.39062 h -2.45312 v 5.39063 q 0,1 0.35937,1.40625 0.35938,0.39062 0.98438,0.39062 0.3125,0 0.59375,-0.0937 0.29687,-0.0937 0.5,-0.21875 l 0.3125,1.28125 q -0.76563,0.45313 -1.625,0.45313 -1.375,0 -2.0625,-0.76563 -0.67188,-0.78125 -0.67188,-2.57812 v -9.28125 l 1.60938,-0.28125 z m 6.09802,9.79687 h -1.60938 v -9.79687 h 1.60938 z m -0.8125,-11.53125 q -0.42188,0 -0.73438,-0.28125 -0.29687,-0.29687 -0.29687,-0.78125 0,-0.48437 0.29687,-0.76562 0.3125,-0.29688 0.73438,-0.29688 0.4375,0 0.73437,0.29688 0.3125,0.28125 0.3125,0.76562 0,0.48438 -0.3125,0.78125 -0.29687,0.28125 -0.73437,0.28125 z m 5.21792,1.73438 h 2.45313 v 1.39062 h -2.45313 v 5.39063 q 0,1 0.35938,1.40625 0.35937,0.39062 0.98437,0.39062 0.3125,0 0.59375,-0.0937 0.29688,-0.0937 0.5,-0.21875 l 0.3125,1.28125 q -0.76562,0.45313 -1.625,0.45313 -1.375,0 -2.0625,-0.76563 -0.67187,-0.78125 -0.67187,-2.57812 v -9.28125 l 1.60937,-0.28125 z m 6.09809,9.79687 h -1.60938 v -9.79687 h 1.60938 z m -0.8125,-11.53125 q -0.42188,0 -0.73438,-0.28125 -0.29687,-0.29687 -0.29687,-0.78125 0,-0.48437 0.29687,-0.76562 0.3125,-0.29688 0.73438,-0.29688 0.4375,0 0.73437,0.29688 0.3125,0.28125 0.3125,0.76562 0,0.48438 -0.3125,0.78125 -0.29687,0.28125 -0.73437,0.28125 z m 10.01477,6.64063 q 0,1.15625 -0.21875,2.10937 -0.20313,0.9375 -0.625,1.60938 -0.40625,0.67187 -1.0625,1.04687 -0.64063,0.375 -1.51563,0.375 -0.875,0 -1.53125,-0.375 -0.65625,-0.375 -1.07812,-1.04687 -0.40625,-0.67188 -0.625,-1.60938 -0.20313,-0.95312 -0.20313,-2.10937 0,-1.14063 0.20313,-2.07813 0.21875,-0.95312 0.625,-1.64062 0.42187,-0.6875 1.07812,-1.04688 0.65625,-0.375 1.53125,-0.375 0.875,0 1.51563,0.375 0.65625,0.35938 1.0625,1.04688 0.42187,0.6875 0.625,1.64062 0.21875,0.9375 0.21875,2.07813 z m -1.6875,0 q 0,-0.8125 -0.0937,-1.5 -0.0937,-0.6875 -0.29688,-1.17188 -0.20312,-0.5 -0.54687,-0.76562 -0.32813,-0.26563 -0.79688,-0.26563 -0.48437,0 -0.8125,0.26563 -0.32812,0.26562 -0.54687,0.76562 -0.20313,0.48438 -0.29688,1.17188 -0.0937,0.6875 -0.0937,1.5 0,0.82812 0.0937,1.51562 0.0937,0.67188 0.29688,1.15625 0.21875,0.48438 0.54687,0.76563 0.32813,0.26562 0.8125,0.26562 0.46875,0 0.79688,-0.26562 0.34375,-0.28125 0.54687,-0.76563 0.20313,-0.48437 0.29688,-1.15625 0.0937,-0.6875 0.0937,-1.51562 z m 4.0285,-4.625 q 0.6875,-0.20313 1.48438,-0.34375 0.8125,-0.14063 1.48437,-0.14063 0.73438,0 1.32813,0.20313 0.59375,0.1875 1.01562,0.65625 0.42188,0.46875 0.65625,1.26562 0.23438,0.78125 0.23438,1.96875 v 5.90625 h -1.60938 v -5.78125 q 0,-1.45312 -0.375,-2.125 -0.375,-0.67187 -1.40625,-0.67187 -0.53125,0 -1.20312,0.1875 v 8.39062 h -1.60938 z m 10.35169,8.375 q 0.71875,0 1.07812,-0.39063 0.35938,-0.40625 0.35938,-1.0625 0,-0.40625 -0.15625,-0.6875 -0.14063,-0.29687 -0.39063,-0.51562 -0.23437,-0.23438 -0.5625,-0.40625 -0.3125,-0.1875 -0.625,-0.39063 -0.3125,-0.1875 -0.60937,-0.4375 -0.29688,-0.25 -0.53125,-0.57812 -0.23438,-0.32813 -0.375,-0.73438 -0.14063,-0.42187 -0.14063,-0.98437 0,-1.21875 0.75,-1.95313 0.76563,-0.75 2.04688,-0.75 0.54687,0 1.03125,0.14063 0.48437,0.14062 0.79687,0.29687 l -0.35937,1.29688 q -0.32813,-0.1875 -0.67188,-0.28125 -0.32812,-0.0937 -0.71875,-0.0937 -0.59375,0 -0.95312,0.34375 -0.35938,0.34375 -0.35938,1 0,0.375 0.125,0.64062 0.14063,0.26563 0.34375,0.48438 0.21875,0.21875 0.48438,0.40625 0.28125,0.1875 0.57812,0.34375 0.35938,0.20312 0.70313,0.45312 0.34375,0.25 0.60937,0.57813 0.28125,0.3125 0.4375,0.75 0.17188,0.4375 0.17188,1.0625 0,1.28125 -0.76563,2.07812 -0.75,0.78125 -2.20312,0.78125 -0.73438,0 -1.34375,-0.21875 -0.59375,-0.20312 -0.89063,-0.35937 l 0.32813,-1.32813 q 0.28125,0.14063 0.75,0.32813 0.48437,0.1875 1.0625,0.1875 z m 5.84613,-4.4375 q 0,-2.39063 -0.57813,-4.5 -0.57812,-2.10938 -1.625,-3.85938 l 1.28125,-0.70312 q 1.15625,1.8125 1.84375,4.10937 0.6875,2.28125 0.6875,4.95313 0,2.67187 -0.6875,4.96875 -0.6875,2.28125 -1.84375,4.09375 l -1.28125,-0.70313 q 1.04688,-1.75 1.625,-3.85937 0.57813,-2.10938 0.57813,-4.5 z"
       fill-rule="nonzero"
       id="path17" />
    <path
       fill="#eeeeee"
       d="m 289.9147,193.521 25.25195,-16.83464 25.25199,16.83464 -25.25199,16.83464 z"
       fill-rule="evenodd"
       id="path23" />
    <path
       stroke="#595959"
       stroke-width="1"
       stroke-linejoin="round"
       stroke-linecap="butt"
       d="m 289.9147,193.521 25.25195,-16.83464 25.25199,16.83464 -25.25199,16.83464 z"
       fill-rule="evenodd"
       id="path25" />
    <path
       fill="#000000"
       fill-opacity="0"
       d="m 340.41864,193.521 h 133.5433"
       fill-rule="evenodd"
       id="path27" />
    <path
       stroke="#f3f3f3"
       stroke-width="2"
       stroke-linejoin="round"
       stroke-linecap="butt"
       d="m 340.41864,193.521 h 121.5433"
       fill-rule="evenodd"
       id="path29" />
    <path
       fill="#f3f3f3"
       stroke="#f3f3f3"
       stroke-width="2"
       stroke-linecap="butt"
       d="m 461.96194,196.82446 9.0762,-3.30347 -9.0762,-3.30346 z"
       fill-rule="evenodd"
       id="path31" />
    <path
       fill="#000000"
       fill-opacity="0"
       d="m 499.20865,210.35564 -1.32282,58.14174"
       fill-rule="evenodd"
       id="path33" />
    <path
       stroke="#f3f3f3"
       stroke-width="2"
       stroke-linejoin="round"
       stroke-linecap="butt"
       d="m 499.20865,210.35564 -1.04987,46.14482"
       fill-rule="evenodd"
       id="path35" />
    <path
       fill="#f3f3f3"
       stroke="#f3f3f3"
       stroke-width="2"
       stroke-linecap="butt"
       d="m 494.85617,256.42535 3.09616,9.14899 3.50906,-8.99872 z"
       fill-rule="evenodd"
       id="path37" />
    <path
       fill="#000000"
       fill-opacity="0"
       d="m 524.46063,193.521 h 157.22833 v 74.96063"
       fill-rule="evenodd"
       id="path39" />
    <path
       stroke="#f3f3f3"
       stroke-width="2"
       stroke-linejoin="round"
       stroke-linecap="butt"
       d="m 524.46063,193.521 h 157.22833 v 62.96063"
       fill-rule="evenodd"
       id="path41" />
    <path
       fill="#f3f3f3"
       stroke="#f3f3f3"
       stroke-width="2"
       stroke-linecap="butt"
       d="m 678.3855,256.48163 3.30347,9.0762 3.30346,-9.0762 z"
       fill-rule="evenodd"
       id="path43" />
    <path
       fill="#000000"
       fill-opacity="0"
       d="m 271.44592,274.53122 h 41.32285 v 42.01575 h -41.32285 z"
       fill-rule="evenodd"
       id="path45" />
    <path
       fill="#f3f3f3"
       d="m 284.97754,299.41998 q 0.53125,-1.875 0.98437,-3.75 0.45313,-1.89063 0.85938,-4.01563 h 1.57812 q -0.28125,1.35938 -0.60937,2.6875 -0.3125,1.32813 -0.67188,2.5625 -0.34375,1.21875 -0.6875,2.3125 -0.34375,1.09375 -0.64062,1.98438 -0.35938,1.04687 -0.6875,1.76562 -0.3125,0.71875 -0.70313,1.15625 -0.375,0.4375 -0.82812,0.625 -0.45313,0.20313 -1.0625,0.20313 -0.32813,0 -0.67188,-0.0781 -0.32812,-0.0781 -0.5625,-0.17187 l 0.29688,-1.3125 q 0.48437,0.20312 0.92187,0.20312 0.53125,0 0.85938,-0.39062 0.34375,-0.39063 0.67187,-1.17188 l 0.1875,-0.46875 q -0.35937,-0.96875 -0.73437,-2.15625 -0.35938,-1.1875 -0.70313,-2.46875 -0.34375,-1.28125 -0.65625,-2.625 -0.3125,-1.35937 -0.57812,-2.65625 h 1.70312 q 0.14063,0.875 0.34375,1.92188 0.20313,1.04687 0.4375,2.09375 0.23438,1.04687 0.46875,2.03125 0.25,0.96875 0.48438,1.71875 z m 6.04495,-2.39063 q 0.0156,0.70313 0.125,1.29688 0.10938,0.59375 0.35938,1.03125 0.25,0.4375 0.67187,0.6875 0.42188,0.23437 1.07813,0.23437 0.53125,0 0.98437,-0.15625 0.46875,-0.17187 0.67188,-0.28125 l 0.29687,1.29688 q -0.23437,0.15625 -0.8125,0.35937 -0.5625,0.20313 -1.34375,0.20313 -1.03125,0 -1.73437,-0.375 -0.6875,-0.375 -1.14063,-1.04688 -0.4375,-0.67187 -0.625,-1.60937 -0.17187,-0.9375 -0.17187,-2.04688 0,-2.70312 0.89062,-3.95312 0.89063,-1.25 2.35938,-1.25 1.67187,0 2.35937,1.25 0.6875,1.25 0.6875,3.5 0,0.20312 0,0.42187 0,0.21875 -0.0156,0.4375 z m 1.60938,-4.25 q -0.79688,0 -1.15625,0.79688 -0.35938,0.79687 -0.4375,2.14062 h 2.96875 q 0,-1.35937 -0.28125,-2.14062 -0.28125,-0.79688 -1.09375,-0.79688 z m 6.77475,7.53125 q 0.71875,0 1.07812,-0.39062 0.35938,-0.40625 0.35938,-1.0625 0,-0.40625 -0.15625,-0.6875 -0.14063,-0.29688 -0.39063,-0.51563 -0.23437,-0.23437 -0.5625,-0.40625 -0.3125,-0.1875 -0.625,-0.39062 -0.3125,-0.1875 -0.60937,-0.4375 -0.29688,-0.25 -0.53125,-0.57813 -0.23438,-0.32812 -0.375,-0.73437 -0.14063,-0.42188 -0.14063,-0.98438 0,-1.21875 0.75,-1.95312 0.76563,-0.75 2.04688,-0.75 0.54687,0 1.03125,0.14062 0.48437,0.14063 0.79687,0.29688 l -0.35937,1.29687 q -0.32813,-0.1875 -0.67188,-0.28125 -0.32812,-0.0937 -0.71875,-0.0937 -0.59375,0 -0.95312,0.34375 -0.35938,0.34375 -0.35938,1 0,0.375 0.125,0.64063 0.14063,0.26562 0.34375,0.48437 0.21875,0.21875 0.48438,0.40625 0.28125,0.1875 0.57812,0.34375 0.35938,0.20313 0.70313,0.45313 0.34375,0.25 0.60937,0.57812 0.28125,0.3125 0.4375,0.75 0.17188,0.4375 0.17188,1.0625 0,1.28125 -0.76563,2.07813 -0.75,0.78125 -2.20312,0.78125 -0.73438,0 -1.34375,-0.21875 -0.59375,-0.20313 -0.89063,-0.35938 l 0.32813,-1.32812 q 0.28125,0.14062 0.75,0.32812 0.48437,0.1875 1.0625,0.1875 z"
       fill-rule="nonzero"
       id="path47" />
    <path
       fill="#000000"
       fill-opacity="0"
       d="m 384.5971,193.521 h 41.32284 v 42.01575 H 384.5971 Z"
       fill-rule="evenodd"
       id="path49" />
    <path
       fill="#f3f3f3"
       d="m 397.89658,210.92537 q 0.6875,-0.20313 1.48437,-0.34375 0.8125,-0.14063 1.48438,-0.14063 0.73437,0 1.32812,0.20313 0.59375,0.1875 1.01563,0.65625 0.42187,0.46875 0.65625,1.26562 0.23437,0.78125 0.23437,1.96875 v 5.90625 h -1.60937 v -5.78125 q 0,-1.45312 -0.375,-2.125 -0.375,-0.67187 -1.40625,-0.67187 -0.53125,0 -1.20313,0.1875 v 8.39062 h -1.60937 z m 15.28918,4.625 q 0,1.15625 -0.21875,2.10937 -0.20312,0.9375 -0.625,1.60938 -0.40625,0.67187 -1.0625,1.04687 -0.64062,0.375 -1.51562,0.375 -0.875,0 -1.53125,-0.375 -0.65625,-0.375 -1.07813,-1.04687 -0.40625,-0.67188 -0.625,-1.60938 -0.20312,-0.95312 -0.20312,-2.10937 0,-1.14063 0.20312,-2.07813 0.21875,-0.95312 0.625,-1.64062 0.42188,-0.6875 1.07813,-1.04688 0.65625,-0.375 1.53125,-0.375 0.875,0 1.51562,0.375 0.65625,0.35938 1.0625,1.04688 0.42188,0.6875 0.625,1.64062 0.21875,0.9375 0.21875,2.07813 z m -1.6875,0 q 0,-0.8125 -0.0937,-1.5 -0.0937,-0.6875 -0.29687,-1.17188 -0.20313,-0.5 -0.54688,-0.76562 -0.32812,-0.26563 -0.79687,-0.26563 -0.48438,0 -0.8125,0.26563 -0.32813,0.26562 -0.54688,0.76562 -0.20312,0.48438 -0.29687,1.17188 -0.0937,0.6875 -0.0937,1.5 0,0.82812 0.0937,1.51562 0.0937,0.67188 0.29687,1.15625 0.21875,0.48438 0.54688,0.76563 0.32812,0.26562 0.8125,0.26562 0.46875,0 0.79687,-0.26562 0.34375,-0.28125 0.54688,-0.76563 0.20312,-0.48437 0.29687,-1.15625 0.0937,-0.6875 0.0937,-1.51562 z"
       fill-rule="nonzero"
       id="path51" />
    <path
       fill="#000000"
       fill-opacity="0"
       d="m 457.4874,212.7567 h 41.32284 v 42.01575 H 457.4874 Z"
       fill-rule="evenodd"
       id="path53" />
    <path
       fill="#f3f3f3"
       d="m 471.019,237.64545 q 0.53125,-1.875 0.98437,-3.75 0.45313,-1.89063 0.85938,-4.01563 h 1.57812 q -0.28125,1.35938 -0.60937,2.6875 -0.3125,1.32813 -0.67188,2.5625 -0.34375,1.21875 -0.6875,2.3125 -0.34375,1.09375 -0.64062,1.98438 -0.35938,1.04687 -0.6875,1.76562 -0.3125,0.71875 -0.70313,1.15625 -0.375,0.4375 -0.82812,0.625 -0.45313,0.20313 -1.0625,0.20313 -0.32813,0 -0.67188,-0.0781 -0.32812,-0.0781 -0.5625,-0.17187 l 0.29688,-1.3125 q 0.48437,0.20312 0.92187,0.20312 0.53125,0 0.85938,-0.39062 0.34375,-0.39063 0.67187,-1.17188 l 0.1875,-0.46875 q -0.35937,-0.96875 -0.73437,-2.15625 -0.35938,-1.1875 -0.70313,-2.46875 -0.34375,-1.28125 -0.65625,-2.625 -0.3125,-1.35937 -0.57812,-2.65625 h 1.70312 q 0.14063,0.875 0.34375,1.92188 0.20313,1.04687 0.4375,2.09375 0.23438,1.04687 0.46875,2.03125 0.25,0.96875 0.48438,1.71875 z m 6.04495,-2.39063 q 0.0156,0.70313 0.125,1.29688 0.10938,0.59375 0.35938,1.03125 0.25,0.4375 0.67187,0.6875 0.42188,0.23437 1.07813,0.23437 0.53125,0 0.98437,-0.15625 0.46875,-0.17187 0.67188,-0.28125 l 0.29687,1.29688 q -0.23437,0.15625 -0.8125,0.35937 -0.5625,0.20313 -1.34375,0.20313 -1.03125,0 -1.73437,-0.375 -0.6875,-0.375 -1.14063,-1.04688 -0.4375,-0.67187 -0.625,-1.60937 -0.17187,-0.9375 -0.17187,-2.04688 0,-2.70312 0.89062,-3.95312 0.89063,-1.25 2.35938,-1.25 1.67187,0 2.35937,1.25 0.6875,1.25 0.6875,3.5 0,0.20312 0,0.42187 0,0.21875 -0.0156,0.4375 z m 1.60938,-4.25 q -0.79688,0 -1.15625,0.79688 -0.35938,0.79687 -0.4375,2.14062 h 2.96875 q 0,-1.35937 -0.28125,-2.14062 -0.28125,-0.79688 -1.09375,-0.79688 z m 6.77475,7.53125 q 0.71875,0 1.07812,-0.39062 0.35938,-0.40625 0.35938,-1.0625 0,-0.40625 -0.15625,-0.6875 -0.14063,-0.29688 -0.39063,-0.51563 -0.23437,-0.23437 -0.5625,-0.40625 -0.3125,-0.1875 -0.625,-0.39062 -0.3125,-0.1875 -0.60937,-0.4375 -0.29688,-0.25 -0.53125,-0.57813 -0.23438,-0.32812 -0.375,-0.73437 -0.14063,-0.42188 -0.14063,-0.98438 0,-1.21875 0.75,-1.95312 0.76563,-0.75 2.04688,-0.75 0.54687,0 1.03125,0.14062 0.48437,0.14063 0.79687,0.29688 l -0.35937,1.29687 q -0.32813,-0.1875 -0.67188,-0.28125 -0.32812,-0.0937 -0.71875,-0.0937 -0.59375,0 -0.95312,0.34375 -0.35938,0.34375 -0.35938,1 0,0.375 0.125,0.64063 0.14063,0.26562 0.34375,0.48437 0.21875,0.21875 0.48438,0.40625 0.28125,0.1875 0.57812,0.34375 0.35938,0.20313 0.70313,0.45313 0.34375,0.25 0.60937,0.57812 0.28125,0.3125 0.4375,0.75 0.17188,0.4375 0.17188,1.0625 0,1.28125 -0.76563,2.07813 -0.75,0.78125 -2.20312,0.78125 -0.73438,0 -1.34375,-0.21875 -0.59375,-0.20313 -0.89063,-0.35938 l 0.32813,-1.32812 q 0.28125,0.14062 0.75,0.32812 0.48437,0.1875 1.0625,0.1875 z"
       fill-rule="nonzero"
       id="path55" />
    <path
       fill="#000000"
       fill-opacity="0"
       d="m 455.88583,135.0328 h 83.99997 v 42.01575 h -83.99997 z"
       fill-rule="evenodd"
       id="path57" />
    <path
       fill="#f3f3f3"
       d="m 470.82138,147.34343 h 3.375 v 1.26562 h -1.84375 v 15.53125 h 1.84375 v 1.26563 h -3.375 z m 11.00803,4.8125 q -0.78125,1.34375 -1.5,2.45312 -0.71875,1.10938 -1.42188,2.07813 0.4375,0.53125 0.90625,1.1875 0.46875,0.64062 0.89063,1.34375 0.4375,0.70312 0.8125,1.40625 0.375,0.6875 0.625,1.32812 h -1.75 q -0.28125,-0.60937 -0.65625,-1.28125 -0.35938,-0.67187 -0.78125,-1.3125 -0.40625,-0.65625 -0.8125,-1.23437 -0.40625,-0.57813 -0.76563,-0.96875 v 4.79687 h -1.60937 v -14.20312 l 1.60937,-0.28125 v 8.90625 q 0.32813,-0.45313 0.70313,-1 0.39062,-0.5625 0.76562,-1.125 0.375,-0.57813 0.70313,-1.10938 0.34375,-0.54687 0.5625,-0.98437 z m 2.73309,5.375 q 0.0156,0.70312 0.125,1.29687 0.10937,0.59375 0.35937,1.03125 0.25,0.4375 0.67188,0.6875 0.42187,0.23438 1.07812,0.23438 0.53125,0 0.98438,-0.15625 0.46875,-0.17188 0.67187,-0.28125 l 0.29688,1.29687 q -0.23438,0.15625 -0.8125,0.35938 -0.5625,0.20312 -1.34375,0.20312 -1.03125,0 -1.73438,-0.375 -0.6875,-0.375 -1.14062,-1.04687 -0.4375,-0.67188 -0.625,-1.60938 -0.17188,-0.9375 -0.17188,-2.04687 0,-2.70313 0.89063,-3.95313 0.89062,-1.25 2.35937,-1.25 1.67188,0 2.35938,1.25 0.6875,1.25 0.6875,3.5 0,0.20313 0,0.42188 0,0.21875 -0.0156,0.4375 z m 1.60937,-4.25 q -0.79687,0 -1.15625,0.79687 -0.35937,0.79688 -0.4375,2.14063 h 2.96875 q 0,-1.35938 -0.28125,-2.14063 -0.28125,-0.79687 -1.09375,-0.79687 z m 7.58768,6.64062 q 0.53125,-1.875 0.98438,-3.75 0.45312,-1.89062 0.85937,-4.01562 h 1.57813 q -0.28125,1.35937 -0.60938,2.6875 -0.3125,1.32812 -0.67187,2.5625 -0.34375,1.21875 -0.6875,2.3125 -0.34375,1.09375 -0.64063,1.98437 -0.35937,1.04688 -0.6875,1.76563 -0.3125,0.71875 -0.70312,1.15625 -0.375,0.4375 -0.82813,0.625 -0.45312,0.20312 -1.0625,0.20312 -0.32812,0 -0.67187,-0.0781 -0.32813,-0.0781 -0.5625,-0.17188 l 0.29687,-1.3125 q 0.48438,0.20313 0.92188,0.20313 0.53125,0 0.85937,-0.39063 0.34375,-0.39062 0.67188,-1.17187 l 0.1875,-0.46875 q -0.35938,-0.96875 -0.73438,-2.15625 -0.35937,-1.1875 -0.70312,-2.46875 -0.34375,-1.28125 -0.65625,-2.625 -0.3125,-1.35938 -0.57813,-2.65625 h 1.70313 q 0.14062,0.875 0.34375,1.92187 0.20312,1.04688 0.4375,2.09375 0.23437,1.04688 0.46875,2.03125 0.25,0.96875 0.48437,1.71875 z m 10.1196,0.89063 q 0.71875,0 1.07812,-0.39063 0.35938,-0.40625 0.35938,-1.0625 0,-0.40625 -0.15625,-0.6875 -0.14063,-0.29687 -0.39063,-0.51562 -0.23437,-0.23438 -0.5625,-0.40625 -0.3125,-0.1875 -0.625,-0.39063 -0.3125,-0.1875 -0.60937,-0.4375 -0.29688,-0.25 -0.53125,-0.57812 -0.23438,-0.32813 -0.375,-0.73438 -0.14063,-0.42187 -0.14063,-0.98437 0,-1.21875 0.75,-1.95313 0.76563,-0.75 2.04688,-0.75 0.54687,0 1.03125,0.14063 0.48437,0.14062 0.79687,0.29687 l -0.35937,1.29688 q -0.32813,-0.1875 -0.67188,-0.28125 -0.32812,-0.0937 -0.71875,-0.0937 -0.59375,0 -0.95312,0.34375 -0.35938,0.34375 -0.35938,1 0,0.375 0.125,0.64062 0.14063,0.26563 0.34375,0.48438 0.21875,0.21875 0.48438,0.40625 0.28125,0.1875 0.57812,0.34375 0.35938,0.20312 0.70313,0.45312 0.34375,0.25 0.60937,0.57813 0.28125,0.3125 0.4375,0.75 0.17188,0.4375 0.17188,1.0625 0,1.28125 -0.76563,2.07812 -0.75,0.78125 -2.20312,0.78125 -0.73438,0 -1.34375,-0.21875 -0.59375,-0.20312 -0.89063,-0.35937 l 0.32813,-1.32813 q 0.28125,0.14063 0.75,0.32813 0.48437,0.1875 1.0625,0.1875 z m 6.11179,-3.28125 q 0.0156,0.70312 0.125,1.29687 0.10937,0.59375 0.35937,1.03125 0.25,0.4375 0.67188,0.6875 0.42187,0.23438 1.07809,0.23438 0.53125,0 0.98437,-0.15625 0.46875,-0.17188 0.67188,-0.28125 l 0.29687,1.29687 q -0.23437,0.15625 -0.8125,0.35938 -0.5625,0.20312 -1.34375,0.20312 -1.03121,0 -1.73434,-0.375 -0.6875,-0.375 -1.14062,-1.04687 -0.4375,-0.67188 -0.625,-1.60938 -0.17188,-0.9375 -0.17188,-2.04687 0,-2.70313 0.89063,-3.95313 0.89062,-1.25 2.35937,-1.25 1.67184,0 2.35934,1.25 0.6875,1.25 0.6875,3.5 0,0.20313 0,0.42188 0,0.21875 -0.0156,0.4375 z m 1.60937,-4.25 q -0.79687,0 -1.15625,0.79687 -0.35937,0.79688 -0.4375,2.14063 h 2.96872 q 0,-1.35938 -0.28125,-2.14063 -0.28125,-0.79687 -1.09372,-0.79687 z m 6.91538,-1.125 h 2.45312 v 1.39062 h -2.45312 v 5.39063 q 0,1 0.35937,1.40625 0.35938,0.39062 0.98438,0.39062 0.3125,0 0.59375,-0.0937 0.29687,-0.0937 0.5,-0.21875 l 0.3125,1.28125 q -0.76563,0.45313 -1.625,0.45313 -1.375,0 -2.0625,-0.76563 -0.67188,-0.78125 -0.67188,-2.57812 v -9.28125 l 1.60938,-0.28125 z m 6.42657,13.25 h -3.375 v -1.26563 h 1.84375 v -15.53125 h -1.84375 v -1.26562 h 3.375 z"
       fill-rule="nonzero"
       id="path59" />
    <path
       fill="#eeeeee"
       d="m 473.9567,193.521 25.25195,-16.83464 25.25199,16.83464 -25.25199,16.83464 z"
       fill-rule="evenodd"
       id="path61" />
    <path
       stroke="#595959"
       stroke-width="1"
       stroke-linejoin="round"
       stroke-linecap="butt"
       d="m 473.9567,193.521 25.25195,-16.83464 25.25199,16.83464 -25.25199,16.83464 z"
       fill-rule="evenodd"
       id="path63" />
    <path
       fill="#000000"
       fill-opacity="0"
       d="M 221.5853,134.49475 H 408.19947 V 176.5105 H 221.5853 Z"
       fill-rule="evenodd"
       id="path65" />
    <path
       fill="#f3f3f3"
       d="m 243.6032,146.80537 h 3.375 v 1.26562 h -1.84375 v 15.53125 h 1.84375 v 1.26563 h -3.375 z m 6.53928,13.14062 q 0.53125,0.29688 1.15625,0.29688 0.46875,0 0.8125,-0.1875 0.35937,-0.1875 0.60937,-0.60938 0.25,-0.4375 0.375,-1.14062 0.14063,-0.71875 0.14063,-1.76563 0,-2.01562 -0.51563,-2.875 -0.51562,-0.875 -1.625,-0.875 -0.21875,0 -0.46875,0.0312 -0.23437,0.0312 -0.48437,0.10938 z m 0,4.92188 h -1.60938 v -12.98438 q 0.51563,-0.21875 1.17188,-0.35937 0.67187,-0.14063 1.35937,-0.14063 1.03125,0 1.76563,0.35938 0.73437,0.34375 1.1875,1.01562 0.46875,0.65625 0.67187,1.625 0.21875,0.95313 0.21875,2.1875 0,2.46875 -0.79687,3.78125 -0.78125,1.3125 -2.57813,1.3125 -0.42187,0 -0.76562,-0.0937 -0.32813,-0.0781 -0.625,-0.23437 z m 7.27497,-13.04688 q 0.48438,-0.20312 1.01563,-0.3125 0.54687,-0.125 1.1875,-0.125 1.29687,0 2.10937,0.8125 0.82813,0.8125 0.82813,2.51563 v 6.5 q -0.67188,0.1875 -1.375,0.29687 -0.6875,0.10938 -1.35938,0.10938 -0.67187,0 -1.26562,-0.17188 -0.57813,-0.15625 -1.03125,-0.53125 -0.4375,-0.375 -0.70313,-0.9375 -0.25,-0.57812 -0.25,-1.39062 0,-0.76563 0.23438,-1.32813 0.23437,-0.57812 0.64062,-0.95312 0.40625,-0.39063 0.96875,-0.57813 0.5625,-0.20312 1.21875,-0.20312 0.60938,0 1.35938,0.14062 v -0.89062 q 0,-1.07813 -0.42188,-1.5 -0.42187,-0.4375 -1.20312,-0.4375 -0.42188,0 -0.8125,0.0937 -0.375,0.0781 -0.8125,0.25 z m 0.76563,6.73438 q 0,0.85937 0.4375,1.28125 0.45312,0.40625 1.26562,0.40625 0.51563,0 1.10938,-0.14063 v -3.10937 q -0.5625,-0.15625 -1.10938,-0.15625 -0.34375,0 -0.67187,0.0937 -0.3125,0.0781 -0.54688,0.28125 -0.23437,0.1875 -0.35937,0.51562 -0.125,0.32813 -0.125,0.82813 z m 11.4093,-5.48438 q -0.59375,-0.25 -1.34375,-0.25 -0.6875,0 -1.28125,0.23438 v 8.35937 h -1.60937 v -9.35937 q 0.54687,-0.26563 1.23437,-0.4375 0.70313,-0.1875 1.54688,-0.1875 0.45312,0 0.89062,0.0625 0.45313,0.0469 0.84375,0.20312 z m 3.38489,-1.45312 h 2.45312 v 1.39062 h -2.45312 v 5.39063 q 0,1 0.35937,1.40625 0.35938,0.39062 0.98438,0.39062 0.3125,0 0.59375,-0.0937 0.29687,-0.0937 0.5,-0.21875 l 0.3125,1.28125 q -0.76563,0.45313 -1.625,0.45313 -1.375,0 -2.0625,-0.76563 -0.67188,-0.78125 -0.67188,-2.57812 v -9.28125 l 1.60938,-0.28125 z m 6.09802,9.79687 h -1.60937 v -9.79687 h 1.60937 z m -0.8125,-11.53125 q -0.42187,0 -0.73437,-0.28125 -0.29688,-0.29687 -0.29688,-0.78125 0,-0.48437 0.29688,-0.76562 0.3125,-0.29688 0.73437,-0.29688 0.4375,0 0.73438,0.29688 0.3125,0.28125 0.3125,0.76562 0,0.48438 -0.3125,0.78125 -0.29688,0.28125 -0.73438,0.28125 z m 5.21796,1.73438 h 2.45312 v 1.39062 h -2.45312 v 5.39063 q 0,1 0.35937,1.40625 0.35938,0.39062 0.98438,0.39062 0.3125,0 0.59375,-0.0937 0.29687,-0.0937 0.5,-0.21875 l 0.3125,1.28125 q -0.76563,0.45313 -1.625,0.45313 -1.375,0 -2.0625,-0.76563 -0.67188,-0.78125 -0.67188,-2.57812 v -9.28125 l 1.60938,-0.28125 z m 6.09802,9.79687 h -1.60937 v -9.79687 h 1.60937 z m -0.8125,-11.53125 q -0.42187,0 -0.73437,-0.28125 -0.29688,-0.29687 -0.29688,-0.78125 0,-0.48437 0.29688,-0.76562 0.3125,-0.29688 0.73437,-0.29688 0.4375,0 0.73438,0.29688 0.3125,0.28125 0.3125,0.76562 0,0.48438 -0.3125,0.78125 -0.29688,0.28125 -0.73438,0.28125 z m 10.01483,6.64063 q 0,1.15625 -0.21875,2.10937 -0.20312,0.9375 -0.625,1.60938 -0.40625,0.67187 -1.0625,1.04687 -0.64062,0.375 -1.51562,0.375 -0.875,0 -1.53125,-0.375 -0.65625,-0.375 -1.07813,-1.04687 -0.40625,-0.67188 -0.625,-1.60938 -0.20312,-0.95312 -0.20312,-2.10937 0,-1.14063 0.20312,-2.07813 0.21875,-0.95312 0.625,-1.64062 0.42188,-0.6875 1.07813,-1.04688 0.65625,-0.375 1.53125,-0.375 0.875,0 1.51562,0.375 0.65625,0.35938 1.0625,1.04688 0.42188,0.6875 0.625,1.64062 0.21875,0.9375 0.21875,2.07813 z m -1.6875,0 q 0,-0.8125 -0.0937,-1.5 -0.0937,-0.6875 -0.29687,-1.17188 -0.20313,-0.5 -0.54688,-0.76562 -0.32812,-0.26563 -0.79687,-0.26563 -0.48438,0 -0.8125,0.26563 -0.32813,0.26562 -0.54688,0.76562 -0.20312,0.48438 -0.29687,1.17188 -0.0937,0.6875 -0.0937,1.5 0,0.82812 0.0937,1.51562 0.0937,0.67188 0.29687,1.15625 0.21875,0.48438 0.54688,0.76563 0.32812,0.26562 0.8125,0.26562 0.46875,0 0.79687,-0.26562 0.34375,-0.28125 0.54688,-0.76563 0.20312,-0.48437 0.29687,-1.15625 0.0937,-0.6875 0.0937,-1.51562 z m 4.02848,-4.625 q 0.6875,-0.20313 1.48437,-0.34375 0.8125,-0.14063 1.48438,-0.14063 0.73437,0 1.32812,0.20313 0.59375,0.1875 1.01563,0.65625 0.42187,0.46875 0.65625,1.26562 0.23437,0.78125 0.23437,1.96875 v 5.90625 h -1.60937 v -5.78125 q 0,-1.45312 -0.375,-2.125 -0.375,-0.67187 -1.40625,-0.67187 -0.53125,0 -1.20313,0.1875 v 8.39062 h -1.60937 z m 13.98965,8.375 q 0.71875,0 1.07813,-0.39063 0.35937,-0.40625 0.35937,-1.0625 0,-0.40625 -0.15625,-0.6875 -0.14062,-0.29687 -0.39062,-0.51562 -0.23438,-0.23438 -0.5625,-0.40625 -0.3125,-0.1875 -0.625,-0.39063 -0.3125,-0.1875 -0.60938,-0.4375 -0.29687,-0.25 -0.53125,-0.57812 -0.23437,-0.32813 -0.375,-0.73438 -0.14062,-0.42187 -0.14062,-0.98437 0,-1.21875 0.75,-1.95313 0.76562,-0.75 2.04687,-0.75 0.54688,0 1.03125,0.14063 0.48438,0.14062 0.79688,0.29687 l -0.35938,1.29688 q -0.32812,-0.1875 -0.67187,-0.28125 -0.32813,-0.0937 -0.71875,-0.0937 -0.59375,0 -0.95313,0.34375 -0.35937,0.34375 -0.35937,1 0,0.375 0.125,0.64062 0.14062,0.26563 0.34375,0.48438 0.21875,0.21875 0.48437,0.40625 0.28125,0.1875 0.57813,0.34375 0.35937,0.20312 0.70312,0.45312 0.34375,0.25 0.60938,0.57813 0.28125,0.3125 0.4375,0.75 0.17187,0.4375 0.17187,1.0625 0,1.28125 -0.76562,2.07812 -0.75,0.78125 -2.20313,0.78125 -0.73437,0 -1.34375,-0.21875 -0.59375,-0.20312 -0.89062,-0.35937 l 0.32812,-1.32813 q 0.28125,0.14063 0.75,0.32813 0.48438,0.1875 1.0625,0.1875 z m 6.11179,-3.28125 q 0.0156,0.70312 0.125,1.29687 0.10937,0.59375 0.35937,1.03125 0.25,0.4375 0.67188,0.6875 0.42187,0.23438 1.07812,0.23438 0.53125,0 0.98438,-0.15625 0.46875,-0.17188 0.67187,-0.28125 l 0.29688,1.29687 q -0.23438,0.15625 -0.8125,0.35938 -0.5625,0.20312 -1.34375,0.20312 -1.03125,0 -1.73438,-0.375 -0.6875,-0.375 -1.14062,-1.04687 -0.4375,-0.67188 -0.625,-1.60938 -0.17188,-0.9375 -0.17188,-2.04687 0,-2.70313 0.89063,-3.95313 0.89062,-1.25 2.35937,-1.25 1.67188,0 2.35938,1.25 0.6875,1.25 0.6875,3.5 0,0.20313 0,0.42188 0,0.21875 -0.0156,0.4375 z m 1.60937,-4.25 q -0.79687,0 -1.15625,0.79687 -0.35937,0.79688 -0.4375,2.14063 h 2.96875 q 0,-1.35938 -0.28125,-2.14063 -0.28125,-0.79687 -1.09375,-0.79687 z m 6.91538,-1.125 h 2.45312 v 1.39062 h -2.45312 v 5.39063 q 0,1 0.35937,1.40625 0.35938,0.39062 0.98438,0.39062 0.3125,0 0.59375,-0.0937 0.29687,-0.0937 0.5,-0.21875 l 0.3125,1.28125 q -0.76563,0.45313 -1.625,0.45313 -1.375,0 -2.0625,-0.76563 -0.67188,-0.78125 -0.67188,-2.57812 v -9.28125 l 1.60938,-0.28125 z m 15.68911,3.21875 q -0.0937,1.17187 -0.35937,2.17187 -0.26563,0.98438 -0.67188,1.79688 0.42188,0.625 0.78125,1.3125 0.35938,0.6875 0.59375,1.29687 h -1.60937 q -0.25,-0.59375 -0.64063,-1.3125 -0.59375,0.71875 -1.32812,1.10938 -0.71875,0.375 -1.46875,0.375 -0.9375,0 -1.60938,-0.29688 -0.65625,-0.29687 -1.07812,-0.76562 -0.40625,-0.48438 -0.60938,-1.07813 -0.1875,-0.60937 -0.1875,-1.1875 0,-0.71875 0.17188,-1.3125 0.17187,-0.59375 0.45312,-1.04687 0.29688,-0.46875 0.67188,-0.85938 0.39062,-0.39062 0.82812,-0.73437 -0.48437,-0.70313 -0.85937,-1.5 -0.35938,-0.79688 -0.35938,-1.71875 0,-1.3125 0.71875,-2.10938 0.73438,-0.79687 1.96875,-0.79687 0.67188,0 1.15625,0.21875 0.48438,0.21875 0.78125,0.59375 0.3125,0.375 0.45313,0.85937 0.14062,0.48438 0.14062,1.01563 0,0.64062 -0.17187,1.15625 -0.17188,0.51562 -0.46875,0.95312 -0.28125,0.42188 -0.67188,0.78125 -0.375,0.34375 -0.76562,0.65625 l 2.21875,3.14063 q 0.20312,-0.59375 0.34375,-1.3125 0.15625,-0.73438 0.23437,-1.59375 z m -4.65625,5.39062 q 0.54688,0 1.0625,-0.3125 0.51563,-0.3125 0.9375,-0.92187 l -2.64062,-3.64063 q -0.5625,0.5 -0.92188,1.15625 -0.35937,0.65625 -0.35937,1.625 0,0.89063 0.48437,1.5 0.5,0.59375 1.4375,0.59375 z m -1.17187,-9.17187 q 0,0.64062 0.26562,1.1875 0.28125,0.54687 0.67188,1.10937 0.57812,-0.48437 0.96875,-1.0625 0.40625,-0.57812 0.40625,-1.42187 0,-0.70313 -0.3125,-1.04688 -0.29688,-0.35937 -0.79688,-0.35937 -0.60937,0 -0.90625,0.42187 -0.29687,0.40625 -0.29687,1.17188 z m 13.7182,8.46875 q 0.21875,-0.73438 0.46875,-1.73438 0.25,-1.01562 0.48437,-2.09375 0.25,-1.07812 0.46875,-2.14062 0.21875,-1.0625 0.35938,-1.9375 h 1.60937 q -0.23437,1.23437 -0.5625,2.59375 -0.32812,1.35937 -0.67187,2.6875 -0.34375,1.3125 -0.70313,2.48437 -0.35937,1.17188 -0.65625,2.03125 h -1.65625 q -0.29687,-0.85937 -0.65625,-2.03125 -0.35937,-1.17187 -0.70312,-2.48437 -0.34375,-1.32813 -0.67188,-2.6875 -0.32812,-1.35938 -0.5625,-2.59375 h 1.70313 q 0.14062,0.875 0.35937,1.9375 0.21875,1.0625 0.4375,2.14062 0.23438,1.07813 0.46875,2.09375 0.25,1 0.48438,1.73438 z m 5.11353,-7.70313 q 0.48437,-0.20312 1.01562,-0.3125 0.54688,-0.125 1.1875,-0.125 1.29688,0 2.10938,0.8125 0.82812,0.8125 0.82812,2.51563 v 6.5 q -0.67187,0.1875 -1.375,0.29687 -0.6875,0.10938 -1.35937,0.10938 -0.67188,0 -1.26563,-0.17188 -0.57812,-0.15625 -1.03125,-0.53125 -0.4375,-0.375 -0.70312,-0.9375 -0.25,-0.57812 -0.25,-1.39062 0,-0.76563 0.23437,-1.32813 0.23438,-0.57812 0.64063,-0.95312 0.40625,-0.39063 0.96875,-0.57813 0.5625,-0.20312 1.21875,-0.20312 0.60937,0 1.35937,0.14062 v -0.89062 q 0,-1.07813 -0.42187,-1.5 -0.42188,-0.4375 -1.20313,-0.4375 -0.42187,0 -0.8125,0.0937 -0.375,0.0781 -0.8125,0.25 z m 0.76562,6.73438 q 0,0.85937 0.4375,1.28125 0.45313,0.40625 1.26563,0.40625 0.51562,0 1.10937,-0.14063 v -3.10937 q -0.5625,-0.15625 -1.10937,-0.15625 -0.34375,0 -0.67188,0.0937 -0.3125,0.0781 -0.54687,0.28125 -0.23438,0.1875 -0.35938,0.51562 -0.125,0.32813 -0.125,0.82813 z m 9.72183,3.04687 q -1.39062,-0.0312 -1.98437,-0.67187 -0.59375,-0.65625 -0.59375,-2.04688 v -11.67187 l 1.59375,-0.28125 v 11.98437 q 0,0.65625 0.26562,0.95313 0.26563,0.28125 0.92188,0.39062 z m 3.59595,-0.1875 h -1.60938 v -9.79687 h 1.60938 z m -0.8125,-11.53125 q -0.42188,0 -0.73438,-0.28125 -0.29687,-0.29687 -0.29687,-0.78125 0,-0.48437 0.29687,-0.76562 0.3125,-0.29688 0.73438,-0.29688 0.4375,0 0.73437,0.29688 0.3125,0.28125 0.3125,0.76562 0,0.48438 -0.3125,0.78125 -0.29687,0.28125 -0.73437,0.28125 z m 7.93671,3.20313 q -0.54688,-0.29688 -1.15625,-0.29688 -0.46875,0 -0.82813,0.1875 -0.34375,0.1875 -0.60937,0.625 -0.25,0.42188 -0.375,1.14063 -0.125,0.70312 -0.125,1.75 0,2.01562 0.53125,2.89062 0.53125,0.85938 1.60937,0.85938 0.20313,0 0.4375,-0.0312 0.25,-0.0312 0.51563,-0.10938 z m 0,-5.875 1.60937,-0.28125 v 14.21875 q -0.53125,0.23437 -1.20312,0.375 -0.67188,0.14062 -1.35938,0.14062 -2.01562,0 -2.92187,-1.28125 -0.90625,-1.29687 -0.90625,-3.89062 0,-1.17188 0.1875,-2.10938 0.20312,-0.95312 0.625,-1.60937 0.42187,-0.67188 1.07812,-1.03125 0.65625,-0.35938 1.54688,-0.35938 0.42187,0 0.73437,0.0781 0.3125,0.0781 0.60938,0.23437 z m 6.52496,17.65625 h -3.375 v -1.26563 h 1.84375 v -15.53125 h -1.84375 v -1.26562 h 3.375 z"
       fill-rule="nonzero"
       id="path67" />
    <path
       fill="#eeeeee"
       d="m 483.08398,390.7021 v 0 c 0,-8.17554 6.62759,-14.80313 14.80316,-14.80313 v 0 c 3.92603,0 7.69129,1.5596 10.46741,4.33572 2.77612,2.77616 4.33575,6.54138 4.33575,10.46741 v 0 c 0,8.17557 -6.62762,14.80316 -14.80316,14.80316 v 0 c -8.17557,0 -14.80316,-6.62759 -14.80316,-14.80316 z"
       fill-rule="evenodd"
       id="path69" />
    <path
       stroke="#595959"
       stroke-width="1"
       stroke-linejoin="round"
       stroke-linecap="butt"
       d="m 483.08398,390.7021 v 0 c 0,-8.17554 6.62759,-14.80313 14.80316,-14.80313 v 0 c 3.92603,0 7.69129,1.5596 10.46741,4.33572 2.77612,2.77616 4.33575,6.54138 4.33575,10.46741 v 0 c 0,8.17557 -6.62762,14.80316 -14.80316,14.80316 v 0 c -8.17557,0 -14.80316,-6.62759 -14.80316,-14.80316 z"
       fill-rule="evenodd"
       id="path71" />
    <path
       fill="#000000"
       fill-opacity="0"
       d="M 315.16666,210.35564 V 390.70209 H 483.07218"
       fill-rule="evenodd"
       id="path73" />
    <path
       stroke="#f3f3f3"
       stroke-width="2"
       stroke-linejoin="round"
       stroke-linecap="butt"
       d="M 315.16666,210.35564 V 390.70209 H 471.07218"
       fill-rule="evenodd"
       id="path75" />
    <path
       fill="#f3f3f3"
       stroke="#f3f3f3"
       stroke-width="2"
       stroke-linecap="butt"
       d="m 471.07217,394.00555 9.0762,-3.30347 -9.0762,-3.30346 z"
       fill-rule="evenodd"
       id="path77" />
    <path
       fill="#eeeeee"
       d="m 620.2021,276.69833 v 0 c 0,-4.53723 3.67816,-8.21539 8.21539,-8.21539 h 106.56134 c 2.1789,0 4.2685,0.86554 5.80921,2.40622 1.54065,1.54068 2.40619,3.63031 2.40619,5.80917 v 32.86057 c 0,4.53723 -3.67817,8.21539 -8.2154,8.21539 H 628.41749 v 0 c -4.53723,0 -8.21539,-3.67816 -8.21539,-8.21539 z"
       fill-rule="evenodd"
       id="path79" />
    <path
       stroke="#595959"
       stroke-width="1"
       stroke-linejoin="round"
       stroke-linecap="butt"
       d="m 620.2021,276.69833 v 0 c 0,-4.53723 3.67816,-8.21539 8.21539,-8.21539 h 106.56134 c 2.1789,0 4.2685,0.86554 5.80921,2.40622 1.54065,1.54068 2.40619,3.63031 2.40619,5.80917 v 32.86057 c 0,4.53723 -3.67817,8.21539 -8.2154,8.21539 H 628.41749 v 0 c -4.53723,0 -8.21539,-3.67816 -8.21539,-8.21539 z"
       fill-rule="evenodd"
       id="path81" />
    <path
       fill="#434343"
       d="m 638.79517,291.70486 q -0.59375,-0.25 -1.34375,-0.25 -0.6875,0 -1.28125,0.23437 v 8.35938 h -1.60938 v -9.35938 q 0.54688,-0.26562 1.23438,-0.4375 0.70312,-0.1875 1.54687,-0.1875 0.45313,0 0.89063,0.0625 0.45312,0.0469 0.84375,0.20313 z m 7.99512,3.45312 q 0,1.15625 -0.21875,2.10938 -0.20313,0.9375 -0.625,1.60937 -0.40625,0.67188 -1.0625,1.04688 -0.64063,0.375 -1.51563,0.375 -0.875,0 -1.53125,-0.375 -0.65625,-0.375 -1.07812,-1.04688 -0.40625,-0.67187 -0.625,-1.60937 -0.20313,-0.95313 -0.20313,-2.10938 0,-1.14062 0.20313,-2.07812 0.21875,-0.95313 0.625,-1.64063 0.42187,-0.6875 1.07812,-1.04687 0.65625,-0.375 1.53125,-0.375 0.875,0 1.51563,0.375 0.65625,0.35937 1.0625,1.04687 0.42187,0.6875 0.625,1.64063 0.21875,0.9375 0.21875,2.07812 z m -1.6875,0 q 0,-0.8125 -0.0937,-1.5 -0.0937,-0.6875 -0.29688,-1.17187 -0.20312,-0.5 -0.54687,-0.76563 -0.32813,-0.26562 -0.79688,-0.26562 -0.48437,0 -0.8125,0.26562 -0.32812,0.26563 -0.54687,0.76563 -0.20313,0.48437 -0.29688,1.17187 -0.0937,0.6875 -0.0937,1.5 0,0.82813 0.0937,1.51563 0.0937,0.67187 0.29688,1.15625 0.21875,0.48437 0.54687,0.76562 0.32813,0.26563 0.8125,0.26563 0.46875,0 0.79688,-0.26563 0.34375,-0.28125 0.54687,-0.76562 0.20313,-0.48438 0.29688,-1.15625 0.0937,-0.6875 0.0937,-1.51563 z m 10.09094,4.60938 q -0.23438,0.0937 -0.59375,0.1875 -0.34375,0.0781 -0.71875,0.14062 -0.375,0.0625 -0.76563,0.10938 -0.375,0.0469 -0.70312,0.0469 -0.76563,0 -1.40625,-0.1875 -0.625,-0.17187 -1.07813,-0.60937 -0.4375,-0.45313 -0.6875,-1.21875 -0.23437,-0.78125 -0.23437,-1.95313 v -6.03125 h 1.59375 v 5.96875 q 0,1.4375 0.4375,2.03125 0.45312,0.57813 1.34375,0.57813 0.29687,0 0.59375,-0.0156 0.29687,-0.0312 0.60937,-0.125 v -8.4375 h 1.60938 z m 2.89252,-9.23438 q 0.6875,-0.20312 1.48437,-0.34375 0.8125,-0.14062 1.48438,-0.14062 0.73437,0 1.32812,0.20312 0.59375,0.1875 1.01563,0.65625 0.42187,0.46875 0.65625,1.26563 0.23437,0.78125 0.23437,1.96875 v 5.90625 H 662.68 v -5.78125 q 0,-1.45313 -0.375,-2.125 -0.375,-0.67188 -1.40625,-0.67188 -0.53125,0 -1.20313,0.1875 v 8.39063 h -1.60937 z m 13.21106,1.1875 q -0.54688,-0.29687 -1.15625,-0.29687 -0.46875,0 -0.82813,0.1875 -0.34375,0.1875 -0.60937,0.625 -0.25,0.42187 -0.375,1.14062 -0.125,0.70313 -0.125,1.75 0,2.01563 0.53125,2.89063 0.53125,0.85937 1.60937,0.85937 0.20313,0 0.4375,-0.0312 0.25,-0.0312 0.51563,-0.10937 z m 0,-5.875 1.60937,-0.28125 v 14.21875 q -0.53125,0.23438 -1.20312,0.375 -0.67188,0.14063 -1.35938,0.14063 -2.01562,0 -2.92187,-1.28125 -0.90625,-1.29688 -0.90625,-3.89063 0,-1.17187 0.1875,-2.10937 0.20312,-0.95313 0.625,-1.60938 0.42187,-0.67187 1.07812,-1.03125 0.65625,-0.35937 1.54688,-0.35937 0.42187,0 0.73437,0.0781 0.3125,0.0781 0.60938,0.23438 z m 8.72808,5.85938 q -0.59375,-0.25 -1.34375,-0.25 -0.6875,0 -1.28125,0.23437 v 8.35938 h -1.60937 v -9.35938 q 0.54687,-0.26562 1.23437,-0.4375 0.70313,-0.1875 1.54688,-0.1875 0.45312,0 0.89062,0.0625 0.45313,0.0469 0.84375,0.20313 z m 7.99512,3.45312 q 0,1.15625 -0.21875,2.10938 -0.20312,0.9375 -0.625,1.60937 -0.40625,0.67188 -1.0625,1.04688 -0.64062,0.375 -1.51562,0.375 -0.875,0 -1.53125,-0.375 -0.65625,-0.375 -1.07813,-1.04688 -0.40625,-0.67187 -0.625,-1.60937 -0.20312,-0.95313 -0.20312,-2.10938 0,-1.14062 0.20312,-2.07812 0.21875,-0.95313 0.625,-1.64063 0.42188,-0.6875 1.07813,-1.04687 0.65625,-0.375 1.53125,-0.375 0.875,0 1.51562,0.375 0.65625,0.35937 1.0625,1.04687 0.42188,0.6875 0.625,1.64063 0.21875,0.9375 0.21875,2.07812 z m -1.6875,0 q 0,-0.8125 -0.0937,-1.5 -0.0937,-0.6875 -0.29687,-1.17187 -0.20313,-0.5 -0.54688,-0.76563 -0.32812,-0.26562 -0.79687,-0.26562 -0.48438,0 -0.8125,0.26562 -0.32813,0.26563 -0.54688,0.76563 -0.20312,0.48437 -0.29687,1.17187 -0.0937,0.6875 -0.0937,1.5 0,0.82813 0.0937,1.51563 0.0937,0.67187 0.29687,1.15625 0.21875,0.48437 0.54688,0.76562 0.32812,0.26563 0.8125,0.26563 0.46875,0 0.79687,-0.26563 0.34375,-0.28125 0.54688,-0.76562 0.20312,-0.48438 0.29687,-1.15625 0.0937,-0.6875 0.0937,-1.51563 z m 5.62219,3.57813 q 0.25,0.0781 0.48438,0.10937 0.25,0.0312 0.46875,0.0312 1.07812,0 1.60937,-0.85937 0.53125,-0.875 0.53125,-2.89063 0,-1.04687 -0.14062,-1.75 -0.125,-0.71875 -0.375,-1.14062 -0.25,-0.4375 -0.60938,-0.625 -0.34375,-0.1875 -0.8125,-0.1875 -0.625,0 -1.15625,0.29687 z m 0,-8.40625 q 0.29688,-0.15625 0.59375,-0.23438 0.3125,-0.0781 0.75,-0.0781 0.90625,0 1.5625,0.35937 0.65625,0.35938 1.0625,1.03125 0.40625,0.65625 0.59375,1.60938 0.20313,0.9375 0.20313,2.10937 0,2.59375 -0.92188,3.89063 -0.92187,1.28125 -2.89062,1.28125 -0.70313,0 -1.375,-0.14063 -0.67188,-0.14062 -1.1875,-0.375 v -13.9375 l 1.60937,-0.28125 z m 8.72809,9.71875 h -1.60937 v -9.79688 h 1.60937 z m -0.8125,-11.53125 q -0.42187,0 -0.73437,-0.28125 -0.29688,-0.29688 -0.29688,-0.78125 0,-0.48438 0.29688,-0.76563 0.3125,-0.29687 0.73437,-0.29687 0.4375,0 0.73438,0.29687 0.3125,0.28125 0.3125,0.76563 0,0.48437 -0.3125,0.78125 -0.29688,0.28125 -0.73438,0.28125 z m 3.71796,2.01562 q 0.6875,-0.20312 1.48437,-0.34375 0.8125,-0.14062 1.48438,-0.14062 0.73437,0 1.32812,0.20312 0.59375,0.1875 1.01563,0.65625 0.42187,0.46875 0.65625,1.26563 0.23437,0.78125 0.23437,1.96875 v 5.90625 h -1.60937 v -5.78125 q 0,-1.45313 -0.375,-2.125 -0.375,-0.67188 -1.40625,-0.67188 -0.53125,0 -1.20313,0.1875 v 8.39063 h -1.60937 z m 10.55481,3.9375 q 0,2.39063 0.57812,4.5 0.57813,2.10938 1.625,3.85938 l -1.28125,0.70312 q -1.15625,-1.8125 -1.84375,-4.09375 -0.67187,-2.29687 -0.67187,-4.96875 0,-2.67187 0.67187,-4.95312 0.6875,-2.29688 1.84375,-4.10938 l 1.28125,0.70313 q -1.04687,1.75 -1.625,3.85937 -0.57812,2.10938 -0.57812,4.5 z m 5.90497,0 q 0,-2.39062 -0.57813,-4.5 -0.57812,-2.10937 -1.625,-3.85937 l 1.28125,-0.70313 q 1.15625,1.8125 1.84375,4.10938 0.6875,2.28125 0.6875,4.95312 0,2.67188 -0.6875,4.96875 -0.6875,2.28125 -1.84375,4.09375 l -1.28125,-0.70312 q 1.04688,-1.75 1.625,-3.85938 0.57813,-2.10937 0.57813,-4.5 z m 4.25451,-6.375 q 0.53125,0.1875 1.0625,0.53125 0.53125,0.32813 0.95313,0.625 -0.14063,-0.48437 -0.29688,-1.09375 -0.15625,-0.60937 -0.15625,-1.17187 v -0.125 h 1.64063 v 0.125 q 0,0.5625 -0.15625,1.17187 -0.15625,0.60938 -0.3125,1.09375 0.4375,-0.28125 0.9375,-0.625 0.5,-0.34375 1.04687,-0.51562 l 0.125,-0.0469 0.48438,1.57813 -0.0937,0.0312 q -0.53125,0.17187 -1.15625,0.21875 -0.60938,0.0312 -1.09375,0.0625 0.375,0.3125 0.84375,0.70312 0.48437,0.375 0.79687,0.82813 l 0.0781,0.0937 -1.32813,0.96875 -0.0625,-0.10938 q -0.32812,-0.45312 -0.5625,-1.03125 -0.21875,-0.57812 -0.40625,-1.04687 -0.1875,0.46875 -0.40625,1.04687 -0.21875,0.57813 -0.54687,1.01563 l -0.0625,0.10937 -1.32813,-0.96875 0.0937,-0.0937 q 0.3125,-0.45312 0.79688,-0.84375 0.5,-0.39062 0.875,-0.70312 -0.5,-0.0469 -1.125,-0.0625 -0.60938,-0.0156 -1.14063,-0.21875 l -0.0781,-0.0625 0.46875,-1.53125 z"
       fill-rule="nonzero"
       id="path83" />
    <path
       fill="#000000"
       fill-opacity="0"
       d="m 572.4974,193.521 h 41.32281 v 42.01575 H 572.4974 Z"
       fill-rule="evenodd"
       id="path85" />
    <path
       fill="#f3f3f3"
       d="m 585.7968,210.92537 q 0.6875,-0.20313 1.48437,-0.34375 0.8125,-0.14063 1.48438,-0.14063 0.73437,0 1.32812,0.20313 0.59375,0.1875 1.01563,0.65625 0.42187,0.46875 0.65625,1.26562 0.23437,0.78125 0.23437,1.96875 v 5.90625 h -1.60937 v -5.78125 q 0,-1.45312 -0.375,-2.125 -0.375,-0.67187 -1.40625,-0.67187 -0.53125,0 -1.20313,0.1875 v 8.39062 h -1.60937 z m 15.28918,4.625 q 0,1.15625 -0.21875,2.10937 -0.20312,0.9375 -0.625,1.60938 -0.40625,0.67187 -1.0625,1.04687 -0.64062,0.375 -1.51562,0.375 -0.875,0 -1.53125,-0.375 -0.65625,-0.375 -1.07813,-1.04687 -0.40625,-0.67188 -0.625,-1.60938 -0.20312,-0.95312 -0.20312,-2.10937 0,-1.14063 0.20312,-2.07813 0.21875,-0.95312 0.625,-1.64062 0.42188,-0.6875 1.07813,-1.04688 0.65625,-0.375 1.53125,-0.375 0.875,0 1.51562,0.375 0.65625,0.35938 1.0625,1.04688 0.42188,0.6875 0.625,1.64062 0.21875,0.9375 0.21875,2.07813 z m -1.6875,0 q 0,-0.8125 -0.0937,-1.5 -0.0937,-0.6875 -0.29687,-1.17188 -0.20313,-0.5 -0.54688,-0.76562 -0.32812,-0.26563 -0.79687,-0.26563 -0.48438,0 -0.8125,0.26563 -0.32813,0.26562 -0.54688,0.76562 -0.20312,0.48438 -0.29687,1.17188 -0.0937,0.6875 -0.0937,1.5 0,0.82812 0.0937,1.51562 0.0937,0.67188 0.29687,1.15625 0.21875,0.48438 0.54688,0.76563 0.32812,0.26562 0.8125,0.26562 0.46875,0 0.79687,-0.26562 0.34375,-0.28125 0.54688,-0.76563 0.20312,-0.48437 0.29687,-1.15625 0.0937,-0.6875 0.0937,-1.51562 z"
       fill-rule="nonzero"
       id="path87" />
    <path
       fill="#000000"
       fill-opacity="0"
       d="m 497.8872,317.77298 v 29.06271 h 0.063 v 29.07901"
       fill-rule="evenodd"
       id="path89" />
    <path
       stroke="#f3f3f3"
       stroke-width="2"
       stroke-linejoin="round"
       stroke-linecap="butt"
       d="m 497.88718,317.77298 v 29.06274 h 0.063 v 17.07898"
       fill-rule="evenodd"
       id="path91" />
    <path
       fill="#f3f3f3"
       stroke="#f3f3f3"
       stroke-width="2"
       stroke-linecap="butt"
       d="m 494.6467,363.9147 3.30347,9.0762 3.30346,-9.0762 z"
       fill-rule="evenodd"
       id="path93" />
    <path
       fill="#000000"
       fill-opacity="0"
       d="m 681.6982,317.7743 v 72.91336 H 512.69033"
       fill-rule="evenodd"
       id="path95" />
    <path
       stroke="#f3f3f3"
       stroke-width="2"
       stroke-linejoin="round"
       stroke-linecap="butt"
       d="m 681.6982,317.7743 v 72.91336 H 524.69033"
       fill-rule="evenodd"
       id="path97" />
    <path
       fill="#f3f3f3"
       stroke="#f3f3f3"
       stroke-width="2"
       stroke-linecap="butt"
       d="m 524.6903,387.3842 -9.07623,3.30347 9.07623,3.30346 z"
       fill-rule="evenodd"
       id="path99" />
    <path
       fill="#434343"
       d="m 490.48425,390.7021 v 0 c 0,-4.08777 3.31378,-7.40155 7.40158,-7.40155 v 0 c 1.96301,0 3.84564,0.77978 5.2337,2.16785 1.38807,1.38806 2.16788,3.27069 2.16788,5.2337 v 0 c 0,4.0878 -3.31381,7.40158 -7.40158,7.40158 v 0 c -4.0878,0 -7.40158,-3.31378 -7.40158,-7.40158 z"
       fill-rule="evenodd"
       id="path101" />
    <path
       stroke="#595959"
       stroke-width="1"
       stroke-linejoin="round"
       stroke-linecap="butt"
       d="m 490.48425,390.7021 v 0 c 0,-4.08777 3.31378,-7.40155 7.40158,-7.40155 v 0 c 1.96301,0 3.84564,0.77978 5.2337,2.16785 1.38807,1.38806 2.16788,3.27069 2.16788,5.2337 v 0 c 0,4.0878 -3.31381,7.40158 -7.40158,7.40158 v 0 c -4.0878,0 -7.40158,-3.31378 -7.40158,-7.40158 z"
       fill-rule="evenodd"
       id="path103" />
    <path
       fill="#000000"
       fill-opacity="0"
       d="m 598.6021,324.2593 h 162.99213 v 58.17325 H 598.6021 Z"
       fill-rule="evenodd"
       id="path105" />
    <path
       fill="#cccccc"
       d="m 608.6646,338.36932 q 0.45312,0.15625 0.90625,0.45313 0.46875,0.28125 0.8125,0.53125 -0.10938,-0.42188 -0.25,-0.9375 -0.125,-0.51563 -0.125,-1 v -0.10938 h 1.40625 v 0.10938 q 0,0.48437 -0.14063,1 -0.14062,0.51562 -0.26562,0.9375 0.375,-0.23438 0.79687,-0.53125 0.4375,-0.29688 0.90625,-0.4375 l 0.10938,-0.0312 0.40625,1.34375 -0.0781,0.0312 q -0.45312,0.14062 -0.98437,0.17187 -0.53125,0.0312 -0.95313,0.0625 0.32813,0.26563 0.73438,0.59375 0.40625,0.32813 0.6875,0.71875 l 0.0625,0.0781 -1.14063,0.82812 -0.0469,-0.0937 q -0.29688,-0.375 -0.48438,-0.875 -0.1875,-0.5 -0.34375,-0.89062 -0.17187,0.39062 -0.35937,0.89062 -0.1875,0.5 -0.46875,0.85938 l -0.0625,0.0937 -1.125,-0.82813 0.0781,-0.0781 q 0.26563,-0.39063 0.6875,-0.71875 0.42188,-0.34375 0.75,-0.60938 -0.4375,-0.0312 -0.96875,-0.0469 -0.51562,-0.0156 -0.98437,-0.1875 l -0.0625,-0.0469 0.39062,-1.3125 z m 13.12451,3.09375 q -0.5,-0.21875 -1.14062,-0.21875 -0.59375,0 -1.10938,0.20313 v 7.17187 h -1.375 v -8.03125 q 0.46875,-0.21875 1.0625,-0.375 0.59375,-0.15625 1.3125,-0.15625 0.39063,0 0.76563,0.0469 0.39062,0.0469 0.73437,0.17187 z m 6.85364,2.96875 q 0,0.98438 -0.1875,1.79688 -0.17188,0.8125 -0.53125,1.39062 -0.35938,0.5625 -0.90625,0.89063 -0.54688,0.3125 -1.29688,0.3125 -0.76562,0 -1.32812,-0.3125 -0.54688,-0.32813 -0.90625,-0.89063 -0.35938,-0.57812 -0.54688,-1.39062 -0.17187,-0.8125 -0.17187,-1.79688 0,-0.98437 0.17187,-1.79687 0.1875,-0.8125 0.54688,-1.39063 0.35937,-0.59375 0.90625,-0.90625 0.5625,-0.32812 1.32812,-0.32812 0.75,0 1.29688,0.32812 0.54687,0.3125 0.90625,0.90625 0.35937,0.57813 0.53125,1.39063 0.1875,0.8125 0.1875,1.79687 z m -1.4375,0 q 0,-0.70312 -0.0781,-1.28125 -0.0781,-0.59375 -0.26562,-1.01562 -0.17188,-0.42188 -0.46875,-0.65625 -0.28125,-0.23438 -0.67188,-0.23438 -0.42187,0 -0.70312,0.23438 -0.28125,0.23437 -0.46875,0.65625 -0.17188,0.42187 -0.26563,1.01562 -0.0781,0.57813 -0.0781,1.28125 0,0.70313 0.0781,1.29688 0.0937,0.57812 0.26563,1 0.1875,0.40625 0.46875,0.64062 0.28125,0.21875 0.70312,0.21875 0.39063,0 0.67188,-0.21875 0.29687,-0.23437 0.46875,-0.64062 0.1875,-0.42188 0.26562,-1 0.0781,-0.59375 0.0781,-1.29688 z m 8.65802,3.95313 q -0.21875,0.0781 -0.51563,0.15625 -0.29687,0.0625 -0.625,0.10937 -0.32812,0.0625 -0.65625,0.0937 -0.3125,0.0469 -0.59375,0.0469 -0.65625,0 -1.20312,-0.15625 -0.54688,-0.14063 -0.9375,-0.51563 -0.375,-0.39062 -0.57813,-1.04687 -0.20312,-0.67188 -0.20312,-1.6875 v -5.17188 h 1.375 v 5.125 q 0,1.23438 0.375,1.73438 0.375,0.5 1.14062,0.5 0.25,0 0.5,-0.0156 0.26563,-0.0312 0.54688,-0.10937 v -7.23438 h 1.375 z m 2.47693,-7.92188 q 0.59375,-0.1875 1.28125,-0.29687 0.6875,-0.125 1.26562,-0.125 0.625,0 1.125,0.17187 0.51563,0.17188 0.875,0.57813 0.35938,0.39062 0.5625,1.07812 0.20313,0.67188 0.20313,1.67188 v 5.07812 h -1.375 v -4.95312 q 0,-1.25 -0.32813,-1.82813 -0.3125,-0.57812 -1.20312,-0.57812 -0.45313,0 -1.03125,0.15625 v 7.20312 h -1.375 z m 11.32135,1.01563 q -0.45313,-0.25 -0.98438,-0.25 -0.40625,0 -0.71875,0.15625 -0.29687,0.15625 -0.51562,0.53125 -0.20313,0.35937 -0.32813,0.96875 -0.10937,0.60937 -0.10937,1.51562 0,1.71875 0.45312,2.46875 0.46875,0.73438 1.39063,0.73438 0.17187,0 0.375,-0.0156 0.21875,-0.0312 0.4375,-0.0937 z m 0,-5.03125 1.375,-0.25 v 12.20312 q -0.4375,0.1875 -1.01563,0.29688 -0.57812,0.125 -1.17187,0.125 -1.73438,0 -2.51563,-1.09375 -0.76562,-1.10938 -0.76562,-3.32813 0,-1.01562 0.17187,-1.8125 0.17188,-0.8125 0.53125,-1.375 0.35938,-0.57812 0.90625,-0.89062 0.5625,-0.3125 1.34375,-0.3125 0.35938,0 0.625,0.0781 0.26563,0.0625 0.51563,0.1875 z m 10.60766,5.01562 q -0.5,-0.21875 -1.14062,-0.21875 -0.59375,0 -1.10938,0.20313 v 7.17187 h -1.375 v -8.03125 q 0.46875,-0.21875 1.0625,-0.375 0.59375,-0.15625 1.3125,-0.15625 0.39063,0 0.76563,0.0469 0.39062,0.0469 0.73437,0.17187 z m 6.85364,2.96875 q 0,0.98438 -0.1875,1.79688 -0.17187,0.8125 -0.53125,1.39062 -0.35937,0.5625 -0.90625,0.89063 -0.54687,0.3125 -1.29687,0.3125 -0.76563,0 -1.32813,-0.3125 -0.54687,-0.32813 -0.90625,-0.89063 -0.35937,-0.57812 -0.54687,-1.39062 -0.17188,-0.8125 -0.17188,-1.79688 0,-0.98437 0.17188,-1.79687 0.1875,-0.8125 0.54687,-1.39063 0.35938,-0.59375 0.90625,-0.90625 0.5625,-0.32812 1.32813,-0.32812 0.75,0 1.29687,0.32812 0.54688,0.3125 0.90625,0.90625 0.35938,0.57813 0.53125,1.39063 0.1875,0.8125 0.1875,1.79687 z m -1.4375,0 q 0,-0.70312 -0.0781,-1.28125 -0.0781,-0.59375 -0.26563,-1.01562 -0.17187,-0.42188 -0.46875,-0.65625 -0.28125,-0.23438 -0.67187,-0.23438 -0.42188,0 -0.70313,0.23438 -0.28125,0.23437 -0.46875,0.65625 -0.17187,0.42187 -0.26562,1.01562 -0.0781,0.57813 -0.0781,1.28125 0,0.70313 0.0781,1.29688 0.0937,0.57812 0.26562,1 0.1875,0.40625 0.46875,0.64062 0.28125,0.21875 0.70313,0.21875 0.39062,0 0.67187,-0.21875 0.29688,-0.23437 0.46875,-0.64062 0.1875,-0.42188 0.26563,-1 0.0781,-0.59375 0.0781,-1.29688 z m 4.81427,3.0625 q 0.21875,0.0625 0.42188,0.0937 0.21875,0.0156 0.39062,0.0156 0.9375,0 1.39063,-0.73438 0.45312,-0.75 0.45312,-2.46875 0,-0.90625 -0.10937,-1.51562 -0.10938,-0.60938 -0.32813,-0.96875 -0.21875,-0.375 -0.53125,-0.53125 -0.29687,-0.15625 -0.70312,-0.15625 -0.51563,0 -0.98438,0.25 z m 0,-7.21875 q 0.25,-0.125 0.51563,-0.1875 0.26562,-0.0781 0.64062,-0.0781 0.78125,0 1.32813,0.3125 0.5625,0.3125 0.92187,0.89062 0.35938,0.5625 0.51563,1.375 0.17187,0.79688 0.17187,1.8125 0,2.21875 -0.79687,3.32813 -0.78125,1.09375 -2.48438,1.09375 -0.59375,0 -1.17187,-0.125 -0.5625,-0.10938 -1.01563,-0.29688 v -11.95312 l 1.375,-0.25 z m 7.48767,8.34375 h -1.375 v -8.40625 h 1.375 z m -0.6875,-9.89062 q -0.375,0 -0.64062,-0.25 -0.25,-0.25 -0.25,-0.65625 0,-0.42188 0.25,-0.67188 0.26562,-0.25 0.64062,-0.25 0.35938,0 0.625,0.25 0.26563,0.25 0.26563,0.67188 0,0.40625 -0.26563,0.65625 -0.26562,0.25 -0.625,0.25 z m 3.18451,1.73437 q 0.59375,-0.1875 1.28125,-0.29687 0.6875,-0.125 1.26563,-0.125 0.625,0 1.125,0.17187 0.51562,0.17188 0.875,0.57813 0.35937,0.39062 0.5625,1.07812 0.20312,0.67188 0.20312,1.67188 v 5.07812 h -1.375 v -4.95312 q 0,-1.25 -0.32812,-1.82813 -0.3125,-0.57812 -1.20313,-0.57812 -0.45312,0 -1.03125,0.15625 v 7.20312 h -1.375 z m 12.19141,6.89063 q 0.46875,0.25 0.98437,0.25 0.40625,0 0.70313,-0.15625 0.3125,-0.15625 0.53125,-0.51563 0.21875,-0.375 0.32812,-0.98437 0.10938,-0.60938 0.10938,-1.5 0,-1.73438 -0.4375,-2.46875 -0.4375,-0.75 -1.40625,-0.75 -0.17188,0 -0.39063,0.0312 -0.20312,0.0156 -0.42187,0.0781 z m 0,4.21875 h -1.375 v -11.125 q 0.45312,-0.20313 1.01562,-0.3125 0.5625,-0.125 1.15625,-0.125 0.875,0 1.5,0.3125 0.64063,0.29687 1.03125,0.875 0.40625,0.5625 0.57813,1.39062 0.1875,0.8125 0.1875,1.875 0,2.125 -0.6875,3.25 -0.67188,1.10938 -2.20313,1.10938 -0.375,0 -0.67187,-0.0781 -0.28125,-0.0625 -0.53125,-0.1875 z m 7.05011,-6.75 q 0.0156,0.60937 0.10937,1.125 0.10938,0.5 0.3125,0.875 0.21875,0.375 0.57813,0.57812 0.35937,0.20313 0.92187,0.20313 0.46875,0 0.85938,-0.125 0.39062,-0.14063 0.5625,-0.23438 l 0.26562,1.10938 q -0.21875,0.14062 -0.70312,0.29687 -0.48438,0.17188 -1.15625,0.17188 -0.875,0 -1.48438,-0.3125 -0.59375,-0.32813 -0.96875,-0.89063 -0.375,-0.57812 -0.54687,-1.375 -0.15625,-0.8125 -0.15625,-1.76562 0,-2.32813 0.76562,-3.39063 0.76563,-1.07812 2.03125,-1.07812 1.4375,0 2.01563,1.07812 0.59375,1.0625 0.59375,3 0,0.17188 0,0.35938 0,0.1875 -0.0156,0.375 z m 1.39062,-3.64063 q -0.6875,0 -1,0.6875 -0.3125,0.6875 -0.375,1.84375 h 2.54688 q 0,-1.17187 -0.25,-1.84375 -0.23438,-0.6875 -0.92188,-0.6875 z m 8.27289,0.28125 q -0.5,-0.21875 -1.14062,-0.21875 -0.59375,0 -1.10938,0.20313 v 7.17187 h -1.375 v -8.03125 q 0.46875,-0.21875 1.0625,-0.375 0.59375,-0.15625 1.3125,-0.15625 0.39063,0 0.76563,0.0469 0.39062,0.0469 0.73437,0.17187 z m 6.10242,6.03125 q 0.21875,0.0625 0.42187,0.0937 0.21875,0.0156 0.39063,0.0156 0.9375,0 1.39062,-0.73438 0.45313,-0.75 0.45313,-2.46875 0,-0.90625 -0.10938,-1.51562 -0.10937,-0.60938 -0.32812,-0.96875 -0.21875,-0.375 -0.53125,-0.53125 -0.29688,-0.15625 -0.70313,-0.15625 -0.51562,0 -0.98437,0.25 z m 0,-7.21875 q 0.25,-0.125 0.51562,-0.1875 0.26563,-0.0781 0.64063,-0.0781 0.78125,0 1.32812,0.3125 0.5625,0.3125 0.92188,0.89062 0.35937,0.5625 0.51562,1.375 0.17188,0.79688 0.17188,1.8125 0,2.21875 -0.79688,3.32813 -0.78125,1.09375 -2.48437,1.09375 -0.59375,0 -1.17188,-0.125 -0.5625,-0.10938 -1.01562,-0.29688 v -11.95312 l 1.375,-0.25 z m 6.23761,0.125 q 0.42187,-0.1875 0.875,-0.28125 0.46875,-0.10937 1.01562,-0.10937 1.125,0 1.82813,0.70312 0.70312,0.6875 0.70312,2.15625 v 5.57813 q -0.57812,0.15625 -1.1875,0.25 -0.59375,0.0937 -1.17187,0.0937 -0.57813,0 -1.07813,-0.14063 -0.5,-0.14062 -0.875,-0.45312 -0.375,-0.32813 -0.60937,-0.8125 -0.21875,-0.5 -0.21875,-1.20313 0,-0.65625 0.20312,-1.14062 0.20313,-0.48438 0.54688,-0.8125 0.35937,-0.32813 0.82812,-0.5 0.48438,-0.17188 1.04688,-0.17188 0.53125,0 1.17187,0.14063 v -0.78125 q 0,-0.92188 -0.35937,-1.28125 -0.35938,-0.375 -1.03125,-0.375 -0.375,0 -0.70313,0.0781 -0.32812,0.0625 -0.70312,0.21875 z m 0.65625,5.76563 q 0,0.73437 0.375,1.09375 0.39062,0.34375 1.09375,0.34375 0.4375,0 0.95312,-0.10938 v -2.67187 q -0.48437,-0.125 -0.95312,-0.125 -0.29688,0 -0.57813,0.0781 -0.26562,0.0625 -0.46875,0.23438 -0.20312,0.17187 -0.3125,0.45312 -0.10937,0.28125 -0.10937,0.70313 z m 7.44403,-5.95313 h 2.10937 v 1.1875 h -2.10937 v 4.625 q 0,0.85938 0.3125,1.20313 0.3125,0.34375 0.84375,0.34375 0.26562,0 0.51562,-0.0781 0.25,-0.0781 0.42188,-0.1875 l 0.26562,1.10938 q -0.65625,0.375 -1.39062,0.375 -1.1875,0 -1.76563,-0.65625 -0.57812,-0.67188 -0.57812,-2.20313 v -7.96875 l 1.375,-0.23437 z m 6.33728,8.60938 q -0.875,0 -1.45313,-0.32813 -0.5625,-0.34375 -0.92187,-0.92187 -0.35938,-0.57813 -0.51563,-1.375 -0.15625,-0.8125 -0.15625,-1.75 0,-2.07813 0.75,-3.25 0.76563,-1.1875 2.3125,-1.1875 0.45313,0 0.82813,0.10937 0.375,0.10938 0.6875,0.29688 l -0.35938,1.125 q -0.48437,-0.3125 -1.09375,-0.3125 -0.85937,0 -1.28125,0.78125 -0.40625,0.78125 -0.40625,2.4375 0,0.6875 0.0781,1.28125 0.0937,0.57812 0.28125,1 0.20312,0.40625 0.53125,0.64062 0.32812,0.23438 0.84375,0.23438 0.34375,0 0.625,-0.0781 0.28125,-0.0937 0.54687,-0.23437 l 0.29688,1.07812 q -0.25,0.17188 -0.6875,0.3125 -0.42188,0.14063 -0.90625,0.14063 z m 3.08551,-0.20313 v -12.17187 l 1.375,-0.25 v 4.0625 q 0.29687,-0.0937 0.65625,-0.15625 0.35937,-0.0625 0.73437,-0.0625 0.53125,0 0.98438,0.17187 0.46875,0.17188 0.8125,0.57813 0.34375,0.39062 0.54687,1.07812 0.20313,0.67188 0.20313,1.67188 v 5.07812 h -1.375 v -4.95312 q 0,-1.25 -0.32813,-1.82813 -0.3125,-0.57812 -1.20312,-0.57812 -0.45313,0 -1.03125,0.15625 v 7.20312 z"
       fill-rule="nonzero"
       id="path107" />
    <path
       fill="#cccccc"
       d="m 617.64966,360.91306 h 5.5 v 1.15625 h -5.5 z m 0,3.07812 h 5.5 v 1.17188 h -5.5 z m 13.41687,-4.48437 q -0.0156,-0.14063 -0.0156,-0.23438 0,-0.0937 0,-0.21875 0,-0.92187 0.28125,-1.75 0.29687,-0.82812 0.79687,-1.60937 l 0.96875,0.28125 q -0.39062,0.71875 -0.53125,1.46875 -0.125,0.73437 -0.125,1.39062 0,0.17188 0,0.34375 0.0156,0.15625 0.0312,0.32813 z m 2.70313,0 q -0.0156,-0.14063 -0.0156,-0.23438 0,-0.0937 0,-0.21875 0,-0.92187 0.28125,-1.75 0.29688,-0.82812 0.79688,-1.60937 l 0.96875,0.28125 q -0.39063,0.71875 -0.53125,1.46875 -0.125,0.73437 -0.125,1.39062 0,0.17188 0,0.34375 0.0156,0.15625 0.0312,0.32813 z m 4.6864,7.34375 q 0.60937,0 0.90625,-0.34375 0.3125,-0.34375 0.3125,-0.90625 0,-0.35938 -0.125,-0.60938 -0.125,-0.25 -0.34375,-0.4375 -0.20313,-0.1875 -0.46875,-0.34375 -0.26563,-0.15625 -0.54688,-0.32812 -0.26562,-0.15625 -0.53125,-0.375 -0.25,-0.21875 -0.45312,-0.5 -0.20313,-0.28125 -0.32813,-0.64063 -0.10937,-0.35937 -0.10937,-0.82812 0,-1.04688 0.64062,-1.6875 0.65625,-0.64063 1.76563,-0.64063 0.45312,0 0.875,0.125 0.42187,0.10938 0.6875,0.26563 l -0.29688,1.09375 q -0.29687,-0.15625 -0.59375,-0.23438 -0.28125,-0.0781 -0.60937,-0.0781 -0.51563,0 -0.82813,0.29687 -0.29687,0.29688 -0.29687,0.85938 0,0.3125 0.10937,0.54687 0.10938,0.23438 0.29688,0.42188 0.1875,0.17187 0.42187,0.34375 0.23438,0.15625 0.48438,0.29687 0.3125,0.17188 0.59375,0.39063 0.29687,0.20312 0.53125,0.48437 0.23437,0.28125 0.375,0.65625 0.15625,0.375 0.15625,0.90625 0,1.09375 -0.65625,1.76563 -0.64063,0.67187 -1.89063,0.67187 -0.64062,0 -1.15625,-0.17187 -0.51562,-0.17188 -0.76562,-0.3125 l 0.28125,-1.14063 q 0.25,0.125 0.65625,0.29688 0.40625,0.15625 0.90625,0.15625 z m 5.56537,-7.4375 h 2.10937 v 1.1875 h -2.10937 v 4.625 q 0,0.85937 0.3125,1.20312 0.3125,0.34375 0.84375,0.34375 0.26562,0 0.51562,-0.0781 0.25,-0.0781 0.42188,-0.1875 l 0.26562,1.10937 q -0.65625,0.375 -1.39062,0.375 -1.1875,0 -1.76563,-0.65625 -0.57812,-0.67187 -0.57812,-2.20312 v -7.96875 l 1.375,-0.23438 z m 5.22979,8.40625 h -1.375 v -8.40625 h 1.375 z m -0.6875,-9.89063 q -0.375,0 -0.64062,-0.25 -0.25,-0.25 -0.25,-0.65625 0,-0.42187 0.25,-0.67187 0.26562,-0.25 0.64062,-0.25 0.35938,0 0.625,0.25 0.26563,0.25 0.26563,0.67187 0,0.40625 -0.26563,0.65625 -0.26562,0.25 -0.625,0.25 z m 5.74701,10.09375 q -0.875,0 -1.45312,-0.32812 -0.5625,-0.34375 -0.92188,-0.92188 -0.35937,-0.57812 -0.51562,-1.375 -0.15625,-0.8125 -0.15625,-1.75 0,-2.07812 0.75,-3.25 0.76562,-1.1875 2.3125,-1.1875 0.45312,0 0.82812,0.10938 0.375,0.10937 0.6875,0.29687 l -0.35937,1.125 q -0.48438,-0.3125 -1.09375,-0.3125 -0.85938,0 -1.28125,0.78125 -0.40625,0.78125 -0.40625,2.4375 0,0.6875 0.0781,1.28125 0.0937,0.57813 0.28125,1 0.20313,0.40625 0.53125,0.64063 0.32813,0.23437 0.84375,0.23437 0.34375,0 0.625,-0.0781 0.28125,-0.0937 0.54688,-0.23438 l 0.29687,1.07813 q -0.25,0.17187 -0.6875,0.3125 -0.42187,0.14062 -0.90625,0.14062 z m 8.28864,-8.60937 q -0.67188,1.15625 -1.29688,2.10937 -0.60937,0.95313 -1.21875,1.78125 0.375,0.45313 0.78125,1.01563 0.40625,0.5625 0.76563,1.15625 0.375,0.59375 0.6875,1.20312 0.32812,0.59375 0.54687,1.14063 h -1.5 q -0.25,-0.53125 -0.5625,-1.10938 -0.3125,-0.57812 -0.67187,-1.125 -0.35938,-0.54687 -0.71875,-1.04687 -0.34375,-0.5 -0.64063,-0.82813 v 4.10938 h -1.375 v -12.17188 l 1.375,-0.25 v 7.64063 q 0.28125,-0.39063 0.60938,-0.85938 0.32812,-0.48437 0.64062,-0.96875 0.32813,-0.5 0.60938,-0.95312 0.29687,-0.46875 0.48437,-0.84375 z m 3.72638,6.65625 q 0.45312,-1.59375 0.84375,-3.20313 0.39062,-1.625 0.73437,-3.45312 h 1.35938 q -0.23438,1.17187 -0.51563,2.3125 -0.28125,1.14062 -0.57812,2.20312 -0.29688,1.04688 -0.59375,1.98438 -0.29688,0.9375 -0.54688,1.70312 -0.3125,0.89063 -0.59375,1.5 -0.26562,0.625 -0.59375,1 -0.32812,0.375 -0.71875,0.54688 -0.39062,0.17187 -0.90625,0.17187 -0.29687,0 -0.59375,-0.0781 -0.28125,-0.0781 -0.46875,-0.15625 l 0.25,-1.125 q 0.42188,0.1875 0.79688,0.1875 0.45312,0 0.73437,-0.34375 0.29688,-0.32813 0.57813,-1 l 0.15625,-0.40625 q -0.3125,-0.82813 -0.625,-1.84375 -0.3125,-1.01563 -0.60938,-2.10938 -0.28125,-1.10937 -0.5625,-2.26562 -0.26562,-1.17188 -0.5,-2.28125 h 1.46875 q 0.125,0.76562 0.29688,1.65625 0.17187,0.89062 0.375,1.79687 0.20312,0.89063 0.40625,1.73438 0.20312,0.82812 0.40625,1.46875 z m 8.87793,0.48437 q 0.46875,0.25 0.98437,0.25 0.40625,0 0.70313,-0.15625 0.3125,-0.15625 0.53125,-0.51562 0.21875,-0.375 0.32812,-0.98438 0.10938,-0.60937 0.10938,-1.5 0,-1.73437 -0.4375,-2.46875 -0.4375,-0.75 -1.40625,-0.75 -0.17188,0 -0.39063,0.0312 -0.20312,0.0156 -0.42187,0.0781 z m 0,4.21875 h -1.375 v -11.125 q 0.45312,-0.20312 1.01562,-0.3125 0.5625,-0.125 1.15625,-0.125 0.875,0 1.5,0.3125 0.64063,0.29688 1.03125,0.875 0.40625,0.5625 0.57813,1.39063 0.1875,0.8125 0.1875,1.875 0,2.125 -0.6875,3.25 -0.67188,1.10937 -2.20313,1.10937 -0.375,0 -0.67187,-0.0781 -0.28125,-0.0625 -0.53125,-0.1875 z m 6.23761,-11.17187 q 0.42187,-0.1875 0.875,-0.28125 0.46875,-0.10938 1.01562,-0.10938 1.125,0 1.82813,0.70313 0.70312,0.6875 0.70312,2.15625 v 5.57812 q -0.57812,0.15625 -1.1875,0.25 -0.59375,0.0937 -1.17187,0.0937 -0.57813,0 -1.07813,-0.14062 -0.5,-0.14063 -0.875,-0.45313 -0.375,-0.32812 -0.60937,-0.8125 -0.21875,-0.5 -0.21875,-1.20312 0,-0.65625 0.20312,-1.14063 0.20313,-0.48437 0.54688,-0.8125 0.35937,-0.32812 0.82812,-0.5 0.48438,-0.17187 1.04688,-0.17187 0.53125,0 1.17187,0.14062 v -0.78125 q 0,-0.92187 -0.35937,-1.28125 -0.35938,-0.375 -1.03125,-0.375 -0.375,0 -0.70313,0.0781 -0.32812,0.0625 -0.70312,0.21875 z m 0.65625,5.76562 q 0,0.73438 0.375,1.09375 0.39062,0.34375 1.09375,0.34375 0.4375,0 0.95312,-0.10937 v -2.67188 q -0.48437,-0.125 -0.95312,-0.125 -0.29688,0 -0.57813,0.0781 -0.26562,0.0625 -0.46875,0.23437 -0.20312,0.17188 -0.3125,0.45313 -0.10937,0.28125 -0.10937,0.70312 z m 9.78778,-4.70312 q -0.5,-0.21875 -1.14063,-0.21875 -0.59375,0 -1.10937,0.20312 v 7.17188 h -1.375 v -8.03125 q 0.46875,-0.21875 1.0625,-0.375 0.59375,-0.15625 1.3125,-0.15625 0.39062,0 0.76562,0.0469 0.39063,0.0469 0.73438,0.17188 z m 2.90423,-1.25 h 2.10938 v 1.1875 h -2.10938 v 4.625 q 0,0.85937 0.3125,1.20312 0.3125,0.34375 0.84375,0.34375 0.26563,0 0.51563,-0.0781 0.25,-0.0781 0.42187,-0.1875 l 0.26563,1.10937 q -0.65625,0.375 -1.39063,0.375 -1.1875,0 -1.76562,-0.65625 -0.57813,-0.67187 -0.57813,-2.20312 v -7.96875 l 1.375,-0.23438 z m 5.2298,8.40625 h -1.375 v -8.40625 h 1.375 z m -0.6875,-9.89063 q -0.375,0 -0.64062,-0.25 -0.25,-0.25 -0.25,-0.65625 0,-0.42187 0.25,-0.67187 0.26562,-0.25 0.64062,-0.25 0.35938,0 0.625,0.25 0.26563,0.25 0.26563,0.67187 0,0.40625 -0.26563,0.65625 -0.26562,0.25 -0.625,0.25 z m 4.46576,1.48438 h 2.10937 v 1.1875 h -2.10937 v 4.625 q 0,0.85937 0.3125,1.20312 0.3125,0.34375 0.84375,0.34375 0.26562,0 0.51562,-0.0781 0.25,-0.0781 0.42188,-0.1875 l 0.26562,1.10937 q -0.65625,0.375 -1.39062,0.375 -1.1875,0 -1.76563,-0.65625 -0.57812,-0.67187 -0.57812,-2.20312 v -7.96875 l 1.375,-0.23438 z m 5.22974,8.40625 h -1.375 v -8.40625 h 1.375 z m -0.6875,-9.89063 q -0.375,0 -0.64063,-0.25 -0.25,-0.25 -0.25,-0.65625 0,-0.42187 0.25,-0.67187 0.26563,-0.25 0.64063,-0.25 0.35937,0 0.625,0.25 0.26562,0.25 0.26562,0.67187 0,0.40625 -0.26562,0.65625 -0.26563,0.25 -0.625,0.25 z m 8.57513,5.70313 q 0,0.98437 -0.1875,1.79687 -0.17187,0.8125 -0.53125,1.39063 -0.35937,0.5625 -0.90625,0.89062 -0.54687,0.3125 -1.29687,0.3125 -0.76563,0 -1.32813,-0.3125 -0.54687,-0.32812 -0.90625,-0.89062 -0.35937,-0.57813 -0.54687,-1.39063 -0.17188,-0.8125 -0.17188,-1.79687 0,-0.98438 0.17188,-1.79688 0.1875,-0.8125 0.54687,-1.39062 0.35938,-0.59375 0.90625,-0.90625 0.5625,-0.32813 1.32813,-0.32813 0.75,0 1.29687,0.32813 0.54688,0.3125 0.90625,0.90625 0.35938,0.57812 0.53125,1.39062 0.1875,0.8125 0.1875,1.79688 z m -1.4375,0 q 0,-0.70313 -0.0781,-1.28125 -0.0781,-0.59375 -0.26563,-1.01563 -0.17187,-0.42187 -0.46875,-0.65625 -0.28125,-0.23437 -0.67187,-0.23437 -0.42188,0 -0.70313,0.23437 -0.28125,0.23438 -0.46875,0.65625 -0.17187,0.42188 -0.26562,1.01563 -0.0781,0.57812 -0.0781,1.28125 0,0.70312 0.0781,1.29687 0.0937,0.57813 0.26562,1 0.1875,0.40625 0.46875,0.64063 0.28125,0.21875 0.70313,0.21875 0.39062,0 0.67187,-0.21875 0.29688,-0.23438 0.46875,-0.64063 0.1875,-0.42187 0.26563,-1 0.0781,-0.59375 0.0781,-1.29687 z m 3.4549,-3.96875 q 0.59375,-0.1875 1.28125,-0.29688 0.6875,-0.125 1.26562,-0.125 0.625,0 1.125,0.17188 0.51563,0.17187 0.875,0.57812 0.35938,0.39063 0.5625,1.07813 0.20313,0.67187 0.20313,1.67187 v 5.07813 h -1.375 v -4.95313 q 0,-1.25 -0.32813,-1.82812 -0.3125,-0.57813 -1.20312,-0.57813 -0.45313,0 -1.03125,0.15625 v 7.20313 h -1.375 z m 8.64953,4.35937 q 0.0156,0.60938 0.10938,1.125 0.10937,0.5 0.3125,0.875 0.21875,0.375 0.57812,0.57813 0.35938,0.20312 0.92188,0.20312 0.46875,0 0.85937,-0.125 0.39063,-0.14062 0.5625,-0.23437 l 0.26563,1.10937 q -0.21875,0.14063 -0.70313,0.29688 -0.48437,0.17187 -1.15625,0.17187 -0.875,0 -1.48437,-0.3125 -0.59375,-0.32812 -0.96875,-0.89062 -0.375,-0.57813 -0.54688,-1.375 -0.15625,-0.8125 -0.15625,-1.76563 0,-2.32812 0.76563,-3.39062 0.76562,-1.07813 2.03125,-1.07813 1.4375,0 2.01562,1.07813 0.59375,1.0625 0.59375,3 0,0.17187 0,0.35937 0,0.1875 -0.0156,0.375 z m 1.39063,-3.64062 q -0.6875,0 -1,0.6875 -0.3125,0.6875 -0.375,1.84375 h 2.54687 q 0,-1.17188 -0.25,-1.84375 -0.23437,-0.6875 -0.92187,-0.6875 z m 8.27288,0.28125 q -0.5,-0.21875 -1.14062,-0.21875 -0.59375,0 -1.10938,0.20312 v 7.17188 h -1.375 v -8.03125 q 0.46875,-0.21875 1.0625,-0.375 0.59375,-0.15625 1.3125,-0.15625 0.39063,0 0.76563,0.0469 0.39062,0.0469 0.73437,0.17188 z m 3.4773,-4.84375 q 0.0156,0.125 0.0156,0.21875 0,0.0937 0,0.23437 0,0.90625 -0.29687,1.75 -0.28125,0.82813 -0.78125,1.60938 l -0.96875,-0.29688 q 0.40625,-0.71875 0.53125,-1.45312 0.125,-0.73438 0.125,-1.39063 0,-0.17187 -0.0156,-0.34375 0,-0.17187 -0.0156,-0.32812 z m 2.6875,0 q 0.0156,0.125 0.0156,0.21875 0,0.0937 0,0.23437 0,0.90625 -0.29687,1.75 -0.28125,0.82813 -0.78125,1.60938 l -0.96875,-0.29688 q 0.40625,-0.71875 0.53125,-1.45312 0.125,-0.73438 0.125,-1.39063 0,-0.17187 -0.0156,-0.34375 0,-0.17187 -0.0156,-0.32812 z"
       fill-rule="nonzero"
       id="path109" />
  </g>
</svg>
