<?xml version="1.0" encoding="UTF-8" standalone="no"?>
<svg
   version="1.1"
   viewBox="0 0 390.91339 391.65353"
   fill="none"
   stroke="none"
   stroke-linecap="square"
   stroke-miterlimit="10"
   id="svg57"
   sodipodi:docname="trade-offs_1.svg"
   width="390.91339"
   height="391.65353"
   inkscape:version="1.2.2 (b0a8486541, 2022-12-01)"
   xmlns:inkscape="http://www.inkscape.org/namespaces/inkscape"
   xmlns:sodipodi="http://sodipodi.sourceforge.net/DTD/sodipodi-0.dtd"
   xmlns="http://www.w3.org/2000/svg"
   xmlns:svg="http://www.w3.org/2000/svg">
  <defs
     id="defs61" />
  <sodipodi:namedview
     id="namedview59"
     pagecolor="#ffffff"
     bordercolor="#666666"
     borderopacity="1.0"
     inkscape:showpageshadow="2"
     inkscape:pageopacity="0.0"
     inkscape:pagecheckerboard="0"
     inkscape:deskcolor="#d1d1d1"
     showgrid="false"
     inkscape:zoom="1.3552083"
     inkscape:cx="262.69024"
     inkscape:cy="240.55342"
     inkscape:window-width="1920"
     inkscape:window-height="1011"
     inkscape:window-x="0"
     inkscape:window-y="32"
     inkscape:window-maximized="1"
     inkscape:current-layer="svg57" />
  <clipPath
     id="g204849cfcd6_0_0.0">
    <path
       d="M 0,0 H 960 V 540 H 0 Z"
       clip-rule="nonzero"
       id="path2" />
  </clipPath>
  <g
     clip-path="url(#g204849cfcd6_0_0.0)"
     id="g55"
     transform="translate(-199.24672,-29.343832)">
    <path
       fill="#e06666"
       d="m 345.7743,120.28871 48.92911,-48.92913 48.92914,48.92913 H 419.16798 V 225.18635 H 370.23884 V 120.28871 Z"
       fill-rule="evenodd"
       id="path7" />
    <path
       fill="#000000"
       fill-opacity="0"
       d="m 418.93964,121.24409 v 103.937 H 370.4672 v -103.937 z"
       fill-rule="evenodd"
       id="path9" />
    <path
       fill="#f3f3f3"
       d="m 410.5015,122.58784 q 0.28125,1.125 0.28125,2.15625 0,0.84375 -0.20312,1.51563 -0.1875,0.67187 -0.60938,1.14062 -0.40625,0.48438 -1.0625,0.74999 -0.65625,0.26563 -1.57812,0.26563 -1.15625,0 -1.875,-0.45312 -0.70313,-0.4375 -1.07813,-1.1875 -0.3125,0.20313 -0.875,0.48438 -0.54687,0.29687 -1.21875,0.60937 -0.65625,0.31249 -1.35937,0.60937 -0.70313,0.29687 -1.34375,0.51562 v -1.45311 q 0.48437,-0.17188 1.09375,-0.4375 0.60937,-0.26563 1.20312,-0.54688 0.59375,-0.28125 1.14063,-0.57812 0.5625,-0.28125 0.95312,-0.51563 -0.0312,-0.25 -0.0625,-0.53125 -0.0156,-0.26562 -0.0156,-0.53125 v -0.40625 h -4.3125 v -1.40625 z m -5.42187,1.40625 v 0.60938 q 0,1.10937 0.5,1.6875 0.51562,0.59375 1.75,0.59375 0.625,0 1.04687,-0.15625 0.42188,-0.14063 0.67188,-0.42188 0.25,-0.28125 0.35937,-0.67187 0.10938,-0.39063 0.10938,-0.875 0,-0.40625 -0.0469,-0.76563 z m -1.70313,7.3415 q -0.60937,0.0156 -1.125,0.10937 -0.5,0.10938 -0.875,0.3125 -0.375,0.21875 -0.57812,0.57813 -0.20313,0.35937 -0.20313,0.92187 0,0.46875 0.125,0.85938 0.14063,0.39062 0.23438,0.5625 l -1.10938,0.26562 q -0.14062,-0.21875 -0.29687,-0.70312 -0.17188,-0.48438 -0.17188,-1.15625 0,-0.875 0.3125,-1.48438 0.32813,-0.59375 0.89063,-0.96875 0.57812,-0.375 1.375,-0.54687 0.8125,-0.15625 1.76562,-0.15625 2.32813,0 3.39063,0.76562 1.07812,0.76563 1.07812,2.03125 0,1.4375 -1.07812,2.01563 -1.0625,0.59375 -3,0.59375 -0.17188,0 -0.35938,0 -0.1875,0 -0.375,-0.0156 z m 3.64063,1.39062 q 0,-0.6875 -0.6875,-1 -0.6875,-0.3125 -1.84375,-0.375 v 2.54688 q 1.17187,0 1.84375,-0.25 0.6875,-0.23438 0.6875,-0.92188 z m -6.17188,6.00727 q -0.25,0.46875 -0.25,0.98437 0,0.40625 0.15625,0.70313 0.15625,0.3125 0.51563,0.53125 0.375,0.21875 0.98437,0.32812 0.60938,0.10938 1.5,0.10938 1.73438,0 2.46875,-0.4375 0.75,-0.4375 0.75,-1.40625 0,-0.17188 -0.0312,-0.39063 -0.0156,-0.20312 -0.0781,-0.42187 z m -4.21875,0 v -1.375 h 11.125 q 0.20313,0.45312 0.3125,1.01562 0.125,0.5625 0.125,1.15625 0,0.875 -0.3125,1.5 -0.29687,0.64063 -0.875,1.03125 -0.5625,0.40625 -1.39062,0.57813 -0.8125,0.1875 -1.875,0.1875 -2.125,0 -3.25,-0.6875 -1.10938,-0.67188 -1.10938,-2.20313 0,-0.375 0.0781,-0.67187 0.0625,-0.28125 0.1875,-0.53125 z m 2.79688,8.28451 q 0.0312,-1.1875 0.57812,-1.70312 0.54688,-0.5 1.75,-0.5 h 10 l 0.25,1.375 h -10.28125 q -0.5625,0 -0.8125,0.21875 -0.23437,0.23437 -0.34375,0.78125 z m 0.15625,3.09113 v -1.375 h 8.40625 v 1.375 z m 9.89062,-0.6875 q 0,-0.375 0.25,-0.64063 0.25,-0.25 0.65625,-0.25 0.42188,0 0.67188,0.25 0.25,0.26563 0.25,0.64063 0,0.35937 -0.25,0.625 -0.25,0.26562 -0.67188,0.26562 -0.40625,0 -0.65625,-0.26562 -0.25,-0.26563 -0.25,-0.625 z m -10.09375,5.74701 q 0,-0.875 0.32813,-1.45313 0.34375,-0.5625 0.92187,-0.92187 0.57813,-0.35938 1.375,-0.51563 0.8125,-0.15625 1.75,-0.15625 2.07813,0 3.25,0.75 1.1875,0.76563 1.1875,2.3125 0,0.45313 -0.10937,0.82813 -0.10938,0.375 -0.29688,0.6875 l -1.125,-0.35938 q 0.3125,-0.48437 0.3125,-1.09375 0,-0.85937 -0.78125,-1.28125 -0.78125,-0.40625 -2.4375,-0.40625 -0.6875,0 -1.28125,0.0781 -0.57812,0.0937 -1,0.28125 -0.40625,0.20312 -0.64062,0.53125 -0.23438,0.32812 -0.23438,0.84375 0,0.34375 0.0781,0.625 0.0937,0.28125 0.23437,0.54687 l -1.07812,0.29688 q -0.17188,-0.25 -0.3125,-0.6875 -0.14063,-0.42188 -0.14063,-0.90625 z m 8.42188,3.21051 q 0.1875,0.42187 0.28125,0.875 0.10937,0.46875 0.10937,1.01562 0,1.125 -0.70312,1.82813 -0.6875,0.70312 -2.15625,0.70312 h -5.57813 q -0.15625,-0.57812 -0.25,-1.1875 -0.0937,-0.59375 -0.0937,-1.17187 0,-0.57813 0.14063,-1.07813 0.14062,-0.5 0.45312,-0.875 0.32813,-0.375 0.8125,-0.60937 0.5,-0.21875 1.20313,-0.21875 0.65625,0 1.14062,0.20312 0.48438,0.20313 0.8125,0.54688 0.32813,0.35937 0.5,0.82812 0.17188,0.48438 0.17188,1.04688 0,0.53125 -0.14063,1.17187 h 0.78125 q 0.92188,0 1.28125,-0.35937 0.375,-0.35938 0.375,-1.03125 0,-0.375 -0.0781,-0.70313 -0.0625,-0.32812 -0.21875,-0.70312 z m -5.76563,0.65625 q -0.73437,0 -1.09375,0.375 -0.34375,0.39062 -0.34375,1.09375 0,0.4375 0.10938,0.95312 h 2.67187 q 0.125,-0.48437 0.125,-0.95312 0,-0.29688 -0.0781,-0.57813 -0.0625,-0.26562 -0.23438,-0.46875 -0.17187,-0.20312 -0.45312,-0.3125 -0.28125,-0.10937 -0.70313,-0.10937 z m -1.48437,7.33464 q 0,0.60937 0.34375,0.90625 0.34375,0.3125 0.90625,0.3125 0.35937,0 0.60937,-0.125 0.25,-0.125 0.4375,-0.34375 0.1875,-0.20313 0.34375,-0.46875 0.15625,-0.26563 0.32813,-0.54688 0.15625,-0.26562 0.375,-0.53125 0.21875,-0.25 0.5,-0.45312 0.28125,-0.20313 0.64062,-0.32813 0.35938,-0.10937 0.82813,-0.10937 1.04687,0 1.6875,0.64062 0.64062,0.65625 0.64062,1.76563 0,0.45312 -0.125,0.875 -0.10937,0.42187 -0.26562,0.6875 l -1.09375,-0.29688 q 0.15625,-0.29687 0.23437,-0.59375 0.0781,-0.28125 0.0781,-0.60937 0,-0.51563 -0.29688,-0.82813 -0.29687,-0.29687 -0.85937,-0.29687 -0.3125,0 -0.54688,0.10937 -0.23437,0.10938 -0.42187,0.29688 -0.17188,0.1875 -0.34375,0.42187 -0.15625,0.23438 -0.29688,0.48438 -0.17187,0.3125 -0.39062,0.59375 -0.20313,0.29687 -0.48438,0.53125 -0.28125,0.23437 -0.65625,0.375 -0.375,0.15625 -0.90625,0.15625 -1.09375,0 -1.76562,-0.65625 -0.67188,-0.64063 -0.67188,-1.89063 0,-0.64062 0.17188,-1.15625 0.17187,-0.51562 0.3125,-0.76562 l 1.14062,0.28125 q -0.125,0.25 -0.29687,0.65625 -0.15625,0.40625 -0.15625,0.90625 z m 4.40625,3.72163 v 2.15625 h 2.3125 v 1.1875 h -2.3125 v 2.15625 h -1.17188 v -2.15625 h -2.3125 v -1.1875 h 2.3125 v -2.15625 z"
       fill-rule="nonzero"
       id="path11" />
    <path
       fill="#f3f3f3"
       d="m 391.4734,126.02534 q -1.20312,0.39063 -2.4375,0.76563 -1.21875,0.375 -2.5625,0.73437 -1.34375,0.35938 -2.84375,0.71874 -1.5,0.35938 -3.25,0.73438 v -1.45312 q 0.71875,-0.125 1.42188,-0.26562 0.70312,-0.125 1.40625,-0.26563 v -3.5 q -0.70313,-0.15625 -1.40625,-0.28125 -0.70313,-0.125 -1.42188,-0.25 v -1.40625 q 1.75,0.35938 3.25,0.71875 1.5,0.375 2.84375,0.73438 1.34375,0.35937 2.5625,0.73437 1.23438,0.375 2.4375,0.76563 z m -1.64062,-0.78125 q -1.32813,-0.40625 -2.67188,-0.78125 -1.34375,-0.35937 -2.75,-0.6875 v 2.92188 q 1.40625,-0.3125 2.75,-0.6875 1.34375,-0.35938 2.67188,-0.76563 z m -9.65625,7.86051 q 0,-0.875 0.32812,-1.45312 0.34375,-0.5625 0.92188,-0.92188 0.57812,-0.35937 1.375,-0.51562 0.8125,-0.15625 1.75,-0.15625 2.07812,0 3.25,0.75 1.1875,0.76562 1.1875,2.3125 0,0.45312 -0.10938,0.82812 -0.10937,0.375 -0.29687,0.6875 l -1.125,-0.35937 q 0.3125,-0.48438 0.3125,-1.09375 0,-0.85938 -0.78125,-1.28125 -0.78125,-0.40625 -2.4375,-0.40625 -0.6875,0 -1.28125,0.0781 -0.57813,0.0937 -1,0.28125 -0.40625,0.20313 -0.64063,0.53125 -0.23437,0.32813 -0.23437,0.84375 0,0.34375 0.0781,0.625 0.0937,0.28125 0.23438,0.54688 l -1.07813,0.29687 q -0.17187,-0.25 -0.3125,-0.6875 -0.14062,-0.42187 -0.14062,-0.90625 z m 8.60937,8.28864 q -1.15625,-0.67188 -2.10937,-1.29688 -0.95313,-0.60937 -1.78125,-1.21875 -0.45313,0.375 -1.01563,0.78125 -0.5625,0.40625 -1.15625,0.76563 -0.59375,0.375 -1.20312,0.6875 -0.59375,0.32812 -1.14063,0.54687 v -1.5 q 0.53125,-0.25 1.10938,-0.5625 0.57812,-0.3125 1.125,-0.67187 0.54687,-0.35938 1.04687,-0.71875 0.5,-0.34375 0.82813,-0.64063 h -4.10938 v -1.375 h 12.17188 l 0.25,1.375 h -7.64063 q 0.39063,0.28125 0.85938,0.60938 0.48437,0.32812 0.96875,0.64062 0.5,0.32813 0.95312,0.60938 0.46875,0.29687 0.84375,0.48437 z m -7.4375,2.80076 q 0,0.60938 0.34375,0.90625 0.34375,0.3125 0.90625,0.3125 0.35938,0 0.60938,-0.125 0.25,-0.125 0.4375,-0.34375 0.1875,-0.20312 0.34375,-0.46875 0.15625,-0.26562 0.32812,-0.54687 0.15625,-0.26563 0.375,-0.53125 0.21875,-0.25 0.5,-0.45313 0.28125,-0.20312 0.64063,-0.32812 0.35937,-0.10938 0.82812,-0.10938 1.04688,0 1.6875,0.64063 0.64063,0.65625 0.64063,1.76562 0,0.45313 -0.125,0.875 -0.10938,0.42188 -0.26563,0.6875 l -1.09375,-0.29687 q 0.15625,-0.29688 0.23438,-0.59375 0.0781,-0.28125 0.0781,-0.60938 0,-0.51562 -0.29687,-0.82812 -0.29688,-0.29688 -0.85938,-0.29688 -0.3125,0 -0.54687,0.10938 -0.23438,0.10937 -0.42188,0.29687 -0.17187,0.1875 -0.34375,0.42188 -0.15625,0.23437 -0.29687,0.48437 -0.17188,0.3125 -0.39063,0.59375 -0.20312,0.29688 -0.48437,0.53125 -0.28125,0.23438 -0.65625,0.375 -0.375,0.15625 -0.90625,0.15625 -1.09375,0 -1.76563,-0.65625 -0.67187,-0.64062 -0.67187,-1.89062 0,-0.64063 0.17187,-1.15625 0.17188,-0.51563 0.3125,-0.76563 l 1.14063,0.28125 q -0.125,0.25 -0.29688,0.65625 -0.15625,0.40625 -0.15625,0.90625 z m 4.40625,3.72164 v 2.15625 h 2.3125 v 1.1875 h -2.3125 v 2.15625 h -1.17187 v -2.15625 h -2.3125 v -1.1875 h 2.3125 v -2.15625 z"
       fill-rule="nonzero"
       id="path13" />
    <path
       fill="#e06666"
       d="m 443.63254,330.05243 -48.92914,48.92914 -48.92911,-48.92914 h 24.46454 V 225.1863 h 48.92914 v 104.86613 z"
       fill-rule="evenodd"
       id="path15" />
    <path
       fill="#000000"
       fill-opacity="0"
       d="M 418.93964,225.92119 V 329.1023 H 370.4672 V 225.92119 Z"
       fill-rule="evenodd"
       id="path17" />
    <path
       fill="#f3f3f3"
       d="m 410.5015,278.55795 q 0.28125,1.125 0.28125,2.15625 0,0.84375 -0.20312,1.51562 -0.1875,0.67188 -0.60938,1.14063 -0.40625,0.48437 -1.0625,0.75 -0.65625,0.26562 -1.57812,0.26562 -1.15625,0 -1.875,-0.45312 -0.70313,-0.4375 -1.07813,-1.1875 -0.3125,0.20312 -0.875,0.48437 -0.54687,0.29688 -1.21875,0.60938 -0.65625,0.3125 -1.35937,0.60937 -0.70313,0.29688 -1.34375,0.51563 v -1.45313 q 0.48437,-0.17187 1.09375,-0.4375 0.60937,-0.26562 1.20312,-0.54687 0.59375,-0.28125 1.14063,-0.57813 0.5625,-0.28125 0.95312,-0.51562 -0.0312,-0.25 -0.0625,-0.53125 -0.0156,-0.26563 -0.0156,-0.53125 v -0.40625 h -4.3125 v -1.40625 z m -5.42187,1.40625 v 0.60937 q 0,1.10938 0.5,1.6875 0.51562,0.59375 1.75,0.59375 0.625,0 1.04687,-0.15625 0.42188,-0.14062 0.67188,-0.42187 0.25,-0.28125 0.35937,-0.67188 0.10938,-0.39062 0.10938,-0.875 0,-0.40625 -0.0469,-0.76562 z m -1.70313,7.34149 q -0.60937,0.0156 -1.125,0.10938 -0.5,0.10937 -0.875,0.3125 -0.375,0.21875 -0.57812,0.57812 -0.20313,0.35938 -0.20313,0.92188 0,0.46875 0.125,0.85937 0.14063,0.39063 0.23438,0.5625 l -1.10938,0.26563 q -0.14062,-0.21875 -0.29687,-0.70313 -0.17188,-0.48437 -0.17188,-1.15625 0,-0.875 0.3125,-1.48437 0.32813,-0.59375 0.89063,-0.96875 0.57812,-0.375 1.375,-0.54688 0.8125,-0.15625 1.76562,-0.15625 2.32813,0 3.39063,0.76563 1.07812,0.76562 1.07812,2.03125 0,1.4375 -1.07812,2.01562 -1.0625,0.59375 -3,0.59375 -0.17188,0 -0.35938,0 -0.1875,0 -0.375,-0.0156 z m 3.64063,1.39063 q 0,-0.6875 -0.6875,-1 -0.6875,-0.3125 -1.84375,-0.375 v 2.54687 q 1.17187,0 1.84375,-0.25 0.6875,-0.23437 0.6875,-0.92187 z m -6.17188,6.00726 q -0.25,0.46875 -0.25,0.98437 0,0.40625 0.15625,0.70313 0.15625,0.3125 0.51563,0.53125 0.375,0.21875 0.98437,0.32812 0.60938,0.10938 1.5,0.10938 1.73438,0 2.46875,-0.4375 0.75,-0.4375 0.75,-1.40625 0,-0.17188 -0.0312,-0.39063 -0.0156,-0.20312 -0.0781,-0.42187 z m -4.21875,0 v -1.375 h 11.125 q 0.20313,0.45312 0.3125,1.01562 0.125,0.5625 0.125,1.15625 0,0.875 -0.3125,1.5 -0.29687,0.64063 -0.875,1.03125 -0.5625,0.40625 -1.39062,0.57813 -0.8125,0.1875 -1.875,0.1875 -2.125,0 -3.25,-0.6875 -1.10938,-0.67188 -1.10938,-2.20313 0,-0.375 0.0781,-0.67187 0.0625,-0.28125 0.1875,-0.53125 z m 2.79688,8.28451 q 0.0312,-1.1875 0.57812,-1.70312 0.54688,-0.5 1.75,-0.5 h 10 l 0.25,1.375 h -10.28125 q -0.5625,0 -0.8125,0.21875 -0.23437,0.23437 -0.34375,0.78125 z m 0.15625,3.09113 v -1.375 h 8.40625 v 1.375 z m 9.89062,-0.6875 q 0,-0.375 0.25,-0.64062 0.25,-0.25 0.65625,-0.25 0.42188,0 0.67188,0.25 0.25,0.26562 0.25,0.64062 0,0.35938 -0.25,0.625 -0.25,0.26563 -0.67188,0.26563 -0.40625,0 -0.65625,-0.26563 -0.25,-0.26562 -0.25,-0.625 z m -10.09375,5.74701 q 0,-0.875 0.32813,-1.45313 0.34375,-0.5625 0.92187,-0.92187 0.57813,-0.35938 1.375,-0.51563 0.8125,-0.15625 1.75,-0.15625 2.07813,0 3.25,0.75 1.1875,0.76563 1.1875,2.3125 0,0.45313 -0.10937,0.82813 -0.10938,0.375 -0.29688,0.6875 l -1.125,-0.35938 q 0.3125,-0.48437 0.3125,-1.09375 0,-0.85937 -0.78125,-1.28125 -0.78125,-0.40625 -2.4375,-0.40625 -0.6875,0 -1.28125,0.0781 -0.57812,0.0937 -1,0.28125 -0.40625,0.20312 -0.64062,0.53125 -0.23438,0.32812 -0.23438,0.84375 0,0.34375 0.0781,0.625 0.0937,0.28125 0.23437,0.54687 l -1.07812,0.29688 q -0.17188,-0.25 -0.3125,-0.6875 -0.14063,-0.42188 -0.14063,-0.90625 z m 8.42188,3.21051 q 0.1875,0.42187 0.28125,0.875 0.10937,0.46875 0.10937,1.01562 0,1.125 -0.70312,1.82813 -0.6875,0.70312 -2.15625,0.70312 h -5.57813 q -0.15625,-0.57812 -0.25,-1.1875 -0.0937,-0.59375 -0.0937,-1.17187 0,-0.57813 0.14063,-1.07813 0.14062,-0.5 0.45312,-0.875 0.32813,-0.375 0.8125,-0.60937 0.5,-0.21875 1.20313,-0.21875 0.65625,0 1.14062,0.20312 0.48438,0.20313 0.8125,0.54688 0.32813,0.35937 0.5,0.82812 0.17188,0.48438 0.17188,1.04688 0,0.53125 -0.14063,1.17187 h 0.78125 q 0.92188,0 1.28125,-0.35937 0.375,-0.35938 0.375,-1.03125 0,-0.375 -0.0781,-0.70313 -0.0625,-0.32812 -0.21875,-0.70312 z m -5.76563,0.65625 q -0.73437,0 -1.09375,0.375 -0.34375,0.39062 -0.34375,1.09375 0,0.4375 0.10938,0.95312 h 2.67187 q 0.125,-0.48437 0.125,-0.95312 0,-0.29688 -0.0781,-0.57813 -0.0625,-0.26562 -0.23438,-0.46875 -0.17187,-0.20312 -0.45312,-0.3125 -0.28125,-0.10937 -0.70313,-0.10937 z m -1.48437,7.33466 q 0,0.60937 0.34375,0.90625 0.34375,0.3125 0.90625,0.3125 0.35937,0 0.60937,-0.125 0.25,-0.125 0.4375,-0.34375 0.1875,-0.20313 0.34375,-0.46875 0.15625,-0.26563 0.32813,-0.54688 0.15625,-0.26562 0.375,-0.53125 0.21875,-0.25 0.5,-0.45312 0.28125,-0.20313 0.64062,-0.32813 0.35938,-0.10937 0.82813,-0.10937 1.04687,0 1.6875,0.64062 0.64062,0.65625 0.64062,1.76563 0,0.45312 -0.125,0.875 -0.10937,0.42187 -0.26562,0.6875 l -1.09375,-0.29688 q 0.15625,-0.29687 0.23437,-0.59375 0.0781,-0.28125 0.0781,-0.60937 0,-0.51563 -0.29688,-0.82813 -0.29687,-0.29687 -0.85937,-0.29687 -0.3125,0 -0.54688,0.10937 -0.23437,0.10938 -0.42187,0.29688 -0.17188,0.1875 -0.34375,0.42187 -0.15625,0.23438 -0.29688,0.48438 -0.17187,0.3125 -0.39062,0.59375 -0.20313,0.29687 -0.48438,0.53125 -0.28125,0.23437 -0.65625,0.375 -0.375,0.15625 -0.90625,0.15625 -1.09375,0 -1.76562,-0.65625 -0.67188,-0.64063 -0.67188,-1.89063 0,-0.64062 0.17188,-1.15625 0.17187,-0.51562 0.3125,-0.76562 l 1.14062,0.28125 q -0.125,0.25 -0.29687,0.65625 -0.15625,0.40625 -0.15625,0.90625 z m 4.46875,3.42474 v 2.95312 h -1.29688 v -2.95312 z"
       fill-rule="nonzero"
       id="path19" />
    <path
       fill="#f3f3f3"
       d="m 391.4734,304.17148 q -1.20312,0.39062 -2.4375,0.76562 -1.21875,0.375 -2.5625,0.73438 -1.34375,0.35937 -2.84375,0.71875 -1.5,0.35937 -3.25,0.73437 v -1.45312 q 0.71875,-0.125 1.42188,-0.26563 0.70312,-0.125 1.40625,-0.26562 v -3.5 q -0.70313,-0.15625 -1.40625,-0.28125 -0.70313,-0.125 -1.42188,-0.25 v -1.40625 q 1.75,0.35937 3.25,0.71875 1.5,0.375 2.84375,0.73437 1.34375,0.35938 2.5625,0.73438 1.23438,0.375 2.4375,0.76562 z m -1.64062,-0.78125 q -1.32813,-0.40625 -2.67188,-0.78125 -1.34375,-0.35938 -2.75,-0.6875 v 2.92187 q 1.40625,-0.3125 2.75,-0.6875 1.34375,-0.35937 2.67188,-0.76562 z m -9.65625,7.8605 q 0,-0.875 0.32812,-1.45312 0.34375,-0.5625 0.92188,-0.92188 0.57812,-0.35937 1.375,-0.51562 0.8125,-0.15625 1.75,-0.15625 2.07812,0 3.25,0.75 1.1875,0.76562 1.1875,2.3125 0,0.45312 -0.10938,0.82812 -0.10937,0.375 -0.29687,0.6875 l -1.125,-0.35937 q 0.3125,-0.48438 0.3125,-1.09375 0,-0.85938 -0.78125,-1.28125 -0.78125,-0.40625 -2.4375,-0.40625 -0.6875,0 -1.28125,0.0781 -0.57813,0.0937 -1,0.28125 -0.40625,0.20313 -0.64063,0.53125 -0.23437,0.32813 -0.23437,0.84375 0,0.34375 0.0781,0.625 0.0937,0.28125 0.23438,0.54688 l -1.07813,0.29687 q -0.17187,-0.25 -0.3125,-0.6875 -0.14062,-0.42187 -0.14062,-0.90625 z m 8.60937,8.28864 q -1.15625,-0.67188 -2.10937,-1.29688 -0.95313,-0.60937 -1.78125,-1.21875 -0.45313,0.375 -1.01563,0.78125 -0.5625,0.40625 -1.15625,0.76563 -0.59375,0.375 -1.20312,0.6875 -0.59375,0.32812 -1.14063,0.54687 v -1.5 q 0.53125,-0.25 1.10938,-0.5625 0.57812,-0.3125 1.125,-0.67187 0.54687,-0.35938 1.04687,-0.71875 0.5,-0.34375 0.82813,-0.64063 h -4.10938 v -1.375 h 12.17188 l 0.25,1.375 h -7.64063 q 0.39063,0.28125 0.85938,0.60938 0.48437,0.32812 0.96875,0.64062 0.5,0.32813 0.95312,0.60938 0.46875,0.29687 0.84375,0.48437 z m -7.4375,2.80078 q 0,0.60938 0.34375,0.90625 0.34375,0.3125 0.90625,0.3125 0.35938,0 0.60938,-0.125 0.25,-0.125 0.4375,-0.34375 0.1875,-0.20312 0.34375,-0.46875 0.15625,-0.26562 0.32812,-0.54687 0.15625,-0.26563 0.375,-0.53125 0.21875,-0.25 0.5,-0.45313 0.28125,-0.20312 0.64063,-0.32812 0.35937,-0.10938 0.82812,-0.10938 1.04688,0 1.6875,0.64063 0.64063,0.65625 0.64063,1.76562 0,0.45313 -0.125,0.875 -0.10938,0.42188 -0.26563,0.6875 l -1.09375,-0.29687 q 0.15625,-0.29688 0.23438,-0.59375 0.0781,-0.28125 0.0781,-0.60938 0,-0.51562 -0.29687,-0.82812 -0.29688,-0.29688 -0.85938,-0.29688 -0.3125,0 -0.54687,0.10938 -0.23438,0.10937 -0.42188,0.29687 -0.17187,0.1875 -0.34375,0.42188 -0.15625,0.23437 -0.29687,0.48437 -0.17188,0.3125 -0.39063,0.59375 -0.20312,0.29688 -0.48437,0.53125 -0.28125,0.23438 -0.65625,0.375 -0.375,0.15625 -0.90625,0.15625 -1.09375,0 -1.76563,-0.65625 -0.67187,-0.64062 -0.67187,-1.89062 0,-0.64063 0.17187,-1.15625 0.17188,-0.51563 0.3125,-0.76563 l 1.14063,0.28125 q -0.125,0.25 -0.29688,0.65625 -0.15625,0.40625 -0.15625,0.90625 z m 4.46875,3.42474 v 2.95313 h -1.29687 v -2.95313 z"
       fill-rule="nonzero"
       id="path21" />
    <path
       fill="#e06666"
       d="m 290.1922,275.28403 -48.92912,-48.92914 48.92912,-48.92914 v 24.46457 h 104.89764 v 48.92914 H 290.1922 Z"
       fill-rule="evenodd"
       id="path23" />
    <path
       fill="#000000"
       fill-opacity="0"
       d="m 291.14758,202.11867 h 103.93701 v 48.47244 H 291.14758 Z"
       fill-rule="evenodd"
       id="path25" />
    <path
       fill="#f3f3f3"
       d="m 292.49133,210.5568 q 1.125,-0.28125 2.1875,-0.28125 0.84375,0 1.51562,0.20312 0.6875,0.20313 1.17188,0.625 0.48437,0.42188 0.75,1.09375 0.26562,0.67188 0.26562,1.625 0,0.95313 -0.28125,1.64063 -0.26562,0.67187 -0.76562,1.09375 -0.48438,0.42187 -1.1875,0.625 -0.70313,0.1875 -1.54688,0.1875 h -0.67187 v 4.10937 h -1.4375 z m 1.4375,5.54687 h 0.57812 q 0.54688,0 0.98438,-0.10937 0.4375,-0.125 0.73437,-0.39063 0.3125,-0.28125 0.46875,-0.71875 0.17188,-0.4375 0.17188,-1.0625 0,-0.64062 -0.17188,-1.07812 -0.15625,-0.45313 -0.4375,-0.71875 -0.28125,-0.26563 -0.6875,-0.375 -0.39062,-0.10938 -0.875,-0.10938 -0.40625,0 -0.76562,0.0469 z m 6.03375,-2.84375 q 0.42188,-0.1875 0.875,-0.28125 0.46875,-0.10937 1.01563,-0.10937 1.125,0 1.82812,0.70312 0.70313,0.6875 0.70313,2.15625 v 5.57813 q -0.57813,0.15625 -1.1875,0.25 -0.59375,0.0937 -1.17188,0.0937 -0.57812,0 -1.07812,-0.14063 -0.5,-0.14062 -0.875,-0.45312 -0.375,-0.32813 -0.60938,-0.8125 -0.21875,-0.5 -0.21875,-1.20313 0,-0.65625 0.20313,-1.14062 0.20312,-0.48438 0.54687,-0.8125 0.35938,-0.32813 0.82813,-0.5 0.48437,-0.17188 1.04687,-0.17188 0.53125,0 1.17188,0.14063 v -0.78125 q 0,-0.92188 -0.35938,-1.28125 -0.35937,-0.375 -1.03125,-0.375 -0.375,0 -0.70312,0.0781 -0.32813,0.0625 -0.70313,0.21875 z m 0.65625,5.76563 q 0,0.73437 0.375,1.09375 0.39063,0.34375 1.09375,0.34375 0.4375,0 0.95313,-0.10938 v -2.67187 q -0.48438,-0.125 -0.95313,-0.125 -0.29687,0 -0.57812,0.0781 -0.26563,0.0625 -0.46875,0.23438 -0.20313,0.17187 -0.3125,0.45312 -0.10938,0.28125 -0.10938,0.70313 z m 9.78778,-4.70313 q -0.5,-0.21875 -1.14062,-0.21875 -0.59375,0 -1.10938,0.20313 v 7.17187 h -1.375 v -8.03125 q 0.46875,-0.21875 1.0625,-0.375 0.59375,-0.15625 1.3125,-0.15625 0.39063,0 0.76563,0.0469 0.39062,0.0469 0.73437,0.17187 z m 2.90427,-1.25 h 2.10937 v 1.1875 h -2.10937 v 4.625 q 0,0.85938 0.3125,1.20313 0.3125,0.34375 0.84375,0.34375 0.26562,0 0.51562,-0.0781 0.25,-0.0781 0.42188,-0.1875 l 0.26562,1.10938 q -0.65625,0.375 -1.39062,0.375 -1.1875,0 -1.76563,-0.65625 -0.57812,-0.67188 -0.57812,-2.20313 v -7.96875 l 1.375,-0.23437 z m 5.22977,8.40625 h -1.375 v -8.40625 h 1.375 z m -0.6875,-9.89062 q -0.375,0 -0.64063,-0.25 -0.25,-0.25 -0.25,-0.65625 0,-0.42188 0.25,-0.67188 0.26563,-0.25 0.64063,-0.25 0.35937,0 0.625,0.25 0.26562,0.25 0.26562,0.67188 0,0.40625 -0.26562,0.65625 -0.26563,0.25 -0.625,0.25 z m 4.46576,1.48437 h 2.10937 v 1.1875 h -2.10937 v 4.625 q 0,0.85938 0.3125,1.20313 0.3125,0.34375 0.84375,0.34375 0.26562,0 0.51562,-0.0781 0.25,-0.0781 0.42188,-0.1875 l 0.26562,1.10938 q -0.65625,0.375 -1.39062,0.375 -1.1875,0 -1.76563,-0.65625 -0.57812,-0.67188 -0.57812,-2.20313 v -7.96875 l 1.375,-0.23437 z m 5.22976,8.40625 h -1.375 v -8.40625 h 1.375 z m -0.6875,-9.89062 q -0.375,0 -0.64062,-0.25 -0.25,-0.25 -0.25,-0.65625 0,-0.42188 0.25,-0.67188 0.26562,-0.25 0.64062,-0.25 0.35938,0 0.625,0.25 0.26563,0.25 0.26563,0.67188 0,0.40625 -0.26563,0.65625 -0.26562,0.25 -0.625,0.25 z m 8.57514,5.70312 q 0,0.98438 -0.1875,1.79688 -0.17188,0.8125 -0.53125,1.39062 -0.35938,0.5625 -0.90625,0.89063 -0.54688,0.3125 -1.29688,0.3125 -0.76562,0 -1.32812,-0.3125 -0.54688,-0.32813 -0.90625,-0.89063 -0.35938,-0.57812 -0.54688,-1.39062 -0.17187,-0.8125 -0.17187,-1.79688 0,-0.98437 0.17187,-1.79687 0.1875,-0.8125 0.54688,-1.39063 0.35937,-0.59375 0.90625,-0.90625 0.5625,-0.32812 1.32812,-0.32812 0.75,0 1.29688,0.32812 0.54687,0.3125 0.90625,0.90625 0.35937,0.57813 0.53125,1.39063 0.1875,0.8125 0.1875,1.79687 z m -1.4375,0 q 0,-0.70312 -0.0781,-1.28125 -0.0781,-0.59375 -0.26562,-1.01562 -0.17188,-0.42188 -0.46875,-0.65625 -0.28125,-0.23438 -0.67188,-0.23438 -0.42187,0 -0.70312,0.23438 -0.28125,0.23437 -0.46875,0.65625 -0.17188,0.42187 -0.26563,1.01562 -0.0781,0.57813 -0.0781,1.28125 0,0.70313 0.0781,1.29688 0.0937,0.57812 0.26563,1 0.1875,0.40625 0.46875,0.64062 0.28125,0.21875 0.70312,0.21875 0.39063,0 0.67188,-0.21875 0.29687,-0.23437 0.46875,-0.64062 0.1875,-0.42188 0.26562,-1 0.0781,-0.59375 0.0781,-1.29688 z m 3.45489,-3.96875 q 0.59375,-0.1875 1.28125,-0.29687 0.6875,-0.125 1.26563,-0.125 0.625,0 1.125,0.17187 0.51562,0.17188 0.875,0.57813 0.35937,0.39062 0.5625,1.07812 0.20312,0.67188 0.20312,1.67188 v 5.07812 h -1.375 v -4.95312 q 0,-1.25 -0.32812,-1.82813 -0.3125,-0.57812 -1.20313,-0.57812 -0.45312,0 -1.03125,0.15625 v 7.20312 h -1.375 z m 8.88388,7.1875 q 0.60938,0 0.90625,-0.34375 0.3125,-0.34375 0.3125,-0.90625 0,-0.35937 -0.125,-0.60937 -0.125,-0.25 -0.34375,-0.4375 -0.20312,-0.1875 -0.46875,-0.34375 -0.26562,-0.15625 -0.54687,-0.32813 -0.26563,-0.15625 -0.53125,-0.375 -0.25,-0.21875 -0.45313,-0.5 -0.20312,-0.28125 -0.32812,-0.64062 -0.10938,-0.35938 -0.10938,-0.82813 0,-1.04687 0.64063,-1.6875 0.65625,-0.64062 1.76562,-0.64062 0.45313,0 0.875,0.125 0.42188,0.10937 0.6875,0.26562 l -0.29687,1.09375 q -0.29688,-0.15625 -0.59375,-0.23437 -0.28125,-0.0781 -0.60938,-0.0781 -0.51562,0 -0.82812,0.29688 -0.29688,0.29687 -0.29688,0.85937 0,0.3125 0.10938,0.54688 0.10937,0.23437 0.29687,0.42187 0.1875,0.17188 0.42188,0.34375 0.23437,0.15625 0.48437,0.29688 0.3125,0.17187 0.59375,0.39062 0.29688,0.20313 0.53125,0.48438 0.23438,0.28125 0.375,0.65625 0.15625,0.375 0.15625,0.90625 0,1.09375 -0.65625,1.76562 -0.64062,0.67188 -1.89062,0.67188 -0.64063,0 -1.15625,-0.17188 -0.51563,-0.17187 -0.76563,-0.3125 l 0.28125,-1.14062 q 0.25,0.125 0.65625,0.29687 0.40625,0.15625 0.90625,0.15625 z m 3.42478,-4.46875 h 2.95312 v 1.29688 h -2.95312 z"
       fill-rule="nonzero"
       id="path27" />
    <path
       fill="#f3f3f3"
       d="m 293.92883,234.30367 h 1 q 1.98437,0 1.98437,-1.78125 0,-0.5625 -0.17187,-0.92188 -0.17188,-0.35937 -0.45313,-0.5625 -0.26562,-0.20312 -0.625,-0.28125 -0.35937,-0.0781 -0.75,-0.0781 -0.25,0 -0.5,0.0156 -0.23437,0.0156 -0.48437,0.0469 z m 0,1.15625 v 4 q 0.3125,0.0469 0.60937,0.0781 0.29688,0.0312 0.57813,0.0312 0.45312,0 0.84375,-0.0937 0.40625,-0.0937 0.70312,-0.3125 0.29688,-0.23437 0.45313,-0.625 0.17187,-0.39062 0.17187,-0.96875 0,-0.98437 -0.53125,-1.54687 -0.53125,-0.5625 -1.67187,-0.5625 z m -1.4375,-5.70313 q 0.5625,-0.14062 1.14062,-0.20312 0.59375,-0.0781 1.15625,-0.0781 0.73438,0 1.375,0.14063 0.64063,0.14062 1.14063,0.46875 0.5,0.32812 0.79687,0.85937 0.29688,0.53125 0.29688,1.32813 0,1 -0.42188,1.64062 -0.40625,0.625 -1.0625,0.92188 0.8125,0.32812 1.32813,0.98437 0.53125,0.65625 0.53125,1.79688 0,0.875 -0.28125,1.46875 -0.26563,0.57812 -0.78125,0.96875 -0.51563,0.375 -1.23438,0.54687 -0.70312,0.15625 -1.54687,0.15625 -0.5625,0 -1.17188,-0.0625 -0.60937,-0.0625 -1.26562,-0.1875 z m 8.36728,2.70313 q 0.42187,-0.1875 0.875,-0.28125 0.46875,-0.10938 1.01562,-0.10938 1.125,0 1.82813,0.70313 0.70312,0.6875 0.70312,2.15625 v 5.57812 q -0.57812,0.15625 -1.1875,0.25 -0.59375,0.0937 -1.17187,0.0937 -0.57813,0 -1.07813,-0.14062 -0.5,-0.14063 -0.875,-0.45313 -0.375,-0.32812 -0.60937,-0.8125 -0.21875,-0.5 -0.21875,-1.20312 0,-0.65625 0.20312,-1.14063 0.20313,-0.48437 0.54688,-0.8125 0.35937,-0.32812 0.82812,-0.5 0.48438,-0.17187 1.04688,-0.17187 0.53125,0 1.17187,0.14062 v -0.78125 q 0,-0.92187 -0.35937,-1.28125 -0.35938,-0.375 -1.03125,-0.375 -0.375,0 -0.70313,0.0781 -0.32812,0.0625 -0.70312,0.21875 z m 0.65625,5.76562 q 0,0.73438 0.375,1.09375 0.39062,0.34375 1.09375,0.34375 0.4375,0 0.95312,-0.10937 v -2.67188 q -0.48437,-0.125 -0.95312,-0.125 -0.29688,0 -0.57813,0.0781 -0.26562,0.0625 -0.46875,0.23437 -0.20312,0.17188 -0.3125,0.45313 -0.10937,0.28125 -0.10937,0.70312 z m 7.444,-5.95312 h 2.10937 v 1.1875 h -2.10937 v 4.625 q 0,0.85937 0.3125,1.20312 0.3125,0.34375 0.84375,0.34375 0.26562,0 0.51562,-0.0781 0.25,-0.0781 0.42188,-0.1875 l 0.26562,1.10937 q -0.65625,0.375 -1.39062,0.375 -1.1875,0 -1.76563,-0.65625 -0.57812,-0.67187 -0.57812,-2.20312 v -7.96875 l 1.375,-0.23438 z m 6.33728,8.60937 q -0.875,0 -1.45313,-0.32812 -0.5625,-0.34375 -0.92187,-0.92188 -0.35938,-0.57812 -0.51563,-1.375 -0.15625,-0.8125 -0.15625,-1.75 0,-2.07812 0.75,-3.25 0.76563,-1.1875 2.3125,-1.1875 0.45313,0 0.82813,0.10938 0.375,0.10937 0.6875,0.29687 l -0.35938,1.125 q -0.48437,-0.3125 -1.09375,-0.3125 -0.85937,0 -1.28125,0.78125 -0.40625,0.78125 -0.40625,2.4375 0,0.6875 0.0781,1.28125 0.0937,0.57813 0.28125,1 0.20312,0.40625 0.53125,0.64063 0.32812,0.23437 0.84375,0.23437 0.34375,0 0.625,-0.0781 0.28125,-0.0937 0.54687,-0.23438 l 0.29688,1.07813 q -0.25,0.17187 -0.6875,0.3125 -0.42188,0.14062 -0.90625,0.14062 z m 3.08551,-0.20312 v -12.17188 l 1.375,-0.25 v 4.0625 q 0.29687,-0.0937 0.65625,-0.15625 0.35937,-0.0625 0.73437,-0.0625 0.53125,0 0.98438,0.17188 0.46875,0.17187 0.8125,0.57812 0.34375,0.39063 0.54687,1.07813 0.20313,0.67187 0.20313,1.67187 v 5.07813 h -1.375 v -4.95313 q 0,-1.25 -0.32813,-1.82812 -0.3125,-0.57813 -1.20312,-0.57813 -0.45313,0 -1.03125,0.15625 v 7.20313 z m 12.00391,-0.96875 q 0.60937,0 0.90625,-0.34375 0.3125,-0.34375 0.3125,-0.90625 0,-0.35938 -0.125,-0.60938 -0.125,-0.25 -0.34375,-0.4375 -0.20313,-0.1875 -0.46875,-0.34375 -0.26563,-0.15625 -0.54688,-0.32812 -0.26562,-0.15625 -0.53125,-0.375 -0.25,-0.21875 -0.45312,-0.5 -0.20313,-0.28125 -0.32813,-0.64063 -0.10937,-0.35937 -0.10937,-0.82812 0,-1.04688 0.64062,-1.6875 0.65625,-0.64063 1.76563,-0.64063 0.45312,0 0.875,0.125 0.42187,0.10938 0.6875,0.26563 l -0.29688,1.09375 q -0.29687,-0.15625 -0.59375,-0.23438 -0.28125,-0.0781 -0.60937,-0.0781 -0.51563,0 -0.82813,0.29687 -0.29687,0.29688 -0.29687,0.85938 0,0.3125 0.10937,0.54687 0.10938,0.23438 0.29688,0.42188 0.1875,0.17187 0.42187,0.34375 0.23438,0.15625 0.48438,0.29687 0.3125,0.17188 0.59375,0.39063 0.29687,0.20312 0.53125,0.48437 0.23437,0.28125 0.375,0.65625 0.15625,0.375 0.15625,0.90625 0,1.09375 -0.65625,1.76563 -0.64063,0.67187 -1.89063,0.67187 -0.64062,0 -1.15625,-0.17187 -0.51562,-0.17188 -0.76562,-0.3125 l 0.28125,-1.14063 q 0.25,0.125 0.65625,0.29688 0.40625,0.15625 0.90625,0.15625 z m 5.65911,0.96875 h -1.375 v -8.40625 h 1.375 z m -0.6875,-9.89063 q -0.375,0 -0.64062,-0.25 -0.25,-0.25 -0.25,-0.65625 0,-0.42187 0.25,-0.67187 0.26562,-0.25 0.64062,-0.25 0.35938,0 0.625,0.25 0.26563,0.25 0.26563,0.67187 0,0.40625 -0.26563,0.65625 -0.26562,0.25 -0.625,0.25 z m 7.04389,2.51563 q -0.35938,0.59375 -0.8125,1.40625 -0.4375,0.8125 -0.89063,1.67187 -0.4375,0.85938 -0.82812,1.6875 -0.39063,0.8125 -0.625,1.42188 h 3.26562 v 1.1875 h -4.6875 v -0.98438 q 0.25,-0.71875 0.64063,-1.57812 0.40625,-0.85938 0.84375,-1.71875 0.45312,-0.875 0.875,-1.64063 0.42187,-0.78125 0.71875,-1.29687 h -2.89063 v -1.1875 h 4.39063 z m 2.61413,3.57812 q 0.0156,0.60938 0.10938,1.125 0.10937,0.5 0.3125,0.875 0.21875,0.375 0.57812,0.57813 0.35938,0.20312 0.92188,0.20312 0.46875,0 0.85937,-0.125 0.39063,-0.14062 0.5625,-0.23437 l 0.26563,1.10937 q -0.21875,0.14063 -0.70313,0.29688 -0.48437,0.17187 -1.15625,0.17187 -0.875,0 -1.48437,-0.3125 -0.59375,-0.32812 -0.96875,-0.89062 -0.375,-0.57813 -0.54688,-1.375 -0.15625,-0.8125 -0.15625,-1.76563 0,-2.32812 0.76563,-3.39062 0.76562,-1.07813 2.03125,-1.07813 1.4375,0 2.01562,1.07813 0.59375,1.0625 0.59375,3 0,0.17187 0,0.35937 0,0.1875 -0.0156,0.375 z m 1.39063,-3.64062 q -0.6875,0 -1,0.6875 -0.3125,0.6875 -0.375,1.84375 h 2.54687 q 0,-1.17188 -0.25,-1.84375 -0.23437,-0.6875 -0.92187,-0.6875 z m 3.78851,2 h 2.95313 v 1.29687 h -2.95313 z"
       fill-rule="nonzero"
       id="path29" />
    <path
       fill="#e06666"
       d="m 499.21518,177.42575 48.92917,48.92914 -48.92917,48.92914 V 250.81946 H 394.34906 v -48.92914 h 104.86612 z"
       fill-rule="evenodd"
       id="path31" />
    <path
       fill="#000000"
       fill-opacity="0"
       d="m 395.08395,202.11867 h 103.18109 v 48.47244 H 395.08395 Z"
       fill-rule="evenodd"
       id="path33" />
    <path
       fill="#f3f3f3"
       d="m 434.50464,210.5568 q 1.125,-0.28125 2.1875,-0.28125 0.84375,0 1.51562,0.20312 0.6875,0.20313 1.17188,0.625 0.48437,0.42188 0.75,1.09375 0.26562,0.67188 0.26562,1.625 0,0.95313 -0.28125,1.64063 -0.26562,0.67187 -0.76562,1.09375 -0.48438,0.42187 -1.1875,0.625 -0.70313,0.1875 -1.54688,0.1875 h -0.67187 v 4.10937 h -1.4375 z m 1.4375,5.54687 h 0.57812 q 0.54688,0 0.98438,-0.10937 0.4375,-0.125 0.73437,-0.39063 0.3125,-0.28125 0.46875,-0.71875 0.17188,-0.4375 0.17188,-1.0625 0,-0.64062 -0.17188,-1.07812 -0.15625,-0.45313 -0.4375,-0.71875 -0.28125,-0.26563 -0.6875,-0.375 -0.39062,-0.10938 -0.875,-0.10938 -0.40625,0 -0.76562,0.0469 z m 6.03375,-2.84375 q 0.42188,-0.1875 0.875,-0.28125 0.46875,-0.10937 1.01563,-0.10937 1.125,0 1.82812,0.70312 0.70313,0.6875 0.70313,2.15625 v 5.57813 q -0.57813,0.15625 -1.1875,0.25 -0.59375,0.0937 -1.17188,0.0937 -0.57812,0 -1.07812,-0.14063 -0.5,-0.14062 -0.875,-0.45312 -0.375,-0.32813 -0.60938,-0.8125 -0.21875,-0.5 -0.21875,-1.20313 0,-0.65625 0.20313,-1.14062 0.20312,-0.48438 0.54687,-0.8125 0.35938,-0.32813 0.82813,-0.5 0.48437,-0.17188 1.04687,-0.17188 0.53125,0 1.17188,0.14063 v -0.78125 q 0,-0.92188 -0.35938,-1.28125 -0.35937,-0.375 -1.03125,-0.375 -0.375,0 -0.70312,0.0781 -0.32813,0.0625 -0.70313,0.21875 z m 0.65625,5.76563 q 0,0.73437 0.375,1.09375 0.39063,0.34375 1.09375,0.34375 0.4375,0 0.95313,-0.10938 v -2.67187 q -0.48438,-0.125 -0.95313,-0.125 -0.29687,0 -0.57812,0.0781 -0.26563,0.0625 -0.46875,0.23438 -0.20313,0.17187 -0.3125,0.45312 -0.10938,0.28125 -0.10938,0.70313 z m 9.78775,-4.70313 q -0.5,-0.21875 -1.14062,-0.21875 -0.59375,0 -1.10938,0.20313 v 7.17187 h -1.375 v -8.03125 q 0.46875,-0.21875 1.0625,-0.375 0.59375,-0.15625 1.3125,-0.15625 0.39063,0 0.76563,0.0469 0.39062,0.0469 0.73437,0.17187 z m 2.90427,-1.25 h 2.10937 v 1.1875 h -2.10937 v 4.625 q 0,0.85938 0.3125,1.20313 0.3125,0.34375 0.84375,0.34375 0.26562,0 0.51562,-0.0781 0.25,-0.0781 0.42188,-0.1875 l 0.26562,1.10938 q -0.65625,0.375 -1.39062,0.375 -1.1875,0 -1.76563,-0.65625 -0.57812,-0.67188 -0.57812,-2.20313 v -7.96875 l 1.375,-0.23437 z m 5.22977,8.40625 h -1.375 v -8.40625 h 1.375 z m -0.6875,-9.89062 q -0.375,0 -0.64063,-0.25 -0.25,-0.25 -0.25,-0.65625 0,-0.42188 0.25,-0.67188 0.26563,-0.25 0.64063,-0.25 0.35937,0 0.625,0.25 0.26562,0.25 0.26562,0.67188 0,0.40625 -0.26562,0.65625 -0.26563,0.25 -0.625,0.25 z m 4.46576,1.48437 h 2.10937 v 1.1875 h -2.10937 v 4.625 q 0,0.85938 0.3125,1.20313 0.3125,0.34375 0.84375,0.34375 0.26562,0 0.51562,-0.0781 0.25,-0.0781 0.42188,-0.1875 l 0.26562,1.10938 q -0.65625,0.375 -1.39062,0.375 -1.1875,0 -1.76563,-0.65625 -0.57812,-0.67188 -0.57812,-2.20313 v -7.96875 l 1.375,-0.23437 z m 5.22976,8.40625 h -1.375 v -8.40625 h 1.375 z m -0.6875,-9.89062 q -0.375,0 -0.64062,-0.25 -0.25,-0.25 -0.25,-0.65625 0,-0.42188 0.25,-0.67188 0.26562,-0.25 0.64062,-0.25 0.35938,0 0.625,0.25 0.26563,0.25 0.26563,0.67188 0,0.40625 -0.26563,0.65625 -0.26562,0.25 -0.625,0.25 z m 8.57514,5.70312 q 0,0.98438 -0.1875,1.79688 -0.17188,0.8125 -0.53125,1.39062 -0.35938,0.5625 -0.90625,0.89063 -0.54688,0.3125 -1.29688,0.3125 -0.76562,0 -1.32812,-0.3125 -0.54688,-0.32813 -0.90625,-0.89063 -0.35938,-0.57812 -0.54688,-1.39062 -0.17187,-0.8125 -0.17187,-1.79688 0,-0.98437 0.17187,-1.79687 0.1875,-0.8125 0.54688,-1.39063 0.35937,-0.59375 0.90625,-0.90625 0.5625,-0.32812 1.32812,-0.32812 0.75,0 1.29688,0.32812 0.54687,0.3125 0.90625,0.90625 0.35937,0.57813 0.53125,1.39063 0.1875,0.8125 0.1875,1.79687 z m -1.4375,0 q 0,-0.70312 -0.0781,-1.28125 -0.0781,-0.59375 -0.26562,-1.01562 -0.17188,-0.42188 -0.46875,-0.65625 -0.28125,-0.23438 -0.67188,-0.23438 -0.42187,0 -0.70312,0.23438 -0.28125,0.23437 -0.46875,0.65625 -0.17188,0.42187 -0.26563,1.01562 -0.0781,0.57813 -0.0781,1.28125 0,0.70313 0.0781,1.29688 0.0937,0.57812 0.26563,1 0.1875,0.40625 0.46875,0.64062 0.28125,0.21875 0.70312,0.21875 0.39063,0 0.67188,-0.21875 0.29687,-0.23437 0.46875,-0.64062 0.1875,-0.42188 0.26562,-1 0.0781,-0.59375 0.0781,-1.29688 z m 3.45489,-3.96875 q 0.59375,-0.1875 1.28125,-0.29687 0.6875,-0.125 1.26563,-0.125 0.625,0 1.125,0.17187 0.51562,0.17188 0.875,0.57813 0.35937,0.39062 0.5625,1.07812 0.20312,0.67188 0.20312,1.67188 v 5.07812 h -1.375 v -4.95312 q 0,-1.25 -0.32812,-1.82813 -0.3125,-0.57812 -1.20313,-0.57812 -0.45312,0 -1.03125,0.15625 v 7.20312 h -1.375 z m 8.88391,7.1875 q 0.60938,0 0.90625,-0.34375 0.3125,-0.34375 0.3125,-0.90625 0,-0.35937 -0.125,-0.60937 -0.125,-0.25 -0.34375,-0.4375 -0.20312,-0.1875 -0.46875,-0.34375 -0.26562,-0.15625 -0.54687,-0.32813 -0.26563,-0.15625 -0.53125,-0.375 -0.25,-0.21875 -0.45313,-0.5 -0.20312,-0.28125 -0.32812,-0.64062 -0.10938,-0.35938 -0.10938,-0.82813 0,-1.04687 0.64063,-1.6875 0.65625,-0.64062 1.76562,-0.64062 0.45313,0 0.875,0.125 0.42188,0.10937 0.6875,0.26562 l -0.29687,1.09375 q -0.29688,-0.15625 -0.59375,-0.23437 -0.28125,-0.0781 -0.60938,-0.0781 -0.51562,0 -0.82812,0.29688 -0.29688,0.29687 -0.29688,0.85937 0,0.3125 0.10938,0.54688 0.10937,0.23437 0.29687,0.42187 0.1875,0.17188 0.42188,0.34375 0.23437,0.15625 0.48437,0.29688 0.3125,0.17187 0.59375,0.39062 0.29688,0.20313 0.53125,0.48438 0.23438,0.28125 0.375,0.65625 0.15625,0.375 0.15625,0.90625 0,1.09375 -0.65625,1.76562 -0.64062,0.67188 -1.89062,0.67188 -0.64063,0 -1.15625,-0.17188 -0.51563,-0.17187 -0.76563,-0.3125 l 0.28125,-1.14062 q 0.25,0.125 0.65625,0.29687 0.40625,0.15625 0.90625,0.15625 z m 3.72162,-4.40625 h 2.15625 v -2.3125 h 1.1875 v 2.3125 h 2.15625 v 1.17188 h -2.15625 v 2.3125 h -1.1875 v -2.3125 h -2.15625 z"
       fill-rule="nonzero"
       id="path35" />
    <path
       fill="#f3f3f3"
       d="m 435.51013,234.30367 h 1 q 1.98437,0 1.98437,-1.78125 0,-0.5625 -0.17187,-0.92188 -0.17188,-0.35937 -0.45313,-0.5625 -0.26562,-0.20312 -0.625,-0.28125 -0.35937,-0.0781 -0.75,-0.0781 -0.25,0 -0.5,0.0156 -0.23437,0.0156 -0.48437,0.0469 z m 0,1.15625 v 4 q 0.3125,0.0469 0.60937,0.0781 0.29688,0.0312 0.57813,0.0312 0.45312,0 0.84375,-0.0937 0.40625,-0.0937 0.70312,-0.3125 0.29688,-0.23437 0.45313,-0.625 0.17187,-0.39062 0.17187,-0.96875 0,-0.98437 -0.53125,-1.54687 -0.53125,-0.5625 -1.67187,-0.5625 z m -1.4375,-5.70313 q 0.5625,-0.14062 1.14062,-0.20312 0.59375,-0.0781 1.15625,-0.0781 0.73438,0 1.375,0.14063 0.64063,0.14062 1.14063,0.46875 0.5,0.32812 0.79687,0.85937 0.29688,0.53125 0.29688,1.32813 0,1 -0.42188,1.64062 -0.40625,0.625 -1.0625,0.92188 0.8125,0.32812 1.32813,0.98437 0.53125,0.65625 0.53125,1.79688 0,0.875 -0.28125,1.46875 -0.26563,0.57812 -0.78125,0.96875 -0.51563,0.375 -1.23438,0.54687 -0.70312,0.15625 -1.54687,0.15625 -0.5625,0 -1.17188,-0.0625 -0.60937,-0.0625 -1.26562,-0.1875 z m 8.36728,2.70313 q 0.42187,-0.1875 0.875,-0.28125 0.46875,-0.10938 1.01562,-0.10938 1.125,0 1.82813,0.70313 0.70312,0.6875 0.70312,2.15625 v 5.57812 q -0.57812,0.15625 -1.1875,0.25 -0.59375,0.0937 -1.17187,0.0937 -0.57813,0 -1.07813,-0.14062 -0.5,-0.14063 -0.875,-0.45313 -0.375,-0.32812 -0.60937,-0.8125 -0.21875,-0.5 -0.21875,-1.20312 0,-0.65625 0.20312,-1.14063 0.20313,-0.48437 0.54688,-0.8125 0.35937,-0.32812 0.82812,-0.5 0.48438,-0.17187 1.04688,-0.17187 0.53125,0 1.17187,0.14062 v -0.78125 q 0,-0.92187 -0.35937,-1.28125 -0.35938,-0.375 -1.03125,-0.375 -0.375,0 -0.70313,0.0781 -0.32812,0.0625 -0.70312,0.21875 z m 0.65625,5.76562 q 0,0.73438 0.375,1.09375 0.39062,0.34375 1.09375,0.34375 0.4375,0 0.95312,-0.10937 v -2.67188 q -0.48437,-0.125 -0.95312,-0.125 -0.29688,0 -0.57813,0.0781 -0.26562,0.0625 -0.46875,0.23437 -0.20312,0.17188 -0.3125,0.45313 -0.10937,0.28125 -0.10937,0.70312 z m 7.444,-5.95312 h 2.10937 v 1.1875 h -2.10937 v 4.625 q 0,0.85937 0.3125,1.20312 0.3125,0.34375 0.84375,0.34375 0.26562,0 0.51562,-0.0781 0.25,-0.0781 0.42188,-0.1875 l 0.26562,1.10937 q -0.65625,0.375 -1.39062,0.375 -1.1875,0 -1.76563,-0.65625 -0.57812,-0.67187 -0.57812,-2.20312 v -7.96875 l 1.375,-0.23438 z m 6.33728,8.60937 q -0.875,0 -1.45313,-0.32812 -0.5625,-0.34375 -0.92187,-0.92188 -0.35938,-0.57812 -0.51563,-1.375 -0.15625,-0.8125 -0.15625,-1.75 0,-2.07812 0.75,-3.25 0.76563,-1.1875 2.3125,-1.1875 0.45313,0 0.82813,0.10938 0.375,0.10937 0.6875,0.29687 l -0.35938,1.125 q -0.48437,-0.3125 -1.09375,-0.3125 -0.85937,0 -1.28125,0.78125 -0.40625,0.78125 -0.40625,2.4375 0,0.6875 0.0781,1.28125 0.0937,0.57813 0.28125,1 0.20312,0.40625 0.53125,0.64063 0.32812,0.23437 0.84375,0.23437 0.34375,0 0.625,-0.0781 0.28125,-0.0937 0.54687,-0.23438 l 0.29688,1.07813 q -0.25,0.17187 -0.6875,0.3125 -0.42188,0.14062 -0.90625,0.14062 z m 3.08551,-0.20312 v -12.17188 l 1.375,-0.25 v 4.0625 q 0.29687,-0.0937 0.65625,-0.15625 0.35937,-0.0625 0.73437,-0.0625 0.53125,0 0.98438,0.17188 0.46875,0.17187 0.8125,0.57812 0.34375,0.39063 0.54687,1.07813 0.20313,0.67187 0.20313,1.67187 v 5.07813 h -1.375 v -4.95313 q 0,-1.25 -0.32813,-1.82812 -0.3125,-0.57813 -1.20312,-0.57813 -0.45313,0 -1.03125,0.15625 v 7.20313 z m 12.00391,-0.96875 q 0.60937,0 0.90625,-0.34375 0.3125,-0.34375 0.3125,-0.90625 0,-0.35938 -0.125,-0.60938 -0.125,-0.25 -0.34375,-0.4375 -0.20313,-0.1875 -0.46875,-0.34375 -0.26563,-0.15625 -0.54688,-0.32812 -0.26562,-0.15625 -0.53125,-0.375 -0.25,-0.21875 -0.45312,-0.5 -0.20313,-0.28125 -0.32813,-0.64063 -0.10937,-0.35937 -0.10937,-0.82812 0,-1.04688 0.64062,-1.6875 0.65625,-0.64063 1.76563,-0.64063 0.45312,0 0.875,0.125 0.42187,0.10938 0.6875,0.26563 l -0.29688,1.09375 q -0.29687,-0.15625 -0.59375,-0.23438 -0.28125,-0.0781 -0.60937,-0.0781 -0.51563,0 -0.82813,0.29687 -0.29687,0.29688 -0.29687,0.85938 0,0.3125 0.10937,0.54687 0.10938,0.23438 0.29688,0.42188 0.1875,0.17187 0.42187,0.34375 0.23438,0.15625 0.48438,0.29687 0.3125,0.17188 0.59375,0.39063 0.29687,0.20312 0.53125,0.48437 0.23437,0.28125 0.375,0.65625 0.15625,0.375 0.15625,0.90625 0,1.09375 -0.65625,1.76563 -0.64063,0.67187 -1.89063,0.67187 -0.64062,0 -1.15625,-0.17187 -0.51562,-0.17188 -0.76562,-0.3125 l 0.28125,-1.14063 q 0.25,0.125 0.65625,0.29688 0.40625,0.15625 0.90625,0.15625 z m 5.65911,0.96875 h -1.375 v -8.40625 h 1.375 z m -0.6875,-9.89063 q -0.375,0 -0.64062,-0.25 -0.25,-0.25 -0.25,-0.65625 0,-0.42187 0.25,-0.67187 0.26562,-0.25 0.64062,-0.25 0.35938,0 0.625,0.25 0.26563,0.25 0.26563,0.67187 0,0.40625 -0.26563,0.65625 -0.26562,0.25 -0.625,0.25 z m 7.04389,2.51563 q -0.35938,0.59375 -0.8125,1.40625 -0.4375,0.8125 -0.89063,1.67187 -0.4375,0.85938 -0.82812,1.6875 -0.39063,0.8125 -0.625,1.42188 h 3.26562 v 1.1875 h -4.6875 v -0.98438 q 0.25,-0.71875 0.64063,-1.57812 0.40625,-0.85938 0.84375,-1.71875 0.45312,-0.875 0.875,-1.64063 0.42187,-0.78125 0.71875,-1.29687 h -2.89063 v -1.1875 h 4.39063 z m 2.61413,3.57812 q 0.0156,0.60938 0.10938,1.125 0.10937,0.5 0.3125,0.875 0.21875,0.375 0.57812,0.57813 0.35938,0.20312 0.92188,0.20312 0.46875,0 0.85937,-0.125 0.39063,-0.14062 0.5625,-0.23437 l 0.26563,1.10937 q -0.21875,0.14063 -0.70313,0.29688 -0.48437,0.17187 -1.15625,0.17187 -0.875,0 -1.48437,-0.3125 -0.59375,-0.32812 -0.96875,-0.89062 -0.375,-0.57813 -0.54688,-1.375 -0.15625,-0.8125 -0.15625,-1.76563 0,-2.32812 0.76563,-3.39062 0.76562,-1.07813 2.03125,-1.07813 1.4375,0 2.01562,1.07813 0.59375,1.0625 0.59375,3 0,0.17187 0,0.35937 0,0.1875 -0.0156,0.375 z m 1.39063,-3.64062 q -0.6875,0 -1,0.6875 -0.3125,0.6875 -0.375,1.84375 h 2.54687 q 0,-1.17188 -0.25,-1.84375 -0.23437,-0.6875 -0.92187,-0.6875 z m 4.08539,2.0625 h 2.15625 v -2.3125 h 1.1875 v 2.3125 h 2.15625 v 1.17187 h -2.15625 v 2.3125 h -1.1875 v -2.3125 h -2.15625 z"
       fill-rule="nonzero"
       id="path37" />
    <path
       fill="#000000"
       fill-opacity="0"
       d="M 305.01837,29.343832 H 484.38846 V 71.359579 H 305.01837 Z"
       fill-rule="evenodd"
       id="path39" />
    <path
       fill="#f3f3f3"
       d="m 326.9895,49.795082 q 0,1.796875 -0.39062,3.0625 -0.375,1.265625 -1.09375,2.046875 -0.71875,0.78125 -1.73438,1.140625 -1.01562,0.34375 -2.26562,0.34375 -1.26563,0 -2.6875,-0.328125 V 43.513832 q 0.70312,-0.140625 1.375,-0.234375 0.67187,-0.09375 1.29687,-0.09375 1.26563,0 2.28125,0.359375 1.01563,0.34375 1.73438,1.140625 0.71875,0.78125 1.09375,2.046875 0.39062,1.25 0.39062,3.0625 z m -1.79687,0 q 0,-1.390625 -0.20313,-2.359375 -0.20312,-0.96875 -0.64062,-1.578125 -0.42188,-0.625 -1.125,-0.890625 -0.6875,-0.28125 -1.65625,-0.28125 -0.26563,0 -0.53125,0.01563 -0.26563,0.01563 -0.53125,0.04687 v 10.078125 q 0.26562,0.03125 0.53125,0.0625 0.26562,0.01563 0.5,0.01563 1,0 1.6875,-0.28125 0.6875,-0.28125 1.125,-0.890625 0.4375,-0.609375 0.64062,-1.578125 0.20313,-0.96875 0.20313,-2.359375 z m 10.33975,6.1875 q -0.23438,0.09375 -0.59375,0.1875 -0.34375,0.07813 -0.71875,0.140625 -0.375,0.0625 -0.76563,0.109375 -0.375,0.04687 -0.70312,0.04687 -0.76563,0 -1.40625,-0.1875 -0.625,-0.171875 -1.07813,-0.609375 -0.4375,-0.453125 -0.6875,-1.21875 -0.23437,-0.78125 -0.23437,-1.953125 v -6.03125 h 1.59375 v 5.96875 q 0,1.4375 0.4375,2.03125 0.45312,0.578125 1.34375,0.578125 0.29687,0 0.59375,-0.01563 0.29687,-0.03125 0.60937,-0.125 v -8.4375 h 1.60938 z m 7.12686,-8.0625 q -0.59375,-0.25 -1.34375,-0.25 -0.6875,0 -1.28125,0.234375 v 8.359375 h -1.60938 v -9.359375 q 0.54688,-0.265625 1.23438,-0.4375 0.70312,-0.1875 1.54687,-0.1875 0.45313,0 0.89063,0.0625 0.45312,0.04687 0.84375,0.203125 z m 1.76114,-1.25 q 0.48437,-0.203125 1.01562,-0.3125 0.54688,-0.125 1.1875,-0.125 1.29688,0 2.10938,0.8125 0.82812,0.8125 0.82812,2.515625 v 6.5 q -0.67187,0.1875 -1.375,0.296875 -0.6875,0.109375 -1.35937,0.109375 -0.67188,0 -1.26563,-0.171875 -0.57812,-0.15625 -1.03125,-0.53125 -0.4375,-0.375 -0.70312,-0.9375 -0.25,-0.578125 -0.25,-1.390625 0,-0.765625 0.23437,-1.328125 0.23438,-0.578125 0.64063,-0.953125 0.40625,-0.390625 0.96875,-0.578125 0.5625,-0.203125 1.21875,-0.203125 0.60937,0 1.35937,0.140625 v -0.890625 q 0,-1.078125 -0.42187,-1.5 -0.42188,-0.4375 -1.20313,-0.4375 -0.42187,0 -0.8125,0.09375 -0.375,0.07813 -0.8125,0.25 z m 0.76562,6.734375 q 0,0.859375 0.4375,1.28125 0.45313,0.40625 1.26563,0.40625 0.51562,0 1.10937,-0.140625 v -3.109375 q -0.5625,-0.15625 -1.10937,-0.15625 -0.34375,0 -0.67188,0.09375 -0.3125,0.07813 -0.54687,0.28125 -0.23438,0.1875 -0.35938,0.515625 -0.125,0.328125 -0.125,0.828125 z m 8.76868,1.546875 q 0.25,0.07813 0.48437,0.109375 0.25,0.03125 0.46875,0.03125 1.07813,0 1.60938,-0.859375 0.53125,-0.875 0.53125,-2.890625 0,-1.046875 -0.14063,-1.75 -0.125,-0.71875 -0.375,-1.140625 -0.25,-0.4375 -0.60937,-0.625 -0.34375,-0.1875 -0.8125,-0.1875 -0.625,0 -1.15625,0.296875 z m 0,-8.40625 q 0.29687,-0.15625 0.59375,-0.234375 0.3125,-0.07813 0.75,-0.07813 0.90625,0 1.5625,0.359375 0.65625,0.359375 1.0625,1.03125 0.40625,0.65625 0.59375,1.609375 0.20312,0.9375 0.20312,2.109375 0,2.59375 -0.92187,3.890625 -0.92188,1.28125 -2.89063,1.28125 -0.70312,0 -1.375,-0.140625 -0.67187,-0.140625 -1.1875,-0.375 v -13.9375 l 1.60938,-0.28125 z m 8.72809,9.71875 h -1.60938 v -9.796875 h 1.60938 z m -0.8125,-11.53125 q -0.42188,0 -0.73438,-0.28125 -0.29687,-0.296875 -0.29687,-0.78125 0,-0.484375 0.29687,-0.765625 0.3125,-0.296875 0.73438,-0.296875 0.4375,0 0.73437,0.296875 0.3125,0.28125 0.3125,0.765625 0,0.484375 -0.3125,0.78125 -0.29687,0.28125 -0.73437,0.28125 z m 6.26483,11.71875 q -1.39063,-0.03125 -1.98438,-0.671875 -0.59375,-0.65625 -0.59375,-2.046875 V 42.060707 l 1.59375,-0.28125 v 11.984375 q 0,0.65625 0.26563,0.953125 0.26562,0.28125 0.92187,0.390625 z m 3.59595,-0.1875 h -1.60938 v -9.796875 h 1.60938 z m -0.8125,-11.53125 q -0.42188,0 -0.73438,-0.28125 -0.29687,-0.296875 -0.29687,-0.78125 0,-0.484375 0.29687,-0.765625 0.3125,-0.296875 0.73438,-0.296875 0.4375,0 0.73437,0.296875 0.3125,0.28125 0.3125,0.765625 0,0.484375 -0.3125,0.78125 -0.29687,0.28125 -0.73437,0.28125 z m 5.21795,1.734375 h 2.45313 v 1.390625 h -2.45313 v 5.390625 q 0,1 0.35938,1.40625 0.35937,0.390625 0.98437,0.390625 0.3125,0 0.59375,-0.09375 0.29688,-0.09375 0.5,-0.21875 l 0.3125,1.28125 q -0.76562,0.453125 -1.625,0.453125 -1.375,0 -2.0625,-0.765625 -0.67187,-0.78125 -0.67187,-2.578125 v -9.28125 l 1.60937,-0.28125 z m 6.75428,7.765625 q 0.53125,-1.875 0.98437,-3.75 0.45313,-1.890625 0.85938,-4.015625 h 1.57812 q -0.28125,1.359375 -0.60937,2.6875 -0.3125,1.328125 -0.67188,2.5625 -0.34375,1.21875 -0.6875,2.3125 -0.34375,1.09375 -0.64062,1.984375 -0.35938,1.046875 -0.6875,1.765625 -0.3125,0.71875 -0.70313,1.15625 -0.375,0.4375 -0.82812,0.625 -0.45313,0.203125 -1.0625,0.203125 -0.32813,0 -0.67188,-0.07813 -0.32812,-0.07813 -0.5625,-0.171875 l 0.29688,-1.3125 q 0.48437,0.203125 0.92187,0.203125 0.53125,0 0.85938,-0.390625 0.34375,-0.390625 0.67187,-1.171875 l 0.1875,-0.46875 q -0.35937,-0.96875 -0.73437,-2.15625 -0.35938,-1.1875 -0.70313,-2.46875 -0.34375,-1.28125 -0.65625,-2.625 -0.3125,-1.359375 -0.57812,-2.65625 h 1.70312 q 0.14063,0.875 0.34375,1.921875 0.20313,1.046875 0.4375,2.09375 0.23438,1.046875 0.46875,2.03125 0.25,0.96875 0.48438,1.71875 z m 4.48248,5.484375 h -1.48438 l 4.51563,-18.0625 h 1.48437 z m 9.67822,-3.171875 q -2.28125,0 -3.5,-1.6875 -1.20312,-1.703125 -1.20312,-5.25 0,-1.8125 0.34375,-3.0625 0.34375,-1.25 0.95312,-2.03125 0.625,-0.78125 1.45313,-1.125 0.84375,-0.359375 1.82812,-0.359375 0.82813,0 1.53125,0.21875 0.71875,0.21875 1.15625,0.53125 l -0.5,1.40625 q -0.45312,-0.296875 -0.96875,-0.484375 -0.5,-0.1875 -1.17187,-0.1875 -1.5,0 -2.17188,1.25 -0.67187,1.234375 -0.67187,3.84375 0,2.625 0.70312,4.046875 0.71875,1.421875 2.32813,1.421875 0.76562,0 1.23437,-0.1875 0.48438,-0.1875 0.92188,-0.484375 l 0.46875,1.3125 q -0.42188,0.34375 -1.125,0.578125 -0.70313,0.25 -1.60938,0.25 z m 10.59741,-5.171875 q 0,1.15625 -0.21875,2.109375 -0.20312,0.9375 -0.625,1.609375 -0.40625,0.671875 -1.0625,1.046875 -0.64062,0.375 -1.51562,0.375 -0.875,0 -1.53125,-0.375 -0.65625,-0.375 -1.07813,-1.046875 -0.40625,-0.671875 -0.625,-1.609375 -0.20312,-0.953125 -0.20312,-2.109375 0,-1.140625 0.20312,-2.078125 0.21875,-0.953125 0.625,-1.640625 0.42188,-0.6875 1.07813,-1.046875 0.65625,-0.375 1.53125,-0.375 0.875,0 1.51562,0.375 0.65625,0.359375 1.0625,1.046875 0.42188,0.6875 0.625,1.640625 0.21875,0.9375 0.21875,2.078125 z m -1.6875,0 q 0,-0.8125 -0.0937,-1.5 -0.0937,-0.6875 -0.29687,-1.171875 -0.20313,-0.5 -0.54688,-0.765625 -0.32812,-0.265625 -0.79687,-0.265625 -0.48438,0 -0.8125,0.265625 -0.32813,0.265625 -0.54688,0.765625 -0.20312,0.484375 -0.29687,1.171875 -0.0937,0.6875 -0.0937,1.5 0,0.828125 0.0937,1.515625 0.0937,0.671875 0.29687,1.15625 0.21875,0.484375 0.54688,0.765625 0.32812,0.265625 0.8125,0.265625 0.46875,0 0.79687,-0.265625 0.34375,-0.28125 0.54688,-0.765625 0.20312,-0.484375 0.29687,-1.15625 0.0937,-0.6875 0.0937,-1.515625 z m 4.02848,-4.625 q 0.6875,-0.203125 1.48437,-0.34375 0.8125,-0.140625 1.48438,-0.140625 0.73437,0 1.32812,0.203125 0.59375,0.1875 1.01563,0.65625 0.42187,0.46875 0.65625,1.265625 0.23437,0.78125 0.23437,1.96875 v 5.90625 h -1.60937 v -5.78125 q 0,-1.453125 -0.375,-2.125 -0.375,-0.671875 -1.40625,-0.671875 -0.53125,0 -1.20313,0.1875 v 8.390625 h -1.60937 z m 10.35168,8.375 q 0.71875,0 1.07813,-0.390625 0.35937,-0.40625 0.35937,-1.0625 0,-0.40625 -0.15625,-0.6875 -0.14062,-0.296875 -0.39062,-0.515625 -0.23438,-0.234375 -0.5625,-0.40625 -0.3125,-0.1875 -0.625,-0.390625 -0.3125,-0.1875 -0.60938,-0.4375 -0.29687,-0.25 -0.53125,-0.578125 -0.23437,-0.328125 -0.375,-0.734375 -0.14062,-0.421875 -0.14062,-0.984375 0,-1.21875 0.75,-1.953125 0.76562,-0.75 2.04687,-0.75 0.54688,0 1.03125,0.140625 0.48438,0.140625 0.79688,0.296875 l -0.35938,1.296875 q -0.32812,-0.1875 -0.67187,-0.28125 -0.32813,-0.09375 -0.71875,-0.09375 -0.59375,0 -0.95313,0.34375 -0.35937,0.34375 -0.35937,1 0,0.375 0.125,0.640625 0.14062,0.265625 0.34375,0.484375 0.21875,0.21875 0.48437,0.40625 0.28125,0.1875 0.57813,0.34375 0.35937,0.203125 0.70312,0.453125 0.34375,0.25 0.60938,0.578125 0.28125,0.3125 0.4375,0.75 0.17187,0.4375 0.17187,1.0625 0,1.28125 -0.76562,2.078125 -0.75,0.78125 -2.20313,0.78125 -0.73437,0 -1.34375,-0.21875 -0.59375,-0.203125 -0.89062,-0.359375 l 0.32812,-1.328125 q 0.28125,0.140625 0.75,0.328125 0.48438,0.1875 1.0625,0.1875 z m 6.61179,1.140625 h -1.60938 v -9.796875 h 1.60938 z m -0.8125,-11.53125 q -0.42188,0 -0.73438,-0.28125 -0.29687,-0.296875 -0.29687,-0.78125 0,-0.484375 0.29687,-0.765625 0.3125,-0.296875 0.73438,-0.296875 0.4375,0 0.73437,0.296875 0.3125,0.28125 0.3125,0.765625 0,0.484375 -0.3125,0.78125 -0.29687,0.28125 -0.73437,0.28125 z m 5.0773,10.390625 q 0.71875,0 1.07812,-0.390625 0.35938,-0.40625 0.35938,-1.0625 0,-0.40625 -0.15625,-0.6875 -0.14063,-0.296875 -0.39063,-0.515625 -0.23437,-0.234375 -0.5625,-0.40625 -0.3125,-0.1875 -0.625,-0.390625 -0.3125,-0.1875 -0.60937,-0.4375 -0.29688,-0.25 -0.53125,-0.578125 -0.23438,-0.328125 -0.375,-0.734375 -0.14063,-0.421875 -0.14063,-0.984375 0,-1.21875 0.75,-1.953125 0.76563,-0.75 2.04688,-0.75 0.54687,0 1.03125,0.140625 0.48437,0.140625 0.79687,0.296875 l -0.35937,1.296875 q -0.32813,-0.1875 -0.67188,-0.28125 -0.32812,-0.09375 -0.71875,-0.09375 -0.59375,0 -0.95312,0.34375 -0.35938,0.34375 -0.35938,1 0,0.375 0.125,0.640625 0.14063,0.265625 0.34375,0.484375 0.21875,0.21875 0.48438,0.40625 0.28125,0.1875 0.57812,0.34375 0.35938,0.203125 0.70313,0.453125 0.34375,0.25 0.60937,0.578125 0.28125,0.3125 0.4375,0.75 0.17188,0.4375 0.17188,1.0625 0,1.28125 -0.76563,2.078125 -0.75,0.78125 -2.20312,0.78125 -0.73438,0 -1.34375,-0.21875 -0.59375,-0.203125 -0.89063,-0.359375 l 0.32813,-1.328125 q 0.28125,0.140625 0.75,0.328125 0.48437,0.1875 1.0625,0.1875 z m 6.50241,-8.65625 h 2.45312 v 1.390625 h -2.45312 v 5.390625 q 0,1 0.35937,1.40625 0.35938,0.390625 0.98438,0.390625 0.3125,0 0.59375,-0.09375 0.29687,-0.09375 0.5,-0.21875 l 0.3125,1.28125 q -0.76563,0.453125 -1.625,0.453125 -1.375,0 -2.0625,-0.765625 -0.67188,-0.78125 -0.67188,-2.578125 v -9.28125 l 1.60938,-0.28125 z m 5.5047,5.375 q 0.0156,0.703125 0.125,1.296875 0.10937,0.59375 0.35937,1.03125 0.25,0.4375 0.67188,0.6875 0.42187,0.234375 1.07812,0.234375 0.53125,0 0.98438,-0.15625 0.46875,-0.171875 0.67187,-0.28125 l 0.29688,1.296875 q -0.23438,0.15625 -0.8125,0.359375 -0.5625,0.203125 -1.34375,0.203125 -1.03125,0 -1.73438,-0.375 -0.6875,-0.375 -1.14062,-1.046875 -0.4375,-0.671875 -0.625,-1.609375 -0.17188,-0.9375 -0.17188,-2.046875 0,-2.703125 0.89063,-3.953125 0.89062,-1.25 2.35937,-1.25 1.67188,0 2.35938,1.25 0.6875,1.25 0.6875,3.5 0,0.203125 0,0.421875 0,0.21875 -0.0156,0.4375 z m 1.60937,-4.25 q -0.79687,0 -1.15625,0.796875 -0.35937,0.796875 -0.4375,2.140625 h 2.96875 q 0,-1.359375 -0.28125,-2.140625 -0.28125,-0.796875 -1.09375,-0.796875 z m 5.41538,-0.84375 q 0.6875,-0.203125 1.48437,-0.34375 0.8125,-0.140625 1.48438,-0.140625 0.73437,0 1.32812,0.203125 0.59375,0.1875 1.01563,0.65625 0.42187,0.46875 0.65625,1.265625 0.23437,0.78125 0.23437,1.96875 v 5.90625 h -1.60937 v -5.78125 q 0,-1.453125 -0.375,-2.125 -0.375,-0.671875 -1.40625,-0.671875 -0.53125,0 -1.20313,0.1875 v 8.390625 H 450.25 Z m 11.97668,9.765625 q -1,0 -1.67187,-0.390625 -0.67188,-0.40625 -1.09375,-1.078125 -0.42188,-0.6875 -0.60938,-1.609375 -0.17187,-0.9375 -0.17187,-2.046875 0,-2.421875 0.89062,-3.78125 0.89063,-1.375 2.67188,-1.375 0.54687,0 0.96875,0.125 0.4375,0.125 0.8125,0.328125 l -0.40625,1.328125 q -0.57813,-0.375 -1.29688,-0.375 -1,0 -1.48437,0.921875 -0.46875,0.90625 -0.46875,2.828125 0,0.8125 0.0937,1.5 0.0937,0.671875 0.32812,1.15625 0.23438,0.484375 0.60938,0.765625 0.39062,0.28125 0.98437,0.28125 0.40625,0 0.73438,-0.09375 0.32812,-0.109375 0.625,-0.28125 l 0.35937,1.25 q -0.3125,0.203125 -0.8125,0.375 -0.48437,0.171875 -1.0625,0.171875 z m 6.24027,-2.28125 q 0.53125,-1.875 0.98437,-3.75 0.45313,-1.890625 0.85938,-4.015625 h 1.57812 q -0.28125,1.359375 -0.60937,2.6875 -0.3125,1.328125 -0.67188,2.5625 -0.34375,1.21875 -0.6875,2.3125 -0.34375,1.09375 -0.64062,1.984375 -0.35938,1.046875 -0.6875,1.765625 -0.3125,0.71875 -0.70313,1.15625 -0.375,0.4375 -0.82812,0.625 -0.45313,0.203125 -1.0625,0.203125 -0.32813,0 -0.67188,-0.07813 -0.32812,-0.07813 -0.5625,-0.171875 l 0.29688,-1.3125 q 0.48437,0.203125 0.92187,0.203125 0.53125,0 0.85938,-0.390625 0.34375,-0.390625 0.67187,-1.171875 l 0.1875,-0.46875 q -0.35937,-0.96875 -0.73437,-2.15625 -0.35938,-1.1875 -0.70313,-2.46875 -0.34375,-1.28125 -0.65625,-2.625 -0.3125,-1.359375 -0.57812,-2.65625 h 1.70312 q 0.14063,0.875 0.34375,1.921875 0.20313,1.046875 0.4375,2.09375 0.23438,1.046875 0.46875,2.03125 0.25,0.96875 0.48438,1.71875 z"
       fill-rule="nonzero"
       id="path41" />
    <path
       fill="#000000"
       fill-opacity="0"
       d="m 345.0656,378.98163 h 99.2756 v 42.01575 h -99.2756 z"
       fill-rule="evenodd"
       id="path43" />
    <path
       fill="#f3f3f3"
       d="m 361.52322,392.97974 q 0.45312,1.39062 0.89062,2.82812 0.4375,1.42188 0.85938,2.98438 0.42187,1.5625 0.82812,3.32812 0.42188,1.75 0.85938,3.78125 h -1.6875 q -0.14063,-0.84375 -0.3125,-1.65625 -0.15625,-0.82812 -0.3125,-1.64062 h -4.07813 q -0.1875,0.8125 -0.34375,1.64062 -0.14062,0.8125 -0.28125,1.65625 h -1.625 q 0.40625,-2.03125 0.82813,-3.78125 0.4375,-1.76562 0.85937,-3.32812 0.42188,-1.5625 0.85938,-2.98438 0.4375,-1.4375 0.89062,-2.82812 z m -0.90625,1.89062 q -0.46875,1.54688 -0.90625,3.125 -0.42188,1.5625 -0.8125,3.20313 h 3.40625 q -0.375,-1.64063 -0.8125,-3.20313 -0.42188,-1.57812 -0.875,-3.125 z m 8.44659,9.14063 q 0.21875,-0.73438 0.46875,-1.73438 0.25,-1.01562 0.48438,-2.09375 0.25,-1.07812 0.46875,-2.14062 0.21875,-1.0625 0.35937,-1.9375 h 1.60938 q -0.23438,1.23437 -0.5625,2.59375 -0.32813,1.35937 -0.67188,2.6875 -0.34375,1.3125 -0.70312,2.48437 -0.35938,1.17188 -0.65625,2.03125 h -1.65625 q -0.29688,-0.85937 -0.65625,-2.03125 -0.35938,-1.17187 -0.70313,-2.48437 -0.34375,-1.32813 -0.67187,-2.6875 -0.32813,-1.35938 -0.5625,-2.59375 h 1.70312 q 0.14063,0.875 0.35938,1.9375 0.21875,1.0625 0.4375,2.14062 0.23437,1.07813 0.46875,2.09375 0.25,1 0.48437,1.73438 z m 5.11353,-7.70313 q 0.48437,-0.20312 1.01562,-0.3125 0.54688,-0.125 1.1875,-0.125 1.29688,0 2.10938,0.8125 0.82812,0.8125 0.82812,2.51563 v 6.5 q -0.67187,0.1875 -1.375,0.29687 -0.6875,0.10938 -1.35937,0.10938 -0.67188,0 -1.26563,-0.17188 -0.57812,-0.15625 -1.03125,-0.53125 -0.4375,-0.375 -0.70312,-0.9375 -0.25,-0.57812 -0.25,-1.39062 0,-0.76563 0.23437,-1.32813 0.23438,-0.57812 0.64063,-0.95312 0.40625,-0.39063 0.96875,-0.57813 0.5625,-0.20312 1.21875,-0.20312 0.60937,0 1.35937,0.14062 v -0.89062 q 0,-1.07813 -0.42187,-1.5 -0.42188,-0.4375 -1.20313,-0.4375 -0.42187,0 -0.8125,0.0937 -0.375,0.0781 -0.8125,0.25 z m 0.76562,6.73438 q 0,0.85937 0.4375,1.28125 0.45313,0.40625 1.26563,0.40625 0.51562,0 1.10937,-0.14063 v -3.10937 q -0.5625,-0.15625 -1.10937,-0.15625 -0.34375,0 -0.67188,0.0937 -0.3125,0.0781 -0.54687,0.28125 -0.23438,0.1875 -0.35938,0.51562 -0.125,0.32813 -0.125,0.82813 z m 8.78434,2.85937 h -1.60938 v -9.79687 h 1.60938 z m -0.8125,-11.53125 q -0.42188,0 -0.73438,-0.28125 -0.29687,-0.29687 -0.29687,-0.78125 0,-0.48437 0.29687,-0.76562 0.3125,-0.29688 0.73438,-0.29688 0.4375,0 0.73437,0.29688 0.3125,0.28125 0.3125,0.76562 0,0.48438 -0.3125,0.78125 -0.29687,0.28125 -0.73437,0.28125 z m 6.2648,11.71875 q -1.39063,-0.0312 -1.98438,-0.67187 -0.59375,-0.65625 -0.59375,-2.04688 v -11.67187 l 1.59375,-0.28125 v 11.98437 q 0,0.65625 0.26563,0.95313 0.26562,0.28125 0.92187,0.39062 z m 2.14285,-9.78125 q 0.48438,-0.20312 1.01563,-0.3125 0.54687,-0.125 1.1875,-0.125 1.29687,0 2.10937,0.8125 0.82813,0.8125 0.82813,2.51563 v 6.5 q -0.67188,0.1875 -1.375,0.29687 -0.6875,0.10938 -1.35938,0.10938 -0.67187,0 -1.26562,-0.17188 -0.57813,-0.15625 -1.03125,-0.53125 -0.4375,-0.375 -0.70313,-0.9375 -0.25,-0.57812 -0.25,-1.39062 0,-0.76563 0.23438,-1.32813 0.23437,-0.57812 0.64062,-0.95312 0.40625,-0.39063 0.96875,-0.57813 0.5625,-0.20312 1.21875,-0.20312 0.60938,0 1.35938,0.14062 v -0.89062 q 0,-1.07813 -0.42188,-1.5 -0.42187,-0.4375 -1.20312,-0.4375 -0.42188,0 -0.8125,0.0937 -0.375,0.0781 -0.8125,0.25 z m 0.76563,6.73438 q 0,0.85937 0.4375,1.28125 0.45312,0.40625 1.26562,0.40625 0.51563,0 1.10938,-0.14063 v -3.10937 q -0.5625,-0.15625 -1.10938,-0.15625 -0.34375,0 -0.67187,0.0937 -0.3125,0.0781 -0.54688,0.28125 -0.23437,0.1875 -0.35937,0.51562 -0.125,0.32813 -0.125,0.82813 z m 8.76867,1.54687 q 0.25,0.0781 0.48438,0.10938 0.25,0.0312 0.46875,0.0312 1.07812,0 1.60937,-0.85938 0.53125,-0.875 0.53125,-2.89062 0,-1.04688 -0.14062,-1.75 -0.125,-0.71875 -0.375,-1.14063 -0.25,-0.4375 -0.60938,-0.625 -0.34375,-0.1875 -0.8125,-0.1875 -0.625,0 -1.15625,0.29688 z m 0,-8.40625 q 0.29688,-0.15625 0.59375,-0.23437 0.3125,-0.0781 0.75,-0.0781 0.90625,0 1.5625,0.35938 0.65625,0.35937 1.0625,1.03125 0.40625,0.65625 0.59375,1.60937 0.20313,0.9375 0.20313,2.10938 0,2.59375 -0.92188,3.89062 -0.92187,1.28125 -2.89062,1.28125 -0.70313,0 -1.375,-0.14062 -0.67188,-0.14063 -1.1875,-0.375 v -13.9375 l 1.60937,-0.28125 z m 8.72809,9.71875 h -1.60937 v -9.79687 h 1.60937 z m -0.8125,-11.53125 q -0.42187,0 -0.73437,-0.28125 -0.29688,-0.29687 -0.29688,-0.78125 0,-0.48437 0.29688,-0.76562 0.3125,-0.29688 0.73437,-0.29688 0.4375,0 0.73438,0.29688 0.3125,0.28125 0.3125,0.76562 0,0.48438 -0.3125,0.78125 -0.29688,0.28125 -0.73438,0.28125 z m 6.26483,11.71875 q -1.39062,-0.0312 -1.98437,-0.67187 -0.59375,-0.65625 -0.59375,-2.04688 v -11.67187 l 1.59375,-0.28125 v 11.98437 q 0,0.65625 0.26562,0.95313 0.26563,0.28125 0.92188,0.39062 z m 3.59595,-0.1875 h -1.60938 v -9.79687 h 1.60938 z m -0.8125,-11.53125 q -0.42188,0 -0.73438,-0.28125 -0.29687,-0.29687 -0.29687,-0.78125 0,-0.48437 0.29687,-0.76562 0.3125,-0.29688 0.73438,-0.29688 0.4375,0 0.73437,0.29688 0.3125,0.28125 0.3125,0.76562 0,0.48438 -0.3125,0.78125 -0.29687,0.28125 -0.73437,0.28125 z m 5.21796,1.73438 h 2.45312 v 1.39062 h -2.45312 v 5.39063 q 0,1 0.35937,1.40625 0.35938,0.39062 0.98438,0.39062 0.3125,0 0.59375,-0.0937 0.29687,-0.0937 0.5,-0.21875 l 0.3125,1.28125 q -0.76563,0.45313 -1.625,0.45313 -1.375,0 -2.0625,-0.76563 -0.67188,-0.78125 -0.67188,-2.57812 v -9.28125 l 1.60938,-0.28125 z m 6.75427,7.76562 q 0.53125,-1.875 0.98437,-3.75 0.45313,-1.89062 0.85938,-4.01562 h 1.57812 q -0.28125,1.35937 -0.60937,2.6875 -0.3125,1.32812 -0.67188,2.5625 -0.34375,1.21875 -0.6875,2.3125 -0.34375,1.09375 -0.64062,1.98437 -0.35938,1.04688 -0.6875,1.76563 -0.3125,0.71875 -0.70313,1.15625 -0.375,0.4375 -0.82812,0.625 -0.45313,0.20312 -1.0625,0.20312 -0.32813,0 -0.67188,-0.0781 -0.32812,-0.0781 -0.5625,-0.17188 l 0.29688,-1.3125 q 0.48437,0.20313 0.92187,0.20313 0.53125,0 0.85938,-0.39063 0.34375,-0.39062 0.67187,-1.17187 l 0.1875,-0.46875 q -0.35937,-0.96875 -0.73437,-2.15625 -0.35938,-1.1875 -0.70313,-2.46875 -0.34375,-1.28125 -0.65625,-2.625 -0.3125,-1.35938 -0.57812,-2.65625 h 1.70312 q 0.14063,0.875 0.34375,1.92187 0.20313,1.04688 0.4375,2.09375 0.23438,1.04688 0.46875,2.03125 0.25,0.96875 0.48438,1.71875 z"
       fill-rule="nonzero"
       id="path45" />
    <path
       fill="#000000"
       fill-opacity="0"
       d="m 199.24672,266.39896 v -82.4567 h 42.01575 v 82.4567 z"
       fill-rule="evenodd"
       id="path47" />
    <path
       fill="#f3f3f3"
       d="m 224.72922,244.46504 h 1.4375 v 5.76562 h -12.92188 v -1.6875 h 11.48438 z m -8.15625,-2.06091 q -0.20313,-0.48438 -0.3125,-1.01563 -0.125,-0.54687 -0.125,-1.1875 0,-1.29687 0.8125,-2.10937 0.8125,-0.82813 2.51562,-0.82813 h 6.5 q 0.1875,0.67188 0.29688,1.375 0.10937,0.6875 0.10937,1.35938 0,0.67187 -0.17187,1.26562 -0.15625,0.57813 -0.53125,1.03125 -0.375,0.4375 -0.9375,0.70313 -0.57813,0.25 -1.39063,0.25 -0.76562,0 -1.32812,-0.23438 -0.57813,-0.23437 -0.95313,-0.64062 -0.39062,-0.40625 -0.57812,-0.96875 -0.20313,-0.5625 -0.20313,-1.21875 0,-0.60938 0.14063,-1.35938 h -0.89063 q -1.07812,0 -1.5,0.42188 -0.4375,0.42187 -0.4375,1.20312 0,0.42188 0.0937,0.8125 0.0781,0.375 0.25,0.8125 z m 6.73437,-0.76563 q 0.85938,0 1.28125,-0.4375 0.40625,-0.45312 0.40625,-1.26562 0,-0.51563 -0.14062,-1.10938 h -3.10938 q -0.15625,0.5625 -0.15625,1.10938 0,0.34375 0.0937,0.67187 0.0781,0.3125 0.28125,0.54688 0.1875,0.23437 0.51563,0.35937 0.32812,0.125 0.82812,0.125 z m -6.9375,-8.67494 v -2.45313 h 1.39063 v 2.45313 h 5.39062 q 1,0 1.40625,-0.35938 0.39063,-0.35937 0.39063,-0.98437 0,-0.3125 -0.0937,-0.59375 -0.0937,-0.29688 -0.21875,-0.5 l 1.28125,-0.3125 q 0.45312,0.76562 0.45312,1.625 0,1.375 -0.76562,2.0625 -0.78125,0.67187 -2.57813,0.67187 h -9.28125 l -0.28125,-1.60937 z m 5.375,-5.5047 q 0.70313,-0.0156 1.29688,-0.125 0.59375,-0.10937 1.03125,-0.35937 0.4375,-0.25 0.6875,-0.67188 0.23437,-0.42187 0.23437,-1.07812 0,-0.53125 -0.15625,-0.98438 -0.17187,-0.46875 -0.28125,-0.67187 l 1.29688,-0.29688 q 0.15625,0.23438 0.35937,0.8125 0.20313,0.5625 0.20313,1.34375 0,1.03125 -0.375,1.73438 -0.375,0.6875 -1.04688,1.14062 -0.67187,0.4375 -1.60937,0.625 -0.9375,0.17188 -2.04688,0.17188 -2.70312,0 -3.95312,-0.89063 -1.25,-0.89062 -1.25,-2.35937 0,-1.67188 1.25,-2.35938 1.25,-0.6875 3.5,-0.6875 0.20312,0 0.42187,0 0.21875,0 0.4375,0.0156 z m -4.25,-1.60937 q 0,0.79687 0.79688,1.15625 0.79687,0.35937 2.14062,0.4375 v -2.96875 q -1.35937,0 -2.14062,0.28125 -0.79688,0.28125 -0.79688,1.09375 z m -0.84375,-5.41538 q -0.20312,-0.6875 -0.34375,-1.48437 -0.14062,-0.8125 -0.14062,-1.48438 0,-0.73437 0.20312,-1.32812 0.1875,-0.59375 0.65625,-1.01563 0.46875,-0.42187 1.26563,-0.65625 0.78125,-0.23437 1.96875,-0.23437 h 5.90625 v 1.60937 h -5.78125 q -1.45313,0 -2.125,0.375 -0.67188,0.375 -0.67188,1.40625 0,0.53125 0.1875,1.20313 h 8.39063 v 1.60937 z m 9.76563,-11.97668 q 0,1 -0.39063,1.67187 -0.40625,0.67188 -1.07812,1.09375 -0.6875,0.42188 -1.60938,0.60938 -0.9375,0.17187 -2.04687,0.17187 -2.42188,0 -3.78125,-0.89062 -1.375,-0.89063 -1.375,-2.67188 0,-0.54687 0.125,-0.96875 0.125,-0.4375 0.32812,-0.8125 l 1.32813,0.40625 q -0.375,0.57813 -0.375,1.29688 0,1 0.92187,1.48437 0.90625,0.46875 2.82813,0.46875 0.8125,0 1.5,-0.0937 0.67187,-0.0937 1.15625,-0.32812 0.48437,-0.23438 0.76562,-0.60938 0.28125,-0.39062 0.28125,-0.98437 0,-0.40625 -0.0937,-0.73438 -0.10937,-0.32812 -0.28125,-0.625 l 1.25,-0.35937 q 0.20313,0.3125 0.375,0.8125 0.17188,0.48437 0.17188,1.0625 z m -2.28125,-6.24025 q -1.875,-0.53125 -3.75,-0.98438 -1.89063,-0.45312 -4.01563,-0.85937 v -1.57813 q 1.35938,0.28125 2.6875,0.60938 1.32813,0.3125 2.5625,0.67187 1.21875,0.34375 2.3125,0.6875 1.09375,0.34375 1.98438,0.64063 1.04687,0.35937 1.76562,0.6875 0.71875,0.3125 1.15625,0.70312 0.4375,0.375 0.625,0.82813 0.20313,0.45312 0.20313,1.0625 0,0.32812 -0.0781,0.67187 -0.0781,0.32813 -0.17187,0.5625 l -1.3125,-0.29687 q 0.20312,-0.48438 0.20312,-0.92188 0,-0.53125 -0.39062,-0.85937 -0.39063,-0.34375 -1.17188,-0.67188 l -0.46875,-0.1875 q -0.96875,0.35938 -2.15625,0.73438 -1.1875,0.35937 -2.46875,0.70312 -1.28125,0.34375 -2.625,0.65625 -1.35937,0.3125 -2.65625,0.57813 v -1.70313 q 0.875,-0.14062 1.92188,-0.34375 1.04687,-0.20312 2.09375,-0.4375 1.04687,-0.23437 2.03125,-0.46875 0.96875,-0.25 1.71875,-0.48437 z"
       fill-rule="nonzero"
       id="path49" />
    <path
       fill="#000000"
       fill-opacity="0"
       d="M 590.1601,172.69817 V 277.64304 H 548.14435 V 172.69817 Z"
       fill-rule="evenodd"
       id="path51" />
    <path
       fill="#f3f3f3"
       d="m 576.162,191.94499 h -1.42187 v -2.875 h -11.5 v -1.67188 h 11.5 v -2.875 h 1.42187 z m -12.92187,1.7132 h 14.20312 l 0.28125,1.60937 h -4.75 q 0.10938,0.35938 0.1875,0.76563 0.0781,0.42187 0.0781,0.85937 0,0.60938 -0.20313,1.14063 -0.1875,0.54687 -0.65625,0.95312 -0.46875,0.40625 -1.26562,0.64063 -0.78125,0.23437 -1.96875,0.23437 h -5.90625 v -1.60937 h 5.78125 q 1.45312,0 2.125,-0.375 0.67187,-0.375 0.67187,-1.40625 0,-0.53125 -0.1875,-1.20313 h -8.39062 z m 8.34375,13.22668 q 0.25,-0.59375 0.25,-1.34375 0,-0.6875 -0.23438,-1.28125 h -8.35937 v -1.60937 h 9.35937 q 0.26563,0.54687 0.4375,1.23437 0.1875,0.70313 0.1875,1.54688 0,0.45312 -0.0625,0.89062 -0.0469,0.45313 -0.20312,0.84375 z m -3.45313,7.99509 q -1.15625,0 -2.10937,-0.21875 -0.9375,-0.20313 -1.60938,-0.625 -0.67187,-0.40625 -1.04687,-1.0625 -0.375,-0.64063 -0.375,-1.51563 0,-0.875 0.375,-1.53125 0.375,-0.65625 1.04687,-1.07812 0.67188,-0.40625 1.60938,-0.625 0.95312,-0.20313 2.10937,-0.20313 1.14063,0 2.07813,0.20313 0.95312,0.21875 1.64062,0.625 0.6875,0.42187 1.04688,1.07812 0.375,0.65625 0.375,1.53125 0,0.875 -0.375,1.51563 -0.35938,0.65625 -1.04688,1.0625 -0.6875,0.42187 -1.64062,0.625 -0.9375,0.21875 -2.07813,0.21875 z m 0,-1.6875 q 0.8125,0 1.5,-0.0937 0.6875,-0.0937 1.17188,-0.29688 0.5,-0.20312 0.76562,-0.54687 0.26563,-0.32813 0.26563,-0.79688 0,-0.48437 -0.26563,-0.8125 -0.26562,-0.32812 -0.76562,-0.54687 -0.48438,-0.20313 -1.17188,-0.29688 -0.6875,-0.0937 -1.5,-0.0937 -0.82812,0 -1.51562,0.0937 -0.67188,0.0937 -1.15625,0.29688 -0.48438,0.21875 -0.76563,0.54687 -0.26562,0.32813 -0.26562,0.8125 0,0.46875 0.26562,0.79688 0.28125,0.34375 0.76563,0.54687 0.48437,0.20313 1.15625,0.29688 0.6875,0.0937 1.51562,0.0937 z m -4.60937,10.09097 q -0.0937,-0.23437 -0.1875,-0.59375 -0.0781,-0.34375 -0.14063,-0.71875 -0.0625,-0.375 -0.10937,-0.76562 -0.0469,-0.375 -0.0469,-0.70313 0,-0.76562 0.1875,-1.40625 0.17188,-0.625 0.60938,-1.07812 0.45312,-0.4375 1.21875,-0.6875 0.78125,-0.23438 1.95312,-0.23438 h 6.03125 v 1.59375 h -5.96875 q -1.4375,0 -2.03125,0.4375 -0.57812,0.45313 -0.57812,1.34375 0,0.29688 0.0156,0.59375 0.0312,0.29688 0.125,0.60938 h 8.4375 v 1.60937 z m 0,8.72063 q -1.04688,0 -1.76563,-0.28125 -0.71875,-0.26563 -1.15625,-0.73438 -0.45312,-0.46875 -0.65625,-1.09375 -0.20312,-0.625 -0.20312,-1.32812 0,-0.59375 0.125,-1.20313 0.125,-0.59375 0.39062,-1.09375 l 1.34375,0.34375 q -0.1875,0.32813 -0.32812,0.8125 -0.15625,0.48438 -0.15625,1.01563 0,0.90625 0.53125,1.42187 0.51562,0.53125 1.78125,0.53125 h 0.46875 q -0.14063,-0.29687 -0.21875,-0.64062 -0.0781,-0.32813 -0.0781,-0.76563 0,-1.75 1.20313,-2.5625 1.20312,-0.8125 3.40625,-0.8125 1.17187,0 2.10937,0.21875 0.9375,0.21875 1.59375,0.67188 0.67188,0.45312 1.01563,1.17187 0.34375,0.73438 0.34375,1.78125 0,0.6875 -0.14063,1.34375 -0.14062,0.67188 -0.35937,1.20313 z m 8.20312,-1.60938 q 0.0781,-0.26562 0.10938,-0.51562 0.0312,-0.23438 0.0312,-0.4375 0,-1.125 -0.85938,-1.64063 -0.85937,-0.5 -2.79687,-0.5 -1.76563,0 -2.48438,0.5 -0.71875,0.5 -0.71875,1.4375 0,0.3125 0.0781,0.59375 0.0781,0.29688 0.20312,0.5625 z m -8.48437,4.49372 h 14.20312 l 0.28125,1.60937 h -4.75 q 0.10938,0.35938 0.1875,0.76563 0.0781,0.42187 0.0781,0.85937 0,0.60938 -0.20313,1.14063 -0.1875,0.54687 -0.65625,0.95312 -0.46875,0.40625 -1.26562,0.64063 -0.78125,0.23437 -1.96875,0.23437 h -5.90625 v -1.60937 h 5.78125 q 1.45312,0 2.125,-0.375 0.67187,-0.375 0.67187,-1.40625 0,-0.53125 -0.1875,-1.20313 h -8.39062 z m 1.46875,10.58606 q -0.29688,0.53125 -0.29688,1.15625 0,0.46875 0.1875,0.8125 0.1875,0.35937 0.60938,0.60937 0.4375,0.25 1.14062,0.375 0.71875,0.14063 1.76563,0.14063 2.01562,0 2.875,-0.51563 0.875,-0.51562 0.875,-1.625 0,-0.21875 -0.0312,-0.46875 -0.0312,-0.23437 -0.10938,-0.48437 z m -4.92188,0 v -1.60938 h 12.98438 q 0.21875,0.51563 0.35937,1.17188 0.14063,0.67187 0.14063,1.35937 0,1.03125 -0.35938,1.76563 -0.34375,0.73437 -1.01562,1.1875 -0.65625,0.46875 -1.625,0.67187 -0.95313,0.21875 -2.1875,0.21875 -2.46875,0 -3.78125,-0.79687 -1.3125,-0.78125 -1.3125,-2.57813 0,-0.42187 0.0937,-0.76562 0.0781,-0.32813 0.23437,-0.625 z m 3.73438,13.18121 q -0.0937,-0.23438 -0.1875,-0.59375 -0.0781,-0.34375 -0.14063,-0.71875 -0.0625,-0.375 -0.10937,-0.76563 -0.0469,-0.375 -0.0469,-0.70312 0,-0.76563 0.1875,-1.40625 0.17188,-0.625 0.60938,-1.07813 0.45312,-0.4375 1.21875,-0.6875 0.78125,-0.23437 1.95312,-0.23437 h 6.03125 v 1.59375 h -5.96875 q -1.4375,0 -2.03125,0.4375 -0.57812,0.45312 -0.57812,1.34375 0,0.29687 0.0156,0.59375 0.0312,0.29687 0.125,0.60937 h 8.4375 v 1.60938 z m 9.51562,4.39252 v 2.45312 h -1.39062 v -2.45312 h -5.39063 q -1,0 -1.40625,0.35937 -0.39062,0.35938 -0.39062,0.98438 0,0.3125 0.0937,0.59375 0.0937,0.29687 0.21875,0.5 l -1.28125,0.3125 q -0.45313,-0.76563 -0.45313,-1.625 0,-1.375 0.76563,-2.0625 0.78125,-0.67188 2.57812,-0.67188 h 9.28125 l 0.28125,1.60938 z"
       fill-rule="nonzero"
       id="path53" />
  </g>
</svg>
